<?xml version="1.0" encoding="UTF-8" standalone="no"?>
<svg
   xmlns:osb="http://www.openswatchbook.org/uri/2009/osb"
   xmlns:dc="http://purl.org/dc/elements/1.1/"
   xmlns:cc="http://creativecommons.org/ns#"
   xmlns:rdf="http://www.w3.org/1999/02/22-rdf-syntax-ns#"
   xmlns:svg="http://www.w3.org/2000/svg"
   xmlns="http://www.w3.org/2000/svg"
   xmlns:xlink="http://www.w3.org/1999/xlink"
   xmlns:sodipodi="http://sodipodi.sourceforge.net/DTD/sodipodi-0.dtd"
   xmlns:inkscape="http://www.inkscape.org/namespaces/inkscape"
   version="1.1"
   width="800"
   height="800"
   viewBox="0 0 800 800"
   id="svg14"
   sodipodi:docname="20191109_cat.svg"
   inkscape:version="0.92.4 (5da689c313, 2019-01-14)">
  <metadata
     id="metadata18">
    <rdf:RDF>
      <cc:Work
         rdf:about="">
        <dc:format>image/svg+xml</dc:format>
        <dc:type
           rdf:resource="http://purl.org/dc/dcmitype/StillImage" />
        <dc:title></dc:title>
      </cc:Work>
    </rdf:RDF>
  </metadata>
  <sodipodi:namedview
     pagecolor="#ffffff"
     bordercolor="#666666"
     borderopacity="1"
     objecttolerance="10"
     gridtolerance="10"
     guidetolerance="10"
     inkscape:pageopacity="0"
     inkscape:pageshadow="2"
     inkscape:window-width="1920"
     inkscape:window-height="1017"
     id="namedview16"
     showgrid="false"
     inkscape:zoom="1.18"
     inkscape:cx="157.71618"
     inkscape:cy="364.68802"
     inkscape:window-x="-8"
     inkscape:window-y="1072"
     inkscape:window-maximized="1"
     inkscape:current-layer="g12" />
  <defs
     id="defs2">
    <linearGradient
       inkscape:collect="always"
       id="linearGradient8623">
      <stop
         style="stop-color:#ffff00;stop-opacity:1;"
         offset="0"
         id="stop8619" />
      <stop
         style="stop-color:#ffff00;stop-opacity:0;"
         offset="1"
         id="stop8621" />
    </linearGradient>
    <linearGradient
       inkscape:collect="always"
       id="linearGradient8615">
      <stop
         style="stop-color:#ffff15;stop-opacity:1;"
         offset="0"
         id="stop8611" />
      <stop
         style="stop-color:#ffff15;stop-opacity:0;"
         offset="1"
         id="stop8613" />
    </linearGradient>
    <linearGradient
       inkscape:collect="always"
       id="linearGradient8605">
      <stop
         style="stop-color:#ffff15;stop-opacity:1;"
         offset="0"
         id="stop8601" />
      <stop
         style="stop-color:#ffff15;stop-opacity:0;"
         offset="1"
         id="stop8603" />
    </linearGradient>
    <linearGradient
       id="linearGradient8595"
       osb:paint="gradient">
      <stop
         style="stop-color:#ffff15;stop-opacity:1;"
         offset="0"
         id="stop8591" />
      <stop
         style="stop-color:#ffff15;stop-opacity:0;"
         offset="1"
         id="stop8593" />
    </linearGradient>
    <linearGradient
       inkscape:collect="always"
       id="linearGradient8563">
      <stop
         style="stop-color:#7e7e0a;stop-opacity:1;"
         offset="0"
         id="stop8559" />
      <stop
         style="stop-color:#7e7e0a;stop-opacity:0;"
         offset="1"
         id="stop8561" />
    </linearGradient>
    <linearGradient
       inkscape:collect="always"
       xlink:href="#linearGradient8563"
       id="linearGradient8565"
       x1="634.92535"
       y1="195.75433"
       x2="829.5332"
       y2="190.96039"
       gradientUnits="userSpaceOnUse" />
    <radialGradient
       inkscape:collect="always"
       xlink:href="#linearGradient8605"
       id="radialGradient8609"
       cx="539.99371"
       cy="231.65863"
       fx="539.99371"
       fy="231.65863"
       r="7.7196269"
       gradientTransform="matrix(1,0,0,4.737444,0,-865.81117)"
       gradientUnits="userSpaceOnUse" />
    <radialGradient
       inkscape:collect="always"
       xlink:href="#linearGradient8615"
       id="radialGradient8617"
       cx="436.93427"
       cy="241.19588"
       fx="436.93427"
       fy="241.19588"
       r="8.0560009"
       gradientTransform="matrix(1,0,0,4.6220346,0,-873.6198)"
       gradientUnits="userSpaceOnUse" />
    <linearGradient
       inkscape:collect="always"
       xlink:href="#linearGradient8623"
       id="linearGradient8625"
       x1="-2.0258601"
       y1="195.20529"
       x2="170.54286"
       y2="194.00681"
       gradientUnits="userSpaceOnUse" />
  </defs>
  <g
     id="g4" />
  <g
     transform="scale(1,1) scale(1,1)"
     id="g12">
    <path
       d="M 400,400 502.26635,643.8047 224.88653,578.27277 426.18729,410.43796 404.94413,676.49314 186.61076,494.02929 440.7416,438.61285 298.78645,667.75142 185.71728,407.66587 435.06307,475.86617 202.00221,616.5396 217.56639,334.74101 405.91257,510.12324 131.77972,529.83254 271.47896,286.63564 356.48672,528.86251 100.83728,421.43225 333.38209,268.4262 295.9745,522.27247 114.84605,309.35776 389.08333,278.21271 237.67199,485.86938 171.27437,212.35223 427.43898,308.01371 196.05901,421.96268 259.90017,146.23763 442.7156,345.99259 183.48047,339.60732 364.88248,120.8801 435.63281,379.48779 207.17326,253.01609 467.95064,138.39759 412.87542,398.14567 267.31336,178.74864 552.03359,192.97348 385.20895,396.43908 356.54198,132.27001 604.56237,272.29454 364.64649,374.99801 461.11003,124.61936 619.75608,360.28426 361.3275,340.45046 563.42754,159.91597 599.42704,440.5282 380.83399,303.81016 645.49557,234.25637 552.16587,499.64691 422.57076,277.77824 692.50114,336.26111 491.11918,529.89389 479.59783,273.57458 695.81379,449.17609 430.8757,530.43475 539.97595,298.02625 654.74586,554.09863 384.16371,507.06074 589.34388,351.58901 576.70042,633.65589 359.09354,470.43755 614.16446,427.77588 475.67465,675.36521 357.54858,433.31313 604.91851,514.15625 369.43708,673.97447 375.06428,407.33466 558.52656,594.74054 275.97905,632.30055 402.19823,400.2055 479.43917,653.25394 209.99175,560.40686 427.05856,413.83018 379.12282,676.59902 180.10861,473.31744 438.3981,443.86826 274.01673,657.75487 187.48141,387.77615 428.55502,480.79757 182.37148,597.47368 225.96483,318.75862 395.55551,512.24413 120.62796,504.38941 283.83357,276.48846 343.88222,526.04724 100.10139,393.49228 346.6247,264.58901 283.71255,513.35781 124.67553,283.27465 400.45898,279.74471 228.77608,471.05434 189.99941,192.14018 435.09907,312.90959 193.29471,402.90708 284.35917,134.82752 446.07175,351.7584 188.68181,319.19583 391.04016,119.59724 435.39768,383.80393 220.74029,234.8293 491.67699,146.76586 410.78877,399.46203 287.99945,166.34893 569.88112,208.88133 383.51863,394.36453 381.58764,128.45336 614.38134,292.48131 365.46948,370.39462 486.70525,130.79485 621.02388,381.03812 366.04337,335.21111 585.41258,175.74979 593.2309,458.4437 389.65534,300.3711 660.15716,257.66254 540.85337,512.28044 434.39551,278.4795 697.29854,363.74744 477.70233,536.18016 492.18394,280.0174 689.88239,476.47852 418.32619,530.78272 550.40556,310.57902 639.07194,576.97522 374.75754,503.11897 594.67716,369.16207 553.92995,648.67738 353.9496,464.59221 612.13842,447.92614 449.59602,680.53986 356.45924,428.04044 594.53279,533.50971 344.24643,669.08016 376.64925,404.56009 540.38024,609.6489 255.48168,618.8596 404.339,400.81842 455.73517,660.54792 196.90534,541.31522 427.50734,417.46566 353.32781,674.27657 175.61011,452.21258 435.41576,449.00595 250.23974,645.45364 191.08561,368.28237 421.42613,485.15431 164.58654,576.62127 235.75021,303.77209 384.85647,513.3693 111.90141,477.99259 296.9561,267.65264 331.43459,521.9823 101.98575,365.60327 359.99929,262.06666 272.22535,503.20532 136.89764,258.2415 411.45408,282.32591 221.25224,455.32006 210.50912,173.79467 442.09045,318.42044 192.33213,383.52826 309.72872,125.77764 448.73559,357.66892 195.82577,299.23818 417.13059,120.76881 434.68373,387.89098 236.03581,217.90934 514.43212,157.28492 408.58741,400.37286 309.85084,155.901 586.0838,226.31613 382.10505,391.95097 406.96664,126.99743 622.21665,313.38674 366.85859,365.74146 511.67343,139.36431 620.33702,401.68195 371.40896,330.35276 605.85485,193.60657 C 929.05403,-173.88405 713.28844,433.10882 585.43459,475.55759 L 398.95241,297.76245 672.57568,282.3668 528.51515,523.67599 446.27848,280.34398 699.50142,391.57403 463.91098,541.103 504.24611,287.72469 681.4222,503.09832 405.98204,529.93688 559.69174,324.2 621.34116,598.26264 365.9453,498.36768 598.35809,387.31058 529.89248,661.47807 349.53074,458.41264 608.19661,467.93384 423.21092,683.24111 355.9695,422.86312 582.30385,551.90604 319.70435,661.86844 378.51675,402.1478 520.82271,622.84934 236.41344,603.61651 406.36568,401.82803 431.35953,665.6051 185.72605,521.17975 427.49679,421.29347 327.78898,669.53207 173.1317,430.90796 431.79772,453.95129 227.67107,630.9469 196.47124,349.35413 413.72892,488.86299 148.81049,554.16202 246.81,289.90037 373.91312,513.4537 105.68104,450.87434 310.71001,260.18245 319.26908,516.67351 106.47408,338.01193 373.37677,260.84988 261.63836,491.88361 151.40142,234.47833 421.97314,285.89858 215.19508,438.79557 232.61756,157.47302 448.36637,324.46461 193.20727,363.99852 335.78079,119.15849 450.71044,363.64625 204.87196,279.92086 442.92322,124.37084 433.53231,391.69871 252.94004,202.42157 536.02127,169.84612 406.32885,400.86999 332.68171,147.51482 600.51232,245.10933 381.01605,389.2337 432.45485,127.93097 628.01997,334.81657 368.8289,361.10546 535.78933,150.26371 617.72729,422.03218 377.39239,325.9518 624.5674,213.33513 576.13369,491.72793 408.64502,296.04305 682.63623,308.15309 515.28329,533.75291 458.10365,283.38788 699.08823,419.4949 449.88189,544.64785 515.65646,296.65333 670.50951,528.8005 393.9556,527.93879 567.72514,338.78322 601.71428,617.77583 357.79484,492.8831 600.32568,405.87718 504.80482,671.95228 345.85334,451.9824 602.34873,487.61506 396.75425,683.45702 356.05123,417.8458 568.32121,569.1684 296.02408,652.41802 380.61273,400.12465 500.01636,634.20758 218.93202,586.72112 408.22334,403.21662 406.525,668.3636 176.53445,500.19005 426.99605,425.25802 302.73524,662.3937 172.6712,409.59644 427.55559,458.62937 206.51633,614.35407 203.56406,331.15355 405.52425,491.85518 135.18885,530.29049 259.02166,277.25005 362.82851,512.46201 102.02549,423.27372 324.9554,254.11811 307.51108,510.13932 113.52682,310.96231 386.63102,260.9169 252.07084,479.47401 168.05563,212.19355 431.92815,290.39647 210.68688,421.61957 256.12494,143.31401 453.88943,330.95721 195.93944,344.49402 362.28216,115.01852 452.00802,369.61445 215.76198,261.42666 468.1914,130.35768 431.98982,395.18266 271.31733,188.51987 556.26151,184.32322 404.07095,400.95242 356.29581,141.2825 613.05449,265.0816 380.29512,386.25392 457.82571,131.26131 631.76198,356.57387 371.38779,356.55582 558.83428,163.40773 613.24364,441.91021 383.95311,322.08183 641.37818,234.76694 565.43626,506.82364 418.64613,295.26383 690.24485,334.79525 501.29593,542.44435 469.75255,287.61568 696.06086,447.26308 435.75121,546.81371 526.29079,306.74721 657.2425,553.35843 382.35321,524.84048 574.40643,354.21154 580.36874,635.34596 350.365,486.74692 600.53413,424.69815 478.89242,680.01549 342.92458,445.38507 594.62226,506.78656 370.46046,681.19801 356.66961,413.04859 552.69145,585.12847 273.4098,640.82722 382.88073,398.51056 478.13642,643.60495 203.17956,568.337 409.85949,404.9597 381.45002,668.78197 169.3923,478.54164 425.9808,429.29973 278.39238,652.9114 174.20809,388.46872 422.70952,462.96593 186.96927,595.81383 212.27518,313.83378 396.88083,494.06834 123.84822,505.21447 272.25389,265.91461 351.71012,510.36926 100.97048,395.43443 339.55043,249.4857 296.28491,502.41092 123.08143,284.69363 399.64003,262.23383 243.63455,466.07005 C 120.3914,639.43947 -137.67375,-225.69094 186.70996,191.58205 L 441.23929,295.74562 207.79663,403.93928 280.8195,131.43671 458.63179,337.81115 200.53095,325.19316 388.99651,113.38375"
       stroke-miterlimit="10"
       id="path10"
       inkscape:connector-curvature="0"
       style="fill:none;stroke:#672802;stroke-linecap:round;stroke-miterlimit:10;stroke-opacity:1;paint-order:fill stroke markers"
       sodipodi:nodetypes="ccccccccccccccccccccccccccccccccccccccccccccccccccccccccccccccccccccccccccccccccccccccccccccccccccccccccccccccccccccccccccccccccccccccccccccccccccccccccccccccccccccccccccccccccccccccccccccccccccccccccccccccccccccccccccccccccccccccccccccccccccccccccccccccccccccccccccccccccccccccccccccccccccccccccccccccccccccccccccccccccccccccccccccccccccccccccccccccccccccccccc" />
  </g>
  <ellipse
     style="opacity:0.75700001;fill:url(#radialGradient8617);fill-opacity:1;stroke:#00edff;stroke-width:1.16702986;stroke-opacity:0"
     id="path828"
     cx="436.93427"
     cy="241.19588"
     rx="7.472486"
     ry="36.6516"
     transform="matrix(0.93360565,0.35830224,-0.25596337,0.96668648,0,0)" />
  <ellipse
     style="opacity:0.75700001;fill:url(#radialGradient8609);fill-opacity:1;stroke:#00edff;stroke-width:1.13175845;stroke-opacity:0"
     id="path828-7"
     cx="539.99371"
     cy="231.65863"
     rx="7.1537476"
     ry="36.005421"
     transform="matrix(0.93958497,0.34231577,-0.22844293,0.97355731,0,0)" />
  <path
     style="fill:none;stroke:url(#linearGradient8625);stroke-width:2.28165007;stroke-linecap:butt;stroke-linejoin:miter;stroke-miterlimit:4;stroke-dasharray:none;stroke-opacity:1"
     d="m 140.62994,218.52176 c 0,0 35.12098,13.98933 10.32408,-22.72897 C -23.99466,-63.264476 83.726561,273.1815 94.489544,300.83507 161.42022,242.75265 68.198637,205.38293 140.62994,218.52176 Z"
     id="path857"
     inkscape:connector-curvature="0"
     sodipodi:nodetypes="cscc" />
  <path
     style="fill:none;stroke:url(#linearGradient8565);stroke-width:1.37607813;stroke-linecap:butt;stroke-linejoin:miter;stroke-miterlimit:4;stroke-dasharray:none;stroke-opacity:1;fill-opacity:1"
     d="m 760.52312,112.18828 c 0,0 -69.06677,221.57591 -74.72298,175.92324 C 672.68683,182.27044 674.24697,200.67025 642.63694,220.5037 601.34487,214.45879 755.38342,47.174267 760.52312,112.18828 Z"
     id="path857-4"
     inkscape:connector-curvature="0"
     sodipodi:nodetypes="cscc" />
</svg>
