<svg version="1.1" xmlns="http://www.w3.org/2000/svg" xmlns:xlink="http://www.w3.org/1999/xlink" width="800" height="800" viewBox="0 0 800 800"><defs/><g/><g transform="scale(1,1) scale(1,1)"><g transform="scale(1,1)"><rect fill="rgb(0,0,0)" stroke="none" x="0" y="0" width="800" height="800" fill-opacity="1"/></g><path fill="none" stroke="rgb(255,255,255)" paint-order="fill stroke markers" d=" M 400 400 L 339.8239476278266 126.77675972080914 L 583.2972435213783 315.14317445637914 L 318.9017758740783 293.39839596950884 L 593.256036248428 172.2554789191595 L 472.20762182286313 438.22545548413405 L 463.95784322562326 168.98654561715196 L 654.3982742516278 413.574439850423 L 390.9227910078238 344.96910829630605 L 673.953357200568 290.49710059228835 L 488.3927350604903 530.026550964885 L 524.6501263934773 268.0530294963771 L 647.2283654084995 548.2581413457223 L 391.54329507480605 425.23123814615457 L 667.5348320365997 428.6323085624768 L 424.2829474744738 619.5268363604146 L 503.7980525457866 364.7998224525535 L 555.1990899603267 656.7319016367113 L 322.4922024740939 473.7440053260741 L 584.6640385980336 524.5793334846172 L 301.48335655542724 649.0296260748189 L 429.03257775266195 404.6830384489937 L 416.4255538126282 688.572775773592 L 227.39995700236273 448.4460214056301 L 475.17772716701825 540.7990782672139 L 176.12374436672783 591.3447993095887 L 357.69587082409987 368.05318574463297 L 293.1799893379764 632.9047023381988 L 167.38658945704765 349.6332608887816 L 400.29963681635536 484.40049327134267 L 108.28822751007698 465.3347738502291 L 344.364365119073 280.9333644451129 L 238.03834640489848 524.1241605768763 L 186.82377966515733 220.40397126852088 L 398.6944184569644 402.4875517551241 L 129.14145960935502 326.04502577702704 L 409.94260326669627 200.34691443035425 L 265.4476288832488 422.68504878137355 L 288.25711520656864 123.29699684426794 L 465.1706483801475 355.3575406559003 L 223.94670678794634 234.86155957857818 L 529.4811221731229 182.3350343595204 L 344.43619970997406 381.5959498317232 L 430.4048104651723 106.04414590112566 L 553.8270028501931 382.4314230134128 L 340.37201378963323 226.20053749027875 L 645.4945214485298 250.4015003512262 L 416.47420403841954 417.19238706042165 L 550.3679219323665 175.39370923720253 L 603.8864749382144 479.82197797982576 L 417.47614797793494 289.15463614220005 L 699.4232401986862 381.89017256371346 L 428.5574267032498 500.37145623499157 L 597.7758358447483 293.4962938211097 L 573.8872831526231 601.9943353836948 L 419.3149989370679 374.2332777606092 L 663.8248201210813 519.8694886149559 L 363.1553408937644 573.1326355085562 L 561.97990110915 398.84987038027816 L 465.26398906333725 686.6207701421697 L 354.5557767925916 421.43136801807395 L 557.4702977344396 603.9689749798657 L 248.4048027808166 581.2418374501544 L 477.26023277730746 440.20052958112467 L 322.2266362710085 688.8755117253243 L 271.2450771054595 394.0462380459696 L 434.986345926476 603.1141142234738 L 142.88021922283406 504.89766903154936 L 403.1916075181632 404.62392696378043 L 207.97496443522058 606.1790377258408 L 229.64865035185156 299.4811208762328 L 356.78007648614806 532.0544286676693 L 103.36234899775633 370.381795162814 L 391.07521025015876 324.2428668692885 L 170.3947911213861 479.6862983556002 L 268.23500498268595 185.4881816320097 L 355.9012453621493 442.5579386843376 L 153.45362841427863 236.2083544406603 L 455.05965955309875 257.8788050511812 L 216.2109225900907 371.6916988673864 L 381.6774646213363 113.9173543846938 L 420.1872232150252 394.1788354164994 L 270.4254287688635 161.41481941878456 L 563.9719651155906 257.8277271006151 L 307.88685219849475 331.4604598085814 L 523.0930462507998 126.5063406969964 L 499.5630902138092 420.81899953547315 L 397.58790555671004 173.53125818712886 L 658.3991317411909 340.19641416600746 L 384.96121042020843 368.4022015430973 L 629.3093198563167 221.66329710575576 L 534.4273134601239 511.6296402368504 L 475.33880132732605 253.94454064705013 L 683.5647460236926 475.2649129140129 L 397.9755407765304 447.42915328533843 L 655.1915599827416 355.1099028338039 L 489.3674061863835 616.8485085557347 L 473.7045550092058 348.7390790309789 L 619.7870544762733 603.2465641105302 L 336.1766245245057 509.04541004075776 L 598.0410734875784 464.03911698132964 L 373.49458687995855 675.346271159048 L 408.36563990828864 398.9843371165343 L 493.63834582213667 666.7450692496602 L 233.63153455296168 503.0079600406518 L 498.57378336453695 501.41961239489046 L 236.0992889736061 648.6210204963033 L 331.3130763543035 373.6698283527702 L 363.61146245434867 641.9553452267219 L 150.36038648303577 416.87859692930704 L 417.9598102456477 461.46238121291094 L 140.00336792168042 542.4006323591658 L 301.34199143111164 287.0272937382777 L 288.21767203725557 551.3478978492226 L 138.93987479478255 283.6157690012809 L 403.6631333297809 382.1659360491077 L 127.3438928169536 403.8721554164726 L 350.7614117647025 190.63643320201786 L 294.1688699385134 450.83132320637884 L 215.08726750880498 163.9690050928667 L 463.0198538598597 323.55932218587606 L 196.71986648362213 296.05541222372955 L 466.796495865867 144.68842813412778 L 362.24616401474105 398.52277735020067 L 348.53552574451913 113.40123953135776 L 559.199578398908 333.728669174949 L 304.34189748864003 263.4961840830273 L 598.0182551865919 184.33578556822187 L 438.65471325189765 422.44042369540017 L 479.273694877981 151.84000186781395 L 631.7863715191113 421.4820208342875 L 388.5312734026178 308.25967787652047 L 682.2671334448777 299.7857882986516 L 465.54229737385907 505.02268437892985 L 550.1780350170351 252.99554618938618 L 630.5686026864295 550.8282896575035 L 403.98414676985175 389.49521428032074 L 680.6246708939027 441.1858991651525 L 413.74109515506984 593.0495304065716 L 537.9819907133706 359.1482944147165 L 543.8023339720123 660.3577232843386 L 346.81267085875777 446.78186154739836 L 598.6319675089521 545.618330151441 L 299.56147709714804 627.4604162943544 L 465.4561975554036 413.2027551179814 L 405.26919106497184 696.8109781882472 L 256.4916476771707 434.2887220095883 L 483.01410592743855 571.2751888515063 L 176.3050802362048 576.5334845911143 L 388.08172172257184 390.24509807582587 L 276.19383518475445 644.258000681432 L 193.64134997275684 346.79295849212485 L 395.73449342044074 519.9097898643763 L 105.1749567688637 454.0227872929468 L 362.631782421793 311.1232470663086 L 212.01154161354276 532.7347363546833 L 205.97133818224373 223.11248131734897 L 379.75690844023586 435.15656397760586 L 121.680457430579 312.1796424353395 L 415.09943084117083 230.53533639012073 L 232.36777290352734 421.5608895522328 L 301.27498505665454 125.02749178435306 L 435.48071622096467 377.6818716652748 L 216.13631677927285 213.49617111354496 L 525.7682870760159 206.24214821132395 L 310.9398614409072 366.5833633688219 L 442.46251385451495 103.3504093773928 L 520.8947354880263 390.96333800887544 L 339.05277011607086 196.79577638035215 L 639.7213378975813 266.48281627126494 L 390.6887697434483 389.48933763166906 L 567.4133060910581 169.9299067588918 L 575.347858128513 476.6847195926685 L 428.4292353176139 256.42648454458407 L 696.9838012705609 393.672996595861 L 416.0610381593704 466.17979793872587 L 622.6792245945586 291.0933039413078 L 553.7443391204193 593.4017270907851 L 443.8350541104612 346.0538890187266 L 665.6119607867142 533.446666322611 L 364.27278196885464 540.6279010708726 L 592.39729194931 406.16025496325466 L 452.1915564001541 679.2358153127933 L 388.40682289846035 404.9228556484184 L 559.4012766017913 624.0630303867149 L 258.3204017755263 556.5214606911774 L 506.423691206054 460.7765242113632 L 310.8606640462939 686.0343266712176 L 306.59255811671574 392.01146570538674 L 430.40213896519435 629.9173108859295 L 154.4922169641495 489.1313263867435 L 423.2114973186466 436.6119268219103 L 192.44394952849865 606.0760008446736 L 258.91553287587556 309.1322972909072 L 340.38285964357664 560.6196380504429 L 111.28900068804944 359.71926374322163 L 396.9445159310745 360.9867547577205 L 148.1129316486434 476.52444824926914 L 287.7669761360822 200.16519062950897 L 327.0374901109187 465.1001112599243 L 156.9682854773978 224.4712670030748 L 447.15808446213805 291.1166484746212 L 189.80741875672885 359.15434520234095 L 393.21016563179296 126.836065844453 L 383.6419647609053 404.0314450879943 L 273.69648582108107 144.0561582871452 L 547.6943901867467 281.7325054821282 L 284.18038252134465 306.569026224278 L 532.2331574645617 134.45755937193678 L 463.40612324201857 415.8692249661247 L 407.0978878948124 150.64502148064764 L 641.1214402250091 354.0458280656129 L 371.52864070082387 333.60696611700644 L 641.8957857356385 226.61559532905656 L 506.0825620811995 495.3404838988186 L 495.92459615793763 230.6363080070887 L 670.6301065867149 483.28585605738317 L 399.2005957970174 409.7549617309941 L 673.5766495318229 362.8360615637453 L 472.0592550449606 596.3081368168698 L 505.42903886286757 332.63340785063565 L 611.7332333071282 611.7450908721589 L 350.95681608663307 476.74334498743445 L 619.3732335114124 480.5397509714562 L 365.0152561557387 657.4267606483422 L 445.9738851787201 396.2351022353428 L 486.19392966880747 680.1354406037157 L 256.007802012703 481.5439811344818 L 516.0520393088292 529.1422486685512 L 230.5556118370384 636.3709485648874 L 366.5970134308159 385.6735652307695 L 350.45003017581183 659.909438310098 L 172.7197619262244 406.45679237643066 L 424.3791575045294 497.43106495434375 L 131.5519310580056 533.6613232960715 L 327.1276497991197 309.6550678650176 L 264.9267610210378 568.6623204079511 L 156.02112312846643 279.5839821457606 L 395.2964726845119 419.0804843119765 L 113.82422070129996 392.8707037974938 L 364.33447526521036 216.4095701673131 L 261.2141424802169 460.09982359794265 L 226.57959370673098 159.8590786474021 L 441.6905608419536 353.27957185505204 L 181.15512045265143 277.0742477476892 L 470.89261057063624 166.69760433748817 L 325.2654208821365 394.1426406635555 L 358.84456802113925 104.89889102068076 L 531.3960606713298 351.23813747574377 L 293.46214786289875 234.56514405334602 L 598.8521996091594 199.74206355345726 L 405.89435804101726 403.7374110310933 L 494.60248243645515 139.4676764187182 L 605.3036565727717 427.1591552265277 L 389.1287294835069 272.8017236409556 L 685.7129909328763 310.97835843115115 L 443.8317260862751 476.76221721864886 L 574.5614273012388 242.008826401412 L 610.5271937280725 549.7894682896388 L 419.11600567750946 354.98938765969245 L 688.6800950056195 453.9735041180361 L 405.2112946035942 563.0447901269024 L 570.4951889898966 356.69501283493474 L 530.2351061185851 659.2558691294662 L 373.9569077997583 421.159444415982 L 608.1379983875431 565.4779328662912 L 300.9036002109908 602.5915717512623 L 500.16863043530344 424.3156575478251 L 393.5944986867311 699.8797909995957 L 288.68420786448405 422.03535068837203 L 487.3475197790157 599.7599686182292 L 180.96029228306205 559.368151089164 L 416.806639992952 414.89041757962065 L 260.29090028373446 650.8054752943627 L 222.976223975966 346.89429040955093 L 388.53760480554473 553.231362233335 L 107.22644052185848 441.8909662075735 L 378.97194399161816 343.9476656162152 L 188.17037174278397 537.4818231734473 L 227.54020263987277 229.9624958558833 L 358.6356513567529 465.7516772957728 L 119.27975293589628 299.1935927887144 L 417.56911219467355 263.4635902375438 L 201.90035653957372 417.6396476386236 L 315.3832023683796 131.7808113439474 L 403.61428379821206 397.9191708490244 L 212.55905365597374 194.37211101941568 L 518.280611198711 232.5024192967543 L 279.98124415022335 349.53022243277894 L 453.9160559811412 105.85035171676878 L 485.6523867290451 396.9579220077929 L 340.79746036473296 170.33516095087785 L 629.1858180447704 283.8495491176364 L 367.2747938511109 360.01264977407635 L 582.2958205810043 169.029918102728 L 544.6624660480817 470.1253865252121 L 441.416325020948 226.7034763859089 L 689.3555868083953 405.15304713958625 L 406.0806657432808 430.15524316708803 L 644.4297743224702 292.0847619844216 L 532.2316626493782 580.3929506501477 L 469.8210504063705 320.62787296529973 L 662.5871440941058 545.0528926810116 L 368.51966741962985 506.30707901346244 L 619.3863824422434 415.6280771439642 L 439.1425268330371 666.8059244610188 L 423.61381860412314 391.04550703988474 L 557.5894635357159 640.9337433448762 L 272.26334367221455 530.4796598235226 L 532.3936041299772 482.6341754618019 L 301.19466977109664 678.2494021100008 L 343.3300987656729 392.91230634363615 L 423.4297380525697 652.9559775828284 L 170.88234333976982 473.1765570498179 L 440.35748744862104 469.5266874945779 L 180.0700792422662 601.9122368977685 L 289.31714347422127 322.42726980093806 L 322.7517814670848 585.5394005466576 L 124.15488279536748 350.4506091985405 L 399.94685556884633 398.63982163762586 L 129.81262900704445 470.6722459583336 L 307.5943906906795 219.26120065362312 L 297.58680894835953 484.4226944636788 L 164.78641912218617 215.70639304757458 L 435.943961834633 325.17518563200133 L 167.46481438388133 345.29811642654994 L 403.6421151463199 144.54959096837885 L 346.6761669949516 410.94965278843716 L 279.98665443471737 130.75890829492027 L 527.4076602948326 305.9104472405753 L 264.1047434017918 281.3105276978986 L 538.6724625004434 146.84395141743087 L 426.8433094980352 407.8454661090163 L 418.12458416097985 132.15471702459809 L 619.3201204545186 367.02821539330296 L 361.2280765211101 298.8396099834097 L 650.4796427060282 234.89413487177393 L 477.6249357718343 475.45523817083074 L 516.7934962513779 211.39007338853176 L 653.2622428543079 488.92125747816647 L 403.382601042791 372.1517996332179 L 687.3456159003694 372.3557452444817 L 455.4829017240088 571.6137914898625 L 536.760485237667 319.96550249835 L 600.1134628567119 616.4232897786873 L 368.9644343142566 444.61857607909644 L 636.2406050548268 497.37473598407144 L 358.61013936110794 635.2161893614673 L 483.0185275752125 396.46110655745315 L 476.6438056313256 688.8250312412886 L 282.1099407967502 460.8020748615202 L 529.714043998785 556.2228217811562 L 228.5564922947584 620.4204225530405 L 401.3075822594465 400.62242603554625 L 336.78502409867633 673.0694402361864 L 199.0980785529928 397.84896308299557 L 427.6725865658248 532.3761292724762 L 127.74595043447783 522.5167927015269 L 352.06382757804107 335.56904414101683 L 242.3920918246069 581.7538264777392 L 176.80695497526548 278.7686443750701" stroke-opacity="1" stroke-linecap="round" stroke-miterlimit="10"/></g></svg>