<svg version="1.1" xmlns="http://www.w3.org/2000/svg" xmlns:xlink="http://www.w3.org/1999/xlink" width="800" height="800" viewBox="0 0 800 800"><defs/><g/><g transform="scale(1,1) scale(1,1)"><g transform="scale(1,1)"><rect fill="rgb(0,0,0)" stroke="none" x="0" y="0" width="800" height="800" fill-opacity="1"/></g><path fill="none" stroke="rgb(255,255,255)" paint-order="fill stroke markers" d=" M 400 400 L 580.6238085942695 459.44471461802794 L 163.3406393869965 225.30559236720657 L 553.2474826814629 616.041931827105 L 365.94933050209016 289.54211182698634 L 401.6281850199988 313.9437895151268 L 317.78742700702185 634.7532013400541 L 581.9075066549399 163.08313788973234 L 223.6994312256053 520.1097167281963 L 430.08133578172396 391.34648716164276 L 564.7881181176767 406.2378211362793 L 131.53819101266902 300.2420919322215 L 617.3572919130695 573.522610662481 L 321.2761346440109 279.61406115199884 L 385.6381584123329 346.2698291050395 L 386.9608416114466 629.5048952830524 L 509.7899161251237 120.83213972581717 L 250.46585576887554 580.2088880746664 L 452.7437409764625 366.91656668492783 L 533.831825108954 366.9266938313834 L 125.27295585587575 379.1713473813612 L 666.2917129771154 510.58713987433674 L 270.8538589802426 288.6451569341863 L 387.3484761198924 378.955997423906 L 446.18483186090276 603.3285932004715 L 428.14450812906153 103.34203916018117 L 298.7821854959625 631.2786796803836 L 461.74536690907246 331.0702427733701 L 494.7273151712969 345.46310312322873 L 143.8220522684074 453.11408322942833 L 693.5079956829057 433.4588993613892 L 222.55475454309467 318.30839222727303 L 404.960751516037 404.61578981607704 L 489.18989431506276 561.9263400509052 L 346.0011428182312 112.27700736209306 L 364.6153381964424 665.6429050725696 L 453.0236642741609 290.33548768936754 L 455.2868653939318 342.7905880560966 L 183.30792312300076 514.0666207877604 L 695.1083188784976 350.3747563788421 L 184.4558259710348 367.1277379399244 L 433.920735322941 417.20007223842276 L 512.3677770397136 512.7796973777492 L 272.35129555829565 145.96017854706287 L 441.28869216538885 677.5410170785077 L 425.37351238244577 252.41465497491515 L 422.9565321164435 356.7740078023312 L 237.3008440242638 556.0843054912788 L 670.4069383885028 270.47470575761236 L 163.62720909012003 430.6059335110156 L 467.64472537982954 412.95174344197284 L 515.2164648381793 464.0124519750553 L 214.92675801740518 199.63010325879648 L 520.3672250817727 663.9926133724061 L 380.6995682737889 225.00513552951438 L 403.67632465994296 382.58921008902723 L 297.7787784896089 576.0591069443421 L 622.0442894483525 202.55852835802565 L 165.0528089015234 501.8005929138874 L 498.5539534343344 391.0137390445669 L 500.32482890900843 423.1745269939695 L 179.16298568883633 266.1315954819416 L 592.8049670625221 625.2711426078425 L 323.80361563850533 214.6082475866761 L 400.97481788231823 413.51348658032094 L 356.3036934948844 574.0805624667453 L 555.6309426740554 153.88831878729482 L 190.8423451566322 572.2669330598814 L 519.2635712060352 353.59971671029433 L 472.9019117918675 396.1256922773262 L 167.4957116036229 336.9401725398779 L 650.1897097748165 564.9164147679236 L 261.7359686388316 225.50245509591738 L 415.4316564575378 441.9986773799366 L 405.2423164388828 553.330186493869 L 478.97252565559836 129.20914882990166 L 239.85178316858415 633.2315709085512 L 523.7499838860806 305.70108301700685 L 439.92247419183224 386.1825969583719 L 179.09081665351263 403.371037281148 L 685.9054561994816 489.28247422919867 L 202.80407717062656 259.03331725031546 L 444.5871671158733 460.8673231827396 L 438.85332307142846 519.5276201886097 L 400.98749451950584 130.12845891454504 L 307.7698077172313 676.8277153354309 L 508.32323775791684 254.37223588441128 L 409.01653189496716 393.6536658020191 L 210.0442920289093 457.7970632482495 L 696.044797825856 406.6849014133336 L 155.3820103163589 313.3265370757752 L 483.3124619367282 464.4542081817198 L 454.08295532948034 480.012189743657 L 330.47410484202703 154.94262857819243 L 387.6601852228374 697.2126969207632 L 472.2595337434446 207.69801957481235 L 387.26795961120223 415.8292231978387 L 254.02067274219274 494.69937143657427 L 679.9395674796713 326.26981597613565 L 126.6940663262792 383.4688184964571 L 524.5856216047017 449.5236303414435 L 450.9541392772107 442.5966254750791 L 274.9046043394966 198.9341790742893 L 470.8834542939862 691.4055170647946 L 417.99856918191193 173.5943292527684 L 380.10037838308733 447.427205801111 L 303.2345592496895 511.3989456903492 L 640.2334641312253 256.767265592185 L 121.75003457669271 462.1329640357522 L 560.5597144998055 415.82560958648963 L 432.4939982037214 414.3627158225251 L 239.4203949234271 255.09469438490132 L 548.2660844506057 659.7225252729204 L 350.8740546454303 158.61768416491944 L 390.415558629937 481.4278024281776 L 349.6300847062838 508.3646780493973 L 582.4868062323379 205.3084021768033 L 142.58797732164675 540.5587240437524 L 583.7652941044712 366.2071918652014 L 404.2124792186373 400.5768136608585 L 226.17232279466054 315.1667888411534 L 611.3491242569589 605.7475573969483 L 278.4141091322925 166.95876129069933 L 418.11236644663387 510.1731256380126 L 386.08468814950857 489.05539523824353 L 514.3714450979419 176.4764343271683 L 187.93595601966308 609.748830099997 L 588.2699379742261 306.2602850657525 L 373.21071108386434 403.88519742778885 L 234.0996828759981 370.8523110970358 L 653.5366999024374 535.8403952646038 L 209.311312370386 199.76845083936044 L 460.05830246922096 526.5689493728453 L 407.46047002051347 459.321701484509 L 444.57325627651016 171.72717920848675 L 253.34337779538217 661.7080230220956 L 570.6232937695446 243.5555242248146 L 347.05204735351396 423.9079466997169 L 259.17736242447825 415.01018264386147 L 670.9792287030892 458.25438712689055 L 152.21076322533904 254.91680960468267 L 510.51912189075455 525.2103608545181 L 411.34917214188295 426.45789699759854 L 381.5618621253176 189.26111176876393 L 331.7644449476167 690.5463461047755 L 530.4471306152508 186.57255230112085 L 332.5635749901433 457.29127618032635 L 295.0921755967299 442.66928564990496 L 663.0647637280188 381.99072605172415 L 114.4914516587757 327.2223767510691 L 561.9846205557271 503.2641001271044 L 398.40209769663704 398.0453783867522 L 332.40616636976614 224.36300152154962 L 414.51050597474745 693.28748038053 L 470.58153212438987 143.48190918761446 L 334.746090842163 498.210778466275 L 334.24684627165215 451.70932954729886 L 632.4488588320245 315.5549544473532 L 101.21764771591597 409.12086160009716 L 606.2702894109678 460.97580665273307 L 372.19743664703896 380.75932259947785 L 301.8071499796619 270.1571484053726 L 492.4345170553767 670.2656105170818 L 396.7630722388911 120.95588443456239 L 355.9546710492766 539.251632569415 L 368.94242365935446 443.1116027670662 L 584.620421300516 265.7951966542812 L 114.41262775826397 491.67820912502305 L 635.7337244572846 401.72518285469437 L 338.66553731897613 379.3156602900679 L 291.4872427918071 318.66582003060773 L 557.1771495217515 625.0539980007823 L 316.87913613888395 123.18195500888663 L 395.47230257658083 572.5362594584931 L 392.56412419254576 420.74478426737477 L 527.0684110402925 236.98939275039845 L 152.76044451743456 565.8028427834976 L 644.4274114707757 331.61821363862805 L 305.1577031027399 395.7146023222152 L 300.0231546812712 362.0145706017663 L 602.295234737872 563.9363938523508 L 239.90450429268202 151.2233286661883 L 449.5414100373362 590.9332841514549 L 400.5954440212524 390.71929087843296 L 468.1721156101788 230.31221114855234 L 211.77940010478886 623.4828089890844 L 629.0183228248508 258.67338325948367 L 279.2965768443345 428.89333286390905 L 323.14399535995085 393.6070934314856 L 624.1105102805848 494.9987306113644 L 174.67285414535553 202.82088317206941 L 511.85092317449335 589.1693618537131 L 391.3108900994238 360.4069791076193 L 415.9776369040958 243.75670934185104 L 284.4424513648052 658.8698507604422 L 589.3383939044347 191.71839384249708 L 267.77842306275227 474.84031249445206 L 354.4483472153531 409.09718370510956 L 622.1574939915454 426.9735185302607 L 128.66014739305172 272.66675666831026 L 574.4096173965374 564.6792539296141 L 366.04509496215934 337.2721386895635 L 377.03935144357945 272.51932113067045 L 362.15494912351204 669.0546618800355 L 528.4834882154576 139.15650232904687 L 275.30490713385984 527.1557491757607 L 386.43264713705753 407.0155318310199 L 599.1677943809985 368.00501436131987 L 106.95540251122299 353.11134798808683 L 628.6796101674988 518.0674886604204 L 328.9984678598279 327.6874254799227 L 355.4951109325324 309.78909232992487 L 435.94834537593204 654.4224741332694 L 452.44410158583247 107.78101819687345 L 303.80322791733573 577.9771271500234 L 411.6777426629648 388.96001021669355 L 560.5957240968062 324.51433943677273 L 111.56730849938202 435.2025239366249 L 666.8054296339342 453.11147551603483 L 286.60776138610777 335.9106298625993 L 352.50930898015065 347.8231503545225 L 497.7173462017975 618.5391544631411 L 369.3192151058803 101.80989288380869 L 352.0514192479606 619.1348442333469 L 424.0174624887457 359.32239797562784 L 513.756851087969 300.3286881052885 L 141.1664581311614 509.9075925834027 L 682.759623538218 376.3028057479324 L 246.57401283242288 363.3746336115335 L 366.16373062611575 379.1487843976024 L 541.3219836473015 567.5862280001666 L 288.2254318273398 122.28063644074496 L 415.76643675616026 643.3688793146105 L 419.5158433629634 324.59270024639994 L 466.70735097476427 296.19979837131956 L 191.2997683312735 569.3421269909888 L 673.2375723764426 295.99090009143197 L 216.69087381928708 408.39701471727903 L 391.81025900561104 397.71430567846795 L 563.3960938176284 509.4287364724787 L 218.05795578759052 166.89363483298453 L 488.1449400773481 645.4279967912537 L 397.1078698549928 292.34437917399 L 427.02950752674604 309.7796599471138 L 255.04513484975405 607.8288740895744 L 638.1703171727613 221.25130478742156 L 203.64596787778186 466.35422635233056 L 422.8316721973189 399.81870299866955 L 563.7467879153784 452.4530319131236 L 166.28160528053257 230.32691977220705 L 560.7803629854468 622.889684286524 L 358.8080796654848 270.0508253584441 L 400.701980710036 336.05437862636006 L 324.0105362494261 622.6348781105258 L 580.7795425499653 160.64129300833287 L 211.97227027180844 530.2971011857746 L 451.69684738345984 384.68285001926563 L 545.2893837834526 404.3447344193485 L 137.92573471030857 304.9770480756066 L 624.8246313691533 576.579390054917 L 309.4549222072722 263.9083801345662 L 391.22059758091837 368.17000620436454 L 389.531970768364 614.2819472675653 L 507.16529964359273 121.02209927177637 L 243.30493843626903 591.9195868611383 L 471.1534630457585 354.5778599949458 L 513.5301738588817 370.985323976418 L 134.92729957121406 382.01895848770334 L 672.2268199173743 510.5257912573455 L 256.02703587459325 277.84051000112345 L 399.0983148779544 398.5267936974994 L 443.896045235242 586.3878289648168 L 425.48491560534364 106.61765727285518 L 296.05467539011875 642.7405893293216 L 475.38107597221335 314.49138567976814 L 475.6754171387107 355.6280011958995 L 155.915663503354 452.6315051538584 L 696.8694134369546 431.4562961599288 L 206.6306389114302 312.83143084900837 L 421.8170911355156 419.9791153455696 L 481.40989690337415 545.06384152193 L 344.8409131802804 118.4455001229685 L 365.54805372063146 675.3272035232848 L 460.9332059366047 271.38068382222093 L 439.49941348623923 358.47216182578546 L 196.46850698855343 509.2115514755674 L 695.4373683857355 347.90391275606356 L 169.30578505750051 366.6894199233526 L 454.2378762106725 426.96297115472265 L 499.1638611515746 497.9592525134343 L 274.03798960299946 154.20150482143595 L 444.61712111917114 684.3810768617799 L 427.3279469570122 233.12214970580098 L 412.1394931858241 376.69713351919904 L 249.79973173236849 546.4015139040538 L 667.8937445756894 269.05323083549604 L 150.82620743752156 434.2772580721589 L 489.4075143933266 416.38374498512974 L 497.37756565589575 453.09397221483687 L 220.388017537267 208.61429503984436 L 524.5549983418413 667.5291500298933 L 377.19812503766354 207.31186494756477 L 398.996129353828 404.9483116133445 L 307.777556368291 561.7827689546071 L 617.4926737405559 203.49129651989742 L 155.66890556091022 508.1788902007139 L 519.6429289625166 388.1321940019974 L 479.28130859508025 417.6516625810207 L 188.73487495830574 274.21696927058304 L 596.30065310115 625.7027174608644 L 315.97660812053294 200.09392428449107 L 402.90064899246664 436.20238129440145 L 362.1232167042036 556.136348232983 L 550.3275370954425 158.04305296334292 L 185.30529643100817 579.707469436786 L 537.7320623715673 345.15130732066734 L 450.55271564181123 396.9106983914676 L 180.83873567761898 342.4233384685855 L 651.6824120712713 563.048422912098 L 251.16059990628798 215.18965312506288 L 423.6734903653445 462.8826471945214 L 405.6147853191724 533.2356778744753 L 474.47964755014743 136.85874796460996 L 237.91919306377144 640.1098067296352 L 538.0736744944554 293.04269887332055 L 418.3938040549445 393.46979169273936 L 195.2069609644747 404.7518614376859 L 684.5409750220364 486.3827484662886 L 191.26063627839898 253.2718186937438 L 458.1384192599453 478.0587509796567 L 433.12038025877905 499.20451284481794 L 398.89063658120233 140.88405948783435 L 308.5948823097088 681.7932178487399 L 517.5867996030564 239.2689312046033 L 390.3861896931213 406.8815322301158 L 227.39359481187145 454.0193710274759 L 691.5700123631747 404.26785373472916 L 144.5864965623878 311.7778020455594 L 500.5909964199957 476.55261759708856 L 442.3104612153198 461.5366782925391 L 332.12168396170375 167.78801391472686 L 389.9501958378508 699.397096232663 L 476.2541671560725 192.06769184630176 L 373.2945648547998 433.74698571490757 L 270.72119557438134 485.3315573354053 L 672.7533384677124 325.84160047759576 L 118.04653483468297 385.1917537911997 L 543.65270632906 455.7861527692672 L 433.946282749258 427.9234883104042 L 281.1788778883264 212.35719747619848 L 473.1246857326346 690.5537902232171 L 417.21731089447053 159.236349068197 L 371.99601896048466 468.2566279160706 L 317.31730482577217 496.72728934760903 L 631.3361907648869 259.57023319812674 L 116.13546484292942 465.75734102001707 L 579.3853024925265 416.24401930371135 L 411.70395085275493 405.0625739621532 L 250.57400551177676 267.29700727833006 L 548.9812884797417 656.2282890463896 L 346.40662111689625 146.9648579735574" stroke-opacity="1" stroke-linecap="round" stroke-miterlimit="10"/></g></svg>