<svg version="1.1" xmlns="http://www.w3.org/2000/svg" xmlns:xlink="http://www.w3.org/1999/xlink" width="800" height="800" viewBox="0 0 800 800"><defs/><g/><g transform="scale(1,1) scale(1,1)"><g transform="scale(1,1)"><rect fill="rgb(0,0,0)" stroke="none" x="0" y="0" width="800" height="800" fill-opacity="1"/></g><path fill="none" stroke="rgb(255,255,255)" paint-order="fill stroke markers" d=" M 400 400 L 646.9529021742746 563.8378385851648 L 435.79017376282 484.8245880839756 L 449.64653523949266 136.88497758649208 L 522.2793995894477 274.464255216149 L 191.4943103941638 445.0464141192206 L 175.09100047342264 311.99156883266784 L 479.451955766868 513.1852736543473 L 407.4748418554518 684.3769719336633 L 426.4916072205418 357.69682349066017 L 673.2267008430654 276.1618426572756 L 442.7234697937299 406.90416028337097 L 189.56080282346002 205.52994449552807 L 368.6754814277871 271.4696466395321 L 316.5982459683721 630.8343389879865 L 232.52232454137447 524.2580972938968 L 580.4052534121516 390.50954756835966 L 627.9216804582154 534.5265833092378 L 357.02201089014005 311.4421858035389 L 439.42562875859824 107.40299697231012 L 395.57246402644785 405.05115817601705 L 113.07692175202857 477.96811462347625 L 318.7095448763416 373.02222137431255 L 566.9651880584663 613.1008943592618 L 413.36878038286807 569.223971866857 L 505.8305083338895 209.42809545546262 L 610.8420636109616 290.7405149653181 L 256.6210309582765 384.5041693943005 L 182.9156515429642 219.58004880612114 L 416.2504878090803 454.13802888350034 L 313.07022388362924 686.9524723099867 L 371.7773234513853 423.3349521969962 L 686.8623249863523 369.7347135443881 L 511.92814197314897 458.3632312164782 L 279.5501024546372 181.79732060443988 L 416.55531477876065 197.01516619915884 L 284.93095807357474 546.0981905915667 L 151.66615109216968 481.71396548204837 L 501.0200745663528 427.72706466676266 L 593.2141801298055 621.5624642480052 L 398.24037644829633 386.68525816565926 L 530.8557709589002 132.10278196105634 L 468.30019730785045 359.92085994275214 L 126.86860259604936 384.9351238901259 L 268.40435335835707 301.8444179288135 L 475.09008801237195 609.4949226918407 L 344.18113223089216 626.5301090212351 L 510.47179694931964 298.4308484910937 L 676.4530796133838 356.0458087934409 L 342.58790908856577 373.80219937460123 L 241.67046434410392 145.73631301509792 L 400.8629174766285 370.0681192875646 L 232.64903441387668 637.1196894920101 L 288.04169958216875 443.4821384067032 L 647.075872604076 454.03713874747405 L 538.2647226485509 542.6706938107501 L 365.0270524429111 212.02983387926054 L 500.928406798178 162.48222684461894 L 307.32905428272386 461.1426417186854 L 107.4383978033519 399.2561695669294 L 416.75189490803507 411.1752782342693 L 515.4637199031635 675.6093993894287 L 386.3400559840991 471.39772746753596 L 593.2474228853553 202.6128703797987 L 555.0174330123244 366.9217029313471 L 188.8242592394236 316.74574942080346 L 268.8929929654786 212.21474498448458 L 403.6988898447252 555.8023303745042 L 252.15171641879138 634.7628032543006 L 463.5179952356787 371.4053417416777 L 695.1265579095541 448.46304394685814 L 417.03766928885267 415.8252686667421 L 331.61492960000885 116.26946221709795 L 438.98313673551564 292.95719193847845 L 193.64574920776255 552.2901920188024 L 206.64900031421024 409.67859569828136 L 568.8164983913794 500.2204431374443 L 510.5705242956527 629.317341592125 L 415.9507188842683 283.85397007850565 L 592.373109875915 181.65341062517865 L 374.08714600296673 406.97082735332646 L 116.13813218960536 304.99318242545706 L 359.33011332012904 347.81950978044773 L 421.2492064163836 677.9756744853291 L 325.49445525583076 533.3641716595065 L 605.659761413669 294.0884374110984 L 623.2662598197214 424.70416932512194 L 276.02333063445224 296.42827256322994 L 321.6616129328665 136.58761146375195 L 377.7297612277609 472.8453759724753 L 169.48413932814609 589.6094640228976 L 383.5361372153051 401.6946992325241 L 659.7546479798121 536.2862185975749 L 451.7975563738086 494.40107194863447 L 421.7844654553476 141.02888259549667 L 516.9555943766974 252.28074002805772 L 208.5752032958434 462.4491701915007 L 158.15481683417343 332.9588806857136 L 480.86059365350104 493.20173407604625 L 437.17350523278975 686.8989491258415 L 414.7871512884599 369.92085672557255 L 658.8758243557617 248.97296106354327 L 459.49058280825074 403.433006177049 L 175.0258830453374 231.30265116038515 L 350.7703356744774 261.5461896890323 L 343.0634050885452 628.5630827119527 L 237.5809651104473 548.5698510347542 L 565.1586072870832 374.17123822938396 L 647.2138046728103 513.5668067934511 L 356.4896246974248 329.7285179317566 L 409.33636409926476 102.41859297423929 L 405.6943564785684 391.9750497953357 L 125.04755981454917 505.98176259929903 L 301.0147757539786 378.0874202231085 L 582.6714026943837 589.4539144801324 L 433.04134620687523 580.1338866733815 L 481.156654201674 210.3527222600512 L 606.7002003258093 264.37592085447216 L 270.520489324502 399.3415990181181 L 161.28478134456282 239.87328935401158 L 415.43280460208393 437.1021748036379 L 342.8903046472947 694.4426256645243 L 362.8323592474401 437.7712509308445 L 677.3760576925035 341.5492176025297 L 531.0912281100426 452.0670939954882 L 263.31127426272997 203.15566408014848 L 395.43300853539233 184.54701902614173 L 307.59556205252505 545.9016226183627 L 154.29075483428332 509.8634233225327 L 487.8731893482683 414.659284918397 L 616.9702459325459 602.5606411030662 L 400.7243126307307 403.0390825307645 L 501.9478453256387 122.26216848407785 L 476.6088304713906 343.7627000155844 L 133.9656797390552 412.6389199282427 L 247.36645314973714 308.8611786118737 L 491.20479925864964 590.3896679546503 L 366.2771250103538 641.0074044072387 L 489.838315717961 298.5532210931113 L 675.8396141492226 326.5478266037296 L 355.62906361989565 385.0237650607764 L 216.1798253003136 162.9133314841211 L 396.5834542989215 353.7591329830388 L 260.07748656526377 648.9710663981521 L 279.74405845207195 461.54360140817255 L 642.0825084137516 427.4093662897578 L 561.4117334841202 535.5437508964003 L 349.65082644677665 229.11224485070542 L 478.44957035665686 145.70772539150357 L 326.1071372523311 460.46581647117716 L 105.69909201411326 429.53772947811825 L 403.1775447097421 401.67748806730833 L 542.1568598127046 660.6501415105979 L 392.345393776018 488.3084890787266 L 567.7382510304869 189.2436178939707 L 563.9561153498282 346.97286934532326 L 192.1631118126682 341.81678288503474 L 243.59691918919674 218.7976339046349 L 417.8211187147563 540.3395471358252 L 274.36195021021194 653.9327367696532 L 446.23870394238185 373.18187883826187 L 699.3764233698466 418.03983400051993 L 431.7168162729539 423.9091477105878 L 304.3441386716144 128.79441782543358 L 431.514152269499 274.84881237743207 L 216.96343772093414 566.5765883068502 L 196.4510667155563 431.30256929424974 L 566.5609079312546 477.02936054586235 L 537.8570621201875 623.9161565061901 L 403.45177956267895 298.23562547660623 L 571.0837435519795 160.18910969074884 L 390.37172264997815 403.68317738905364 L 109.41840215701933 334.89786587075395 L 343.09508473784985 340.6811335746671 L 448.4372520633377 667.9054409830433 L 333.99641529786913 553.1597333567322 L 584.6135298688554 279.53818012518263 L 635.2504297605896 401.7943856354572 L 277.83602366297976 317.6030512399742 L 292.72764294394415 140.2448878410528 L 388.41619856816936 458.92123439302566 L 189.25942145246907 613.0767064869239 L 367.64175224683436 406.7328975902093 L 668.7087359598952 507.51806933158616 L 469.8769713756491 501.17737614394645 L 395.3146003349162 148.82170951442052 L 507.98008631898415 230.46041032510033 L 227.4691200431921 476.6175900382395 L 143.99763865843232 356.62359457097165 L 478.84062275132226 473.98064739504207 L 467.25858299780106 685.4204378930285 L 405.90511540386865 384.03819086758807 L 641.0943720906691 223.95807067866326 L 475.64344785279314 396.59901752074575 L 164.24611121238578 258.41495455053564 L 330.7476633807239 254.48764802380427 L 368.2628151037122 622.6892409318112 L 246.39341531331473 572.5688822642699 L 548.1102357137655 360.9633421160821 L 663.7544965545285 489.7709735250968 L 359.3166568015363 347.2512292316685 L 378.7045066539324 101.45098903595078 L 412.9764193433439 377.04724297526263 L 140.51286416798115 531.966752136284 L 283.97098386184786 386.56395007507405 L 594.7326353379566 564.370653145558 L 454.90696550956875 588.120084747757 L 457.6462928715459 214.81376874496618 L 598.7058829020584 238.24263167704035 L 286.18891015444643 411.13053260330474 L 142.3461273668221 263.1407018850788 L 411.30486419297085 420.85386632848633 L 373.4118673059982 697.9314822772853 L 356.76862514809716 454.0359544285394 L 664.3623584714326 315.24104175231747 L 549.5832905171231 442.28573305400886 L 250.5982317579975 226.01673821456458 L 372.01509286413295 175.04651422021226 L 329.17014054361323 542.24638187328 L 160.85381734682633 537.8917334341636 L 473.0037585329826 404.5853754933097 L 638.1235518795596 580.4564138813531 L 406.4953127844183 418.56599911299344 L 472.1862722252971 116.37610823535584 L 481.977620733566 325.77457248061177 L 144.5913709122133 438.6132933596616 L 226.99582790289733 319.45626207006774 L 503.91257046835165 569.746555558002 L 390.7927590003339 652.4956371688984 L 470.2520818122737 302.0541805134802 L 671.2224180309945 297.0369645551624 L 370.34172815815674 393.276101544874 L 193.17639112013913 183.3026083180175 L 389.0106898775128 338.3230887755024 L 288.49620066236514 656.9424964503044 L 274.45365040692485 481.4656587725075 L 633.5883454908039 402.37564649427964 L 583.9239388406327 524.7342237607675 L 337.5723163580127 247.7380968274417 L 453.4131760739478 131.91558897213883 L 343.85102552078695 456.48344713994055 L 108.00179481605954 459.9829918472495 L 387.9779142321813 395.15412316233875 L 566.4979492222484 642.394011263121 L 401.6803675027638 504.30300302455373 L 541.1251612225476 179.65771145465456 L 569.8207089011396 325.10227303524374 L 198.95114201329875 365.40871673209176 L 218.8721781591171 229.16937519956073 L 428.7369288005578 523.3528047794318 L 299.27261421160483 670.1581971968778 L 430.0065429800268 378.20661658751294 L 699.5768478410597 387.2939337336884 L 447.98876272336037 428.9865420161833 L 279.27890254513994 144.67102181805436 L 420.6512904173133 257.68808968797083 L 241.47043693967737 577.1904156485703 L 189.38421444186852 454.9386261730492 L 560.9242494823992 455.2288064222618 L 564.666170884543 614.627266704905 L 394.09246288697983 314.1034566437054 L 546.9555629475981 141.59993982450635 L 405.576409925375 397.18184035738824 L 106.72361354138269 365.28300385118484 L 325.27835357639043 336.6026399394483 L 473.56832428548216 654.4605304239917 L 345.97955461318173 571.9962123401816 L 562.3235719461076 268.54458494051255 L 644.064872751468 376.75717520245166 L 282.95395351020557 337.44599949377925 L 264.1501429514914 147.87248566014688 L 396.0010722418457 443.55857817498406 L 211.99832540317632 633.7670204099463 L 352.87181686534495 414.97804572821167 L 673.6925349677792 478.12220775798005 L 489.5539971885345 504.8266273910755 L 370.76044163235565 159.98144928605234 L 495.4200916264915 209.5843470503029 L 247.63032812919158 487.34094408329486 L 133.02363109374073 382.5496124848186 L 473.5895607375322 456.0632625162867 L 497.1293366386134 679.9126272460278 L 400.1168292218572 399.5458056884402 L 620.2459614827613 201.59824256067617 L 490.6246399508681 386.5347346594672 L 157.35630357526114 286.2834003897356 L 309.0813794484226 250.62819457699052 L 391.67179343582995 613.4833139202264 L 258.90105228201855 595.6685571136416 L 529.7989048821668 351.1021891005623 L 677.1283690141873 463.5696760639326 L 365.3114979745071 363.4699596334383 L 348.131461844591 104.54272046620753 L 417.14366060453455 360.76863600821855 L 159.12101931936465 555.4348841812596 L 268.13934218339125 398.3236514646105 L 603.0031323034397 538.4282396958512 L 478.49255758763076 592.8397211611508 L 435.8242366376363 222.5511689489948 L 586.9076615785292 212.93260729156714 L 303.0935682632427 419.6501133080498 L 126.52624074962762 288.95876937158727 L 404.0534313387624 405.93340647824255 L 404.03444120260104 697.3626235457334 L 353.8655702009714 471.6292166117389 L 648.1608611915138 291.30395870905636 L 566.8382823551576 429.14214308744823 L 241.56622476485688 249.8102963811421 L 346.7730608042623 168.86640759379566 L 349.13041792190126 535.3834024104049 L 171.31824419654274 565.2022741564895 L 456.9396512028678 397.73000941573093 L 656.2368858281566 555.6647109934677 L 415.37073120209186 432.7246412586656 L 442.1690025996057 114.51461313993525 L 484.1215509922656 306.45602795666326 L 158.41815527381408 462.3604759084536 L 207.8642386655636 333.51296456822564 L 513.050160447623 548.1288349966668 L 417.2592489393278 660.6311573681517 L 452.2366026238441 308.690520513793 L 662.6259697391843 268.1134530861516 L 386.201566614938 398.3310069637674 L 173.1071238918749 206.4991291269674 L 378.32346649282374 324.30371092499655 L 317.3111802765912 660.9510877295751 L 272.4623790194223 502.74869258815346 L 621.9092946970943 379.43627647383266 L 605.2233988358917 510.3511581875106 L 328.9613223176655 267.3508104823147 L 426.2839079296725 121.48099049321098 L 360.03776679768134 449.43238247233654 L 114.33547426408512 489.9894750262314 L 371.67513382381424 391.83707195950024 L 588.0315204950977 621.235084793859 L 414.17006571522523 518.8338518359617 L 513.9970303223222 173.9498507524593 L 572.3110260977603 301.80952337564867 L 208.88316523129706 387.0199556068433 L 195.3029218936317 243.23006490658545 L 436.2711921389262 505.3927381425809 L 326.4246740046282 683.0522804217856 L 415.34453610698 386.247859337294 L 695.7249920309921 356.82852628536654 L 465.3323870022515 430.82129337148785 L 256.8817219668018 163.51677348140376 L 406.56496921224107 242.02737620768082 L 266.5837901667554 584.0265003066156 L 185.75825594838196 480.08768389707217 L 552.2021570802765 435.3207827452231 L 590.4079002686333 601.5399684830782 L 388.05230499201326 330.91172825424957 L 520.44038289229 126.28429644917344 L 419.17714209693077 387.69428061911157 L 108.07045663673017 395.54632348221423 L 306.4009772999214 335.8254064374962 L 496.1744634941424 638.0116682055816 L 361.2788981453076 589.3153006424335 L 539.3665491496984 261.2218257371409 L 649.3889978866698 350.090169514653 L 291.08968460447466 355.4551899146141" stroke-opacity="1" stroke-linecap="round" stroke-miterlimit="10"/></g></svg>