<svg version="1.1" xmlns="http://www.w3.org/2000/svg" xmlns:xlink="http://www.w3.org/1999/xlink" width="800" height="800" viewBox="0 0 800 800"><defs/><g/><g transform="scale(1,1) scale(1,1)"><g transform="scale(1,1)"><rect fill="rgb(0,0,0)" stroke="none" x="0" y="0" width="800" height="800" fill-opacity="1"/></g><path fill="none" stroke="rgb(255,255,255)" paint-order="fill stroke markers" d=" M 400 400 L 361.22638312725235 299.3173631905048 L 549.3355141965371 264.9507832394904 L 639.0540739454495 520.8273027721821 L 370.0824610922589 697.0195727852262 L 121.0214055222965 476.37378449496026 L 256.925309240736 205.7420328988967 L 486.6566667954751 264.31927824636534 L 457.99310903327 411.80255151679427 L 391.60621985677375 350.1536069416582 L 532.1080571339737 321.807424928749 L 585.1141856019251 546.2854282797962 L 314.92961943564706 673.8820413143496 L 101.39527624442212 419.8687160786125 L 285.741038518472 153.49901306781385 L 544.5074267466184 250.718982152909 L 506.80781076787815 445.35275563714913 L 399.70197332933463 408.7758937720518 L 494.15534695908957 367.364389424794 L 525.6474678647476 548.7936648274618 L 273.08663262908385 631.248068207339 L 105.15627353897969 360.1525191323654 L 332.62878389240996 116.44346478378719 L 603.2216390860995 260.70868787074073 L 538.7101242009384 495.3705721107191 L 384.23978256738843 465.90680159609224 L 441.50198918808223 394.4524772487349 L 470.0121142572342 528.0091901342648 L 251.08651875196782 575.8268268579031 L 131.71276356121479 306.57095799800726 L 390.2616224529212 100.40715757886835 L 653.5590486501148 292.76819767484324 L 548.627608393623 553.9843023579667 L 347.65326596883256 512.5036104395547 L 382.4860618590975 398.80909059648695 L 426.9632540132849 487.2548062707927 L 252.33958016931237 516.3397369188978 L 176.88585001541506 267.5043766118891 L 449.6216517683302 107.91413114345437 L 687.5975619309165 341.90413974686874 L 534.9476238544057 611.9693759053163 L 295.7005374518912 541.1813753246662 L 326.44693369136235 379.7490476829727 L 403.2751382292885 432.99602277353733 L 276.5967170355947 462.1479554051657 L 233.5670162092723 249.04886568899897 L 501.4191566765472 137.78348167430676 L 699.9799642730688 400.4357857757234 L 499.7711173962879 660.2000412317643 L 236.55803946319222 547.3751114750046 L 282.25550693826756 340.2724112971267 L 402.67506114499594 373.82356500770493 L 319.9886289335926 421.77919092812584 L 292.8368078817773 254.05690783625326 L 537.5545518410429 185.3152032880937 L 688.7569964707227 459.2037837314775 L 448.58199178957835 691.0855052611997 L 179.53379833266914 530.0581962112926 L 256.91818383412465 286.5923623523989 L 425.25678769396353 319.10143266350667 L 375.6347354004947 401.58567953027756 L 345.36850723827087 281.68847637196353 L 552.3930309712093 243.02983823130037 L 655.6941139582741 509.0115848897735 L 389.3840922315843 699.7645130853384 L 133.6025997943844 491.9039310610648 L 254.47425348808386 227.1574180042861 L 467.465797513986 277.49326637955085 L 434.7259881853816 404.74451939974625 L 382.89589893981736 327.5432324145043 L 543.6513283705924 301.8455355125444 L 605.9936532281727 542.0727245816076 L 331.4416239613163 684.8703742917551 L 105.99360730965634 438.864838696888 L 275.3602198665779 171.32187001162714 L 522.6586675998474 255.5989314030238 L 487.91117070299214 430.7576839786775 L 399.5141424988811 384.35301609476153 L 512.7570412045947 352.50728166726714 L 547.4761287551441 553.2361949290954 L 283.8212242559731 648.7460420294208 L 101.05269278685313 379.2359016664929 L 316.34110795735387 127.87367936487249 L 582.1485623259248 256.91588210020075 L 526.7685197062957 475.53039749747524 L 392.60902994542994 443.12565303064326 L 464.62396516039126 387.04338247672223 L 489.34950152162895 540.7970699780137 L 253.96512612992288 597.0753973484553 L 119.55851720279838 322.3491630853864 L 371.01955861641426 103.65149562620991 L 636.572299786381 281.28875965678327 L 545.1310768494585 532.0155388038022 L 363.26838945227587 494.5600727435816 L 406.8787994135631 400.0199859298739 L 440.760102050348 506.7648133759916 L 246.5199580878048 537.9887644045547 L 158.5999910156416 277.10512283831065 L 430.84259472732697 102.46844367587101 L 677.3638562290889 324.9338409843384 L 540.0571966733122 591.3226622483916 L 316.110891428774 530.5100387260863 L 348.6609160359768 389.3962194013332 L 409.35325235719904 456.54704442826466 L 262.60549427784275 480.78342355805233 L 212.03439869091082 250.57204668310882 L 486.4476216783261 124.5120438977703 L 698.1024199672854 381.0344912526711 L 512.2934800386894 644.1171065798565 L 258.55919824382624 545.2661397612494 L 299.184076759158 356.84536623694044 L 400.07010489991364 398.09852896363424 L 299.63843343424605 434.4604780215692 L 271.4540912835532 246.87361804958672 L 529.1358391169116 166.3147016798733 L 695.5228485752625 440.8139123810967 L 466.1572801669806 682.0890110240156 L 199.67184359640032 536.4542927128484 L 266.28644287412874 307.49153748465494 L 414.37004260733875 340.66932017276497 L 351.7389389021886 406.30833055416815 L 327.50961654645926 266.5399852036843 L 552.2411899489931 221.29941036065384 L 670.0295115040832 494.9163667111583 L 408.85727156446717 699.2610562671405 L 148.71767123550066 505.40935743448256 L 255.1970663832746 249.10327931679808 L 450.0010126016878 293.3490572428239 L 410.6559616518771 400.75569157493135 L 371.3810626857074 306.42433090543875 L 552.1794120825164 280.8147891544896 L 625.6326535844055 534.8795096673969 L 349.3590053893993 692.9291282867546 L 113.71717672291197 456.9650672054489 L 267.71298239138696 190.87101990850405 L 501.35393669669156 263.63650869358526 L 467.0657261737729 418.6746233194607 L 396.1660671751118 360.19809417611646 L 529.0121013471476 335.4965698722987 L 569.317294027557 554.4661271927253 L 296.97398129463494 664.0878707021579 L 100.18030448686369 398.69333379441207 L 301.91640550731563 141.9607516328697 L 560.3454243164872 256.25947451254467 L 512.0390336877274 457.24330150577697 L 397.9660566451793 419.346910040647 L 486.4370177708539 376.74127229379076 L 509.94397867545035 550.6456995261178 L 259.89427659850645 617.2741555396359 L 110.23933579788189 339.71263938382526 L 352.47653567753974 110.07155877116105 L 617.6898733712233 272.43076167264917 L 538.4464699482631 510.39009200636576 L 376.4997738974003 474.51053403204094 L 431.20616074453767 398.06015266839165 L 456.85437651607674 524.071320478012 L 243.90334139856012 559.8531057616542 L 142.31332698910245 289.2530413223679 L 411.48847760698675 100.22399575945201 L 664.3607657901557 309.65732179384423 L 542.0803770205455 569.7490572104224 L 335.1475399559581 516.9558845949747 L 372.06319184533754 396.1003515130195 L 418.40116080027354 478.9769183778634 L 251.46584462221634 500.8590297568011 L 191.35690601210015 255.2036180498467 L 469.71725118184827 113.96999153866307 L 693.0111904372843 362.13258737195724 L 522.3170218661076 625.9765219432733 L 280.41928553903153 539.9513874996261 L 318.36742542884025 371.17254043575906 L 400.633530581455 422.5109532560596 L 281.3398039358857 449.5736724651227 L 249.65427366614662 242.8709478065153 L 518.0511202512768 149.1486190903934 L 699.1300426054706 421.65026376519575 L 482.2147548302479 670.221508091924 L 220.93006900324994 539.8263386593277 L 278.6209325940347 327.2020310545224 L 406.34523503195646 363.6114477901792 L 328.77203946981956 414.0655268760081 L 308.0334557973635 254.14400105400063 L 548.9355262374215 200.226165238898 L 681.7519464503507 478.8957714911816 L 428.0327106036354 695.5186324122672 L 166.0443057436397 516.5485711176459 L 259.1305513937988 271.1110401039936 L 434.6349150327392 311.59939086908037 L 386.24619239385464 399.9200776361542 L 357.3097169303177 287.1968693067208 L 557.5619653015543 259.1669831950427 L 643.6091783108287 524.9121017360291 L 368.24579474803016 697.8842641470699 L 124.40206963434099 473.72951748402033 L 263.0153656803843 211.72932502821692 L 481.0479520438068 274.71187291259275 L 444.6655910010923 409.360801120424 L 389.7309821832386 336.77611260265775 L 542.6247128666166 316.6980798650278 L 590.7016824140552 552.5094001842849 L 312.21096951027647 676.9434377292404 L 102.55938568363013 418.05587112922467 L 289.7158477984383 158.40462571158275 L 538.2775011833209 258.80579668233895 L 494.78481409969515 440.8992520998065 L 400.1977982425179 395.0275050909289 L 506.5263081039351 363.7684270548099 L 531.3528465334024 557.3964498776039 L 268.69472844487063 635.9888619473754 L 103.95649401275449 358.23728686698456 L 335.0819124281401 119.53159018246396 L 597.3143854149916 266.43616341717893 L 528.6646634288408 489.5693036385031 L 387.06584548097743 452.7320720022333 L 454.99946082932377 392.97334157653864 L 474.8996322521175 538.8559891698969 L 244.49349438765046 581.4627391694378 L 128.3764517273899 303.63572376323094 L 392.0260243439698 101.23069046626102 L 648.8648894681128 296.453986449833 L 540.9215729161681 547.708677372573 L 352.4047081210824 500.75690013174255 L 396.20488216691905 399.7197764308902 L 430.22319689619815 499.85758851040384 L 243.36405176933 521.9429418717352 L 171.97927368189806 262.7921333992199 L 451.6385790946904 106.38503049303887 L 684.8133321649385 344.18710950189825 L 529.574832503825 606.1647730403619 L 301.67217922222164 531.4924046302801 L 339.44701532597895 382.9491386527554 L 404.35124638401277 446.5903223941545 L 265.43233347815874 466.79309408745604 L 227.9062393289385 242.08235187771274 L 504.5900267050683 134.1866257075465 L 699.4992489446862 402.17547389252053 L 496.3582970758524 655.7350332323106 L 242.85535582685347 540.0498662771894 L 293.7097747588549 345.3038823877828 L 401.35206977905716 387.48878090821887 L 307.173602776133 424.6889974142641 L 287.35926457068956 244.71372079254186 L 542.5990831245952 180.26355735025356 L 690.6081915758566 461.34512404988664 L 446.44752617078984 688.6151700070166 L 185.21369200307873 525.0307801739069 L 266.24272763059844 292.7116600845197 L 421.69430375318626 331.90569958393166 L 361.9671490853847 402.25330114432944 L 340.98547549158803 270.22034111137805 L 559.7359737716332 237.36799086819232 L 659.5359579552455 512.4361955087122 L 387.6452951001166 699.6273427813348 L 137.82181827411836 488.74694177247693 L 261.4202133170649 233.45247483896188 L 462.1731822220154 288.64009868622463 L 421.1382039473696 403.01328146720704 L 380.3490905823611 314.5363929808995 L 553.3556148882003 296.51678348209026 L 611.1689323555554 547.4601597975475 L 329.15365537044283 687.0350064519166 L 108.14144713827147 436.85663481369704 L 280.052943793365 176.85563816922465 L 516.414877415484 264.5525618817894 L 475.32310858182194 426.84574631216486 L 399.25897811834966 370.635982937788 L 524.5138759091188 348.40518101095637 L 553.1151044528657 560.9569963969367 L 280.1257879483112 652.8161953158793 L 100.84710702367386 377.4741750829714 L 319.2604198642272 131.83159582374418 L 575.8795631234104 263.4855709226748 L 515.942893602744 469.99642237194286 L 394.74296809570046 429.6388243978142 L 477.801414727896 384.871127384446 L 494.50678335976 550.8544478686736 L 248.2255473885302 602.3522355024057 L 117.09050149952947 319.8929430258373 L 372.9242413790984 105.46967141917463 L 631.2053458493505 285.658805638113 L 536.5533704625038 525.6707733274922 L 367.51558910945147 482.2077480416332 L 420.6212355664392 400.17974525243693 L 444.56342617181656 518.7941352969639 L 238.42138452139164 543.580873917901 L 154.31926314891396 273.1228643776917 L 432.6509730018365 101.92240404365697 L 673.6815665034105 327.63457218244395 L 533.8592677567831 585.1032709178182 L 321.8656214064785 520.018112831929 L 362.02366174891574 391.9258461667796 L 411.14075184101193 469.873212528227 L 252.20445071833137 485.74709766570544 L 206.67862519419668 244.47249868115176 L 489.09303725085715 121.7520540757107 L 696.619615905445 382.85880019201704 L 508.23281554787656 638.9368453260133 L 264.9811621348007 537.0678732436774 L 311.2820662569837 361.412440331233 L 399.4944695146231 411.8422156702438 L 287.3539323905741 437.94823020651904 L 265.93279894092586 238.3988755252119 L 533.4197629753976 161.8421190179338 L 696.4055358681624 442.6924709327812 L 463.6551669552382 678.6954277548411 L 205.81841873859378 530.6221345614972 L 276.4335004874982 313.4456790163165 L 411.453176101422 353.8853440121895 L 338.28654553263164 407.70226567675167 L 322.7610578508999 255.80608229597956 L 558.7070871514982 215.88778429593506 L 673.0687557289164 497.77115833529234 L 407.0898756262779 698.1178479460965 L 153.69225097558947 501.6435494892007 L 263.0138856243135 255.5784999931272 L 445.1305859939819 305.1751222268865 L 396.9351895965267 399.7647457170258 L 368.2245606542858 293.9029862143793 L 561.0272095848686 275.3881257058467 L 630.2774610099635 539.4787289706532 L 347.38702630757143 694.1431682651782 L 116.8102710265664 454.6408236409499 L 273.1868123577511 196.92200516305968 L 495.22237998602543 273.4288998380175 L 454.018485011089 415.3803694969728 L 395.1730763436658 346.6424812574242 L 540.0667191708553 330.98391844303507 L 574.7613230562573 561.303281575843 L 293.8904778893034 667.3923901805169 L 100.98119358362175 396.9591709198065 L 305.4030516365858 146.7116264947308 L 553.8409576149287 263.69435478920354 L 500.5014044478057 452.0871127037407 L 399.3702316576808 405.67313472689494 L 499.17591584193315 373.93051876726537 L 515.2524359484603 559.8619389576131 L 254.96740013159703 622.0707259221542 L 108.70070568124589 337.6243813803382 L 354.6443599791974 112.85372585449517 L 611.7567261299499 277.5551290670604 L 529.017135100258 504.10368172089557 L 380.16019838817306 461.653470732061 L 444.84156627979075 397.4740277094053 L 461.11112776837484 535.4332185303218 L 236.69151409559427 565.3058150547838 L 138.75871494628643 285.9224131430766 L 413.21321118609615 100.68135351584408 L 659.8505817315681 312.8816072417725 L 535.0264103801763 563.2393284761409 L 340.5709024794319 505.72205895037075 L 385.6660669944395 397.914166909375 L 420.85290530516204 491.91320117092175 L 241.88725761792753 506.0260322597884 L 186.42978445726732 249.93804109106716 L 471.9441726346765 112.11497434185071 L 690.5490029122927 364.1660584634241 L 517.5318644933891 620.182846419128 L 286.83751267178764 530.892057560701 L 331.0136661124186 375.18659949614204 L 400.80835013783616 436.20239619330704 L 269.68529759505475 453.55540949576647" stroke-opacity="1" stroke-linecap="round" stroke-miterlimit="10"/></g></svg>