<svg version="1.1" xmlns="http://www.w3.org/2000/svg" xmlns:xlink="http://www.w3.org/1999/xlink" width="800" height="800" viewBox="0 0 800 800"><defs/><g/><g transform="scale(1,1) scale(1,1)"><g transform="scale(1,1)"><rect fill="rgb(0,0,0)" stroke="none" x="0" y="0" width="800" height="800" fill-opacity="1"/></g><path fill="none" stroke="rgb(255,255,255)" paint-order="fill stroke markers" d=" M 400 400 L 502.26635229304713 643.8046971321828 L 224.88652506826853 578.2727702924765 L 426.18728764593016 410.4379629105459 L 404.944127389912 676.4931371280875 L 186.6107628278289 494.0292867581137 L 440.74160043417095 438.6128454349092 L 298.78645033583666 667.7514161321942 L 185.71728054065187 407.6658678630062 L 435.0630672245871 475.86616684946677 L 202.00221081718513 616.5395982831104 L 217.566390053578 334.7410133275189 L 405.9125666162264 510.1232424363229 L 131.77972124200335 529.8325427152915 L 271.47896266006234 286.6356444769208 L 356.48671955683324 528.8625086415042 L 100.83727691085687 421.4322529872978 L 333.3820874292644 268.4262022617733 L 295.97449679420464 522.2724732899746 L 114.84605205848652 309.3577564966188 L 389.0833320778614 278.2127142518976 L 237.67198709257605 485.86937667981624 L 171.274373513103 212.3522301089958 L 427.43897670054014 308.01370606679825 L 196.05900807073738 421.9626789429849 L 259.90017167271935 146.23763332426944 L 442.71559976730407 345.99258816663047 L 183.48047383203485 339.60732242729887 L 364.8824806039694 120.88010312250742 L 435.6328113093248 379.48778669532936 L 207.17326325623125 253.01609228396063 L 467.9506443863517 138.39759264396696 L 412.875419967074 398.145672400277 L 267.313362022109 178.7486435580506 L 552.0335920611959 192.97347521050636 L 385.2089542458182 396.43908497902856 L 356.54198088505706 132.27001479183565 L 604.5623709156209 272.2945381377422 L 364.64648564477955 374.9980139402372 L 461.11003375718144 124.61936471804057 L 619.756075356545 360.28426470830084 L 361.32749960740995 340.45046350276436 L 563.4275429885162 159.91596966780273 L 599.4270412262726 440.52819794331145 L 380.83399052312427 303.81016496477577 L 645.4955743186335 234.25636615666565 L 552.1658709095894 499.64691407144875 L 422.57075934434124 277.7782375021419 L 692.5011434062205 336.2611121692276 L 491.1191760773156 529.8938932130322 L 479.5978294148682 273.5745837384335 L 695.8137915055299 449.17609386637656 L 430.8757049262868 530.4347468474655 L 539.97595315703 298.02624881147983 L 654.7458579382146 554.0986345204299 L 384.16370798147875 507.0607352470205 L 589.3438805481624 351.58901234444176 L 576.7004232231518 633.6558945290462 L 359.09353980030977 470.4375535706739 L 614.1644565663764 427.7758811614232 L 475.6746498540613 675.3652081901199 L 357.54858132185524 433.3131335481505 L 604.918510517741 514.1562540146643 L 369.437077743249 673.9744728855259 L 375.06428107685844 407.33465700133047 L 558.5265587248116 594.7405362865048 L 275.97905343540725 632.3005495983626 L 402.1982285199657 400.205503300369 L 479.43917271829093 653.2539386146941 L 209.99175447768474 560.4068586032815 L 427.0585607972468 413.8301819864176 L 379.122820954061 676.5990231170094 L 180.10861442752625 473.3174436946289 L 438.39810217576803 443.8682560720003 L 274.01673199004506 657.7548660201054 L 187.48141040952567 387.7761537948091 L 428.5550229307777 480.7975665153766 L 182.3714826732806 597.4736786639761 L 225.9648330298765 318.7586153875873 L 395.5555062887337 512.244132588977 L 120.62796080675571 504.38940549970084 L 283.8335689762076 276.4884560355655 L 343.88221912450456 526.0472410679411 L 100.10139202073492 393.49227564214914 L 346.62470418029625 264.5890125183349 L 283.7125538492103 513.3578132551345 L 124.67553202618177 283.2746536084187 L 400.45897978768596 279.7447134241216 L 228.77607981333813 471.05434202920424 L 189.99940794959824 192.14018056353865 L 435.0990677407681 312.90959151637577 L 193.294707295365 402.90707921085897 L 284.3591685787766 134.82752428053925 L 446.0717488160626 351.75839906960124 L 188.68181008293982 319.19582829135743 L 391.0401573604875 119.59723912321022 L 435.3976809753484 383.80392550533526 L 220.74029340176705 234.82929632322555 L 491.6769863270343 146.76586424589857 L 410.7887721216108 399.4620338286556 L 287.9994464115568 166.3489271978619 L 569.8811187882543 208.88133233571378 L 383.51862946858324 394.3645325464244 L 381.5876351165998 128.45336494112416 L 614.3813425660651 292.481314211407 L 365.4694847988355 370.39461813381075 L 486.7052513216839 130.79484710519472 L 621.0238804990502 381.0381160398943 L 366.0433712085241 335.2111107714014 L 585.4125832753177 175.7497925000241 L 593.2309047757533 458.4437005382086 L 389.6553369317789 300.3711004568347 L 660.1571618052549 257.6625394209934 L 540.8533677151852 512.280435503954 L 434.3955124635419 278.4795029225029 L 697.298544711851 363.7474421912912 L 477.702334069356 536.1801550169878 L 492.18394361231304 280.0174001304435 L 689.882392310259 476.47852473268443 L 418.326191610791 530.7827215317441 L 550.4055608553863 310.57902210490744 L 639.0719412421762 576.975217967643 L 374.75754299764526 503.11896600393965 L 594.6771602428761 369.16207108350653 L 553.9299498067548 648.6773788016135 L 353.9495993869875 464.59220567673145 L 612.1384184036831 447.92614389843914 L 449.596022733116 680.5398603502381 L 356.4592413511443 428.0404381354078 L 594.5327865805547 533.5097103173814 L 344.24642709044826 669.0801605497591 L 376.64924989317655 404.5600908541345 L 540.3802407366375 609.6488957752345 L 255.48168286279815 618.8596030098297 L 404.33899639747057 400.81842237573426 L 455.73517390109504 660.5479212672368 L 196.9053435312602 541.3152194637312 L 427.5073382233158 417.4656622299222 L 353.3278060428403 674.2765743974591 L 175.6101149670911 452.21257899873206 L 435.415761352084 449.0059470105981 L 250.23974468693459 645.4536396915014 L 191.0856127157711 368.282368647185 L 421.4261317031287 485.15431313467406 L 164.5865423929526 576.6212688009537 L 235.75020913277908 303.77209363330843 L 384.8564681266068 513.3693049730867 L 111.90141028424551 477.9925863851839 L 296.9560962756157 267.652644050593 L 331.434592794801 521.9823040255277 L 101.9857476480247 365.6032668530795 L 359.9992877149197 262.06665642030805 L 272.2253497963892 503.2053248521849 L 136.89764344740365 258.2414979206612 L 411.4540798780592 282.3259052507494 L 221.2522411400511 455.3200641724791 L 210.50912253849467 173.79467123879783 L 442.090451688581 318.42044010056634 L 192.33213230387508 383.52826258800786 L 309.72871909373185 125.7776430698487 L 448.73559247027293 357.6689229522327 L 195.8257654289497 299.23817950745075 L 417.13059075521807 120.76880921253053 L 434.6837340755505 387.8909806198235 L 236.03580879244078 217.90933846661864 L 514.4321210014549 157.2849198793896 L 408.587410888473 400.3728648867497 L 309.85084382519887 155.90099779194028 L 586.0838018378529 226.31613066633818 L 382.1050491231273 391.9509707743244 L 406.966636233143 126.99743086384746 L 622.2166454732305 313.3867372491972 L 366.8585929311344 365.7414569979784 L 511.67343000113493 139.3643073267408 L 620.3370237686712 401.68195039874433 L 371.408960625986 330.35275883373566 L 605.854850485686 193.60657230475053 L 585.4345923315796 475.55759158354874 L 398.95241047335617 297.76244839698177 L 672.5756775591401 282.3667950285819 L 528.515148380714 523.6759930964325 L 446.27848279248656 280.3439847604076 L 699.5014181981251 391.57402713514205 L 463.91098284490135 541.1029994446687 L 504.2461072227846 287.7246892025673 L 681.422204860521 503.0983236662488 L 405.9820402758478 529.9368793258323 L 559.6917368244203 324.2000026485291 L 621.3411592665466 598.2626364410437 L 365.9452994729684 498.367682402682 L 598.3580886840771 387.3105832958097 L 529.8924836231537 661.4780696095966 L 349.5307365977076 458.41263966597745 L 608.1966126013207 467.9338350125272 L 423.21091913302337 683.2411090768157 L 355.96949670082887 422.8631246130382 L 582.3038510449504 551.9060371309165 L 319.70434767416566 661.8684427190799 L 378.5167542396416 402.14780080568073 L 520.8227100672287 622.8493370819135 L 236.41344015294504 603.6165113697288 L 406.365683355169 401.8280321922999 L 431.3595284197354 665.605096508531 L 185.72605475403589 521.1797459916783 L 427.49678760337355 421.29347137234015 L 327.78898070361953 669.5320721596017 L 173.13169614501783 430.9079555868249 L 431.79771928882934 453.9512906645479 L 227.6710714379581 630.9468988952106 L 196.47123745061342 349.35413400959703 L 413.728920198722 488.8629928070105 L 148.8104909188353 554.1620153761634 L 246.81000210161133 289.9003705144452 L 373.91311561269987 513.4537005213081 L 105.68104261566481 450.87434084446556 L 310.7100057683815 260.18245069809336 L 319.2690765719988 516.6735087847775 L 106.47408144703928 338.01192556718274 L 373.37677292522574 260.8498830258853 L 261.638359948156 491.88360905126683 L 151.4014245886891 234.4783282525563 L 421.9731437016641 285.89858036277036 L 215.19507837508684 438.79556923780126 L 232.61756156043572 157.4730168334172 L 448.36636896334124 324.46460923976247 L 193.2072664988644 363.99852415014794 L 335.78079390953405 119.15849190111754 L 450.7104423895221 363.64624963700766 L 204.8719610160274 279.92085915246764 L 442.9232170769338 124.37083939230354 L 433.5323124100302 391.69871097719454 L 252.9400426151586 202.42156839198933 L 536.0212691306465 169.84612234448352 L 406.32884611387607 400.8699872134858 L 332.6817137877051 147.51481865563144 L 600.5123177349528 245.1093344213519 L 381.01604806133975 389.2336985277982 L 432.4548483243738 127.93096805262934 L 628.0199735168237 334.81657185804596 L 368.82889589080884 361.1054620094601 L 535.7893287552405 150.2637146182714 L 617.7272860416085 422.03217587964195 L 377.39238886921004 325.9518028829143 L 624.5673988973899 213.33512772778553 L 576.1336875557142 491.7279314855243 L 408.645016745493 296.04305217405374 L 682.636234811946 308.15309364443806 L 515.2832937763096 533.7529107750308 L 458.1036477700593 283.3878794885655 L 699.0882306688261 419.49490127501076 L 449.8818868709898 544.6478517479923 L 515.6564641576194 296.65332715943794 L 670.5095124384458 528.8005025937981 L 393.9555979171235 527.9387897361067 L 567.7251389666174 338.78322119989986 L 601.7142834249223 617.7758251067257 L 357.7948400253456 492.88309960025924 L 600.3256834296532 405.8771836024367 L 504.8048174978094 671.9522755021169 L 345.8533355358338 451.98240290095407 L 602.348727424848 487.6150564305973 L 396.75425251019357 683.4570225747823 L 356.0512292036886 417.8458040839696 L 568.3212132140441 569.1684000475252 L 296.02408480332247 652.4180211321136 L 380.61273123442083 400.124653515969 L 500.0163627610509 634.2075826947842 L 218.93201757653222 586.7211235446882 L 408.22333944083545 403.21661527715804 L 406.5249951400901 668.363601824869 L 176.53444777223643 500.1900493169567 L 426.99605461816225 425.2580161598603 L 302.7352413525366 662.393698397283 L 172.6711984799912 409.5964394773018 L 427.5555883387125 458.6293717856669 L 206.51633198769636 614.3540684599056 L 203.5640613921545 331.15355087506225 L 405.52425029426223 491.8551755810615 L 135.18885430258968 530.2904921096829 L 259.0216561509655 277.2500536314741 L 362.8285086846498 512.4620053910714 L 102.02548900064892 423.2737233403125 L 324.95539817471536 254.11810982241585 L 307.51108191138394 510.13931909041196 L 113.5268187651136 310.9623104068434 L 386.6310221463078 260.9168979780884 L 252.0708430004419 479.4740132367408 L 168.0556339386204 212.19354679306204 L 431.92814776437723 290.3964659907273 L 210.68687930034312 421.61957236593236 L 256.12494229812705 143.31401008067593 L 453.88942783569945 330.9572112549429 L 195.93944374632224 344.4940224375411 L 362.28215865463096 115.01851653545555 L 452.00802076805445 369.61445332476643 L 215.7619807707833 261.4266635860047 L 468.1914008820014 130.35767685256496 L 431.98981963447113 395.1826577919969 L 271.31732590992897 188.51986776500198 L 556.261505361059 184.32322204514685 L 404.07094782793223 400.95242355397227 L 356.2958129954125 141.282501208442 L 613.0544892346644 265.0816031255018 L 380.29512197718896 386.25392077246937 L 457.825708519075 131.26130566457533 L 631.7619813915449 356.57386798817896 L 371.38779157426234 356.55581532108636 L 558.8342843628798 163.407731223062 L 613.2436427184188 441.9102056753292 L 383.9531099182909 322.08183128116724 L 641.3781803580275 234.7669377386334 L 565.4362583072997 506.8236421886602 L 418.6461280697797 295.2638287433018 L 690.2448542815966 334.7952471083943 L 501.2959313008716 542.444345524852 L 469.7525493480601 287.61568397969927 L 696.0608616390917 447.26307867252285 L 435.7512064850033 546.8137098368675 L 526.290786195593 306.74720833562134 L 657.2424992090062 553.3584314061111 L 382.35321472165487 524.8404817613217 L 574.4064258894383 354.21153850470995 L 580.3687368344133 635.3459597132337 L 350.3649991560206 486.7469222280523 L 600.534131457857 424.698145991966 L 478.89242394557454 680.0154888085904 L 342.92458205867115 445.3850738377935 L 594.6222559654562 506.7865567602256 L 370.4604586586239 681.1980081649247 L 356.66961326150414 413.04858982856933 L 552.6914524601245 585.1284690259636 L 273.40980318327036 640.8272184147338 L 382.880725296449 398.5105561187173 L 478.1364203112664 643.6049527379773 L 203.17955977855286 568.336999789057 L 409.859494292989 404.95969613334336 L 381.4500164341845 668.7819651960083 L 169.3923039931712 478.5416445768291 L 425.9808028666747 429.29972876613215 L 278.3923846180937 652.911396712731 L 174.20809356813012 388.46871595846295 L 422.70951835119826 462.9659282981615 L 186.96927024285236 595.8138296061995 L 212.27518405798122 313.83377644734844 L 396.88082870180983 494.06833503546534 L 123.8482154444734 505.21447205312614 L 272.2538940032623 265.9146057301034 L 351.71011769220866 510.36926173353277 L 100.97047753596797 395.43442926529565 L 339.55043422099556 249.4857000917568 L 296.2849101142247 502.41092379091947 L 123.0814299765185 284.6936293931866 L 399.6400332162484 262.23383491754157 L 243.6345454112731 466.0700527270419 L 186.70996359324292 191.58204684453676 L 441.23928861977396 295.7456179751956 L 207.7966253054651 403.9392841826927 L 280.81949988060626 131.43671176346936 L 458.631790525718 337.81114664072703 L 200.53094539262264 325.1931554139304 L 388.996509636791 113.3837525896443" stroke-opacity="1" stroke-linecap="round" stroke-miterlimit="10"/></g></svg>