<svg version="1.1" xmlns="http://www.w3.org/2000/svg" xmlns:xlink="http://www.w3.org/1999/xlink" width="800" height="800" viewBox="0 0 800 800"><defs/><g/><g transform="scale(1,1) scale(1,1)"><g transform="scale(1,1)"><rect fill="rgb(0,0,0)" stroke="none" x="0" y="0" width="800" height="800" fill-opacity="1"/></g><path fill="none" stroke="rgb(255,255,255)" paint-order="fill stroke markers" d=" M 400 400 L 492.7133490835026 678.3210499765892 L 301.74375472994546 473.6322915580257 L 598.8617081135363 537.8457525783757 L 337.09563478124704 615.0475800454388 L 548.0847349260066 394.52119913816523 L 500.3873623132508 667.8905764563954 L 422.1176543037537 382.11095048402865 L 651.013480216209 560.5905842265809 L 376.40541501352385 493.3402874599696 L 656.9875713065071 380.958014826874 L 478.64950932058434 588.37346343646 L 529.8322353956715 286.79902651148825 L 638.0291217529207 540.1594822115391 L 411.84045357588695 344.6146634833025 L 698.090513057527 366.79270273290484 L 428.87896546388527 462.55624666365037 L 597.6074026595531 214.40779322117336 L 560.4615545645349 486.6604557746488 L 433.64799787023355 208.16216391746627 L 661.0050888997546 361.1071227732386 L 361.85329573104787 324.8060120463929 L 610.3548284240035 187.26049487843312 L 436.6845174085947 418.09342791419886 L 438.423591682053 120.57206162713669 L 556.2491129905508 370.7750302399951 L 295.4520239538459 211.5301967548096 L 568.5211603164857 216.46619087629603 L 298.4866231529312 354.5176007519639 L 429.42616504758706 105.74292158785948 L 412.2312278184413 397.24063767878874 L 249.79912106162715 151.37091825183109 L 486.99434142316704 297.92419462724956 L 182.7458233513745 312.15478696570034 L 414.5469946894031 168.25503437086672 L 267.4154857164571 435.1094122420034 L 241.1863522688445 157.82153361403607 L 390.11648214016907 412.50549150116876 L 121.40716968285398 299.16865010564544 L 402.7779412602809 291.9681973179912 L 159.85971074331843 473.1927585839812 L 276.6074473978707 226.20640141719045 L 304.41489362767334 530.5924690010822 L 132.53342534820678 314.2396300886103 L 400.4990674862448 444.27139282395194 L 117.02068916519693 497.82243573381686 L 350.6710997548656 335.6979951333849 L 251.2221337443124 619.8859139523045 L 214.96803260250584 348.13249404497594 L 408.9262597147338 584.8439195605749 L 148.60669367111655 497.4508945921301 L 446.0401673753098 455.6287814133604 L 241.26679206455356 654.3819499986013 L 348.1914945876305 387.5234165313446 L 423.6272315480848 676.5320975024276 L 244.37448424980008 467.0465349093838 L 537.5302370727877 554.1919755827055 L 272.633472937029 621.9888399048543 L 497.5244648922184 419.7022244052858 L 436.27775266870725 695.3560047134415 L 377.3715493435954 410.75745028320904 L 598.8870542440246 607.0359256786936 L 332.4384773317757 528.5424264039449 L 623.3323655789395 436.58214156753456 L 438.0359232444507 636.9034122580515 L 511.61388765771915 341.7859641657076 L 610.3865306109135 603.3894698736108 L 401.47155287905366 396.92965488917014 L 691.7425283494232 436.7711597470807 L 423.326170851282 517.3745353426419 L 611.9900833319142 279.26008382292025 L 565.0417919199092 548.1477965318503 L 460.2380984358022 261.3863647147806 L 683.9257367586557 425.1639776022559 L 392.6446801615457 369.0271852191585 L 653.6238179729363 242.85244237516213 L 471.4919585329908 459.5511351666546 L 494.5283204807332 158.4166625108173 L 601.3584359967541 410.3623562120468 L 353.29093070351337 231.31875847500567 L 628.1521413438287 246.67905509938396 L 352.5287746168092 363.34359049929054 L 498.90708789998445 116.78776051298019 L 465.57546613480065 400.9467136658208 L 317.6082528828503 140.21556243686683 L 545.3042121179118 294.3511800006085 L 239.45129800688846 285.2455928178177 L 477.2523606663244 149.38608253129686 L 312.44344790348305 401.9742853874919 L 299.163958367147 118.61566483407347 L 429.5164182989295 376.823490221701 L 163.672543726937 243.9518987190177 L 440.42627022485493 249.26597628795713 L 182.5060938406771 412.96179914218715 L 308.0400764391994 170.48286972515314 L 312.70304002413366 473.92355437300705 L 147.86954406767396 246.59306089428406 L 402.03873772506836 391.0943665813501 L 110.04643091512509 428.06963478920136 L 346.7896257961332 280.2242920386868 L 225.32616670909832 559.3703744225209 L 199.2000486130121 287.7800610952484 L 373.7929551683205 537.702021783249 L 113.86846882997145 438.4234736621264 L 408.49931000936783 417.3707015365521 L 188.29632495811603 608.010185762217 L 306.614281140294 352.2523738542463 L 361.9360766444844 650.0137744353603 L 192.32123145921403 435.74962162035786 L 477.80247932357315 545.1564395259883 L 207.8975368982527 603.2467840350666 L 443.1889502608304 420.10408515145747 L 365.8874213849902 697.6560377909482 L 323.9068830375428 416.0158699810111 L 534.7772394213894 630.5536606411875 L 274.98842058355604 542.4656292373487 L 573.0044902962068 472.87624354890863 L 379.3424021186913 667.3132699498298 L 473.26534352974727 381.72635951086573 L 560.7214808495677 652.9774809083954 L 368.47461876952644 438.7261292553263 L 660.7741384484157 498.66254534336684 L 393.312401677164 566.4988735573842 L 600.8463233124644 341.93882057986394 L 544.1194193910792 609.3236149220169 L 461.8478517731212 318.0109030560387 L 681.5968631670867 494.79533129838467 L 399.9314744695807 421.6607281657912 L 673.5805428849648 309.8263161279274 L 484.9315652481505 514.0844986692194 L 530.7845608404974 212.59409672759654 L 628.0985436562491 467.5060293801881 L 395.6395681084088 271.1082981408508 L 673.6204150615004 298.4514864561446 L 395.73476346045 394.6922949909316 L 559.6064462364518 152.2547914757984 L 512.895247460352 428.9179725035679 L 382.6032368029745 154.6873672154853 L 602.7959310389342 316.0812422983946 L 299.1171027037888 283.5539269539088 L 544.8547582184733 155.76744726383308 L 365.5839747289042 392.5285014297645 L 367.86881240707294 103.03435324618857 L 481.6522796583938 362.6182977048939 L 221.84592047680226 209.10565455089946 L 495.1609444366628 225.1242617381049 L 224.98840659628516 368.7322797469303 L 360.5460594088477 129.3590547137061 L 343.4505158332657 428.463569804216 L 187.34443040791265 188.39348148560484 L 427.7146825302593 344.25358516849235 L 128.73071300988664 361.8234979639788 L 368.02420244797656 225.99961512255277 L 224.89229416538865 496.41259019523886 L 208.6177276794821 223.15320275451506 L 362.5996061155446 482.7721698482818 L 102.98068175415438 369.3482640659721 L 392.5905435366902 366.6657463767385 L 156.19034574185525 546.2385848113652 L 283.7587284677454 300.29655062129973 L 316.8082603499864 603.8870518317649 L 155.22144614183105 383.85728339312226 L 429.72675906436365 513.7103810825289 L 153.21751514794744 560.7186881553556 L 395.5140203819943 396.43146265576195 L 299.72092916963385 674.3515985650317 L 272.0612435228553 396.3051236523745 L 468.8221277886406 628.388842906855 L 213.8146175296949 531.3067100510473 L 515.265880531536 484.9283586011332 L 311.27369081116143 673.7351514968333 L 422.73425054139295 399.8156470922843 L 496.2342862920331 681.2635837405184 L 319.12320019706067 461.63870249152535 L 610.505438606787 543.4038172724621 L 343.14398842584933 600.3865625469705 L 567.3574595873836 392.4487783046915 L 499.8077638825431 659.9101997035015 L 439.38985056216654 367.60911532856744 L 653.8073153545654 559.4924271864992 L 382.33628300233113 472.3416584799196 L 667.6877557152285 377.9812438874209 L 473.40045039923405 571.8682161531667 L 542.469587813915 273.7324558724913 L 630.791001937043 533.3890273536558 L 415.84850060139036 322.81005888288666 L 697.426878083407 364.4226470592161 L 419.86374207292283 442.12684555959646 L 602.5749609866269 206.6268648611898 L 544.7428886527978 476.66181542412164 L 434.84824880779667 191.39217450767825 L 649.2484869310493 360.79045283140044 L 351.3276119360632 305.9559249301365 L 606.8498640077788 187.38418461381406 L 416.4445884172725 407.9456222591035 L 437.04530700637116 113.39337604818041 L 536.635229331735 373.2951439348412 L 286.44886225646917 199.15686315062962 L 558.0592180328562 225.03321664693055 L 279.0760140142355 346.99396411604914 L 426.61168862127175 110.16933932335724 L 390.05635180442926 402.3281774437369 L 245.24782587418065 148.46830694215637 L 472.850759497504 313.1021602128561 L 169.4650396899513 308.9527401890715 L 411.8456060865662 183.1853752745268 L 248.58139766054185 441.41361368638053 L 242.98341348341862 164.74425664756802 L 376.31408077431826 430.4742410804929 L 118.03561062823445 300.5267838512764 L 401.5231307471604 313.4653532161476 L 149.27369968008782 478.64681658433096 L 284.92878812846004 240.67944435895598 L 294.56788622738185 546.5241543329748 L 140.2427798762194 319.0284678680293 L 401.29135171867017 466.620422549571 L 117.29186638780874 500.3023511465608 L 363.7586578855027 353.5430524034671 L 247.5713188249196 629.265362285904 L 231.93513151886162 354.3552505264956 L 411.40285683298634 602.0997408614817 L 159.39143205914016 495.5216326151387 L 460.56283186294564 471.97967276488214 L 244.16832036100456 654.3003985760158 L 370.0346514372619 393.0402917917947 L 426.598896172012 684.1304362521762 L 262.53834170841844 460.5473938328216 L 549.4483857765746 564.8434557486949 L 280.61821551831605 612.0369891669513 L 518.4573981227626 422.9330220321376 L 438.18547033785603 691.3436045429737 L 397.90592746858 401.0164105970613 L 604.5918958438054 609.5466218830275 L 342.78684850474923 511.0305850671306 L 637.7259753076653 436.9630082440895 L 437.5681428341324 622.4500812034108 L 529.0380350826043 331.36144276907635 L 607.7891078139945 597.6440622854867 L 411.1013870190963 376.3471228566281 L 695.6656115612732 434.83245956570727 L 419.97799369929123 496.4301905206239 L 621.8408843702996 271.25598975101934 L 554.283854879931 536.2482206642727 L 466.6233139861364 243.22780295533914 L 676.2361725878384 422.22647756536963 L 387.0141796959371 347.22487989055816 L 653.6216035185704 239.99324415982053 L 455.04674895005724 445.1016373667091 L 496.3744043850659 147.6882564758055 L 584.0376430738338 407.9752929502998 L 346.9912461285743 214.432662983257 L 618.7320506843586 250.42064795836194 L 334.6293098836399 350.36285603393924 L 496.3994712432168 116.60612515596364 L 443.20773748351667 400.27338533956083 L 312.8012343298794 132.6027845985438 L 529.3881444644935 304.3101490738495 L 224.97922835983465 277.0334507826052 L 471.834708838433 160.06715464148573 L 290.97962336986086 403.34292812789187 L 297.85117170390504 122.06975606974896 L 411.6158306539045 390.72592007908634 L 156.80489797152902 242.23398705286286 L 434.21245572855713 268.17157552163786 L 167.65085216287122 415.73884853746694 L 311.3372277572742 183.80650512580232 L 297.626108348157 488.12608063827605 L 150.8639170516874 251.1695318068185 L 397.06953792543754 413.295591534394 L 105.71373244315953 430.89970714203616 L 354.4299672830228 299.62429807701494 L 216.8631390765872 569.8335353167768 L 211.67368777258724 296.7462098511333 L 371.38476118278766 557.2894491382589 L 121.13053650352322 439.75293060536643 L 418.7512311638956 437.54899424460365 L 188.2483269114328 611.4592640287198 L 325.54292714727507 362.6889617197233 L 362.32557481954325 661.6996729253666 L 209.13836641094267 434.4505294989189 L 487.8624851683971 560.7804985788102 L 215.70260432166148 598.1837105022037 L 463.65184540239784 429.0037516153354 L 368.2698324810135 698.2267769038262 L 345.7075156210238 411.88788248461816 L 541.5489755215447 637.692589698423 L 288.01944362989644 529.7220662184367 L 589.4887530304161 478.01699299928595 L 382.2672669519224 656.5267496516377 L 494.20964566282106 375.68937057637606 L 561.7612802091763 650.1100736892331 L 382.8908359930773 421.3686848433442 L 668.6862213723184 499.17299011886894 L 395.2836126549274 547.1730076004349 L 615.4189334019588 335.8288632197489 L 538.4612630756495 597.6547980907221 L 473.7304728593593 300.59211260051643 L 678.5601336840156 491.2650733407555 L 399.99467339183917 398.92290083293983 L 678.0708673546071 305.83972251438314 L 473.52358200815894 497.1067626300366 L 537.2199181391497 199.9352208599752 L 614.6662065479552 461.64204363517786 L 393.74973372139596 251.00941066380173 L 667.0860521850839 298.40501786055194 L 381.3234873541263 377.14087149515035 L 559.412853289564 148.0918239943828 L 492.4649706180702 422.88744141310667 L 379.64403410731495 142.56160769027844 L 587.2541465567718 320.72811562742004 L 285.57626288933534 270.0681762294064 L 538.7683357317682 161.64534452984836 L 343.52169268998114 388.2176480068077 L 365.31659185334007 102.05690807631959 L 461.46265750028545 371.25631294985806 L 213.11658772776167 202.97940852739598 L 485.4626326992095 239.867401748312 L 207.19172604123358 367.16377138921854 L 359.89513532861946 139.6984958883337 L 324.0765306453862 438.9900632403271 L 186.28116215630178 190.75690267449005 L 417.4444140215321 364.18599780449784 L 120.02352803996888 362.9107773870337 L 370.175271555864 244.79539743857313 L 211.39733914386449 505.8447376886181 L 216.08010984403955 232.79313805097303 L 354.61596181858357 502.65130598233947 L 105.7832785247856 372.04669280137875 L 397.4222234490941 388.8312502958493 L 151.88858181605067 551.5679594729389 L 298.2322742288379 314.1333940025295 L 312.98179327630965 618.3092380798055 L 168.8682940284052 386.63867027206345 L 436.0142165424818 533.3332271486902 L 158.84568939904455 559.853026833159 L 413.4012816165929 410.4842404633448 L 300.49146715532726 679.2455815397213 L 292.96106133725664 397.7772146203607 L 474.55365380837947 640.3370643346457 L 227.43572496279907 523.8078348569596 L 531.797214414247 495.4695536327197 L 315.67766497674836 667.5248022953942 L 445.33327601298686 399.2647331110912 L 499.24237790134407 682.5539604126618 L 336.76283863248693 449.01067602122663 L 621.0343452127826 547.9667155040522 L 349.2678018574595 584.487479382509 L 585.6428883367798 390.11473182394934 L 498.5193898054062 650.4671688737225 L 456.20214366458566 353.0150563500921 L 655.1326143399649 557.4540233569891 L 388.0229269138553 450.8375013018511 L 676.8173506068981 374.9688671015946 L 467.45917826407725 554.4765006625685 L 554.0891964479745 261.1871186137572 L 622.1257388753932 525.9891081881059 L 419.41586804934866 301.38291274907755 L 695.0355321342558 362.2796506206362 L 410.4035240706694 421.60773703069844 L 606.2728696420033 199.8751519377279 L 528.0376800862178 466.49021654609703" stroke-opacity="1" stroke-linecap="round" stroke-miterlimit="10"/></g></svg>