<svg version="1.1" xmlns="http://www.w3.org/2000/svg" xmlns:xlink="http://www.w3.org/1999/xlink" width="800" height="800" viewBox="0 0 800 800"><defs/><g/><g transform="scale(1,1) scale(1,1)"><g transform="scale(1,1)"><rect fill="rgb(0,0,0)" stroke="none" x="0" y="0" width="800" height="800" fill-opacity="1"/></g><path fill="none" stroke="rgb(255,255,255)" paint-order="fill stroke markers" d=" M 400 400 L 664.6176043139277 406.4493574396309 L 648.8620725356176 412.1379257420747 L 369.9161304796155 397.79686411847575 L 123.76577409255754 372.9898119067623 L 170.61885710508875 371.9136123046931 L 459.382746451931 408.7444659675364 L 683.4202370263033 448.8181610329052 L 606.6977241911305 440.8120160718234 L 312.8647966858208 380.5781894339144 L 113.98550393763566 328.8922867546803 L 218.5715886206394 350.1702604447951 L 512.6262327154834 433.9049849297906 L 683.991234261794 493.09727881783766 L 554.2649539197139 454.7681242450901 L 264.79129652084146 348.25424332694024 L 122.53920763485661 285.98707270680677 L 274.0465387402245 344.6193561724486 L 554.3227713471391 472.39136342980794 L 666.6662575447068 533.1117729807415 L 497.27197210903336 451.5531838163924 L 230.48734066278664 304.7988166465607 L 148.023897977068 250.29555034375497 L 330.9929365259127 356.69244635218575 L 580.4403021022592 519.4660560394115 L 633.8730452540597 563.1759732484973 L 441.9302043613066 430.8009007262933 L 213.10455684844362 255.57032842890865 L 187.0605246374339 226.99563630722986 L 383.22543325278014 385.6789559734086 L 588.801880696512 569.3113830591308 L 589.8398692263002 578.7764646640073 L 394.21299263444763 394.27786783338894 L 213.78032604549196 206.67024485815102 L 234.69925895562588 219.7995156484028 L 425.1622188322785 428.80896506020275 L 579.3432434867022 615.7261387319909 L 540.0887237138227 577.114879257319 L 359.1429049306926 345.6743895505086 L 231.50457711038834 164.2124384976612 L 285.0125563899241 230.50668678947955 L 452.4908086671488 481.582480098529 L 554.1176411767556 652.8682442228488 L 490.7738857284166 557.4455420780972 L 340.1929156334969 290.16503620908605 L 263.24346820176135 133.59090552616613 L 331.80503849892 258.78580256324085 L 462.68185067056146 538.3058115818352 L 517.0473719384937 675.9545902151119 L 447.944985494526 521.1675660706221 L 338.87309445372057 233.79149825404286 L 304.3051487400592 118.8334556469481 L 369.3552602021026 302.21141716645707 L 455.2894857948124 592.770890207597 L 473.45174974398265 681.834335445224 L 416.8227570623888 471.66036853601827 L 354.55224687346185 182.74157124520258 L 348.9038327049839 122.11870381685418 L 393.10061371584425 356.5512513587702 L 432.00233303846403 638.9962523332226 L 429.40799141887226 669.3670670876761 L 401.17412155594815 413.8822795463187 L 384.5358384475667 142.61053020247158 L 390.85468775108757 143.51415555084776 L 400.18342432776797 416.2696156594188 L 396.43900614624187 671.941046639854 L 391.02149577889554 639.5605752807564 L 402.8613706230198 353.78025690817964 L 424.39087255696694 117.73325921419399 L 424.31639367609455 180.96672580026026 L 389.7929010364064 475.1867696374948 L 353.71263439629905 688.1066413603501 L 363.6928285669348 595.4517540256534 L 421.6193873584034 297.58132194296235 L 468.4788447784857 110.66703729693239 L 444.4925207152983 230.54683003443935 L 363.2620300346966 527.2153388128959 L 309.8164970858278 685.9538587687612 L 351.46912079811636 541.744873285844 L 455.08755847687905 251.0504815712151 L 510.63300195542854 121.8868570159267 L 448.207805287256 286.9168485454662 L 323.9078187889151 567.0856913066667 L 270.9042839890714 666.0859220292468 L 356.5574884199134 484.2504954334916 L 499.09255909224146 218.8039118741798 L 544.8988688351711 149.72972484269235 L 434.29036868288176 343.96792081317307 L 276.6340051634597 590.973497231266 L 242.5511015004141 631.1752298396087 L 379.05869625861504 429.19216021214424 L 548.1481759120481 203.75956672402694 L 566.2494354404637 190.59460385491408 L 403.71414197651984 395.5488877198317 L 227.34376583549792 596.9543968635045 L 229.08364800191376 585.6427229568777 L 416.9529383176218 382.4637825136998 L 596.1123671252269 206.79093325442093 L 571.1894298195192 239.37407413068834 L 359.4844503061255 436.2001749775079 L 182.23269091216443 585.2313887120321 L 233.05970657301262 535.1282067766341 L 466.33944230921514 348.9266037410236 L 636.9229445661383 226.62535102560588 L 558.1763707826337 290.06606335254025 L 306.28043908900594 461.8048203157071 L 147.04661740949965 558.1077408618519 L 254.9592385826687 485.81500422415013 L 521.9012377618692 331.82980487879036 L 665.3238566849338 259.99905162742596 L 527.8080160278107 336.4924565471887 L 249.89711716025133 470.07876045907176 L 126.39311910561798 519.7086750966428 L 293.1240453350961 443.6897410333695 L 577.5394875226361 332.42409385040116 L 677.4951749263221 302.0503609144074 L 482.75377002367867 373.0386070749 L 196.55376654959457 460.84172562749814 L 123.18903115944653 475.485130613291 L 343.9532256956223 413.8258259313086 L 627.1014950837737 349.81449147775845 L 671.5114068314895 346.9040118479635 L 427.43824926843433 395.3252707930354 L 152.1514572480397 436.0363382831186 L 138.3101127899464 431.5589865168836 L 402.33105358337684 399.7763528325581 L 665.1152921429282 381.06992172305144 L 647.5732981642245 388.37665115390035 L 367.5148550367125 400.73257088010376 L 121.56849493572622 399.4931386306013 L 170.48476743241582 393.9880903525017 L 462.23609192972924 403.1490601188667 L 687.4429231138745 421.5764868876484 L 607.9853862858795 420.7191232883692 L 309.1923277604218 388.71330473997284 L 108.07809166710342 356.4696576217541 L 216.4445405493202 368.0390343039061 L 517.4586761015964 423.41419979853146 L 691.7742701834284 465.5921530925161 L 556.8819855603722 439.30671532527435 L 258.49484686081263 360.8581085644454 L 112.95792687326468 313.01869199608757 L 271.3133941447039 357.5546934735615 L 562.3409341594396 457.96830289960104 L 677.9023402118937 506.9364738904925 L 499.7343834061487 441.19477274525934 L 220.54419068157958 320.70468402377685 L 135.33830823248923 275.2613708133416 L 329.1891895682648 364.4922027886044 L 592.4508149031548 502.44621086499114 L 647.7470807941916 539.7328233484693 L 442.6982017440576 425.473203781093 L 198.94983191003672 273.31391312066614 L 172.30709570996467 248.65199411358392 L 383.84781428238796 388.68665704661663 L 605.1094900606691 551.2440390361108 L 605.1248789606818 559.1143273949031 L 391.879001239922 393.37745179154797 L 195.3799302819206 224.66357783858564 L 219.25883272237428 237.32260890446867 L 429.48571519207053 427.8688121800142 L 599.7090395687424 598.1905013619041 L 555.2913227147721 561.8090253154461 L 352.6039870244557 348.14265227600066 L 209.36454146151135 180.93222393486369 L 270.4463112836597 243.58574782720237 L 461.4120064277522 477.9346760997058 L 577.78241984097 637.2862746681817 L 504.3119325483517 546.5342423788561 L 328.78694423517106 294.6184175608205 L 238.35457818523912 147.75885214421135 L 319.66857874357163 267.6548329648205 L 476.60735284678356 533.4347403839696 L 542.817352269202 663.4229399216438 L 458.33615170950605 514.1529809595872 L 322.46237714455583 238.6903316958926 L 278.0294610605001 129.5670125957089 L 361.0130699920077 307.61570531122265 L 474.08277012991726 588.2243252881997 L 499.83640707144724 672.9954809237428 L 422.8614578801407 467.5736101840197 L 333.54458138090234 186.57736418926467 L 322.81664272917664 129.03417333336944 L 389.56307378400857 359.6526951442625 L 454.995421138567 636.197234130467 L 454.7935303886895 664.3350554862448 L 402.07564032709087 411.4048465216805 L 359.84046688880414 144.08925701247418 L 366.56084024506396 146.7698533019415 L 401.9858898513916 418.5021946341126 L 422.50756206533845 672.0149453380774 L 413.85922350772586 637.9102567714873 L 398.3559341734593 351.4072953604706 L 397.31458962202566 115.93272863738514 L 403.2628992788884 181.24103346584178 L 396.93130842870175 478.0794750564048 L 381.405522381412 691.7441038936499 L 382.67990477973103 596.2727804963813 L 411.9849361459784 293.8071635934823 L 440.5746748205198 105.14949870751974 L 427.79988310015466 228.9537751454803 L 375.19273783703846 532.2037635141548 L 337.52431298479854 693.3260447726112 L 365.7000733735278 543.7539932386674 L 441.11728935942995 244.55424350850302 L 483.51953432948426 112.75336603390889 L 436.5402258932167 284.86932175729623 L 339.61170366735143 575.3348379927713 L 297.0467122957398 676.8221766377194 L 365.6283799248203 485.94869953241715 L 482.0011215464606 208.61293586625138 L 520.0718509910299 137.60975780867074 L 427.7803450548206 343.00490632266616 L 294.73714728462255 603.2330214051253 L 265.7606979990616 644.4058702525472 L 383.1114914227691 429.04786515509016 L 529.4277412884009 189.37112725718788 L 544.9081492662234 176.57215851230862 L 401.95046856720126 397.1473887982378 L 246.2802883063963 613.4636199184772 L 248.3640759106436 600.1018244367779 L 416.65477628697425 379.10012492660906 L 577.3557869400199 188.23763655597267 L 554.0986077632431 224.85909371353753 L 361.56504560463713 441.594348373648 L 200.43027544513734 605.6854618091885 L 247.89951077368238 549.3040943488709 L 462.7993050138583 341.290423408998 L 619.6351504930943 204.47638454501126 L 545.5801559946922 276.6265638313927 L 310.923667631306 471.83397142703745 L 163.11250621531386 581.68902370448 L 265.38756225221897 498.13044780984774 L 516.533995127107 319.32208675343685 L 650.7440608261949 235.29711877677994 L 519.4062439212713 325.6674392769348 L 255.5982772137616 485.08239878182644 L 139.2783557116008 545.1795908993034 L 299.70163959314823 452.69029702932966 L 571.8935954911125 314.9762488733809 L 666.4511359111558 276.19183100858953 L 477.7433922412169 366.15413889489855 L 201.76801127211343 480.6142501343569 L 132.31129724902746 501.33140301095625 L 347.6998446818774 418.3537926645062 L 622.670970326717 327.90133571512223 L 664.3231900148401 321.4766094691964 L 424.6149271758968 393.3357355946593 L 155.48125532872947 459.8467886057421 L 143.62047266550871 456.1661359071213 L 404.5979384270174 399.1095275818455 L 663.1584677254716 355.65778639677916 L 644.0180357806349 364.97408970794663 L 365.42255101434654 404.1060860058013 L 121.93319441398205 426.1676637475987 L 172.4703435422012 415.83008744765505 L 464.5388167649733 397.08769570018114 L 688.8296772721984 394.0126525560765 L 607.3272444331146 400.7548464693374 L 306.30298002340015 397.3750125101121 L 104.84529267620132 384.52685048705877 L 216.06680966739802 385.8565536355622 L 521.2903716047617 412.3057553225529 L 696.8800129343705 437.4488209658 L 557.9637426130815 423.8490174735736 L 253.39661436045705 374.19812982160926 L 106.02093918554334 340.8416138979409 L 269.8894970495976 370.5016533242955 L 568.9882516489947 442.6670248568719 L 686.5614474266096 479.82792621246904 L 501.1196523792199 430.84301183330547 L 212.1157294366529 337.6497851693895 L 125.13042090744716 301.2856999255822 L 328.2304657919031 372.2330717240104 L 602.8346659874451 484.2123768495386 L 659.2713520393509 515.1276322038773 L 442.84726925589587 420.28990494808414 L 186.49973554649804 292.45431617902415 L 159.75094699769684 271.5478038385928 L 384.8748918830031 391.4328969981217 L 619.6696323877485 531.5949144351408 L 618.3848149041396 538.1650634667587 L 389.3372330879903 392.88441311103077 L 178.7346356492245 244.41974652418722 L 205.65693404969267 256.14804398412986 L 433.8422911649907 426.3501092194275 L 618.3463331022831 578.7208356364667 L 568.8505010897835 545.2198241739366 L 346.1802462594526 351.3815077345754 L 188.8941662584808 199.74167674710648 L 257.3258205408299 257.8942286011981 L 470.0996106272229 473.3084115111169 L 599.8656779169906 619.4798073394134 L 516.5984079044006 534.4820563560531 L 317.70066196723246 300.2684011199397 L 214.93358384623716 164.26065829181903 L 308.5988927425264 277.54297829718126 L 490.1608783348091 527.1445429928883 L 567.2539830353762 648.4774611451653 L 467.8303736320188 506.27192147805255 L 306.4416662396392 245.22914337508487 L 252.9368322166233 142.76190462932624 L 353.4180588778129 313.7062573561966 L 492.5016759881212 581.8246372902986 L 525.1984084516436 661.6823689957816 L 428.2782251214754 463.0042370497692 L 312.8636400608612 192.46588305310615 L 297.5875113882548 138.40112846651203 L 386.5504221606855 363.01450569790023 L 477.7388534606586 631.1648881007086 L 479.4837786184434 656.9100879062587 L 402.51832092119434 408.90249026758255 L 335.2917823056393 147.95799364657609 L 342.80729259362874 152.32520439591207 L 404.21396361965117 420.51686290820527 L 448.55399194424814 669.5703032959923 L 436.29817395763774 634.0863562016981 L 393.42449884908814 349.49643590894686 L 370.1192517659361 116.7477024142504 L 382.4853906030258 183.53304732337355 L 404.5294775851324 480.2706093978982 L 409.36978111259054 692.703164427572 L 401.49038106126807 595.2579461527641 L 401.82487732761757 290.9633783120475 L 412.24151539710914 102.33768766890461 L 411.211810555044 228.99335735533114 L 387.7446907936696 536.0493112340148 L 365.8180378961655 698.0012182627245 L 379.868048860477 544.3498685703466 L 426.4035697310448 239.3919394099418 L 455.66992763804797 106.27271492692375 L 424.9266352156663 284.00515002407604 L 356.2037530924982 582.0849530653849 L 324.06302314751485 684.9836049578223 L 374.6205275307258 486.6979716740574 L 463.8590684794108 200.0563888791779 L 494.25112185461444 127.95536390903266 L 421.40766408090747 342.7579436086321 L 314.06575261127466 613.7552770060815 L 290.06102513247515 655.3079227353004 L 386.9354491730479 428.4128486225714 L 509.30034650219056 176.78834893099838 L 522.4061352120069 164.7178916265834 L 400.5380561150698 399.0245881439498 L 266.8059361044781 628.1341008826165 L 268.84480407802124 612.5716031205741 L 415.85492916104516 375.6511504457373 L 556.833282103855 171.5210362888908 L 535.8008272441955 212.14163248879024 L 364.3219492429124 446.90385142311465 L 220.5593133479067 624.3387825719702 L 263.91851763086265 561.8813616547327 L 458.38859780581913 333.88147907905784 L 600.2672420204732 184.06056129665944 L 531.8673725382794 264.5857208851893 L 316.64618283636764 481.5239245285493 L 181.38518250463738 603.6332669170998 L 276.83552889451323 509.2422365589189 L 509.8699437307187 307.23268337471865 L 633.8572809744379 212.11163861573735 L 510.11442580872176 315.86187830631513" stroke-opacity="1" stroke-linecap="round" stroke-miterlimit="10"/></g></svg>