<svg version="1.1" xmlns="http://www.w3.org/2000/svg" xmlns:xlink="http://www.w3.org/1999/xlink" width="800" height="800" viewBox="0 0 800 800"><defs/><g/><g transform="scale(1,1) scale(1,1)"><g transform="scale(1,1)"><rect fill="rgb(0,0,0)" stroke="none" x="0" y="0" width="800" height="800" fill-opacity="1"/></g><path fill="none" stroke="rgb(255,255,255)" paint-order="fill stroke markers" d=" M 400 400 L 340.43499525291384 361.3274818952324 L 343.84271116880876 273.94437658726577 L 430.77348418993796 205.28204763785388 L 563.8985432239847 217.80876959707507 L 669.5129595627253 327.6230434163018 L 682.7118346475118 491.64944259011185 L 587.992653762175 631.7812097986603 L 429.80215196758104 681.1343473660779 L 286.3127739814872 623.6787438989969 L 222.70798383962003 502.6235198741644 L 253.04728885766946 392.47938078751537 L 334.3460369058412 352.4337813147215 L 396.2610298870322 390.30172004718816 L 387.43605048990037 459.5661133078685 L 309.1571034785564 491.14748631224586 L 215.02317940882224 439.6633150759478 L 176.78553797191032 314.8014268441509 L 237.86565430801252 177.78112972257316 L 383.90371953376797 104.83849676571168 L 549.0794165939856 140.4510020926706 L 654.5385291990815 269.5539890070813 L 655.1193460947918 426.1811270604536 L 565.3474497892022 533.19460089414 L 448.6394802104179 548.3440854179041 L 376.68439669733465 487.99612096004324 L 384.6010813993521 413.94635010902687 L 450.0145152542198 391.92395219755684 L 509.0641559962702 448.15077950514393 L 499.0708483937201 551.4803914574509 L 400.77822276648016 632.4908233245135 L 253.31620573275262 627.592816454247 L 132.16647963614736 520.3948508933984 L 103.6827882212703 354.18574073567453 L 184.51246398746216 207.4493498411383 L 331.28087292200837 147.48535893064064 L 467.0016106142366 190.9365810361668 L 527.719306618367 295.69898307778453 L 500.28367542298986 389.0296737388327 L 427.8003036872696 414.0129185077288 L 379.65051905201767 365.1141666157971 L 405.2357774863971 290.5144249239474 L 500.79809198805464 259.8872191510654 L 610.3964813385928 318.07602480021046 L 660.581723629393 454.05264081641985 L 607.0439846252893 604.9752305182301 L 463.8786936969403 693.1198115132764 L 296.9290984873826 672.7759395207545 L 185.13988495160154 557.8700503738849 L 173.88900777302894 413.08995008086305 L 249.27963673036768 314.09909957801403 L 349.22405524412113 301.73300576550685 L 404.09360846518626 358.7510997228072 L 381.2189385999365 423.4751776475158 L 305.2061849008857 431.43307007678646 L 241.3325096534445 358.5270841508511 L 252.57849240175025 238.31499904826435 L 357.504080741278 142.3092610438564 L 515.712306416541 135.5126427273683 L 650.3537582071585 235.06513241310176 L 693.8604020736351 398.03268435127336 L 628.4707592748686 546.169523366839 L 496.30992598568287 612.3499141125062 L 372.81464788793295 579.8131913013806 L 320.2067703563006 489.9021771521001 L 350.1397392431272 413.7483529169387 L 418.7836432908646 405.95061019344274 L 457.165369978455 469.524158639187 L 417.3929942341942 554.2184136984752 L 305.40718008973226 589.236510424273 L 179.3900884391354 529.677047874922 L 114.59053147194555 387.3086473906386 L 156.5028814405347 226.0604355190201 L 291.75576370052516 124.73669106858722 L 455.05403683075474 130.05017056239205 L 567.977882097202 229.1869524040123 L 585.5200944936531 358.9192160596044 L 521.4395257357168 445.42309373968646 L 436.8352371224659 449.7824260299951 L 399.4301953446137 390.69720319843634 L 439.39919617243993 330.32972549098906 L 529.6668832051885 332.4484134226442 L 603.1338058800752 419.47290778403203 L 595.9870374202222 555.7242437126501 L 489.7633239227156 667.699612014698 L 325.524404716853 688.8782032863553 L 180.9519564881437 601.0710101094 L 124.42324902642213 446.393566318458 L 174.58782184641316 302.2805824879735 L 290.5491565560129 235.06950827195283 L 398.604676614495 261.05512717946726 L 438.6318004741446 339.1688509880312 L 400.9769846315128 399.5529459726276 L 330.7779752721873 389.7714398271327 L 297.20038095871024 309.37291815913727 L 347.18052996409733 210.91525482114372 L 473.0424958018669 166.72539671389475 L 614.6534584340544 222.29626940894698 L 695.0633508020366 365.7216790614789 L 667.4848278314092 532.5892519869137 L 544.2599829934193 643.5489847493669 L 389.6686417064291 651.2873146541086 L 281.0319734387393 567.7269174497488 L 262.37404567444935 454.6524947072749 L 319.4936926660186 383.86190167810884 L 391.79662656939104 391.98662421075664 L 413.12936964174645 458.36576873342665 L 355.6575942532233 519.7705577628966 L 248.96970385961853 512.5352893638267 L 162.2255703441818 415.36295581172357 L 160.47943098081024 265.6050190677828 L 262.6348843471904 138.46462328215324 L 427.571284348961 101.88521123845754 L 577.3795958224786 175.21787266773867 L 643.4058467743237 317.4753212901867 L 606.5097258960523 452.50364023826745 L 506.57585184344475 515.3271181671919 L 415.58638324036644 490.7266739974159 L 391.3774246886942 420.07380125780827 L 441.23825692946855 372.4342793813714 L 518.2230433918908 398.41698666226176 L 552.391392475053 496.06429232603034 L 497.16016015796026 610.4674038709583 L 361.38321276819636 667.5296710074385 L 206.69455901137172 620.7544211824836 L 111.45708217145642 481.644587974703 L 123.65964310151747 314.48746603354215 L 232.10741668199606 198.57413227170565 L 373.849528683144 181.28944617416053 L 473.1345733799611 251.20914190535277 L 487.4937949132842 347.77888950409795 L 432.17775470081244 401.21507077259554 L 367.8506626302844 377.3579766335607 L 359.5773535250949 299.1926973219097 L 433.1879915844301 231.5142787102161 L 556.7365598111398 238.46904119257718 L 658.9585191596154 340.83595746772306 L 673.3160641912687 500.1502490664717 L 580.0490140460829 639.9578197377587 L 419.79240750034285 691.1782924691469 L 270.0727649687273 633.3852955675409 L 199.2175112158035 506.3151317099627 L 226.33190528409372 384.52434061350493 L 312.15460995726335 331.1555274848485 L 386.2140862815802 359.7817801844944 L 392.9497969683972 428.1240586598335 L 327.62317631043425 467.3352755477659 L 239.35074400717437 428.1526636647577 L 199.34804295008027 314.60564116640546 L 254.43047906231143 183.7982387123251 L 395.173437512154 111.64274572002387 L 559.0022560027566 145.88551154234153 L 666.5894280938076 275.8474619625387 L 669.0265253161349 437.91401316664263 L 576.442960719656 553.4633120926787 L 450.33378910541654 575.6400692304653 L 364.562254957288 515.8920525125204 L 359.5711227395266 433.92828745707186 L 418.4921882676851 397.7261429688312 L 479.98840111510316 438.98448937919716 L 479.5105993127287 532.2083266020662 L 392.75081818695395 610.6736761407492 L 253.674463542624 609.2515086990413 L 135.49564139501916 507.0925356922543 L 106.28450082454225 343.1651247586991 L 186.90815686485112 194.61331285552612 L 337.64201605688385 131.20855903901196 L 481.89190144047853 174.1750237365737 L 552.2665126741525 284.95029214427933 L 530.2934741493473 390.70524693762354 L 455.1290861940887 430.4494728469357 L 396.1167692488982 392.72527288401676 L 406.7487750082534 321.28574673996116 L 489.2244493193572 285.3615007828513 L 592.0712361490878 333.4429483071065 L 642.4346579290964 459.9122904374854 L 592.7621783330543 605.8090011027639 L 452.45750734045555 693.5585918127395 L 284.42421157113637 674.1123876767309 L 168.3940397904146 557.0704918164485 L 153.7524848918703 404.94627205200413 L 231.16278664792335 295.1414568834905 L 340.5127510180984 273.3738838672575 L 409.95938307183707 327.5777041734126 L 401.4047468191931 398.373945805194 L 333.8026565856799 419.2104161227947 L 269.7285091972242 360.6416230739884 L 273.81843894715973 250.6603496216555 L 369.433590844653 158.10528255612334 L 521.0740206896375 149.4542095279419 L 653.914479023047 246.1351702650584 L 698.5031012394902 409.2710956196645 L 632.8085721859667 561.640893135455 L 495.3852999310756 633.3406206580173 L 361.46387166433595 602.786786071644 L 296.9486322554846 507.6361336029421 L 319.0735309513975 419.060138629873 L 388.19572342951716 395.7640180652944 L 435.5866613762548 446.77207029937784 L 409.4416346038123 526.3902773324189 L 309.89236145093383 564.4389943911939 L 190.75506749155235 512.5960075534551 L 126.71041741309068 377.4900434473934 L 166.41744671992998 219.45229033201545 L 301.00574061871004 117.38241743037241 L 467.8404263459221 121.48464010390785 L 587.3984232049056 223.30003909222256 L 610.3729868994859 361.68025170890604 L 545.7423654198858 460.8765354795884 L 452.50019774283567 476.85829787718325 L 400.5369648612353 422.91246651178704 L 425.47276988594643 358.6772246223619 L 505.95114527759824 349.7919679903834 L 577.691861390805 423.8301010757473 L 575.4051360202029 550.5099700850221 L 476.0701524304833 658.8899935763477 L 316.14187837624365 680.9537471926251 L 171.57073738603856 594.3209696042143 L 112.8558498987133 437.26116423656083 L 163.05052714572747 286.47306326553985 L 284.83756597245133 211.3813070582919 L 404.6168766300554 233.37638202215248 L 458.404408067571 315.2771894981346 L 430.7527586305867 387.30853944437405 L 362.39203456572534 392.9836046223668 L 322.02385437993496 325.84391489687494 L 360.2779935358245 233.84081903661715 L 475.07401119381325 188.57014135305334 L 610.4612758426061 238.75480005132226 L 689.943135047819 377.36440892666667 L 663.5604988167422 543.2782219972795 L 539.2725350055973 656.75640328288 L 378.92581104464045 666.7700695876757 L 261.2346198841718 580.7742578178018 L 234.8172969745622 458.48108565047727 L 290.5055057705728 373.71740977797526 L 369.99761539110455 368.3937231842081 L 405.09611841610575 427.4557644782389 L 362.5919478918431 490.4070106955677 L 266.37595748634624 491.93310520974575 L 182.74973825837995 405.81903026751235 L 178.12566061180848 264.2518698582277 L 275.75616505429696 140.0672883190411 L 438.84328256671904 102.81291313020876 L 590.8932542733814 176.01923594515907 L 660.8426079085533 322.40666458436556 L 624.9425899950998 466.3208839068369 L 519.405746277072 539.416229762794 L 416.1271434726207 521.1020756164329 L 376.9007811542813 448.62894906911356 L 414.9557658181906 390.79979019986854 L 487.93006399269075 402.1418735311626 L 526.5504489836303 486.6151843039657 L 480.7734168426631 593.8796599056972 L 354.11284311200603 650.6056180797972 L 204.26964298591548 607.1976277118472 L 109.34916456863499 470.512303996326 L 120.60693354596981 301.8456569807952 L 231.197862505896 181.19621280739645 L 380.4498878638665 159.93775363458985 L 490.9808906967743 231.2972030656696 L 515.4591802681424 336.87030153620583 L 463.8469788878758 404.82876301553864 L 394.29610279309253 395.65185716652843 L 373.73374217131015 326.59163776211506 L 433.21696719798047 259.54674304725665 L 546.3885365806909 260.10557680684576 L 644.7937072088386 353.7151973321456 L 660.577545500199 506.80000040078664 L 569.7804963873706 645.0142291589057 L 408.96465432793286 697.4836716190257 L 254.55141173511623 639.526639062311 L 177.5886331620437 507.2252504797963 L 202.0446056094819 374.80025671513755 L 292.4939937143636 308.99477658565525 L 378.62158893859606 329.003451764254 L 400.9011577121512 396.90536498132116 L 348.59084552524723 444.3295428387022 L 266.1140713774671 418.2858781986631 L 223.85956094336103 317.05308239963944 L 271.8852678652487 193.2916381646621 L 405.8365550521482 122.19832462814577 L 566.7803264579593 154.56442440993382 L 675.3853226437566 284.18668738605487 L 679.3004805260974 450.1756681352151 L 584.2508914261011 572.8901599708611 L 449.5223730561669 601.1889030648379 L 350.7738913047184 541.6347574853916 L 333.5277268528338 451.6376974111867 L 386.4339974335002 401.15050723170174 L 450.89192361086407 427.22635422368586 L 460.70512656526694 510.1473107358148 L 386.54552161918855 586.1834551466097 L 256.9761053444927 588.927190007235 L 142.53695211431682 493.09620932186925 L 112.66139533089694 333.0596952444239 L 192.34361471081817 184.15502444551055 L 345.7410445451134 118.20257080059582 L 497.08857027642586 160.83880708992993 L 575.9690980812769 277.1898471672536 L 558.7689729119254 394.6835176811092 L 480.5940656160506 448.57091246116863 L 410.49036756547605 421.5746739483755 L 405.83844442067493 352.8777638848617 L 474.8156123154059 311.01675992511053 L 570.6695591902686 347.98443395554045 L 621.4661708612828 463.6875500226778 L 576.5855580122529 603.4063088632217 L 440.6169544699918 690.1431344342493 L 273.128866214657 671.7713930247978 L 154.1607013468391 553.5088754221839 L 136.78204380002882 395.35124928829885 L 216.19622596477495 275.99751114346316 L 334.5187240731978 245.7430984154558 L 418.0308919939615 297.6647526429069 L 423.4112356110017 374.8824294642274 L 363.91690215009817 409.0100107653562 L 299.18783240072275 365.3398302898808 L 295.2870914130791 266.13230621374896 L 380.35482535726493 177.21629784312972 L 524.0476970546994 166.2503500471421 L 654.0010968764134 258.9026863050125 L 699.2669186040766 420.61968101137956 L 633.6723930334415 575.6701054805557 L 492.0039310270041 651.8033196421353 L 348.8804734656483 622.8009182746282 L 273.50362637559334 522.5153998555402 L 288.5216850197155 421.8519369887616 L 358.5810031863291 383.3470425069059 L 415.4428944547057 421.97035571467046 L 403.56431111309064 496.75871650597577 L 317.2098614671278 538.420219681557 L 205.53701194384843 495.3609043555002 L 142.29408511199745 368.9457457783422 L 179.09760553150335 215.52758768413827 L 311.6780584896162 113.64536941487393 L 480.44318129768396 116.7011852649735 L 605.2430970394477 220.61153853108837 L 632.802688395559 366.6151879453723 L 567.3585389484285 477.44682011815655 L 465.5765592725255 504.2403528565909 L 399.21439519443055 454.8873139266008 L 409.17453061538527 386.3022989985566 L 479.9032772492744 365.7653550267278 L 550.2041575590158 425.9470378774455 L 553.5570367427403 542.1677469447828 L 462.40927537378866 646.4230475830338 L 308.3399580684204 669.5323164620934 L 165.1118892302813 585.0029289865728 L 104.93103138137269 427.0149906672752 L 155.09338605241578 271.0802498332532 L 282.0223407943564 189.28317829394456 L 412.58891795275315 207.91478665081226 L 479.2988987787905 293.7800141433724 L 461.050996269575 377.4612551414596 L 394.05183233759465 398.65619269422996 L 346.29546267835576 344.92053213314114 L 371.94781097220044 259.38600553633216 L 474.611551870723 212.6174308450415 L 602.8477393195571 256.40209870047096 L 681.0158021375903 388.7061467332639" stroke-opacity="1" stroke-linecap="round" stroke-miterlimit="10"/></g></svg>