<svg version="1.1" xmlns="http://www.w3.org/2000/svg" xmlns:xlink="http://www.w3.org/1999/xlink" width="800" height="800" viewBox="0 0 800 800"><defs/><g/><g transform="scale(1,1) scale(1,1)"><g transform="scale(1,1)"><rect fill="rgb(0,0,0)" stroke="none" x="0" y="0" width="800" height="800" fill-opacity="1"/></g><path fill="none" stroke="rgb(255,255,255)" paint-order="fill stroke markers" d=" M 400 400 L 534.1416082056109 665.6799000434028 L 444.39535699734745 339.83119234334515 L 674.9060808907643 446.6570924322689 L 357.2773383225561 261.6154290186064 L 574.5632976405511 231.7444192546118 L 205.77869016336572 332.1181414353345 L 375.0207144305132 210.88236253368626 L 190.47837814407114 542.9980045931684 L 288.7879605425252 338.61429890011544 L 389.4943486528457 685.3898164469426 L 349.7706411767955 423.0827292603453 L 634.2716615965475 586.5473566548246 L 404.06140116488297 380.4580757342063 L 684.3587952922057 323.5481121528215 L 337.34090534300594 330.01236361612007 L 498.71066405770944 147.7717444365305 L 238.7352799310008 415.2896286988197 L 277.33631469500614 205.25292181651002 L 286.76983742315906 588.4051210978535 L 225.54065924078182 387.1383217002083 L 501.24700641771517 643.556294796494 L 329.22856088145284 482.4596161415765 L 682.6023560758847 469.6693415004622 L 407.9584863459765 434.63652849957 L 630.7151452981984 208.2557856832859 L 363.4678057825775 384.1295170683536 L 383.2675200748919 110.49791796235297 L 302.5065815933546 456.5082512161872 L 180.8250347379863 257.0465670856176 L 380.3441349462052 577.3427682369245 L 196.83955412767486 475.81550550186154 L 571.04058872978 558.0874176026583 L 356.47238038209247 552.2294569898243 L 667.8287466601726 348.7532514951009 L 454.8300618312528 471.1435282461394 L 527.5262358085965 133.70707644990915 L 415.6379570456761 399.6725208048318 L 259.5931955317909 135.80922649349588 L 365.6691570043492 448.6274821094388 L 118.8443102323281 358.31813371163554 L 441.2347284111007 524.2718629203795 L 222.73296110502028 578.1701204156824 L 584.511550234482 460.1838155252645 L 430.7249644503526 600.2290779454465 L 599.4037208241928 257.69782687038514 L 524.8661811911567 465.54982771711144 L 404.44610607964967 119.6310933406296 L 463.49909339711564 369.1929846330434 L 162.9358637343612 219.2082183279822 L 399.20867500745766 404.2526293671521 L 114.8153130524463 483.11402372412846 L 453.88544304814303 457.70953704666965 L 304.3996406893498 660.2063020297395 L 547.6128564075295 382.87951712203414 L 532.0652998422065 600.2501273699072 L 503.82109779977736 218.76142551516972 L 587.1421371729383 409.8624665768002 L 296.8245325407562 165.7650387153552 L 478.19702850404843 304.9312189361655 L 120.08452476015162 337.17916382163605 L 387.53573136856323 350.52388597823494 L 173.57299068857193 596.3391726572609 L 422.46100266043646 409.2035206043633 L 423.0740035943491 692.6904129212046 L 483.7713008828997 349.07281352325714 L 628.3111416433974 542.1891184134931 L 414.79368856199716 235.05015400585114 L 611.2997565364046 316.066238048772 L 233.30246540582428 252.27683264020914 L 443.6602382152996 234.25345960046596 L 140.0430807211722 455.4063880631318 L 334.4134167596178 318.48789550742356 L 279.38720725323867 666.0148697768332 L 368.78716481531825 401.3078484131368 L 546.2712324121901 661.8446683612394 L 424.6823247940769 363.4376435992449 L 686.5481376672445 436.3677088573915 L 360.94272491772375 290.0477156043091 L 579.157453782921 212.22577392421957 L 225.93577510382926 347.2294707526228 L 363.14888101762074 189.36508050940824 L 211.12428519402084 540.8492100606638 L 261.6053110322274 331.00489159116506 L 401.3946789240945 674.4588962643356 L 323.70956701156945 439.0067427856402 L 639.0637532874804 574.5232289443016 L 398.1625883807823 411.1699002272448 L 685.084321890289 310.39833991017485 L 355.52021719312785 354.31957557362887 L 491.95312231214626 132.55103785852748 L 266.4396206197724 418.3320976086416 L 258.62179709501015 195.0957651414567 L 305.50788691794475 573.2659838752728 L 200.7391476585534 393.6786304391736 L 504.465440481885 624.3116299122879 L 315.085616037943 507.75714008601267 L 676.3026639910943 455.96087722579233 L 417.55655013179006 464.0017831483353 L 621.4430952398366 199.7081470681995 L 391.9286406151842 396.8884401596347 L 370.5231774028045 105.05615316960024 L 329.8938158061075 444.656365120579 L 163.12033313885868 259.2704769913171 L 389.5712738194432 551.9872267420071 L 181.3859660551823 492.18407277897234 L 561.5370484291753 537.2207817650749 L 356.8648266695809 578.8771184600922 L 651.3274544830982 340.90598616713334 L 476.61422888093136 491.2384550107535 L 513.4546031198402 135.16499396812748 L 446.6618724961138 397.0650860899263 L 248.31389994073103 141.335253835387 L 384.5071988312096 424.01929047353525 L 108.94206107848618 369.2368174026409 L 436.1878972845925 495.48744654805296 L 219.75560239262552 597.0121202171083 L 562.9160894389313 445.6890407034909 L 443.31340338094697 620.2964059651684 L 577.9936084370746 261.373571939224 L 551.7365515126535 471.7202194674378 L 393.03336844383927 132.3165153649892 L 488.5551035805681 352.35785025307797 L 159.7545299699098 232.2102633014759 L 403.8145329569515 373.33661082340734 L 115.93364364290778 495.8613772957289 L 434.47512366595004 433.953531735677 L 312.1911232869396 673.9180537459185 L 519.165680300179 381.0938483458546 L 550.5454638881733 608.703686145333 L 485.29778417748446 235.48995786120548 L 610.765817653738 402.2711344941503 L 294.91018571184475 186.16374179499564 L 490.90609271664994 279.5342930442583 L 128.22717570062457 350.85628476082826 L 376.7906362852849 321.8436367078928 L 184.19753969972447 603.5649107600577 L 393.4207340249043 397.6206385558692 L 435.8870298932906 696.2558023782818 L 456.55776945581454 362.2862632546085 L 644.8324533264479 538.6027596936874 L 406.5937305515547 261.4939941401547 L 625.082180969208 299.4873882266269 L 244.43366159287072 273.3616841185912 L 441.9710074444892 208.4359333955822 L 158.01936025262876 462.2703213068995 L 312.1397475090889 299.7098696789916 L 293.89409114243415 662.7469104172729 L 338.0770606430533 405.19839058120635 L 556.6046932741967 654.6780715352921 L 406.80224336004153 388.95302741531873 L 694.6636907092013 424.91849458757457 L 367.37164253451715 319.06069450994073 L 580.5418675955455 194.17063935292256 L 248.8925804861351 361.01597953832123 L 349.9348430171352 170.82161411574603 L 233.1853405605667 535.6252686406006 L 235.16878417367082 326.27197344124875 L 412.221370399532 660.0704080139662 L 299.7522396092099 456.67051962076147 L 640.5881650060302 560.6413710401272 L 394.8661306398292 442.16505580021567 L 682.1437578225152 298.15927129305913 L 376.0919729418667 377.42005448685626 L 483.2102065107996 120.42111195934382 L 295.51138344653833 418.82825517844276 L 240.48966404979973 188.35290211943814 L 323.70865564310407 554.9974876660535 L 178.38979653429521 402.2523085646754 L 505.02513770204376 602.8611224643399 L 303.84111692834574 533.1348067270694 L 666.3392114827624 442.42303913593594 L 429.3931105000599 491.88469243516636 L 609.5471565862889 193.8757485861897 L 421.43179744022495 407.2470177156614 L 357.7494816997066 103.3758911065176 L 356.8153443307391 430.1212615874081 L 147.87593089066158 264.15957742500956 L 396.6819472667258 524.5597628760897 L 169.31269359635388 508.8645786555985 L 548.796889019627 516.0336160920211 L 359.8098649742153 603.7521308828696 L 631.959984757937 335.10107220719544 L 499.2701296187633 508.6384671582188 L 498.6215643967854 140.25148146707437 L 476.93485041587974 391.91604154982133 L 239.01735738118367 150.0845422303765 L 401.3526095400269 397.6966770969561 L 102.65181524435667 381.1147913995134 L 428.38458873462423 466.3698463041343 L 219.93209116786207 614.1731362478648 L 538.6818144682762 432.69752341616527 L 457.0576653091113 637.2494841276093 L 555.3970736398715 268.1586322239027 L 577.6189001717729 475.0255524335941 L 382.88751870510396 148.3487003916404 L 511.32621040981326 333.9535942464678 L 159.9252348766178 246.8700552063817 L 405.7933858948344 342.3880720614795 L 120.66627160370359 507.4885393640751 L 412.8184272845523 411.60834401779147 L 321.7978913345313 684.4004549861977 L 489.59020848840396 381.911962355977 L 568.2165666969044 613.7374068241678 L 467.5243960577801 255.2410189215117 L 631.7502549746638 392.7899474123461 L 295.7482355638808 208.55945786885994 L 500.6636770376781 254.29561350112743 L 139.9806259274518 364.14832745106855 L 363.9252826255003 294.8661061653748 L 197.2780051649865 607.9392281182536 L 363.5741504693126 388.5268923890497 L 448.5132888602541 696.0510132992051 L 430.0440401494116 378.0951920315513 L 658.7119834796293 532.4773983958619 L 400.62747678573567 289.79570675025076 L 635.416797972156 282.81549816450075 L 258.75558037083744 294.53599015882986 L 437.81862714698144 184.6117891087009 L 178.6880047281568 466.94658566909976 L 289.21215655320765 283.7412776193834 L 308.94327151823404 655.84214738731 L 308.3623284189388 411.5733413290685 L 564.7781779809907 644.4112929815161 L 391.0615626161256 415.97799182920033 L 699.0984972463098 412.7159498551284 L 376.5333240761347 348.1592327087171 L 578.844498737654 178.00744537544068 L 274.3140165440527 373.13124192123826 L 335.7595674074744 155.51774613954166 L 256.2003044542532 527.2745990977337 L 209.95909652305687 324.3760778823147 L 421.5957831338641 642.4615294324859 L 278.2483819854653 475.7218715026763 L 638.6923517355624 545.3087274707968 L 394.20481166334145 472.94115997443515 L 675.6576061847964 287.2448019271415 L 398.7505656917026 398.91525100522097 L 472.8317328418261 111.64441030794075 L 325.4676695722808 416.6792137179183 L 223.391293204563 185.01816402880516 L 340.95336814448535 533.8289611034943 L 158.85448788783546 412.56043576289613 L 502.7539775150532 579.6305938473 L 295.5843796804621 558.1143287467396 L 652.8350712670563 429.48127518348474 L 443.2178136855275 517.8536385149141 L 595.37429397097 191.01717770784865 L 451.5000313294105 415.04334418437486 L 345.3782412343609 105.45683599605422 L 382.80857310442514 413.09402844228765 L 135.4432024325095 271.448339426336 L 401.4559260265435 495.4973285807304 L 160.73762719609306 525.4165452853053 L 532.9288204309032 494.98599876734403 L 365.1139239080429 626.4216316945233 L 610.0859315588165 331.6166213085021 L 522.3561791865276 523.1301857803091 L 483.4665547491173 148.96550362465825 L 505.97302040394175 384.35559277289815 L 232.04763039894604 161.79665229626198 L 415.925506958551 370.07863071182004 L 100.09394352330793 393.5358959516769 L 417.8888139870181 437.4131661413557 L 223.10258927396094 629.2389200990391 L 512.1695151182269 421.5338716689461 L 471.56146430239363 650.853307864138 L 532.0816961299012 278.07090560939804 L 602.0399095110984 475.5382858899986 L 374.37041855863 167.45997525492956 L 531.4886925714045 314.3532558124394 L 163.5677550907459 262.7678520709055 L 405.1455064369922 311.90965065996664 L 128.85925485001388 517.592941343398 L 389.24711921157234 391.05229212721764 L 332.8518903135727 691.4211188861782 L 459.3773974402137 385.40037317589326 L 584.6324148627357 615.3918380473376 L 450.9055662506417 277.75451963267653 L 649.759012295116 381.74072118169244 L 299.4799074286924 232.51118326186 L 507.4140895208746 229.6952344193931 L 155.1878315938743 376.63794925146874 L 349.2170738300186 270.00360583864904 L 212.4463822250351 609.2318047477022 L 333.4077438415037 382.052476859512 L 460.52306718134514 692.1115718939282 L 404.680344446998 396.277784710095 L 669.6224589061235 524.1040468689462 L 397.08607737177954 319.5017532819994 L 642.2201051230695 266.49518211774085 L 276.1259338495216 315.34504312872707 L 431.4254207979023 163.19559669514948 L 201.66644728670906 469.1829002831717 L 266.0829745196618 270.7637287860339 L 324.09411723633826 645.3366253041654 L 280.1156417296107 420.27128996863786 L 570.4693541908653 631.3325649866861 L 377.71217971478046 444.0760100118646 L 699.7666878781016 400.1835122907838 L 388.33075604992587 376.8527703132709 L 574.2560577888562 164.13399944032687 L 301.8153679565555 383.27424784487175 L 321.0324418554008 143.6565714087555 L 279.6977405105574 515.8132412759716 L 186.43971578224773 325.2122795223805 L 429.17490837599456 621.9290720340744 L 259.4941429477491 495.7688816050334 L 633.2900654440828 528.9554913197319 L 396.1453454337944 502.9978508381101 L 665.8123741134211 278.04387235643355 L 423.139716555032 418.4490025922041 L 461.20186911070004 106.42201331499524 L 355.8119504714293 411.8512701000521 L 207.76524300780386 185.0169833056112 L 356.85372029227386 510.050021964229 L 142.44252503740393 424.26013620100343 L 497.5425394415454 555.0739104828795 L 290.33732345379025 582.2163922570015 L 635.9805110110676 417.5424630374606 L 458.72769107631177 541.5176591077591 L 579.3115000955356 191.33312302659522 L 481.6400552348739 420.1795686958377 L 333.8346226898111 111.22845136110374 L 407.43792528662124 393.82613611849337 L 126.12354129229777 280.8219781069257 L 403.7322224461306 465.26777330574777 L 155.70956897865952 541.3936835565211 L 514.1081079144561 474.52483532712466 L 372.5272459188223 646.4914663411579 L 586.108848194057 330.67758716132334 L 545.4116812000605 534.564585582263 L 468.42893116994924 161.23609042986075 L 533.3172728596093 374.5754686323003 L 227.70345507958544 176.1571658758596 L 428.0032424429113 341.61702140458493 L 101.31936382042812 406.07183640331834 L 404.83016674377933 409.10192888317357 L 229.04668313955457 641.8302817352719 L 483.7859313074772 412.47384831130154 L 486.4046019704639 660.9376563723633 L 508.52027004903107 291.0603419333208 L 624.5483646255129 473.3951090124726 L 367.8042521510763 189.32589841004213 L 548.7753967770882 293.9655503152885 L 170.73422569927004 279.46540804165375 L 401.9369699505382 282.3969128825135 L 140.29456433521494 525.8015004836391 L 364.1402130892555 372.6175805827292 L 344.9550498959656 694.8113589894108 L 429.0268349001049 391.55971536428507 L 599.3644993080643 613.7750257818532 L 435.8111763133934 302.7127022417246 L 664.5114669307263 369.4854402433333 L 306.18207838727324 257.55457221241 L 511.16915030189284 206.2092217232506 L 173.62622194703744 387.9310383095447 L 332.99291765398175 247.62381981305796 L 229.2988399206733 607.2727917270752 L 303.41910635794216 378.26244316796914 L 471.4981730690463 684.542622643924" stroke-opacity="1" stroke-linecap="round" stroke-miterlimit="10"/></g></svg>