<svg version="1.1" xmlns="http://www.w3.org/2000/svg" xmlns:xlink="http://www.w3.org/1999/xlink" width="800" height="800" viewBox="0 0 800 800"><defs/><g/><g transform="scale(1,1) scale(1,1)"><g transform="scale(1,1)"><rect fill="rgb(0,0,0)" stroke="none" x="0" y="0" width="800" height="800" fill-opacity="1"/></g><path fill="none" stroke="rgb(255,255,255)" paint-order="fill stroke markers" d=" M 400 400 L 565.0624273495158 431.7361771429937 L 658.5975587138414 503.2570173482223 L 646.8652249707766 558.1803404450175 L 550.2556302412571 542.7532035937766 L 429.17907534336746 440.7818487687545 L 348.1068602977964 287.1766789491726 L 338.89350810006596 151.53288240448805 L 384.66305542057415 100.7025686003168 L 433.2759441740498 161.7167524221453 L 431.91989196871964 306.4136531908305 L 361.9341494261905 466.69189231147936 L 252.86593447400747 571.6653270680638 L 167.0310745694862 585.4237887756777 L 163.31012739673065 523.9149443670392 L 261.31273037589494 441.7407112916743 L 427.092760511571 397.21605270518825 L 589.223072867624 416.60950937657134 L 676.4400530629032 478.744643349272 L 655.5110544555448 528.9730849891846 L 547.7959752612484 514.0912174123854 L 415.28240534263057 417.3038340294104 L 324.4988536108153 272.1664977106311 L 309.3824211020196 146.6874609385725 L 354.5285079208261 106.28396732099145 L 408.11740120673466 176.81451708446457 L 416.3253396689854 329.0968620971226 L 358.43343945032643 494.02346145363174 L 261.5163936476924 599.7503916191075 L 185.70557634193116 609.7336395900361 L 188.46719221944903 540.0128475380702 L 288.8748961679174 446.2958817549249 L 453.1123258668843 388.9682836503313 L 610.2236762594068 396.87926376396604 L 689.5522413873941 451.22698323547627 L 658.6292119973007 498.844448691906 L 539.9106806129028 486.7465121554838 L 396.9391534821905 397.1772338542389 L 298.1361583967447 262.0062113539641 L 279.2453845845915 147.40669495243515 L 325.9918984704024 117.23958537013806 L 386.52227686731936 196.21909662919583 L 405.68957279027876 354.3173760774296 L 360.49380401438987 521.7125840289701 L 275.4374575204003 625.9612753689487 L 208.5085331625194 630.2488583417511 L 215.93751393279027 551.0150091681336 L 316.5528734082032 445.2779678987253 L 477.0254872024892 375.5650344333806 L 627.2359099983317 373.23601086185295 L 697.4444846044687 421.66515801033916 L 656.1478818393973 468.8706680683854 L 526.9574275989163 461.73642651563796 L 374.8787849699763 381.19606238685674 L 270.0021952256687 257.13824554000496 L 249.56083368993455 153.71001187461042 L 300.052310938061 133.16278155640873 L 369.24873317260034 219.16350580885225 L 400.4072258626177 381.07176148468716 L 368.0825660060166 548.6814592432611 L 294.1744849868601 649.3199374909595 L 234.63691632051882 646.2492350601885 L 244.69953351166927 556.5755184508478 L 343.27168227467405 438.7713612052224 L 497.8775187001915 357.50742916736715 L 639.579511254062 346.51661725925584 L 699.8208586336759 391.0964543005443 L 648.203303731894 440.12170479864267 L 509.48266628725867 439.9905972847129 L 349.9697377350228 369.99937829781203 L 241.14710099050373 257.80786036864856 L 221.39088173250465 165.40932983974054 L 277.6121079913581 153.46260058543317 L 356.893443915886 244.74943086908732 L 400.6727775377952 408.2994682027611 L 380.960573362838 573.8786132091911 L 317.09341110634136 668.953851664824 L 263.16432327289806 657.1822072607537 L 273.68430884112763 556.5511486385582 L 367.9926098742827 427.0654154532025 L 514.8277507465389 335.47070674170845 L 646.7476286689053 317.673077045534 L 696.5901781913433 360.5956925743841 L 635.1346920512616 413.6213944730425 L 488.2012511319515 422.3163294939565 L 323.1870658779858 364.0474732831814 L 212.6486097233576 264.0540057009133 L 195.74176091991635 182.11605780678863 L 259.44332539916076 177.3857865886283 L 349.86937399965257 271.980698606622 L 406.4733063206203 434.92234489047706 L 398.69110203937765 596.3180738377545 L 343.40435837707236 684.1285090818858 L 293.0754811010919 662.6834378486285 L 301.81533381224233 551.0066839841809 L 389.751909316828 410.6436617319766 L 527.1808943531812 310.2790669948069 L 648.4257094075913 287.7370545648803 L 687.8693939070704 331.2351971744358 L 617.4715939339204 390.3093136580222 L 463.9698033247041 409.3685236611602 L 295.57611147066297 363.60471992625054 L 185.5719052871687 275.70786179758284 L 173.52634464334184 203.25556482761115 L 246.15892116927984 204.0448424533094 L 348.3904022184956 299.80039074211265 L 417.5889723104382 459.8848098893423 L 420.6561188473871 615.1161057719519 L 372.19105222648886 694.2747802234321 L 323.30406043427104 662.5903814641824 L 328.0486390893485 540.2124980189185 L 407.69670614066655 390.1657900433032 L 534.4129499637982 282.8749678092899 L 644.503222912999 257.7814592831396 L 673.9792362154615 304.04485932943845 L 595.9141573494223 371.00578578039574 L 437.75479216406313 401.62528039227107 L 268.21355797633134 368.72971786172616 L 160.92994148016567 292.3991196388396 L 155.53014742794156 228.08857946842892 L 238.18995052548317 232.45108970925043 L 352.46336031207153 327.1302210506765 L 433.6012070072132 482.1931813767003 L 446.0792983593577 629.524136939453 L 402.44494495484116 699.0101161514883 L 352.7723912243184 656.9483339074995 L 351.41168074507516 524.6344733794244 L 421.1167745295738 366.4430687009207 L 536.1907355114458 254.2840168510367 L 635.0777846429904 228.88048415009575 L 655.4322682935278 279.97378084671595 L 571.3070441533443 356.3813294037226 L 410.5965244517804 399.37009109629656 L 242.16731609977612 379.27310531062136 L 139.64570767803286 313.56976697585867 L 142.38206908672652 255.7387222299468 L 235.7695169832867 261.55149744990433 L 361.88778484216255 352.9107084018855 L 453.90830610199123 500.95270166777954 L 474.0549364676325 638.9566501692207 L 433.1027769738886 698.1527995378083 L 380.43160091127623 646.008739294373 L 371.0395681137003 504.9166386836723 L 429.4709996179142 340.40811718500464 L 532.3843062800609 225.57676577894614 L 620.4515261728 202.0695960773023 L 632.9137930866284 259.8549273041685 L 544.6079598909059 346.9316869856357 L 383.5703833571863 402.68127823149695 L 218.4567363702785 394.8831175098252 L 122.51784566647927 338.4948665684543 L 134.53097289378366 285.22514535015443 L 238.92409736588192 290.2679083652921 L 376.263391136289 376.1406492135065 L 477.74784440032255 515.4008764621777 L 503.581683533768 643.0130008729078 L 463.08617613900793 691.7287145622729 L 405.300679783617 630.2198180046678 L 386.20728132969714 481.8571692557299 L 432.40754012834 313.08015845243 L 523.0718039143105 197.82883013839745 L 601.1198468806735 178.30696893504714 L 607.2563256597186 244.3741074533618 L 516.8519726570485 342.9593643250721 L 357.74676065184224 411.4290784466622 L 198.0146305890879 415.01868497850825 L 110.19089847916001 366.30955259420733 L 132.22897026829958 315.4990641173323 L 247.47256391261774 317.5372006678445 L 395.00499088289905 395.9144189195139 L 504.22507789543823 524.9358871072783 L 533.5998405273328 641.4923480555204 L 491.3418200514216 679.9703834935378 L 426.5030183008699 610.2098645449241 L 396.3566784086811 456.3786457026349 L 429.7769402587002 285.5270450975016 L 508.5365539449858 172.0808205219506 L 577.7529662292976 158.43779573669886 L 579.4085818108176 234.0444343882506 L 489.1129501796987 344.5623683771773 L 334.1511748883645 425.28047727409137 L 181.65251689004737 438.96958369539595 L 103.131299509489 396.04123958069357 L 135.52203463492845 345.48281885732547 L 261.03293990752786 342.35088983029374 L 417.3642976783967 411.45571292599624 L 532.3462749778283 529.1390174836686 L 563.0308288268843 634.401142454408 L 516.8806652359668 663.3083058403402 L 443.29905531883423 586.7638375006065 L 401.1172858233765 429.49367824923536 L 421.63770238298235 258.8254739374497 L 489.25651994930314 149.29957761186625 L 551.170963842887 143.16280942508007 L 550.4001381589225 229.18721983180734 L 462.4635516442734 351.6305629651467 L 313.7260611732528 443.7116152757879 L 170.03038307948424 465.8828865685472 L 101.6099963314976 426.64584403899806 L 144.2482941052397 374.1100124883519 L 279.0366371698914 363.79269492082653 L 442.45780824215126 422.1464701621303 L 561.0557351526836 527.7902600832663 L 590.8173633851967 621.9528928646921 L 538.8147818598798 642.3549227008356 L 455.11382103114465 560.7941136324673 L 400.32009809974153 402.26717736932767 L 408.254112975885 234.02087107873578 L 465.88650719093965 130.3421551471963 L 522.3132371669992 133.0121849001689 L 521.3030801621727 229.920013250902 L 437.93526461326104 363.8497781430024 L 297.29565591282596 466.02730349826845 L 163.6320946095507 494.7947308480354 L 105.69235651442978 457.04666949879487 L 158.0440665794065 400.3652284704078 L 300.74964504279376 381.0726701437924 L 469.2997206873208 427.54990178615407 L 589.2751162714537 520.8765199326035 L 615.9628327585959 604.5602193537432 L 556.3904218546418 617.8818036577136 L 461.5583486193957 533.3064955642799 L 394.003872381577 375.776676179769 L 390.0864027469836 212.08844179754945 L 439.23377867522623 115.92389249450832 L 492.2035144504599 128.32579446931686 L 493.19206672489497 236.15223135642992 L 416.47997571741644 380.7135201287772 L 285.53528462008126 491.386921260954 L 162.74736326869737 524.6662181067658 L 115.23573145190369 486.1745064301205 L 176.35741245195817 423.32184960707315 L 325.2998815616107 393.55663014325285 L 496.83866360108703 427.4267671987124 L 615.943605289438 508.5921107541668 L 637.5684190463329 582.8194893921502 L 569.0160886132389 590.7909060353174 L 462.44415700211505 505.36273931803885 L 382.41368348311664 351.0721826375723 L 367.7736075313813 193.89683617438817 L 410.2279919503797 106.59176615974997 L 461.91172635849745 129.24055222815377 L 467.10429903685065 247.58854079356487 L 398.9345066575539 401.54184559844316 L 278.94619685059695 518.8357315536216 L 167.46094827974255 554.4221094709668 L 129.89476895632373 513.0074532811147 L 198.46870006636107 442.1765689033257 L 351.70968793655965 400.789772940564 L 523.9968677291926 421.7442910608409 L 640.057436138004 491.3315248816279 L 654.8665749765545 557.4886092232019 L 576.2845626328581 562.080977147208 L 457.7902651826463 478.0409975928011 L 365.9917932561576 329.13705709903456 L 342.109768389091 180.17578398487532 L 379.88657654555607 102.70401292972957 L 432.51415654584315 135.6853188094728 L 444.0008848544861 263.7398680123596 L 385.98943659666867 425.506697247851 L 277.83688569993046 547.3404475042329 L 177.649492078103 582.9908746559179 L 149.13427671813662 536.6089752494814 L 223.5174178288373 456.27930690777663 L 378.93225588822713 402.5136205223367 L 549.7103210702948 410.6773891459876 L 660.7072826221116 469.67474625807154 L 667.2496110766544 529.4587977692631 L 577.9880626216845 532.810351092156 L 447.8224769045004 452.3956523264482 L 345.3611743987924 310.8513725989049 L 314.01435748843096 171.48890448765317 L 349.2768417778981 104.41678370726737 L 405.0533556297695 147.38355630340118 L 424.73103745300676 283.9416261856209 L 378.16337234675535 451.66275684153464 L 282.3115877340357 575.82772502274 L 192.986108643264 609.3446029306692 L 172.24915744969854 556.1627830524624 L 250.53423419571408 465.15742108213203 L 405.89063087183246 398.6756460209511 L 572.9684115514578 394.60215736069705 L 677.1121334106474 444.36565362480604 L 674.2923280208624 499.72139453112123 L 574.125977300744 504.0575259637464 L 432.9649622617407 429.4180328262662 L 321.30230246534035 296.95912272851274 L 284.4980314455081 168.21270398016466 L 319.47622645883234 111.67832520137807 L 380.4993118164139 163.86363444962066 L 410.00044288238735 307.37848019818057 L 375.78362481903855 478.9826664326889 L 292.26639174624125 603.2241477216653 L 212.95255346242902 632.5372892798493 L 198.39067310578028 571.0032324185825 L 278.47711125991066 468.5333053696513 L 431.5178382695877 389.4312288634273 L 592.8515805448891 374.0818664755831 L 688.6483872336551 416.2843184077918 L 675.7678510725989 469.3309379264116 L 564.904879882081 476.88099002117735 L 413.82444986102786 409.9994827683053 L 294.72408060341826 288.0404986590496 L 254.6249878497472 170.52254348968256 L 291.532171246416 124.23090621178073 L 359.7133246219673 184.47640418195937 L 400.34497388642365 333.1147271788937 L 378.9740115646436 506.3953057185373 L 307.3931012957892 628.4962146249476 L 236.85852178149756 651.7400695557654 L 226.59805980552576 580.6401118835793 L 306.270126659604 466.33472435773695 L 454.7966378003909 375.1378650571946 L 608.5655845855047 349.8459842796699 L 694.8730844544514 386.4142292388973 L 671.6560767698398 439.36588944412813 L 550.7308246865267 452.27979334703497 L 391.167618398404 394.898151866667 L 266.62998010827926 284.49026802751445 L 225.47332724097805 178.38609932167032 L 266.4231084473437 141.6204167515462 L 343.4159274365169 208.41938388866666 L 396.11072967350003 360.1291608629892 L 387.6502397763171 532.8256996522432 L 327.1907071444729 650.6888410729189 L 263.8673562603648 666.2720920682095 L 255.8343157610453 584.7768955153435 L 332.8435576447173 458.6974970746835 L 474.79742524490166 356.341848286631 L 619.4710889959824 322.7630066082021 L 695.5404096112834 355.8056640381327 L 662.1444172041428 410.8884666881585 L 532.1942128607336 431.156333745345 L 365.8925298428322 384.71074926411524 L 238.08065810153684 286.50306110001475 L 198.09489710337922 191.5645600695212 L 245.0220224460535 163.21328242905952 L 332.1600538542737 234.76665742023454 L 397.4411450824062 387.3531210411584 L 401.52304174120184 557.2350697013705 L 350.984042229695 668.9609386171592 L 293.0272063912252 675.6258756076327 L 285.0248290680756 583.3217806322659 L 357.17373411745007 445.9604304480472 L 490.7128695965937 333.7579179671193 L 625.1074910193992 293.8081093213764 L 690.6108501878764 325.5365740912408 L 647.6208141686602 384.90508157818977 L 510.0477909672415 414.28274315229345 L 338.99516837669205 379.8503108662679 L 210.1544448716957 294.0661123213864 L 173.47611373646734 209.62151549588083 L 228.0639381789126 188.2200640072558 L 326.31044735633134 262.50337010408765 L 404.27164934254387 413.71031070721676 L 420.10894594553815 578.6595367930252 L 377.94892425444215 682.6167485091171 L 323.30647895392417 679.4862092841026 L 313.09740642558 576.3910993475732 L 378.3211760734691 428.65269115894307 L 501.8879953635356 308.2426323909799" stroke-opacity="1" stroke-linecap="round" stroke-miterlimit="10"/></g></svg>