<svg version="1.1" xmlns="http://www.w3.org/2000/svg" xmlns:xlink="http://www.w3.org/1999/xlink" width="800" height="800" viewBox="0 0 800 800"><defs/><g/><g transform="scale(1,1) scale(1,1)"><g transform="scale(1,1)"><rect fill="rgb(0,0,0)" stroke="none" x="0" y="0" width="800" height="800" fill-opacity="1"/></g><path fill="none" stroke="rgb(255,255,255)" paint-order="fill stroke markers" d=" M 400 400 L 303.8046497616494 184.12089659102529 L 594.6752701356952 183.5228563595727 L 516.3447348351827 437.68373243151694 L 385.1427056765551 260.3001635667917 L 655.556895487557 251.9282951382143 L 580.9325344405612 530.9443721660685 L 404.1628341302007 380.2053894759292 L 642.7091873372549 347.7844104284083 L 568.5086639064978 630.5837462996174 L 348.5035357869787 489.8331284351583 L 557.2299041354139 415.9864718514062 L 493.2066648544035 683.2892400102671 L 244.99878219968468 540.6929811100548 L 436.94409482533575 416.2578183209691 L 401.19830544469005 659.0505315698183 L 145.91043678991977 514.6335074354595 L 337.03837709871885 343.9039746201265 L 346.8849518156265 566.6125564810978 L 102.08591545315761 433.0779768751364 L 301.78056236512634 232.27648864851366 L 364.86449602430355 449.02439748323917 L 136.8328955562135 345.9255433835335 L 341.8545811714906 135.67995103930173 L 452.0785013817906 361.57065716039466 L 233.93456407747792 305.8215965246556 L 428.9553939052681 101.5042890787717 L 569.313447657349 343.4238740569396 L 345.9634213477319 341.01853432765495 L 510.42012929230776 145.90071473029667 L 661.2855155672792 397.58266038853367 L 418.62211601164375 440.7724455655128 L 536.3767938762309 245.49903742160635 L 684.9898214435661 489.40285154800415 L 418.60500590296715 560.7800548273086 L 485.46018696990916 349.4219073470738 L 631.7485524691222 564.4755643675198 L 350.6652500756243 645.8633081971104 L 375.8808296466874 405.42284962558847 L 531.6299455001854 576.6653155126548 L 255.11866796477068 658.2468750117307 L 256.1585179538357 386.7180809384091 L 437.9680353507939 511.9009327933342 L 187.06752640790614 596.9000709346628 L 180.28068930547948 305.7257363265009 L 399.9374684289236 395.4942171379595 L 188.02002912222574 498.0058490024062 L 180.04853720676164 207.65337762607086 L 437.2750275678272 279.22492767219757 L 264.48854350423943 416.3165736491292 L 248.81881237899384 147.22896386346576 L 530.1363983127981 214.82695671838746 L 384.5639065234501 396.976814658439 L 344.9940471637363 160.53166405402445 L 629.2999215346924 227.49779056543667 L 494.22687791555984 452.2914682898063 L 413.4670094203576 246.39675083920852 L 681.4744322794012 303.04139053523676 L 545.0166663114792 555.3764431505465 L 414.00015045381167 366.94962143400403 L 656.7075079925974 395.2496230318339 L 518.8410868952881 653.9545730381503 L 341.9575991437494 466.99529138615776 L 563.8111254787949 449.72857579038464 L 437.1816013376321 697.2084437589468 L 230.736693350948 502.3016044433789 L 445.8784263554618 431.9265484331361 L 349.9646095175209 661.8929067637445 L 134.64913437618446 462.2447648533989 L 358.1946273457363 344.9616816013003 L 309.8180986784146 564.2903240465146 L 101.04717280657138 375.1825622180885 L 339.89112538393715 228.08832032988775 L 344.9419324584144 451.86565910876016 L 146.01637184521238 293.79542971816903 L 393.90658502158294 136.58933484880623 L 444.5323714228579 378.9088914022454 L 246.12404777022928 267.92828614150335 L 485.55048592134136 113.42527330034028 L 564.2508652223189 378.6796378288106 L 350.4629890729252 318.8883868059841 L 560.4063627748388 167.20674843128126 L 648.9281181870188 446.3659722645059 L 406.80219949291507 428.40630338428815 L 572.3749348794516 267.80759647755235 L 660.8386794079481 541.6128677392959 L 388.40815653010884 547.9330533843226 L 507.44727067720225 361.8723967755864 L 599.0190405492095 609.3204797808072 L 307.75566760895543 623.4974204580504 L 390.9920538039503 400.25007398463504 L 499.7041092698836 608.0251344247334 L 210.0838014871036 623.3524625208667 L 274.8116480695493 363.25764213389 L 417.6584585155027 531.2797211187192 L 150.108327828352 554.207049207271 L 210.61668420391752 270.7931590376397 L 397.99516508144313 411.0471171699833 L 163.85659336450018 457.7033769633598 L 223.54721810781814 172.10173405935663 L 452.96255069055843 301.3621417645621 L 250.09701026821224 388.9512148645565 L 299.3445877170485 120.45305664333631 L 555.6264682862031 250.65576619284332 L 370.9055892192525 388.14904186171634 L 391.7642150930992 145.74167025244728 L 653.6945303091844 276.96074541964003 L 471.0791784606322 459.87420115444735 L 446.4195807555689 239.08864210550547 L 696.3793876427886 358.7373022409314 L 506.4214700345142 570.6836768737735 L 428.8050975500677 357.3569155675049 L 660.4984317363726 446.03170595565547 L 466.3689586229319 666.2587815978834 L 342.0984923164739 445.2608322648184 L 562.3995171123676 486.2332931821319 L 379.33229331501457 699.2850414852796 L 225.59478114186152 463.7102997475929 L 449.5849583583705 451.19462881501755 L 298.00955007664345 653.7425853890588 L 134.57572293540835 409.82672688940585 L 376.33722643307976 351.77912978228557 L 272.2186591335026 553.1265656722844 L 111.9573976642705 318.3470751397201 L 375.8697897475263 232.36043451148575 L 323.20905369219935 448.3739789291081 L 166.28314467520806 243.69545889936467 L 443.31186845688126 148.0988886031265 L 432.65257131343145 391.70024841650314 L 267.3688657335228 231.93503989882478 L 538.269175727142 136.66990479622478 L 551.9712522209027 409.7885590723228 L 361.8377927654225 297.0126389138444 L 605.6442454141115 198.96971694323955 L 627.210312119699 490.10739040584434 L 400.56247038533616 413.5028734963098 L 604.0178617311777 298.71142588895555 L 626.6772353755614 587.3861543285909 L 363.91373592725415 529.5809944370645 L 527.0080453001276 381.11825143294357 L 557.1466282881357 646.9212567342415 L 271.8433813164512 593.5598508306425 L 406.63120502191805 401.1086130661681 L 460.3054768694406 632.7371220767395 L 173.6199344164379 580.3569979727458 L 296.9375222952077 346.4907391899144 L 391.2661191652104 546.1320870695855 L 122.49158771652196 504.293846225944 L 246.3279354818348 244.24877259147183 L 390.1880036387609 425.0793574921354 L 148.29502974918273 411.6514949592298 L 272.77559485893863 146.69024510870324 L 461.5900181114827 324.7900506164046 L 242.084460960845 356.8091297798831 L 354.682284593033 104.57238182010667 L 571.9835767829062 289.424431100166 L 360.679057154542 374.22630055674597 L 442.066858918224 141.0152445121971 L 667.0431265483612 329.48555678110677 L 448.79289403783326 460.66580914242434 L 482.33590090967084 239.60554690655533 L 699.4920660563873 416.5098086155349 L 467.37734937707864 576.7921189344754 L 447.3942995901282 352.8037402285917 L 653.3762550875937 497.78138641684035 L 413.614033699943 667.3247410496342 L 348.1650005385383 426.3350025114155 L 552.2532856803342 523.5092622649279 L 322.28643704262487 689.3921924760373 L 229.05654571080711 427.0321406895923 L 447.0898584944005 472.50170208245663 L 247.82639157569213 634.5184764901013 L 145.22014156258103 359.82487831991284 L 390.0857251198621 363.1454300155156 L 236.26102506238254 532.9456291034405 L 134.28100739610096 265.146817484531 L 407.8736520649003 244.04717519332485 L 301.47517827277176 438.0717230380792 L 197.0680075828503 198.09309280024806 L 487.8653611326897 169.14508059813107 L 417.9869542994104 399.000540506837 L 297.242218337512 200.03853589273785 L 584.7587287091033 170.0770625805254 L 533.9494377650836 435.30739012244214 L 380.01465738161556 277.3001227003549 L 643.8623188454513 240.0026644731052 L 597.6991752420699 526.9867508247277 L 400.3352478422637 397.8080970336289 L 629.2522727256851 337.1900528655065 L 584.2115129479735 624.7467037552292 L 346.0687479931986 507.49713311834137 L 542.2935613155156 406.5242919304683 L 507.87073291875834 675.3605706682941 L 244.24924068240352 557.9965389821211 L 421.0084341084168 407.88492790283 L 414.99453110784776 649.0494897749803 L 147.19932930166604 531.3929439804708 L 320.61576987604326 336.81145949577905 L 359.9548158742353 554.8260343824695 L 105.64606033814033 449.3431253153048 L 285.23959321711095 226.83793829470784 L 377.1651731195824 435.91464527582525 L 142.64694644395723 361.85572728052205 L 325.32235615649563 132.2966667990334 L 463.32904532535633 347.6013337774616 L 241.72333465280113 321.50699657283855 L 412.34735838266073 100.42628245557773 L 579.0705226114873 328.89308341221647 L 355.2985630096535 356.3398228746321 L 493.58099362138523 147.1151601247842 L 669.1105411921053 382.5479514050202 L 429.1056028887197 455.37187881336627 L 519.2590499779518 248.74330151796903 L 690.6223398606967 473.7358296770018 L 430.02366698379376 574.1599010382183 L 468.2473699239792 354.31438731970087 L 635.1973295847217 548.017098001977 L 363.04151581426885 657.5620084690372 L 358.9910677688666 411.6444405251139 L 533.1354831670833 559.4005763555849 L 268.6321250594142 668.0033272686919 L 240.12543541304495 394.15119800901687 L 437.85613087037217 494.06327239451406 L 201.8883472737217 604.7224539809586 L 165.57176711021492 314.47974422004324 L 398.43932417840807 377.5434128013135 L 204.1407062731312 504.11036634813155 L 166.91320940038867 217.9637582152121 L 434.4064826003783 261.70986007019025 L 281.6413042409464 420.9682395738575 L 237.24334425498216 159.28253870579013 L 525.6983566623896 198.20215320256062 L 402.26722350730284 400.3146354503903 L 334.7854360726437 174.3082855065481 L 622.9996598178117 211.98697653897977 L 511.9382127643797 454.22828189207615 L 404.4219257421453 261.6095109906594 L 673.1052412405111 288.61705465114295 L 562.3140403759203 555.6252073799926 L 406.07132194795844 383.11509726152775 L 646.2940337285382 381.7380218948484 L 535.5412902561729 652.1678053355798 L 335.33144485582744 483.5986101780518 L 551.6452875777246 436.9851929276834 L 453.3354232315674 693.1592580187082 L 225.78171167017646 518.9724635970421 L 432.42690574750566 419.9908752151122 L 365.73266468302927 655.6045999094006 L 131.7610621846141 478.8549708046429 L 343.92480463457315 334.11087675591597 L 325.2921660104339 556.047781334529 L 100.47008288174737 391.8160254153011 L 325.10415789860826 218.7613368482784 L 360.0046967461007 442.1024523654076 L 147.73135328267838 310.6071219627466 L 378.6625576662454 129.21974281272645 L 458.82869248562486 368.02770014764536 L 249.86250673016775 284.96574249364346 L 469.72318649133786 108.26801318790399 L 577.286348096731 366.8977723286931 L 355.83769503760834 335.96859004011867 L 543.8385643160192 164.24726844772997 L 660.245291164486 433.66477499979374 L 413.48882292980835 445.1123306885464 L 555.0533715250353 266.79960430820324 L 670.181142021456 527.8162976639651 L 396.2842196613512 563.7333148789418 L 489.606331946191 362.4844844379545 L 606.4000459214947 594.2617178010305 L 316.9258283299981 637.9273025445096 L 373.0918171482939 402.2456499828092 L 505.34506001959835 591.7147408282904 L 220.7789070093121 636.1660850677381 L 257.4004179979963 366.615609881365 L 421.8295392637154 513.9880067977782 L 162.51064153630972 565.4221500226139 L 194.14754295130714 275.70734553362456 L 400.8405147862709 393.25740766831234 L 177.94163363871246 467.51718686287506 L 208.2417297148045 178.85949203155394 L 454.40021253252735 283.61790055929526 L 265.57399947985976 397.57140009575824 L 285.1725895224547 129.25566367163992 L 555.3748194085829 233.3790424643006 L 387.2879305316343 395.6273472238765 L 378.5490160921941 156.55916913537675 L 651.4117896591546 260.33412012938277 L 487.8496454174685 466.02894789034684 L 434.0134953644602 251.62418157863578 L 691.8445800623573 342.7088674566638 L 523.2081963650701 575.1515154095792 L 417.24416038699263 371.13949363862446 L 653.7407658827776 430.43939644712344 L 483.04282251376696 668.6495805724355 L 331.6559638801115 459.81946877657055 L 553.7095212615399 470.9835774840155 L 395.9767234127034 699.3606905437825 L 216.70513415712364 478.7409169161503 L 439.401355316023 436.4026618435637 L 314.77936420593943 651.5280866637082 L 127.66743447428098 425.2668460300573 L 365.067261848453 337.7973084052863 L 289.16158303997486 548.8964616249866 L 107.27982388183415 334.3208760103628 L 363.7348115376246 219.67968709119808 L 340.1427498504977 442.52109834630846 L 163.8158976697583 260.3584198934267 L 430.29687756857874 137.17248139490732 L 449.16148057176423 384.5540990348501 L 266.8598297358749 249.29902519298767 L 524.2015506296951 127.74943151716428 L 567.5259715079969 401.4764490613053 L 362.9499335317757 314.84238471706965 L 590.3603837481045 192.03675941065106 L 641.3492401662885 480.52929048749803 L 403.0538090796913 431.3381669775115 L 587.5312308834503 293.5393069843742 L 639.1581814434426 576.315759062727 L 367.7579373925732 546.8742710465206 L 509.59134108477764 377.43155680419227 L 567.9914577353354 634.1807540980519 L 277.2290395177159 609.8596341788801 L 388.7693921480667 398.7580281470618 L 469.7157607893843 618.3552079432305 L 180.82908407567646 595.4440410456566 L 279.17482652513695 345.55298943503993 L 399.4539591519684 530.4032774325423 L 131.72014373804325 518.2011118063242 L 229.08631202748109 245.00005254456335 L 397.20970146982893 408.4932816002215 L 159.50780858014897 424.5587620585923 L 256.2368315524521 149.46664275090274 L 467.26870457934723 307.8661390351301 L 254.9797792510092 368.8673837121215 L 338.79319281847523 109.58898735413891 L 575.9611043806087 272.53595782220714 L 374.7817050286201 385.4030830125705 L 426.66376482792714 148.23698096741725 L 668.9350058742198 312.7624115065397 L 463.6284170453239 470.69186505914917 L 467.3233677699359 248.73630335764756 L 699.0661681624708 399.8688815008435 L 482.63888498675414 585.2375493963525 L 432.8851763052928 363.3997193803395 L 650.6636745053386 481.06784964774 L 429.23685396564537 673.7662405986323 L 334.5088035434295 437.9844840979206 L 547.5344968569805 506.6750361085891 L 338.39284103679887 693.586051831749 L 216.74060992573627 439.5098444411866 L 440.7632543967483 455.7282834216774 L 264.57026661184045 636.4909653348183 L 134.6934128925999 373.1422626495124 L 382.4859407681748 346.8468575814828 L 253.6529952644624 532.9547149869865 L 125.79017136888177 279.4732135245049 L 399.1327590227075 228.7505146007881 L 319.27926967048035 436.4600773106283 L 190.58939421181168 213.58902533203764 L 477.8878764574131 155.30877819358597 L 435.74298334087763 396.0155228158085" stroke-opacity="1" stroke-linecap="round" stroke-miterlimit="10"/></g></svg>