<svg version="1.1" xmlns="http://www.w3.org/2000/svg" xmlns:xlink="http://www.w3.org/1999/xlink" width="800" height="800" viewBox="0 0 800 800"><defs/><g/><g transform="scale(1,1) scale(1,1)"><g transform="scale(1,1)"><rect fill="rgb(0,0,0)" stroke="none" x="0" y="0" width="800" height="800" fill-opacity="1"/></g><path fill="none" stroke="rgb(255,255,255)" paint-order="fill stroke markers" d=" M 400 400 L 403.48703971551726 629.0916613198402 L 104.32758253183408 409.00303732257083 L 393.02581959754554 247.3643819392702 L 301.6431836946928 405.9953638594529 L 378.7113057614599 120.79354909236383 L 661.8884501660359 376.01767596122625 L 406.32886754788353 459.1788248410552 L 584.7659514274276 377.39108787462624 L 440.94408973792343 697.0341541611809 L 201.34694584311086 430.47060042659973 L 406.72665175493006 439.80226307454393 L 151.1166567678251 445.9682591143918 L 343.70278199588137 119.19176621629816 L 514.028131330478 375.3283949135885 L 369.2722538817944 267.75264613002594 L 683.3425047853736 329.6034438857379 L 461.7059374919697 633.1407575821443 L 381.31316295802895 405.2514825780796 L 461.6265772960007 607.1345362857412 L 115.29671754391865 489.4433622501399 L 346.84298848983093 239.3889108468335 L 324.44375561472674 426.2891330876731 L 306.55734843536015 144.06002619034618 L 653.8429656255151 302.91968147388013 L 429.1226467222582 472.8080699439029 L 557.3529424170912 334.26476721451786 L 519.2764621771503 673.7277112137699 L 204.26021077038888 488.8621079403108 L 408.9913859180074 419.0307268660229 L 182.66479982653613 506.75951123243624 L 267.4770277959375 140.28183219335676 L 518.6882994174695 337.1437243538031 L 343.108939569414 296.4185292107913 L 649.3186565948711 258.0829314128624 L 528.086510200334 617.2619589492601 L 366.9310635891168 420.18018577259477 L 507.93863608236023 570.9698633527413 L 148.97164893759125 563.8778103400225 L 296.60506023385585 246.76599180206168 L 349.85808878566775 434.9555795933825 L 245.8788316385007 185.94106955508843 L 624.2515641071652 233.29993797826978 L 459.0395516027644 476.94810904511064 L 520.8997102422109 304.2798297581949 L 587.2976338446351 629.3076036550407 L 225.59102241485058 546.9381589227481 L 401.0762221679932 401.238667120451 L 228.56603655037225 553.5919356422104 L 199.46865010988486 182.9143557878196 L 509.6217674009305 295.60119421988827 L 329.8798798928033 328.5806249334869 L 597.2130603747686 200.38978602219214 L 589.2963167651535 581.413553314404 L 360.57416283293463 442.4126928853174 L 539.2035464526402 525.5056806076356 L 202.59968807486266 625.7609083111358 L 247.63888288498524 270.8172419219329 L 373.33411299617273 432.4385896832508 L 201.37788847621928 241.7278853672091 L 574.7489039347398 173.71826175434208 L 492.20009046867483 468.98834256091055 L 480.53367308223227 288.88385875773804 L 639.2824804033459 567.9300886313563 L 265.0305553576938 598.6805540687446 L 385.1481814136642 390.2377355536375 L 283.4505303234275 583.3318858341784 L 145.8994737048846 243.83962006233372 L 485.6832201530067 255.70011740375256 L 329.2288514619303 359.421072738011 L 532.2456004821228 161.00133551655426 L 639.1553240012911 527.6172277438209 L 364.8649081517853 468.32713354394116 L 554.0327737157156 476.26505375431896 L 271.5346686092073 669.7086749463907 L 205.5837008089195 311.001768422823 L 390.87301317518194 420.76731617178336 L 175.9766232320954 305.58588722300726 L 508.9892313702109 129.98215177319986 L 523.922175132423 447.839436356457 L 441.3983891339778 287.70479939256586 L 671.0992926072599 495.2814919994486 L 320.2868360709627 638.338857527004 L 364.6288983619616 388.76560691878984 L 341.3854443999795 594.7722259130829 L 111.71461924149355 318.0073061040981 L 447.5225988417098 222.69904559225182 L 339.1693334594684 384.68374231676364 L 460.6812879523629 142.50582770537375 L 672.3302561341579 459.8178222528406 L 380.9468803830497 493.51251586368335 L 552.9323204914551 428.7429225121942 L 349.7017607461988 692.0385421663707 L 175.7470870180813 364.8820343732824 L 399.54167027330004 403.24958662105325 L 170.57816037313634 371.195680211348 L 432.31709309351913 106.52887003439514 L 549.2930089005029 414.14405303459534 L 408.0448133507956 298.685754483235 L 680.6018399204365 417.9882411171972 L 387.24969346455686 661.0781909798791 L 343.73553310124413 398.1100206749062 L 396.5358462886283 588.6747666216485 L 100.07038966556684 399.0586954290413 L 397.6015298893308 201.48664031851507 L 356.40009483894687 401.1906409004349 L 389.1670904098262 145.39064047391466 L 684.9261275200803 383.52962621927117 L 408.28371427541526 513.3338947112571 L 538.1496774699395 387.7860834705042 L 430.21107639786464 691.1306227864324 L 162.47878062278076 428.30800590383615 L 397.8469528381564 384.0096158623113 L 184.05051129985014 432.43028018421205 L 351.25282593438214 105.94445668242071 L 563.7843793662408 370.28060149651935 L 383.9096363600049 318.4142543099705 L 667.8091782835706 342.93492891750407 L 460.36322446475526 663.5429471239611 L 326.919345655859 417.91359152228017 L 443.7951014897596 567.5937861673317 L 112.00737305921359 479.95898354536644 L 339.9953605964993 195.97651312459783 L 376.7750213875712 407.2164342163019 L 324.04139328672636 168.0572996150202 L 674.9342950655232 305.30528548885707 L 444.66374355910295 523.5363672383547 L 513.3258805907845 357.06657125244726 L 506.0536852065979 667.5717678393664 L 168.63458603818134 495.80270456951376 L 385.9275404521129 367.4263212896272 L 213.43132026413423 483.99339742206257 L 272.8472410434093 128.67332153771537 L 563.8389522685908 320.15623052079513 L 370.9401797326205 342.6044188795636 L 634.855564509928 276.5648002336617 L 533.1675757162325 644.2717430106056 L 318.269314342788 446.1836991409531 L 479.31454792536476 535.5046103810305 L 146.3445224969163 553.7017897284869 L 279.99973097772687 208.59696489178953 L 395.8696659502708 402.6779396741391 L 270.691734247967 207.05852784744513 L 642.4858798045796 232.0835036676432 L 486.4122980805792 520.8158914273258 L 482.99624797519414 338.7072256983756 L 570.8047420744176 624.0677890945391 L 195.19307573944553 561.109105725257 L 365.54051577715904 357.54012310294314 L 254.32690464636437 521.9487826615176 L 203.97466104098908 172.95126099804074 L 547.3578166669482 268.8098300586204 L 369.4077988821185 366.6731075803442 L 585.7182583533119 224.23853595163803 L 598.95238341541 603.9149943597884 L 320.9525152179744 479.50767306621367 L 500.8744704994749 497.2829968106136 L 199.80571125381235 614.0099462072565 L 223.58334944598118 239.93646422440762 L 409.57598309783407 389.1173456006955 L 233.0303913855385 257.5279725005306 L 589.8806632553463 170.48563402435153 L 528.7892311080177 503.2882568744286 L 452.00025795843015 333.1001244607946 L 619.25789852455 565.1347408275111 L 241.07121457520788 617.8395292691977 L 339.8441462596966 357.4998049613715 L 301.4575241471198 544.0836463857182 L 150.64053334670703 234.9702305072746 L 514.0302478328098 221.86810281201232 L 377.9294843483625 386.34070069520664 L 525.755436557639 189.72023086950483 L 651.4511355942434 545.2281411907665 L 336.75899483735407 513.4493112716757 L 508.057115438271 458.0974850680831 L 267.36471639037507 655.9570941353355 L 176.74677585215935 288.5885766750767 L 414.65365705751816 369.4822073378563 L 213.14358625149774 313.7521241238736 L 521.3862651221662 126.13738179680183 L 566.5273790912499 470.79883968074716 L 424.8708846907961 338.9359111280618 L 647.9230807747236 496.6043953065312 L 303.16304767361595 660.1564186481208 L 313.0023038529009 369.1163887892274 L 349.28491322308327 550.0685130512445 L 117.37842550675816 309.2577061180531 L 465.46423686387914 184.91526366284322 L 393.69292018983907 398.18475717101387 L 461.1071683588375 174.844825746892 L 685.5005279038951 472.838366880038 L 365.80700642935227 543.0812950314613 L 502.2055392404912 422.7860989360504 L 342.77062003058006 676.4434525177039 L 144.85845946995656 351.2178120673238 L 409.1716890931235 347.7291714704071 L 211.15007410383075 369.8186122710599 L 442.82778328190176 103.08946093769993 L 594.4507758009529 425.033772586431 L 405.2754306307686 353.4374643980404 L 655.3351634788418 424.9992921575141 L 376.60073555106106 683.4091159762336 L 289.6570733198125 392.57856899257837 L 392.6495667980335 541.3993400628971 L 106.80145954023408 389.2298547458598 L 405.09880228679503 162.8475928317952 L 412.85646465640315 400.0806987221724 L 398.02709112599075 179.40063389539375 L 697.5921889011502 392.8078374054978 L 406.446087763284 563.5917663116378 L 486.1768329893821 395.28979540483726 L 419.1959212084979 674.475362302396 L 132.0426981152881 422.84300555545144 L 392.78686619299197 328.2991322721685 L 225.28101854160278 420.2672531721451 L 361.01127326691665 103.40042358081877 L 608.10151376762 369.4158161549233 L 395.5733167248551 372.7676545290412 L 642.1422980224904 356.8467300526262 L 455.2122825473634 684.6554341989882 L 274.33184254131316 426.3654768895871 L 427.34501678106284 521.1326354171018 L 119.35625209632798 467.85865120401354 L 337.90390350084033 159.28666079660817 L 431.0750963141243 391.4771866572178 L 342.2194469368825 201.23634093440637 L 686.2556078169399 312.03920745551676 L 455.37263478195655 570.8941062978124 L 463.92186967681147 378.2077707626948 L 489.9364250107966 651.2200108082887 L 140.6891528802269 497.3102023087014 L 366.82489350475316 315.526740016249 L 252.16800253614147 460.67077674163284 L 283.04285360049596 126.92718519044575 L 604.3023343159871 308.7929487319124 L 396.5421903936449 392.5608331714507 L 610.9672669398374 298.00724684298416 L 532.1281074994159 663.0090601810623 L 270.8357295246344 467.3695572347648 L 450.56436758093633 493.4478110698413 L 153.30510178496243 538.3806701045106 L 269.89809992653727 176.1192264513177 L 444.0886627158802 373.47341931181614 L 298.2547351510499 236.57670203966484 L 652.2294386429403 237.58683112143345 L 507.94797692383156 562.167878160302 L 439.94349705704565 372.5250183775145 L 549.0866914852191 609.8316556157902 L 171.14060483237787 567.9053731358603 L 334.15313400314 313.055103667363 L 287.3026542768297 488.0809768286393 L 215.61677408923194 171.34598225754831 L 581.5885752516483 248.95168011453706 L 407.30372622334403 408.5134996191075 L 566.0604532489509 253.09083250472443 L 600.4716642321924 619.7727427762028 L 281.7405788230302 511.21777226444607 L 461.1697221263968 463.0904413832678 L 204.93701137119976 594.9709289076288 L 207.53517096033582 213.21820858986038 L 448.3014667042045 348.68892793836164 L 269.1275969356674 280.50795706350965 L 598.4015316539205 175.94777694285852 L 558.6853106769399 536.2661270436533 L 418.69879164374686 377.5420969136898 L 592.1180587398069 555.0708886051406 L 221.5962090941775 628.0411129949744 L 298.85839639454775 323.3262401843409 L 325.61230810624727 501.2920709679513 L 164.3491775069561 232.40117619526066 L 540.457301321739 196.0075917861232 L 425.4569329013597 416.96290063839956 L 512.785994876249 225.0236282262198 L 654.0595602682117 558.3407154160932 L 307.99388875965667 552.7560263359447 L 459.75604315573133 434.7632580400491 L 268.98297470990826 633.3093425633168 L 157.02632020757426 268.3792555267853 L 441.2831669373363 320.94089737914294 L 256.0038012914555 327.5753446903313 L 529.5234614748632 132.40917090802407 L 601.851912424689 493.93896980184206 L 404.01705002951337 391.01327117979685 L 616.2976157396812 492.7611764511688 L 288.2437600276563 671.9426166550086 L 265.7662269489359 347.2093391446592 L 362.0835244036273 500.89446851136495 L 133.22914125267073 304.3542966972881 L 483.40170214654484 155.74026066880128 L 447.40235766289493 415.3839103972799 L 457.0008588968183 214.81039948866382 L 688.0351631689647 483.8792406317045 L 348.7157882780721 586.6423103970124 L 448.5050469839507 412.5371251757373 L 339.1886181927138 650.9795855772196 L 123.6725595079401 337.4835164065822 L 422.13004914821147 294.7667687934572 L 258.18127682294937 372.42311216115894 L 451.73012882606685 110.52229557944202 L 632.1191279640461 437.8440008315341 L 398.6029459845733 409.4747703348861 L 620.9046868901853 429.14454049918476 L 365.60909407819526 695.2577119606858 L 239.85704003254332 383.8131932047144 L 392.3605632360262 489.1164678012282 L 124.24548691674187 380.5838053952075 L 414.72288570971375 132.9468378052012 L 468.81810820413267 402.74421148617586 L 404.39788849323844 221.51563164041394 L 699.3667074671075 402.81868787420984 L 401.20729156791975 607.9808408706758 L 430.8491552331534 399.3513090804458 L 408.98026462032516 647.6590522183765 L 111.28146966081613 414.8719435151473 L 391.6419051390473 274.8482747084377 L 273.26553973195644 410.4034159658614 L 371.9164277845966 111.759938138895 L 645.1863423005217 372.33816063144593 L 403.68400121721714 428.7226766446169 L 607.2243310717016 370.208831287906 L 447.08658121291364 695.5236455683086 L 225.64698245678673 430.50798066974613 L 413.2495513890869 469.47584822917685 L 137.22827071272098 454.2697094245143 L 340.1363062146687 130.88728512064523 L 485.2306790994385 379.6744413680465 L 359.88709829725286 242.4612414507768 L 687.1556464411249 322.2114093846353 L 461.17289265132564 612.9239527539492 L 410.9875334930163 396.6614472998362 L 472.15068057167434 625.0820194139953 L 121.73377774086504 493.89268089021164 L 352.2911853071791 265.4049862905799 L 297.5354127628557 438.0849098760287 L 297.03859047698904 135.393267892025 L 638.3072223322207 303.07062419939217 L 418.84439876386426 444.38246590395505 L 578.3224485974915 321.06144533272055 L 525.5944171902104 672.4387905386004 L 226.60620459142922 483.15739139713156 L 423.0706519965665 446.28509875636666 L 169.92002338724654 519.0881886707735 L 266.2133978408818 150.88472942409035 L 492.6122426709037 348.431665963126 L 327.08429289319986 273.6144523078142 L 652.7217871282866 249.02451661478764 L 523.1358737403798 599.1713658304441 L 393.31330599023994 404.276005231702 L 523.4892555894769 586.7834032602018 L 154.7490342884387 567.5635107323765 L 307.98531185212425 269.62953161020914 L 326.45339505483327 453.60408187609323 L 233.41589876204893 178.60030474814886 L 610.6567972958776 236.41913307569934 L 442.06518732818347 452.5014770839922 L 538.6314903165253 285.41828871587444 L 594.284412088572 627.9087564217753 L 244.6836299803792 536.5376283984657 L 421.8186885476695 424.070648769998 L 218.2663799716235 569.8408093428698 L 199.71788950560662 192.12761956828976" stroke-opacity="1" stroke-linecap="round" stroke-miterlimit="10"/></g></svg>