<svg version="1.1" xmlns="http://www.w3.org/2000/svg" xmlns:xlink="http://www.w3.org/1999/xlink" width="800" height="800" viewBox="0 0 800 800"><defs/><g/><g transform="scale(1,1) scale(1,1)"><g transform="scale(1,1)"><rect fill="rgb(0,0,0)" stroke="none" x="0" y="0" width="800" height="800" fill-opacity="1"/></g><path fill="none" stroke="rgb(255,255,255)" paint-order="fill stroke markers" d=" M 400 400 L 261.8291485424546 312.92800869924656 L 518.2313819163157 647.1698303720417 L 434.3412167393846 105.64875936421208 L 259.9348060758607 573.754485194439 L 473.85776450112576 374.6995630299226 L 489.7260820051324 421.22513296291703 L 236.93818892067154 233.9100361617447 L 463.3129368200489 691.4852995707492 L 491.38478610197365 148.42262647866664 L 280.9042921491658 492.44147552360494 L 385.3371212028594 401.4377784879425 L 556.8811399962867 478.62147823547815 L 255.27815250186592 160.69624173640113 L 394.59648879476657 693.6484568793842 L 516.8911460576294 221.86298626771384 L 341.9932276937802 426.44681152554585 L 294.84772245588744 385.7666545831577 L 585.4047831787682 555.1700095347187 L 308.17151005579063 114.92851215045357 L 335.3330051720603 652.5356861140895 L 500.1219812880602 305.25741745564403 L 428.8702863587479 394.28324299197976 L 225.2380098518391 332.8535214685768 L 570.373742842331 628.0399280134384 L 376.98744173300486 110.57360387215931 L 305.9870044262734 579.2805754778954 L 442.62838102373394 375.27948722758754 L 519.6829037240883 404.406132234391 L 193.37478082523256 258.90947667039944 L 519.4053739298412 675.2006091116889 L 438.55521558113645 149.87631066325937 L 318.2925388080689 494.0565823418922 L 357.8231106814491 412.73461256748783 L 591.3606570771879 452.7718070494953 L 205.28269673057605 186.4918723087065 L 450.43211001557415 681.8036623566306 L 471.8910527651532 222.70346875949028 L 371.8363781605438 420.24509629689504 L 267.11943629634806 408.1084179181278 L 626.2716191227335 524.0150113815804 L 254.42115507096898 137.9684270434796 L 386.4911153941596 644.4879925143017 L 464.2914803549178 309.4686958555123 L 454.1574109688885 377.67671648211206 L 193.7538565710519 364.3118474352105 L 617.3053597597623 595.9046342934279 L 323.59709579181816 129.03460364665926 L 349.03722541012615 572.3618573699564 L 415.02952511290647 386.7914475087434 L 544.3336238889276 376.9017756642976 L 156.0804164762676 295.82860583368125 L 569.9116198472997 645.7880998642843 L 389.9600167738162 164.16048752913974 L 351.7146464154806 484.37763882606765 L 335.5838833907716 434.2526284834766 L 619.0186538882593 416.14825243697123 L 162.27721409062485 224.51173712808318 L 500.50475447170163 657.159239443054 L 431.6334367637589 235.2849823018658 L 396.39010899418724 403.8590420591127 L 246.33462118907045 440.2916454201929 L 659.1809551609435 481.8474288744202 L 207.99700603365304 173.24595479347315 L 431.695843495354 624.4487202198302 L 434.06343505918824 324.1353211554737 L 472.5956604305253 351.7645620578674 L 170.68160870074212 405.5382775980258 L 655.59526851515 552.575077542604 L 277.64175271415695 159.31003269301115 L 385.7324858786868 554.6505163039682 L 394.24678647430153 407.5006759975167 L 560.5424701259574 340.63679284954895 L 128.28780342924006 342.6151572066768 L 611.4971781445539 605.2674427003668 L 348.8921239920773 189.3603821621646 L 378.0450128389617 465.313601128648 L 321.6148973346266 463.9336904117829 L 636.8335044973508 370.98865217295946 L 129.40278667089763 272.4681224111603 L 541.6325821610618 621.9129095245407 L 399.1809545989332 257.48775086376077 L 412.7670477151364 379.47999661300855 L 235.31762227491558 479.9405058106074 L 681.2218227093018 431.17230322037915 L 171.9093232426234 218.2866047984038 L 467.9772661568221 594.7825756889795 L 412.2370360399151 346.90957460426887 L 481.52692360727383 319.034081642751 L 158.69298376178753 453.86789586318696 L 682.4586161108759 500.7685982356728 L 241.9476354435354 198.773703421691 L 413.3654870831369 528.685798378952 L 382.8052840913184 434.80830242419233 L 565.859820907 298.38786341079464 L 112.52327131663276 396.36262548872526 L 641.5385481769529 556.5159655190404 L 317.9366422759868 222.71381532427318 L 394.87163212027104 439.59780460614553 L 318.17711728566235 498.9155250015509 L 642.5425815413739 320.3296760758466 L 109.0292486457123 327.27021097707654 L 571.4032060454474 579.0626991190046 L 376.8282871828558 286.41016380448303 L 418.8604715453369 350.0564317344246 L 236.0880689741067 523.936477535107 L 690.3072761686196 375.2376346825097 L 148.34058636741716 269.87075856675654 L 493.18854530079125 558.5882993708484 L 400.7847952370184 374.73397489267313 L 479.13859588912993 282.66012728902183 L 159.59104807846106 505.9556909758039 L 695.9905564877542 443.88535255221683 L 218.4639880805908 244.1202562048327 L 430.10242429649657 497.66682364992266 L 382.3463084956643 465.48178612839195 L 558.742083472194 253.54886009836477 L 110.38897116922999 453.5488579088237 L 658.3391072225254 503.0277668531705 L 298.75819833876767 260.85353472593476 L 400.70420456484345 410.543411038716 L 326.5932683561224 535.7799469753943 L 634.8430488216111 267.75453764898947 L 102.55638259608327 385.2792577037343 L 588.3698646809814 532.150305493039 L 365.9101428279752 318.6267942395807 L 413.5314347900566 319.03322863569144 L 249.67769429739442 568.682881522513 L 685.3550561190673 317.76645671858853 L 138.46711091434895 324.3034553357193 L 506.18076483542507 519.4279366659194 L 400.6825934157514 404.11365959588767 L 464.628756612581 246.22961242542644 L 174.14842051897406 558.055607420813 L 695.3256912551191 385.72682979477213 L 208.10655789077904 291.6476129309587 L 435.1350477245862 465.16931447298623 L 393.480469958782 495.9402798414849 L 538.6942086951415 209.84223014274147 L 122.42324440688958 510.3275698145273 L 661.2661746553126 448.6208260147649 L 291.9676593412294 300.1004996880147 L 395.10226969345644 381.74908857247976 L 347.12480787488835 570.8496705806784 L 613.5111598378026 217.0931716274925 L 110.29726608752657 442.61034132952864 L 592.1649401272712 484.95890434827123 L 366.69239476687477 350.49080239183417 L 396.7121680620069 290.0478297514554 L 276.0315790073951 610.4113759269788 L 666.3831758075746 262.6479836185807 L 142.36623515472468 377.72409464182897 L 506.89180855383916 481.0173244158357 L 411.8261269353151 431.4262813095722 L 438.284375637459 213.42977843530883 L 202.033058815072 606.3347002948387 L 680.7094316477974 330.18030532785315 L 210.6894971084391 337.572403834029 L 428.7439954255806 434.830593408253 L 415.72999220235675 522.5703987965152 L 506.3225367430467 171.0012203384538 L 148.05114596697797 562.8479072361291 L 650.7975942710586 397.11714042060277 L 297.07954945536625 336.78294835932286 L 378.7123807088978 356.78023746761903 L 378.94024697255986 600.5082418253689 L 579.4297695009683 172.10049535016532 L 131.45373122990998 495.45493610687316 L 583.521194656689 441.1912764997706 L 378.3556275112264 378.45473285068067 L 369.4168362218015 266.60936961001914 L 314.0023788586259 645.5041712001885 L 634.5122150355593 213.61419529451223 L 159.01695350978582 426.4295886079825 L 496.34175531198446 446.904349726248 L 433.0409112004316 453.2427709174827 L 401.46575942008974 187.7269643944882 L 241.82806204992133 647.1955447807178 L 653.4751944347772 280.8961659678855 L 224.95142064256243 378.35136166233923 L 412.26802839598633 410.0299184627309 L 447.5651462232331 542.0452585801834 L 463.29334774162595 140.45015865063527 L 185.62939191016181 607.5747738121385 L 628.4739160744946 352.023224160367 L 312.5637202083453 367.55387666209634 L 353.2111410681628 338.8531696503618 L 420.17762337683575 621.5156369736892 L 534.5216233216546 136.1402567748392 L 164.18601802863293 540.3967657503598 L 564.1990038170318 404.1558070108953 L 399.07244188704465 399.382144304397 L 333.6586866391927 251.78836066698838 L 361.43812842557287 670.8043675205122 L 591.8740886897978 173.92947354023818 L 186.39387356803357 467.1833514833107 L 476.53527973232616 420.1625765095426 L 462.18497372592816 466.6313899700942 L 356.49848377421915 172.06344989495759 L 291.143874497429 677.5793360348907 L 615.9294021911102 240.98565326898515 L 248.67329160968242 410.98117545219907 L 387.9818669151484 393.5916170903109 L 486.5317454641396 551.619360561255 L 412.2005692292005 121.01018124733969 L 232.58192157983711 641.5825704579424 L 596.7603390585913 316.2382642595121 L 335.98675285871667 389.6797033127628 L 321.1589980157686 330.54939604004346 L 468.0958561889598 631.2924357530644 L 481.594054833429 111.90150128878969 L 205.77064236355224 574.6939792539936 L 536.8259140833545 376.4872265226111 L 426.1718289904769 410.82330184979037 L 292.28064751416946 247.9436098750679 L 415.35619853307827 683.8878245123354 L 541.4350605776817 146.11978992901368 L 221.6463862629647 497.48373359534935 L 450.2795160888641 403.12650934572116 L 496.335419611094 469.418927197694 L 306.48199131949406 168.5984006289933 L 346.8133651569679 695.2237613368109 L 571.1541470709486 212.76481980217287 L 278.8779427899635 433.2511506843369 L 358.8931643541026 387.5365207072127 L 529.4588135500887 549.3739691450551 L 356.3538749853488 114.65562360799402 L 285.61451013588305 662.7972694815912 L 558.8302996011719 291.81485573081954 L 364.23088159293917 401.275373094418 L 285.77734271933866 333.5845944158834 L 519.3020933090849 628.1481621200536 L 424.10830689182296 101.17190347984348 L 252.83295180002574 596.5035740211765 L 504.66236098791956 359.9259791737717 L 456.3764574593089 411.2312475642539 L 248.7138596890556 256.5098555112136 L 472.1886027859846 683.2732590761811 L 486.74811136866003 131.7645619638824 L 261.3476464839655 515.7689868034624 L 420.9330869641971 397.1911877699068 L 532.0428576324246 460.38656795637166 L 255.03117691734917 178.51517565998623 L 405.15316172249203 698.8535923108363 L 522.7444212540709 197.56653427865962 L 312.09405227681594 443.9270744635681 L 328.47608847099644 392.90305644746786 L 572.7286583100296 534.3918635841359 L 299.5052310986002 122.3419635753948 L 340.99010325140705 670.1661657870279 L 518.2892945123372 279.7927269547964 L 393.7715839029036 401.465748671243 L 250.66804609675674 348.6521433635777 L 570.035645560646 611.4341613394737 L 365.89314603979597 104.68734732302931 L 301.6344536518056 605.028939123263 L 471.3137051128727 355.1750703932685 L 486.0924659855582 400.09968022606927 L 206.68480857531515 277.86441432660763 L 528.0777345381885 668.552549600456 L 431.6558137355428 131.36893095934283 L 301.7919891750255 521.5412906048529 L 392.10789615482514 402.69328339010053 L 565.6318525599077 439.38356515397805 L 205.97303199180902 201.9115770485945 L 462.26894518283973 688.2876998045416 L 474.502413226692 195.63654240234476 L 344.66187454195307 442.8505863742067 L 300.36441666862436 409.6533776628272 L 612.586230090691 506.84639556552605 L 245.5372205147633 143.92008382413945 L 394.84135134298094 663.7408376698094 L 478.86263921249883 280.1196095540741 L 420.98995818247954 390.4594656349323 L 219.499499784364 375.3547161563356 L 616.4842467634073 581.6078404929887 L 310.82720852362235 122.07061529808266 L 348.3903170082896 600.577976540989 L 440.41333713906425 361.8466020462035 L 511.7268496301458 378.0107816292028 L 169.8961357071296 311.2843618081217 L 579.1972926467391 640.4300513931628 L 379.9691004998402 144.32733181374164 L 339.31526535096293 515.3993059793568 L 367.3493318265997 418.88388035323993 L 593.5216175816125 407.3488861729562 L 163.02427607921882 237.7825231063352 L 514.3786477005088 664.4533446742112 L 430.11503767473533 206.1223910166802 L 373.05445646201605 430.9456021292999 L 278.0305250026644 436.67262121962136 L 645.4612673443553 467.9971241250931 L 198.13975482375722 178.14423545062695 L 443.49364082823746 644.6662782795851 L 444.0739421866512 291.6659378377734 L 442.4930289601746 369.5289342600729 L 195.68610965714643 412.2298798977253 L 655.1056019938331 540.2026871084347 L 262.5171932152704 151.86442251313363 L 389.58987487486394 584.5269168326126 L 415.3040757918856 378.50251134339817 L 530.0051600641502 346.5888502166589 L 141.70847388940842 354.998013001242 L 622.0709929002894 600.6675141217711 L 335.14937017171974 168.98141095661603 L 370.61062806599625 498.9765634636696 L 349.8223744802253 443.99525569672176 L 612.539418511589 366.238898842453 L 129.47754071254758 284.09671415685324 L 558.1259642529704 629.3065317855921 L 392.8422938353142 227.1560701635734 L 394.18674748694184 410.13130717192104 L 264.47786326820113 471.86139285734623 L 668.2756273725047 420.09230280167446 L 160.5027808892021 222.77306589672486 L 483.77102692031144 615.0771897655062 L 416.94186292271286 312.33202198271067 L 455.41444252451987 340.89822126113125 L 182.0887582426443 456.8675865923175 L 682.9267250232942 489.706547440107 L 223.99937136196726 191.6559590562088 L 422.292704719285 559.1930217261786 L 398.7452222021559 402.7859525466265 L 538.2622093044711 308.3636810452657 L 124.85057184664493 406.32639231145924 L 653.8618472923788 551.9392704460525 L 300.0210824440877 202.7672736603236 L 393.01269754799256 474.7910612015153 L 342.0305964631951 475.3959138322649 L 620.1997780779647 318.86721476001776 L 107.92294652509725 337.96081208972475 L 590.8574189890127 585.6652523790091 L 365.24311048594984 256.0232024077342 L 405.68605710685097 383.14924816515924 L 261.97335639189185 512.3135860595119 L 678.7094596780458 366.18647467963234 L 135.05122449348136 274.7551100479181 L 513.2589428174243 577.9103775012758 L 399.72114473575635 339.2384152812471 L 457.66969803115893 307.54844598635907 L 180.76196344621465 506.10956444041847 L 697.7954600365993 433.35850100354844 L 197.48988536865272 238.28227402992815 L 444.3749667100685 527.6271678097494 L 392.67042904478546 431.63198884948446 L 534.6807765053235 266.5553722417391 L 121.18256028522882 461.90267010117475 L 672.6073095013912 497.6100438952628 L 276.539379007446 242.4393973077611 L 404.72575318329115 446.01905651687173 L 345.5922191404381 509.82055958098545 L 614.9254913054322 268.67034009034467 L 100.028891224559 395.85716158092123 L 610.8393491981664 536.9698930621904 L 348.96211569110426 289.4041986703187 L 406.10063162873297 353.3194154600861 L 271.84275422823475 554.564320118772 L 675.4033958226362 309.88870538849864 L 123.24480039102764 330.4829153182894 L 530.5012678141004 536.6493610130404 L 393.71011130649 368.9830678481196" stroke-opacity="1" stroke-linecap="round" stroke-miterlimit="10"/></g></svg>