<svg version="1.1" xmlns="http://www.w3.org/2000/svg" xmlns:xlink="http://www.w3.org/1999/xlink" width="800" height="800" viewBox="0 0 800 800"><defs/><g/><g transform="scale(1,1) scale(1,1)"><g transform="scale(1,1)"><rect fill="rgb(0,0,0)" stroke="none" x="0" y="0" width="800" height="800" fill-opacity="1"/></g><path fill="none" stroke="rgb(255,255,255)" paint-order="fill stroke markers" d=" M 400 400 L 350.7220022345929 335.856696085322 L 440.1449981549936 249.47891770105667 L 602.3126323749549 315.78681675848975 L 630.9010631600047 532.597788773318 L 439.1754681170909 691.0452677813471 L 189.08445694539594 612.3880299966193 L 119.46689026295809 364.22472461325617 L 276.3455417213711 188.0999975934594 L 471.68123667757766 224.35961341262896 L 515.7455292449972 368.26572944287744 L 433.0370188166698 425.0170823869863 L 399.72028655897213 359.79513878551734 L 493.7610076745133 326.92535701642043 L 582.6968279086693 447.3675374633816 L 495.5743887329322 625.1781075251257 L 261.08114929133774 645.8533420679878 L 103.72299551772187 441.98024626391157 L 190.00817629495242 194.34586467569127 L 431.91306236850755 135.0776640400997 L 589.2278182226346 287.80391780615105 L 545.626952087495 458.25378660560415 L 422.25499068689595 479.01164258482373 L 399.254695481458 400.9985928962907 L 479.6785371165146 398.89126658168374 L 495.95445241093876 521.366779093263 L 346.68775614226644 611.67661880279 L 156.1565436805411 505.50470683572206 L 143.54909351942416 257.4376362476174 L 355.934926367793 103.85667206387677 L 596.7523740845988 196.2816439534863 L 644.4883915793719 427.72735605554846 L 498.38084244844345 563.326383057283 L 355.7847388329352 512.8019279659208 L 359.00572650632625 411.8551807072057 L 431.392504522335 423.0916354602756 L 402.45697449122 517.7032795230846 L 253.5202978409344 517.4743716473494 L 163.0792146661016 342.0796310446732 L 286.23518378939775 142.0056223394954 L 543.5249436102685 137.5342229149942 L 690.6574410588009 354.68213017535015 L 593.6313490744528 584.4239497140559 L 376.64194537326614 619.5954499593022 L 265.30686299633885 482.4158668524061 L 322.2505129280189 370.1466641601444 L 399.2910373750999 397.61087228417387 L 353.93598858504186 463.54436740045435 L 246.41203490870208 404.27520621995683 L 262.7905205499292 231.3302425706362 L 461.1642613548685 142.0437220657371 L 667.400953164805 279.8583359387456 L 663.7527450559121 541.8540447366722 L 445.64239038749764 679.9303071727243 L 231.05717355583457 579.8665407864169 L 209.31014717425063 381.05727893201725 L 335.44579176899634 296.128523487938 L 415.4530705659474 358.9021315657308 L 363.899903836093 410.98637427283865 L 305.1364191393599 332.23409875885864 L 393.50360217032767 213.31921113677623 L 587.56524927646 245.23860609678775 L 674.3856087440406 463.04687502550394 L 524.4535000736556 671.9213839257725 L 262.3540682954854 660.2526783122184 L 135.83158848926882 444.9613033986167 L 237.36995994588156 249.36267813980058 L 414.61302073005095 241.70797876446892 L 471.4403648861 354.90914199386907 L 403.50799653612484 401.2912462264812 L 376.9860974795849 326.2253326768316 L 487.82243533167156 275.2337188831408 L 616.3812281602422 390.962445268152 L 569.7662962706673 602.8590693106107 L 336.3993879145407 685.8944220627922 L 128.49592480790318 526.5543875798736 L 148.00575572663826 268.95726273276614 L 356.78111765376013 156.3302363010485 L 529.8832406520148 257.8046737050044 L 522.9869855321625 410.4913871740137 L 424.3578565216201 438.00336451993735 L 412.36898692379066 365.66143579295965 L 509.9536410997178 364.8588816928818 L 552.6891394391301 505.8963329010928 L 411.8020021595285 642.151055005657 L 185.6863102863896 581.9024112120621 L 107.74245157901385 337.11445911628607 L 273.66191242375567 133.81196055154197 L 522.2286823858215 160.90599406982722 L 618.8182189952424 359.6167570935286 L 518.8989357054011 507.09620473807735 L 393.31200569380724 485.41370842189315 L 395.82269976111377 402.7185815105709 L 471.7520979485111 425.28304485581725 L 447.12445931980676 543.9862976442216 L 278.3063889443519 578.10006179074 L 136.47580692031949 414.68206016487926 L 209.10320947696817 178.2351947394715 L 460.9870433646292 106.65657498731059 L 656.1016200211859 276.2587776788857 L 621.7548784723848 511.4255489633111 L 436.44806073427947 590.0762272550006 L 317.2766644154715 493.13490158140206 L 353.7466019597512 396.70189528930507 L 419.4386861585788 429.4192315135659 L 362.77066397167704 508.04743772223185 L 224.73602873787695 458.7141904152416 L 199.49160058391607 265.03163074181543 L 382.4379555030258 119.8847631570236 L 625.1235691621976 203.46874085920774 L 689.116795461923 458.01295738719807 L 518.7456384484436 641.45956875739 L 301.1124905607783 600.2629645716296 L 242.0238523157613 431.43371843993117 L 334.65195908470946 342.76554491225596 L 400.3998544470477 393.7829730296666 L 337.8227083894587 441.70780431485605 L 257.4433586138639 351.9869026375409 L 330.3404407796582 196.76894684449746 L 545.5265712672392 180.52552676766453 L 691.6264755108741 379.67848034931274 L 598.6473966631522 624.3773950374034 L 345.90971025299507 679.6396338410615 L 177.4414580446269 511.3799046188967 L 225.01718288042085 315.1045714966746 L 374.61215769967004 276.8897061120481 L 431.11297860969734 363.9737974166535 L 366.0322882160782 398.0525236159123 L 336.32771016192146 306.49124791539407 L 457.4695728858692 225.35859358941002 L 627.3949665368854 320.2858840185881 L 634.6182262922557 553.2287673378523 L 422.838723845032 697.8532925309843 L 180.41067523534429 597.1504447857365 L 134.92972907672953 350.6384160897246 L 298.2801046011777 200.22889202802116 L 469.75076080284043 253.64879181194564 L 486.1198970175527 381.6147973141124 L 405.69161356060357 404.8466775372302 L 403.7046700338771 326.43022987277345 L 522.8569684911421 315.08682305554237 L 603.7049906069467 465.4664831026441 L 488.64108638070496 647.3349331209112 L 242.00827898173054 645.6268336254915 L 101.31215839660547 424.9940810074775 L 207.98794942285753 189.104010839272 L 443.98103275657064 154.33926578036912 L 573.5383872653438 310.11156900787546 L 514.8695116069433 453.7691744838529 L 410.52696638594745 447.6831945635761 L 421.0815109283745 374.8914783178832 L 511.86818355323607 404.8532300026829 L 505.01706393359154 549.7067750805663 L 328.09425090872924 629.2034141678171 L 137.29062670582982 496.2186827207065 L 147.7388828157633 240.21107316449212 L 373.3262878779162 105.87906750700881 L 598.5042148591173 216.72822298045253 L 621.7523467687447 438.11043081984417 L 476.0539612931602 544.3614705314556 L 362.72596632533384 481.0948333616816 L 391.4971318826734 401.9393036718489 L 455.8119975864154 446.20245219219805 L 394.6045186994414 548.1653336560128 L 226.40637861763378 523.5841929159185 L 149.34426905890703 323.2755482169573 L 297.75476202148724 126.73819153412563 L 558.6500270919154 145.63936491451594 L 684.2420933229392 372.22714238546246 L 571.0373353410139 582.6863559141142 L 368.08493744419616 593.7696623240992 L 287.2082174024896 460.42830210104574 L 354.3699516382414 379.4101264981247 L 407.2286322566806 430.7069349688883 L 329.9306072380074 485.8519759210056 L 218.2002119375874 394.6458855676624 L 259.76359595656197 205.88831356397765 L 479.89502346619565 132.34682656567446 L 678.8251626438812 293.4559512134577 L 651.8473384553353 554.6591574535855 L 428.19912382142934 669.2378100711828 L 236.22554792640776 555.4835179267981 L 237.78715416061425 374.44037698763645 L 356.73654913272884 320.5794215157812 L 404.03599902584784 390.887076308294 L 330.7662460003509 416.80732119430513 L 285.3324468862919 307.7340096454639 L 404.7711888535715 187.84152089816806 L 610.9208274980444 245.37519411555243 L 679.8669964168118 481.4246849651503 L 508.9678174142284 679.3243906483106 L 252.04772840625 644.7277155205537 L 150.61202202174533 427.87547000304016 L 263.1501644650373 257.846663112931 L 419.204264984855 272.3513625068043 L 444.86777311257526 375.15247140927596 L 372.2045266630694 387.92033460746745 L 373.38995913515885 293.6201032233877 L 512.4136497256795 258.28567230306726 L 638.6879947506459 403.7066246066141 L 566.4370068708872 623.7522432236802 L 318.64584222082175 687.0548676671478 L 125.22260803504264 509.4025892480058 L 166.9066293608867 261.28648555622874 L 373.25714225740006 174.93936712198155 L 518.2528375053901 284.56311228102743 L 490.70006519602987 413.0008623407111 L 405.4999131058985 409.77031739129586 L 427.46635714380903 335.57713057664506 L 541.475208244725 363.56347875135145 L 566.4747671350225 530.1780336094722 L 397.7637769077121 660.904771820815 L 167.5872434481999 575.4037591400138 L 110.93431889987971 320.24430455714526 L 292.2289089976141 134.70579852393143 L 527.1707312538858 182.8799847761004 L 596.7050624435215 375.23750818174733 L 491.60152021609963 492.53922377370446 L 392.9104271369149 452.0350943380531 L 425.22965949641576 385.565646543201 L 500.09815827051375 441.85577737918453 L 446.07701654410096 573.8892898670124 L 254.72536421632898 588.4681752283628 L 121.59599819635173 399.55073081325907 L 218.69512446262593 163.2123506320625 L 476.7304921479954 114.15730341526205 L 651.0744805544018 295.9646142205744 L 597.0648774010244 513.5902153220499 L 421.9175905878805 564.8434274367792 L 334.49392316516946 465.7508471906069 L 387.645576343088 398.4042242105094 L 434.59078409589625 459.49671880176896 L 344.99318371043864 534.1638223378222 L 196.9570554041827 455.3167122776673 L 192.73993296986743 242.52667712602738 L 398.44577691735674 109.13291630301012 L 636.8420089387478 216.0257071184208 L 677.4249417831406 472.40553899235636 L 498.19877393135863 632.4033636594752 L 301.72918934413775 573.2625672408368 L 269.93894937638055 418.21463439207105 L 361.6647609321294 362.33524334954325 L 396.62744947462585 427.62134744595505 L 307.5862295826309 454.59217995004445 L 234.01182877480832 333.290382436076 L 336.05962397218724 171.58136251212647 L 566.601772695451 177.52923226633635 L 698.0674852553957 396.3334494428703 L 583.3041695870736 632.6205745419572 L 333.06999116728633 663.9468436577567 L 190.35425392247564 490.30688324032826 L 253.88053613781614 318.4625032904805 L 386.31594775792513 307.0044443446673 L 409.5346535100308 390.15960216151615 L 332.8350572408599 392.2730434539716 L 325.94424869645906 276.60669547849966 L 476.7889130378601 205.02283321565181 L 649.5697810044285 328.2628469559416 L 633.7830650801782 572.5477592323139 L 405.7755690547206 699.8749037448416 L 175.75389885142593 579.2479231605437 L 154.36390964990736 339.52874057429125 L 319.5520921062356 216.76087286588788 L 463.7345905499101 283.89328084305987 L 454.3250593475193 391.61968015260595 L 380.7786607544307 381.6334106881188 L 411.4001130595343 294.44422087020115 L 551.8879900949267 307.3995089258704 L 620.585611637636 485.1065748267348 L 478.505402942161 666.1286766236057 L 224.73974260531728 640.9487613706826 L 103.74235098369667 407.76806691964686 L 228.17786741235142 188.0837151268176 L 453.2105511635459 177.19024274683602 L 553.6851496998987 331.2480271529944 L 483.75199968042773 445.21870717655037 L 402.38145558703604 414.75563813970365 L 445.532696205061 351.67968975609364 L 542.0932341076567 414.3468373041963 L 509.85465794628135 577.4004470751138 L 308.43665063513464 642.3274886606399 L 122.18702996496154 484.05747075281687 L 156.2060092882239 225.25063609687632 L 390.46682173440746 112.71679513508246 L 595.899321684866 238.89274813824372 L 595.868763728947 445.33858015574066 L 455.3896180013861 521.5400004086785 L 373.64837878694806 449.6301129424495 L 424.99169739078764 395.78791501677006 L 476.91928234817476 471.47804265850465 L 383.455461602685 576.109564640925 L 200.5079842033912 525.463221765649 L 140.21474616304073 303.9002446754093 L 311.77571500950313 115.56949458519176 L 571.0850536970838 157.77681050734236 L 673.1169586253802 389.0342509252669 L 547.2471034756902 576.5281960642385 L 362.94907041839747 565.2907583548592 L 312.5961444761234 440.5694149224305 L 385.6473136037566 392.50682722673946 L 411.27910134593253 464.19427726865945 L 304.2535704348287 504.48346758906814 L 193.0177637329387 382.00691942435304 L 260.90487781292256 182.20963250949754 L 498.69614507185344 127.38209635589232 L 685.8824945674257 309.1403228609615 L 636.2216327236628 564.3948135857814 L 411.96957026065525 654.0191231170141 L 245.80618060228292 530.4471441425048 L 268.3784396764653 371.45645785279527 L 375.4652529085195 348.0904258135092 L 388.99435703638477 421.4429135664246 L 297.8589506953317 418.67989826403664 L 269.50938803158317 282.08081185856776 L 418.7140765114669 165.85456707702593 L 631.9958224975549 249.54980710855804 L 680.5676602750051 499.37194669195367 L 491.84432101488846 682.1649484938027 L 245.13978389821466 625.856475411918 L 169.66009124092912 412.4603947674486 L 289.0284810651182 270.66284143553116 L 420.0083141242568 304.5346880293596 L 415.7108538586641 392.4401973238945 L 342.89478026964736 371.1907310450201 L 373.74094812753003 261.85438769542833 L 537.6224699498858 245.55903383851958 L 657.1005325126523 418.7496363171207 L 559.265608054066 641.886268174773 L 301.8158796282826 683.4651432300186 L 126.63164842136752 491.089196806308 L 188.72373392782387 257.2874837541011 L 387.63133930598366 197.48696373207855 L 502.4405129308833 310.86105610393827 L 457.4735220122609 411.6289069437553 L 389.9448459706648 379.4700715341172 L 445.60373737405064 308.0193554234098 L 571.5587640232073 366.1513632213991 L 575.8669461202728 554.5335938080165 L 381.8393894986088 675.4253524065323 L 152.67940442033483 565.3217150067661 L 118.76707636541329 304.77512130209834 L 311.4615069094619 140.3244085300734 L 528.2273716368542 207.29107178341383 L 571.0477112781593 388.35815080275665 L 465.3174805726473 474.01811258715486 L 396.423134247983 418.3332003085055 L 456.1539609763249 372.0108498354117 L 525.4255806700837 461.10226466011636 L 441.27184772629204 601.780332059165 L 231.61365898532074 594.3422958849244 L 111.21800816681855 382.9756231835211 L 231.55287283464097 151.75939748737753 L 490.618734909488 126.11261247836256 L 641.3581902600789 315.8281293436061 L 570.4582347728914 511.7188022296898 L 410.24641438551373 536.5192108070863 L 355.39377818765126 439.9182883216679 L 421.24569753235863 403.9918741101791 L 445.9064138967566 490.5180991549791 L 324.9498102229363 556.8183947606699 L 171.7299301044286 448.34693917039914" stroke-opacity="1" stroke-linecap="round" stroke-miterlimit="10"/></g></svg>