<svg version="1.1" xmlns="http://www.w3.org/2000/svg" xmlns:xlink="http://www.w3.org/1999/xlink" width="800" height="800" viewBox="0 0 800 800"><defs/><g/><g transform="scale(1,1) scale(1,1)"><g transform="scale(1,1)"><rect fill="rgb(0,0,0)" stroke="none" x="0" y="0" width="800" height="800" fill-opacity="1"/></g><path fill="none" stroke="rgb(255,255,255)" paint-order="fill stroke markers" d=" M 400 400 L 435.02224305598327 163.92799794574213 L 123.2399023134468 316.03504556875674 L 352.17962486199553 501.09380219655503 L 272.21720063816474 314.60517921117685 L 199.79927735527446 620.848184554837 L 531.6482907565113 560.4486428087839 L 360.0534121330552 423.9363378434263 L 500.9863717697587 643.9003248048482 L 665.1563934525873 333.6266591775489 L 393.4186680654646 333.0571732288553 L 591.5882483845463 409.44951160587925 L 458.53594736958155 106.0461683029767 L 238.62958712444438 342.21886358702926 L 443.3929134513678 318.86592506079194 L 172.81316700858167 231.4132672610963 L 222.5851058570813 577.3144565687026 L 412.5444009272802 416.92480561806394 L 201.26794518193452 506.14312231242695 L 498.9862431260571 676.9415381372373 L 528.5956972064856 374.4680358856974 L 406.58467311287995 535.0581933447323 L 693.5398189288981 429.02654133708677 L 454.0887935285471 184.4377101050399 L 423.68654720331165 409.82307703528215 L 530.3285726802449 182.77790383912384 L 182.59958811658075 221.4166347641222 L 335.0423829684036 458.81764483788294 L 302.7640853674375 254.31996008491535 L 128.83991765297304 528.0789239297656 L 454.5562036974941 580.1920170107885 L 329.0401567815542 410.4861178904455 L 399.84416225995557 675.1968889238542 L 658.9132040962539 438.56068453894756 L 412.2247551791905 359.7874972653503 L 590.5367311896499 490.26161536880255 L 565.4572512240369 152.71689812692884 L 289.12268938051113 299.37435049406423 L 489.7799909043332 326.42044483539354 L 250.87534387463873 150.8106955984163 L 182.0421395200106 490.100403693982 L 398.88804381008276 395.54711737587087 L 159.73616792839675 423.48362949207996 L 385.65145598080926 687.6056266090941 L 505.47853183832615 421.06637611027935 L 346.78330391557023 548.3581401781595 L 663.1981598430971 540.957928383659 L 521.782311415085 236.080676797858 L 436.1007589471269 436.1621402100603 L 613.8949610880118 241.65198888060164 L 272.26822301128163 160.52121149936042 L 340.86615842942297 421.0982452048816 L 362.06979454716696 208.39066106075708 L 100.85311484695325 414.4149109737294 L 383.4113227852655 566.793533475152 L 306.5440151200144 376.49380400820814 L 290.90479305838033 662.642656886823 L 612.8318243908027 527.8584665728338 L 410.47172542429786 387.2668382622254 L 553.144034313631 569.3233507678673 L 643.926404333137 237.38794664196433 L 345.8405349116948 285.16888514883095 L 533.3458475543305 359.70969088202514 L 356.9271811615185 107.37935317098055 L 180.86435540274115 399.7518168559135 L 404.4674627970545 370.1196539293205 L 155.35035688494483 325.47420027289525 L 280.10509052330156 652.7208063356472 L 469.14771711824346 446.32348183008867 L 279.7261800788106 532.3765138164283 L 590.0164518803458 632.1214599695826 L 558.5197842174814 305.2574147195297 L 429.062574712316 470.4168943197965 L 668.7776689071284 333.0435773129896 L 374.90311853589935 141.72019864203673 L 362.56726164860584 398.11124312059815 L 442.0463839801623 190.09434015284666 L 120.58346367702774 299.5934772071557 L 331.12312231441854 528.4328437357535 L 303.4761642681616 328.2036641036883 L 193.57267946273004 605.8436709917537 L 538.519243625682 587.3321886207208 L 391.8993110851562 404.31480697643497 L 481.89893381015565 629.9564427960204 L 681.2176670077065 344.49676333216144 L 395.08819253120197 296.8522778982686 L 560.6987083780439 416.0744134469655 L 473.092715030971 110.09191708523832 L 214.58565731757037 322.86036747964744 L 428.6664956041714 352.3432159862573 L 192.9365125871789 229.514772379487 L 200.07676584024577 580.6142970322176 L 432.305017064179 448.5186868734072 L 220.1579848171351 484.6970379677351 L 486.3746140905204 686.4534266260839 L 562.0577759546177 376.2393663550194 L 399.8289244781797 500.70177503034745 L 682.6606837096194 442.42474936360753 L 471.72453554222864 165.02363431056148 L 389.2501440512341 394.8926319309414 L 528.8192385565388 207.94498854513412 L 183.88125650694369 203.41666583655143 L 304.94227484068364 477.7251418632019 L 326.5284726469742 276.91193396598936 L 125.85507081535837 512.9638959583737 L 452.08842196268563 609.6002260103999 L 365.385899564109 403.3436446193521 L 386.8466079937892 657.7828390764386 L 672.5808014757679 454.7614637040196 L 426.6937210917366 325.84728408751454 L 560.7999980628038 486.35224656247976 L 579.1818967491838 159.39040232529263 L 272.2422157063755 271.7347850880525 L 464.8415074786768 352.1109442447479 L 269.1073555281669 153.9242827405716 L 157.69403750882 486.1426268280931 L 406.3565281580491 432.30283581237524 L 182.97438971624996 410.21140436506346 L 370.35012154380894 694.7296887734146 L 537.3877861050537 434.7214816227374 L 352.1163021890179 514.9106786788195 L 650.6224342462175 550.9476763036505 L 546.3346851175265 222.47361073557605 L 409.2214943069574 410.2189641628813 L 605.4610465586886 263.3664990554652 L 278.6085630461876 141.86356361011974 L 305.25329511081895 428.5105561531967 L 376.1058270737296 236.38597866695946 L 100.67733625397108 399.3220004421665 L 370.59156599753953 595.1846404919468 L 342.51120997365445 382.41644224512413 L 283.8907257131098 644.0271888627365 L 621.9680375753971 549.0654565441265 L 436.2105461394607 360.2363019328042 L 527.9047804479408 556.6082330897941 L 656.6735445974126 246.9880857876674 L 339.15473651573194 252.10077353859202 L 501.92789801609194 374.7308478561234 L 372.5487577958936 114.12767357238062 L 157.30622315471498 387.47873495888706 L 398.55533101959134 407.1699599317484 L 179.73216832117322 320.56638816442495 L 262.14402709764977 656.3587704535587 L 495.07104609836256 470.8831085577685 L 295.5332189342992 503.9357187888975 L 576.4111868975812 639.1429948883683 L 587.9003549510732 300.18847417711453 L 413.15344663115377 437.06511036284485 L 655.5551514239899 349.8623481590062 L 387.1716681755213 124.02749679851178 L 326.0043397167313 392.5136900207858 L 445.7107882910399 219.5593408044868 L 123.19284904719001 284.4694419519881 L 308.40976294630866 551.8750429010404 L 334.4257062489986 345.88483377738623 L 191.7309517578116 587.7261057446032 L 540.9568853869558 612.222821292527 L 425.66761160312114 387.94727404216474 L 463.3902715481861 611.0926381201589 L 692.3790805858123 357.47007738550576 L 400.3897269802035 262.355065836131 L 527.2027161725312 419.2392834457315 L 486.01809488204526 119.33536750927203 L 194.99260441497765 302.31411403892184 L 410.2376884909837 384.7740606220514 L 215.7510256076511 232.02394438856834 L 180.091527479405 579.395734780958 L 448.3935881963906 481.2836143650162 L 243.52498180094193 464.26973565256566 L 471.92654195005474 690.8343426402457 L 593.0309405494493 381.5742771875192 L 396.63461971812075 464.51951479398383 L 666.8099116259689 453.9165368501915 L 490.1289642318796 150.51696316293732 L 356.62909289447225 376.6457847933163 L 522.9681154859106 235.2653687445386 L 189.6720056263578 188.35776471886442 L 274.38968917760803 492.55051834734246 L 348.7800296747971 303.4438211064188 L 128.0762337246411 496.3253526102175 L 446.1286667885547 635.827876180979 L 402.72207493737153 399.8750115514917 L 376.0109608729178 635.7775104112995 L 681.010319760574 471.3573307275212 L 444.10649358329937 294.4905234071317 L 529.5564892113938 478.23082124832416 L 589.6564235166175 170.44789813755838 L 259.819963148953 244.30280912082753 L 436.5618182179357 375.7457274945139 L 288.4868497963083 162.17046794582308 L 137.1021512040902 478.78489777407674 L 410.0253307847045 469.1958710436973 L 210.28299693759314 399.3554030411775 L 354.9931775498053 696.4324070775119 L 565.9819821450651 450.972995212495 L 361.49287249573956 480.69484947098624 L 633.9186722759509 557.4757560540801 L 570.09579422744 213.63801185706595 L 384.97599423812807 381.5618330814372 L 592.0997643417494 285.7774151478476 L 288.21567974127424 127.40394900040184 L 270.3364017368215 431.9893329910352 L 387.45766412334655 267.81311082199005 L 105.94602415910612 384.494977365051 L 355.49386256143083 619.6012807407201 L 378.44173938726357 392.1979963046898 L 280.46999089004413 621.6773165029458 L 626.1113086488214 568.9829343657453 L 464.03838216651684 336.4313162715624 L 502.5000935798325 539.2790418931638 L 664.9228059248953 259.6590862266347 L 336.53144613256114 220.50717889066075 L 467.8042904092757 386.77713036628575 L 387.58252945335556 126.18075435260016 L 138.2771081347126 373.22141326205815 L 388.9674874853149 443.3439245527209 L 207.31981105742258 319.32502223303777 L 245.88520672318364 654.9000915393887 L 517.1908796199962 496.93506275356197 L 315.56133978887146 475.93677024692204 L 560.0133174722915 641.50696505193 L 615.1121019723282 299.2871178457341 L 400.5343100543091 401.78662136295105 L 637.3227648732206 365.75307898550795 L 401.14444832074867 111.28669620402957 L 291.1558568381798 383.41131876848516 L 445.6719278921445 251.5792834702807 L 130.8644715871685 271.3828814435416 L 284.75354474031667 570.981062376646 L 364.26232136127874 367.34449012434266 L 194.57734101998741 567.1914545872758 L 539.1688410672248 634.3564276290077 L 460.5674002459683 375.2029918087086 L 446.18288685274547 587.6517499384986 L 698.3160465784624 371.86521315647025 L 409.04059313692227 230.37128474646536 L 491.903092946707 418.6799962591037 L 496.63381490675425 133.45615373882163 L 180.19069580234867 281.3165246922898 L 388.4937297125747 415.37804845225344 L 240.50187939176016 239.1412904480654 L 163.3326366175494 573.9648905699414 L 460.5216090277453 514.4037518340639 L 270.9237400530963 445.55907259977255 L 456.36017476598914 689.877608001051 L 620.7665294119531 390.11369408474405 L 397.1854027955223 427.35571959904706 L 646.4200930776065 462.87095307426847 L 508.55328258362204 141.14818550954254 L 326.5636605579815 355.54294959118283 L 512.6753046875248 263.93670976846937 L 199.56699790129557 176.87249571791116 L 244.20824570179178 503.0947813671498 L 368.85564032418387 333.3807171572273 L 135.59018728854545 478.9117597421854 L 437.11032209364055 658.1996643960988 L 440.181993394679 400.18203441859544 L 367.91591237952133 609.717544362202 L 684.0890440414544 487.5958359297184 L 463.9390083457037 266.4000501702625 L 497.6421359852952 465.89422375830884 L 596.3260241422543 185.38804889432996 L 251.9571273865628 217.89403941326927 L 405.55126548231806 396.70771985852764 L 308.2427063597501 175.5177390699691 L 120.85477482127101 468.5326797074736 L 409.87623054385944 505.356877622954 L 241.03284325810947 391.4373512165839 L 340.32910104418994 692.7235525597096 L 590.6524245377336 469.24202916378886 L 374.82423494676857 446.56401756539856 L 613.6796290938066 560.069681176886 L 592.2719618132282 209.57013263137455 L 363.9230176546317 350.86144216472064 L 573.9560649449984 308.1002014429684 L 300.5148762852446 117.63311657999935 L 236.96802751061523 431.60209597315855 L 395.66544189561665 301.9648496812425 L 116.52586847989767 370.6714526030331 L 338.7439648134265 639.5241775261992 L 413.4826986500855 405.6631460732432 L 281.03030414212043 596.2690262170764 L 625.3756468136484 586.8509635061462 L 493.2393094658865 316.33950161051905 L 477.7169067984876 517.5865923008772 L 668.2881416412558 274.76099861826333 L 337.8151025045332 191.2055365926442 L 431.7436200683781 395.45592300372857 L 401.3083605572549 143.28449583645687 L 124.19381985838345 357.64534882617556 L 375.9604633672975 477.8080286479115 L 237.36538671434585 322.0521995678644 L 232.04522852685824 648.5718839011984 L 535.103515566831 523.7326766293684 L 339.4634902763055 449.156189991604 L 541.5224272885118 638.9357788633386 L 639.3891345696802 302.3076836026788 L 391.52451905624685 365.3933076664629 L 614.4489502903591 380.0198971772857 L 416.12270861077366 103.80200757177437 L 258.8168147568861 371.13691158984597 L 441.71312928958395 285.3485990997575 L 143.2582809652252 260.99952293495386 L 260.9185564608478 585.4431470206073 L 392.23429832021776 392.150292332319 L 202.2804280963484 544.9912645919519 L 533.4921797904888 653.0326211171621 L 495.7621730047344 366.3214679446403 L 430.9410114645643 560.1067569778052 L 698.8436583632326 386.95638398771655 L 420.63618876986095 201.63896333953952 L 455.6463545440663 414.2646041258493 L 504.33080725558773 152.0048385102664 L 170.38122234479206 260.63727955903653 L 363.94070543877507 443.4438589016995 L 266.39555728197854 250.92861504447757 L 150.42386214434586 564.7502159178707 L 468.53632710125595 547.0363288580372 L 301.7893496894073 429.18937246096465 L 440.4219489818498 683.5206103838487 L 644.6003992807118 401.385131095059 L 401.52924241703744 390.07928585793087 L 622.0429702329552 468.74006948048645 L 526.2324345259229 137.00386431786103 L 299.7086100782316 332.15247358115334 L 497.98131084159553 293.13592084391087 L 213.0483274651168 169.49988629312955 L 215.229712390851 509.29874242448716 L 386.1801833762851 366.0804785849303 L 148.3380190811266 461.483177898228 L 425.57009952867895 676.1399237294545 L 476.89399415477857 404.2291830122473 L 363.0445793586229 580.2464591777998 L 681.8504968051118 502.72523153853354 L 485.57156242089343 242.15805042853475 L 465.894945169128 449.4792120142831 L 598.7416327925698 203.60782518520085 L 248.61318416946546 193.3137034145689 L 372.51324492655897 414.4812698798274 L 327.60933332080793 193.78998853738204 L 109.42745420472033 455.9831642458015 L 406.0281827639959 539.9312158539426 L 274.5022830458714 386.87219599528845 L 327.08891865244163 683.7586866461652 L 610.904563382426 488.86750734093414 L 391.8843621890115 413.35454628932314 L 590.5863616486135 558.3729553549396 L 612.0978557329345 210.12488736487103 L 346.50776141903856 318.86600350087025 L 551.3157827606384 329.5732170117148 L 314.8527796296859 112.91821309531224 L 205.96673273432492 427.5515063137575 L 400.38584696949505 338.05764451804987 L 132.14101216972375 358.55519990621303 L 321.03540738273114 654.559694975777 L 446.8172637285397 422.50389814588203 L 285.8351441203345 568.5513667928282 L 620.013594100009 601.9550439393724 L 523.0364093911087 300.32434141730135 L 454.3018737005735 491.916437957176 L 666.5155296542619 291.58962156972245" stroke-opacity="1" stroke-linecap="round" stroke-miterlimit="10"/></g></svg>