<svg version="1.1" xmlns="http://www.w3.org/2000/svg" xmlns:xlink="http://www.w3.org/1999/xlink" width="800" height="800" viewBox="0 0 800 800"><defs/><g/><g transform="scale(1,1) scale(1,1)"><g transform="scale(1,1)"><rect fill="rgb(0,0,0)" stroke="none" x="0" y="0" width="800" height="800" fill-opacity="1"/></g><path fill="none" stroke="rgb(255,255,255)" paint-order="fill stroke markers" d=" M 400 400 L 308.28371426003514 287.39006080094316 L 348.55876238421905 648.900683106355 L 665.7423991107705 261.7557452450562 L 152.06947876722293 292.9458224340284 L 447.1390171484672 566.5060841128357 L 418.8187886453075 373.15528969874475 L 515.3775548867859 391.6687979110175 L 238.7061169647768 228.78815755449605 L 361.1280851537272 693.3986605941936 L 640.7597135433898 251.8004168357439 L 212.29155334136607 334.5440972181319 L 422.22411368731747 461.2689912153474 L 356.4826487464929 472.7083769915921 L 611.2504274537042 369.3320833499399 L 187.31994965562373 204.5782291731228 L 382.59657154476093 691.4707990671968 L 580.3087456473653 270.22293610204815 L 306.55345576273254 374.7964339114151 L 378.47582400951563 351.8083153545962 L 314.8005884656369 568.8765223120101 L 671.7565156427829 340.2993518568046 L 166.7987784190631 214.84604366048706 L 403.0222531637081 642.838710010891 L 497.64814446151007 318.4273645000833 L 419.82278645356973 403.840267014253 L 323.1830679919811 256.7211043208906 L 298.2507809413928 643.9420470083527 L 687.5929786080044 314.70066274561384 L 184.72450593737872 253.04800548113897 L 413.1845279752445 555.6066844081887 L 409.0911548194926 391.21938450549 L 533.0931872350639 415.9505873368042 L 267.79726260222935 191.09722694753927 L 305.1999339560232 683.1442377266085 L 657.6312362938897 302.9046916534539 L 241.6278977181443 307.86857275770535 L 407.06836264950647 444.76364601714073 L 330.64989003522675 477.385885167187 L 626.9151012240704 410.716833215326 L 225.5156528388055 163.83141162183824 L 328.7938972002799 677.7096384281951 L 588.9230836024328 312.78396695352524 L 330.4188408503086 365.9754170768522 L 383.5555045883993 329.35189079356195 L 274.90736820341044 561.644685307651 L 685.0678486872143 392.9032675720794 L 208.30996195921816 176.25273290813243 L 358.9882596898877 626.7741713072232 L 495.1211826996337 347.4677847755016 L 437.37617290832594 415.04648040609976 L 346.9177424486322 228.8706607510341 L 248.75712267851517 627.5931211119065 L 697.6364815926368 371.0465400571749 L 224.0531125204963 222.30989914871873 L 385.22448981107397 537.780112046713 L 393.6601090641216 404.123538485881 L 544.5398150769055 446.40142998674116 L 305.97989284447294 159.6360627248105 L 252.45012927917034 661.0565848355382 L 662.8745649921295 355.1312461442071 L 274.39287330465083 290.22355861461665 L 399.1225744607481 425.240624817106 L 302.2919280753904 474.08519603137853 L 633.0488798658356 456.67360266324755 L 272.1240086473302 131.82255592522426 L 280.09898606175807 653.1355860287259 L 587.4803364307717 353.89405148057534 L 353.87465673766167 365.21388048329436 L 396.56733792435926 308.09959079465307 L 235.69163360471674 544.3512353963429 L 686.7624452896731 448.18316709596354 L 256.57413025021407 147.76498792634186 L 321.4729514061834 602.2962738140009 L 485.2371905871845 372.39305520782443 L 450.556401699233 432.69672216411504 L 378.71031195430294 206.20446740919613 L 202.81840749965247 600.1679400470839 L 695.4296674370928 427.9677132696099 L 267.5732114004124 201.83536851913672 L 364.6429168222366 515.0365567327132 L 374.3024060680084 410.4223587729919 L 548.0413103282935 481.2592914809991 L 351.6595885281792 136.59379174551395 L 205.54636541139328 628.1646840754328 L 656.7588569223509 405.72758811976 L 308.1017677889886 281.8815168795592 L 398.8613732214737 404.94965633440063 L 273.7008301698347 462.16444569914796 L 628.5469771668777 504.7921613602839 L 324.93083772735207 110.33986645138322 L 238.80130031861262 619.370947982389 L 576.9546853493332 391.18400176513046 L 374.6816364982763 371.89451910172346 L 417.02543089252066 290.33856663808854 L 199.73606695431144 517.1958313258561 L 676.398457092389 503.352690492991 L 309.0170145753226 130.57286764699245 L 292.1179457732971 571.4516237667962 L 469.60340028011274 391.4757131236781 L 457.5797504813331 455.3258108118879 L 417.17752325418184 190.8385049638454 L 163.0386406688691 562.6552403357791 L 681.2285764037636 482.6209873826025 L 312.6392082028575 192.0691393533031 L 352.23449626199414 489.64816020437615 L 353.1229457072907 409.207334294533 L 542.4246476810797 518.35369118 L 402.7238915346699 123.71557947793013 L 166.82826449022983 586.1157309482518 L 640.215071677274 452.12063406040056 L 340.32093979475354 282.465040145723 L 406.13077262288186 386.1775772716222 L 247.28763844800991 441.6121803771744 L 612.9376409525564 552.4272576465307 L 381.3449073995504 100.58339307144126 L 206.70689726648357 578.5321523018763 L 558.8727248867584 422.6446975958603 L 390.8646501373494 384.8259367360494 L 443.83741524824296 278.1639108603845 L 169.5242388221501 481.03844990273257 L 654.228725656308 555.5852670191076 L 362.868642728229 125.1989475906359 L 271.97665318160114 536.6015937763093 L 450.21092780935896 403.4951316788465 L 457.1151787328547 481.02728439783976 L 460.4111108684862 184.4888294505806 L 131.71885581136019 516.6654988020448 L 655.9698110905598 532.320361070516 L 356.6142374969265 192.78129594354382 L 348.1605275364425 463.9861348988985 L 332.40213085689766 400.1748207110479 L 527.1124174786424 555.2478724382819 L 456.6686599139949 122.18322294236907 L 138.16366375431699 537.0738210149549 L 614.7659601003033 492.0757720557991 L 368.83272125129275 290.9862952322712 L 420.1610572222208 371.081740170987 L 225.41408739658445 413.06047997540827 L 586.4253999861235 596.866126137807 L 438.55622179574027 103.08868477828207 L 185.0326947075261 533.0908890489734 L 535.19916632519 446.7535523000523 L 400.85323482732093 402.3334141019161 L 475.37302026437044 273.32518634661324 L 147.2739121234031 437.3566963987435 L 621.1906641655826 602.1892685865462 L 415.3366431872989 131.47308514408354 L 261.4579900547999 500.2604127660832 L 429.28764528976455 407.81800516849523 L 448.38618492233377 507.5864430160973 L 506.09479769835815 188.34670311755647 L 110.70928114765786 464.33735057056896 L 621.2083279512623 574.7011926654898 L 397.04010372777617 203.09609838484738 L 351.9483926846505 440.3524704718027 L 314.43071050760403 383.6521563984302 L 502.17586738638045 589.400499522144 L 510.75100491071044 132.53150411182935 L 120.83518320318467 483.5856533974714 L 582.4182343041211 523.8324943606465 L 391.78415041177936 305.92734819765434 L 439.6224053774383 361.53247577408024 L 210.2261343383785 377.7541877106446 L 549.8902651394826 635.5020201206152 L 493.7085453705702 117.6928915162141 L 174.33959002441813 485.71337924098856 L 508.19437544516455 462.5670812761591 L 403.593702146013 422.3828803299295 L 509.57021443657203 277.0955502164958 L 134.78624943414604 388.16172174305433 L 578.8521280546584 640.7751111071635 L 463.77994418948026 148.55185052922798 L 260.3134695030807 464.92482848333293 L 409.13550060838355 404.4379420763951 L 431.23489097913733 532.6355010422797 L 551.6498470289713 202.98749901103423 L 101.28978712576958 408.2094064975605 L 579.0158775032685 607.8631047994229 L 431.79370102129053 221.56299362144847 L 362.5344367694165 420.8175906230706 L 301.34330651916207 360.58008048153886 L 468.3447180072813 618.3361261183642 L 562.1588412924472 154.6059479187429 L 115.4644565397212 428.4220402661245 L 545.5241954542346 546.2077730058156 L 407.809618474283 325.3558003206487 L 462.71948410862063 358.9753098474229 L 203.50052557674223 337.4781202483602 L 504.84274120791054 666.0023262631662 L 544.0748993430302 143.54554366145578 L 174.50866776727648 439.08841275690395 L 480.2534065010374 469.7735465635233 L 398.62524401861947 442.72964426731386 L 544.071887778507 290.1724052438107 L 133.32100923010012 335.87812401064366 L 529.3167505177108 669.4033664478364 L 505.87149294274894 174.98120563248884 L 267.66830904689493 432.9067262817572 L 391.96333375102574 393.9715698347014 L 406.14389811425156 553.8204031477742 L 594.3996102641379 228.3196239659267 L 104.08651766910282 351.06578441206744 L 531.8468233483525 630.4823383458935 L 459.21961099464556 246.26489835607558 L 378.3472286073895 407.07490599896767 L 294.9619196124758 332.4525586000239 L 426.97287553428345 639.813068703934 L 608.1859654969438 187.56489860326087 L 121.97892116997963 374.40560234064424 L 506.62210325979686 558.6605097059359 L 416.11927690920743 347.0678139955147 L 487.3186261900085 364.32230956934933 L 206.51477364710274 294.4469487197806 L 453.33743517109656 686.4601545942951 L 587.2245743513065 179.1632925836696 L 184.7618714334569 395.7555166680847 L 453.7374079314867 468.70232932562874 L 386.11487997851003 461.0817809946228 L 576.3839857416082 312.6164158478087 L 143.5061136103306 283.19561666579085 L 475.09489498768585 686.7041945598246 L 539.7393650080643 208.79815831103102 L 282.0942611211229 406.1798635792565 L 379.7265321001036 377.61147691646005 L 374.21428498770433 568.9680591719965 L 631.7422269154276 263.5770559944295 L 119.03022617553484 295.76541300974236 L 482.3802141289801 641.8862943870654 L 478.2301866298867 274.95636623059943 L 397.4254685294296 400.32206155733877 L 296.6600522841758 301.21798414777345 L 379.96210428227755 651.9774632941431 L 646.4011940174926 229.92590221525327 L 139.62325233092736 324.235932962726 L 468.26595930198215 561.312989730237 L 416.5473592443136 368.7487873970638 L 511.09900653408687 377.87998257945003 L 219.94938071455778 251.1649469306474 L 397.8507939253842 695.519370165043 L 621.1707654560344 222.52499738635814 L 203.72556760157534 357.94458165792776 L 430.8087625344059 460.28958113301053 L 366.84885396899926 475.26708375354326 L 604.0445501443522 343.83317147247055 L 165.28770782963866 232.90213621530214 L 418.94864559730706 691.9602945954457 L 564.0770831330137 247.6645511481991 L 301.71909441778234 386.25091202131034 L 373.9844019920367 357.03921685013796 L 337.10105726014274 576.242704578272 L 661.3200656376735 307.35620102072255 L 145.3590892673109 245.06624559860697 L 433.34853676068445 642.0855110073054 L 488.3666156852379 305.2222805072936 L 417.5624906981743 401.1768753935626 L 307.25671702092006 269.1483212766768 L 329.6485277459052 653.4931769537054 L 674.800472788127 279.6534560384217 L 167.01457885723897 280.3236677089696 L 432.85605344142596 554.9281353851907 L 409.5572662542619 388.14076850954507 L 531.7176148086545 399.31870275249804 L 243.8290119277424 210.2648321017041 L 341.13088677773305 692.464773243433 L 644.4892201606616 271.20088476967186 L 229.5325906927288 327.43748814858907 L 413.2810535556333 446.0026311292054 L 342.18101471488444 483.39224768102116 L 624.7923690035144 382.5989374431289 L 197.92416081128422 187.70931137254092 L 363.7209676374553 685.1479800518816 L 578.216021890027 289.0240314964783 L 324.3652175097707 374.06335377480633 L 375.7849415952535 334.30428164211094 L 296.9102108638754 574.2807990663163 L 681.1746856200143 357.69483275096263 L 181.66583857634114 201.4558614012216 L 387.3644406489637 631.7611429601889 L 489.8170732303018 334.64636772346256 L 436.4675274438706 409.63363093952125 L 326.94760847252405 238.68491759440872 L 278.6593118366185 643.6388269728326 L 691.9319821909171 334.2824520209852 L 202.2377295004885 244.64429274533268 L 402.48154394225946 540.8442974630962 L 396.20316743432363 403.20526022818444 L 546.9768823537796 427.6858539760515 L 277.5067421016674 174.33634015971532 L 286.0290068313082 677.27142687791 L 656.400210927157 322.5072674724902 L 259.95581315130215 305.4607880845807 L 402.49393682756516 427.72838458841267 L 313.9416045581804 483.9834657245817 L 636.7239363780254 427.1289914454215 L 240.024553160586 150.08174116426864 L 312.1602094861727 666.9337463639417 L 582.1553023416387 330.27173415665044 L 347.70800273958173 369.94056448059337 L 385.584860397375 311.6772400111495 L 256.06414964350233 562.2952891865118 L 689.8770341411042 412.188083815156 L 225.98612834896267 166.99951207752073 L 346.75683419001325 612.2089590776588 L 483.3909452745399 360.97819671385844 L 451.9327807918538 425.062671467646 L 355.27824063607113 212.271294893561 L 229.748882569711 622.3653258647406 L 696.9860378479725 391.06928263472736 L 242.97412096492425 218.62120353604507 L 378.7855132952182 520.8721465564983 L 378.0507906037549 412.27038792021165 L 554.983626743819 461.4619521548503 L 319.6926409912046 145.75588722001706 L 235.32407710556737 650.6098220826991 L 656.8085730091223 373.6766307504129 L 292.56420784030917 292.61641225678324 L 399.221315357613 407.63335513692107 L 284.31254470612976 476.0988547178814 L 638.4281757644604 475.1841985195881 L 289.6292579010176 122.08129539020621 L 266.75141642200504 638.6266363356646 L 576.5474112820536 368.92538969414653 L 369.4430666977547 373.5717809787558 L 403.21032589694244 291.48697610595406 L 217.1443293685949 540.1420877698152 L 686.6242166500399 468.1339921789737 L 275.92233845981656 143.21551842608153 L 313.42710959212974 585.2437487809749 L 470.45104269306 382.2874526447436 L 461.99495658698794 446.25333596030976 L 391.16104958081587 192.18411987695103 L 185.6254094721733 590.3099755949786 L 689.8439067321638 447.1607506697469 L 286.65568706143074 203.04557418769062 L 362.8614185929535 497.16074268264254 L 357.06281084533526 414.1524574803858 L 554.2885398723251 498.65612179477955 L 368.525016793213 126.52862387090568 L 191.55133114095977 613.8064830109361 L 646.299324810067 422.0318969664139 L 324.89089485337706 288.85482571667234 L 403.61896915334916 388.00486777904666 L 255.67756243846347 459.40500838364795 L 629.0898365117185 524.2089184784184 L 344.32743469838664 105.23667275429182 L 229.56546543682273 602.0896242553521 L 562.640723996341 402.7865041942186 L 387.4511802119575 384.0417727591077 L 427.86118620894956 275.95304082857024 L 182.72154225720962 508.3441288228916 L 671.2963729186047 522.6991381736742 L 328.79467906489543 130.98611344772775 L 288.7348932190738 553.0706440026465 L 452.80853101517306 397.09514859483636 L 465.0802854494461 471.4973627500451 L 432.93552524810184 180.37370366902752 L 148.77895330982471 548.7660066489743 L 671.0823673263758 499.76975068649784 L 330.63360943625844 198.0381465997595 L 355.187739504616 472.04190364284227" stroke-opacity="1" stroke-linecap="round" stroke-miterlimit="10"/></g></svg>