<svg version="1.1" xmlns="http://www.w3.org/2000/svg" xmlns:xlink="http://www.w3.org/1999/xlink" width="800" height="800" viewBox="0 0 800 800"><defs/><g/><g transform="scale(1,1) scale(1,1)"><g transform="scale(1,1)"><rect fill="rgb(0,0,0)" stroke="none" x="0" y="0" width="800" height="800" fill-opacity="1"/></g><path fill="none" stroke="rgb(255,255,255)" paint-order="fill stroke markers" d=" M 400 400 L 391.39933010475863 462.7402341685737 L 519.2329830080911 433.3158927095864 L 471.0165789726266 236.02397963143483 L 207.1321339586212 283.09067222605637 L 234.88442199785348 603.6945466326863 L 596.3890110869158 609.3821128950439 L 643.8372773319285 226.96802013681992 L 262.40583232510505 136.2982451882698 L 134.13177573897627 495.45098760596903 L 452.7282630238201 649.2800161017042 L 615.0631082967344 384.4421614105791 L 410.6671615101409 233.60447270390063 L 291.8701363664726 378.05236035626336 L 383.8346123309134 446.2143636170373 L 386.9823315078958 393.34280226813706 L 355.64412637148064 463.6045545248975 L 500.6678570316535 492.8819559658179 L 546.7873692580155 279.0067978233061 L 276.5896472221404 200.1210995582431 L 154.03717892195297 508.9267685390114 L 480.5986007127131 679.5901477600703 L 696.7127303031166 356.8452869864375 L 397.5809141713123 104.82889924276611 L 125.04471126782454 364.60125938950387 L 335.5403751511513 638.2071667783343 L 588.9640364798854 480.00603349594155 L 478.94274380536376 267.32565225993454 L 324.45609748506075 339.7829885080632 L 375.04765503934334 423.7913207213318 L 382.9024784641995 376.31972341322404 L 319.1617407034681 443.0262504393416 L 451.7768239591224 540.5850644003499 L 596.6001066205072 356.7284520746267 L 380.4232680640474 157.06464191122114 L 125.27249669342979 384.647577842093 L 343.8450819270751 688.7798449432296 L 683.9438548652512 496.716789627301 L 530.914935470612 138.7455917617039 L 176.19757885827477 246.63772242780436 L 239.9356038084236 576.3602566072436 L 524.805056623704 548.9084616905573 L 519.9254940193866 324.5904920942204 L 365.91447752286695 324.70570170346576 L 380.913442664555 405.6719853179962 L 393.352407017874 356.7837572404987 L 294.6241206876913 401.72733996346756 L 380.5951399242624 561.1417898316837 L 604.9971288412036 453.67378576118205 L 496.3305859212195 167.18338625722419 L 157.6430815635391 258.4712820890034 L 216.96731516953918 633.5205529599273 L 608.3614647290628 614.9741318428944 L 632.5641513474337 229.16827775030626 L 273.7001557268882 167.32407827862627 L 185.77257098321505 480.8988558831861 L 440.78267145768416 578.318112324186 L 528.1029280811408 388.6195499854256 L 403.26119004503573 331.5810275035512 L 394.7903791636645 399.0311985637151 L 418.2935633274644 344.815543780334 L 293.2180035963447 347.5818045666713 L 302.59350192327156 544.6744169113974 L 565.609734848469 547.850223702673 L 597.5831862471114 231.62319123269612 L 246.05636191125805 159.57509431748872 L 129.07344076780083 525.33309760148 L 487.25112771564187 685.029332210086 L 680.5558155027719 354.48776589305766 L 393.6684225841953 142.52478569374534 L 182.08961066127895 375.5690108627353 L 358.0162134225536 565.8858624808865 L 506.84713425256234 443.18712920181514 L 426.9376979994772 352.9907812892676 L 407.38711899523577 405.69289047533687 L 451.5820525551613 349.17818374012376 L 320.84527023280015 294.07216694512283 L 237.17662835580975 490.11820311082903 L 483.58365930487577 615.9650312323488 L 659.4088679792434 338.4298718986999 L 372.00627887055646 111.71570655712816 L 100.62106466139898 388.18828969238626 L 348.2550777762023 691.5242230307326 L 665.7352368392541 485.68020716191324 L 508.2133246527084 174.91202746707074 L 225.65118479640043 284.67951006682233 L 295.1490440535697 519.4008765532417 L 466.5363278536104 476.79377889315543 L 433.28657306202876 378.2999926081854 L 410.22454982397375 421.63484362104066 L 482.5157835249584 373.9993717354123 L 375.5751535982584 256.86672449579606 L 202.76046435847587 406.46810838130114 L 375.1540294359016 639.3087588538531 L 665.1972655152849 464.8104863579685 L 507.6079645495227 127.36252259428824 L 138.49377846559867 252.9826798150819 L 222.83017659396523 633.8350554555444 L 593.561396091317 593.2629268997274 L 592.1458878220031 253.9495308859862 L 302.5542867637227 227.29343377208386 L 263.9872575740033 453.9259449513835 L 420.9588231144383 485.19087939009705 L 425.05689803820286 397.3594045994812 L 398.7982932153831 438.45658057409025 L 499.00754310784754 416.73785740420766 L 447.19892299222136 249.3987567205804 L 211.69493370652012 311.3629294827607 L 264.31583947713017 608.835488693172 L 610.9464381831737 582.2008910685017 L 622.0194368675457 204.42770796006528 L 234.29167787048542 150.30993389933744 L 138.8582651553972 526.043035659985 L 482.38676028115924 654.1770232727661 L 628.7417396948998 359.03462340953837 L 392.33564873776356 213.06332764496125 L 267.2299578211304 387.3142114613766 L 383.1036043492059 471.6804574843688 L 409.88782811273956 403.8092934357119 L 374.44015898030085 446.34957157150376 L 491.4823924117321 468.1406035094901 L 519.1751613734589 278.6681684813436 L 266.41411076632954 227.21052592554767 L 177.30039400107503 528.0704970475633 L 506.7628845129466 662.968017399113 L 688.7186927474004 326.45438133209166 L 366.2689965111197 103.27507680683402 L 114.20109612096627 393.41320275195704 L 358.72621194806663 656.9361883560757 L 613.1975831075247 464.90284865562717 L 473.41508453961313 240.6572949268103 L 298.74064911524357 335.3839262659407 L 361.5528381947782 445.2574317235095 L 397.3125468920788 396.99906916172546 L 344.2661325557158 437.64966433087926 L 456.34217036870257 514.3292371516942 L 572.5846036507841 342.49271907719185 L 357.93759241753025 175.7400095220066 L 136.17465067815743 412.9833186381162 L 374.93899412094584 687.1229544867049 L 691.8649167698028 466.2778742913207 L 504.4560636501291 122.09412185958541 L 152.7419596954431 266.2783478726998 L 250.74663056744814 603.8467304876275 L 553.0359744572577 547.8712090939181 L 528.4273199530755 299.0187382355289 L 346.1124887449939 308.04797730524933 L 358.4626910986309 417.2616665744343 L 395.24999513605957 381.97181828718817 L 319.17124147906645 409.86004769380474 L 397.9133639256541 540.5272487912666 L 591.1215473443092 429.09678691831203 L 467.2722454431026 172.33898888606598 L 153.16359922132938 288.716492166666 L 244.98371486076212 647.3723099243678 L 630.1748242614706 592.3131193874885 L 617.7206506520359 201.78334937350826 L 243.82640705526651 172.8475544419512 L 181.61252836932516 509.85621712767806 L 465.5052277443193 591.3441073107786 L 548.0966274366581 370.96449824463997 L 394.6800905397769 307.36786144778995 L 369.6227827020044 397.5992546860412 L 407.08946344707454 367.55125874104635 L 310.42442497767485 367.1666249639917 L 328.1849928432607 535.4304191387819 L 565.8016722347329 519.322530442793 L 569.5162102992372 221.66111058034855 L 227.17159925748186 183.8671317141217 L 146.75804124306964 551.2114827909526 L 517.342937703516 675.9621324845549 L 681.0519176739529 323.48078119170464 L 365.16698502790075 132.69668338227945 L 164.30913473451375 398.4321194314921 L 372.77194290117177 589.2581710261416 L 532.7555797611274 438.0482049307465 L 431.7850389157708 327.92738647331385 L 386.4664482505558 391.6728572639774 L 430.2865423355392 363.14101969582657 L 325.8587117959768 319.8921579937493 L 264.24894611694947 494.9803412377901 L 498.06868480706953 591.0384078058391 L 639.7415130306949 315.72502216540965 L 343.46794621704214 123.67054756428382 L 103.3666203451221 419.4760383262502 L 378.8800599160126 698.3475346767069 L 681.3063046446703 459.0491544739253 L 488.4269808143527 152.49605617899647 L 199.14542250053404 295.59222391210955 L 296.2235087054687 546.7214117228285 L 491.27188213357954 485.3436747348567 L 450.0962164952853 359.2635506083037 L 399.33964239161 398.91437650603297 L 456.93275217754314 375.23851704739644 L 366.8136512034768 281.9339070833741 L 224.01211645585678 424.40183102898123 L 400.3467432552767 624.6942882219063 L 659.2220147388573 435.12768282424855 L 476.7275038118182 123.75881617077766 L 125.54821705154211 281.6399676501952 L 246.1255783814953 654.7359530080872 L 620.0477803914861 577.8095758751265 L 586.0592115433772 224.9461009348159 L 274.43176351445766 223.62612340065277 L 251.3606158985043 477.8490432810937 L 437.84294075599206 504.8980607178877 L 449.11020567253485 389.53289773300446 L 400.98391466636053 413.3155357358812 L 476.16633029590855 404.76480524836114 L 426.8154989187378 266.83374116307954 L 221.27490951815824 337.79288101346384 L 293.72603274735786 608.6045326290651 L 620.4217051062003 553.2103352021935 L 596.773088529121 186.07079652225215 L 208.96195963626124 168.96249543046252 L 148.88474950901335 555.5807401002464 L 512.8431766568893 653.7479497948927 L 637.7047756879144 331.07838650020574 L 370.0175316619946 196.06387452952183 L 244.53517579549077 401.5140468247448 L 387.66045469450506 497.0279360361442 L 434.5123156771609 409.28200882741896 L 389.1452582594537 425.7481113637776 L 477.7286887643464 446.08718581563215 L 492.516656858032 283.5671221497917 L 261.51297750065817 255.20282769732947 L 203.22173682640593 542.5393938008316 L 529.415466407054 642.2453392611195 L 675.6683675358056 297.9892424588026 L 335.06581163791975 107.13136382970515 L 108.47675473100492 423.9449939628736 L 385.2510891632597 671.4465188704339 L 634.6144144324126 445.24650617735233 L 462.67207857106786 215.07102385743246 L 272.2487954407944 336.23015483531606 L 352.6969131359949 469.25862195415453 L 415.70493698955534 414.20964807633777 L 367.4950248335556 427.3289917624 L 455.60264813089833 488.1241096171047 L 546.7830136633055 333.2786086514565 L 339.5808638782453 197.82921305364994 L 151.71348348378837 438.5841462665212 L 405.0248699645361 680.1585560714493 L 694.4402750895962 434.9959237268876 L 475.4025219239347 110.18950073438185 L 132.86960120330542 289.9541806445706 L 266.54812794102634 629.3379302800831 L 581.0925642411141 541.4891953464398 L 531.8743401801653 271.78687793844466 L 323.02352325412255 295.5452279129755 L 338.7650843222128 433.3616369646402 L 402.33031270438687 406.14218118062144 L 344.56112664635714 412.7693392690597 L 410.60394068125254 517.3081459805966 L 573.1900788646792 407.98725379715836 L 440.0968806456117 182.51692200460087 L 154.07201376028704 318.8962466565461 L 274.7658106659885 656.1150852739397 L 647.7685602818619 566.2627023602298 L 598.2675856335775 177.22582097636874 L 215.05311806407482 183.64970661881173 L 182.7681111206406 539.5663229137697 L 492.73636394395555 599.654640605651 L 564.540329341152 349.35425927806256 L 381.18097586043876 285.11385196168226 L 344.58930043829554 401.4481689857496 L 400.88522580777317 391.99271385910225 L 330.97008612674716 382.64263447298885 L 351.0614296546947 521.6163293959464 L 560.7430779770814 491.78140813880844 L 540.5809593369286 216.99815616165472 L 212.99742310406612 210.78501673750156 L 168.51683257448553 573.5334673183411 L 545.4585321920282 661.8563585834115 L 676.1454680430022 292.63479967978327 L 334.9955900590839 127.9905788846354 L 150.7590844540796 424.5907388534709 L 392.0469535818997 609.7955287138391 L 557.5606415580627 427.7159390133939 L 431.3963349011772 302.10799881954784 L 363.02625482400913 382.29468978785076 L 412.4731009040619 381.07898429980395 L 335.82002232376544 343.81602685441646 L 291.2463731157703 494.52146127680464 L 507.50357902845826 564.349419357256 L 616.679745497516 297.18857037219345 L 317.71225206192855 140.25009723242323 L 111.41726149967968 449.7033595833625 L 410.2951481348698 699.8172393114185 L 692.1129289767882 429.87273748194775 L 464.647404537041 133.68865862485512 L 174.66489146955658 311.46358313641326 L 302.6226629900348 573.8368225133613 L 517.6399833362 488.8468737614072 L 462.7482296991789 336.9606009826405 L 383.95466076241394 378.95802474106614 L 432.3833133980814 381.66251949510894 L 363.2907917868243 307.82694914206047 L 247.8543668713737 437.6802530046871 L 422.03393864735665 606.0314495542943 L 648.2228865696995 407.3731615449407 L 445.96116626840194 125.55503308054546 L 117.7341695810727 312.01510322108976 L 272.76732932490415 671.3855616828849 L 643.6685807089875 557.7816242066832 L 574.718493896649 197.08428540632198 L 245.59656123571034 225.26105051419523 L 243.4467943460231 504.24583323985433 L 458.6561622420345 521.0489858227387 L 471.1921539997663 376.80292064709647 L 397.8901721402923 388.3230541856963 L 451.6320925575342 397.8032821624945 L 410.5644089311056 287.60075404248687 L 235.42636230748587 361.4749618219319 L 322.11105898440167 603.1110344221435 L 624.5745013223024 523.3918358303084 L 568.9388692193453 172.45843986941847 L 187.23117864595588 191.65727409883527 L 163.9266089033322 583.0942892082132 L 543.0891513511825 647.9291815674377 L 641.5481472211391 301.4989448229741 L 344.44400005455833 183.30181924077118 L 224.68915996794416 420.2030110443744 L 397.3926559485735 521.2547727190574 L 459.87601347766855 409.52361979542013 L 399.2009220868736 402.6394820974233 L 460.0042803763125 427.53401992807204 L 467.78005137826887 293.4200649843359 L 261.95092743673274 283.09064130815705 L 230.87609516919866 551.9281433448205 L 547.859086083279 618.1534797886744 L 658.011242780955 272.35519995739685 L 304.97580546370216 116.28429965713167 L 108.10789379173957 455.21397122598825 L 414.27240723065756 681.1807972829781 L 652.4032443659223 421.638141386493 L 447.00109100573815 191.5342072905394 L 245.9873225884083 342.38257592104094 L 348.88157891324136 494.8701123968773 L 437.3484281527428 427.25749832197704 L 387.9459425582461 412.51366185846 L 449.67161437409914 462.97179921976556 L 520.1762262810394 329.32262116804174 L 325.9110686737235 222.49089284403362 L 171.28864141918314 460.63769889520484 L 433.1337336816201 668.173577711156 L 691.6087970314527 403.8798958081109 L 444.68180362629266 103.43359805295648 L 117.27470933745354 316.93081773540877 L 286.8871361479196 651.9309580132574 L 607.972043413145 529.8795042054555 L 530.0338089648556 243.8767210003452 L 297.49007632883377 287.7518221728116 L 322.62964757147256 453.37027946244547 L 414.305166220428 428.3288185811022 L 369.78731938246307 410.3952011058144 L 418.26582002293554 492.40992688524636 L 551.9354852905358 391.03901239992757 L 415.70755823488264 197.26555173900405 L 160.25237593701834 348.00698064553745 L 305.3303844300169 659.5150506046496" stroke-opacity="1" stroke-linecap="round" stroke-miterlimit="10"/></g></svg>