<svg version="1.1" xmlns="http://www.w3.org/2000/svg" xmlns:xlink="http://www.w3.org/1999/xlink" width="800" height="800" viewBox="0 0 800 800"><defs/><g/><g transform="scale(1,1) scale(1,1)"><g transform="scale(1,1)"><rect fill="rgb(0,0,0)" stroke="none" x="0" y="0" width="800" height="800" fill-opacity="1"/></g><path fill="none" stroke="rgb(255,255,255)" paint-order="fill stroke markers" d=" M 400 400 L 387.67248268777274 268.61184368532565 L 167.1127880803117 444.08949586185537 L 481.3656202796946 682.2622993260326 L 670.4837585291668 293.7786106018643 L 297.1163503614317 196.32918495197663 L 299.05130051660063 463.4738088519299 L 391.4714437129177 388.8936652782119 L 294.1900595637465 498.2584702462219 L 583.018745812893 563.402969056815 L 575.812786302163 161.5250651188307 L 154.26710575164145 252.12129326324575 L 305.1699918612065 597.2283893751801 L 499.6540723435645 436.9002706334742 L 392.77885419567536 427.0276512777352 L 554.322693818501 426.09778462968814 L 418.7090924404786 147.55202557156048 L 101.90337323329538 405.83624206251994 L 431.87634753028857 680.5714325682135 L 604.5766020026349 357.1059211627911 L 372.4797980655451 311.1070203408241 L 438.6814319211028 383.92857038120513 L 321.1949425501274 251.30179706310483 L 182.3286760197872 542.8864624542135 L 586.9496250268171 633.8336565477463 L 599.4935777393913 207.33532057274212 L 249.1775821097563 270.5580822761169 L 354.00407181028646 465.016653826234 L 351.71570453856583 372.2158487407011 L 325.31690468685036 563.4441372690274 L 652.2006091535782 487.81148769603 L 471.7373243559904 108.75123475312563 L 131.26962325007423 359.94843616631033 L 389.77536856395926 587.7687461547209 L 466.00356029614795 397.4145264750807 L 409.18343014557036 468.79617363610043 L 585.8549832441688 357.21696768167794 L 314.1297680863481 140.70938550810348 L 125.38290634039907 520.4547796469706 L 528.8771244927995 632.0828300352947 L 545.981758717847 300.0299915744457 L 366.53305501557026 359.78021257358176 L 458.53022717708103 341.21590579738177 L 244.69437989750796 271.90344380951205 L 243.56247761683792 630.5730390134552 L 662.1483439643407 544.0918187748752 L 502.87110546255303 162.68393809581275 L 242.73431926182903 348.6719582176475 L 391.530813855373 437.53356944996176 L 304.4719450761417 387.6687671262075 L 392.6369772968915 611.3514097235881 L 683.0310660049582 383.35913868844835 L 354.83354653365194 105.69263751178107 L 156.2774832760057 461.15118001181366 L 451.12337569245096 544.808559946651 L 422.2830220336127 389.7013339674878 L 455.0120246973341 494.651869035286 L 580.0100406899006 271.4795913705228 L 211.6283903989681 182.42667719700984 L 195.49091342058762 613.6001476603747 L 590.7293625091855 551.1393590336055 L 477.0670619780949 281.48210898481705 L 390.64367007453455 395.093208008692 L 446.47142288612525 286.76988509892806 L 179.61275385861498 332.8146055186935 L 341.430793309722 685.4830217719448 L 691.3052171299357 431.81942164220953 L 403.58157302625915 165.1283379751113 L 271.5285608185384 410.08036415275996 L 399.4115518572365 396.60967360045373 L 269.68177302997503 435.4229099857893 L 484.0016149770587 623.8771850896005 L 664.8007774995237 271.2663499754648 L 249.5417987508564 152.41252292779822 L 218.72794880704274 534.855484050201 L 477.68371265550064 486.25494505367766 L 388.1883131821549 412.83037029949526 L 517.2982337492165 489.2689834907513 L 530.7361106346876 190.06653444158096 L 134.5062688378669 267.3258246559376 L 296.6942290730845 666.4429279153819 L 608.2617096068972 459.05899066725794 L 418.7287027912841 298.6747651835042 L 431.2749630624874 402.79788480953636 L 399.3099536896691 240.5623271515075 L 146.2500912757897 424.91647833366784 L 456.7965791948681 693.0623443372178 L 669.8542582217318 320.94459311723136 L 323.67038372119345 208.0786047418365 L 320.041645416699 440.8260194052074 L 375.7257209859558 361.76246186452045 L 264.7256391587211 504.8110082352971 L 579.1623261208376 591.2646834410125 L 598.55235656694 175.66553519119665 L 177.1320765372279 237.17739707898386 L 299.5831415289617 568.5111503337258 L 468.9238572983348 432.77299691177933 L 379.72313383859625 455.4967885188753 L 576.4616954980959 446.3290710444302 L 443.64100347115226 134.96817151686986 L 100.73296559660986 379.12303907925184 L 406.45871965754117 670.144563534063 L 584.0763736349941 378.2793088007436 L 386.8692641661825 338.69723304068145 L 469.401540405684 378.18451383169474 L 325.03924519408633 221.7622216073749 L 157.97485575976472 529.6099750831982 L 565.5765108729123 649.8729579226875 L 605.3636183510419 234.35012347045435 L 278.4854712800998 275.2633628720951 L 368.2936314814887 437.2686173115353 L 329.369211567573 350.48964394452406 L 299.09295106083266 577.1288667720453 L 655.0745023395477 515.2202520915323 L 497.04826105713823 117.3371318644156 L 150.2987633693027 339.64127583812103 L 376.73448860106964 560.8748801624508 L 435.01814277349104 401.75488198424847 L 404.328045271853 499.4790462989848 L 611.901168436091 370.77985013885296 L 334.9503109242108 122.90706916326889 L 118.16895895791993 494.69051500601074 L 501.1601312622384 627.9415180453273 L 531.3459572093667 326.3171724074383 L 387.9932946606732 382.62889219451944 L 486.29821398381006 327.55673648440563 L 240.94514069108922 242.99700448410348 L 217.2420244931498 623.5416730697599 L 644.9298268137421 564.6347168346379 L 515.327017378977 188.0155785829122 L 272.84709966343564 345.53461469337384 L 397.8185524527479 406.78320042829273 L 277.4311024658757 372.9001332393435 L 371.22193018178916 630.8019779160503 L 692.0906731515217 408.9102907329097 L 381.5822364752015 108.29926629129625 L 170.1051509744799 436.3003573193696 L 431.1304278924017 521.8362508666089 L 393.5209183997 402.3189669638226 L 458.4842143467605 525.1163885622101 L 607.9927173099261 277.90653250185056 L 227.5047568757781 160.59513391661588 L 182.4765478892368 589.9817575287824 L 562.2155792207656 553.971407647479 L 469.7350725120825 311.2115154669089 L 417.54828049703 411.3031288486933 L 469.27077846136365 266.51221093936704 L 169.01181459617743 306.36484907866566 L 314.5437956805349 684.7329401945765 L 679.1391518046651 456.00986229530923 L 422.3242477100503 187.08995143071238 L 300.20282109802145 398.9101805784001 L 397.12605506651283 365.2988930782996 L 240.16959233701834 428.45437513678627 L 468.42193247724526 647.4825109323078 L 679.3337869193942 293.8089481697292 L 276.49844063941015 148.73288961225558 L 226.09753122545038 506.7133507568704 L 451.9236176753065 469.16833662035924 L 363.96137580239264 432.7410305063396 L 528.4796133723197 517.2555621779941 L 558.8067348028704 189.4453782029815 L 144.8777968571636 242.65085969473887 L 278.29409596640886 646.2042246140809 L 580.7576341740931 469.1852857365758 L 419.60816963600223 329.697227208585 L 461.4630504175148 411.0857959148172 L 415.7004899588319 215.50519133663 L 129.89435844704963 402.33807844009516 L 430.60838427874705 698.4301781352228 L 663.5771050467918 347.73316820933627 L 347.8957421384754 224.9545711981845 L 344.9709886314512 422.16206132869945 L 365.10877761319796 332.38914137062363 L 235.00251320182167 505.74976789540494 L 569.9326499333146 617.3739230461799 L 617.7611722607968 194.24111545400484 L 202.91509689166725 227.08085906675677 L 299.5308589572524 538.7768589740355 L 439.2150773281827 423.1391116317973 L 361.8975963228087 481.03445417013796 L 594.1380813729613 469.9813539374114 L 470.20741982270437 127.79756520371433 L 105.22020217635611 352.7700651668504 L 383.34892718098774 654.5546749102884 L 559.5820421640626 395.4935139837636 L 396.1560148607132 368.59200862441264 L 500.43809233486047 378.03161817661703 L 334.2438959116428 193.93217339424004 L 137.12967780864187 511.89570426734673 L 541.2636048294867 661.0650951684366 L 605.6808625969734 262.4223135149519 L 306.82578603809793 285.5053199196245 L 387.3873274211356 412.3937130158391 L 311.4337636420053 325.3103811209455 L 271.2086788704315 585.4342446239785 L 652.2990626313123 542.2873517188962 L 520.0641079488871 131.10617712445702 L 173.36748256346146 323.28382265731454 L 368.78801697683963 531.6141248569365 L 403.64913979370004 400.5116200416158 L 394.1173116349111 528.5114996702442 L 634.4790055963798 388.78155973312266 L 358.7216582277572 109.93683180071588 L 116.51876929483848 467.84523118091454 L 474.374627541458 618.2310226169616 L 511.86031727404276 349.77594562376777 L 405.08863448789253 408.9796255288158 L 515.7698085627547 319.2386239439075 L 242.8239438438315 214.40079998785492 L 193.19943897797523 611.3248264294277 L 623.6436836658698 581.2321757130018 L 522.6835034653396 215.76445905822777 L 303.4075837032491 347.99082373669523 L 409.4730843224692 377.61732931352617 L 253.8036506304254 353.6811019393213 L 346.843591453765 645.4537863265116 L 695.5920506244299 435.5580561731937 L 407.42032441087383 116.49763696294269 L 188.8278250885024 414.2510988838601 L 415.47151781686296 495.3038994521857 L 362.9960731576155 409.62568531885086 L 456.3510750400247 555.3201264880897 L 633.7296554189554 289.5106552609366 L 247.46003369706978 142.6973323860933 L 174.5688214926981 563.9137800979025 L 533.2039483025374 551.1888394898917 L 457.0081053276317 339.41650398893694 L 441.0984802553145 431.9923985227384 L 495.058785390002 251.00724156103763 L 163.94582805407362 278.79833189975676 L 288.55162727197586 678.386153796143 L 662.0452331174181 477.4123112497422 L 436.7462463630136 212.66612632434396 L 330.7053261814576 393.0373157613774 L 400.433853723996 334.1851210353882 L 212.85295753519887 416.315334677852 L 448.76001343236567 667.1823103956733 L 688.7630967709845 318.8182436655391 L 303.9850142705382 150.6880872499825 L 238.8989272447576 480.0511338229694 L 429.4674569475733 447.5578673545804 L 336.7025724839677 447.94614213813475 L 534.1597430360648 546.3939224063707 L 586.0058124074811 194.4091534111939 L 160.19184687359243 220.75236692255976 L 264.2122642268154 622.3107626221765 L 551.3660992676023 474.0112059666982 L 414.88900078923473 360.5900304753014 L 489.51817669407006 424.55047412982395 L 436.18124011475777 194.30778134456128 L 118.62174089239147 377.28091093397313 L 403.871445147689 698.155531047096 L 651.8351443831089 373.0687212681281 L 368.8508889198781 246.40487050203564 L 372.9893811725873 408.1674410499477 L 359.9612581745099 301.8111747091042 L 206.1111879545113 501.12316332317954 L 555.761007542848 640.7284611977616 L 632.6551125385793 216.49342669173927 L 230.6288896883464 222.29617022843107 L 305.0979172067365 509.11379806464697 L 411.5759911451252 408.30445379163996 L 339.9590075982447 502.7682997859788 L 606.7685290869493 496.1320453816899 L 497.33942614592667 126.25884030136297 L 115.19064697951092 327.85414992036146 L 363.4922925415151 634.3466786032037 L 531.9383523293538 408.0571150676599 L 399.99206226362764 399.7562965051854 L 530.6999279670226 383.42935100883085 L 348.3850435948357 168.81746930589688 L 120.58325906856305 490.49598937309247 L 514.9943543688894 666.9380119549095 L 600.3524191509812 290.4646758922136 L 333.1483694938115 300.9857318400596 L 410.6345561263857 391.2689651530259 L 298.49956251942206 297.5966812138761 L 242.73167988788842 588.1334484911417 L 644.0403261059427 567.9345203953218 L 539.8355592963097 149.5209213108948 L 199.63652906820263 311.5735202775471 L 366.2912632165706 501.01877097639147 L 372.9880646093952 393.7175382950667 L 378.96786979471324 554.8843088609916 L 652.7924018230989 410.4755576803705 L 384.46401948292504 102.27843585086356 L 120.53360285401016 441.00512141476247 L 449.5725649111067 603.2416529311745 L 488.16902990937155 369.52484376539655 L 417.2222945563978 437.9178961876802 L 545.8787357600156 316.49629240893637 L 250.17296311557044 187.19467279677775 L 172.38823164012808 594.4525216396094 L 599.1235397553733 593.180500158787 L 524.5777687744619 244.90132015668382 L 333.3242437167488 356.0155690482542 L 426.0848954533422 351.0482720385739 L 234.39144759952953 330.7525975196613 L 320.4783213379892 654.8194164874014 L 693.4254376623057 462.2170716644109 L 431.2939736500402 130.00560845265306 L 211.808044949788 395.8892683904945 L 404.74982490696 466.1216251366867 L 331.7732554752886 411.37912616651937 L 448.7624957929445 584.1817044524865 L 656.2630290454199 305.7691633936061 L 270.6661577447244 129.44343979434444 L 172.13827352201176 536.4223452574588 L 504.7857706555143 542.808671432142 L 439.2884345196002 365.0819909013435 L 460.48696586401473 456.4256862924268 L 522.8623714155461 240.74982209556362 L 164.53297414825803 251.19980038209744 L 264.51022096737114 666.7165370070236 L 640.6539446204504 495.13637104964226 L 446.2379745563547 240.95146849239634 L 361.97313453203134 392.7116545720031 L 409.1927793632374 304.35104156291436 L 188.69392912522827 399.52161023100945 L 425.8385667429696 682.2598609207511 L 692.7102066938305 345.2711405792841 L 330.9104999021139 158.26938133277127 L 256.7373688067438 455.88648639354926 L 411.12768635497247 422.1530996762061 L 307.3816487642067 457.94374252419743 L 534.2122624999422 575.5998349417494 L 611.27511530184 204.69215286089204 L 179.8249841701865 202.52550777399205 L 255.06492881944828 595.6629833025091 L 521.1478940690844 473.27926370066615 L 404.70569417893694 390.26952132696715 L 514.4743055453473 442.682907658663 L 459.9346230260247 177.693261162119 L 112.81875779393357 350.76525170779234 L 377.6766297198016 692.2386462070424 L 635.0153393337391 395.9310329816982 L 385.71836008348606 271.7060131078017 L 403.1306315523603 399.3509885133273 L 360.41741597722364 271.1121818099745 L 179.11224706640846 491.18897546097867 L 537.2639062414014 660.4281872300332 L 642.6111342592329 241.52701986326932 L 259.2150151546481 223.08865261370906 L 316.1576340315245 480.60628447758677 L 386.97627545419107 388.7712081158127 L 314.71993210436017 519.9689947796066 L 613.9586406213139 523.763490190543 L 523.9460867476275 130.36027752857632 L 130.2653372551024 305.39824422306395 L 347.7113410950913 610.2376868684235 L 502.1076110149741 415.4544968115636 L 398.23545777904206 431.10735440682055 L 559.1242453026364 394.1276009836805 L 366.85287062050753 147.323193912229 L 108.9656618829369 466.3014304522575 L 487.8248484523822 667.2182904161325 L 589.4968820219311 317.392385902121 L 356.4801781753586 321.20944570278255 L 437.2278511494131 374.62955067920984 L 290.9686056575441 268.3636373070538" stroke-opacity="1" stroke-linecap="round" stroke-miterlimit="10"/></g></svg>