<svg version="1.1" xmlns="http://www.w3.org/2000/svg" xmlns:xlink="http://www.w3.org/1999/xlink" width="800" height="800" viewBox="0 0 800 800"><defs/><g/><g transform="scale(1,1) scale(1,1)"><g transform="scale(1,1)"><rect fill="rgb(0,0,0)" stroke="none" x="0" y="0" width="800" height="800" fill-opacity="1"/></g><path fill="none" stroke="rgb(255,255,255)" paint-order="fill stroke markers" d=" M 400 400 L 402.6702439634112 598.3407518885627 L 697.5148877112824 391.9877146453655 L 389.97874767487383 151.9999413305469 L 325.32154458966306 404.0252060769524 L 390.8533407747636 264.31771027524985 L 122.07881733662299 422.49736044077997 L 426.57007615378814 681.1213317442166 L 544.0122971553403 384.43009570798426 L 407.8603110421293 464.5583009032217 L 640.2384112183481 367.462072036918 L 355.92667237031526 104.55300763467261 L 196.90916496647336 433.09675395577904 L 401.74577878400504 409.87341419364304 L 212.65149946085577 435.7335534039763 L 459.40579018700305 690.1783288437141 L 647.8333885725966 345.777131141936 L 380.84024899399367 317.7469335079181 L 523.2673026876927 369.53144527461245 L 330.4313802004002 133.97114534445757 L 124.68688522662558 475.97050832386384 L 442.8335599159302 547.4556987859302 L 347.1931422450146 416.11351131448725 L 472.0292440825227 625.1493180047302 L 683.980674535801 304.9168336578888 L 329.67604043602626 198.99552035972013 L 381.1732564067462 406.8726083047135 L 334.98147753674175 229.06833550773985 L 126.23114140688989 508.3761738667714 L 498.5288474989037 639.4245572753646 L 486.4643206638716 363.04911378844383 L 447.75516361461933 507.710004441241 L 646.0699958156799 286.91261115506194 L 276.0033403476008 139.49295206156273 L 254.60456274559124 471.6220147893778 L 379.42577964183033 359.6142831920352 L 196.41063237986836 507.19327624279634 L 543.279265767297 663.460950021719 L 591.7442307727333 292.35320832152547 L 384.9455491909578 374.0104085791297 L 550.088909878728 310.3412880861163 L 246.7056546274315 151.05903683526788 L 177.23324023431877 541.3475375019129 L 456.6214163360951 486.63605137666104 L 309.95481032288257 460.594905332356 L 551.6619613732589 618.9504137569372 L 637.0447164364853 231.03756449247228 L 299.22064745298246 262.5648994254309 L 428.2531164791185 378.69163193650076 L 263.01787597823665 223.37028519840325 L 165.44008792348862 587.0194032637867 L 543.6336979014178 575.2526169093165 L 430.5885887306352 374.23406548276984 L 509.0253722312518 525.9509915194225 L 616.6448582229253 207.30616435846642 L 218.903917917391 201.83205542651245 L 317.72710801150697 477.24317266872356 L 331.18368434743235 328.65224604510024 L 214.1839721550203 584.115634166039 L 609.2680492601137 605.5899780719765 L 523.4257994954432 270.93573580982667 L 418.5999511788701 417.31404660722666 L 545.5069532299922 239.40472295049105 L 175.1806995089036 201.748036517347 L 248.23619045446443 576.8444402015547 L 438.3085218463063 431.9901434190775 L 300.2727681988916 522.745898533487 L 625.324713896151 578.0878479227241 L 566.2457506116093 183.73647930145003 L 302.22127388074097 326.90851656381835 L 452.6799555497046 327.5122221474704 L 190.47222355911515 251.99617453219858 L 232.89273433767468 643.4623363011361 L 555.2033647251055 503.48248774947547 L 391.62652703994314 412.93242051964563 L 577.5044822904679 511.56819362558366 L 555.7771729105391 144.59131247444796 L 194.1099124634282 278.1969138766194 L 370.2634376239255 451.84544763383116 L 269.2893600997187 327.3501192967114 L 265.3141202835975 650.1985777732174 L 645.4719998493572 527.9097196903275 L 459.04219029356005 282.8708076847485 L 471.9060722938039 435.04037173820313 L 506.9859341241749 172.73600771642162 L 129.700302767829 277.172213367042 L 322.01117890395307 577.9472959296642 L 395.0395750355742 397.9051406882592 L 323.78724753135685 587.4667272814091 L 677.7789660932801 508.59423100804986 L 486.1739274340729 170.50783437514457 L 334.5561791035741 376.4261908917201 L 445.9188313805766 266.9320451866748 L 133.3771478418891 311.9926843369216 L 315.66862438346783 667.5335266581314 L 534.1860014579227 440.3201960592792 L 380.6831396146075 467.57440998701725 L 636.9942643005061 464.3091913796227 L 474.2049239072079 111.210677173247 L 203.87283294698514 352.4098519849434 L 398.96591532095476 404.52671796362654 L 209.47502490891972 359.1670245188161 L 341.67509013490337 691.2205552352301 L 646.5384228754101 445.93311119577 L 413.4695362728958 321.87805004458096 L 530.2079206897388 420.64912333733224 L 439.7112529203806 125.77691817156625 L 118.50013367471405 363.09672403973843 L 382.6346816548873 547.8843078406478 L 339.8289164846152 393.7543606827426 L 378.46723736097385 638.6984795414792 L 698.2346638494537 422.8605946575768 L 413.174743384001 191.2911569755498 L 385.3519202863559 399.27316362971806 L 406.7567295544605 213.00318500865174 L 104.65157085888126 393.30772205239066 L 397.645317642315 656.1327900055048 L 488.8997033879493 399.62047172944864 L 402.1764831907253 522.7356001782821 L 672.9524067388886 391.48293910530117 L 387.18861365982417 113.29654592346236 L 242.74438146288273 409.14961341304314 L 396.3783046270743 349.48971621039357 L 167.3407262049194 419.83358444298165 L 429.4752966126342 698.2615056045848 L 614.8426563270323 375.8439140136835 L 396.9134864171406 375.52133523043517 L 577.4517100229068 375.1939972306518 L 355.4551766025062 109.88515470183398 L 142.36266558757643 443.1158346445887 L 417.55128140055797 496.8495693810916 L 288.5647814723122 421.74782553975695 L 455.0310664965123 663.0879445396558 L 682.787553305367 336.86335235136954 L 361.65853697024164 238.52276768671067 L 439.49697534788646 390.05823788920156 L 341.61200764934387 180.55733537469956 L 111.16652650490346 481.02988305650854 L 463.1279011299092 613.9062916065518 L 433.0991947226473 389.7454301469507 L 452.81019598390907 562.6780065711733 L 675.8087907958829 306.34161312623604 L 311.08481301596714 149.29567015926324 L 298.8539695109069 437.4129668802165 L 362.5411512100327 302.77300454042444 L 154.78565009460652 498.28534145954177 L 512.3467958896471 669.7243291961644 L 559.9161982681069 330.85027894936326 L 412.5925821276887 428.0779812564303 L 599.8674542277488 307.1105830748214 L 269.9457789770464 129.7456877371124 L 194.4611355262185 502.3414643859019 L 420.41091236654006 439.645782344714 L 256.3586990834997 476.4145899468366 L 539.0162370160612 653.0422231928693 L 635.2969639479616 266.5780423406871 L 340.85364655044555 298.8890681400394 L 481.1186847225989 351.07098496255753 L 263.1068681420212 179.80464869716306 L 152.17999719907033 558.7320129244283 L 500.3783469799735 552.1657242956375 L 382.8084099758903 411.6758258972884 L 522.3027870292299 574.9648485939601 L 643.1568261448379 225.1106619238942 L 259.6724489544042 210.33542358393345 L 356.6428523548927 432.99108116640537 L 304.9893174437032 278.5638847574616 L 177.27627344097914 579.142801384208 L 575.0195266169626 611.6976742183128 L 496.25268625928754 318.2176767658444 L 456.01378156390683 464.1540917062129 L 589.1345604565086 230.32333598036413 L 199.33602318370384 182.2932165692267 L 261.92772094317553 530.7447903414442 L 392.4919188312691 392.2819458632404 L 254.06986024300292 545.8346371254542 L 614.0287777135921 608.4789169078532 L 566.5047610779018 224.3940182765016 L 352.7404915157175 356.38286451319505 L 497.23310552997964 291.7591997008366 L 187.22677774279433 213.9792798612943 L 219.49638354617815 612.1598479289247 L 504.24338982716387 486.2974216678607 L 352.63904504610315 458.803814279948 L 595.7082529587129 553.3272870343784 L 580.321824772316 163.34124747307513 L 241.06587637830108 282.24797573466174 L 400.43330092038417 399.3983927093974 L 237.04214611260485 285.9313836505013 L 232.57231162403426 646.1751188222811 L 606.7464114593038 536.5776250658793 L 439.99050289947013 337.6548177948405 L 516.0046299261696 472.2241949145397 L 544.3118247469522 161.10133819897794 L 156.57459363831418 257.3906919790582 L 328.78947431079513 525.3922941846357 L 342.38688855039993 368.29941353914313 L 285.79454733452184 614.3406255968615 L 665.4344006311001 536.8739891455228 L 491.59567016201675 216.34402846749663 L 391.635519775135 395.9680232009121 L 480.7380908560079 226.57534228324562 L 129.71180281223218 278.56692284529476 L 299.3144920626733 632.4283098296446 L 477.284420437745 432.25024450812106 L 352.4319085390888 518.4541076364208 L 656.8010286045462 499.13139080519596 L 499.177027239121 132.41322748718932 L 255.91546440325538 348.7925397647135 L 418.02156820347176 347.0432890923846 L 174.77465706437232 326.7220308658503 L 311.20028810185465 685.9609429089251 L 603.7017720529195 460.2613461886108 L 405.22593278033037 381.41878539903695 L 577.2674540760169 447.2905508742603 L 472.0928990511663 114.37689944428774 L 148.50242559678964 340.109981075744 L 379.60489659018737 491.0688040755058 L 284.0229238097253 375.66139345120575 L 347.8914948741859 666.0758013114373 L 683.6533412297968 451.5960677400093 L 426.7531919288077 240.7775022811725 L 445.51911989201693 407.0196031588021 L 432.06911437581 171.68128423595212 L 102.49936749955725 362.29028748182907 L 375.3444003098974 617.9998624387542 L 429.15321808394884 402.90030094175836 L 384.9845483937475 574.787715376171 L 691.7564332172395 421.111551035665 L 415.4759291951102 136.98266214408983 L 297.30393194126145 395.343644264099 L 403.4780415458974 290.82938718998315 L 133.3578733201125 395.096991842244 L 398.5675798486758 690.9151065935941 L 569.8087349328066 398.55008762315913 L 400.7946728606901 436.115019727117 L 623.8751412758278 392.05749994810213 L 385.328681310518 100.3631282383044 L 174.33404978576445 414.09684467937245 L 402.97492380135895 439.14652860310076 L 233.46643088272336 414.91293202173233 L 429.7651352276909 688.5998328668998 L 666.3107524001632 368.9051856281416 L 385.49344051430836 288.77839651171604 L 498.8053802601137 385.7576631901206 L 359.14116056510267 141.2600967196147 L 111.02631276203232 449.62913725156767 L 432.4853615290102 574.9959968413928 L 374.35586025055466 405.1184837244212 L 445.3818271031031 612.4283202390507 L 692.2905864126134 333.4303641525951 L 345.3065640624248 173.953297318048 L 352.36143892971944 412.207571650431 L 358.5181219840052 246.73275020899132 L 123.59974910876878 478.8162409809082 L 478.23715592239853 660.9938548902608 L 515.8081787221766 363.5785111168282 L 428.2530467122896 485.7827404098957 L 642.9141054630965 316.3535935757975 L 300.15177016808093 122.23874683270844 L 225.8683115685003 465.2561225268324 L 394.1306905693372 384.95754875304505 L 205.23867672754628 479.02976391131887 L 516.2293395847116 675.7233803783536 L 618.7544617704548 304.2973217633748 L 375.6096272452802 346.2321502051813 L 535.9240000161748 336.1216033965819 L 275.5893783376169 144.27294511407698 L 153.0029814471612 524.3029218914378 L 460.22951180551667 515.7715504359954 L 328.9133225974049 438.2070888940266 L 522.0819379414796 619.9871320907661 L 657.5465011144049 252.50518071568516 L 301.47282234601835 233.20531449274299 L 405.2319913787179 396.81363592524383 L 292.1321114798002 228.13306128102676 L 149.4726598767012 561.9785675931067 L 535.6195769715425 603.6914527508831 L 456.78122256871484 361.0812606112921 L 481.51767669237336 515.5643621402286 L 627.4465558873071 234.93233305110763 L 232.35568756099477 175.42603391072365 L 289.38019726665675 484.9203257265164 L 356.0102252822193 344.26720712750057 L 208.97954177000236 554.9907018780941 L 590.9152118265279 628.9273589505476 L 552.8227403291309 269.0246872455738 L 397.4211332747574 397.0716824559545 L 544.9001337211303 268.88622208611116 L 197.70769511816897 182.3980927568242 L 218.93770977154057 572.9253798641462 L 455.01848267125763 456.0761665535178 L 306.67792991849274 494.0607031132911 L 599.5115264494441 592.68507951138 L 594.2978339197418 193.32169818970485 L 290.6244258618824 299.915483131625 L 440.7167493743493 354.2826367858168 L 218.55794598755412 242.73269514173583 L 207.18935179284443 628.5954622567606 L 561.244054914328 532.3291074818966 L 408.68853906535566 389.1174494248717 L 548.2455539436176 515.1247776948419 L 578.1187703716689 164.1507138739122 L 193.85086486402318 248.6259255281303 L 348.7636433173992 471.78223310552016 L 298.5795639301799 329.6500788699516 L 247.21783185884314 626.7166511750173 L 639.9492985217754 557.0443169291791 L 484.14222471137066 267.581750509329 L 443.7246927094646 426.96454580280874 L 520.118403038321 199.22015993497334 L 140.780407055818 249.62052590193363 L 294.2925218850064 588.0014282577106 L 421.01793846235034 411.44812427877537 L 316.14299991816745 559.0147811806647 L 661.5807092685121 533.4762195863384 L 515.423894757121 166.07151419690234 L 311.7870698399312 357.94138044752236 L 447.7660718969611 296.24354468149033 L 154.0571267597011 290.76409924485523 L 286.03753584132045 666.1874703166918 L 552.8660127670266 463.0250204548758 L 384.71309019973125 438.5424892009069 L 612.641016425305 481.0432000720455 L 503.0496217048316 118.27974602103569 L 190.0019530017523 326.3751878824693 L 389.2110635448647 432.15290852109445 L 236.5526476547262 347.59232702201825 L 314.7551623241399 678.70882137183 L 655.0671260501772 474.2740914648324 L 428.56998667753595 296.72758594015 L 501.45848348475425 426.6031592335308 L 463.64263124089354 143.24130835203385 L 115.63969714708031 333.56578451568106 L 362.7803208140852 569.5860741771074 L 369.1345021368915 393.6601079939109 L 358.4709754750541 616.96187925965 L 695.3197576857131 452.4166935565486 L 437.00218090008786 173.8769777063266 L 356.6261409015944 393.50067163087016 L 422.0265193586702 238.16747952646477 L 113.22613988782399 364.893245284332 L 370.7838476451919 668.5864628711383 L 515.932907637706 411.0339336206074 L 392.23750185110305 495.1196932725388 L 659.051931354097 417.633662019536 L 416.0242452293788 106.28477152204545 L 218.45081474598103 392.54486293555055 L 400.59345415629895 378.48700486013684 L 186.02817781047546 396.9792119654595 L 399.8038916556493 699.5598146323127 L 635.4552263336319 396.98425568821756 L 398.5881104779577 346.2661064243208 L 554.7007496395547 393.85024927536585 L 384.79095058576854 114.35168074478702 L 126.2307508724067 418.2753918883935 L 410.05461333990763 525.2290287867617 L 314.4988494369333 408.0246385693673 L 427.188521337908 653.0274746866621 L 693.8115211359934 364.4220904787435 L 374.6787039380374 212.11969402904012" stroke-opacity="1" stroke-linecap="round" stroke-miterlimit="10"/></g></svg>