<svg version="1.1" xmlns="http://www.w3.org/2000/svg" xmlns:xlink="http://www.w3.org/1999/xlink" width="800" height="800" viewBox="0 0 800 800"><defs/><g/><g transform="scale(1,1) scale(1,1)"><g transform="scale(1,1)"><rect fill="rgb(0,0,0)" stroke="none" x="0" y="0" width="800" height="800" fill-opacity="1"/></g><path fill="none" stroke="rgb(255,255,255)" paint-order="fill stroke markers" d=" M 400 400 L 332.1758843693583 346.0356439078161 L 437.28893150243346 561.710864001795 L 499.5657709533427 191.4685717031621 L 151.419261170216 521.0785005931899 L 691.222278321078 464.76410208102544 L 214.70271566661344 170.8060046420547 L 402.07536250565903 665.9756082306884 L 532.2708002520119 231.06909406276253 L 259.1369625457306 433.64128780718636 L 456.82999891776024 426.5916446817141 L 410.9838587802845 422.11055061223453 L 423.0438243477473 292.425468882603 L 256.3070791025882 518.0377654227904 L 646.0120372849675 396.1605859373297 L 174.1265456023554 225.9695862016685 L 471.94267414684003 691.1645680053051 L 520.4866279131819 137.18068065735116 L 173.71187065446327 514.6231511692762 L 592.5248517128055 439.6727065631296 L 321.3706366573908 305.78919620652414 L 400.898512342314 438.3778038245823 L 370.270985313293 439.2142862478962 L 528.4865871983542 367.1869478348746 L 213.2609549910314 316.14857734713877 L 518.987041897621 630.4253150935821 L 456.669971423066 113.70745013841008 L 171.58919182401053 593.6776924425494 L 681.4150923502398 391.2139885112668 L 207.92607895208025 256.73172438021095 L 445.19806627544506 571.3934129278451 L 440.15611361145926 308.67105027337436 L 387.8123348092569 406.41441088015796 L 327.891314035051 386.310294316658 L 500.7102162756362 516.9094025109985 L 391.33908759719816 178.11400905441906 L 239.74991844516848 618.3755508611807 L 686.1713181188592 322.14075742711714 L 127.20625048308341 282.5876307052944 L 528.5895598824723 639.7677742947116 L 440.0530549088555 179.6572181187714 L 282.05341318799873 503.21779803047014 L 476.0620446182128 396.4364731356361 L 408.8674667336348 406.40134983436155 L 373.78195968711196 306.52118238430796 L 332.08872437854393 561.2367685457879 L 608.7706166334702 285.92812635120936 L 123.58065868970692 351.97853126644844 L 598.8498827377075 623.6790344423498 L 384.0324330059476 107.94462642850004 L 249.03435443061952 612.601022249848 L 598.6429759215433 342.6109561305454 L 275.0411924709648 348.51287338603373 L 425.29228290420343 445.4428131232002 L 394.185095976995 435.0930839505838 L 489.14599094273314 319.49549876366564 L 205.9616649558727 412.12789553808256 L 606.7114976377904 544.3707089214657 L 317.80794080000214 123.61146268577215 L 287.889439178483 678.2351848532077 L 648.8171184496432 258.9609009176088 L 155.36797141804496 361.4233111214183 L 527.2061603657821 538.6699535473695 L 392.09571407077476 287.6269748960035 L 384.4210285862022 422.6810921075797 L 342.65752008726116 417.54056583275144 L 532.4292410769532 452.1629879056441 L 293.741518095537 215.90512524825564 L 360.81570278019683 661.7422212582909 L 615.2302505782261 199.4478417689691 L 102.28672327852195 423.27684697972376 L 630.0316085014668 555.3742778882652 L 330.1438565461331 177.84280150697793 L 339.5397284997349 557.0774293461582 L 477.06541215537834 354.71300660622336 L 397.1897369699728 399.6016809549348 L 342.2907002424586 339.02791910051667 L 414.02295160234814 562.9803080582029 L 526.8375409555953 209.0211319176157 L 137.94735488441455 484.6535079731978 L 678.9598564879864 504.8820490189423 L 248.43508411233182 146.62715308127738 L 364.55672431584554 664.9241746574709 L 556.091930301423 249.93473879511998 L 253.34151630624697 413.7722065998981 L 454.85755634199325 435.81966837434277 L 406.88141702447416 420.7472225825062 L 437.00054502156144 299.2073457062155 L 243.073791793564 495.5419898202722 L 642.4941211234391 430.51843847888404 L 201.40953635300272 196.63420353308703 L 430.36229703186194 698.301102154701 L 556.5791235124499 156.0634376100765 L 158.44173680043752 482.21741097589995 L 587.0624431207611 467.0182268094965 L 334.0085496840573 293.49004028813374 L 395.174385265028 440.91805120556074 L 367.05150742021254 432.6809200291221 L 529.2831889102638 385.82099646345523 L 228.63877210035292 291.8844672545463 L 484.9987807595666 643.4849119639981 L 496.06481037317144 125.1260607302487 L 146.53856053085136 559.7898784799335 L 680.8247881651236 430.8990276506889 L 228.7278610680513 229.99933766100352 L 420.9648314896151 578.3065793299212 L 453.9836200766002 312.9389674079756 L 384.3637983608512 405.59573116609187 L 333.1341497790623 377.2151455780639 L 481.98929705630576 527.830916329726 L 422.36815626358356 181.00286995408067 L 211.55132682931466 592.8445474770728 L 693.8281756716871 363.1259137126099 L 146.05157587026642 245.26528292519558 L 494.0768411484542 656.5519576467677 L 471.17044231687123 185.67572375615103 L 266.71452576156605 486.96301157655716 L 478.53932202717056 407.40320167517405 L 405.836953466238 405.6155375947518 L 387.51549400598145 306.4332638377986 L 311.3220160835438 548.1258736264497 L 621.0841670357224 316.96642829430033 L 134.02344405566078 313.9757037515959 L 565.3767283631329 649.1971201859303 L 425.22912990396367 107.9783047493342 L 219.73579036156326 590.3220500529663 L 606.7580149090518 370.7687760462816 L 281.3241476800959 330.20479572198013 L 419.66718458633557 451.1494769516313 L 390.1646843622637 431.240008445923 L 497.40110488912103 334.26048571481425 L 208.34358423539436 384.94750909124446 L 583.2725424726245 570.8942088472129 L 357.52579865059886 115.59961676915447 L 249.94037699926847 659.770361659343 L 666.9327679981091 294.9652928102123 L 161.68139115215965 327.0088385813374 L 507.7332914408737 556.9647358824514 L 408.128914185926 285.01069234258193 L 379.4817435940284 422.35158847345133 L 343.51335298464556 408.88719512075033 L 521.6197081676099 468.99518998688717 L 321.37940940403087 204.68205961256987 L 324.85675419070566 652.3608390983711 L 640.7779548952024 231.96254065712588 L 101.70843194366125 381.2507994590818 L 606.7402582887579 586.831515417718 L 361.7213245099407 168.48295799644345 L 316.9549280316964 549.0843511958541 L 485.1598966919189 364.9463230744807 L 394.54713396778055 398.42256128557597 L 352.9973388605567 333.7580780151662 L 391.14351964092214 560.9523966265133 L 551.1597182465753 230.08616064715932 L 129.78229609749576 446.8462836750026 L 661.183724944104 542.8294767800699 L 285.30185624999876 127.41292726880664 L 327.38414980874006 658.5579777718834 L 577.1920354097372 272.18122600648604 L 250.39681094078733 392.9383752764743 L 451.3694935192307 444.98651586690374 L 403.39629200764296 418.7213055763764 L 449.5233765244363 307.7366740321311 L 233.2877604070562 471.68472303999346 L 634.2130150088708 463.81122068776517 L 232.45831018401827 171.5197999318995 L 388.2039986590347 699.504682728163 L 589.7315478598534 179.90665081061096 L 147.83888565099053 447.7805608881565 L 577.6798649683794 493.59326480308073 L 348.57369818421836 282.92711459564094 L 388.7625348467947 442.5524126024712 L 365.0413119841883 426.0566366928628 L 527.4313282857548 404.02332542639965 L 247.10983331796803 270.2665978611983 L 449.7049616449898 651.5697981263064 L 533.3688025922909 141.94599715092198 L 126.50561992814772 522.6917244997283 L 674.622274498279 470.23613566974757 L 253.26800858119245 206.31072395092866 L 395.6809393418831 581.7494723014522 L 467.37426239902436 319.33227033709124 L 380.9581049171352 403.91690183384713 L 339.45657887861495 369.3058267871534 L 462.2166968738056 535.8401900439638 L 452.414120217461 188.1904830082311 L 187.34895485861597 563.7238167175656 L 695.6277423092264 404.7176348474674 L 170.0001941565925 210.92934290151092 L 457.38514822559955 668.3489873786046 L 501.3706224468856 196.12034361251605 L 253.65639477387464 468.41379901565506 L 479.38307853492563 418.9879619666089 L 403.2425123304122 404.1442040355504 L 400.7476934210292 308.30549648392184 L 292.8772517585331 532.404830287714 L 628.8297506148867 349.19555978122145 L 149.66496454175393 277.95818438830304 L 528.6677742994752 669.726595766674 L 466.0933910766199 113.83209640588086 L 193.73968916609414 563.9930095112804 L 610.8426966251703 400.0740746774281 L 290.32523440400115 312.6741713055728 L 412.9200395308761 456.12036380040604 L 387.09512985640276 427.0036700616985 L 503.30979193737795 349.7248507958139 L 214.48782072845447 358.67606500172343 L 556.4887663006843 593.6999250108285 L 397.86347575558386 113.27529860586367 L 214.97177008009686 636.139595899041 L 679.827095423306 333.274853052436 L 172.86251269337507 293.621532624467 L 485.61103025057554 572.4874025182619 L 424.73415555547217 284.7323041733801 L 374.3665167270116 421.04176328989985 L 345.613705977846 400.82967380288073 L 508.74010729946195 483.84270433741636 L 350.0538715264868 197.55389270027618 L 290.75756053815786 638.0713727282985 L 661.445351246761 267.6838395178464 L 107.0646033367259 339.5288624979886 L 579.1409533963567 614.7934383575749 L 394.5494657720798 163.64479789592724 L 295.44871480984034 537.8085846246925 L 491.8499596179522 376.5776227067863 L 392.2342756143667 396.50967829861503 L 364.0129737780338 330.24893493055055 L 369.1110106209656 555.761604800766 L 572.0886101093241 254.18381177273235 L 127.04442705795077 408.4259092963679 L 638.2625406097909 577.8507629344505 L 324.5722414703034 113.56592386855465 L 291.3134046871667 646.9555560881302 L 595.0888774968304 297.4115494321114 L 250.45881916241294 371.5554379555094 L 446.3491194951326 453.8425941223632 L 400.62591339730886 416.1812885750477 L 460.4038971511037 317.7471680182842 L 227.06661743647905 446.98510800693447 L 621.3987110122436 495.38378592130084 L 266.62668153535145 151.10253521911795 L 346.3135408224362 694.755309958621 L 619.2620217086719 208.2546968322917 L 142.17229496138702 411.9885169306567 L 564.4891283420171 518.8312490281359 L 364.8210202935011 274.4018137097547 L 381.8121907393303 443.1396097505919 L 364.19713546825733 419.5462873855497 L 523.0688409266462 421.42491035440327 L 268.23702548260667 251.6796927124312 L 413.82859936259825 654.5732416261283 L 567.8445102326436 163.8047375540281 L 111.89664753052813 483.1249810841616 L 662.8955327913036 508.4296392366458 L 281.09764419303383 186.19060880044725 L 369.84939475470424 581.5640624014873 L 479.99815806697546 327.8075838389339 L 377.7708016329654 401.38154208344105 L 346.63174800088836 362.6988328961083 L 441.835272639968 540.8612459330118 L 480.88735474678526 199.45761862986274 L 167.59135102890752 531.6302834296612 L 691.5522708582057 446.0806523478179 L 198.5833078535652 180.27676222550062 L 419.2378230909228 674.8784551337701 L 530.0199851774919 210.84910564611516 L 243.22334743730158 447.8963872051899 L 478.4703372770014 430.9407888728095 L 401.21092593357054 402.0996560471764 L 413.2065416718753 311.9944656230169 L 277.07197491478377 514.464022922488 L 631.9183515458568 381.94933390216727 L 170.15346154004843 244.63310698118082 L 489.4639120348209 684.8637253595189 L 505.80191283340116 125.4115569828187 L 171.6071402886656 534.1056665856119 L 610.7355468720111 429.944611903372 L 301.9454010056313 296.32863743097664 L 405.1541465936704 460.1509596855998 L 384.99732055951273 422.5722736863356 L 506.84262558863657 365.52699856864785 L 224.18609325821393 333.82778385960455 L 526.9395218220552 612.3756160026481 L 438.0093452983334 116.6529214511026 L 183.68499386950648 607.8169497004442 L 687.2107794039575 373.13078973939895 L 188.74459334578958 261.9532501979801 L 461.2396150728915 584.8525347117774 L 441.56391747973197 286.8991732074352 L 369.25853878552573 418.7016420672997 L 348.80722908307814 393.53900190167377 L 494.13120442424656 496.4624715162044 L 379.16520625649326 194.5876219071413 L 259.1831143247706 619.2109213487042 L 676.8379736349846 305.88320816089663 L 118.25682460785123 298.94912543587714 L 547.7589945525788 638.6697243588071 L 427.9762443897469 163.49416219378432 L 275.50248737131835 523.3997356208222 L 496.900774980608 389.40695709563477 L 390.4022523158711 393.9398566104684 L 375.0607380194915 328.4790110974488 L 348.35556314009824 547.605688018754 L 589.2567665498192 280.77961662250243 L 129.7431934043101 370.1676610512256 L 610.6681458285963 609.2511873995815 L 365.46440298221796 105.38114701739357 L 257.08463295638455 630.3032778695158 L 609.3588005991544 325.15967965562453 L 253.62203714329402 350.0636127917993 L 439.82072866264673 462.1332037518985 L 398.63797363894594 413.28883436699726 L 469.4797608332798 328.94946414693857 L 224.45096673553886 421.96795362013825 L 604.3705282500857 524.6246145543388 L 303.2094632827359 135.760498401389 L 305.53061472168383 684.1534168876836 L 644.5590276974854 240.5582720771662 L 141.61255642597342 375.5525312995488 L 547.6846881815792 542.1824393963022 L 382.4585322098656 268.1799598191682 L 374.49835564569236 442.5634825182119 L 364.44292273340125 413.34007853997304 L 516.3839208171531 437.6870032989887 L 291.536974250737 236.4383215715631 L 378.09657670827784 652.4928986610802 L 598.8151793495842 190.23958431360703 L 103.00842426676451 441.8819255743003 L 645.8455896543801 544.7020714775063 L 311.6940561977939 170.09701746818678 L 343.9966542885734 577.6660331172959 L 491.5297577920695 338.27006381270536 L 374.97614394942997 398.02580695603524 L 354.42239984332696 357.4707922352364 L 421.2879374223759 542.8841899099148 L 507.2404220428979 214.505062118275 L 152.63288294455043 497.2355193588701 L 681.7028539274829 486.3869598771832 L 231.2371292869896 153.93143239801753 L 380.3938091086414 675.9652276398708 L 556.5072322193173 229.6288386724109 L 235.7121430140047 425.7887033635961 L 475.71714630697664 442.9897119428224 L 399.84533868278663 399.61538326987477 L 424.6504812862642 317.3201155248365 L 264.1603637353355 494.73069878410394 L 630.3572924862374 414.56042472329665 L 195.041631535777 214.64792575076794 L 448.55528649947644 694.3144749729174 L 543.5516885592126 142.50566921305295 L 153.82568111843307 501.2296095582542 L 606.3599173511263 459.77564453620397 L 316.02403257676684 281.5626092553308 L 396.5082955413701 463.0523526173762 L 383.8585166329047 418.13129763564973 L 508.0245424844389 381.3114188048802 L 237.1608212252065 310.87634126116666 L 495.2533733589104 626.5980632953109 L 477.16023622724174 125.63148528520753 L 156.70685532447072 575.3713737183873 L 688.9049832559829 413.73872710171173" stroke-opacity="1" stroke-linecap="round" stroke-miterlimit="10"/></g></svg>