<svg version="1.1" xmlns="http://www.w3.org/2000/svg" xmlns:xlink="http://www.w3.org/1999/xlink" width="800" height="800" viewBox="0 0 800 800"><defs/><g/><g transform="scale(1,1) scale(1,1)"><g transform="scale(1,1)"><rect fill="rgb(0,0,0)" stroke="none" x="0" y="0" width="800" height="800" fill-opacity="1"/></g><path fill="none" stroke="rgb(255,255,255)" paint-order="fill stroke markers" d=" M 400 400 L 490.3548211156534 427.5239140293868 L 548.850343716021 499.96145381418 L 555.3376373830758 590.6352629951073 L 508.78388373557056 666.1312146306277 L 427.6512126864446 698.5811903270348 L 343.1093747558176 675.907217258377 L 287.57720977254394 606.261311568896 L 282.80496419822896 515.0289821067589 L 331.87828917051337 435.49787915729286 L 418.0831772470247 396.6217078321206 L 511.0490772526488 412.3772800144711 L 577.9120346496189 476.6269555261558 L 595.3943891873332 565.3749922351756 L 558.3606434783255 645.5883912284701 L 481.7044436155491 687.3397745664292 L 394.87303541574454 674.8086842040153 L 331.04195677171583 612.0973246335759 L 314.9192510725368 521.7229350504712 L 353.6622622194365 436.3409811171614 L 434.24591511534857 386.74164545176325 L 528.2498782014044 390.5319974018746 L 602.3048911395092 445.66417319334585 L 630.3582831706149 531.1885482566584 L 603.2499897496093 614.95504220366 L 532.0790113892441 665.4316266386496 L 444.122835525803 663.2956597147548 L 372.8098051785845 608.5371781558753 L 345.4305007606136 520.4630410124788 L 373.10531956367987 430.60040165288314 L 446.6960797178514 371.10812674961034 L 540.1645061595361 362.9560187812608 L 620.1430501349166 408.21705187374505 L 658.1998965318504 489.30592455379156 L 641.2896544181103 575.4438301486881 L 576.548152483992 633.9730537671944 L 488.66881660202205 642.3622527095083 L 410.82504955343853 596.4893882077471 L 372.4754637828263 512.1575778574793 L 388.5346528687347 419.2866548134392 L 453.8902277939217 350.9155632956984 L 545.2816058424636 331.0582092580356 L 629.8499267280506 365.8768444982278 L 677.2162249360764 441.4175674101559 L 670.6480324060194 528.7403492579745 L 613.2096703724056 594.5578346159753 L 526.6354393498042 613.4721894012858 L 443.33991259843174 577.3118421807312 L 394.5022766494537 498.13601724599505 L 398.60480700073884 403.80262001667563 L 454.63863113100876 327.7286792784321 L 542.4742786602264 296.6073139692337 L 630.2608079753326 320.59635518814537 L 686.1336579366805 389.58519614771416 L 689.9275251736196 476.9121415559803 L 640.5887201047436 549.1657921794178 L 556.5622872590382 578.4675644156275 L 469.0115881183045 552.7204020702904 L 410.362766184787 480.0563467511863 L 402.38504467919654 385.84808002578234 L 448.1884309588738 303.38296673722755 L 531.080398704242 261.62773572485446 L 620.7018211535458 274.5813893840428 L 684.1866422673119 336.1301150443667 L 698.2430923873044 422.2954853858361 L 657.71550357675 500.0495294027167 L 577.4794793220642 539.4563336195758 L 486.9737714780961 524.6770310427701 L 419.37889668056954 459.7928436463907 L 399.42033425023743 367.30568051548266 L 434.279738917778 279.86745761665117 L 510.9551237466799 228.27836542459636 L 601.0403859104264 230.16581142100654 L 671.1672651123706 283.50555459626054 L 695.2713657574077 367.366603414367 L 664.1733647515656 449.6060590447917 L 588.9534401038977 498.68534908920725 L 496.8785109936316 495.2643114257269 L 421.37939863055055 439.3112480691576 L 389.7622121476973 350.11535753095245 L 413.1711419947912 259.196975184661 L 482.49224639755073 198.72175223476128 L 571.7039614977956 189.67761511259067 L 647.4427179758061 234.16054688101468 L 681.2674304115246 314.60486668530086 L 660.1145445915402 400.2409490646669 L 591.1004623769177 458.40658387708584 L 498.90601626029314 466.55402351403467 L 416.70443670122717 420.5390357761715 L 373.96760856617846 336.144981641643 L 385.63292548370356 243.28168040157345 L 446.61290750957164 174.99150608424074 L 533.6657963613773 155.30397358395493 L 613.9395141567022 190.40335761307097 L 657.0483039399633 266.356046907473 L 646.2427886217625 354.23303719856284 L 584.5674360806738 420.74458081084595 L 493.742002006867 440.47779218454855 L 406.17812157185307 405.23877663193974 L 353.06567776294315 327.0652005318859 L 352.9082885167619 233.8019092530499 L 404.7221627961788 158.86595502414679 L 488.39836379796066 128.96331695907026 L 572.0953142537757 154.27253476181662 L 623.9441258176969 224.7036626456643 L 623.7639796731573 313.6077176342163 L 570.4810907478715 387.5730625465835 L 482.52411145333144 418.7076622285038 L 391.0506277167062 394.892367238675 L 328.4946252477429 324.23621103691755 L 316.64477269730384 232.0959937579605 L 358.6358358040164 151.75572619725878 L 437.79710529766356 112.19208527698146 L 523.7811455309852 127.42318791965795 L 583.7199912085719 191.35597683589498 L 594.3078754495018 280.0262720886844 L 550.3689879357541 360.4080657003152 L 466.76083282009046 402.55384267035345 L 372.9135288909974 390.6032568146132 L 302.01235504611594 328.6134723077593 L 278.79993835046855 239.06799034643396 L 310.4818887744394 154.61210254700396 L 384.07888596370475 106.05294302384505 L 471.1985663417428 111.03521060880053 L 538.4731078197825 167.5552624953413 L 559.8257505502481 254.6977393335342 L 526.0571919259975 340.3239450386843 L 448.22798384341115 392.88580286945813 L 353.59359330789664 393.02268508513174 L 275.586360583646 340.67822719795913 L 241.52689533006549 255.12105070668025 L 262.5820890853633 167.86177682081606 L 329.6610867485889 111.06997242953236 L 416.75782006692407 105.74885349885568 L 490.5114177683463 154.01461725870882 L 522.4701721565281 238.31845039368193 L 499.55093925575636 327.8971959992972 L 428.8491917862927 390.0814729544505 L 335.0315928160614 402.30448610707964 L 251.2695557802248 360.3971981191317 L 207.0465311408954 280.12063346103315 L 217.32094958097105 191.3720536824433 L 277.0284246263572 127.19476128968205 L 362.9441544659585 111.63142836724359 L 442.2209205508139 150.88595586485877 L 484.4641919831952 231.04268374222218 L 472.9056368396083 323.181349726903 L 410.56775897435864 394.0075846210056 L 319.1535955084136 418.09127110409503 L 231.0696116447581 387.2140570150863 L 177.51410357579692 313.38996259010605 L 177.00970364369377 224.44873417943148 L 228.59533397922485 153.8054636335723 L 312.18018402600603 128.1770683479075 L 395.92959261580586 157.76094228616265 L 447.9678512021834 232.48601668825228 L 448.09608396618495 325.7143066857756 L 395.2178183947849 404.0322892964128 L 307.7426738280923 439.5328917322414 L 216.8197753563409 420.07334329857326 L 154.8882281127282 353.7381982760221 L 143.75339295952307 265.86696355749837 L 186.57201566356383 189.73894838897414 L 266.6924027245533 154.33950095680257 L 353.77598431491737 173.70465218530302 L 414.95003321538275 241.7609790020275 L 426.891901520474 334.5575067096514 L 384.4027194482361 419.0692238680339 L 302.3189423558187 465.336118182004 L 210.05907839121812 457.4755347705846 L 140.810169741562 399.51981461968865 L 119.32897820436858 313.93335090617893 L 152.84204789217583 233.35418020046487 L 228.38969888174992 188.59582482891096 L 317.5902753059728 197.31980029537945 L 387.07335344800396 257.5426712996036 L 410.746757344651 348.3644038663513 L 379.3881384778274 437.65027842208036 L 304.03534201990647 493.8425629951583 L 211.92929168785776 497.5600835113802 L 136.50075160311758 448.72179525324725 L 105.08174013076268 366.57579596520026 L 128.85876788438588 282.62311612390556 L 198.76099796088937 229.03743709230727 L 288.7948031147088 226.8375437699409 L 365.59896690695933 278.1602109006808 L 400.70812380552064 365.4739401361843 L 381.01650925450963 458.02257143621574 L 313.5956404062582 523.1301564326027 L 223.09499188510276 538.2115257643927 L 142.68115443629648 499.0735757170894 L 101.84615916519414 421.45579729975987 L 115.56651629703032 335.2437637974375 L 178.79800704535714 273.48264656652236 L 268.32989294293975 260.2292910977693 L 351.31695217424345 301.70832003873636 L 397.35304407446154 384.02319964895185 L 389.64806947815634 478.2636613112568 L 331.19977812632544 551.1320369582613 L 243.6917229940496 577.1823647974504 L 159.52246354961616 548.1732820320847 L 109.89601030010226 476.0966668951229 L 113.35135482394026 388.7687292543597 L 168.9475256701933 319.6042252165652 L 256.6092816170591 295.3327017874771 L 344.5063687134086 326.1721686510836 L 400.75379356267985 402.07226630337277 L 405.132199096006 496.4079081905728 L 356.52003960868376 575.7656481159534 L 273.30555537557103 612.2253938578729 L 186.62710890755892 593.6228213993166 L 128.92667386523874 528.0201202248941 L 122.02411004978745 440.7416648906993 L 169.0960125779005 365.0642734447071 L 253.50763745021683 329.98422935326096 L 344.9272772699372 349.55779869258765 L 410.4754985312536 417.7335718295181 L 426.8108826563339 510.5762141494827 L 388.70966271591254 595.0641957376422 L 310.98545979542627 641.2275351196539 L 223.04344169207107 633.1638334280706 L 158.0707458983032 574.8832055605923 L 140.83666923544888 488.83356526693217 L 178.5871636279434 407.64835631594343 L 258.38073876210876 362.150188980767 L 351.84506988157443 370.02013617347166 L 425.60582535959674 429.29775312850546 L 453.55417237142444 519.1011545488791 L 426.4435376716799 607.3024557537493 L 355.28794199479023 662.3371559057839 L 267.31271167834313 664.8064419255583 L 195.94604942112977 614.6075121633771 L 168.5304719993753 530.9708780947832 L 196.27127891183477 445.3909325706113 L 270.11690373517985 390.04844363022767 L 364.0854939250846 385.9807599778625 L 444.8148990430155 435.3482531083056 L 483.8255791475232 520.6397817718674 L 467.98870034900904 611.1092430508726 L 404.351441380902 674.0771927265423 L 317.54577288782485 686.9431624496751 L 240.73321901122614 645.4930555402796 L 203.41422489263053 565.4478985879427 L 220.58329602643357 476.68464205620967 L 287.21638192523335 412.25339113070424 L 380.1168921187733 396.22823288642206 L 466.4417662932276 434.8575852051114 L 515.773493317109 514.2671187221254 L 511.30051539070655 605.5596369028393 L 455.996203069554 675.4372449039045 L 371.5250667026877 698.4411947982762 L 290.27827148841595 666.310151636115 L 243.46612876095824 591.0168670577323 L 249.64465574771276 500.36700696681135 L 307.89373642289627 427.7779641846087 L 398.1545298883718 399.9948715057579 L 488.60209852929063 427.2592969082717 L 547.3431454791253 499.5445190370337 L 554.1388801452658 590.2412614150801 L 507.84379369172876 665.939043053971 L 426.82591886414474 698.7076100543013 L 342.21409096713387 676.3639057736586 L 286.454455849873 606.9505348016189 L 281.38274883043607 515.7794781247158 L 330.1968666792708 436.12776279867313 L 416.28054258194663 397.005273134008 L 509.3105309300461 412.4911445124896 L 576.4023569343531 476.55858423544487 L 594.197555491791 565.290468020485 L 557.4492408769136 645.6712789288185 L 480.9500305112911 687.7235519160743 L 394.0936360701514 675.5275773845997 L 330.069231970669 613.0736209201438 L 313.66065343486525 522.7954363722262 L 352.1353282564344 437.32413933014783 L 432.57208842739783 387.4936418095528 L 526.6101341853023 391.00674090680974 L 600.8734749984553 445.9281037885659 L 629.2389183726541 531.3960682430616 L 602.4380059657524 615.2916071575867 L 531.4633131821034 666.0454151821812 L 443.5269879647442 664.2429398051802 L 372.0571335327674 609.7614528485104 L 344.40927406808214 521.8156396270435 L 371.81005704540803 431.8949473258481 L 445.2297960324697 372.1888587065811 L 538.7010700251437 363.75485479755974 L 618.8634928069469 408.77841540141196 L 657.22608242857 489.77021040812895 L 640.6396958354788 575.9955867419897 L 576.1299574184546 634.7729297559042 L 488.3141413165656 643.487723977303 L 410.35153835347904 597.9060535391142 L 371.75387062702396 513.731574886569 L 387.5365346487215 420.83363239729084 L 452.6985775558409 352.26820865693855 L 544.0605171679622 332.1275076763609 L 628.7844402674305 366.6845531950978 L 676.4444688596153 442.0879666711231 L 670.2106012300219 529.4543031571234 L 613.0348499479292 595.4860483563871 L 526.565709085485 614.7121974215881 L 443.18998285639066 578.8518897849433 L 394.12732721439136 499.85911270022314 L 397.9538427061679 405.52926776337614 L 453.77334152587497 329.2825860916153 L 541.5464690059065 297.8799152316914 L 629.4566976681939 321.5864421882494 L 685.6055216863094 390.3990779322413 L 689.7378049617259 477.7242820129496 L 640.6871518066442 550.1543919740812 L 556.8044499246182 579.7487674464683 L 469.21205732238326 554.3053117273108 L 410.363332719435 481.8466525841412 L 402.1129219828179 387.6719025967147 L 447.68305472994757 305.0577445916123 L 530.4789673798326 263.027037983635 L 620.1888924181882 275.6810944342661 L 683.9263134393411 337.01698064130255 L 698.3186945407082 423.1349600554601 L 658.0989772819296 501.0246375591756 L 578.0416891996081 540.7000998524619 L 487.5319680279001 526.2232839696212 L 419.7638788584939 461.5634835696537 L 399.5386244437371 369.1390913508459 L 434.1479153849252 281.5776193139797 L 510.6936902400803 229.72293786807236 L 600.8294319804469 231.29816296672834 L 671.1802159840947 284.3916102101946 L 695.611174754031 368.1603193650349 L 664.8346033836546 450.49253960720756 L 589.8242212015955 499.8125152176209 L 497.7815379999555 496.68823954361767 L 422.13705175618946 440.97527211166386 L 390.26174636498035 351.870616313562 L 413.4060307352926 260.8568522409323 L 482.56447344946866 200.13019670599445 L 571.7864186864949 190.76622972022935 L 647.7155309671684 234.97345812889245 L 681.8516187656805 315.28223539753515 L 661.0274021041823 400.9671827975202 L 592.2490595694574 459.34228801156837 L 500.1212135293088 467.7767053465783 L 417.8029052921007 422.0143584002151 L 374.8190611191324 337.73913458645006 L 386.2078429112033 244.810319844846 L 446.9932183414618 176.2872748135252 L 534.0145830302708 156.27778113069394 L 614.440882025546 191.07689468327916 L 657.8395167801852 266.8535822446911 L 647.363617036464 354.73551241533676 L 585.9453380491976 421.4228776468801 L 495.21858316913995 441.42970267326103 L 407.56714881644103 406.452845498427 L 354.22132098037923 328.4247311541211 L 353.7785056029153 235.12766075762912 L 405.3676041952933 159.9818355699739 L 488.96984758745083 129.76092507755033 L 572.7781518623784 154.75082405609206 L 624.8897638779043 224.96914957978439 L 625.0340859854234 313.8351561356206" stroke-opacity="1" stroke-linecap="round" stroke-miterlimit="10"/></g></svg>