<svg version="1.1" xmlns="http://www.w3.org/2000/svg" xmlns:xlink="http://www.w3.org/1999/xlink" width="800" height="800" viewBox="0 0 800 800"><defs/><g/><g transform="scale(1,1) scale(1,1)"><g transform="scale(1,1)"><rect fill="rgb(0,0,0)" stroke="none" x="0" y="0" width="800" height="800" fill-opacity="1"/></g><path fill="none" stroke="rgb(255,255,255)" paint-order="fill stroke markers" d=" M 400 400 L 157.2421336536357 333.7525761668028 L 163.97047675252225 260.8118339128275 L 367.40505022088894 366.49100625463467 L 507.97368873010817 595.2416207917599 L 468.5115406913424 681.4797132707945 L 397.4465170452022 492.31668619530103 L 454.8184374150056 218.9860972716016 L 558.5738195389885 147.33445938425928 L 499.85144178652604 308.10659903432065 L 266.30316436993246 469.1815139818831 L 107.02777649469209 462.7824934158708 L 224.5342751048374 390.28579099428686 L 502.706502748439 434.2313512624726 L 644.2897024046961 562.9020802551881 L 538.8485769737672 559.5075972560207 L 372.4568011304016 342.96048964334256 L 348.8398653948423 124.25653450502693 L 420.0570974120111 158.78356742214945 L 394.22379547840995 415.8551246794885 L 249.58122130283428 612.5909017385868 L 194.06594087694208 569.485067216733 L 372.6301638711086 412.29505820403585 L 631.2020619911175 363.68528761663237 L 683.1138097938137 431.44411342342437 L 470.8023330232294 428.0350055971361 L 238.4458548823802 278.8527483484695 L 218.26815123339736 166.30452970047554 L 353.70492490456706 288.81678859500505 L 421.07221077552504 563.5414893840228 L 358.65334757194876 697.1313003026004 L 336.3042802594616 548.7131385341761 L 476.9996834937332 303.0249974440784 L 639.0971572673217 224.4568713889181 L 585.9151252169158 328.55293303822174 L 320.6670257557623 407.9991385582615 L 117.93022217773989 352.76533522757944 L 189.621103525223 302.92288086307974 L 425.79928031975123 421.67467524246064 L 552.7935932326753 620.650420008192 L 486.0429759233342 643.825007459931 L 400.95821504348083 413.13227851440286 L 446.97984685270274 160.33793542732087 L 523.9050332246493 149.90040519340658 L 439.65666737613657 355.3633316409217 L 220.6862808303571 516.9689906129587 L 121.26183451351949 489.77720413092976 L 295.316187396233 404.7332894916066 L 574.3736610514934 439.2174846899046 L 664.5165401433043 540.2864565759413 L 507.38081385494115 500.8490352962873 L 327.30480808043865 281.52361776312426 L 316.3291040301988 113.28351086526692 L 396.7351882341286 213.79194542832875 L 376.3841022290129 492.92259533372345 L 256.7776795511501 652.9008527342478 L 244.58389779645373 556.5719765063789 L 443.6791180783879 374.8344687669955 L 666.5049773301716 330.16257494614695 L 649.581799844952 402.5262641879868 L 396.42910393221473 398.9865761930785 L 182.83775234622917 268.95768484227597 L 211.99571008051365 202.7682610806573 L 379.5355427811566 362.0945657038717 L 451.12549937767153 619.7032655487548 L 389.09664453727333 688.5049852882704 L 373.39921583478144 484.73602773847506 L 503.704514032041 238.41684860394193 L 621.2222527153031 200.50644415907152 L 518.1819107662475 340.35532660332325 L 249.35976142637153 430.6901069924924 L 100.85480280938299 380.39966686533654 L 236.70961180872348 343.7338256932244 L 492.31245606529103 462.91667077001955 L 591.0128458270132 623.9710601818613 L 488.89723943490003 588.9589862290975 L 388.4511812742923 334.03858559400965 L 426.18722731634176 119.47372057063575 L 484.3737833044373 175.4937822313143 L 387.9441587077984 416.6782220646893 L 195.83543270494962 564.5910925666162 L 157.1929358988649 506.13333773158456 L 373.96965530148265 403.81901370627395 L 634.6205744805019 428.4650261159885 L 662.6745788422741 507.09707402690555 L 457.6032578566099 444.11379631901065 L 276.00523318523636 237.17627991380698 L 289.2096145003297 126.14490369642675 L 386.2202553542735 283.78652628392257 L 375.16513217048595 566.1358091633477 L 279.12018298707574 674.5124233651418 L 300.0989433280929 523.2352866670672 L 503.2881076989192 325.76390224830675 L 678.4395784494974 296.2179047959915 L 595.5786673482534 382.27754848561267 L 317.9799812411217 385.4102074637721 L 140.54930256112402 277.07893413560816 L 225.92096436786989 250.72001315630925 L 420.9691072919013 430.94624934793285 L 487.2764177990996 655.5332233928908 L 416.08600776059194 656.1546662704227 L 398.08680214562065 409.26231451966936 L 511.5953355224121 180.3642086725526 L 586.5511713767111 194.2544699839078 L 447.2661596414006 369.84511699704956 L 193.09656342092896 464.33634193028695 L 108.16865944778885 410.2365859505798 L 301.39423976040246 376.7721204986957 L 559.6493348518975 486.75176050102016 L 615.9824943226686 606.9986348948257 L 474.09864153634373 523.5518810246606 L 361.5262840093876 263.0208823804837 L 397.78451102460286 101.00699547477814 L 446.9486047269244 222.80166826884349 L 350.1512201713774 485.9812455035018 L 192.53329562546995 604.8211024590073 L 209.94813560381124 506.95013529826605 L 452.43544486285106 386.8250289241922 L 676.8947548266012 405.60602558939866 L 637.4164531211235 469.9831847958856 L 393.68338571486834 396.10060867627476 L 225.52517400428022 213.21227411421316 L 273.71989665330807 160.32503583319274 L 391.45895424798306 361.5367789853456 L 389.083670099173 627.7417532439401 L 311.0622098379037 673.5871741067052 L 353.2241473675702 471.2842718855951 L 546.006231243051 270.990113287908 L 666.8682369670945 268.6875593493392 L 526.6956985327174 375.5210334554471 L 243.5371450037523 388.1568062811993 L 117.46074937216787 299.4327465389933 L 260.7763437867492 303.03225560483133 L 473.8312544246689 488.3665263570224 L 522.8966036217715 668.2429121887574 L 433.4949065674051 603.4054520449724 L 407.27087786190435 329.79759113574266 L 502.23416180267765 136.11208264964864 L 541.1273524492755 208.86731818895757 L 380.9435682738658 415.04702641835223 L 157.0149088230506 503.29464382778065 L 139.1854074689541 435.57234060847924 L 377.583920352895 397.049881078501 L 620.0270665185168 492.31702449597753 L 622.4869705130722 573.9859255471022 L 441.2146045556303 455.27279793278313 L 324.183339354599 206.99773478276117 L 368.25837663235836 106.96622607300759 L 417.93134792244945 287.8233450120649 L 329.48787464731106 555.8339363669274 L 208.82402493519714 631.0100757265864 L 272.8354087043033 489.45883680347447 L 522.7845354975068 355.6449876540315 L 696.6817045563141 376.14094258021044 L 590.2145272839864 435.8253793694764 L 321.87812517011537 362.01495800244226 L 183.17213820993868 210.2190910235704 L 274.62278746376455 210.87382256111755 L 412.877707130591 438.9899834445954 L 414.279178772263 671.2477167641025 L 345.9517528406868 648.9175000073403 L 397.34499951312915 405.0970114808924 L 568.7462051802302 217.6352656123947 L 634.4274189617489 253.75715755707762 L 450.20635543548536 384.94397790033867 L 180.84216547440974 405.4671586289705 L 117.30889179303222 330.38101003884253 L 314.54171594379545 352.4362550041305 L 532.0008613203613 529.0987373202473 L 551.1105599141617 657.8425985475526 L 436.69999927978023 535.9343275681255 L 400.3946867547774 254.46384897776878 L 479.573831982197 111.4915923323851 L 492.03688720958223 244.89057977629 L 326.0588781802757 471.53495558626264 L 143.74752067158084 540.8081536071093 L 190.463622355705 450.39917187104334 L 457.68568937180146 401.75216043722423 L 666.1887649235734 481.4016256479686 L 607.5004108540832 531.0137385308869 L 392.4829147425178 391.7873421692963 L 282.27082990223244 170.96266446972172 L 344.2874571832177 136.53413701294267 L 402.0710827400954 364.34276576301494 L 326.55714212634615 618.3791936334665 L 240.34532111069714 638.0188973712469 L 338.23483672227024 453.4717605728591 L 578.2129986799323 314.5398504305289 L 692.0805496534522 346.6277230402792 L 525.217031142913 410.753778001094 L 249.7564329728677 344.80255038860963 L 155.59363249500439 226.0736206568993 L 294.4868230772827 271.08450426511445 L 448.29302117011383 508.2890489975132 L 445.0910795834586 692.2460722666181 L 376.99557614894053 602.1273998473187 L 427.4965202503705 331.1040494033466 L 571.1252012079461 173.08321465920224 L 586.1413462962482 256.0566965607795 L 374.1418128723759 410.6847821744326 L 136.3163524408178 433.24874536280845 L 141.16508624537232 363.2665873791302 L 382.6410062740803 392.5091454284089 L 588.207581823834 550.273790972621 L 565.7823449959304 627.0909775102449 L 423.2696478128101 461.04472461216164 L 379.4966817338762 190.97690395344964 L 449.34822365607033 110.13687306553493 L 446.42493126705 300.10406824604223 L 287.6616401107867 532.9819810670595 L 153.13038787314633 569.9608984165931 L 256.25027203395507 450.2896174310995 L 533.5533838813328 390.61913719965264 L 692.3577946468072 458.1333112805463 L 570.6559726860035 485.1240340007357 L 332.57201435964635 339.76679910985666 L 242.67353975745957 157.38286730524356 L 331.76449426051585 186.15839900289922 L 401.89944923778717 444.695086387086 L 339.3355857261339 666.3573568339481 L 280.9785868266247 622.9574523498736 L 398.6025875204789 401.47985698450515 L 613.8841674821281 269.5612285593266 L 664.0388157005018 323.7234310815982 L 448.75109498400474 399.2774851425252 L 185.23774783394498 344.79858047633917 L 147.85346083398193 256.3003544744088 L 333.2632831336088 333.3956783817475 L 493.1861815254276 562.7595181851307 L 474.88689002198146 688.967742760808 L 398.2352644988863 537.5015957749906 L 441.00540491771847 256.99128896161744 L 555.4403950540398 143.9776226164716 L 528.7255030872816 277.9614703252148 L 306.2718360406802 450.2743431926349 L 114.25180079958625 465.6779379386047 L 187.26084971347657 391.3822117713424 L 458.48393624611435 418.53397248419645 L 634.9967771777899 551.7229612782683 L 562.4098028689967 581.0843920524757 L 393.34880243032546 386.73176393957755 L 348.9038977169529 145.67435965352516 L 418.22244742481746 132.98570273651194 L 410.51649444629044 369.746646118272 L 268.3914272371611 591.9776349704443 L 182.28029728982085 584.6638504620568 L 329.22419279011376 433.06291045055525 L 597.511728043429 365.9705652251614 L 695.0046715845415 428.346004355762 L 514.363068982768 443.3341687526191 L 268.00492478963326 304.0413764008914 L 212.3484148950548 165.93408956058022 L 334.9255990404665 250.01871602837596 L 417.377843870694 520.7258422637261 L 363.51499595957176 694.0526554961784 L 323.7276747033179 585.6298418517424 L 447.4528599969459 338.3835214436451 L 627.5065746288368 227.72023311997333 L 616.2152732299596 313.2098764436795 L 368.53798355378 403.64404084267284 L 135.574411727293 359.7388204671674 L 162.71016884873563 294.74170051841526 L 388.2181718066836 390.395959720467 L 541.3058068259489 597.7346067724288 L 497.02761424467224 662.4908188583764 L 405.40163570581683 461.46470071346187 L 437.81131335503824 190.72771319269825 L 526.2846845100996 135.30729539531512 L 469.6745243878547 319.19533303722284 L 253.1267276716391 498.94086331220524 L 116.28069335467728 496.0448745023608 L 251.18544918161845 408.9401600795404 L 534.2819038961292 428.1168116270851 L 665.7320536923867 535.9244538228336 L 538.8037542823839 526.5420996266706 L 349.68669648893564 320.6629026792855 L 314.6051760524228 122.72335323310989 L 392.8198849320718 178.13152215862354 L 388.7742074586685 447.08264949204795 L 268.19359294182885 641.0031853137972 L 226.0298425030263 580.5379046114474 L 401.44018593268635 399.14156903999503 L 643.3197065397629 332.3694849932 L 673.3234190812757 398.71598365983294 L 443.55477754578254 411.66631635730886 L 206.32303164708523 287.01028621350116 L 197.33978251617512 193.60552629374317 L 355.7062937627988 320.7876131045423 L 445.90438082222687 584.8154316547657 L 393.15714744765296 698.0432214331021 L 361.70610805175437 528.6239853242597 L 480.18627266185615 270.89110378559894 L 619.5717675319847 196.01443045413126 L 554.4896288174923 319.13691367651865 L 292.7244997290522 423.5162392853842 L 106.41396371319416 385.1294368971117 L 200.19611318258507 334.44805135412275 L 454.23043100254944 435.79610544241064 L 585.517138848948 611.1090601130545 L 505.83808377968944 616.5770202338095 L 396.53076065769824 381.77910949119155 L 420.4250559676957 139.54732986840122 L 489.8565527123085 149.7027167541999 L 416.2577508460063 376.79201863163837 L 219.19036587344794 550.2377744828952 L 141.19311971462253 517.7253024949708 L 326.42997046825667 411.90998708353794 L 602.02996078703 421.4782122884177 L 675.500182007549 507.5931138247587 L 495.4584404604048 470.8848259675193 L 297.30227356025375 269.2098913238651 L 283.3900575896289 123.61323759312438 L 378.7594851914264 241.04742856857285 L 383.3068123788573 524.2356106448514 L 284.4019007740674 673.4339744855683 L 277.65988984202295 555.5728531546554 L 465.3475440880793 351.5482779866605 L 666.9452405453737 295.9712479750771 L 629.3530790530555 375.78542139468084 L 365.09746310822317 394.3237429907415 L 155.10135612311012 288.3865404474509 L 201.90815823031022 235.15884973529705 L 393.4133048583568 390.5829315705969 L 482.67963918021894 630.8327725595091 L 421.5711690011461 677.6540309802343 L 389.09829720274087 457.0317234080341 L 494.65420772747916 206.66460857956073 L 593.2219239479548 180.4450090059413 L 486.1851467813336 343.20121809116563 L 228.85922004273928 456.0105011798106 L 101.06671690598915 414.9237956473054 L 257.55535283172946 368.66578742181673 L 524.4181375038746 465.2381809806439 L 618.783267776841 603.5492176607146 L 497.4491618198887 557.1585876046862 L 372.2573090753403 306.5680440032024 L 393.53073619373924 109.02113359653697 L 453.0592252513618 187.03959085085006 L 374.55783331313216 445.42189007940686 L 206.37115138310836 596.9104741138965 L 185.12692295621147 525.1463269830315 L 405.2058774438636 398.6096360696465 L 654.5242954018709 401.3805244442022 L 661.7959863104231 472.97080742198904 L 435.56109052366844 421.23140009613246 L 242.8314752511993 236.66081795609946 L 261.8710772136487 147.00011827604146 L 379.8352181591448 315.1528510639503 L 393.6079156172585 593.1788748152495 L 312.17474017598477 684.4338680988486 L 329.8296371087239 510.4714809006915 L 514.747046724587 295.5419559673347 L 667.0485141598467 263.6467208474576 L 567.7276151879618 365.007221935391 L 286.9401668495259 393.125438807002 L 120.94729752399013 305.308963293774 L 227.89180891889126 283.8779133146325 L 444.7583086245058 451.98449326221373 L 521.3814125678449 654.891522006344 L 442.2929445030487 635.0518890661738 L 401.964101671099 377.8352372467794" stroke-opacity="1" stroke-linecap="round" stroke-miterlimit="10"/></g></svg>