<svg version="1.1" xmlns="http://www.w3.org/2000/svg" xmlns:xlink="http://www.w3.org/1999/xlink" width="800" height="800" viewBox="0 0 800 800"><defs/><g/><g transform="scale(1,1) scale(1,1)"><g transform="scale(1,1)"><rect fill="rgb(0,0,0)" stroke="none" x="0" y="0" width="800" height="800" fill-opacity="1"/></g><path fill="none" stroke="rgb(255,255,255)" paint-order="fill stroke markers" d=" M 400 400 L 504.9491551910796 523.8795181099007 L 355.1290623298362 669.3420816915784 L 145.04143564446704 552.0614642391909 L 186.01239704973915 326.6663551322283 L 369.57017663479246 322.16931549423435 L 359.2906351648838 475.3692474977199 L 177.2571563984597 446.92276582667364 L 165.29680081867556 217.7274841009543 L 388.42525550925006 128.1029512787244 L 517.952636639568 291.1241299420063 L 397.83485670546514 399.7333606546673 L 309.9757816328321 262.6911389496513 L 477.7097884657629 137.3023161299986 L 671.3378335283992 280.371769249776 L 602.1257798137194 498.3096103339691 L 420.1693746095588 478.93440612818415 L 450.8259755855981 328.4692500092305 L 628.2177920196957 380.53411422256903 L 610.8711197792388 609.7984168686642 L 378.3285824926338 670.3508912798947 L 271.1244374201356 492.56487627472467 L 404.2325253193054 401.05853246052277 L 473.37132129986514 548.91665950706 L 290.41233152134316 652.0384851023297 L 116.39864784201478 485.46871038467543 L 212.62320009260668 278.51143912122075 L 389.89732731416535 321.2767588459879 L 339.40655418254175 466.32046238377177 L 169.71227247610065 391.3729208850398 L 216.1830523689268 165.78368770419254 L 454.3642650552118 135.2453667057564 L 537.5951126871121 324.7714682321847 L 393.89315637582064 397.6482134325727 L 344.7841368156737 241.5201634805263 L 540.0125193422646 162.4987110677217 L 691.5727483698806 349.8959585001032 L 570.0018495932959 542.5405274759103 L 400.3940369727223 477.26196659945475 L 469.82472469301086 340.23103093240053 L 628.8794496568676 436.93141528275856 L 553.9451925262391 655.1500415305635 L 313.98767128997065 655.2208258957401 L 255.97399607514728 457.159022190073 L 407.69766122550027 404.1071832982049 L 435.8120819776671 565.803599470448 L 231.48845605395312 619.2833353866217 L 104.8584971878854 414.0725488958918 L 249.70069161777747 238.82757129635104 L 408.8052455350762 325.36459470534595 L 321.6646310655764 451.93241134822637 L 176.0269809321608 334.9858787302146 L 278.295880841415 127.72399302677485 L 516.1434443800587 158.07859038709358 L 548.1211102760049 361.346198895238 L 391.0782900714031 393.7289297390014 L 384.560543340673 229.27483269639023 L 594.6386424100822 202.3603892479098 L 694.2644949676553 422.07856130096945 L 528.5996484063384 577.132190776174 L 382.6406944050398 470.94619929989705 L 485.94703267039466 357.1077393255391 L 615.6026720734847 492.440619485359 L 487.5789259917435 685.3282389377514 L 255.68810288458843 625.0846683657313 L 250.12855488408815 420.01067241405127 L 409.705041197264 408.77658382744494 L 394.39862856200955 573.1170343416396 L 182.01852541600428 572.8792412675972 L 111.03349593661272 342.1983748440064 L 294.7401122570957 209.78782623624917 L 425.1497267972602 333.6876927797623 L 307.5090653165534 432.7546164589477 L 196.14311417738242 281.2184351177094 L 347.91565840772955 105.89742364775555 L 570.1051075914412 195.00867145604553 L 549.3055172796435 398.4770404665129 L 390.015021569392 388.4548216788243 L 426.9930978766779 227.11029117402558 L 638.1680361232538 254.63897766636464 L 679.3396591290324 492.5569315131732 L 480.65769073601336 600.251857172762 L 367.9228005512256 460.8642778263183 L 497.8112385268528 378.3509685670616 L 588.8775844595401 543.6196426783176 L 415.75675291502677 698.4598968602684 L 206.85024043130366 581.9698696000457 L 253.511917788133 383.4748402073704 L 409.7118284008711 414.4884305130492 L 351.59339333882605 569.9938722282467 L 145.1273577012535 515.4881487700197 L 134.45815077664923 274.1790111902102 L 344.8147868455794 192.8602495815248 L 438.06276992259353 345.25764430922004 L 298.23171852896803 409.7268761980162 L 229.14150957793512 233.4437535978054 L 420.8540124817484 101.67165530455986 L 613.1172760392859 243.60887539194158 L 541.518319418813 433.8630781259285 L 391.14968566011265 382.4899173473359 L 469.5060989195353 235.578085673957 L 667.8212225107561 316.2977753943496 L 647.7941211037117 557.0945198284758 L 429.2427930998014 610.814506541338 L 356.95132994900035 448.0934768081818 L 504.2415898944113 402.8407367328273 L 550.0426388025887 587.2179284597228 L 342.80687726491277 693.7045203427576 L 170.27143739641272 528.662259945737 L 265.4725233851384 349.76212729351585 L 407.3806986403308 420.5082822944216 L 310.04558214727604 556.208808857578 L 123.20416111554016 450.4766426565882 L 173.6228925952327 214.08993933671294 L 396.7674100212022 188.7347694651843 L 446.9987192242843 358.9317867050628 L 294.86737844829304 384.134559275221 L 273.28091367219577 194.73748191236783 L 492.70926535741415 115.34638777345236 L 642.7579486887286 300.7797675108581 L 525.6760293222152 465.4180461589939 L 394.70043074404725 376.6220270054349 L 509.41848466955156 254.5676949015365 L 681.6383541496418 383.6905654622802 L 601.6265434676235 611.839046680837 L 377.5522735949273 608.5309867100777 L 350.1017000007279 433.81772632424855 L 504.36717908911254 429.1444779757205 L 501.21885973370604 620.3848059491904 L 273.1368743462343 671.30846722094 L 147.96372969266926 468.5248303162595 L 284.84958789837526 320.803162575011 L 402.62027054481473 426.0133866788269 L 272.42524281081876 532.2124217871888 L 117.74681292222942 381.71570059403035 L 226.07205491486604 165.501723406141 L 447.41113650339713 197.3004776460644 L 451.75391602353545 373.50921462855024 L 298.10255583376016 357.5361064696281 L 326.0897990633556 167.67829930670436 L 559.1356878078228 146.13238659894725 L 657.4530519690916 362.94859119550205 L 503.15938396331376 491.3950549660061 L 400.62703365365013 371.68941387975633 L 544.1146211976555 283.2897587330559 L 678.6091078588764 452.7802636216941 L 543.7105323785992 653.5556557959173 L 328.71281520072336 593.9052373682295 L 347.4076511491415 419.2309097344249 L 497.70358754088306 455.6020095003913 L 445.19317818557386 640.8567704281295 L 210.96377077326972 632.5922648800773 L 141.04224015017036 405.2834380730726 L 310.0699042855116 298.1366068649259 L 395.60433041620115 430.17000462516086 L 241.2503754564328 499.12601334051453 L 129.25995927627218 313.34697762402715 L 288.5595034067347 131.2648683327758 L 493.72755514197706 217.67355859015507 L 452.4594375653989 387.82631486483365 L 308.2050826714091 331.66687729805494 L 384.50625684120536 154.17590882291114 L 616.1098834340746 192.19764545324506 L 656.5601131674758 426.29502007630373 L 475.70393098822717 510.484202011599 L 408.6231331999485 368.5010702943578 L 571.2164653536561 320.3034100653058 L 658.7448566304497 519.384110928177 L 477.6137166187115 679.8207464700793 L 285.5887774384886 568.1819510689181 L 348.58148802583355 405.44430412204565 L 484.2105353080077 480.4313639222891 L 385.25732353267017 647.1113348145044 L 160.05534653243137 579.8716557773731 L 149.67054431881502 342.7932127440539 L 339.26780459123165 282.8273092227241 L 386.76787017983366 432.2138782092279 L 218.71835135044066 458.69222306925207 L 157.21384532119112 249.52992394310442 L 357.251959654849 113.34025250426112 L 533.0491042862303 248.27291031762195 L 449.54851627085725 400.84462598251946 L 324.9805205565222 308.3253469362145 L 445.05795124587246 155.3379594022017 L 660.1777662699751 250.7779314961801 L 640.3932040553499 486.98887873820007 L 445.27172972941213 521.8775546798016 L 418.13195647736234 367.7571878574372 L 588.7457300104685 363.5872303866091 L 623.0880468530534 579.4303197168884 L 407.37525243507235 689.1647090782212 L 250.6118583350743 533.2491613155455 L 353.05813447670926 393.405030435926 L 464.3203396034588 501.8486815647992 L 325.0117134370173 638.4770270120168 L 123.49873117666209 516.3171581476452 L 173.06559569240054 284.8004646122314 L 370.41947713677826 275.41897434553266 L 376.77979738259216 431.52714711837126 L 206.55292930113131 413.18335670878287 L 200.0670235477043 194.18537782723277 L 427.9671453776119 112.68536327801974 L 563.2147546950894 286.93752187831666 L 443.70208185019806 411.72461200042517 L 347.75965738064554 289.24914817916533 L 504.07141213549477 171.3850859610612 L 688.6667786056177 318.34495233110925 L 610.1884414258747 541.4248690216835 L 413.9133994842025 525.2983565252257 L 428.3847382195206 369.9764909132931 L 595.2650357700902 410.6504286402168 L 573.6576159284036 629.2102255069282 L 337.25578718013116 681.1550396264976 L 225.64237831372398 491.50302657881866 L 360.05873919764235 383.8313529707259 L 438.9339122191837 518.1941029121386 L 268.14618841541835 615.1917399537416 L 103.51068583916123 445.7607731452211 L 209.561039679229 234.71498016147703 L 401.48214561322067 275.92324170688215 L 366.4940476389673 427.7051995400113 L 205.8774250030603 365.2722463692911 L 255.35209548213965 150.75163516275293 L 496.4317793060364 129.2030258770925 L 582.6897481018149 331.0771370415912 L 435.7774210934056 419.88018480298007 L 375.41928124582597 275.9894472853687 L 557.8978777218784 201.62032890759886 L 699.8501459570475 390.82177827448743 L 568.0130683097138 586.4397330136794 L 383.6301020691709 520.9938190706972 L 438.4591999036203 375.43666520152385 L 589.9881358860354 458.6780776202271 L 513.3332998472437 665.6101428466679 L 271.475545733021 656.4150766411813 L 211.87019944784856 445.6843316691737 L 368.6682076060334 377.16922920275243 L 409.3832429446942 528.0548885650055 L 218.21112053599532 578.4048175089363 L 101.30137696410026 372.46177736198945 L 256.7240998077615 195.4067285543406 L 430.5285948254416 283.84455827424785 L 356.88259064220654 420.60763103099094 L 217.12313160563005 317.8730721222472 L 319.81966966019047 121.96834683908543 L 558.543315541731 161.75537938185977 L 590.6426941707568 377.8457981147686 L 426.7260964903084 425.0104134449742 L 406.4361131561782 269.7925580904778 L 603.1416284064195 244.4558181804155 L 693.052946989211 463.83219568919884 L 516.6246364456094 619.4985927702176 L 356.24473954647164 509.69334495604886 L 447.3538012861665 384.13318661592115 L 572.8510921534308 504.7018220364798 L 445.6855465807046 686.3082695868987 L 213.95684271544295 616.5776469213693 L 209.76056617328243 398.6978180055294 L 377.9201234575003 373.57277399295515 L 377.36167375817155 530.3768868535508 L 178.39326297144606 530.1217825820665 L 117.00011872181602 300.84610092911737 L 311.51792695466554 169.03926903062649 L 455.86815313872586 298.23782061802893 L 348.95533621366775 410.3886347226925 L 239.97999126296682 273.96175738595025 L 389.6320203921302 109.70196895471418 L 610.6191861921494 208.24176827704204 L 586.9762218172841 424.32664189030834 L 417.5079276620246 427.10669570158865 L 438.97141321299546 271.49749189541683 L 636.8763661792137 297.4959929795182 L 668.69340057971 532.9685432505509 L 459.28984774331985 638.8393359525827 L 333.2907182226702 492.53631602103354 L 454.0721298493286 395.7605029839712 L 544.538653740445 545.7855669701519 L 374.76122223454206 689.9240660191265 L 168.0869360745221 564.176969027748 L 219.04714358689552 353.426291626374 L 386.88212057071416 372.9093997380057 L 344.82560280372996 524.5559904635475 L 151.31063311406228 473.0942606208986 L 149.64769856358652 235.23544416873065 L 370.4985677293927 156.9496617759672 L 476.1464561294722 317.79363072077524 L 343.6730993924791 397.5036760923461 L 273.3939042012937 236.387144391353 L 460.5947441683897 114.82398475718423 L 649.6182042583489 265.7352429127511 L 572.3104569256473 467.7158769568431 L 409.0079774920397 426.4355988569502 L 470.98151501965975 281.45731046001833 L 656.8357304705258 357.6730071891003 L 628.2568117399887 594.0614276189775 L 399.57500275591536 643.566719865594 L 315.9251554352005 470.9755201639952 L 457.71085885534205 409.71784172642055 L 506.4629021550409 579.2144029236428 L 304.83814941054817 676.1104269836537 L 136.51575446093767 502.485988489146 L 238.77143854300292 312.55150271713455 L 394.7348930348705 374.78846956555157 L 313.8734022088943 510.50235178915653 L 138.8397286472677 410.6611884546833 L 197.25574776384516 179.58292546339928 L 430.0336983181531 159.58161259717215 L 490.4180219017079 340.94429217874006 L 341.8604814405523 382.69110508186816 L 315.61209741270636 207.68504278832503 L 528.4122397378426 137.1498846705162 L 673.3206323197314 330.6687473369606 L 547.9216532015133 505.49422120347526 L 401.9630951939858 423.4994580717865 L 500.34755208042066 299.49073900587103 L 661.5654785913243 421.42657596249614 L 574.2038180520991 643.4346011094532 L 341.1216039033841 633.6911564221024 L 304.87150079560524 446.6637586413771 L 457.54425858088007 425.1400303246147 L 460.6942953831871 602.6745211182485 L 240.16356578796413 645.5824881700414 L 121.00074574104593 435.30966673550927 L 267.36482028436313 278.3930561143269 L 400.8386744464377 378.6104974207546 L 286.6091337297572 488.6717979124172 L 141.98651500229738 346.550595038663 L 256.9294380158964 137.23163932189522 L 486.52910333713567 176.47512819005064 L 498.1877366687513 365.98247788033405 L 344.12570778991926 366.9292957679588 L 364.274849705353 189.90735050299207 L 588.951245507971 175.44313222942048 L 680.4561054274862 399.0590439933398 L 515.6411371109388 535.5751812791007 L 396.90368752265056 418.97851246153465 L 525.0160649732217 324.86859024685293 L 650.527116327923 484.9175730421957 L 509.81867372372085 678.1292185695761 L 287.4213792107896 610.110701034196 L 300.39435020779405 421.3320813415373 L 453.09832858702055 440.9517636297263 L 409.84837388471635 614.4121689218445 L 184.69270040578354 600.0808427327447 L 122.30805731746403 366.74740871655257 L 302.76670276291316 252.77516276367507 L 404.7821186283351 383.6323797482502 L 264.9999659411196 460.06099629899006 L 160.81000256694992 284.65388666808826 L 325.04583984794715 110.71106299515856 L 536.6486183386352 206.31234930255405 L 499.419627860873 391.1838964841615 L 350.79411265656756 351.3718356400398 L 416.5487878121598 184.47774833514734 L 638.4960604531094 227.4842945343729 L 670.7719375878956 466.7541688141454 L 477.7221607705141 556.4213242225804 L 394.1150885883212 413.65973712353093 L 543.1411398228067 356.3372703363482 L 624.1457070764038 544.2623868634143 L 439.0070411166723 696.0836143307479" stroke-opacity="1" stroke-linecap="round" stroke-miterlimit="10"/></g></svg>