<svg version="1.1" xmlns="http://www.w3.org/2000/svg" xmlns:xlink="http://www.w3.org/1999/xlink" width="800" height="800" viewBox="0 0 800 800"><defs/><g/><g transform="scale(1,1) scale(1,1)"><g transform="scale(1,1)"><rect fill="rgb(0,0,0)" stroke="none" x="0" y="0" width="800" height="800" fill-opacity="1"/></g><path fill="none" stroke="rgb(255,255,255)" paint-order="fill stroke markers" d=" M 400 400 L 260.25789309012555 134.57280604160297 L 394.8696745298556 407.47355670244514 L 102.35628528203057 365.02290330980804 L 406.513030966055 416.91086834917326 L 203.07295110882316 625.1820785780942 L 426.421943959233 406.29681502111345 L 473.99506953688814 689.000930495169 L 426.83112013156415 375.73302529820006 L 679.114843655514 502.1792763165545 L 393.9812049339214 355.24328150232634 L 641.0932939672308 228.5056571927423 L 351.71437005970597 375.5995348334008 L 395.086803206862 105.81063677234556 L 344.75847454659026 430.272308738053 L 156.26494415027952 238.60560326395992 L 392.8094757582175 471.46569644113015 L 131.010675146101 508.7903054484121 L 461.5457909670983 452.03539529382834 L 337.982018074314 680.9570866938933 L 486.11789454304017 376.4114887825711 L 594.6902675178205 608.1666410424839 L 432.1165386052093 307.51426506811856 L 678.8804302961895 357.74428367868154 L 336.87119762937687 314.3171361804492 L 521.5921882243294 149.05946947924082 L 285.20981613652 403.83524479756136 L 263.64797977956573 160.7505980248494 L 333.7185508582624 503.8225997034526 L 129.2942656277305 377.32203885857723 L 451.2883452067999 520.9614478601754 L 230.61037307105337 607.2718156252473 L 536.6793751142774 427.7852840623441 L 473.83625552450195 652.9108107946788 L 505.98428423870996 297.50602958728814 L 646.0646262886999 480.8697683607646 L 374.1797782130262 246.89753128697666 L 602.2016974274101 245.74834315870504 L 252.19175769733715 331.4037491825415 L 387.5110268722953 150.9164113364331 L 253.30980603991347 486.8778132195589 L 191.9655833858365 272.0274013364411 L 388.1132206994102 577.4703132406722 L 181.6704213614473 496.90547736712557 L 545.2514466349778 514.7129862744127 L 357.35208694215885 629.3442043236671 L 583.5120819709337 343.082099475654 L 560.8385797638512 560.8517858020153 L 458.96988714319457 209.92715397133364 L 617.7262486179775 359.5310086843654 L 272.52276549751645 238.55900487769486 L 487.3352246280346 203.27591361428702 L 188.26589648239127 414.1642706643142 L 290.59955223216883 222.12406212061433 L 288.63067488527213 588.0080604631044 L 198.0321695750443 389.8567721049598 L 494.54430607613443 603.7638036671323 L 281.4518380201769 555.3731042951206 L 627.3220809515161 438.3563075334408 L 458.8290794430622 579.0503878986368 L 564.234780726592 230.20029376759405 L 574.057945296244 450.830999860485 L 351.86746499540396 163.13026955767077 L 534.7585818564108 289.8891238019933 L 172.63284370563127 303.5730016583984 L 386.1089945307338 234.01992109108255 L 187.5807282697897 535.5861693293557 L 261.9138550202125 321.2875002377865 L 391.4035750685348 656.6624992477521 L 263.9408857319995 465.9130835346786 L 610.4158830281185 555.0553521618551 L 378.52291705502574 541.666509882331 L 651.0090837409116 312.857835602085 L 498.7766718264373 492.3972339965725 L 471.29482541928724 139.79780536844953 L 524.1168819586123 372.6133407437985 L 223.34826045044653 191.02721024104113 L 444.5640167260065 289.8393219807215 L 124.16541736785655 427.7302326523672 L 339.02482604981407 307.8999098367715 L 265.1493757556206 646.0302319452679 L 298.03759309025094 398.28877268376283 L 527.9084957703085 653.1673952892312 L 345.8528097120509 476.10895661450263 L 683.9085952551646 438.20319874722867 L 429.12739650095057 479.58518775316037 L 593.8920049058564 185.65596912061355 L 473.6365109892033 418.8601489285391 L 332.48663013745863 116.6052750717883 L 450.59589880686855 355.7600215274694 L 126.25349060648335 294.5437968366305 L 393.1953872422873 342.0539146085953 L 156.6774803251376 567.0026896128687 L 356.26715735541137 376.97094726165324 L 399.9756468325202 696.6135353643406 L 364.1953231232772 418.8466916120418 L 645.5344915606906 568.5801791083652 L 396.32557473868945 431.24603105754915 L 678.8314902915137 292.6374720873069 L 416.8845401516932 414.76837604004703 L 469.44745710772736 108.69892536153418 L 412.9641773091564 396.68181889562436 L 198.87201784432702 177.58332798547482 L 401.48542497680904 395.9434167976004 L 102.6731974787927 439.9590679719897 L 402.75066144568433 403.8676571323418 L 264.7369070981274 667.6150506067936 L 413.8058371139083 399.7705653484085 L 543.8802574245738 662.606781979509 L 412.62088584602526 380.94355326354463 L 697.2452454552066 429.9319959563554 L 388.04753733173635 370.4399721325675 L 592.2804830537667 172.61470094429592 L 360.0776380516688 391.1841692341205 L 321.68149284584075 113.97944946436195 L 363.59212314927254 434.04528593358424 L 121.29176155187037 303.190307769016 L 408.79834134246346 458.09973844162073 L 163.881394645494 573.9358548985116 L 460.85448897221 429.4929587317965 L 409.70072327373055 691.0620063764441 L 466.4022834227157 362.16351024036544 L 643.506834230415 555.4854892575661 L 407.1159267857193 315.1412751801871 L 663.6315336020225 288.24425877393605 L 327.36636629607045 340.6313597412243 L 456.500925965107 122.18154460338872 L 301.7227321838486 428.6828816284343 L 205.08238788246135 198.4115752702302 L 365.38099320912755 505.3070359020444 L 126.79233183008785 446.052494816102 L 472.30459958733167 494.7970515389571 L 284.8630595198174 648.038778018645 L 527.3288453068371 393.6262520234379 L 537.3686310716546 631.9856387243276 L 471.0762920925557 284.4784340583914 L 664.9122025766419 417.76539529293495 L 341.7303854935663 268.68855925111404 L 561.8821879716202 195.05674133362234 L 251.00459094790713 372.280764945321 L 324.00983291751936 154.92487731412365 L 287.339781889327 512.6324719529271 L 159.54152490468005 325.3763845172144 L 430.48867886673565 564.1064025118332 L 206.34920432648659 552.8849650957385 L 559.3655095191436 470.76563070712916 L 416.0968903792288 640.9208123623885 L 554.7504666755507 304.84010499512397 L 603.0116454745349 520.2794361223853 L 409.4853876839399 211.43985751522746 L 608.88165305436 303.1019059237604 L 244.3797928234168 281.24308441039017 L 437.3447987754797 178.78342546132723 L 207.57775007514104 463.20505596279924 L 243.15444062055883 248.26988676199568 L 341.35850560645116 600.7417627587403 L 192.33454164561445 442.1803983294993 L 536.3631002605558 566.9151879192322 L 319.79090270954947 589.0834505875533 L 620.9715540382792 381.5249836273922 L 506.88889919976265 567.4903366147126 L 512.800935008673 202.14992266333346 L 591.700776664183 406.4364120160624 L 298.1971744280979 189.81257638270176 L 509.61190554598403 251.27813504318394 L 163.5777431484658 364.13779387689294 L 341.79181999616156 232.28951432437157 L 232.96572023207398 578.5375431377644 L 235.9155940566927 355.0267522180297 L 453.76821825719793 643.7737517556561 L 275.8205726522931 504.9555734799173 L 635.9618256145624 495.4777191222061 L 415.4816386995721 554.1240969554453 L 616.1613591639642 256.9151717468751 L 528.95860841596 470.6967449542062 L 404.44621033180505 136.36544085252314 L 524.1568764516419 337.2846573259024 L 181.74033327810636 244.69367929730757 L 417.48109273974904 270.1692147988223 L 144.71758027566563 493.40709000096354 L 308.94734398449174 317.62170492220986 L 331.61091551166504 666.9233371787587 L 288.6533520776845 426.5165473512337 L 583.6343708270525 610.0517667059335 L 361.87647141006954 498.9380309128039 L 680.2851739017535 367.10942257867094 L 455.16710580385757 480.3924877455671 L 532.8837327841354 147.70016510607823 L 488.8831548989453 400.0145953310547 L 265.94819536541536 145.2795491811012 L 445.391192688956 333.90004282282683 L 111.7251221273898 366.07587461159585 L 374.3448794859908 333.35470488385823 L 207.4618812161389 620.0904837978746 L 339.13139372179126 385.4833749049006 L 472.9536056994251 685.1281526451196 L 360.18081863228673 436.0019321475977 L 677.8825028279975 501.7798858764961 L 405.9553659106572 444.34016989353074 L 642.2805005456016 227.72108144038688 L 431.90852462853604 416.13110312962823 L 395.0666988639939 101.67277378787816 L 423.4497425172847 387.15456768553116 L 150.58130901450883 234.78314107879865 L 401.7744700249694 382.39279753672434 L 122.1345681382067 512.3270791776627 L 393.4037408412745 394.4211735639119 L 335.29315110219926 692.9098095305005 L 400.4109762313688 399.88750224300315 L 604.8571903952692 619.1094230145079 L 403.1148940091728 391.0348159086168 L 696.2977382862977 355.15499881773985 L 389.0010441473928 385.0663067659717 L 530.47274465857 130.8445203321524 L 372.42901195535785 400.91663946352395 L 252.35082670002123 140.82918464737264 L 380.30024639886176 430.84632825426854 L 103.86941894401247 375.14314203177776 L 417.7862637452593 441.967343497517 L 212.78415719612494 629.0079178627309 L 453.42517539628597 410.86983558805673 L 482.38741343547565 682.3733849370003 L 445.5883685849849 355.9274492196057 L 677.6067780777516 491.28668894442217 L 387.9982792398103 328.7637842991867 L 630.6356694016524 224.11709816870948 L 326.5274439675167 365.8874950181918 L 385.64510517744515 112.75886956267539 L 322.815694002509 445.695574126397 L 157.37117859152895 250.6916917760502 L 393.4141714806821 498.0852558756094 L 142.30431670212505 514.3274554729825 L 483.8233328650979 466.22220830444166 L 349.004420878015 673.9844520070623 L 510.08039169426473 365.8774037459517 L 594.5608177113432 594.6407052489285 L 436.6334833766507 281.9907447159333 L 666.9097344504389 350.4345674908833 L 318.3579921987998 296.571196273924 L 508.5770634621152 155.5365602599602 L 260.4582542188199 409.31183836359344 L 262.1169737316887 175.73126347569635 L 324.64771161299603 527.1582984485672 L 141.53017489614894 386.97657883111174 L 465.47951990466936 541.1835054871566 L 245.83582263369652 601.9838354611729 L 561.0269816948362 427.19745719588866 L 477.7349579424004 636.7228154991689 L 518.7913852527095 277.2238421160174 L 634.2023917004324 468.437018837004 L 364.54102244063426 225.35239846412256 L 584.7977895247623 249.05281974861785 L 229.30741823516516 327.57576232371974 L 380.60546672385004 167.8008939827373 L 237.7512189689352 503.52510018515477 L 202.64184090035917 287.4580519850949 L 393.2948795983157 599.2162243281637 L 200.94283610580072 496.39178465833015 L 565.8271499450949 522.2399602776682 L 367.7473759437895 612.5083473809764 L 600.7658655050013 330.337580395287 L 552.2579146954095 542.4713057387289 L 457.85683988011164 188.9779113974184 L 597.1718962782728 356.527545700377 L 254.83048978203783 228.21237121065343 L 473.19874595383203 219.1407145922575 L 170.3460459893568 423.0495050703205 L 296.1684963527962 243.11150640163675 L 286.297123354371 607.3661124103104 L 219.03730308570124 396.93319284177653 L 509.0767089463444 615.982026535363 L 299.29588036024035 541.4998932869364 L 644.9976798881311 433.0082431302184 L 457.0983975879831 556.0901490129954 L 569.2394949073454 212.9706054202558 L 553.6179267791197 439.37226760138765 L 340.4763707819059 149.96096035008296 L 513.551753086836 300.74565776368513 L 155.9176245864861 305.9253703879608 L 383.35581431897236 258.06178698891813 L 180.74181527087464 550.4333453449167 L 280.6700884191756 337.1376448336393 L 399.9335009493951 669.9788184620871 L 287.8594489484302 459.00448322117586 L 625.7004222227522 555.0169531500028 L 386.14765447983757 517.6289876043728 L 658.8775686872423 300.36942874708404 L 482.8296502126631 472.47249935930097 L 465.1437434795156 126.9498509257084 L 498.40796480625113 374.829699264779 L 209.69589561335562 189.4833982155696 L 431.99226911255784 312.67594703268975 L 115.95375327063488 438.1267510737633 L 351.1309192887249 331.2621414989419 L 269.5275927171133 658.0315301749904 L 324.4090734571283 401.2438046318954 L 539.9884504736269 655.6031433224691 L 363.10902591252136 455.6823185178802 L 691.9641990948548 429.4486350748037 L 421.70546623378743 453.7058758296079 L 590.6459066046845 174.62277452141635 L 447.8507919401277 410.57486233403466 L 321.69475983775595 113.84343696303097 L 429.24986124481336 372.6572311725963 L 118.62123352146136 302.2109138154759 L 395.3578461632948 369.3115552759068 L 159.37753787905638 577.192657571681 L 380.19777546863065 390.3988912175005 L 409.9269300844507 699.3255349666342 L 388.74178577812916 406.4125612305982 L 652.7242191455434 561.4294562791092 L 399.67397407028034 403.88026675925926 L 676.2262449994025 282.95875483337414 L 395.99597899868274 396.72613164615376 L 459.80511253019216 106.18171580935996 L 386.3360052833791 403.9854940186729 L 191.90984240848914 184.71748477005644 L 392.72548326558814 422.1160014843756 L 105.43784721516755 449.6023120048056 L 419.58966971194 425.6923552105538 L 274.59837669465514 670.0358011240593 L 441.25491460963957 397.94167850674984 L 551.0217633568939 655.1383513251568 L 426.3475920460738 357.1925398403709 L 694.3013288401038 419.78481711185253 L 376.0049520437462 345.90284487288517 L 581.7620357778399 169.96647178443757 L 333.1100187100619 387.5443655113306 L 313.82761489960205 121.92489368910782 L 345.65207173508514 454.31670194880314 L 124.1920522936997 314.35641423833 L 415.615529652762 484.1280671386942 L 175.3286377119166 577.3154478282913 L 486.10069065688305 438.2496021014471 L 418.8442795473253 682.7387344109075 L 487.55837137687126 346.17800118903614 L 641.094269458822 542.8959515439261 L 405.60739554059376 288.8941157651515 L 651.2061950542354 283.5181003995366 L 304.9219404743686 327.41930940242 L 445.535070451184 130.53691525056342 L 278.50560021718184 439.8852392956074 L 206.39120062011247 212.64410893243263 L 361.83912915374464 530.5527703435623 L 139.99187867303192 452.7676309741875 L 491.10743295673956 511.55739339126364 L 298.05302190191236 640.2182017164987 L 551.3933677644184 387.36731847500243 L 537.8797144405273 616.1298722449271 L 479.1042677071624 261.30598760916416 L 651.3966480293087 408.4820472172935 L 327.1115366390318 249.4476657359044 L 546.2708084980972 201.60741155046532 L 227.2630525688835 373.76901550127843 L 320.9492723069123 172.11678340098172 L 275.6330755586244 532.8880399055647 L 172.6895658392317 337.6572473904813 L 440.7060916181099 584.697015204503 L 224.32192001419156 548.4324220373476 L 581.7516861419358 473.5772926711287 L 422.3576901290004 622.9452642874414" stroke-opacity="1" stroke-linecap="round" stroke-miterlimit="10"/></g></svg>