<svg version="1.1" xmlns="http://www.w3.org/2000/svg" xmlns:xlink="http://www.w3.org/1999/xlink" width="800" height="800" viewBox="0 0 800 800"><defs/><g/><g transform="scale(1,1) scale(1,1)"><g transform="scale(1,1)"><rect fill="rgb(0,0,0)" stroke="none" x="0" y="0" width="800" height="800" fill-opacity="1"/></g><path fill="none" stroke="rgb(255,255,255)" paint-order="fill stroke markers" d=" M 400 400 L 210.67034852711896 198.857521700043 L 386.97206484795015 615.1216584943817 L 316.9606947230317 469.18950641314603 L 697.6534615762498 436.18496308421624 L 325.4304066796989 298.61895915846986 L 436.39200689823133 201.65574863718405 L 162.15387295142563 553.6944053186426 L 418.72240493282845 404.62035138848574 L 531.6486187966382 633.5947998086822 L 468.05312602379627 181.8850182943673 L 480.82021949976655 360.68787992158957 L 120.84538050955638 293.99330616200683 L 454.6992471624569 532.2298376641095 L 323.1834966753725 570.4507591581324 L 673.2076385916592 305.88616573368535 L 365.9304608052816 382.0940074488388 L 330.6197096850749 150.53341541379697 L 275.4428568606838 605.7428499367057 L 330.2878542224719 414.9149314481496 L 643.5890230461924 568.395212866497 L 376.08213989339015 242.0506799051716 L 505.86905825932513 265.0873249654209 L 107.6344958836425 426.3248614248559 L 443.0316520742215 438.1888141288617 L 407.2876651466726 648.5538398576499 L 578.0300859204875 222.30130456254636 L 452.38522009749136 401.6336402524147 L 206.30332534258022 180.91923402927262 L 383.91367602250267 575.0044493020692 L 277.6355482616359 495.6543423668922 L 693.4888827345744 445.0017830318432 L 356.7056035032705 337.1231548345899 L 450.0913330854441 167.98771324896964 L 176.02524957670107 535.0251675301557 L 367.920098732709 391.0136856275493 L 533.2884155578533 654.7578942532556 L 462.54651326043125 219.52335059395065 L 526.3712595362236 343.33169808988055 L 123.86332214222313 285.1681109816058 L 433.5008077413366 488.7176518807603 L 301.17284647521683 602.2161013282189 L 658.310099837086 319.93358494483056 L 412.25415333147816 406.9362718495677 L 333.0825523762225 126.65135046628126 L 288.1552191221243 572.3773341583824 L 280.84499713308264 421.63304120807226 L 641.3091808035748 578.1858271128116 L 386.5804713034546 287.86891181953274 L 535.9199541075952 237.48931730336778 L 122.25504594934546 416.3011265858174 L 403.78773705131306 403.57862152313817 L 399.4892003766951 674.1568921353517 L 559.8265695270676 250.1204633169801 L 503.00880718199926 406.4309416496078 L 208.62568498888876 169.44580537599606 L 384.0023052179593 529.5794829356648 L 240.46953400451824 516.8832849291241 L 680.0873115429384 451.9297439106176 L 386.7513910493053 379.41338817203416 L 464.15520507355143 142.09945934457647 L 197.8262844896839 513.444619349272 L 319.0110467088249 374.5653003209038 L 529.8747367751484 668.2738668998611 L 452.67573124063273 262.06035349364583 L 569.1004204533587 330.4172657526344 L 135.53958011940563 280.223154739657 L 414.13980043851757 441.2968219815334 L 280.3556132537823 626.6197961519588 L 634.8017036857383 335.1692945855058 L 456.58153908854246 434.39880113744596 L 338.7671189811149 111.16917244235634 L 306.4116560344095 534.8407280181261 L 234.64707299070778 424.72391398726114 L 631.4051053635691 582.2865341251357 L 394.49889384303253 337.6029869848743 L 563.4347134746334 216.52933216765018 L 145.75567374980713 406.98043118064874 L 366.6671854779884 366.480349412398 L 390.3803099950637 691.0627916940438 L 535.0276561294764 281.0650060806127 L 550.1743907988994 414.0861691974025 L 217.14181445288335 165.18090759265976 L 387.51775011175255 480.40543246948215 L 206.9108863469849 532.4235391823363 L 657.9898027063045 456.20315112819077 L 414.4790177309771 424.1187758031906 L 477.6554265750321 124.75624959189264 L 227.05389520006162 490.07474887917715 L 273.60944280021545 355.9337801391704 L 522.0080692041511 673.4434804292929 L 438.4773818135433 307.95736833918875 L 607.4523367493059 322.1049282372909 L 155.26334750227574 279.8267709381358 L 397.38857376520536 391.51917894759663 L 261.83058898141746 643.0433115401373 L 603.3391565062458 350.6226873911592 L 497.4590501849335 463.4933701086713 L 346.9601452103502 104.72694788586256 L 329.88292987936785 494.58714313005174 L 193.29202183756104 424.34766089511965 L 614.544810478628 580.1204391385183 L 399.40885934349393 389.5965525320343 L 587.1660466663803 202.6349021537924 L 177.36702450112057 399.17039302638335 L 332.8915804436381 328.17005889181166 L 380.79233466498914 698.7119354144123 L 504.2184405863923 313.8196728656833 L 592.3135489917188 424.1066085048926 L 231.1330228838688 168.61552957619088 L 394.53664343902375 429.16380927708843 L 178.32056226855454 542.0794385351711 L 628.040493015809 457.1786133629737 L 438.9585233600906 469.7335087910792 L 489.64263550784676 116.41015183168719 L 262.9133073658056 466.05039230945886 L 233.17886064360886 335.93874792750455 L 510.4561235785549 669.8588870328447 L 420.2158250348928 355.58499342387785 L 639.9992622651733 318.3248593790613 L 182.1480002129354 284.4650477115164 L 383.8413971796212 341.0494051245057 L 246.6573205108168 651.1732333994942 L 564.8753728843171 365.3668653732894 L 533.6017410364567 493.09771774567963 L 356.8435836001073 107.64759792939884 L 357.992063459844 453.12339682861506 L 158.21730555490979 420.86237305827785 L 591.6322342079245 571.346420057557 L 401.07752204953454 442.10529696070626 L 605.9616448247693 195.9481740121553 L 216.03085321170528 393.5766182995301 L 303.49991232899436 290.0304255825695 L 371.59553710181325 696.8736368817858 L 468.24544821970863 347.05990713320756 L 628.04344653613 435.83702634675467 L 249.69557172895148 179.96061831379973 L 404.9244734555462 377.5959335788634 L 155.91569047228404 545.9110685379335 L 591.3526635115996 454.37206062698556 L 459.45312569831617 514.672702052985 L 499.19454346871004 117.18675166251109 L 304.34253595039553 442.46798626605977 L 198.97970074161307 315.52540679080914 L 496.1121190263416 657.4249112045787 L 398.37900771486414 403.28571552732825 L 665.497604884941 318.7888650411396 L 215.0698357159482 294.4113476471351 L 373.89162883945176 291.60360770595764 L 235.80533915981363 651.0065743835162 L 520.6269466601843 378.56372161160994 L 563.9385247782488 522.0009183968983 L 367.5392223401692 119.92213131103296 L 389.9301136242328 411.94914922733454 L 130.64542123481954 414.8017422402689 L 563.7648616164702 555.8826860402716 L 399.47815164757134 493.36146148874667 L 618.8162151600537 196.32921937137323 L 260.43910257941053 390.76487491101915 L 279.31264228639697 253.49702675937078 L 363.652408882469 685.6539723029302 L 428.19027434010945 379.5068111050408 L 656.2171610358353 448.49234118054227 L 271.7855847795193 199.13065169818987 L 418.3378887852455 327.43794571598545 L 140.71773553279877 544.2218892118938 L 549.2646961997522 447.4885826899367 L 475.4442356923998 557.3324527119062 L 505.4638002798869 126.88459123632941 L 350.0479315443208 420.3373364360613 L 172.02511440154788 295.7223264932791 L 479.9483761862265 636.3682667659846 L 373.6637149938729 449.4367891609338 L 682.9379306990593 323.01201644486673 L 252.71549622789234 309.70485381194976 L 367.71878428433774 244.88524446172926 L 230.10612622974196 642.8437506601249 L 472.0311085514219 389.50401936363494 L 587.6480455821969 548.9539245557412 L 378.1556205343114 141.20762353031927 L 424.682543422181 372.49856788193057 L 111.5374776511083 406.8443016528996 L 532.1844405482329 533.9197495152503 L 394.7903483231426 541.6393815702816 L 624.9185700657649 203.37084252649734 L 309.0825692830626 391.1301693857678 L 260.9057373553021 220.0011216012499 L 357.7711231210355 665.4906831549818 L 385.3328948416887 409.9787742220725 L 675.9647315969155 461.19701268762003 L 296.26879133185867 225.73899791567288 L 434.237260795732 280.35643542116543 L 133.50758510953506 537.5360876828609 L 503.2877312400314 436.4436247157079 L 486.6461683734296 596.1517040441995 L 507.7232658699845 144.98725844382588 L 398.5494793745634 400.53848897307887 L 153.0470819194449 277.5943131511854 L 462.9673700959833 607.2342079386056 L 346.9507475198912 492.51084569717904 L 691.5863692345224 330.3429968203152 L 293.6360654000858 330.1392602572493 L 365.2859772825836 202.52094334724205 L 230.2100010646617 627.2696748198537 L 420.69382113539615 397.64066988648085 L 604.1838618005326 572.7231496964002 L 387.83516199284185 170.83807829952627 L 461.06523782432583 336.0858897106018 L 101.55669482811288 397.77576448729957 L 498.22294282954385 505.9220613996029 L 387.39006992110296 585.3194697053269 L 623.6916752011247 216.42407019771306 L 360.3072323223722 394.8741867153986 L 248.5955962288704 190.9112803111446 L 354.66132025111006 637.1353647749413 L 341.106015447319 437.43763464789504 L 686.7233439528158 473.02934842776165 L 321.97287343484163 259.10543162783864 L 451.90901130380956 237.88723175499467 L 134.7895027517697 526.5668283834927 L 455.0471572443808 421.3744573426624 L 493.010076412781 629.6734140390773 L 505.40656971430155 170.68753842026095 L 448.2341254542675 383.78554438514124 L 142.47389777042434 262.19243909592285 L 446.15248487036865 570.8706257462972 L 319.27098052661347 531.1318277069342 L 691.0156890301462 340.0016667545111 L 336.30557238875514 355.2622895829148 L 366.3477359023725 165.99877558442935 L 236.54992850265108 605.12389764938 L 368.3310283651945 402.6137274299323 L 613.2880712978325 592.1448006189775 L 395.7990338753565 207.84778660102157 L 497.7687786608436 303.8570607310364 L 101.04328919711452 388.4462469933404 L 463.24609684799776 472.61803677962365 L 377.8299444331415 622.9481121832487 L 614.8238360214292 234.63306773888084 L 412.3760095213695 401.99217369817796 L 242.43531082078303 167.47629469610982 L 354.89431436071095 601.6236822852735 L 297.04221959423694 461.02749416472994 L 688.2555092554879 483.06869406543245 L 347.74010322125434 298.2756732195239 L 470.4967681468605 201.3797576019143 L 144.7655399263632 512.1769496176213 L 406.22030521266316 402.6412686931052 L 494.71711028909317 656.6025336793609 L 498.1420303150785 202.92255362913284 L 497.4150605176166 370.5989283749629 L 140.41984148698776 250.50345776230984 L 430.4207043483865 528.4001147487295 L 291.7636762050975 564.1240557251189 L 681.1247235562664 351.12204335942823 L 379.18147793897526 384.38625119247524 L 370.4677307706241 136.61145434615287 L 249.3139644072868 577.4611737096058 L 316.7053612935589 404.26600137280843 L 614.9929995300081 606.1776074993178 L 401.38803811651667 251.00629257963226 L 533.409221010945 276.74935506630044 L 110.00174894105515 379.72439231341684 L 428.59689144933947 434.9786916573446 L 366.8107830191443 653.2911174680755 L 598.2895565755368 256.977842869855 L 463.53349248800555 412.26991880503374 L 242.22222005236713 150.7717771341443 L 358.86961455250633 560.2348362126398 L 254.71599622022813 480.10464552901965 L 680.6545827978268 490.44333167075575 L 372.4779716734631 342.0523152502101 L 489.0400055415088 171.9491156796289 L 163.32158290170412 495.3339667384104 L 358.47285607206146 380.81768726336475 L 492.1612822435965 675.8584101291042 L 485.7782857332225 240.41837978627544 L 544.3946325183284 361.28724491572467 L 146.6873094110198 243.40087964847166 L 416.5793670314633 481.1810296384024 L 265.6287789786139 590.55253602719 L 662.145294353416 362.7986592805115 L 420.7646597528301 416.60937179640064 L 377.0455088206668 115.40674167841763 L 268.4277028997974 545.5042071507568 L 267.56079231307797 402.64861458517225 L 609.6110721039372 613.9516395511964 L 404.0973379755734 298.863605195298 L 566.5833120633085 255.4605178646367 L 128.10100479973977 372.4505507200911 L 395.5414229679826 394.18559956670316 L 355.1456101677433 675.3786156928915 L 574.3590240576306 282.3227875792869 L 512.0710950967109 425.29102435135866 L 247.51622963240072 141.65272717106444 L 366.78937797048326 514.4419300130752 L 215.68296486162512 494.25747337619885 L 664.3374833183577 494.3768647648544 L 395.20562463187196 389.0360211104002 L 506.51847808727365 150.43774799075698 L 190.0257402569791 477.0614705275717 L 313.39650729878 356.6710172615966 L 485.92296022365883 686.6194399148708 L 468.40033921375164 281.7422506690885 L 587.5283937530363 355.93940088215913 L 160.78117071893845 241.5999370966604 L 405.28891475142296 430.75900587882506 L 242.07520878909818 609.7529957936081 L 634.6362820185138 374.134129347067 L 459.65646087218505 450.8471553082873 L 385.3509239503084 103.14706240319919 L 293.54767179772216 510.5906392688017 L 222.55781892354085 398.0162949144002 L 597.7134855074926 614.8110337913652 L 403.60352061602754 349.80387956561566 L 595.9258778086796 240.42855781867786 L 154.68748151957337 367.39121532097226 L 365.2193287579973 351.58933905572536 L 343.71787076264883 688.5396563071672 L 543.5956401419095 309.4688841756859 L 556.3900405872931 440.45419975594825 L 257.66791563051527 140.7141201136222 L 378.64206046197586 465.8552527345439 L 181.41875606735664 503.3156374750076 L 640.0249918690229 494.23092134717353 L 415.09412993250476 437.6754450304398 L 521.9004821930383 137.3881113026701 L 224.1392745337282 458.3891451423497 L 272.45037457213743 331.1329311229558 L 476.7343234942283 688.3580985514852 L 446.33513644110224 325.3601707381428 L 625.287726320824 354.427227972463 L 181.93461244931643 245.6185194495274 L 397.0332816083805 378.8108142485175 L 222.26736750558047 621.3505700868432 L 599.4650154400313 384.28571109645435 L 494.6105125754102 485.87258305884836 L 394.5646134158906 100.27995707717673 L 324.06616118988825 474.1165555417586 L 183.21174100286487 390.81265309393035 L 580.0987517156811 608.3486984720896 L 399.7827070581871 402.10544947614954 L 620.1669825520326 231.8228519881058 L 188.8104958330104 365.19685776302157 L 338.6008278943653 308.66001937856265 L 333.4357436178406 692.4251698507055 L 506.84151597889735 337.20727162510275 L 595.0597079291285 456.9998484217893 L 271.85501972004704 148.26125888610997 L 394.19612253961634 416.16076740154506 L 153.26004373687226 507.3483210284486 L 608.7105099767109 489.5421551203091 L 431.4988917852592 486.32394855607987 L 534.1927889189417 133.02735440993462 L 264.6397678183426 440.30366780617084 L 236.90843314480898 305.26179739523764 L 465.4384561241876 680.8648536467608 L 420.14624525301963 369.69755241416135 L 656.3185326031769 356.41835673970513 L 209.14527349188342 255.74592186565079 L 392.0992154329748 327.08273925681203" stroke-opacity="1" stroke-linecap="round" stroke-miterlimit="10"/></g></svg>