<svg version="1.1" xmlns="http://www.w3.org/2000/svg" xmlns:xlink="http://www.w3.org/1999/xlink" width="800" height="800" viewBox="0 0 800 800"><defs/><g/><g transform="scale(1,1) scale(1,1)"><g transform="scale(1,1)"><rect fill="rgb(0,0,0)" stroke="none" x="0" y="0" width="800" height="800" fill-opacity="1"/></g><path fill="none" stroke="rgb(255,255,255)" paint-order="fill stroke markers" d=" M 400 400 L 140.02226784588964 274.5750842689509 L 497.889423973612 523.1057251358052 L 444.741815781766 597.958874453913 L 460.3432257332083 139.01928423202247 L 435.69395651572006 355.5639628414726 L 130.13299218285385 528.5553746307629 L 505.8795584379121 400.5233783889534 L 616.7459431669074 505.8919001915094 L 253.21390782136567 213.51697441210845 L 375.8672173301797 290.7157711342632 L 331.3640116123136 690.3008361151817 L 431.89753888435126 360.68977229604064 L 644.9787077224184 284.78283015607803 L 201.8753946611579 398.0412334149661 L 254.11396600960123 327.8315047922341 L 576.2841216569183 626.2507710603504 L 401.36552571159893 406.3322178194556 L 468.20152785826383 117.77447843321755 L 303.8159025943108 517.3460677667457 L 211.63718819035245 487.45543768365803 L 664.8576856317247 403.92794862223406 L 456.63638688559405 428.36683424823775 L 217.15262139180803 162.9177052290769 L 420.5545162931145 497.6555337752102 L 341.26838014000265 637.881725994343 L 548.787447430036 220.29626264087645 L 507.181225256168 350.87911118632377 L 102.51113744528874 394.1171546634942 L 439.4457540719384 420.0012598120251 L 565.9253840221837 617.3543098548676 L 361.13736339404124 210.72440319301145 L 441.11494005794106 236.93935307589135 L 217.25545649798892 618.5088288423235 L 388.19860999842734 405.33811849748577 L 691.8222337864888 407.21401353023407 L 270.01809540163083 333.28197304869576 L 272.0136413907819 230.61452187045023 L 451.3836829654848 656.6916267802509 L 382.634921185763 467.46102362831243 L 593.4291998529867 171.0249773276661 L 314.4713880743028 438.1789800262456 L 151.4041389639496 392.62481977018155 L 603.3682576431876 505.65965572651993 L 474.1619711634228 499.16612697282517 L 343.21109553740223 108.83540956617207 L 390.39384002958815 436.56891993784507 L 220.8191564504576 609.9937912769223 L 572.2540322878933 324.12669513867945 L 573.3855837657316 406.00184154030217 L 149.73600995625347 268.4006747462501 L 388.4456185553466 384.3896937563138 L 454.73071385472815 688.1863588931155 L 436.3451528373902 264.3724082451355 L 541.5551147228443 235.75351070937458 L 162.86590869116992 503.0546670703547 L 324.1147405790565 396.9975623124702 L 664.7809291488998 540.9080579669954 L 348.2990096655259 329.42355550015776 L 354.1573276242574 151.93047576849253 L 340.7009964375104 616.9877489396713 L 314.8407076895861 497.8283276501616 L 671.699921622044 283.5168619658901 L 368.6564078554184 398.60466640002153 L 154.7770352898149 267.94050611473244 L 507.49327449436197 548.2697236511344 L 431.61045655891166 575.9162364868882 L 475.287494029069 129.76708237501845 L 417.08915652040855 380.56335813178185 L 128.6394019593584 514.7530998197417 L 534.4913464095507 406.6534729187813 L 594.2823406397513 505.86872045677114 L 251.22308426508818 192.63683107989038 L 385.86346352085485 319.03109189609506 L 318.05823597707894 688.5919562986273 L 453.9640195049614 339.2315107807148 L 636.0127327816716 301.5672284265233 L 179.71992803194857 388.01063111746265 L 281.32962443356536 334.571055629004 L 570.4617445948098 640.0838994251893 L 395.8345495111893 375.4254657451013 L 478.04943955208125 130.19934522632406 L 281.1760644611428 532.481950465685 L 229.92728794559724 469.946565274097 L 677.6740184901618 416.49021805671833 L 428.23310527864834 415.7488127477941 L 229.96013230911802 157.98482148921488 L 420.9027593025584 527.1288725503192 L 336.2434203680924 616.3806664287138 L 569.0152079262039 213.42139045581985 L 481.92498647786965 366.77884991349805 L 100.69971493117896 380.74032391869383 L 465.3316006521435 436.8674620183699 L 547.8722667958691 612.6917155941666 L 365.98349371814095 186.5284714210442 L 440.594524483571 264.6985466304096 L 202.12858944543697 616.275153623687 L 417.1446734520644 393.1462030078824 L 682.3966473003868 419.5740986260722 L 250.01180016815394 314.37948001063955 L 292.89715237953817 244.31252147220755 L 442.0345925840989 672.4486271333681 L 388.6776856398417 437.0705234012206 L 601.4202828771603 182.01927768700196 L 285.6048471361166 445.0763418355502 L 170.8353948417757 382.97701067943717 L 614.9127875449856 524.0951313503243 L 453.2160895638263 478.1811132723117 L 355.76644205346196 103.58309606890708 L 379.59989217422117 465.6292226372319 L 221.07140962601687 591.7296593215435 L 597.2698018710498 323.3920276226055 L 546.4824962774865 411.6094781171023 L 148.12202926336985 252.895452574535 L 406.6998769022805 409.9483241556562 L 440.69207055943605 682.2349244001075 L 450.46946031607166 240.42179901865904 L 533.0321354164813 258.855571606435 L 144.98112337469448 497.5863860098 L 354.9839186733524 396.2082413805807 L 656.2959914039053 551.3887698210275 L 335.114143957908 302.6186165570052 L 367.7657386354904 168.3250192045466 L 325.1297458007653 632.7230293984569 L 330.57041211746014 472.9376723476071 L 680.0948269777855 294.40226101327045 L 337.8416901096811 394.45476425498396 L 172.2122238498094 263.92714995131666 L 513.9171064335353 572.8131693852237 L 420.27618906451266 551.2016404091283 L 490.21069504594203 124.27593240229515 L 396.17531513891555 403.9783702638464 L 130.86079239941643 499.9507291926155 L 561.240203688765 415.18821167477614 L 570.2073740994065 502.8212090490133 L 252.34860035372895 173.58392486314207 L 393.398682202024 348.8553879323152 L 305.8081252335362 683.1487786595967 L 477.3410861454372 320.34304235830916 L 623.4321041736365 318.27808180110156 L 160.51667385970777 376.2467230724529 L 308.8782315432051 344.3372658473867 L 561.998478862547 651.1209044827365 L 393.09936397918915 344.3718364154743 L 485.94562121265847 145.8416740548998 L 258.40079925551925 544.4040616175866 L 251.256021265755 453.57207125912987 L 686.836538087088 429.882556326441 L 400.8161692216729 400.50412262554494 L 244.585476829365 156.45071685732665 L 418.49378413394993 555.366625938741 L 333.80790890412635 592.6005928691436 L 588.1815451387896 209.9789874433257 L 454.60688090634886 380.6370268669595 L 102.76404501388572 367.5480416449911 L 489.04441917201643 455.6099488140068 L 529.0620441659336 604.4743610852352 L 373.1805938334679 164.78939084647817 L 437.19090879535815 293.50043289444113 L 189.12333318315933 610.8431666369081 L 446.90289543653296 383.6293139333383 L 669.3820216202955 430.75908626093496 L 233.07692221114772 294.6028379219964 L 313.38038777113246 261.2528631616184 L 431.05379258840713 684.8492273890337 L 397.51349421689105 407.0088342882917 L 606.5069758549787 195.5570561174883 L 257.28486369753705 449.02233506910494 L 193.0981106881659 375.338471657963 L 622.8932455504302 542.283256806501 L 433.7711498887066 454.6945696667305 L 369.0175480290056 102.14664020860846 L 366.4758080579277 493.0342564583287 L 224.62896770437834 571.9100348711811 L 620.4498402741725 325.49219292377154 L 517.876809628232 414.6415545386885 L 150.09519924652017 238.72979953774185 L 422.55463566537895 436.9358871010051 L 426.98521701776224 672.5089140796215 L 466.14911820992916 219.23379446240475 L 521.2390366095741 282.32316715713625 L 129.98200425187065 489.77616336521965 L 386.2038410880133 398.2170790429085 L 644.6723626497053 559.6121751812393 L 324.9070132394459 275.64852081507354 L 380.0603643802003 187.9572019404945 L 308.9872239132687 644.9525621524548 L 349.1022595256531 448.9159908820038 L 684.9318700456445 306.8268311443611 L 308.0735710841425 387.65776835862687 L 191.92614446678994 262.7918944571323 L 517.1807675822685 596.2329832980021 L 411.06122994991546 524.2118045222373 L 504.64250869962933 122.57242803120283 L 373.2995136084526 425.4081880787741 L 136.84547025361564 484.61436032690466 L 585.6830401710799 425.8652123431947 L 545.0111243343131 496.65513586430075 L 256.398039575544 156.79858151885486 L 398.2927812172452 379.69317989906324 L 295.04915481863384 674.1336554184478 L 501.5777354382095 304.2909269239699 L 607.377306712492 334.4494581367011 L 144.57571067230367 363.1320087200998 L 336.2460502308837 357.04903735628875 L 551.2336407926717 659.0424550869125 L 393.17410841663843 313.70028790447077 L 491.5472416363538 164.37168882058737 L 235.9854958791159 553.0151272475533 L 275.31249647659774 438.735989538856 L 692.2090158088697 443.65308464864404 L 374.8551819883658 382.87865305158215 L 260.5875082095731 158.47140607982496 L 413.4812101783941 581.8760742836215 L 334.16647660545834 566.995127833822 L 605.8121684904265 209.8844091023175 L 425.66732453149854 392.1649810204991 L 108.64858664337783 355.00160983780677 L 510.2206389322322 475.8504238368819 L 509.97920810960375 592.7303419482772 L 382.42773313844503 145.8986809545984 L 430.8649232743756 322.8274171800419 L 178.6301050516164 602.4680197161234 L 476.9613385444055 376.9226000516331 L 653.018310844592 440.3594721728268 L 219.42315249417135 274.4127854910448 L 332.9996587628874 281.22684493258737 L 418.8495445762691 693.6547486105256 L 409.01072005469604 377.78925568133747 L 608.4344925205098 211.24657202868354 L 230.0274137994054 450.05308796281236 L 217.79957802146865 370.01254660006845 L 627.2813177387969 559.7417971985881 L 416.208718948258 429.06843951170964 L 382.50302369717406 104.58037343681644 L 351.3066961761045 518.3426728258696 L 231.57710566831756 551.0113288137507 L 641.3421986736777 330.22473139124577 L 488.06220334933965 414.94117648233566 L 155.49891646226544 226.3435809591357 L 435.76083045077564 464.8848345250881 L 414.0634402777104 659.1455580310953 L 482.98322346524327 201.11966749563106 L 506.27155345408335 305.6582545224694 L 118.1968040660069 479.96580927767906 L 417.2449360663456 403.0136539869454 L 630.2307043947823 565.2391062328511 L 317.7613899410297 249.02478383227697 L 390.6561552436001 210.51626877597025 L 292.7370509173737 653.5360876742272 L 370.1719355350136 426.21714065541823 L 686.0498876236237 320.3548340525258 L 279.84772067794387 378.3900844585565 L 213.47655928788754 264.7281530980566 L 517.3766584629652 618.0411932687307 L 404.23132904400643 495.39009339678057 L 518.1180389541511 124.60745014647318 L 348.85990002652653 444.5030379150547 L 146.56612758271828 469.2158302817604 L 607.4233972849408 438.3654430436157 L 519.1989288286778 487.34864356355433 L 263.115270229806 142.68075614063576 L 400.43453013520815 411.02690057335053 L 286.18583318877177 661.7784713725301 L 526.1944769458668 291.27478105868454 L 588.0606530528145 349.63598486398365 L 132.1420675148387 349.0858533507834 L 362.9313828015297 372.5535647961377 L 538.5530018977214 663.5895305042122 L 396.00078400898394 283.9343879895747 L 494.56388815151814 185.40544101867113 L 214.42767125748298 558.2918661789153 L 301.7272703915184 425.79822538446894 L 693.73010002965 457.3377257123424 L 350.782014080622 363.17984557597066 L 277.5020202705923 164.13061559373713 L 406.0845202763136 606.1966579429441 L 337.4568167783587 540.0495572365392 L 621.4573135938483 212.98175227056035 L 395.58426987781576 401.13590095027837 L 118.22298148973294 343.54824368005893 L 528.5551191449384 497.1673432543333 L 491.10487573755694 577.5624714645285 L 393.3731113879165 130.1931750564633 L 421.64999792667186 352.15692469223995 L 170.99137165494395 591.463971942941 L 506.79650880440994 373.08983081918484 L 633.6103483205272 448.0042621086112 L 209.18878312796542 254.2892723856799 L 351.32062664580974 303.958491679466 L 405.85925294128066 698.696505533757 L 422.96908370334 349.90273446054607 L 607.0130927569539 228.65693535143555 L 204.33251544854477 448.27618810309895 L 244.50071221843913 367.2447423414092 L 628.1236199569163 575.9958968539175 L 400.858932636185 401.71560029332477 L 395.75791916197704 110.86256684062124 L 334.43328051392916 541.1598479663908 L 241.92755006606924 529.5239793673629 L 659.5363014052996 337.3251011895154 L 457.5541089861492 412.42095794140647 L 164.10801703827752 216.1436563617123 L 446.1360955091112 493.29976214041284 L 402.3575363902508 642.3541705511132 L 500.53566178001694 186.325771909948 L 488.2977499729983 328.375726749871 L 109.89244457641394 468.5416257404271 L 447.5833729624462 410.5155674424194 L 613.3448148972266 567.984672548273 L 313.68790946399804 223.2600075776138 L 399.2136231778225 235.6328752615407 L 276.8529854273832 658.4078811466969 L 393.453581953854 405.2568039255472 L 683.3609101225793 334.52951251988367 L 253.62733603258255 366.8930346331585 L 236.3905299972973 269.86096205410706 L 514.6670781466464 637.7756661965058 L 399.98963867135643 465.2172282531933 L 530.1886751131897 130.25757519589627 L 323.2972371294877 460.9715011646563 L 159.92006470521218 454.2217478194886 L 626.1197298890357 452.32061334303313 L 493.2803439288857 474.9533112343328 L 272.18674462936406 131.58104210821438 L 399.7840424690078 442.3277932702712 L 279.58210606496186 646.3793731903214 L 550.6937798378165 281.4234106907545 L 565.7620881095003 363.42306463834836 L 123.39067276595534 334.5546983230855 L 388.4553391858884 390.62926170808066 L 524.3796783325985 664.5694815086364 L 401.45074827351215 255.58124706364094 L 494.76462729394734 208.513245720948 L 194.21591014697094 560.2848966019549 L 330.07996251630766 415.06644302358285 L 691.4144692657346 470.4710972174844 L 328.9817278441956 341.77016437180106 L 294.85246397444433 173.4374541781238 L 396.58378747404157 627.9097505743161 L 343.7460939459617 512.2703443707751 L 634.701953622958 219.04789613453022 L 364.8631790903038 407.38976126201203 L 131.28495099667936 333.61051534125534 L 543.8073322832493 519.1051861775691 L 472.90588412825883 559.1465695584009 L 405.622412983942 117.94783236611033 L 409.65180872797436 380.97255056238765 L 166.493636719256 578.1969361293278 L 535.8844703967338 372.12228846522294 L 611.5212824219645 453.3697941420527 L 202.43823278141608 234.72067372970614 L 367.9479544238255 329.110081134541 L 392.5391348398066 699.879459174402 L 439.1239056263412 323.8075245290706 L 602.1228356253777 247.32798644470947 L 180.67349494047986 443.86781575010934 L 272.7254162960926 367.2168074666051 L 625.5401372837345 590.5889537340256 L 387.9933739565016 373.09125255975874 L 408.3246635431249 120.89579665599803" stroke-opacity="1" stroke-linecap="round" stroke-miterlimit="10"/></g></svg>