<svg version="1.1" xmlns="http://www.w3.org/2000/svg" xmlns:xlink="http://www.w3.org/1999/xlink" width="800" height="800" viewBox="0 0 800 800"><defs/><g/><g transform="scale(1,1) scale(1,1)"><g transform="scale(1,1)"><rect fill="rgb(0,0,0)" stroke="none" x="0" y="0" width="800" height="800" fill-opacity="1"/></g><path fill="none" stroke="rgb(255,255,255)" paint-order="fill stroke markers" d=" M 400 400 L 367.1375097538186 602.9188768088238 L 684.1359879874881 494.5097754697482 L 506.8415076357133 195.60812289289427 L 370.7572284837951 378.1264119269797 L 527.6272861514014 276.73283230759586 L 231.62395730702715 157.78622450276978 L 172.50529241593912 509.0272558117155 L 420.4765052569337 469.5416688675189 L 254.4888480361351 418.4027553666227 L 390.05750092989183 685.9743995558609 L 665.0221420107348 452.42929889286546 L 437.4148647369442 299.3377151408904 L 498.89284631798864 456.1528580951972 L 571.0486615292365 187.16473246468075 L 209.89991409715313 188.970192858832 L 281.75893042052064 476.2422738268823 L 368.3196799817765 327.5381563761447 L 152.16447857747724 463.70633728634357 L 426.70156318115744 692.4558381519582 L 571.4828503172048 411.93835153251007 L 390.1328964015567 442.12968765436693 L 617.2325642963866 489.4509982931597 L 556.5552745331257 145.32162324141137 L 248.13742330596568 269.0133319032517 L 405.2161592289685 395.6197108007462 L 292.1578168974317 219.2570888926973 L 121.31746159999574 510.47183990550303 L 448.67163698325936 620.9185546592043 L 429.7011066730461 398.3261882416134 L 380.9673227959404 581.8894547397831 L 685.8284297826276 477.51184410033846 L 502.55353740771955 173.62650254961247 L 345.1208320211757 363.5784216829723 L 503.6068321505368 287.9976108542386 L 222.49408196492107 173.05419044701554 L 165.9858090674536 528.8188280105928 L 433.9356472201055 495.1313750611136 L 281.9872253997864 421.730555054108 L 405.9410099854525 675.7375253283823 L 679.043326138285 439.0422936192258 L 439.732700407297 271.35785734124977 L 476.7284542607391 438.02670356677964 L 550.8528203927242 188.9969281345335 L 192.52091358843634 194.24247020292566 L 265.55127466656313 497.82467067035486 L 377.425173840385 355.3877351821159 L 172.14041103684718 472.46227838307357 L 443.79434245772035 695.0702707025561 L 595.4141163903322 402.58167644439885 L 397.6453272816719 413.41420333640485 L 603.3515499634087 470.6360651771101 L 542.4592519468924 136.02376022801485 L 224.2517343028954 264.8832309554582 L 383.27392506560454 415.73293844537557 L 294.60873663729024 244.03519518089436 L 130.3492955146247 524.8774882513582 L 465.9948315752084 635.5710310355803 L 458.82837616712607 393.3483052093103 L 392.4054884284162 558.2175004734006 L 683.6623887729953 460.02131964591257 L 495.22332753238385 153.8161937014275 L 318.39243990767 352.225462215317 L 480.35435274090025 302.67681376733634 L 216.40825446872486 190.70004114153394 L 163.2455693829995 548.2692248576595 L 449.92223323261953 518.4243382618021 L 310.4653147757562 421.75820816984805 L 420.4303506868699 661.9417070996064 L 689.5934561740903 424.009007112589 L 438.6752952617497 244.16879292365718 L 452.14114380764653 422.28049440258945 L 530.0626943922093 194.55249013146053 L 177.30733297017593 202.72996095499815 L 252.73215829206976 520.387510398412 L 389.7695628901961 382.3273769969246 L 194.4680415778502 478.34873999393943 L 460.66911918427854 693.7936610703412 L 616.8366164269326 390.6517851866704 L 401.89458091492094 383.94601983820775 L 586.0598968131087 453.10465465271585 L 526.5558107217478 130.18500541824977 L 201.27778267190638 264.2991156586825 L 363.83619450779 438.07274095970683 L 300.5905670669953 269.38294280271134 L 142.69624967735075 537.2417264863099 L 484.32521540063294 646.6360583187645 L 486.8215736066614 385.1959492972518 L 401.10277463720547 532.3508464723056 L 677.6279989593772 442.59082525732435 L 485.170503350549 136.63479302324066 L 291.12070946039773 344.23575111388044 L 458.39836807213726 320.55575561344847 L 213.6483659305909 210.24657810096843 L 164.23329169812425 566.8250702963048 L 468.0466851804465 539.0015951179549 L 339.3559371345367 418.40706921167504 L 433.0429199135778 644.8637030396461 L 696.4447462483417 407.8342141770397 L 434.37016297904415 218.3259109840961 L 425.5837763831496 409.2672877574785 L 509.2371294623219 203.82968773168682 L 164.7051070690661 214.10660793735306 L 243.46739927969253 543.3883671952724 L 405.137527780672 407.8236795819215 L 218.6587601123929 481.0887612515781 L 476.77788867417553 688.6900158408448 L 635.3385514519642 376.5345719032505 L 402.79946339145033 354.2949260147785 L 565.6454832819949 437.34240766272535 L 509.3534417031302 128.01953373657085 L 179.7618439788892 267.1313514862452 L 347.2586746832394 462.1871255258877 L 310.0954652806122 294.7329886968562 L 158.02086539017668 547.1270906639074 L 503.1267703779426 653.9561941701215 L 513.1473404671458 374.0816156367907 L 406.78160631306537 504.78735221069087 L 667.8033569754718 425.76873676906024 L 472.7812717961387 122.48250776422634 L 263.8720866617219 339.6921323541554 L 438.2300687198659 341.3408486273014 L 214.41798107619869 231.17651142198818 L 168.81128589556246 583.9496307700252 L 487.8615645966733 556.5095461170281 L 368.08518519244143 411.6854347031983 L 443.34403370727154 624.8539538902608 L 699.4526971831899 391.0513172227202 L 427.0275921122527 194.3565450916361 L 397.55814110676755 399.2680317879226 L 488.9300746630129 216.73914570255104 L 155.10218703276297 227.98000454900924 L 237.83692069817246 566.2680320078199 L 423.2355340389074 431.38158676372944 L 244.18467485397883 480.48374571650237 L 491.58986326515145 679.9097759994136 L 650.5744137576046 360.67326265200734 L 400.36571589806005 325.036188263762 L 542.4691171028971 423.786555977645 L 491.3887714835984 129.65801351322074 L 160.22114739526936 273.1674823876773 L 333.82426857991607 487.5762216909667 L 323.02836642763435 319.523773792023 L 175.91971754196626 554.1544764610383 L 521.84744594818 657.4604031015094 L 537.3118200436597 360.2955317515883 L 409.24289858421207 476.06310724253404 L 654.3527600071557 410.08569390918296 L 458.49882213210003 111.69251112993425 L 237.2172874833206 338.5902781724555 L 420.29151731432836 364.66644190446254 L 218.83716500884225 252.94504505224657 L 176.75899188365048 599.135950734679 L 508.87240403403524 570.6682355492798 L 396.08606380003704 401.6884772494933 L 450.95767337570584 602.3282286354965 L 698.5595498062634 374.20919090144827 L 416.935367034348 172.74740838301219 L 368.60308651519324 392.48483764714615 L 469.6771002703556 233.10575476721644 L 148.81900974159535 243.90109611621412 L 235.83308562436383 588.4640339964582 L 443.6987822163503 452.5561289942434 L 270.4912656653577 476.41850622801184 L 504.6045626025518 667.6861308236831 L 662.273149169557 343.5575143548184 L 394.68582484935905 296.7369087964962 L 516.9560604990313 412.81525071453063 L 473.2133691194364 135.1443034037108 L 143.13138012009267 282.11763213820865 L 323.7364556436993 513.7042090203624 L 339.2090320331311 343.2130005023035 L 195.93322602670838 558.012561125691 L 539.932682139567 657.165577302214 L 558.8723296910068 344.19860315010294 L 408.3709828941184 446.7397154471286 L 637.5228703661983 396.04154577929137 L 442.81234854814227 104.52290635447264 L 211.71766707213615 340.8390049544 L 404.96504848753125 390.10340564124203 L 226.9393247073649 274.9931158706628 L 187.77851370630154 611.919277388341 L 530.5496864925594 581.2778525952374 L 422.81195769827923 388.596069890228 L 455.5758085523227 577.7577015105815 L 693.7956532572524 357.8586513640398 L 404.45160835277215 153.93300177185438 L 339.28175369585904 389.03616795929196 L 451.98237088156895 252.67265034519465 L 146.1005897392757 261.37524351008597 L 237.3611477614032 609.4242522791353 L 466.0998901940049 470.9629473902806 L 297.0106705339755 468.8642891191021 L 515.3641733508174 652.3293431726137 L 670.244528171298 325.7113836566273 L 385.9367242955428 269.94257878556095 L 489.58600185493293 404.73832940866794 L 455.38019815259304 144.43423789005604 L 128.91518434378202 293.6217768037303 L 317.1145983381201 540.0121231319773 L 358.3761611500768 365.29063406395665 L 217.55681313242593 558.4655896275908 L 556.8390015449546 653.1759403298522 L 577.4477982205538 326.21363942502217 L 404.136506556021 417.3909673291069 L 617.6368991648917 384.0930465394652 L 426.2449604220978 101.15049364968996 L 187.91180593552406 346.2626951108638 L 392.5641231720253 417.1692534212881 L 238.67014206950088 296.7609664751941 L 201.50201515614629 621.8884740110939 L 552.3416833223704 588.2232969046862 L 447.749601580867 372.6685531022853 L 456.9660714507977 551.6576999419169 L 685.2787152687791 342.5388776503602 L 389.99590620867895 138.28527511293413 L 310.16821891540553 388.9540579251814 L 436.3063885298845 275.1071638765852 L 147.11042511270213 279.8743812489137 L 242.24180636939332 628.6202889585046 L 489.9590980555555 486.2873473276746 L 323.1752842729546 457.8797042593394 L 523.4648791277556 634.2192233941485 L 674.3835722375218 307.6804568341689 L 374.3754462518723 245.16415090121203 L 460.88171577273397 399.78974495843585 L 438.4300417765133 157.39653100270266 L 117.9319247779398 307.25871206206784 L 313.9912876845681 565.9312308735239 L 380.19346543613284 385.29111368366375 L 240.25313714918028 555.3593363459374 L 572.0473413626733 645.6803484249288 L 592.7277166809431 306.8150730078965 L 396.59723551330313 388.5892220305732 L 595.0869493955514 374.6425990909206 L 409.3407729306193 101.66649066670044 L 166.30263703531597 354.6057660043645 L 383.32585811525684 445.3395583677837 L 253.88862476838096 317.7017235291021 L 217.50079778604243 628.6961457346995 L 573.6878402524301 591.4766988115609 L 470.431239440589 354.2405465458995 L 454.9775964128722 524.5753951140005 L 673.210952571128 328.76411388094033 L 374.0389611482027 126.10479089650863 L 281.8338681042165 392.1834360659348 L 423.0548021749629 300.0086033702466 L 151.92636492655143 298.8499758638459 L 250.21580326909566 645.5602801706289 L 514.7557491203555 498.29166321273715 L 348.43134101829247 443.60953801266555 L 528.5668863414442 613.7959337975565 L 674.6729287156548 290.01845218510744 L 360.33282421134936 222.86594320122978 L 431.3966851157356 398.12183957876476 L 422.8782296209262 173.81577672443692 L 110.46897408922632 322.556498160011 L 314.3117915117785 590.8966516309566 L 404.2575617731312 402.80447858542453 L 263.46510645498313 548.6250977205996 L 585.075802918934 634.9475550055657 L 604.4793866739856 286.5174191783334 L 385.896740731248 360.89182772134956 L 570.3247031858722 368.0283192084605 L 392.65149050546813 106.07430991239386 L 147.34542464530745 365.5390775023069 L 377.4054109656244 474.06038770203554 L 272.3702500091036 337.29465340359917 L 235.29584156815037 632.0672326661263 L 594.0323879280315 591.0978337587809 L 490.4456797788496 333.71295492391494 L 449.544883202103 497.0767323969177 L 657.8742103006607 317.01097413389834 L 357.0909833359052 117.61360375042591 L 254.83383204619827 398.58356084529254 L 412.5685541405571 326.9176756108407 L 160.53853842654718 317.7464709796424 L 260.9504503271935 659.800835454897 L 539.940769866859 506.8207568812428 L 372.2521525028579 426.2814773744775 L 530.4029031259404 591.5493459638399 L 671.1831371580879 273.2736190915805 L 344.20540217434626 203.45466625297811 L 401.70198372268004 399.8016022865699 L 409.20198732695724 193.39747387993447 L 106.73472691034942 339.00412957551987 L 317.93561831214976 614.3608957902445 L 430.1074921108985 417.48614028813654 L 286.629359496215 538.2816188780611 L 595.4915101544873 621.3195531098503 L 612.5532914982704 265.8627563700379 L 372.2609998156765 334.82790809908676 L 543.8506780033656 364.5156606482922 L 376.72280788712015 114.28944687106394 L 131.43688525846466 378.66812286849574 L 374.8723564207614 502.7614556261125 L 293.81212569309525 355.0577746743812 L 254.36955311451683 631.8058623159135 L 612.8378478924087 587.2324213964077 L 507.4479799513304 311.5433609894897 L 440.6895902708774 469.7329172213182 L 639.6231683566089 307.7066573242908 L 339.68913090140336 112.95002757716588 L 229.69380966333816 407.93153825388725 L 405.1156017386214 355.32732278819066 L 172.8493964099601 336.01489381319357 L 274.04792917843076 670.9578167908834 L 564.9498473155795 511.8055171905833 L 394.1506824257807 406.20082404751736 L 528.7848659585472 568.0072081218178 L 664.0707809514938 257.97526287814094 L 326.4457449192146 187.2698382256467 L 372.37273633886247 404.80900048198157 L 397.82871501884125 215.77495440155408 L 106.8535113454534 356.06414685678584 L 324.640158463219 635.8069933562167 L 457.2356408773521 429.0650651821014 L 309.18988484062777 524.4349071761001 L 602.9212900801817 605.2031569901321 L 616.8864607752217 245.407529514353 L 355.99299586016605 310.88583387555167 L 516.202311151968 364.29080401710576 L 362.08095793451844 126.14148158952389 L 118.90571324752312 393.54280459372353 L 375.70914078798586 530.8696770777826 L 317.84004474396727 370.5595225956815 L 274.17843720414936 627.8002953386386 L 629.5981074548272 580.108350936395 L 521.167526062517 288.23503773716885 L 428.52021427075584 443.10678271555616 L 618.8767988658703 301.21835740905414 L 322.38429144396446 112.16541654856064 L 206.8975974146617 419.9278351254081 L 400.88441422776447 384.69471213005386 L 188.6758641284666 353.12629390742416 L 289.05516211221124 678.7156966711749 L 589.2169855635117 513.2642766868115 L 413.6911532981765 383.7433258086376 L 523.6087508912198 543.7224085555471 L 653.5745691816905 244.6207215561941 L 307.5513838972091 174.5758191545265 L 343.97448252349227 413.0374260402085 L 389.1254783126072 240.51804787583185 L 110.86252104780675 373.1858853432242 L 334.12631435515505 654.7608956200702 L 485.09978651075187 437.35016991329337 L 330.61145211641565 507.27593667963475 L 607.0609166652735 587.0600266036105 L 617.5037476999917 225.70899554274132 L 337.4654439486747 289.5016815663646 L 487.9411602070643 367.45596954627854 L 349.2197317999321 141.37814542553735 L 110.00474004998512 409.6685584497823 L 379.8116520564609 557.8227952051958 L 344.01726259272124 383.4291836075318 L 294.16638506312836 620.0258446616596 L 643.8507472863724 570.0299244594339 L 531.4143136035041 264.32484520648757 L 413.2296631761284 417.7393682602852 L 596.1082811623567 297.84412534835127 L 305.72752660551976 115.2230375286124" stroke-opacity="1" stroke-linecap="round" stroke-miterlimit="10"/></g></svg>