<svg version="1.1" xmlns="http://www.w3.org/2000/svg" xmlns:xlink="http://www.w3.org/1999/xlink" width="800" height="800" viewBox="0 0 800 800"><defs/><g/><g transform="scale(1,1) scale(1,1)"><g transform="scale(1,1)"><rect fill="rgb(0,0,0)" stroke="none" x="0" y="0" width="800" height="800" fill-opacity="1"/></g><path fill="none" stroke="rgb(255,255,255)" paint-order="fill stroke markers" d=" M 400 400 L 201.84328924034816 187.67285433088395 L 389.96274781779715 545.2044333520466 L 231.14659093148157 537.0697688884838 L 652.1242850179822 435.02351909896015 L 451.72117581237444 473.5527530400541 L 461.59026059918546 106.79084014960836 L 348.4561802987195 431.16691430659785 L 140.77999254385549 326.5644892077624 L 489.2689113041849 573.6556836926213 L 341.96450741089916 561.452651696544 L 658.396996535897 288.97605642719634 L 428.03317833598516 412.32068957896337 L 301.9881323059145 120.07798776304281 L 345.1782563743023 504.50886760237887 L 171.02172188803993 462.82571985361125 L 601.7939578186812 524.3107224582745 L 423.43111781415325 516.3245339579903 L 572.5385473990824 158.89857149285706 L 370.3297131149564 403.871587175159 L 182.93469835023149 220.7927444670174 L 410.3792903110799 570.6740812422457 L 265.234318434151 542.0279533749432 L 669.1020430184954 402.22726760836673 L 441.19681116431866 444.8818555703599 L 423.136863137377 101.25145751285282 L 330.24679643547347 455.6720387171341 L 147.80685256091073 362.8368686080211 L 523.3469984261054 578.5342264180033 L 368.77003850932067 542.7899324509169 L 649.6104039967661 251.87574905743043 L 400.6747542632667 400.19720103189024 L 269.2831397749494 140.4544580967015 L 349.8456748542009 535.9813929188352 L 199.02952926242236 484.38636119107946 L 631.8361169635083 504.19070093023583 L 429.2276451014053 485.74290209140804 L 541.3513648960827 135.8736181131705 L 342.4485600239507 415.279594782038 L 171.5271926892751 256.6323846337808 L 436.86928654012377 591.2002830682324 L 298.6646502959755 539.1555653470458 L 678.9227113552932 365.9495323409896 L 423.986871734368 420.13950348658705 L 384.44212172263025 103.71824570463349 L 318.5114536981756 484.4685667368827 L 162.1627936336017 396.0627322606253 L 558.5304451706313 575.6065029308672 L 389.80363969941686 518.869741003495 L 633.1597093367134 217.04687238398623 L 371.1261935520891 395.50069529363793 L 241.78569315298307 166.89631362000316 L 362.21300082927087 566.1690558097599 L 230.34376631188107 498.78831265702667 L 657.3740179115887 477.5368730792077 L 427.25679620602915 455.2534924392771 L 506.02504675204426 119.70596452046863 L 318.0515176200194 433.6146212039522 L 168.02185994396513 293.4290585446453 L 468.15868788507964 605.505854258292 L 329.67442340481995 528.8344251913622 L 680.9670696622995 327.88869733471734 L 401.1846813226737 400.7571298176602 L 347.308288868866 114.03603369187687 L 314.0804663641339 515.9572245779341 L 182.94742963864255 424.67604904790323 L 593.0151430801695 564.7992614240488 L 404.030967354968 491.16837673697535 L 609.7420002091375 186.15836012790885 L 341.1620703174737 398.53878747007246 L 220.7147408689224 198.06784951541653 L 381.8033045029726 593.332837123524 L 263.24189094191036 505.4927908088405 L 677.0314869471576 445.520457643775 L 417.7619662797287 426.64132362728935 L 468.2039057039269 111.14973752930285 L 298.65019354675485 457.8966272529464 L 172.40847714285482 329.3756484161698 L 502.71541887613427 612.6368653340498 L 356.6344800232156 511.8376283149964 L 675.0181266989302 289.8399622060969 L 374.18108392935164 387.87898714606564 L 313.45498788346066 131.6442447385951 L 317.3978871771633 548.3910194427187 L 208.92818984298208 447.3572953436212 L 625.0268827044678 546.4518240442751 L 410.7816294766976 461.35850373334586 L 580.4155155103326 160.67727789859944 L 312.5805016537019 409.2062533177148 L 206.95343942972377 232.39168719366043 L 407.7556959522066 615.8874281673741 L 295.92471356389115 504.36745806870965 L 689.7343421889336 409.59542375828704 L 401.3870776589142 401.5885793997747 L 429.6605252794235 110.56570423094854 L 285.4932433071878 486.8264153593211 L 184.26622057535303 362.7154188872051 L 538.8297306952442 612.0129152679662 L 378.1352188444815 489.2887424534496 L 661.2726126711387 253.60125383418853 L 344.59123538154785 382.30194794546014 L 284.429117177957 155.60635014470935 L 328.4980009363016 579.9670609091713 L 238.6051694107134 463.10258282297076 L 652.9144882762599 521.2984716834808 L 409.7843209910327 431.2211215829533 L 546.5442278722998 141.79192265221673 L 287.10852474518856 426.99050639712215 L 201.00297603417613 268.1315526263354 L 438.8703826796119 632.4846200173988 L 326.61094000283225 495.69317629090233 L 694.7668384059575 371.4223425650631 L 379.1426367318202 381.58611366007756 L 392.2028680320816 117.90240625843654 L 279.50059607033836 518.8538745343303 L 202.78593378143242 391.8341501391456 L 574.7038900982719 603.4577929766172 L 393.06061055127947 462.6026010398275 L 640.330751568 220.87899183471018 L 314.16961260701004 384.43355174360084 L 261.523825120047 184.65905885128822 L 347.0033383966637 608.9213231961735 L 270.2900132433389 471.27620794494743 L 675.2364977207153 490.4300895714144 L 401.18099642133564 402.5518494036152 L 509.7263755103358 130.3495562355095 L 266.31120517216044 450.99847263323227 L 202.95644749741098 303.48339268595066 L 473.6715279164915 642.084246638287 L 353.6307688118624 480.1490605722209 L 691.8092956259904 332.7813885322631 L 352.3525360156338 367.85500656312104 L 357.57952822143085 132.6989351333304 L 281.21494329513945 552.2594074052502 L 226.8127841238281 415.3447822245954 L 608.5464940943692 587.2089166897206 L 400.64679117577697 433.4108018760989 L 613.1648504973791 193.19865611123512 L 284.717703746902 394.27050223544444 L 245.7108100379962 217.2786598569108 L 372.1443149423986 633.6213720714663 L 302.194690695111 471.6438637756747 L 690.8368362792438 455.2370875549429 L 385.5193357619812 377.0664444556127 L 471.7106962228907 126.81204263388656 L 251.5092494978299 480.00345108285825 L 212.4941669804635 336.67004484203744 L 510.48460898903664 644.0089563177535 L 375.5136279544951 458.77661833910236 L 680.9549355430156 295.47905877499454 L 322.5843950933301 361.2822910472173 L 327.38810414011493 154.10920288994973 L 290.7730377828189 585.2442634007032 L 254.90706781210392 432.1601258679591 L 638.6664578057932 563.905055348147 L 400.52215641476596 403.4758235073312 L 581.0683553616476 171.82485260622644 L 257.98922664505653 411.39874359698734 L 237.58950025831513 251.76103366756482 L 402.7994629281221 652.6521870400695 L 332.5254993192898 464.38477028521123 L 698.9055099921186 417.3365922536126 L 363.72389925873523 356.3105169309581 L 434.3047621226117 131.23171838708618 L 243.70944864676082 512.5095001881218 L 228.90064480392866 366.03448897398835 L 547.524213629026 637.9799351219885 L 391.06544358064536 432.92485701464415 L 662.7050415665086 261.25350855867106 L 291.56709847271964 362.3742250709632 L 302.9915014690638 180.9464334175833 L 307.89831048487997 616.0250344763499 L 285.4199702393324 441.5498216592167 L 663.5617400896219 534.5529766376952 L 392.7268514828088 374.59826940488375 L 545.588047962023 157.69507460801083 L 235.59785304518192 435.0151120788515 L 237.35578265130465 286.3111312168764 L 437.55414516753416 664.8905720292714 L 359.57736122249685 450.08208628448847 L 699.0211319133825 378.4877341951534 L 337.0474858921572 341.5781821422981 L 399.2802284809211 143.24876315468066 L 243.55160481478367 546.8299684906914 L 251.10235147754307 390.12678452250736 L 582.9876639880839 624.1317063236061 L 399.43138331318386 404.1792429552144 L 637.9426966186307 231.68347383210514 L 261.0998607482523 371.2295634557914 L 285.4465625660985 211.74553813569491 L 331.91519295070356 642.9273511873621 L 316.5803031599728 443.17855671577905 L 681.9981478268812 500.47477286691554 L 377.7106330723799 348.52211093224463 L 508.4429448927747 151.37063779170018 L 218.93228424803524 463.96942599210064 L 244.79192162940592 319.1372215461288 L 474.77466656306643 669.5642470182011 L 381.8234602373168 429.6921066513131 L 691.1730479292346 340.49947819181597 L 307.00524990923896 333.8439220141753 L 368.2799721108036 162.11020840375227 L 251.27472906947355 581.17604602037 L 277.7242797594443 407.7801278011929 L 615.1495520875449 603.0052285146999 L 400.1407792342903 374.27824234270497 L 607.8864777060033 208.1055632774588 L 232.95759437119196 387.5342330124076 L 275.44876933121236 244.8401004784825 L 361.7843934961775 664.4738588910759 L 346.5876638294777 437.1235320986976 L 693.0740807705472 463.2386305421497 L 356.30921572119513 326.8429051648406 L 471.4341568990679 153.00736534678487 L 209.08313794743515 496.82480393186813 L 259.27819778916955 348.54495911976016 L 512.6938922799545 666.292517496371 L 397.99551279952317 404.49386251687287 L 675.7619003094896 305.1358367876069 L 275.2950351646565 333.7112341307072 L 342.73199548679446 186.70958593164423 L 266.7042848527791 613.7506863645259 L 307.16233539407597 418.1720356190125 L 642.4522225672692 575.519654689969 L 393.13187154307326 345.02182682464434 L 574.0265387987334 191.5442628648533 L 208.79754949100402 410.5776906938575 L 273.2959232361653 278.44992653599826 L 396.157274844575 679.4618542321865 L 373.70712399328465 423.87026386001367 L 696.2678171267619 424.57667889495514 L 329.7003447179516 310.9238074063954 L 436.35044205039316 162.34756243289783 L 206.78548572896415 531.9330438795756 L 279.82565484527413 373.02633112871143 L 549.5038766324462 655.10638600844 L 407.15045725344146 376.02177117906814 L 653.5785993955537 274.0234440263349 L 243.70811076560318 341.3807650396474 L 323.77461751486794 215.6451341031679 L 289.26114744296103 642.8429673869964 L 337.66775497126775 420.8674424150203 L 663.5874514119903 542.9242351423775 L 378.7550735209841 318.1767486316701 L 538.0464383677293 182.65832834363968 L 190.07212853875146 439.2901058962071 L 278.872709572033 310.77456434765514 L 433.44647793844393 687.0265050035684 L 396.3604762875085 404.28693834499546 L 691.4648568611115 386.2942311265522 L 299.34190228538426 301.8237889381048 L 404.87441220616427 178.73370125922565 L 212.3800588815826 567.5211049385681 L 305.12823506632253 391.3388140023101 L 583.4506387016336 636.4470495840964 L 408.7200595218809 345.98487258867095 L 625.7628076546787 248.5663428460591 L 214.03499556806008 356.63960135538304 L 312.19687917763605 247.29350518280884 L 317.99180907570974 666.9179355334096 L 367.4391177971592 415.84144787128855 L 677.5650316424645 506.7328896947232 L 357.75458633507316 295.3835595567177 L 501.73481650660773 181.70638053778904 L 177.95245397841765 472.29841450409066 L 291.6569562994608 340.08788093153356 L 471.90908349615296 686.6863335289763 L 413.2092463906056 379.57866853726927 L 678.9638869244568 350.17518411787586 L 266.8952972527287 300.2418296084583 L 378.49431793806315 201.14309802201558 L 225.7951598490586 601.7841504364429 L 333.63156529542783 402.57058248955735 L 612.9261079701475 611.1428618414222 L 402.54083016725394 316.1768936387206 L 593.7431161728687 229.87246060312165 L 187.97131697272425 378.87228116054655 L 308.39729331373303 279.89510315420563 L 351.61824377813394 684.697215814123 L 394.7171198836072 403.4805205677169 L 683.7646644985846 468.64488485867935 L 331.2293291093507 278.0702565950363 L 466.8915595740228 188.53350994033684 L 173.2667029818763 507.9983012812585 L 310.7472586551555 364.82873058798685 L 509.737944505148 678.3685750780205 L 423.22511166700167 351.2240536765936 L 659.4610551958901 317.8885440793207 L 234.13816122859743 306.48001600060354 L 358.4260441348289 228.24176061010462 L 246.55022936758465 632.9802665662498 L 363.61478128246625 406.1883470824117 L 636.5524118647168 580.3659694155617 L 388.8626817716922 288.38186312960244 L 559.1620550190694 218.69563346238465 L 167.02864766548433 407.09294762463537 L 312.3631044998729 311.64657068189274 L 388.6048135948892 695.2261544663788 L 417.87713312166653 384.5620945665903 L 681.968431298164 430.45578116661653 L 300.57523589580103 267.3770890718592 L 435.23337976230215 202.5795938606439 L 176.4564473492119 544.6383307721524 L 334.91051870549825 383.6829532774024 L 545.1563937681844 662.4130796257225 L 425.7440283608728 320.8973736704904 L 634.0133789846946 290.9009864877597 L 202.87093582757808 320.42748314286337 L 345.54941232773547 258.45457929946593 L 273.7808821462249 659.5218827500304 L 393.2810933845854 402.06530778096334 L 653.2540792360691 545.5708997010634 L 368.335871954354 264.2802339291119 L 523.7898753126157 215.39622388928808 L 152.4550025612537 439.99695653725615 L 323.6711479759271 340.7955684618071 L 427.23870300847005 697.9239684868724 L 435.51468901890735 360.21363044679293 L 672.3721408986712 393.96332685253475 L 267.41194964733234 264.09647597456296 L 408.30376771497777 222.9088892117589 L 187.5532915050108 580.4118089327887 L 362.64690327127573 395.65239715727705 L 576.5113533869153 639.5545519965312 L 420.5012248962284 290.38050417370295 L 603.9832096178349 270.4000417849512 L 174.82225630636057 341.5660431909748 L 340.3621344955624 290.0481744536182 L 306.2840965925131 680.0590931041068 L 420.85233767227896 390.48775633727905 L 662.3143683596243 508.4183246652448 L 341.976917615746 245.36044222270553 L 489.43163044243244 219.92239911660417 L 145.16917092486082 476.0292278826913 L 341.51026233813286 365.73286982991743 L 465.71965796191313 692.6142685664106 L 446.5193979203185 331.85329067881503 L 655.5749569685926 360.8732394329814 L 233.49776263801996 268.63118872701045 L 387.39204667354966 248.25934680217907 L 206.17703551155444 613.5515517493066 L 392.26880896512534 400.1073407512691 L 602.3599569815979 610.8840629202 L 407.6452236053523 261.4691779996323 L 570.9666694164189 257.2319403294688 L 151.5581001635838 368.99720567719936 L 342.9538361895942 321.2220506115008 L 342.5811857605029 693.5505036649541 L 444.6625471962736 372.13998032896615 L 663.4127616915141 470.68800392118317 L 311.1152702664596 232.8405482227547 L 457.83243575329817 231.81305351266744 L 145.71233214283313 513.4657523181197 L 364.72407889701014 385.0769344907561 L 502.2543172886025 679.5343525809042 L 450.1334219169616 301.11534470270317 L 632.547849843351 332.7098226228579 L 200.6372699953204 280.97299550630686 L 373.4657786900985 277.1090573770366 L 231.55545972212434 642.4225844443041 L 421.98968754549855 396.8195619505935" stroke-opacity="1" stroke-linecap="round" stroke-miterlimit="10"/></g></svg>