<svg version="1.1" xmlns="http://www.w3.org/2000/svg" xmlns:xlink="http://www.w3.org/1999/xlink" width="800" height="800" viewBox="0 0 800 800"><defs/><g/><g transform="scale(1,1) scale(1,1)"><g transform="scale(1,1)"><rect fill="rgb(0,0,0)" stroke="none" x="0" y="0" width="800" height="800" fill-opacity="1"/></g><path fill="none" stroke="rgb(255,255,255)" paint-order="fill stroke markers" d=" M 400 400 L 293.94737532941105 302.2550121457416 L 420.5868478013354 652.0920636241335 L 584.2810437463613 164.10586503729266 L 131.57660208134456 444.13539938144504 L 548.4879026339685 497.6436884245405 L 390.40754555674147 361.54371892253766 L 451.8974888681539 305.0490045188329 L 182.67672108615835 473.45238681102956 L 668.6868062631771 519.5771072408104 L 286.5352044726886 137.08371878193435 L 331.1463005101762 596.3684539526777 L 469.3693843695045 363.0972276318611 L 468.00675394901873 417.78266653899675 L 291.01119664030944 230.10533217684443 L 350.8099674792204 679.3931512113525 L 635.0377678396221 220.6304098084243 L 166.1944019898468 378.24245137698597 L 477.7373211370483 486.28216402707125 L 399.6478144404591 431.1438672269346 L 517.1379829192765 275.7551672993005 L 132.3472353564366 418.8135134959094 L 634.1423227923157 587.2141553120871 L 361.1087860738509 145.5297174088495 L 315.2432967057394 525.769235466604 L 408.31631451258255 398.02520996799007 L 519.1792489839867 466.9011806667279 L 323.18213411282574 163.95295858667856 L 275.49107967634114 671.4627277585598 L 654.1875852901906 293.6954161750965 L 226.5657511135485 336.9766928714139 L 422.10467487970266 442.70996529702484 L 373.5590838805451 496.64035163788566 L 589.7250229174354 281.2964615159225 L 112.73194530569401 346.06760723775704 L 572.5916281084847 631.5388889710965 L 422.2538364359159 186.99688209322315 L 334.86649784346423 457.3621074984512 L 338.060741451311 398.5989599694628 L 540.6811564788326 535.6714756400332 L 383.479843439264 119.6911905744359 L 211.92066160898182 629.8467981980723 L 637.6799223240635 366.4206918317729 L 297.98507094951884 329.561059228969 L 395.02056793090975 377.9227415434375 L 318.27991159994207 541.7973628198829 L 652.3120642328439 321.03277442780944 L 128.757541837433 271.8601854811078 L 498.2390464245941 642.5718576776854 L 455.9817966371858 251.20676293687725 L 384.7360528913414 407.682331024136 L 275.95801228693506 364.5495711434939 L 526.7226090413932 607.7295575081348 L 458.24097829773154 108.0275630746176 L 174.6058511591173 564.0793523461282 L 589.922730432216 422.0161993150523 L 363.13435679666856 357.1730098849854 L 403.1235850655617 307.9582330923786 L 246.8939281934705 555.2081938918359 L 689.9143022694648 386.20138523503607 L 176.89904759707966 213.1891218649706 L 428.31855926293815 618.2314594646937 L 454.8231171461157 322.49044980412367 L 452.38395278260595 388.80594821078495 L 237.42982516615945 303.84313678141143 L 479.93538918775596 665.9175189255577 L 530.36361899788 131.94102684018162 L 171.82561610182904 489.4184318884692 L 522.7355375598815 447.7690534072076 L 406.19586344442575 412.6651300759818 L 444.68373256897155 250.0875042515308 L 176.32284838961056 533.0042748448146 L 693.4671995084886 461.9976223985051 L 246.0167988395461 183.36834680068043 L 379.0013621600048 564.8280650813363 L 419.6008717975674 383.509666413614 L 521.115073703151 405.4819490768918 L 232.30174749006275 230.78906472663977 L 410.7482059019503 696.3580905855175 L 583.3682698307297 185.97445151668586 L 203.6649410970715 423.2228955640201 L 452.5424557777159 438.0623027949524 L 416.6085160235613 482.2626653269483 L 510.0131925292204 218.71329408449392 L 123.30803728583328 479.77410560592625 L 661.9791156151402 531.0903201537491 L 320.0017029025236 188.86638190294852 L 361.5558078252832 495.5652808769886 L 359.23509725179105 419.3742894162091 L 573.9720466191109 454.00441739259935 L 262.4696615210545 162.6420233770748 L 334.9104137407599 691.7501355894296 L 605.3110492592504 257.53046293203215 L 261.99485926317607 380.8303018050314 L 396.47172951094933 395.7086178584727 L 391.5760009929512 548.8348705384329 L 583.7668477184349 221.94951474851862 L 100.43489981720563 407.4738661503392 L 602.7668497346201 577.737249406154 L 381.6005949255606 227.7704699130049 L 379.67164431105203 427.4042596283473 L 288.62432204614663 421.1784940823914 L 597.7624047371287 523.0924904002258 L 321.449292912939 115.50446392094369 L 269.7522234685544 653.1024968416531 L 591.6197972489324 329.86288866921467 L 332.4030702093499 371.91479906857694 L 368.28807515402207 331.2821702362086 L 336.7309341105002 595.9633175338914 L 648.5862652627278 259.69417320644556 L 113.14419237151691 332.5884039114734 L 529.7181600947529 591.5232206661733 L 416.51327611752265 290.24102722371674 L 428.583968484211 377.03569991501564 L 225.10736430396105 388.115788526731 L 586.1916712820761 596.5691659905494 L 395.91579692733166 100.50275784806882 L 230.0695019581062 589.494456059672 L 546.1796017981225 386.0534253356867 L 397.61667539653126 398.1899253765495 L 375.1237703753098 260.6073645899155 L 264.79738359085644 611.8410490590902 L 689.2217925303555 323.65334486357574 L 158.43998841198754 272.2167863438167 L 459.9938650323243 569.8331617674219 L 416.7882989295778 360.848498860954 L 496.20493186096553 356.91607424597987 L 184.3456245836329 327.6706735551227 L 541.3583647304649 657.2028138298421 L 468.86779275406786 121.14501262555973 L 224.6104088896331 515.9196888303999 L 480.40996185380095 413.0291777011961 L 441.60422458747445 453.001839376151 L 415.7847701804819 201.00078025697763 L 192.56936262686392 592.0766365725535 L 696.1538800722635 399.3105061369378 L 225.60112098399412 240.01199289563732 L 409.9526863498232 518.4728820473525 L 382.71109294885116 422.23767660763417 L 565.9944495153175 372.3093735637983 L 176.6037169276092 253.84141410405798 L 473.255898501308 690.7991364993487 L 523.6644742970692 172.48801214003862 L 253.99819797892832 449.7257174852932 L 410.55273530167887 404.66701392520616 L 453.3829493164342 522.9095793786164 L 481.0341009644454 167.15875907545276 L 136.9228167334299 540.7372546043941 L 667.8536663457013 469.3735633516715 L 298.7271539452229 242.93895855530718 L 391.26657337558106 450.29010854305085 L 322.7360532300569 459.24930471651857 L 620.8881970381723 420.03687307610375 L 204.31168673021722 183.81596546356522 L 397.399660234093 689.5718516699254 L 547.9770939730017 242.31111079049333 L 310.5834606153157 406.49439447248267 L 353.8149103953635 363.2475373334865 L 429.6270693416276 590.8770819591019 L 555.7852342640642 167.66722502495173 L 110.80814995579823 469.38306992754417 L 611.145997109815 517.88100284254 L 360.5142832948469 279.6208449877521 L 408.1490121337781 382.1232605315856 L 251.47871827933338 462.5202043487546 L 647.3501034885401 489.2318159486255 L 261.4877221771062 133.89043096660674 L 331.14277442427647 653.9916503865513 L 536.7164501409043 314.0183134415811 L 380.26089991831594 396.3416888913002 L 324.2821871433971 298.9133961980771 L 375.45777046476434 640.3189428253495 L 622.6845739102953 202.96255826559613 L 120.17495547390138 394.32225165355703 L 539.5886723180989 533.9920638549723 L 396.36449517363815 340.666254604271 L 456.3545204643551 330.80254521396586 L 186.2448406294845 430.70698543329195 L 638.5869838782583 563.9197981606717 L 335.1584496038745 115.59930591769483 L 289.5554540729132 592.6743543969851 L 493.24117995045765 370.57937650893723 L 445.8192009026559 421.51547580525875 L 329.5737815474689 227.26056819316292 L 303.22725548957885 659.0391621909719 L 666.232313785222 265.22776037209417 L 162.55924305351135 332.738462294785 L 470.2528051175335 514.5608717951907 L 397.85216775161564 410.89968306772715 L 524.1869216444236 309.1530051834968 L 142.92060099489333 370.80527503827756 L 596.1619237084776 626.812083661882 L 408.43953150043563 132.97646908749198 L 281.84648269580566 520.3348321291002 L 428.55992115339836 398.5740263096981 L 491.0284939918181 475.8617877391566 L 369.03284540213195 165.63462372167461 L 229.58562293417674 642.1275301441937 L 676.4630750742533 340.2485687596611 L 227.6686582029145 298.61044480893776 L 419.6688697667781 464.88324558283364 L 364.724893748297 472.9655385898269 L 595.276959032564 322.9486848253776 L 132.1999279467248 296.4886541574576 L 529.6232807260935 663.4110411499486 L 464.5450093583146 181.5973614389358 L 309.1766268844192 454.29256240993175 L 358.71680775021014 391.3789032792809 L 504.49475084451166 546.2862790296944 L 433.88222761173483 129.01150445577554 L 171.52710962062125 593.1258395342439 L 651.3122722479103 410.7887438997093 L 299.82671943640236 299.39269216651985 L 399.90114137829426 397.43883285045644 L 304.9633828970333 511.4498717813045 L 652.4696440886796 369.5412180241907 L 157.04483169668853 224.86175997946071 L 454.2374057792143 665.4527734274634 L 490.77328202520965 249.62980843422127 L 364.38323412077835 410.3586791220695 L 300.9811729407148 350.740419849095 L 482.3657986685331 615.8638451377865 L 509.30858804858605 126.44101972679232 L 142.35460646918506 523.1869826029737 L 597.1062605372092 460.68299087852176 L 361.69563402298365 334.2454496699569 L 415.6827408359882 328.927281618551 L 232.88621916902622 516.5410176971517 L 681.8981987537165 438.4885102282955 L 211.98185340597797 172.39860309329947 L 387.3634995700689 632.8694089540986 L 481.52315866100935 320.6439442845578 L 433.68141625297534 399.08121137235844 L 269.7463009509349 286.3600212022542 L 429.2463484435263 667.8579472454371 L 577.9799439155477 158.8976332774248 L 148.52076470718313 448.42662287955204 L 527.0598683129758 478.67555829829917 L 398.3936251312363 394.2343760403488 L 463.29163347718554 276.3022768133613 L 165.74954116592343 486.35984748447197 L 676.2771421079622 514.0342201382721 L 284.40170414905975 151.0306382822891 L 344.3314777398334 573.8050650049943 L 439.623756180992 377.51395784144813 L 499.9378339257335 423.2401720986199 L 273.1111622542337 213.59033815542162 L 357.1047427492258 689.6951622934561 L 624.1613275069609 219.0489198728633 L 188.09584342293357 386.09634786309863 L 458.13810944402894 461.0929522056353 L 401.0290176020121 464.45244912731584 L 531.4345011576479 252.74524973067213 L 119.64912873376369 427.40625841754115 L 636.6325031312988 578.849231925578 L 357.55346483437825 165.31356517342732 L 334.8017386657991 502.68169167849726 L 375.66242695266936 406.48510201123537 L 546.739647489702 477.187343168246 L 310.9568768015116 149.78933293819608 L 282.43104064316 675.9511113578681 L 637.451199140174 292.99667704917397 L 251.22614275782567 350.4870741409502 L 407.0273332751756 412.71606856857426 L 368.8118334782482 527.5602215018745 L 603.9285922287531 264.5348945675822 L 105.69803831980636 353.0158730411049 L 572.0582812511516 618.1466206048468 L 414.52230644102167 211.3456661329157 L 360.4712896176502 436.7741060298165 L 305.470315649109 400.44016300247455 L 562.2923695895311 548.1875399900155 L 374.9746928017581 110.19822867963848 L 222.32131671837521 629.6386898947158 L 615.2513193171243 363.57722556616204 L 322.47415731073926 349.53553426832167 L 386.17255411800505 345.6446367464556 L 309.2414510031344 567.9037118303474 L 663.544683308137 309.55589643982285 L 127.38749429627751 280.1934391314628 L 497.5569886042555 623.1929187596296 L 442.2461307193992 277.6945465415373 L 414.6709635825735 392.1075522316808 L 246.36265691582125 360.5896921427353 L 542.220985810016 619.4428419397494 L 450.63883694754213 104.32210177119879 L 190.41804627805647 561.4926803260123 L 563.3835530148516 414.43716740080566 L 384.48472717514636 382.93971201822524 L 400.82198630378684 276.42363768800146 L 236.3257631772667 575.2320452134421 L 696.0985543858749 377.80100734266415 L 179.75775250246767 225.574911404118 L 430.47708619910463 593.3818547596394 L 434.61728895873483 348.1122018798654 L 483.9493766821451 379.6520052288475 L 213.0266405575795 296.18461634095434 L 490.60915364034963 674.0816164845997 L 520.6557381358433 133.67264757709864 L 193.67062418033927 487.42063190232653 L 494.70713200921944 433.91672013315474 L 422.1065758097452 442.23075858574373 L 447.7806270510158 222.11409414359713 L 167.2547370577339 547.1320043518335 L 693.8193636766362 453.7472408217576 L 250.57583329223417 201.47711018454532 L 386.393325542052 536.3781063660433 L 393.9328053955259 405.39365727321973 L 551.2674794823104 402.71696687192014 L 214.0333640327923 222.3194743298635 L 419.0296982923337 699.1650527372067 L 569.0705283514658 191.40915099790402 L 230.68530556210126 424.7253542143288 L 426.0647377380771 417.81844192904 L 425.99048200985953 512.7843115397844 L 516.1688772083068 196.24131297425077 L 118.31831258971232 489.60135204490865 L 657.1950251869321 520.0419041145001 L 323.2404446817005 212.9730551218198 L 375.4083020225495 466.2969322499607 L 330.34871687696915 435.46285793372715 L 600.0450834281244 456.16541934627776 L 249.8021883644089 156.34795005269132 L 343.79663604220696 688.7597621574293 L 585.0556390062524 263.9629215883116 L 292.0564123643173 387.99607893309553 L 374.28262668927744 370.40385061649647 L 394.8096183546308 577.2935831327503 L 590.0060482080485 205.58276143378617 L 101.03802848938614 415.6247764916834 L 594.8563622226576 561.6231358983565 L 380.7242557196133 256.6875022179066 L 399.75350006523945 400.3519692999905 L 259.4681082756298 430.7155230447189 L 618.0984228218124 527.6336005332442 L 312.5009074235304 113.7619160832723 L 282.09129440306964 645.3467876618308 L 565.4818046737003 334.2594342745666 L 362.60015307171335 385.6440266005226 L 352.17465935431056 303.3812671025611 L 335.57478633576375 619.8794542800899 L 652.0052429290405 248.5583691594061 L 119.43100835623528 342.09063339977274 L 521.5275472066579 569.2964345683968 L 409.6173378591069 321.598711140262 L 453.25951625210405 354.7672523788801 L 198.6356194296494 391.82512653364256 L 600.5336888353 600.466938018549 L 387.90543774854774 104.51260168838058 L 247.88246968621172 579.2324199648089 L 515.6609311453742 385.7730052766446 L 424.9605844052661 417.90508669319985 L 365.4991668072294 233.12524273771032 L 261.96968837932855 629.8615390724613 L 687.6784299481084 315.60551526931397 L 169.05603557281103 285.78067434451026 L 454.529542362655 541.9178493580125 L 403.3115674754904 391.6560448924861 L 522.8212679018176 340.92424026081864 L 162.81837707672653 327.5831335586284 L 550.9094001805561 657.6749376551929" stroke-opacity="1" stroke-linecap="round" stroke-miterlimit="10"/></g></svg>