<svg version="1.1" xmlns="http://www.w3.org/2000/svg" xmlns:xlink="http://www.w3.org/1999/xlink" width="800" height="800" viewBox="0 0 800 800"><defs/><g/><g transform="scale(1,1) scale(1,1)"><g transform="scale(1,1)"><rect fill="rgb(0,0,0)" stroke="none" x="0" y="0" width="800" height="800" fill-opacity="1"/></g><path fill="none" stroke="rgb(255,255,255)" paint-order="fill stroke markers" d=" M 400 400 L 405.46968307899226 408.5141792809455 L 408.4092440766281 381.60290162809474 L 369.9932518613399 404.29867969716224 L 426.41186854772997 430.52289001969393 L 414.231573946662 351.6838757303386 L 342.10999217973114 416.93383546762516 L 452.99476569582555 446.0309005750836 L 411.492078900498 320.83628890731603 L 318.3478229457114 437.1382223337637 L 483.4508692264865 453.8315621425608 L 400.20372505437626 291.2004905318566 L 300.4600018313024 463.6835396651512 L 515.7723380665973 453.18139753277103 L 380.89715800513216 264.85116596931704 L 289.8514032588884 494.95296497353866 L 547.8298185689515 443.8444458605172 L 354.5896218126761 243.6743750131717 L 287.4950379420991 529.0366357244434 L 577.498456569298 426.10664752078463 L 322.7251447022994 229.25571077858584 L 293.8740574451327 563.8444453600262 L 602.7836626461956 400.7594199229325 L 287.0895203300595 222.78617889566883 L 308.9526666202844 597.2294981075685 L 621.9392094606253 369.053392300812 L 249.7051006176438 224.99135131813594 L 332.17766114126755 627.1149382110613 L 633.5706924478977 332.6250286326811 L 212.71160736839155 236.08797581282585 L 362.5105003821769 651.6166700862594 L 636.7182487049522 293.40046740170374 L 178.23999484437522 255.7706022568934 L 398.4880242213218 669.1547283043176 L 630.9136527031219 253.4822512204237 L 148.28680553205217 283.2290158084829 L 438.30823227362123 678.546725957661 L 616.2084192614736 215.0256289141526 L 124.59643226879666 317.1954493467353 L 479.93606529530433 679.0778673441439 L 593.1712548331027 180.11172794058058 L 108.55823344637969 356.01879052922874 L 521.222948311478 670.5433936293125 L 562.8550066559299 150.62507971535237 L 101.12457168119533 397.76140607118566 L 560.033043023597 653.2609566314839 L 526.7350589993846 128.14272361467164 L 102.7546118474454 440.312871381101 L 594.3687611699165 628.0521901522291 L 486.6228104076205 113.84143229141932 L 113.38719454372858 481.5138962295448 L 622.4881340974769 596.1945656609553 L 444.559336102291 108.42853177583919 L 132.44438558373832 519.2831355359041 L 643.0071142843109 559.3463724018357 L 402.695508814314 112.10039771838933 L 158.86549218210266 551.7394041252577 L 654.9807735793755 519.4492476841193 L 363.1656502830179 124.53107620928125 L 191.16953893754084 577.3120854796696 L 657.9586080469494 478.6140076772373 L 327.96216735213693 144.89170022562774 L 227.5425175579584 594.8332210855026 L 652.0106870509283 438.99651431291596 L 298.81856848537626 171.89955577579 L 265.9442626032521 603.6058478577306 L 637.7231044471996 402.670901758985 L 277.1077620467607 203.89390244768506 L 304.2286475738552 603.4445525378071 L 616.1630009715889 371.507641692427 L 263.76163601839994 238.93407452993154 L 340.27000978500064 594.6858512130075 L 588.8152222630332 347.0636410706396 L 259.2166631654345 274.9140743111684 L 372.088344989009 578.1677824844031 L 557.4943504840669 330.49085612516103 L 263.3887400794719 309.68689611545517 L 397.96588533390167 555.1799192693787 L 524.2373005001908 322.4688137749113 L 275.6787436652052 341.1912455483343 L 416.5481826909983 527.3867495768171 L 491.1828182765579 323.1650210341724 L 295.00847621852364 367.5731771335435 L 426.92373364085813 496.72894787398445 L 460.4449919164153 332.22559751119843 L 319.8848772425421 387.29547339535674 L 428.6774485386372 465.3083631528373 L 433.9882390089495 348.7966828288737 L 348.48871234738823 399.2283117687058 L 421.91481037951746 435.26351053908945 L 413.51114679946875 371.5753549902061 L 378.7825053664142 402.71586981958137 L 407.25529859127107 408.6429135742244 L 400.346019327564 398.8870544724748 L 408.63134442340396 397.61493900163674 L 385.79546636276126 387.2837711011453 L 395.38005889160416 428.7849449102643 L 435.9294331126721 384.3032687804009 L 359.04385066111513 372.70310848444774 L 399.0028326772111 459.1653469058986 L 458.7249189647181 363.65714897811216 L 328.83155606973776 366.00783627366616 L 411.08312446262335 487.89243313410094 L 475.33563303187736 336.9995532568162 L 297.20378890263754 367.8290237930213 L 430.97653748170814 512.9248264581558 L 484.448910711963 306.02190365497256 L 266.2987420722285 378.2842663843331 L 457.5634000914924 532.4366304801488 L 485.1996031650529 272.68407256685464 L 238.2209775497549 396.97036739760705 L 489.3147379121656 544.9257504440266 L 477.2216755233885 239.09852262386866 L 214.91677792732614 422.98676734797954 L 524.382420075076 549.3031122961294 L 460.67034653603883 207.4054208870923 L 198.05882245621407 454.9883384729635 L 560.7081608413647 544.9575147627502 L 436.2134624396025 179.64609633652813 L 188.94699277763334 491.26443025323573 L 596.1449453003843 531.7922870119147 L 404.992613122819 157.64230742341226 L 188.43116189383 529.8395025595973 L 628.5837147692147 510.2315880059133 L 368.55628394707185 142.8884436799445 L 196.86052289466392 568.589409327671 L 656.0778371229403 481.1959748545851 L 328.76898657060633 136.463022289969 L 214.06244805299647 605.3664722079225 L 676.958017962617 446.0486807037928 L 287.70172944719116 138.96470208567365 L 239.35212656249774 638.1259649710069 L 689.9308724773108 406.51577088708524 L 247.51028969529196 150.47659090060614 L 271.5724131912466 665.0465461729304 L 694.1553418878492 364.58488733128115 L 210.30846780954303 170.56095285478486 L 309.16153762247245 684.6375346132008 L 689.2924455417326 322.3885545548432 L 178.04380273721162 198.28462851205046 L 350.2446804175909 695.8266983898711 L 675.5254329470353 282.0789315091556 L 152.38307970093206 232.2736687442775 L 392.74401336178727 698.0233780576464 L 653.5491464697286 245.70139824013404 L 134.6143853842396 270.79395948841716 L 434.500712516783 691.1532197079581 L 624.5292220278767 215.0744351067106 L 125.57148878903268 311.85308108174166 L 473.40174589708124 675.6624688311553 L 590.033534707614 191.68288102891643 L 125.58500883733404 353.31739299723915 L 507.50395597758114 652.4915717687911 L 551.939933802786 176.5908678594197 L 134.46324933788662 393.03743649021976 L 535.1481168590748 623.0196424546896 L 512.325710729978 170.37956704486706 L 151.50383152416217 428.974256914756 L 555.0562374398712 588.9830711130749 L 473.345321032092 173.11342077847522 L 175.53543727245426 459.31919322839593 L 566.4063704716799 552.3730772381796 L 437.10357468698305 184.3368492123289 L 204.9871995398331 482.60006767756863 L 568.8805145899937 515.3182514751594 L 405.5317762873654 203.10162714486438 L 237.9816453441192 497.76751109866314 L 562.6827839788319 479.9590166638486 L 380.2741225654576 228.023314060397 L 272.4457069869721 504.25633133559995 L 548.5267746194162 448.32141506865395 L 362.5910595004682 257.36340719958963 L 306.2332511885994 502.0183048092538 L 527.5928735475147 422.1976685268565 L 353.28530055423334 289.13236962746214 L 337.2518962533047 491.52445739565155 L 501.4580309500349 403.04055858058507 L 352.6548704851767 321.2074536388659 L 363.58663442664835 473.73670098270077 L 472.00213971915304 391.8778582213966 L 360.47594458898965 351.45836689479336 L 383.61296513400873 450.0505001894663 L 441.29654726874446 389.25186372610307 L 376.0164951754342 377.8733659666832 L 396.09286372695755 422.2119530190185 L 411.48127863849027 395.18759406358816 L 398.0799393652446 398.678336790391 L 400.24792313952753 392.21417888626434 L 384.6382159853881 409.19153385634615 L 425.0762121095282 412.441835342911 L 395.80535276295024 362.17912835546065 L 362.6677181174685 430.2809936907191 L 455.1160701537883 418.1598902715379 L 383.01412036663993 334.2317891139088 L 347.17596072445843 457.0423550448638 L 486.12306196132687 415.31556333236273 L 362.6302845785973 310.37421133984367 L 339.37964542290257 487.71476279128177 L 515.9565562527866 403.9097528802209 L 335.87238330447497 292.3667862659782 L 340.0337008942862 520.2943267257969 L 542.5385693113781 384.4614224178861 L 304.3495102821894 281.6237838141493 L 349.3862427786062 552.6526834712654 L 563.9769070466432 357.97724024455107 L 269.96632348088997 279.12931383790993 L 367.16345065014025 582.6629227502251 L 578.6773552290929 325.89242110067033 L 234.81059015976305 285.3786704560191 L 392.58525518150896 608.3254474835358 L 585.4382974759757 289.986259896345 L 201.02990383730392 300.34852131374504 L 424.4109107051652 627.8863410422641 L 583.5221773555973 252.2773408792721 L 170.70484734380298 323.49770166598694 L 461.0117650458902 639.9412570513765 L 572.6995872286905 214.90460482900417 L 145.72608584208996 353.798567404502 L 500.4669337633533 643.5187012912975 L 553.2633814956904 180.00129133247538 L 127.682641894408 389.79705810789903 L 540.6762344971219 638.1377911665992 L 526.0119805829038 149.5691935940615 L 117.76794490265593 429.69792720270334 L 579.4837186923747 623.8370840456203 L 492.2028497699074 125.36064486455791 L 116.70919855820841 471.4701113976814 L 614.8045126762581 601.172772755592 L 453.4788967399792 108.77519941016158 L 124.72423416928456 512.9660232734219 L 644.7474847691979 571.186353917332 L 411.77212958084596 100.7771039708914 L 141.50839602719617 552.0477293892823 L 667.7265013532381 535.3436759453467 L 369.1902586458665 101.83842901973668 L 166.2522330454281 586.7125699943002 L 682.5537080633005 495.4489621884919 L 327.89293204271337 111.91121517154909 L 197.68895330652126 615.2108093521309 L 688.5093327992552 453.53888119595206 L 289.9649061531357 130.4302781745185 L 234.16884209123523 636.1483758868679 L 685.3838924848476 411.7629133366876 L 257.29363343133457 156.34650702497842 L 273.756253096238 648.5686310697222 L 673.4903137140445 372.25707153428084 L 231.4584890987961 188.1886906156747 L 314.3434507041616 652.0083432979588 L 653.6452525422944 337.0184259824172 L 213.63817163599757 224.15022512041634 L 353.7745869479548 646.5245649650635 L 627.1207159600297 307.78783525568093 L 204.54173967965477 262.19558633148597 L 389.97249887464193 632.6908276774335 L 595.5688398381094 285.9478020163289 L 204.36735332841616 300.18028502101515 L 421.060845633726 611.5628808406582 L 560.9242619045447 272.441479120948 L 212.79115325693135 335.97722792066907 L 445.47437960978573 584.6159958489377 L 525.2898502466179 267.71760398919537 L 228.98693282503683 367.60202898811497 L 462.0508460715097 553.6575357461306 L 490.8125298387956 271.7046092592368 L 251.67544153056124 393.32987761786063 L 470.0990897992572 520.7199496357462 L 459.5565338038378 283.8154362721029 L 279.2004098564842 411.7970686494491 L 469.43935101924063 487.9405060254903 L 433.381558011472 302.98276639855095 L 309.6268089115863 422.0812040519462 L 460.41337391401635 457.43486174977113 L 413.83300830219747 327.7225904295318 L 340.85554644344637 423.7553346294377 L 443.8637321003171 431.17192672750747 L 402.05081602849737 356.22236433761645 L 370.74783094390034 416.91284773151403 L 421.08359181161353 410.8574083991089 L 398.70220205295976 386.44854894436406 L 397.25186524046376 402.16163303890795 L 393.73987773440547 397.8329074520686 L 403.94235623694254 416.26718741311765 L 418.52439346202186 380.5878712139245 L 363.77437582447976 392.9965189019867 L 417.40535235193573 443.5704051965416 L 433.03992902082655 353.69158254037444 L 333.28860919033804 396.7496236561545 L 438.22583433718086 466.4013676307456 L 439.68121806935005 323.29773897409683 L 304.4192805776676 408.9730103575768 L 465.09019419681965 483.0703213756971 L 437.80560012187885 291.44818483467657 L 279.21163161277605 429.03373671222994 L 496.31422171186034 492.25487199311584 L 427.2833496384271 260.28074378427067 L 259.4981918717419 455.82232575390344 L 529.9426442102817 493.0785800715713 L 408.50573562586476 231.90264576417496 L 246.79007286125187 487.81810262622054 L 563.8646830074915 485.1632375517783 L 382.3623230270909 208.2657427553146 L 242.18722180392382 523.1788170635755 L 595.9388080973101 468.6517388881253 L 350.18885452079905 191.05087670534974 L 246.31293147348552 559.8492637929797 L 624.1193298941355 444.2001966434084 L 313.6887872146605 181.56822298352913 L 259.2764711482996 595.6824921204995 L 646.5773584016258 412.9397657947282 L 274.83311316707045 180.67949015084463 L 280.66604455456775 628.5664531269299 L 661.8089924875205 376.4104283085435 L 235.74437402252266 188.74656730490105 L 309.5724913035654 656.5486120188689 L 668.7243553657163 336.4706439689773 L 198.57171265761457 205.60964977427392 L 344.64233437575746 677.9511732197041 L 666.7122224504566 295.18819741548936 L 165.3643336149534 230.5961346900971 L 384.15704473321557 691.470119590095 L 655.6764278517237 254.71868083855753 L 137.95083802409442 262.5597624732758 L 426.1338472500495 696.2522221517224 L 636.0419008528116 217.17878132966712 L 117.83155213233977 299.9476957072009 L 468.44212116317567 691.9454764346949 L 608.729975592667 184.5218484471298 L 106.09020195605768 340.8915785138188 L 508.92852812391624 678.719989419454 L 575.1044301012948 158.42308304383965 L 103.33014512969254 383.3172046532531 L 545.5434859724795 657.2580844948961 L 536.8914378409299 140.18112075356845 L 109.63892213727758 425.0663246214267 L 576.4615269488472 628.7142080259345 L 496.07815410405544 130.64181623564144 L 124.58321823625505 464.0234057996878 L 600.1884398747628 594.6470028618065 L 454.7959201856235 130.14872440771904 L 147.23453311678085 498.2398674782755 L 615.6488756095742 556.9275562974503 L 415.19497580864225 138.52319974145735 L 176.2240435515665 526.0484615717128 L 622.2492477832675 517.6292357259244 L 379.31807129075514 155.07528718541514 L 209.82342187026984 546.1610512803541 L 619.9122184222629 478.90561154744006 L 348.9804358302167 178.64476152865643 L 246.04684167910673 557.7440195181309 L 609.0807346630359 442.86366976462307 L 325.6631832419672 207.66989324195103 L 282.76815219389925 560.4668588210748 L 590.6913792299105 411.4397945416182 L 310.42644360734664 240.27988289470653 L 317.8463075875694 554.5210768312409 L 566.118607964317 386.28583757225766 L 303.84734540535953 274.4055098266849 L 349.2516507646585 540.6083028730247 L 537.093165358972 368.67199589224924 L 305.9865064351067 307.90146607180446 L 375.18560056776 519.8982983787844" stroke-opacity="1" stroke-linecap="round" stroke-miterlimit="10"/></g></svg>