<svg version="1.1" xmlns="http://www.w3.org/2000/svg" xmlns:xlink="http://www.w3.org/1999/xlink" width="800" height="800" viewBox="0 0 800 800"><defs/><g/><g transform="scale(1,1) scale(1,1)"><g transform="scale(1,1)"><rect fill="rgb(0,0,0)" stroke="none" x="0" y="0" width="800" height="800" fill-opacity="1"/></g><path fill="none" stroke="rgb(255,255,255)" paint-order="fill stroke markers" d=" M 400 400 L 417.57193051097033 468.56034389689705 L 279.40101985345825 466.1650556054677 L 265.62204587554504 256.5321376842537 L 531.3580690883114 193.79643394058274 L 664.7821220957732 486.6618044912669 L 380.5883926480337 696.3539956121697 L 106.51428680015414 455.0717501599293 L 280.22878585173027 143.18722897880178 L 594.8906458704575 240.0368984408818 L 566.6690617197186 522.1889320626373 L 344.3011122195441 538.7610189460902 L 316.7744170335849 389.0502331002473 L 398.3679252181335 386.47406504152684 L 346.4452524013252 420.83232501052544 L 327.0004391352418 298.1517459977731 L 519.5921215234446 257.4433424751308 L 613.1079156493765 502.1874690076887 L 346.72270363008573 668.0189715063564 L 105.68318648716718 416.10756219399474 L 309.8654038205492 114.26862080783525 L 644.1656164558069 248.11844843132113 L 587.3038591168736 579.249346725393 L 293.918471309549 588.527376729111 L 244.30555232507527 358.30974088164453 L 401.0404794500426 303.0695420020444 L 426.4387338978083 393.525399328294 L 379.2357614058949 361.1704389750848 L 483.14977107575885 323.7773829554343 L 546.7445932776764 495.71053317688796 L 326.85138229287844 615.6371592201425 L 133.41598328478426 379.66247937837295 L 349.24491786942343 112.52896636337579 L 673.2264841280227 276.1268570503335 L 582.2834793102629 627.0101658606325 L 240.52739958626404 612.6988772824886 L 191.6067274111408 313.7419994230662 L 424.33644511953673 229.22135900626887 L 509.07388898937927 388.0251991490584 L 414.3680006040716 438.14337485808034 L 424.9881714183898 382.49269871389714 L 475.9621472330029 465.12723668395427 L 327.5262243297685 547.0709122916878 L 186.06373465943216 355.0810612032731 L 388.53956407841946 139.34913905384138 L 676.0269254240927 316.1734972784901 L 555.5902371042731 656.219318858067 L 194.37291562032286 610.3007460699417 L 164.49780669890893 264.1378875826221 L 463.0267212154876 174.34593415632816 L 583.4301126332523 403.9384371120592 L 427.81290818240063 519.0914128947327 L 351.9194386406901 425.0513320297382 L 411.302901204622 412.5989755916483 L 351.6305433943698 472.4490844913761 L 256.2305215579421 349.5032606764629 L 418.13809569315083 191.74344825728235 L 650.5005197696668 358.5398491083619 L 514.6615035509955 660.3022850114961 L 164.93529084690263 584.6363754067349 L 164.6921920013809 219.59842768476435 L 508.8214462084305 144.87926679644931 L 639.7510582512404 436.79505305359686 L 419.1063188435349 593.1194166747022 L 273.5280932672075 446.0959770304476 L 361.83032932934617 344.25665767440637 L 397.8212140970353 402.48673828662834 L 333.99018663920697 366.58629186012996 L 430.3418330710787 262.8288756910538 L 598.9476754367987 393.39124339418714 L 469.0626227438205 636.5130784601579 L 159.28627852490567 542.6605842523304 L 189.57375423204346 189.7850694267856 L 551.8139468463739 143.2538552951935 L 671.030353308735 478.84633990493614 L 391.94051857951877 650.1952911019738 L 200.61335882270325 444.3138931220781 L 333.6385366399162 269.2271206286471 L 460.69227883665246 346.7158383078828 L 408.52127628051784 405.82228763356625 L 420.7306139938444 342.9440339664386 L 527.6932687794887 412.50382609821725 L 428.80614689748984 586.4469930440924 L 180.84326816972708 493.7414116399783 L 232.69990536852518 182.23465635522876 L 582.2080484942845 167.5464370988518 L 674.1388283574233 520.4276792239133 L 353.4874875570166 682.7900986647151 L 143.4185133417384 422.6067270549951 L 328.87371378571265 198.14493500963982 L 531.6339066755221 311.92542036784863 L 469.88446162600235 462.5687358743546 L 388.96593961923503 421.22949370351927 L 446.07185922377573 410.710934878998 L 402.60336245995074 515.8271877448377 L 228.73341182082365 448.0214800911801 L 284.94424211154046 201.02549071477497 L 592.0351562848534 211.85479906116305 L 650.3037996051644 551.6539980689616 L 313.12479208641037 687.1029515699715 L 109.94571090103875 387.53871500975833 L 345.43198893645433 141.40020754316117 L 600.2425984350052 301.07404983650963 L 510.6428049512425 528.7878353469022 L 338.8940713555877 487.4032284972913 L 364.9109721735716 386.82276528168563 L 396.3453562872388 433.5999224175832 L 297.8767068398706 414.65756644157904 L 336.08410910699365 246.0216738811993 L 576.5690505866559 267.3386735312682 L 604.8604413987609 564.1595364836795 L 280.7812198013429 663.6644718739076 L 104.64042222341385 348.1580913254283 L 377.3834030316925 107.41789764201292 L 656.0450037666585 312.8572430867272 L 527.0520249302488 594.370688791023 L 277.93055830114633 533.4320743527978 L 294.767738901325 343.86258537159443 L 412.071795991858 350.4901202593172 L 379.7754767948443 400.237418587038 L 376.5633275056949 312.82516998227146 L 535.1973495226289 323.74753238667756 L 546.318291229882 552.5858505568535 L 265.1837869912924 617.2175899026745 L 127.66729745693755 314.392799362422 L 416.04865270072827 101.25905498957832 L 690.2443916618392 342.00149377173904 L 519.6208588663371 648.8230079402119 L 215.82955947211136 554.8178494977004 L 244.21579521807988 288.5786988476201 L 447.60279258053686 277.2601572212394 L 463.87823979823645 407.64260905054374 L 399.1309231549928 393.4453607111216 L 471.6004438361338 371.1759072066089 L 484.90162710997816 515.5644711645757 L 272.3045677454576 555.8965452024322 L 174.8993797914683 295.2937882488529 L 451.54461874783345 123.78013780919264 L 697.1947285339359 380.2334223478067 L 492.9483691271099 683.0275500279143 L 163.04573013071712 551.2821235207375 L 218.47072781634625 230.31422390233917 L 496.89670048892515 222.9649190495133 L 539.2888116957124 435.5504463001706 L 400.077941357193 477.57448758301024 L 393.2058583217983 401.7486065845323 L 430.8112643952149 456.0261019064223 L 304.272050669523 489.8435000897531 L 238.62209789336407 297.42506311761804 L 474.5352581066435 171.49235793792252 L 675.3531654859761 417.7581991011562 L 454.86752042702983 690.7852476138867 L 128.9656861175605 526.7354969322236 L 218.58497919033735 179.42574180527282 L 551.0735437827066 193.49673774174235 L 596.53310293082 478.65950578464054 L 379.8627478981037 554.2548591699972 L 310.0086089385504 410.9503417637693 L 392.502208039576 380.7822051005591 L 358.93313106518576 429.4971107430418 L 308.8327319821781 323.67485205252564 L 477.8896340686996 237.1447635670055 L 627.5497632030472 444.9951414596381 L 415.0418276495926 669.8741839542165 L 120.3084152978829 488.53840567567954 L 241.3466941668504 145.51851840881397 L 599.9307951320513 190.66472567648566 L 629.0863161927805 528.600562362452 L 343.0190177418687 613.6573896343667 L 232.9554489099372 398.3747477593247 L 375.2686352009067 299.4479995415815 L 430.1416996874801 383.8426592281953 L 374.91551565359424 372.69095860509526 L 457.9645861617819 310.9325235251604 L 560.5285931555246 454.2748577756237 L 383.2544525306552 622.4469149852795 L 139.96568004852924 446.18038878529745 L 279.8978384077999 135.79733088773867 L 633.6946063324608 211.9625791396571 L 634.4037876260181 575.3783964831566 L 297.3623240446657 648.6721569283972 L 172.16476154803527 367.7663542832165 L 380.37537985926446 222.88742551573577 L 508.72674056813366 358.9195834697484 L 427.4092163179601 439.0376541162462 L 415.29313476057575 382.1263073846505 L 483.83743268368926 441.2088709337595 L 367.6811391076919 554.6983809379157 L 186.47923795816544 409.6031494129943 L 324.9652130515444 153.81263079321457 L 644.7094596839345 251.06243487317698 L 614.2826756533073 609.0998049199659 L 252.63024967150736 656.0434209349419 L 135.28175667879475 326.3490259792942 L 404.88230660085816 161.44163887233557 L 583.977732162135 356.8384020229153 L 459.5686445152425 514.0492269674783 L 354.5604092608867 440.84762932644355 L 408.2532889787828 405.4981941106704 L 373.44101844685247 475.85987482009415 L 254.24415767031445 387.4529441003172 L 366.49433252661044 198.81510420613878 L 628.7793783632687 298.9495527237998 L 574.4948758757232 621.6944396503113 L 218.7870974842363 636.8585499030985 L 126.2458365168938 283.5554392077321 L 442.1904089382797 123.23936112627484 L 645.3974488675693 375.4725445785001 L 468.45667611771876 587.2372421912658 L 283.8696336223155 479.6905587538945 L 344.0093238767813 351.04244328302264 L 401.67213797684843 396.68838655491504 L 334.40482455204983 385.5596625122181 L 395.4080705599581 265.828931232723 L 585.9325854857991 345.50425300384836 L 523.754770932729 608.3360773619336 L 204.28129017420463 596.3095334421002 L 144.677371316704 249.37379448211666 L 483.2160550214348 112.87370977072754 L 684.4268331466881 408.8761147079077 L 455.3830778668526 648.0146648501794 L 213.42105500291083 494.9164331400385 L 299.12215152417883 285.3296517510883 L 449.2895693378766 327.70585178485305 L 416.2931802793729 405.90141078136867 L 405.1910316881614 346.4325910602106 L 520.4788951424551 381.26199743152324 L 472.197851975884 568.3224267896837 L 214.5517677463085 542.7687236658828 L 185.98644870403575 232.59296868495883 L 517.9932592858344 130.6682783973518 L 695.8511461631474 448.3555151551927 L 425.6172068190939 687.4461646331172 L 153.8262815284345 487.02069232116037 L 278.1012950861506 218.20892223614592 L 509.46819226177723 277.48498287342863 L 489.1671322952832 446.2310162320228 L 393.0303143910605 430.1164619230251 L 440.34867119919136 399.0525517244546 L 429.6288444800657 505.26306646201954 L 251.03771492936963 486.33633025928816 L 242.18414994467582 239.24467967817142 L 537.4312244400811 172.6556970183999 L 678.650343294815 484.0120020268523 L 387.4247491495881 699.7292657604612 L 114.34244112172183 460.57741286866633 L 281.2577307413845 160.2527587003649 L 572.7693420719122 251.27031542507507 L 543.956407656417 500.42858326086 L 360.3186630302371 505.9889702518238 L 355.8236659178733 395.2398716985473 L 403.8367574257223 426.54208780575516 L 310.86088387932193 437.1063867989117 L 303.258212095505 271.5080234373322 L 534.9279746888375 231.27152542705028 L 636.1504676153975 506.49237497452236 L 350.59323038909173 683.1563284712514 L 101.32439256535355 423.38952960229085 L 304.7269009541121 120.98563154730101 L 628.7212580275361 250.1662322302387 L 574.7219840538937 559.5210644700369 L 312.4342006649538 564.5441516539736 L 277.8728888669332 370.3522026398741 L 399.2626906647699 342.1446970434619 L 387.23601745192883 403.44531061743237 L 358.87964558700975 327.2635697513299 L 507.56516473343055 296.6454900020779 L 575.4509275192747 508.649678656491 L 324.69766915127195 640.3949790386803 L 117.15656735686412 385.0903628696849 L 341.20053845503287 107.27823887005013 L 667.5861800584485 271.02765870082857 L 579.5837993128041 613.1966247166527 L 257.83367102816425 599.1931654870762 L 216.37344993546998 328.9953816840448 L 416.24624757641425 263.0446378041296 L 470.5416813865566 390.57477747795446 L 400.151118143836 400.3742987889022 L 456.6799945390145 358.2712188278033 L 506.22484116638566 486.8309700695138 L 317.40179003369343 578.0397152242476 L 159.84509536637208 355.4350086172289 L 381.24160082387914 122.17914845650228 L 682.0150693692742 307.07012512125107 L 560.9614952551303 651.557536412388 L 206.6126108654846 607.3023001254065 L 178.51576255478452 279.063956899995 L 450.9781706951661 199.42361910740695 L 549.8720348504173 399.6988380598452 L 421.1011213327422 481.6476319432702 L 387.7155948093285 406.7718292182737 L 439.0954893363747 441.57232829389 L 333.0842011622507 505.51052235739786 L 223.33936261112558 342.5726585585721 L 414.9578962879863 164.38173656877137 L 668.3096760122094 349.09410805888393 L 525.0892459858289 666.8146858666912 L 168.7763956349738 590.5635458242505 L 167.66129375259678 230.38388821873588 L 496.1669828256604 159.022388682556 L 614.8086307484339 427.82279060525747 L 419.6712492863674 560.3174837992809 L 309.3734235638993 435.46277027883275 L 383.86340485108195 377.58166198469195 L 372.02389505592714 433.48460686974846 L 298.52893615411455 351.5941101382723 L 433.7492969024108 228.4170621915899 L 627.0778764674247 387.1146130269572 L 480.88856670092684 654.636382359454 L 152.51532104925678 554.6367538735989 L 182.84448800860488 193.0170963144213 L 542.3062689630223 145.90086177811287 L 657.114027381627 468.29394427896113 L 398.0300012157999 625.7971623311332 L 232.2094460933263 441.4479150800735 L 347.88364520029586 303.0105114693158 L 430.28466791531315 372.1261273057546 L 374.74772196924306 383.60206087484164 L 431.83105819150524 305.54068440650997 L 563.1706556884067 412.1184400562026 L 438.39160113195953 614.9224230994513 L 162.77646127250688 508.12562534811957 L 219.00153180700437 175.5156327460815 L 579.327290811453 159.81556278515745 L 672.0621291130201 511.9719387565091 L 362.1607908185562 669.4079876893039 L 166.9101414759541 426.0641699075904 L 334.8671161406451 228.13652112964746 L 500.31961663274495 329.41274802091937 L 441.53160154731273 435.46316093898906 L 407.2737880824906 385.1642002165139 L 484.91047279937186 417.6500812745824 L 406.98336018565413 551.8714211194798 L 200.37504703684985 461.0624212764556 L 267.8857093197168 183.4220164774064 L 598.3561502132472 196.3182659215381 L 659.181534166596 548.8294664420332 L 320.79495525742146 685.7924687751674 L 122.53872686209712 394.60039559025313 L 344.3077910289432 163.67817506490238 L 572.1948177991341 309.8412171648925 L 490.33311106961645 500.2852270826673 L 362.3825925936345 456.5902910112977 L 402.74048723721756 400.9563705925008 L 393.76187221141316 473.328824660372 L 261.7969920643273 423.1592908515965 L 319.5130325918703 218.2708276250133 L 593.2768005360455 247.55779807272228 L 622.2873679011308 569.7111638523469 L 283.871656883467 673.7741026118699 L 105.04721173719713 355.33950105311004 L 371.63150193975224 119.0258260905511 L 635.2262853273638 313.72979780446656 L 515.9042035430996 568.5400691863716 L 303.34998816875503 510.75888570980317 L 327.52196712140096 363.494897976753 L 402.2950490275434 389.5246336944411 L 339.7273839242935 402.12342709649226 L 363.8922574051924 277.261981755648 L 561.833884361265 303.6481284211402 L 568.7973299663172 567.951475031281" stroke-opacity="1" stroke-linecap="round" stroke-miterlimit="10"/></g></svg>