<svg version="1.1" xmlns="http://www.w3.org/2000/svg" xmlns:xlink="http://www.w3.org/1999/xlink" width="800" height="800" viewBox="0 0 800 800"><defs/><g/><g transform="scale(1,1) scale(1,1)"><g transform="scale(1,1)"><rect fill="rgb(0,0,0)" stroke="none" x="0" y="0" width="800" height="800" fill-opacity="1"/></g><path fill="none" stroke="rgb(255,255,255)" paint-order="fill stroke markers" d=" M 400 400 L 134.60276046308405 346.8885812988799 L 615.5017155446416 489.85097646694277 L 457.44226460885966 438.67197832008566 L 193.62924750961412 191.70210752433027 L 501.16702415697307 553.3279296508675 L 450.69896949682396 524.8528396548529 L 343.87891202049354 105.3564437210839 L 398.8475747839538 523.9827633239593 L 360.373792480396 588.8709108079465 L 514.2659694685583 132.9559820464117 L 367.3988600094757 447.4664338958308 L 227.37892008910958 567.8735403893515 L 622.789376171778 255.9559954698398 L 411.0951374109602 395.6142830040014 L 128.80831337309058 449.04661155374185 L 625.7675936728774 404.19740199192194 L 478.921110382679 417.32546710795407 L 129.4101444454917 281.22926708848973 L 542.6035583302361 499.90702832591666 L 500.33216210313776 505.1067942650868 L 239.74968137349205 147.01820386791275 L 440.5702931902235 505.4939038818328 L 434.09463684724375 599.066130360726 L 408.00873170641216 112.86179830867434 L 389.7574421382259 444.67039587822194 L 298.33441243987306 625.8914272080323 L 550.8784400028698 188.8456442504462 L 417.39834580682657 383.69835950475425 L 162.00641145087795 547.6744433094794 L 603.9782196603473 323.7237708018659 L 491.0432874077592 385.2764416725697 L 102.87390721344525 388.94802514510314 L 559.7620520081995 438.1985439846926 L 541.3184222665016 465.188595614282 L 158.73901478953243 224.1989923515171 L 468.96836658190034 474.993291667407 L 509.3837327710895 579.9969805074165 L 303.14719754934686 133.47048564083303 L 405.11621106845723 433.61580601429165 L 388.18831269452653 653.9745380984778 L 461.1972196038912 154.1735174285706 L 415.26119845400063 367.7086974591658 L 230.53931835537244 628.0753305404387 L 555.4373630688476 259.69456797214184 L 488.94960317655705 347.07130199261076 L 118.33997960649867 499.39722584794015 L 552.6061606698937 378.2231507189071 L 565.4480580911593 409.23639345172234 L 112.38154955922448 325.5531956774947 L 481.5343443367922 439.46519475984996 L 574.5318825146337 532.2131106623616 L 214.6809946749033 190.81774753098298 L 411.1353002982698 419.1155923873475 L 484.36451424291806 646.3345361812536 L 367.4154923902322 155.4228230404399 L 403.090503389763 352.5671938408779 L 325.31123474628544 677.8801775945742 L 489.10970091469403 220.18243137728302 L 470.058913528149 309.28097117519974 L 173.93628200301976 596.5548170067684 L 524.9183174454255 328.7787784847575 L 566.573048259154 344.67657379154 L 107.02940047987596 436.263780304011 L 478.9194121637373 405.87914568775113 L 618.6030915637494 460.94041645450176 L 154.82624405979263 275.6509595685353 L 408.02004499262495 406.31344678495253 L 572.7240245540366 602.4246949103967 L 283.19041634539167 190.6228359975307 L 381.840170342537 343.5747155795531 L 433.04880349237067 689.0069344244114 L 416.0141819972581 209.0108830797233 L 434.8387625426315 279.37359827244404 L 261.8325607506366 666.255074990795 L 483.36642030482926 296.10036530569016 L 541.8844734664584 281.19455673501557 L 142.9430659407236 540.2928258636746 L 464.50821110083905 379.8985135421542 L 633.2807627988805 375.51802734981044 L 131.254068107048 374.94848328569503 L 398.3474851745026 399.506042015124 L 639.7228624010417 527.241086352002 L 220.09909843575915 252.88269582855193 L 354.9745468380028 345.20112710877044 L 538.2409379686683 658.9932045967189 L 347.37696616258756 225.42964487330792 L 387.0351876358006 264.32538019011895 L 369.3907137588983 698.3352544054949 L 436.14747679285045 283.04310110163476 L 492.6859195063526 229.23125662945134 L 214.3203014510495 622.7982303803608 L 443.51105768093635 364.92151273107197 L 614.3765967533109 288.12145585959433 L 146.06693458826967 473.9787753414048 L 386.3967407983955 401.1724177002779 L 674.5514005077956 430.7503488355744 L 185.9766530183186 331.66685837299656 L 327.8953138603395 359.992630277786 L 625.4634165735838 591.4798467633319 L 292.8554568474642 264.5411333402967 L 333.28768872122794 269.2195004895852 L 481.05663495535845 688.1756782756909 L 391.4642552467097 288.90079665783634 L 424.49781259537536 198.24506429497688 L 310.24979528772064 672.3400625259928 L 421.765599050696 361.6174934346062 L 562.7345813161411 211.9542497308738 L 195.65549474537238 558.5661514424846 L 377.1233722858087 411.40286814914293 L 670.9093187856629 326.51021197072913 L 183.90817724831757 414.5833235916868 L 306.9277284364785 387.8199711294154 L 681.727688093411 495.75590592655374 L 259.1208525651823 318.3718121074495 L 282.16652113216827 296.09597653407366 L 580.7004233216635 637.392214825054 L 356.1089407868701 309.8560492696571 L 346.4381691346319 195.03108948197843 L 416.4309677903733 682.5366457938962 L 404.487173827575 368.02460841405747 L 484.3545155947689 159.18653819659332 L 271.4361291157596 617.2043560670323 L 374.98596962648577 427.84144383355476 L 628.1210447641199 229.6821355879464 L 212.00973421325347 489.3805051129055 L 298.0495743620283 425.63147321203064 L 698.4848153180163 385.42387226672156 L 249.0152489228567 377.3790764677128 L 242.77749693892477 343.2804837461087 L 654.0408066474972 553.5737164249699 L 334.3973998909654 339.94833842749 L 269.9491930332708 222.3920307780296 L 517.3823296025 652.9209757181269 L 395.20964087594115 380.168383724631 L 389.6839297893851 138.9707893077752 L 361.3296537833243 642.6915068166546 L 382.8620676983228 446.15660855570457 L 551.3967686687804 154.73862068411563 L 264.0011888784271 545.8251457793386 L 305.60129535554756 467.7832706666824 L 672.9663947627671 276.38495292457094 L 261.39396027820277 432.1200478345312 L 223.16486941880106 405.3430039868071 L 690.776833813838 449.10775406358096 L 327.62546992472994 372.3592432940996 L 207.05532477447423 278.40657814389743 L 598.7875352284838 588.8774248416514 L 395.11646216259925 393.06373588806395 L 292.16378507464793 155.86305365515327 L 451.72723451566117 633.0442688421505 L 401.2747314581952 460.95201153568445 L 451.17811220989444 113.22342020871002 L 330.44488955098336 577.1646576520156 L 331.2277715345688 506.9117793875178 L 608.6468308853534 184.45380211540157 L 291.643204596091 474.79291090475397 L 228.78975468643583 473.7300974009096 L 686.0972995411272 339.2815076352459 L 334.1184187638401 400.7653059953482 L 168.42639918559482 356.44867507846914 L 649.6119359167947 500.6856012327521 L 402.8836110969123 401.8930379528299 L 206.23926822947493 208.92105815060646 L 529.618677356148 591.5705908807176 L 428.0935383931289 466.9426454074206 L 341.6537597898442 111.92111311590423 L 400.42001620796384 580.9561887806633 L 373.2680285657944 535.2096738835118 L 514.7492031240624 122.97295857428696 L 332.748581674468 500.39558712421234 L 261.36051596030865 537.9959461891294 L 641.3381758495954 239.95782510426704 L 349.83473593124916 420.50636554113225 L 161.56356494353193 445.9890197126687 L 663.665052837704 401.83874734235536 L 415.0560792631355 403.12238525358754 L 145.14099947224304 291.6470658416024 L 584.5416319539718 526.1184372437875 L 458.7845579816798 460.16696478078563 L 238.66499004562309 151.73279182001875 L 463.3396448174588 559.1572222866142 L 426.734069746283 545.8854053105065 L 404.86797018538465 100.79898134889993 L 376.70039293223 507.3233793792806 L 318.2414427121175 587.4477316492737 L 563.694215712303 165.19111312158165 L 369.3854767681268 429.35992367251697 L 189.4168426154774 534.0789863436564 L 640.378295965097 306.91554274398743 L 426.8768052615467 395.33249206260604 L 118.78769803300509 392.8097363636427 L 610.0494527383923 447.64972437354055 L 487.1794194183807 438.99322821770943 L 157.32188373176345 227.44600348869176 L 510.6056176751687 517.4988953444084 L 483.91666212944045 534.5428574405513 L 294.92150511925263 120.97446796055578 L 415.97253840700466 497.332332968106 L 392.57432919601337 612.9399191147527 L 465.0407395558437 125.15371498452362 L 387.25814331886926 427.7917183673959 L 249.68178001408245 607.2988368684968 L 584.6964910554995 229.34896391149815 L 433.3996568729041 379.5968058378999 L 132.15025831519944 498.03694668067004 L 604.4828493010274 368.3926179970123 L 506.63272299321125 404.71119422000993 L 109.70118751763357 328.44678183137177 L 536.8358125899766 464.2818745092252 L 535.542247652356 500.2208675008592 L 200.75332552655667 180.29201792257786 L 444.80998258788 474.90944372291733 L 474.1290692906082 608.5146170441085 L 360.06113698624256 124.69022613131733 L 399.002028285076 418.6541931907624 L 334.9177117634502 653.8670677079588 L 506.12481396929957 179.44418125378078 L 430.6626660296092 359.3270339143445 L 184.35009089396607 591.9440791880556 L 570.9505164777524 299.8849842361918 L 511.358474716906 361.57299175862005 L 102.98772014592066 440.27217387137887 L 540.4812977488629 408.82571000911946 L 572.30133818637 445.8826829075248 L 135.75575952201615 269.81522139675815 L 460.1046883612222 446.1942916444879 L 550.7740050735838 572.5990791056072 L 263.9823849866848 162.71389878932223 L 402.1452234375468 406.4092724244657 L 433.4983292344369 665.5711649583577 L 417.1060745713998 162.9489548353202 L 416.6842879983433 339.6092234477685 L 268.6516219563616 660.4709461267726 L 516.5560341074346 251.22831966829125 L 497.6947018276489 316.24687414241873 L 138.35382575795438 546.767337775586 L 523.7618809243683 359.8514056527796 L 586.4936051178644 378.235255002808 L 108.88487335150052 376.2707096051954 L 461.72243775415274 417.6712807955873 L 610.3460044779412 508.53564773342254 L 190.2779917518508 232.52309374358896 L 396.6690829594356 396.04072866209424 L 531.2681692603932 639.1991804706013 L 331.0053939316975 180.3835831928771 L 392.0766770719673 326.15289336099823 L 373.3679161943602 693.0608810164363 L 451.0302435742272 227.8251492324625 L 465.0492582774109 276.75694082094395 L 210.7562765726423 632.5139682580216 L 491.9679860635515 324.076310419146 L 573.50253643254 306.87270818779666 L 123.37174169749977 484.0886022961224 L 452.2476239356298 394.884908851533 L 642.6235657520874 424.3243056835024 L 148.6965740163259 322.96905090831564 L 384.953246627872 391.87842667135845 L 613.6590810553826 577.2244009467418 L 260.0341191164198 227.2098579440667 L 360.1403974951793 324.05313299343396 L 483.5522359461584 684.3348082245916 L 385.0199872923626 230.782756105535 L 416.32934089787904 251.0810747369036 L 309.6856312818404 685.1524489442329 L 452.2838843748683 305.25182130721015 L 532.8299223820493 242.85782651294778 L 176.32310716649968 577.7683187967435 L 436.22081529495426 381.4173617928661 L 641.0776915696242 331.5866261211408 L 143.91572963418827 420.27294902928224 L 371.20713957755754 396.571664094007 L 667.9390325776851 487.6109096887726 L 213.44433622704324 294.7812334232248 L 326.4020301597553 336.60656382226534 L 583.2208327107046 634.9888697912844 L 328.33098839972075 257.048433058867 L 357.7445075722439 245.65008220460865 L 420.75264564679657 697.2360889085193 L 412.3639087260384 303.7874737244959 L 468.4858906968575 196.9591037346643 L 259.26251016042534 644.1986593988622 L 419.0353312043105 378.31150470859706 L 604.1009500226805 243.89098311366556 L 175.01530347358096 510.19171537464626 L 360.5032264272998 410.4191679628029 L 685.2360744866521 382.7476581232536 L 196.2708761639198 371.89229402909865 L 297.66226912256354 364.41859490855995 L 657.76440916859 551.7646817540724 L 288.4180675784137 300.2167508129646 L 297.9832165168615 264.0198694906916 L 527.864218005563 667.3295942705417 L 378.9268854603812 316.9958949182659 L 388.6336556863832 177.8302301886957 L 359.51420345965397 674.5726775983139 L 405.71807502795934 384.0339022934556 L 535.4920371862424 174.69023329727173 L 235.82945292255576 580.1837617847368 L 357.60493107029555 431.1945825980027 L 662.0087160978495 277.66005326064715 L 208.79948639661427 446.65474650333795 L 280.7179692347782 404.99143793280064 L 696.1721722075551 446.4872931214543 L 269.36201753378145 351.8388928969049 L 246.87690420750525 305.96917503359896 L 615.6488790463217 600.1836402554964 L 356.61985101905327 339.881444096113 L 304.5126502113718 190.44082256102445 L 462.20067231085517 665.6067407807327 L 399.83628004932547 394.96834349089033 L 444.08951623103053 135.19543684616474 L 316.09551191897475 621.2347438199711 L 365.823702174946 454.5111120915808 L 600.7166455790888 187.76771862399656 L 246.81516873091616 508.3838052072563 L 280.98945890651135 452.897874636314 L 692.7190894518812 334.313886098522 L 271.47978974983494 402.98628417082415 L 213.76313457997702 367.2100479905614 L 671.7538725273306 505.96365110328446 L 347.3438421889252 366.30085750889674 L 228.78832548597725 235.03663690809265 L 552.5314194977975 619.8875917266628 L 402.7432127007943 406.32959036273905 L 342.58557113772446 132.5295021893911 L 403.1927036587509 629.0670417789457 L 386.13737991546054 474.66479618222155 L 509.569858987832 126.53498642004564 L 302.55492187536413 549.1889875930058 L 301.31131709436113 500.5394793960118 L 647.8499017345182 231.4621813986565 L 291.600089573795 445.78794199721017 L 205.82260927610486 439.79725378717063 L 688.6583820009571 398.65998667401914 L 350.14349007846727 390.2631820987933 L 173.58019580294845 306.82827543270844 L 618.0204493278118 545.312133036025 L 413.3079285139678 413.3080671748724 L 245.68606956542695 168.4683904651051 L 484.1753501929395 604.5634628972423 L 416.75590090844787 485.80185231356006 L 401.38004730812526 103.38348050021847 L 366.17604749006586 565.0239228734351 L 341.1249381305645 539.3787456681904 L 568.1194486963309 152.77088843693994 L 323.9203060118 474.6776127525645 L 226.68169379326775 513.2029368187066 L 664.7265293491826 293.93461076349763 L 361.6552223047556 407.1188599400177 L 148.48343082505016 396.49177688721215 L 650.2883957111793 453.7288974748577 L 428.179622529665 412.21325576186314 L 167.89436183210637 238.9895953169822 L 547.7670839317573 553.3672506571877 L 453.2385089107269 483.18905034538875 L 291.68193460850136 122.19945601534351 L 427.4732796549024 556.0493189976394 L 396.2470635327714 561.4420639635554 L 465.1976707985633 109.47174403602742 L 361.26304404004765 487.1486180665827" stroke-opacity="1" stroke-linecap="round" stroke-miterlimit="10"/></g></svg>