<svg version="1.1" xmlns="http://www.w3.org/2000/svg" xmlns:xlink="http://www.w3.org/1999/xlink" width="800" height="800" viewBox="0 0 800 800"><defs/><g/><g transform="scale(1,1) scale(1,1)"><g transform="scale(1,1)"><rect fill="rgb(0,0,0)" stroke="none" x="0" y="0" width="800" height="800" fill-opacity="1"/></g><path fill="none" stroke="rgb(255,255,255)" paint-order="fill stroke markers" d=" M 400 400 L 456.2811003005843 444.792384343207 L 368.6547080902714 263.8993048042167 L 314.07783813692004 579.7713224771552 L 622.3068930547852 291.86546680175286 L 125.98460417358189 338.8709182526659 L 587.113614417219 631.819356371257 L 397.95481201146293 102.31349092213952 L 227.0805507919716 620.3614961410751 L 639.5152076468137 343.10179206285557 L 220.87154358981525 315.8919419507314 L 461.240532082904 523.7321538507902 L 414.8075919345051 331.4098632736372 L 401.40151568277 398.8527722743405 L 326.31995097692203 401.0124520906715 L 511.72928343981084 486.4412434450777 L 352.2968778240281 205.15465610010708 L 296.0421306274027 625.4159163047885 L 651.3222588174699 273.4524992345683 L 108.16791406090726 339.0930894710045 L 589.9947805329962 628.8815979375718 L 394.2407202785719 120.60529645258532 L 251.33060303608323 594.9143012769896 L 590.5637175517171 351.95509196955766 L 275.70467076509595 343.70946963043764 L 431.1843302060766 460.8868110110308 L 399.28433122988446 403.55089433869034 L 457.7154258337402 351.41679132767655 L 257.1946817229964 403.9253732987192 L 561.4045420312832 521.3652061994504 L 337.4080633698655 158.7417518264701 L 285.4274418041179 657.6843800759889 L 664.5774913747019 262.18899967657285 L 108.23874355055227 343.279686928967 L 580.9981665947346 612.0463466594475 L 391.61686444517966 156.05137733329525 L 283.7886480558084 556.7812787895339 L 530.2756633616489 365.24435893026515 L 338.91999029282346 373.34344966864455 L 397.456988281717 395.1985813684329 L 385.78989487403453 475.87375236225654 L 509.2204829627565 305.4670163882403 L 196.89405613583085 408.376974793174 L 602.0610606796841 547.6341526601645 L 325.27483419033575 127.43773278350358 L 282.48463952839694 674.3981586421872 L 661.4748814188292 259.20435290799094 L 126.29143076015066 350.6820787521476 L 560.3099878025366 582.665876505483 L 390.68468800313536 206.4482373345487 L 322.1526513623802 508.0978907547857 L 462.44813849595255 382.4171803199711 L 406.6785183322885 402.8060418449675 L 362.0967950949074 330.7529980015649 L 375.0919860487064 543.8941965475233 L 552.8522438249936 263.98461639841423 L 149.13613074633008 413.8017118906336 L 630.9592961538193 563.9289116628845 L 317.07860537659053 113.06288104624002 L 286.9491318783606 674.3290633664143 L 642.4400808924985 265.12458362603337 L 161.2987715440177 360.36801083264083 L 528.8781336388433 542.8432182980466 L 391.8689952417434 268.664990805875 L 363.82827352866906 451.7113639209464 L 391.3188360200908 402.5735040164837 L 474.81076873157633 430.2299213529427 L 327.3522119776923 271.50078026564137 L 367.667617196835 603.3737006905719 L 586.1064468297175 229.75438563526683 L 116.85515966832276 419.48318395629195 L 646.0509974253068 569.6053881219734 L 313.7957032587692 116.3736888078804 L 298.08436581911997 657.2878659491014 L 608.8813636975965 280.0065503109786 L 211.170916151532 371.3085681251872 L 488.3728519209385 495.2833009892056 L 395.3692186192817 338.840140960647 L 406.10459699068184 391.01238174756276 L 321.2982694322915 424.51219011395773 L 539.0764067107829 453.98786177705387 L 295.5374493284511 221.01270753309987 L 363.6843950539013 650.5866150422521 L 607.1840147510837 205.17724333040962 L 102.01913782780457 424.62194459873825 L 646.1231308373749 564.7129323370591 L 316.10794909971605 137.02351209985136 L 314.75569673081606 624.14781324757 L 563.0875578913294 303.30886968241913 L 272.88161504028267 382.4684965216018 L 441.0987344820023 443.10907488597104 L 401.1304891390424 412.6240556525909 L 446.33182575665563 329.72872219118744 L 256.6930713851949 446.80343678466255 L 595.4312158752555 472.79041495186976 L 268.8776655285714 182.26181375846437 L 363.0076200576968 682.5561580634128 L 615.0881039058435 192.10285670804117 L 105.5083600521184 428.4125607395335 L 630.8906630073116 549.9670966449386 L 324.33110804404555 173.59282288564742 L 335.52829784023686 576.8008789875636 L 508.07193994768545 333.9029331350642 L 342.65409452130575 392.8926230325395 L 389.86259044055373 389.65512450675647 L 408.8373212665416 485.45174583305675 L 482.0892318778113 271.69355404690697 L 201.43792334168208 467.8826600621534 L 640.2843870423903 485.7557533005214 L 249.35418010522537 157.44635020011842 L 365.2317022734716 697.2441333584034 L 609.6679840551025 191.6940014253867 L 127.06257941854915 430.12343223827514 L 601.031323635443 526.6799436335633 L 338.36745351973406 223.6866346743524 L 358.78130919850946 518.0488712981365 L 447.37273797454884 370.12468099306636 L 416.1950076759615 401.7816151913904 L 337.8048480053733 338.25248580946106 L 417.9308932476746 552.8286486848252 L 511.33259321544585 220.60296159908728 L 158.85299594200197 486.1596236316077 L 670.729595169897 492.44790141512124 L 238.56042347268172 147.86418311633608 L 369.7325352128543 693.6821605566236 L 591.6080750403045 204.33242935403797 L 165.29997511593 429.17256680427136 L 558.1591391210407 496.653801758385 L 357.68709908229306 284.0924236130683 L 382.82954985905155 451.43572082944866 L 384.82352094921777 409.86498193137226 L 488.9617973940197 408.5513320860762 L 288.204734592271 292.0186739884395 L 427.6489760193905 610.6113225565641 L 532.5120330423398 179.7781980271889 L 131.44203215946578 500.1352432662072 L 684.7348606583596 492.88194798994505 L 237.57893573393082 153.8458622438025 L 375.73590374774994 672.0358954233209 L 562.3640499500146 229.57347487169434 L 217.80656951772724 425.19272658173674 L 504.73746133233425 462.0466312070568 L 381.34075670492297 350.9880711066044 L 406.0438814168688 381.03110895221585 L 324.3084936733742 450.69371783767656 L 556.4466291148678 412.87145467389956 L 244.27146311689776 253.66630086987627 L 437.08568813292214 655.2653234335552 L 544.6534050900455 151.9480982642426 L 120.74350277360918 508.5176430019257 L 681.2787031938007 487.4972240857302 L 246.88858714209655 174.74974413296897 L 382.3958469039572 633.597959110359 L 524.0513045819228 266.15355450990256 L 281.2902600318272 418.08011090480284 L 443.93615904025637 425.2188229918541 L 408.00433037831465 420.18625623224017 L 426.9617167937158 311.1788073381214 L 269.51847043938074 490.01019232008804 L 614.4589441300516 414.6808268651236 L 208.93485439983402 225.34217279909228 L 445.26657627921105 684.0840272066982 L 547.3990037657209 139.06600275162674 L 127.24378680423553 510.32879203641124 L 660.4234351618128 477.1016879481898 L 266.3093844859633 209.01853648183274 L 388.8762328480827 580.7098275424756 L 479.29406995292976 312.0512971878235 L 351.7895406361251 408.0219619875584 L 379.44133350855907 388.57220939275703 L 436.053405890712 487.3995206582074 L 444.3801702651857 246.22547586424173 L 223.72302807555812 525.2104433102386 L 659.3887242957726 414.17885424874356 L 184.649156134967 208.5065243430372 L 451.2331733602169 695.3546898723873 L 541.0062304393913 142.17351218981838 L 150.35730766211952 504.9934359508937 L 623.320397500939 462.79271267515435 L 294.989860367705 254.29270776890857 L 394.4286762592527 516.6174585461209 L 431.04582044736134 364.59950605884137 L 424.92354252880773 395.500087944122 L 315.2291188327585 354.39226589567187 L 463.66342162656736 548.5090505414819 L 457.425856821023 190.2470449693559 L 189.57307201396105 553.8605990250642 L 688.4337459598032 411.7942457600024 L 173.22323931952366 203.85922117895842 L 454.1302770461053 688.4614340487639 L 526.3057142591389 161.32053087935498 L 188.4742517787221 492.4030410611866 L 572.1462620076727 445.8609979414298 L 331.4392668127911 307.5726336068528 L 398.46034114431114 445.26966517086873 L 382.3932597195089 420.6417327278176 L 496.16744243923785 381.26917157459087 L 255.3176158060679 324.7039379163362 L 488.92926933826743 599.8201366333261 L 465.5972499553968 146.7900946922223 L 168.9458826999286 573.8646859690875 L 699.7763609049921 408.13419613562206 L 175.6888854118999 211.3165542893652 L 453.2887977556225 663.9188942430397 L 504.6230743197921 195.54753966195227 L 239.07218955989032 472.94903901649985 L 509.9739333782744 427.68532136436875 L 373.6037931480652 365.4183542875282 L 400.5860879138818 371.07190593917073 L 336.35695648150937 476.7241709996404 L 561.135733915632 366.31073332362973 L 203.51261350738827 301.15028515212833 L 509.99643253075095 638.2882819559401 L 468.7776503687976 118.64480950645446 L 162.84179677599792 583.6153449600926 L 692.698531726423 403.91865542886376 L 192.2166037488098 230.0388664860495 L 448.2971842726664 623.3346834445725 L 477.6708400419218 242.9320910157784 L 298.8838858703173 447.5216906510777 L 440.58579693701927 409.6262496760977 L 418.98300234374216 424.1735834762917 L 400.6607673714133 298.6110200015327 L 295.70161699905293 529.3110616970529 L 615.8554275771904 351.7655909849157 L 163.16335976465564 284.9013040109237 L 525.1946525763971 661.7019516962569 L 467.219042777728 107.66418217109032 L 171.33821759363497 582.1167511956066 L 667.6277645985053 399.9054988262817 L 222.08547625008083 258.50592813802155 L 439.0551447178732 569.3033740583392 L 447.41886759020855 300.69739164229463 L 364.11008611617376 417.47324836180724 L 368.240800281371 392.926729106757 L 464.77983766911944 480.19927024949135 L 398.7891294243528 232.3683025078086 L 262.76804345961136 575.0100198570599 L 657.0119643287513 338.8494552818773 L 136.9441986833226 276.5980042860935 L 533.164613259064 668.8108630057643 L 461.49926029037243 114.64127758152205 L 193.60287528714613 569.0706276975544 L 626.1109729564707 396.8131077320454 L 263.710099496333 294.63393069497926 L 425.8045957463296 505.23902568631905 L 415.9527895983 365.3767995676993 L 430.6633150262326 384.54662311493814 L 297.40988416507344 378.62669684184095 L 508.0750918536304 530.1016495996439 L 395.3126702177193 176.43907184435614 L 239.33711665969327 610.7927818650942 L 682.1524402086607 328.75777882282847 L 126.67641752997639 276.3342482574062 L 532.9683050793514 659.3922981551239 L 452.4567809336196 139.25272826059984 L 227.96441790615253 544.9184959363542 L 570.7178894131537 395.2470497609182 L 314.72400249541647 335.9253906765812 L 409.1344103426164 435.1571629597965 L 385.3305461898101 433.0243780410733 L 494.42689849949664 350.77327821541263 L 232.49638997754823 367.4975709796914 L 546.0153310245504 570.9403296201899 L 390.7746434343446 134.27647628539762 L 226.53378703917915 634.196898085818 L 689.8335316473257 322.5670173262943 L 133.20222129387497 283.6761927782027 L 524.1745764123008 634.251955439723 L 441.10901434382214 180.0724473691238 L 272.0347626860982 510.8360836567098 L 504.8801257662607 395.637188850581 L 372.11520257670196 379.64131456577326 L 389.9574781380007 363.4202620879475 L 357.44684915784325 499.45856163093697 L 551.5126232092249 318.34639666284295 L 177.5591267228913 360.00079064971663 L 576.0020677609791 600.4035020467323 L 385.8662619715261 108.47574846679271 L 224.77622984530197 643.4948799682644 L 679.7050918033417 321.1399785401395 L 156.31952912524775 297.71659464176525 L 506.9128564368586 595.1600641789687 L 428.5609933481249 234.655080269437 L 322.8744054469142 468.6789299680644 L 432.67607413271804 398.1906956829147 L 432.40606786647163 422.9837824281749 L 369.4607006584143 294.4630457680509 L 333.91455946126393 560.5237084422148 L 598.5007250054672 289.47733137451644 L 136.0557057356035 356.2726238737085 L 595.8695786950382 616.939712069402 L 381.35867527097764 100.61254070644793 L 233.77221649512094 637.8191996395069 L 652.5245283919684 325.04287583919654 L 194.78246434749025 317.15892344005044 L 481.89005559240354 544.7276096482645 L 415.9118968825418 299.6842585474833 L 377.1892803570519 420.8814866466381 L 358.57528310057074 402.86512990257046 L 491.86661759800376 463.27672859583345 L 349.0306614819379 232.51507332700916 L 315.9704884478114 612.3529931787567 L 632.6472166952685 266.2447988139936 L 110.62254576330776 356.1353888038311 L 604.0392065631498 619.8386172547205 L 378.0265038064053 111.14552813863469 L 252.56158797204154 617.2342239224013 L 610.1015022439811 334.4810620105578 L 246.36823174856974 340.424328824062 L 450.3680835411885 486.2312760533348 L 404.1667703254423 371.17655858412087 L 431.545941873559 370.3151938668621 L 287.1585104716245 409.3641295345374 L 546.748019125411 498.1331392037178 L 330.1596786646919 181.3381758715948 L 304.41118296098585 651.6158342665361 L 652.0458322055695 250.44710065050006 L 102.90568705441052 359.13320080228556 L 599.6392622157052 609.2565981465339 L 376.56945166816485 139.38937169849527 L 279.60070033402894 582.7494783507234 L 555.1769176379621 349.25922939727724 L 308.00681077371183 365.7731525261448 L 414.10211041806014 423.3988817216041 L 394.1601923776467 444.72847002849585 L 482.5909115947223 320.1138909911385 L 222.83118428427557 417.1563957293018 L 593.5214996751968 525.5981011549952 L 314.3386129175997 143.99522710861532 L 299.56197230636553 675.7338715630865 L 655.7349207914566 243.46778075454577 L 113.45337215571101 364.58851478114866 L 582.5816797717146 586.1867230495267 L 377.53874144525156 183.55965269399366 L 312.8820457777915 536.2723708315046 L 491.2443255215286 368.7702018510653 L 375.9658175979898 391.4319411756673 L 375.2424513796055 360.1694527767007 L 386.49752053145187 515.7908820723064 L 527.2600408848328 273.4773073829355 L 169.5483990656007 425.516745197979 L 629.1072957507124 544.2590266911753 L 302.94403832485807 122.66463423224491 L 301.2801095696166 683.051375818915 L 643.7432654477682 246.16451975234935 L 141.67745464320865 371.6742143143091 L 553.5892557673562 552.3761750334122 L 381.2748024225785 240.88681318019 L 350.0801063475483 480.5024190679774 L 422.32546414725414 392.01442467475385 L 446.07926938870355 415.7168398092704 L 336.2055850542904 300.4435154967578 L 381.5178226612253 579.9537806423297 L 562.964668881237 233.46509332119984 L 130.5688106447269 433.58616698825205 L 651.0786664736646 553.3167998889704 L 297.1280806971845 118.51192174318328 L 308.99040745431137 672.9487652019841 L 617.0727819840423 258.7897607477441 L 185.88633343125838 379.49491524002747" stroke-opacity="1" stroke-linecap="round" stroke-miterlimit="10"/></g></svg>