<svg version="1.1" xmlns="http://www.w3.org/2000/svg" xmlns:xlink="http://www.w3.org/1999/xlink" width="800" height="800" viewBox="0 0 800 800"><defs/><g/><g transform="scale(1,1) scale(1,1)"><g transform="scale(1,1)"><rect fill="rgb(0,0,0)" stroke="none" x="0" y="0" width="800" height="800" fill-opacity="1"/></g><path fill="none" stroke="rgb(255,255,255)" paint-order="fill stroke markers" d=" M 400 400 L 583.6628026584112 448.50440475574175 L 144.29036426531877 254.81038186200465 L 589.5591607276033 585.5087415603907 L 340.2960295295044 299.94479809357506 L 376.56311521670335 318.43355159621615 L 405.35330513513856 647.8285190773812 L 470.0520778512338 109.47036556126483 L 298.0311088359547 588.9809308369096 L 422.9428759877263 375.52027287619023 L 537.9685268200994 313.5785970725972 L 127.31028806187982 484.76972880182444 L 678.9825882891655 387.941855075157 L 256.67753087639755 368.70119899818565 L 353.57671269463356 376.2310902707629 L 569.2648631253599 551.9067441473817 L 235.3440450889045 149.33386018440453 L 475.16721926333156 624.571763940712 L 395.68266386125526 333.45995397061756 L 425.67814739138475 268.8924170755003 L 280.64672932305257 646.0695405754306 L 588.82908528862 180.22508453891942 L 255.8050648623378 499.24069846644375 L 382.31677177300423 406.3466763698661 L 603.3670663811112 382.387293565558 L 107.17722433994493 349.1892164862578 L 632.6290151301304 506.69128063630126 L 323.5548805564749 337.13685752112286 L 339.9496113305083 316.6606710511201 L 492.3724919576349 640.8775042174359 L 368.02993422207965 105.09808724450073 L 369.8916283451451 598.9288588796122 L 405.88372550877955 386.4037044301155 L 510.2238731081458 259.90052698841737 L 167.8262537179737 575.0329051685576 L 651.644478790544 297.21136433622905 L 271.0661232745983 416.8020383752429 L 330.0291113552024 390.9507493735682 L 621.5633796583193 490.25080002971123 L 160.4454330919911 219.76695853393107 L 539.1830830259898 576.5552338025301 L 380.8018647558186 355.7541544044625 L 377.3851087315013 251.55459522709978 L 370.02041941305083 679.067149182504 L 501.54451301522 134.43459590632972 L 306.9146182776525 529.4506240970292 L 371.0574638598841 423.84742325492317 L 597.6070676185153 309.13882661904574 L 105.27787891615975 451.4349013450532 L 644.7277660537492 420.95562044738136 L 323.6948507788484 372.69688932264324 L 300.9423338126854 331.9660751706729 L 574.2390589649691 602.3963188210805 L 271.7709507322017 136.28313214154178 L 436.09370045689417 583.3442916540573 L 399.74621879302333 403.9709627918223 L 461.0889122119172 216.89910265564572 L 238.37906011876325 646.566628480949 L 595.8209589173612 223.9172524971184 L 299.61191285716797 451.5220706604858 L 313.38426198960434 419.00321321411843 L 649.8827961624556 410.55756524043716 L 114.88649349034642 311.671345747848 L 579.7204078584844 512.331566615115 L 379.74214919484234 378.42713528428976 L 320.9709485212974 253.87327891762845 L 467.486333791648 678.701951859535 L 405.7291651013293 122.29495995875556 L 360.5827750900245 537.6852314995624 L 371.31636607080003 448.1757517640812 L 564.2315196797244 238.96553412988604 L 139.28010724637738 548.3690155289918 L 626.5273818138824 339.9401587599738 L 337.2054661137478 400.0609116394838 L 267.36293732685846 365.1088298442289 L 639.3583796005171 535.5986584980731 L 193.47170035256153 198.27653806640134 L 488.1755554787556 547.4442345039513 L 406.30588258945147 421.866174889498 L 395.3283309658157 193.02643351074752 L 330.49613267614234 689.4880445462122 L 520.3161838847388 176.49716422527854 L 334.96119884170355 469.53054148152137 L 309.84165939461013 456.5956664768479 L 648.1956255757345 322.5805302387095 L 104.27972058669087 413.0689800138874 L 593.7020446352865 442.10389398480754 L 390.3470534556243 395.0694648238887 L 264.8434859559221 278.9402834325409 L 560.3934587605328 643.6616703268714 L 314.0137993628981 143.93064199052947 L 408.3081404986876 526.1534167802487 L 385.7680197693401 473.0412560837673 L 505.2346598512662 182.50162163188654 L 204.97080508771415 627.4370701066757 L 582.8876317700909 273.8678364097366 L 358.3189334277653 415.005380848152 L 246.99600246383105 413.4005296158807 L 677.9472299417598 447.9518857797349 L 142.62904695918752 282.26328926245344 L 520.6338861134461 499.0049166115856 L 424.26203094578716 433.6026412791516 L 320.9500998876366 194.46008465634978 L 432.56223699157533 697.6692381357384 L 436.1785683572356 159.38760346250888 L 369.4067563538609 470.8843833452238 L 323.5417403127143 497.3760918263556 L 614.5246498673407 237.94593013230866 L 129.44288918901168 510.82018813396064 L 582.1703296543628 376.0807133761005 L 407.8926899108855 401.0129689602587 L 218.36169826001904 326.21747717484635 L 636.3248271780088 577.444351783305 L 237.960795746019 194.86112983908978 L 443.5397354958996 500.0798375385722 L 414.0152079199977 491.401038099444 L 426.703638426032 149.13613406732134 L 293.81865162051355 678.5014505427498 L 521.9124942506131 230.11307785075894 L 380.23452912397266 416.318125467562 L 246.13470478866853 470.92927437401863 L 683.565507053916 350.2286623786124 L 124.74810297975534 376.69958419074845 L 531.5859263432255 446.93945780413355 L 449.4685045619167 433.90495483971006 L 248.11259554934512 223.91313487954739 L 531.4468345185193 669.6691110117536 L 354.99634913972034 172.5603816079891 L 396.30054718823595 458.7818209822456 L 355.60744256263564 533.4883259112962 L 551.4442523148841 168.46925073110444 L 186.33770746653497 592.5008866362261 L 549.8537046328277 322.90700304882466 L 426.09648188424717 394.2479780336441 L 190.29076296311692 391.34354625591584 L 684.9091174011556 487.96253421442356 L 186.4444314404248 266.80817510368354 L 462.6494371430127 466.5866958905702 L 452.4986446695994 496.84669883826666 L 338.10414833508315 145.46505101608582 L 394.19481967888174 695.2789331970513 L 453.5482944126891 212.26659599069419 L 396.4953141887394 405.89932466090943 L 268.31755547679904 529.369797091407 L 654.1797798437397 255.026209994982 L 140.66370791946736 469.02787267971036 L 522.8068731020628 399.7617507589889 L 475.7073428579712 419.8368830553521 L 187.62147763848046 279.95764772662704 L 614.3704546563135 608.9772332704381 L 287.1737194562644 211.75043102776257 L 411.22121423638714 438.76920900120285 L 403.69491286526124 556.95074737052 L 465.8909172093447 124.3826660630503 L 266.72424598094244 648.153343393135 L 504.1688474632218 288.42024022830236 L 438.41429062669573 375.8339764558036 L 187.27653879606342 466.58115573894514 L 699.3553631670835 386.4794133034271 L 164.4808255358339 349.0457588340356 L 465.3568901088805 433.30311591328746 L 494.99539799064536 484.92146656344096 L 250.99893621129678 174.12246869810906 L 493.04585147880766 676.2050612134187 L 387.95890457616986 219.82963391173595 L 402.27111011889014 388.2836963334828 L 313.48131748807947 579.2596139808657 L 592.5839021106692 174.973195428268 L 186.56889128624536 547.502801132481 L 499.15789140055733 364.19400226631745 L 495.87129659748643 391.5095985370873 L 149.24967901723053 356.990596126783 L 670.7270115075838 523.5291382197239 L 240.45596344657034 269.3200955298908 L 412.6990650370547 417.5521640151856 L 462.1478286191475 561.1256841796891 L 368.29560798515985 112.75071157109505 L 359.4245780242237 671.646323251595 L 453.83926082507577 274.9213765361791 L 439.39247954003326 349.7300147149019 L 212.59626906110427 541.8523840269426 L 677.4725054824648 286.03283261001184 L 172.67671610515427 430.07228655275856 L 454.55069280778633 406.9474021028333 L 533.6311307531768 454.1307807483435 L 177.38774578753944 233.1891566594039 L 577.763162241045 624.5968899570194 L 333.9436147604332 248.56542463582477 L 395.3199649207135 369.67523868857546 L 377.6898422759855 611.5392119404726 L 506.1009375777869 120.89643242871165 L 254.73263441365526 602.8473985277576 L 467.5205034963352 344.14569123656753 L 503.34868948055134 352.23641070935315 L 140.1484082052849 445.86894735889433 L 693.5851442473213 424.5655488718111 L 218.92692098882247 335.60536338531165 L 402.37981518110917 401.6276982459227 L 522.7481772139806 542.0262455314993 L 271.1588637529135 136.32629283954816 L 451.9955780191354 661.4433447653369 L 407.36956795575696 281.0621902746808 L 425.8315148254062 322.0723308376641 L 265.4026699501781 606.2112335508854 L 622.0142189863117 199.58386366067325 L 207.36597460335355 499.33797997289906 L 435.55284740852676 392.1274956061874 L 560.2410294195953 406.4587923605373 L 127.92197561967413 316.28791360783583 L 637.964344911076 548.0948363508289 L 297.650122487492 291.4290697807963 L 376.4573050656617 356.6700651436061 L 453.5054099698364 619.1049378596424 L 405.6026063552579 100.22893238886189 L 334.7820183752641 629.4895184163088 L 435.4330246412087 340.2247604444506 L 493.3665462186497 308.09503519058154 L 163.6083282236562 535.1322442607726 L 680.6414374748649 325.00972135850407 L 222.6218978629083 400.5161795518274 L 384.6063599616989 395.9825024356115 L 575.9544573487544 499.22935580808195 L 187.27948112385565 193.0332448602671 L 532.5495355742125 620.6719073207655 L 371.6328825793983 302.34661870831076 L 397.54932621050904 300.02324964904517 L 340.60241087786204 649.5262448423463 L 540.2936792132937 138.17061850416252 L 261.3929119881143 548.7570625879531 L 414.9675618895993 390.56378829290117 L 567.8510496527962 347.2848146328231 L 110.27207511770933 413.36738303420066 L 666.9170946621824 457.4761612995205 L 281.7811387053535 339.9050298362925 L 349.44794400142894 354.89696092292337 L 530.9633474960744 598.1149692015799 L 303.98948970905445 115.90557242656968 L 415.3376432510817 626.1984739881718 L 409.6708779277963 349.84910194673074 L 464.0516258584621 266.9607725300573 L 218.37900682486546 612.6342515947936 L 634.4838548918856 237.61127556325178 L 247.79715911517556 455.12752220646945 L 365.49875361657365 403.0891766734933 L 612.4331358626337 436.2250415275089 L 127.90493602062372 276.16538372139837 L 591.4417330731392 556.4967430246804 L 350.80402262695503 332.1418932459431 L 357.60061039543086 290.39128845732546 L 429.4094024407359 664.1064954943921 L 443.12613782705523 109.34765977885456 L 325.3997480334333 573.7742379401188 L 399.3248725275121 400.863274959227 L 552.0256788535116 284.6943617118402 L 127.90607311477805 512.0665911074298 L 662.3944965991592 365.02917652813073 L 285.4076345737914 385.51882742168453 L 320.3366072228564 367.820180575184 L 599.0096081336068 548.8233706482961 L 214.36018191543147 165.91821812948575 L 485.73964503617105 596.0394273221528 L 395.01774921752855 367.92344539054034 L 417.0136690177921 237.1665868055824 L 298.66919405937824 667.3359549069114 L 562.1312443218114 173.13978736951157 L 287.79018844324156 493.005671178978 L 351.6994418740585 422.37945177630996 L 624.6351626599379 360.1227216368728 L 101.08682873597326 375.28058849963134 L 622.5692270813739 478.9087079205604 L 345.8085302416561 363.012311725589 L 311.9012402746983 298.2646355979782 L 520.5044834895589 646.007476495099 L 343.2613142616729 116.14694213969261 L 389.39840786547603 573.831234800841 L 393.76275793937947 418.87759979140014 L 511.8454105102326 228.28239547257232 L 179.47641990434607 599.4590778588823 L 626.8411910752905 282.7432926535615 L 304.39911644589364 421.2663063032605 L 296.330719989617 395.92215022085355 L 647.1813489101253 475.78956872882213 L 148.14681520858966 243.6002935273272 L 537.5926626142964 545.6724897694969 L 393.4381110590224 387.95083001660214 L 357.33359564228437 226.0133473746284 L 394.84400969293546 690.9819229141331 L 473.92717498609557 138.90159064261974 L 334.3104236353846 511.06327386816804 L 349.00902810870986 450.2902281119905 L 608.1557322173994 280.740660532756 L 110.49494640400934 477.65968151215606 L 624.0904008375345 399.13051171302743 L 354.36720978259746 388.13782807778097 L 268.3094206863894 325.9014944698192 L 601.6337201038965 595.7994583973077 L 253.54611815414964 156.71472145275388 L 444.36629173742114 552.1790998629572 L 400.9830382630707 438.5761500126754 L 450.3341464173016 187.63460569610962 L 258.91906316843904 663.9132581783742 L 566.8388774481813 220.59517416756532 L 332.37857168741425 442.72325411508865 L 284.4283491490649 436.4195544561402 L 667.2656768038191 387.40915844989445 L 113.49998206625582 338.597716373971 L 565.8927248160878 484.12693737888173 L 403.7900231256441 403.3748985144467 L 292.9387252789454 238.38392663280646 L 494.72474541675456 679.3960325182296 L 381.9657374268672 137.800420906326 L 378.93347042893413 509.8189205021233 L 361.1576557982681 480.878605330311 L 562.6450028332833 209.20760104808386 L 154.8735829327809 570.1111436311119 L 598.4695941367784 327.8969141944831 L 371.6134281171376 402.56943879054995 L 235.31003541719423 372.0807059190681 L 661.4038667740931 518.6629376286294 L 185.0986363667957 224.67333456687 L 483.6079902518293 515.088973566482 L 420.66792994750114 453.2760198521924 L 374.24474315890154 170.73114141382993 L 356.2581327002154 696.7847629906651 L 491.9692160597868 185.1918182840367 L 362.0238258730436 448.6567294796688 L 290.0309824850413 483.57543564999105 L 654.6693938805425 294.8209502636481 L 114.16711486935026 438.3768158142037 L 569.5711790457204 421.2618172965303 L 422.1224927660522 408.91137222956644 L 233.45092782315044 275.70298797936414 L 585.3004744856536 633.1889218025163 L 298.29751114033013 168.07536195067365 L 414.54347365780717 493.038147419935 L 388.9350711939208 506.90275648812684 L 492.10578343480853 156.28892156527561 L 228.2245803084342 640.8482338426111 L 551.8597715770292 273.8815527247205 L 391.1628978683261 404.10497641090177 L 220.51978365348953 432.04097926089645 L 690.997794600914 423.7806487332116 L 145.77033110737963 310.14404776265013 L 503.6692138324207 470.61077386674117 L 449.4638661285895 457.00842503191706 L 293.2156601401548 182.53613916622234 L 458.99939050711725 693.6805376044028 L 413.26490762871464 178.9708039956051 L 386.4820501932578 441.04696663896584 L 315.78721035952856 529.5675587033617 L 609.2736049572333 210.3469027272312 L 149.03108538294174 530.0372388629783 L 551.3883688013188 366.16968308531733 L 442.5000243584607 401.6304582316054 L 188.68468237159536 335.43168610021013 L 654.5936388423025 557.7595261965253 L 233.19461301519564 223.74214921567028 L 436.4826266604587 466.83623933340635 L 429.8421789340297 521.1832532203047 L 404.51050723595085 130.69954821799558 L 320.6889155526792 681.1536222497757" stroke-opacity="1" stroke-linecap="round" stroke-miterlimit="10"/></g></svg>