<svg version="1.1" xmlns="http://www.w3.org/2000/svg" xmlns:xlink="http://www.w3.org/1999/xlink" width="800" height="800" viewBox="0 0 800 800"><defs/><g/><g transform="scale(1,1) scale(1,1)"><g transform="scale(1,1)"><rect fill="rgb(0,0,0)" stroke="none" x="0" y="0" width="800" height="800" fill-opacity="1"/></g><path fill="none" stroke="rgb(255,255,255)" paint-order="fill stroke markers" d=" M 400 400 L 478.18577968717983 591.8986414234016 L 185.6462254300416 609.4361661167645 L 192.55274631696287 309.81126858896545 L 400.63727046745277 372.54433212944036 L 225.7121710330321 466.33783487462085 L 197.3107987590044 182.68449145927724 L 502.15369834285553 179.19128492573242 L 454.636592495297 402.5376949711308 L 345.169710477809 245.23523851631722 L 618.21655758437 205.74085128121888 L 631.8843416501761 513.8827966361082 L 394.332723084757 481.27124389722945 L 533.5027871878726 356.1616437782002 L 584.3098312306363 616.9755087058343 L 274.8239529274087 640.6026541729104 L 292.905521807782 390.03009992118984 L 433.52464767775245 510.69676583118775 L 186.46425459063812 573.0202188548546 L 153.0800288084428 264.1657761560696 L 415.36813800247694 268.14936995251605 L 313.439099767194 424.0369500650012 L 239.41815425294305 192.13346400631661 L 545.6617167928395 149.1793489685383 L 555.2964858955448 421.7643716941358 L 384.49378058192633 338.6736824426612 L 599.9637951438907 252.80391488952625 L 652.3169810692358 554.4693682769143 L 370.95779953550544 577.2041005696437 L 435.2384303276513 391.9551722769268 L 533.0713193175685 589.8505071100019 L 237.92275395214256 651.4487172380665 L 202.6365779445724 362.93187328673855 L 401.74508196297234 408.5541100501556 L 222.42319683693464 518.4200433093195 L 151.71771876740456 231.68268571626632 L 445.69349175174784 184.4153084608652 L 418.46129120397626 396.67803563714534 L 296.54405984225406 236.78030947485937 L 573.0359661618614 157.0903726977982 L 631.7005888423537 454.7566363181621 L 407.1073917105184 445.5370339092819 L 546.8824345200849 311.6090320793869 L 635.4467947783097 576.096383099117 L 335.91474363651776 645.5680966294251 L 327.59983998977117 409.5849756113371 L 473.4324966421109 528.6936002284101 L 222.61931200763922 626.032166519555 L 142.92993958741044 326.5010780002791 L 389.24857856510215 301.22130224054393 L 291.19423560847696 458.78053356381787 L 185.1755427742542 223.2081375645503 L 482.81172524443133 133.88357468563254 L 524.4048620654943 389.3737297795087 L 355.3749266825061 312.6060873599526 L 574.2554009367972 197.99954098194002 L 672.6451347249275 491.83502039592474 L 409.2514774630855 549.0182099649062 L 464.65354126037977 368.856391907138 L 587.7525747644216 569.7206785721403 L 299.61978044313304 676.6226803596212 L 227.63128862317728 406.6906711731184 L 418.4988305334835 440.7984866089249 L 236.83798776276697 572.2861723048272 L 121.9557022787123 291.7383949923871 L 396.9719001242321 205.78030364168015 L 383.941491117099 406.8365594424468 L 244.18320503249583 245.42060033533883 L 515.2991198260568 123.06619445546772 L 614.350641642385 401.6327145831855 L 403.71608468752146 409.3233397869228 L 543.998924586399 261.4327344663744 L 673.3430923851563 521.3210983620551 L 392.8293994431718 632.559761286856 L 364.9064699138445 413.0522307265523 L 520.7647220837875 531.4728208026224 L 273.83310110030084 667.3512580571663 L 151.33363123446554 386.55138617308296 L 378.9134853197559 339.0089821722481 L 282.92080759917815 502.6376249268751 L 140.9365779466766 270.3105979300972 L 420.31614248596145 137.4870192409046 L 486.75031655304645 372.2439716904553 L 315.58722593785984 299.0786081019339 L 531.7573402938483 151.39078464530476 L 673.9671362156639 427.6112103198398 L 433.02094692058273 512.1046416453196 L 483.12706259338586 333.6876236445561 L 636.1409760848137 532.2574257216198 L 364.8370531632164 682.9229079052102 L 263.2109138250631 436.8648289927254 L 448.5512008248218 463.84685585784706 L 268.9037532482595 621.8316732417434 L 110.69791235909571 357.2058101872345 L 360.7054152490046 239.45621179164374 L 356.74716160233686 431.33385913991356 L 194.12741380246683 271.7980937580914 L 450.32418440489073 106.9449694673205 L 583.1170493497387 359.6598847400964 L 385.14775333809735 378.46339135581326 L 523.5253779088783 211.52922925582956 L 694.1611480184968 457.5713415474726 L 440.0536280607218 604.2683648438403 L 398.90714529915226 400.7168228906084 L 569.8463451482226 517.0415611220302 L 335.643982491732 692.6290439302211 L 176.22867335537336 438.508639733499 L 384.7862412613536 375.58841464301656 L 291.24998172834506 550.2296319179599 L 111.50370756539746 329.49672384445034 L 364.2013200184496 158.58363756729258 L 448.1832335487255 371.5019170368452 L 270.14180724199866 301.32461691310533 L 475.84559567569 118.17113871429791 L 657.0132756251229 367.9642841469912 L 440.45004513683483 472.1618487851733 L 486.86743263449745 291.026204535073 L 672.7201883733117 480.22548218256713 L 427.34831847866843 670.3935539370846 L 303.9051937888155 450.9719414940229 L 487.819352286057 473.40082019023146 L 316.5020461341652 661.289923993058 L 118.58758300599936 421.8795981671562 L 340.0108775357404 280.2741605664349 L 341.6255293185769 466.63586951381257 L 152.31764445995506 314.4671389810141 L 384.21506318804046 110.04942318465959 L 542.7981412353081 332.5493233982473 L 354.3405521834146 358.08935510821067 L 486.2170094477659 167.9354646167095 L 695.9156886566179 390.77045071167487 L 473.3297833011561 565.0574926029833 L 424.15368303899834 374.8816279817945 L 614.6241364600946 485.4560573565146 L 402.3859078159296 699.2434736537275 L 213.74461998025808 477.62373114201887 L 405.23032774278386 405.26844262312727 L 316.8238411894789 595.5670635883723 L 100.1015010859515 395.4310651041524 L 319.6463968092873 193.84793897375167 L 414.56155045681356 386.1997805577193 L 224.88514841373268 320.674669764277 L 411.4560865427641 102.12539491412122 L 624.5195386238481 318.4363649494131 L 431.78444900132433 435.13621466512996 L 473.8745201004229 246.4981160284882 L 693.1949759549509 418.097582122101 L 481.3202558283929 641.1444061812531 L 343.75873694471693 448.5513838229956 L 530.9724682535139 466.81836587658745 L 375.68086155907093 685.9118492049129 L 144.16947390561003 479.71082642097724 L 336.05016558766 322.3492386761711 L 341.82437345035237 507.77780559987 L 123.89412792205536 370.04714198897943 L 323.1579064364998 131.5984924815482 L 499.12986122074113 322.1499352959437 L 315.82710606656167 352.01071672015206 L 434.83984478153076 136.11488977795818 L 678.7029510146239 327.16161813356524 L 490.14515907076986 520.4376744307345 L 436.3263052578394 339.5865957202883 L 649.3837224536214 438.8326953420285 L 467.8395495528046 686.6044308991006 L 258.66974991937604 500.75207411376914 L 436.75257042764474 423.27708228323127 L 358.2021691027816 632.7603184400143 L 107.99881058958982 461.99873674373 L 290.38763695321006 238.43638245058182 L 391.0454699315165 413.4381316877986 L 185.80397963972138 356.38236254994274 L 344.52006211270583 105.18447952045477 L 580.8968552800566 283.30743514120053 L 409.2906322668031 406.50712132866306 L 444.1923842029535 206.10774661810677 L 694.9978248481059 351.5445677518313 L 521.984254912349 599.0951458283602 L 377.04615872974205 431.20573679749333 L 572.0682932459565 443.4418931636204 L 441.10310824059746 692.5273224812086 L 184.06722255765322 525.5037581402823 L 347.9068379490536 359.7864042563565 L 358.6930637172648 548.9586023391997 L 112.58758739071129 433.6037187727782 L 272.70846951423925 168.8039469566251 L 458.0984054088436 328.2446765570028 L 275.19001169167154 362.24965988823124 L 373.8618943432165 120.3093237509542 L 644.6860685728211 272.588781370114 L 490.0133119519247 476.40663834053646 L 432.75778190095576 300.12137849547446 L 669.428520639667 381.11556848595274 L 525.948412308987 656.2213242598717 L 305.0744918914516 506.7088763955645 L 474.42694930618137 426.338265208824 L 412.0154574668431 656.7204696263029 L 134.3598655620948 523.0091075840681 L 278.2938766762501 286.56625498463643 L 381.47573259037705 448.72054663204307 L 158.31189143153262 405.69590425388685 L 281.28209676574295 127.19719593878659 L 531.704405903718 265.10708607331037 L 376.97505729050033 390.62844409312385 L 399.9200667492362 175.52130321266222 L 677.5935430188479 286.7840440456822 L 546.1819413932415 549.5077859957738 L 398.95867433079155 402.39753560637956 L 605.2634648349227 404.6912177695292 L 506.65872319683547 679.9220926688774 L 233.38560524764418 555.5114763951836 L 372.70913604006677 387.3861044557262 L 391.50858858634143 584.2356179137952 L 120.27495731792993 499.21352527147656 L 237.1542272301448 217.20204323241148 L 425.224886038938 348.5916751216983 L 238.39192945404722 388.78843018849227 L 308.943039340231 123.03317975952166 L 597.83839825362 231.82487003470422 L 474.51537854212177 438.73369558255 L 412.76138891124185 262.3890589655722 L 671.640337832509 317.62778960599144 L 571.5156133401376 611.5247797289868 L 347.01787795262385 496.39236388777454 L 512.4888373353191 413.0707840319843 L 473.3462687580649 663.7672902667642 L 176.34186389751176 572.908437915068 L 283.16300373586716 332.20364488372036 L 387.90895357735076 486.4979686232001 L 146.60190396458458 464.1671384774367 L 227.58097440498113 165.94581356539584 L 482.9892018558133 264.3333694163663 L 340.0968809485694 390.20430550963465 L 344.9789710345176 159.3885172653084 L 642.5458772478856 229.86424983818057 L 552.7202620240053 498.3625164638399 L 406.18100749719514 367.02547804423403 L 625.5137208360276 353.9104039249669 L 566.1683884211013 648.9857253245674 L 286.29019766105984 567.860239813222 L 405.9846739976767 401.2662338246578 L 437.5472611746761 608.2375146361367 L 146.75207155156696 560.6462997201509 L 219.02632657910314 271.1810477834192 L 404.9065296854222 379.2051294814504 L 211.05943636153242 429.55864623197436 L 246.28364041557546 144.76978451429676 L 543.4750901657175 208.0264854680137 L 447.0966847071465 412.2727863467148 L 377.72384003938583 232.1961881252292 L 654.855410517885 254.45932359525304 L 600.799302443484 557.4634777659363 L 379.2535892148584 472.6605934026552 L 545.0294067071285 384.16223200595005 L 536.2941229017459 652.0726893953599 L 229.4275541902782 607.4175649416419 L 302.763302604742 369.77926715868244 L 410.36497751480084 520.8383924066068 L 153.14148897335278 526.1617164622934 L 188.1781287683911 217.40368759061897 L 440.5699201710264 279.41174036749953 L 304.5318327663936 405.96106382824195 L 284.66411564458883 160.782790098104 L 593.3382484420829 185.96746195875124 L 542.4944172522702 451.6506414281755 L 397.29043693620935 330.83026419634024 L 629.1812407176016 295.9863487352668 L 614.0959945474908 602.6130518372437 L 336.69601191563584 562.7526856105153 L 442.20479117051343 399.32694844317143 L 492.39378750549565 616.8110704637517 L 189.75020670765733 612.0838162184091 L 218.8187767960373 324.64237060070013 L 399.8922285618748 414.84266325976404 L 197.80528210325735 480.6739567124206 L 191.9085580338208 183.9057024169488 L 487.62817185179995 202.37917047538653 L 412.6428279848418 400.38531482191536 L 330.95209831373273 214.5530551078362 L 620.0114266887275 197.76340688762573 L 611.9366513802295 499.9236915174844 L 397.8522247734891 439.9765751504195 L 566.7081086895411 342.2972935263147 L 594.6574165204763 621.8871334614453 L 287.95359452799784 624.0195770255058 L 333.1145987113498 394.8476306112106 L 446.816171634805 546.1426884486959 L 178.3697425097002 585.5103778031125 L 166.21269847709303 276.20455365874835 L 409.34952951774477 306.8987472715202 L 276.06249622405977 436.5543380419088 L 225.03206628436723 180.82596188345627 L 534.9697026395529 158.8149489631056 L 518.3643265920181 414.66806051652134 L 372.93080752794714 299.70035310802814 L 614.4773231957927 236.7839843387848 L 646.1859582035052 545.3706865508061 L 378.98384714109534 542.426093687488 L 475.454153850696 381.5034142656416 L 550.4513586207477 607.5254561322826 L 245.19460966661316 648.7910852513697 L 234.94782118657758 371.71730545654043 L 410.9543911434088 449.64144362783685 L 201.66917212237567 536.8787117495597 L 150.97090387921557 236.91090743018026 L 436.3388643537654 213.97493764043998 L 376.88544306147367 404.5409278521353 L 277.29203166891926 213.06691506402984 L 570.0480760407072 153.0444166263732 L 605.1465694085638 445.03998481955006 L 400.6663300643807 403.86377072940394 L 573.398988893573 291.8487462774987 L 642.6520601507216 575.522220069189 L 345.7723902735333 622.2401152988898 L 368.9758348032528 404.6117417809696 L 493.4200103610959 557.8219275338683 L 220.6325682543375 636.2246317545867 L 162.84732023465256 336.26818218883597 L 392.73782772122235 341.9062395892975 L 259.6789178503748 478.72211881423306 L 172.19763444094932 218.54211751834018 L 473.3736814443943 150.243514709375 L 484.7993964104512 391.392659294376 L 335.7409067460068 278.95973983751276 L 581.6880188298557 182.4646181813125 L 659.9503591304183 482.96787668682975 L 408.6598403623054 510.8708281526739 L 500.1464065471715 349.7766113718515 L 605.5926915194094 579.9743194129818 L 307.67460086699094 667.6607625677907 L 263.95609526577965 407.4548305929195 L 436.79585519588426 477.82781177580455 L 223.74322691181715 592.1598106312831 L 127.15752474467166 298.74365153706157 L 394.95059469346637 239.93632110269192 L 345.7079620089153 424.14337402373513 L 222.56381704679282 229.49994290638872 L 509.57274362134586 124.5210730407573 L 582.6874075722094 398.4783527579829 L 387.5832954797281 370.2364111664491 L 562.6943978329138 238.36755386078738 L 675.5821735712607 517.0913300518419 L 396.9693813479436 603.6874055911032 L 404.4813517380164 398.251427837895 L 544.9675774385566 552.8561010984355 L 276.36365956260835 673.1925188401917 L 177.14628342407096 391.50864472924565 L 392.2520212680653 378.69584453351547 L 258.972257136968 527.6659571391375 L 131.62221216239442 270.957829063139 L 414.7281055422206 160.00343265977273 L 447.3336992105702 384.01905405620766 L 290.0456113406751 272.72198377604207 L 533.1559359548284 138.7677373499622 L 654.9485749180194 421.5940218978761 L 422.88042668141577 473.3423694870148 L 511.70123460377476 307.9408853257226 L 651.8752951253689 535.8398660248884 L 371.06989505835776 667.5666785058384 L 300.9372944929529 428.3993580764086 L 474.2028685838022 494.4164958424043 L 263.0264845960977 640.4496156376435" stroke-opacity="1" stroke-linecap="round" stroke-miterlimit="10"/></g></svg>