<svg version="1.1" xmlns="http://www.w3.org/2000/svg" xmlns:xlink="http://www.w3.org/1999/xlink" width="800" height="800" viewBox="0 0 800 800"><defs/><g/><g transform="scale(1,1) scale(1,1)"><g transform="scale(1,1)"><rect fill="rgb(0,0,0)" stroke="none" x="0" y="0" width="800" height="800" fill-opacity="1"/></g><path fill="none" stroke="rgb(255,255,255)" paint-order="fill stroke markers" d=" M 400 400 L 399.378962262233 398.92868407184864 L 401.23074987198584 397.85086691722364 L 403.71478673752824 399.98041208382284 L 402.5066053486871 404.27192352967467 L 396.9516802120623 405.3886606662772 L 392.5713059784349 400.0783445683646 L 395.5744969795252 392.54806594374463 L 404.83124669450854 391.35350296015963 L 411.14084265868655 399.8237513302072 L 406.37726869846705 410.6105992369949 L 393.42088222140563 411.92186570306956 L 385.14964602447645 400.31326475005204 L 391.6385716492228 386.25282158341946 L 408.2915328510648 384.7860163322736 L 418.5563500785712 399.51065683360025 L 410.3774961092417 416.8609387737879 L 390.03189553584457 418.5220616896968 L 377.74204588614055 400.7044201195881 L 387.57502558575266 380.0488444623382 L 411.60845802483936 378.1546954969766 L 425.9542905260305 399.0415823258026 L 414.50335416315477 423.0171122009154 L 386.78776809582155 425.1829110560026 L 370.3555146825434 401.2512437834882 L 383.3878851374758 373.9418992691061 L 414.77907754245814 371.4659252510254 L 433.32766630631636 398.41720768126476 L 418.7507247837629 429.0734217775075 L 383.6913404499336 431.8979836737002 L 362.99703661517754 401.9529431030781 L 379.08135887716185 367.93761512084444 L 417.8006558045712 364.7261791447994 L 440.66950877596065 397.6384380501862 L 423.11531016291195 435.02430866486264 L 380.74524245694954 438.66076449420717 L 355.673562709779 402.80850070519034 L 374.65983255909515 362.0414789457757 L 420.6706694505484 357.94201178810505 L 447.97288658112285 396.70640270436803 L 427.5926379174854 440.8643594543792 L 377.9518902557354 445.46466129613015 L 348.39200259973455 403.8166757794295 L 370.1278638498896 356.2588290465244 L 423.3868102529699 351.120051051841 L 455.23091385068255 395.6224535971945 L 432.17806646973395 446.58831251158597 L 375.3134835070177 452.30301253244164 L 341.1592163597657 404.9760056604599 L 365.4901768392013 350.5948488515036 L 425.94698773879435 344.2669901743153 L 462.43675833248096 394.38816363960944 L 436.86679064414693 452.19106412787704 L 372.8320029101038 459.16909526819916 L 333.98200640196524 406.2848076932201 L 360.7516563367169 345.054560861498 L 428.3493315334481 337.38957978309645 L 469.58364946330653 393.0053246942421 L 441.65384747386696 457.6676744723362 L 370.50920799824087 466.0561331976529 L 326.86710944168897 407.7411813789061 L 355.9173419636303 339.6428208005628 L 430.59219342604206 330.4946198399753 L 476.66488636344303 391.47594529008563 L 446.5341222106733 463.01337333801206 L 368.34663521463716 472.95730473218146 L 319.82118854629465 409.3430107987827 L 350.9924220445735 334.3643119764582 L 432.67414915150334 323.5889515226353 L 483.67384574339235 389.8022480608519 L 451.502354528792 468.2235656723626 L 366.34559627148457 479.865751149164 L 312.85082527349306 411.08796731307143 L 345.98222730793117 329.2235398581756 L 434.59399988909416 316.6794490495721 L 490.60398971741466 387.986666909739 L 456.55314491708003 473.2938368882069 L 364.50717679483967 486.7745847897083 L 305.9625119112104 412.97351253131706 L 340.89222440438584 324.2248268798685 L 436.3507734747659 309.7730114599005 L 497.44887350833187 386.0318439048057 L 461.6809612507618 478.2199579473648 L 362.83223525582093 493.67689729774236 L 299.1626438269799 414.99690155070317 L 335.728009247854 319.37230747237277 L 437.9437253255032 302.87655435924427 L 504.20215304072286 383.94062590806794 L 466.88014553324257 482.9978902090767 L 361.32140219022745 500.56576788839476 L 292.4575119384998 417.1551864579795 L 330.49530018992704 314.6699233323375 L 439.3723390754773 295.9970016397623 L 510.8575924057151 381.7160609434829 L 472.144920803277 487.6237900419271 L 359.9750797071727 507.4342716361506 L 285.8532953112006 419.44522009108994 L 325.1999310371337 310.12141893564234 L 440.6363269227796 289.14127718566067 L 517.4090711958529 379.3613943073153 L 477.4693981938211 492.0940131871122 L 358.7934412873719 514.2754877722754 L 279.3560538966517 421.863660055084 L 319.8478439155388 305.73033729544187 L 441.7356296860295 282.31629657540344 L 523.8505916960708 376.8800644263962 L 482.8475841380107 496.405118873097 L 357.77643187105065 521.0825079819471 L 272.971721414996 424.40697298823983 L 314.44508199609754 301.5000159757517 L 442.6704165714721 275.52895878935084 L 530.1762859209036 374.27569846976155 L 488.27338771253164 500.55387367546 L 356.9237682358946 527.8484446890338 L 266.70609839583176 427.07143907211355 L 308.9977820877388 297.4335833627867 L 443.4410846507454 268.78613793334137 L 536.3804224950111 371.5521077180761 L 493.740628106268 504.53725511374853 L 356.2349396636849 534.5664393206268 L 260.56484538284843 429.8531567803758 L 303.51216710657377 293.53395519774585 L 444.04825805005305 262.09467498851404 L 542.457413362255 368.7132826978018 L 499.2430422092044 508.3524549859861 L 355.70920889545454 541.2296705390934 L 254.55347631067806 432.74804786058974 L 297.99453843188417 289.8038313768361 L 444.4927868506962 255.461369600984 L 548.4018203197784 365.76338808526964 L 504.7742923090904 511.9968824331587 L 355.3456133731548 547.8313624335013 L 248.6773520646939 435.75186254206363 L 292.45126815904206 286.24569302305815 L 444.775745705164 248.89297191307787 L 554.2083613645374 362.70675738800026 L 510.3279738884585 515.4681667323853 L 355.14296676737047 554.3647926569894 L 242.9416742262618 438.86018496456325 L 286.88879125746155 282.86179983157535 L 444.89843216738694 242.3961744560185 L 559.871916849276 359.5478874088927 L 515.8976235086136 518.7641598114324 L 355.0998607880331 560.8233005029779 L 237.35147901932461 442.0684388190985 L 281.3135976424752 279.65418769110335 L 444.8623647409069 235.97760410941314 L 565.3875354370241 356.29143250083524 L 521.4767267773434 521.8829384884954 L 355.21466727559755 567.2002949114515 L 231.91163145774934 445.37189319575543 L 275.73222417452007 276.62466658790675 L 444.66928064812265 229.6438141349504 L 570.7504398465143 352.9421986192664 L 527.0587263824417 524.8228064260927 L 355.4855405718001 573.4892623890172 L 226.62681970565163 448.76566862987494 L 270.15124659348237 273.7748187925597 L 444.3211333220511 223.4012762988771 L 575.9560323869634 349.5051371783758 L 532.6370301875952 527.582295803615 L 355.91042016480014 579.6837748404357 L 221.5015496550036 452.24474333981675 L 264.5772713962108 271.10599732972514 L 443.82008962393735 217.25637309305716 L 580.9999002648894 345.9853387217046 L 538.2050193770424 530.1601687028542 L 356.4870336067365 585.777497297069 L 216.54013972917087 455.80395964799925 L 259.01692767080283 268.6193247363143 L 443.16852679165794 211.21539005874192 L 585.8778206668363 342.388026412169 L 543.7560566399848 532.5554182060428 L 357.2128996992474 591.7641955354507 L 211.7467159187924 459.4380305769119 L 253.4768588968398 266.31569210837586 L 442.36902912146195 205.28450822737378 L 590.5857656082383 338.7185493504437 L 549.283494384397 534.7672692049566 L 358.085331943713 597.6377435732204 L 207.1252070523726 463.14154661325057 L 247.96371472069035 264.19575843678655 L 441.4243843870522 199.4697966892406 L 595.1199065384105 334.9823757315601 L 554.7806829698616 536.7951789200338 L 359.1014422508537 603.3921310372692 L 202.67934031192107 466.90898263022035 L 242.48414271634266 262.25995023270616 L 440.3375800017876 193.7772052938559 L 599.476618701287 331.1850858464716 L 560.240978950214 538.6388371298623 L 360.25814490573856 609.0214703918532 L 198.41263699905272 470.7347049592287 L 237.04478014213927 260.50846144348725 L 439.1117989283135 188.21255749296472 L 603.6524852461175 327.33236493754004 L 565.6577533124495 540.2981661080028 L 361.5521607828826 614.5200040189633 L 194.3284085519009 474.6129786039032 L 231.65224570699246 258.94125366159824 L 437.7504153400017 182.78154333922177 L 607.6443010789912 323.42999591828436 L 571.0243997077611 541.7733202725382 L 362.9800218061543 619.88211114197 L 190.42975282187086 478.5379745859568 L 226.31313134917207 257.5580566201696 L 436.25699004074755 177.48971264425404 L 611.449076454101 319.4838519651677 L 576.3343426571028 543.0646855427128 L 364.5380756478575 625.1023145839595 L 186.71955061711978 482.50377741271495 L 221.03399404415427 256.3583689799981 L 434.6352656489021 172.34246830378862 L 615.0640403000664 315.49988899090016 L 581.581045726206 544.1728784078726 L 366.22249066110305 630.1752873520467 L 183.20046250884502 486.50439266011193 L 215.82134765080013 255.34145940571506 L 432.88916155017307 167.34505980565038 L 618.4866432758464 311.4841380092014 L 586.7580196596844 545.0987447096236 L 368.0292610389387 635.0958590415578 L 179.8749259117451 490.53375465883136 L 210.6816548023369 254.5063679269356 L 431.0227686273705 162.5025769200676 L 621.7145605532085 307.4426974001662 L 591.8588304592301 545.8433581351866 L 369.9542121944832 639.8590220471477 L 176.74515244093288 494.585734274278 L 205.62131885633127 253.85190758598046 L 429.04034377303674 157.8199435829595 L 624.7456943232935 303.38172508570415 L 596.8771074032944 546.4080184296612 L 371.99300635436776 644.459937578944 L 173.81312554339274 498.65414677296474 L 200.6466759119527 253.37666636833382 L 426.9463041913273 153.3019119844009 L 627.578176021213 299.30743062611845 L 601.8065509915949 546.7942493242003 L 374.14114835879695 648.8939414745719 L 171.08059841540623 502.7327597617153 L 195.76398690549846 253.07900941432533 L 424.74522149747554 148.95305686091237 L 630.2103682702088 295.2260672457761 L 606.6409408075109 547.0037961854284 L 376.39399166140345 653.1565497952917 L 168.54909219930315 506.8153011936952 L 190.97942979057444 252.95708150667525 L 422.44181562121867 144.7777700066645 L 632.6408665408978 291.1439237989266 L 611.3741432891042 547.0386233892261 L 378.7467445203736 657.2434642075814 L 166.21989446891632 510.89546742823086 L 186.2990918191398 253.00880983514696 L 420.04094852238023 140.7802550069228 L 634.8685005209352 287.06731668681704 L 616.0001193995596 546.900911422536 L 381.19447637393057 661.150577135862 L 164.0940580040209 514.9669313345953 L 181.7289619254962 253.2319070297041 L 417.5476177266666 136.96452219790604 L 636.8923351999057 283.00258173344616 L 620.5129321815169 546.5930537129045 L 383.7321243916914 664.8739766835599 L 162.17239984790197 519.0233504336497 L 177.2749232289622 253.6238744624483 L 414.9669496893534 133.33438386424382 L 638.7116716615013 278.9560660331259 L 624.9067541961032 546.1176531968333 L 386.35450019365015 668.4099513170684 L 160.45550066379727 523.0583750595034 L 172.94274566192064 254.1820058123415 L 412.3041929954564 129.8934496786312 L 640.3260475864201 274.93411977783524 L 629.1758748284965 545.477518625121 L 389.0562967284652 671.7549943057891 L 158.94370437490295 527.0656565391425 L 168.73807873034258 254.90339088682134 L 409.56471140522825 126.64512238351875 L 641.7352374627944 270.9430880764073 L 633.3147074536109 544.6756606119155 L 391.8320953023649 674.9058079102606 L 157.63711810092917 531.0388553735423 L 164.66644442216673 255.78491969958534 L 406.7539767531424 123.5925937300488 L 642.939252507224 266.9893027736722 L 637.3177964573192 543.7152874351914 L 394.67637274986123 677.8593073189896 L 156.53561238238285 534.9716494142996 L 160.73323026350295 256.82328679361586 L 403.8775617097845 120.73884067158866 L 643.9383402924678 263.07907428190543 L 641.1798240968255 542.5998005890888 L 397.583508737022 680.6126243232565 L 155.63882169895365 538.8577420220562 L 156.9436825392064 258.01499580918505 L 400.94113241556016 118.08662181947801 L 644.7329840848879 259.21868343403065 L 644.8956171966674 541.3327900970519 L 400.54779318836637 683.1631107282146 L 154.9461452762283 542.6908701992606 L 153.30289968393993 259.35636428901597 L 397.95044099551615 115.63847416581615 L 645.3239018927054 255.4143733681723 L 648.4601536721065 539.9180295916502 L 403.563433828084 685.5083414964779 L 154.4567481822636 546.4648126858502 L 149.8158258480455 260.84352871289093 L 394.91131796471734 113.39671007553414 L 645.7120452255642 251.67234145409407 L 651.8685688688564 538.3594711655826 L 406.6245638256977 687.646117619485 L 154.16956271179637 550.1733980076068 L 146.4872446520032 262.4724497582523 L 391.82966453368647 111.36341455251159 L 645.8985975658486 247.99873127301552 L 655.1161617131324 536.6612400015506 L 409.7252495369209 689.5744687113065 L 154.0832900580044 553.8105124665346 L 143.3217731343321 264.2389177783358 L 388.71144482364906 109.54044278469416 L 645.8849725568659 244.39962465811445 L 658.1984006646237 534.8276287879062 L 412.85949833006094 691.2916553265329 L 154.19640226557834 557.3701080657178 L 140.32385590019663 266.13855849130925 L 385.5626780013024 107.92941796740911 L 645.6728119070228 240.88103380821008 L 661.1109294643329 532.8630919267554 L 416.02126648756695 692.7961709931653 L 154.50714446696645 560.8462103555962 L 137.49775947885257 268.1668388732096 L 382.3894303430694 106.53172941145124 L 645.2639830137821 237.4488934839221 L 663.8495726688889 530.7722395412318 L 419.2044671733076 694.0867439628887 L 155.0135373973504 564.2329261932315 L 134.8475668980319 270.319073247741 L 379.1978072388073 105.34853093640027 L 644.6605763124398 234.1090532942257 L 666.4103409677368 528.5598312912209 L 422.40297845558183 695.1623386751098 L 155.71338018313952 567.5244514060528 L 132.37717247922762 272.5904295643072 L 375.9939451449439 104.38073955032644 L 643.8649023492937 230.8672700860512 L 668.7894362723 526.2307700031425 L 425.6106513752378 696.0221569317832 L 156.60425340420036 570.7150783479051 L 130.09027686326488 274.9759358573434 L 372.78400349732135 103.62903442008053 L 642.8794885857144 227.72920044472593 L 670.9832565741086 523.7900951235541 L 428.8213180492065 696.665638782342 L 157.68352242316536 573.7992033395424 L 127.99038227099311 277.4704868780691 L 369.5741565937613 103.09385613080275 L 641.7070759369667 224.70039331418582 L 672.9884005647746 521.2429760042567 L 432.0287997994272 697.0924631192652 L 158.94834097817406 576.7713339844703" stroke-opacity="1" stroke-linecap="round" stroke-miterlimit="10"/></g></svg>