<svg version="1.1" xmlns="http://www.w3.org/2000/svg" xmlns:xlink="http://www.w3.org/1999/xlink" width="800" height="800" viewBox="0 0 800 800"><defs/><g/><g transform="scale(1,1) scale(1,1)"><g transform="scale(1,1)"><rect fill="rgb(0,0,0)" stroke="none" x="0" y="0" width="800" height="800" fill-opacity="1"/></g><path fill="none" stroke="rgb(255,255,255)" paint-order="fill stroke markers" d=" M 400 400 L 670.3913861271899 512.8859968992184 L 488.4322250458577 489.42621759337544 L 310.3824990097668 178.4082243558853 L 402.5524155573516 171.6509654864826 L 344.22352789936167 529.5083460302633 L 192.3296630179597 600.8209939738118 L 415.8405135534961 393.7987759991694 L 696.11515665258 406.62059620630816 L 500.64616194790676 444.68625862234484 L 228.97146483995186 219.1359453655244 L 323.1709449495956 197.0943012547933 L 394.77685701381574 555.7090053587297 L 281.9287422749953 658.1122201021715 L 424.9396002952094 376.9391501592679 L 680.2429284106834 297.4541371206943 L 494.0256010187909 404.2065855951355 L 166.58094633214054 290.05316252057526 L 262.60368831925825 248.03736327662054 L 456.6575799822964 560.3690208236716 L 384.4789678376679 677.4367632845874 L 422.16564568166666 354.2747877436311 L 624.5251594220895 201.51226277520016 L 473.65672579139556 374.89987725049 L 134.31769680925117 382.1556900399212 L 228.07782382521106 314.27321108886326 L 520.2041298307884 539.074445340161 L 484.5440250833481 657.4867026889856 L 405.27569758499993 332.7084895928872 L 536.8559178086543 133.05381397762937 L 446.79373707402345 360.4605099208646 L 139.03216628881432 482.46734741379015 L 221.97867927818487 384.03915936420105 L 574.2629092506927 491.8137638598131 L 567.6669239639027 602.9878498706494 L 375.596391178327 319.66026872766844 L 430.059287935588 102.19384813814537 L 421.1866326455408 360.85497383033197 L 181.97470698273497 576.0255607096444 L 241.8025931852538 446.12837935995327 L 608.1771734204395 423.36582225108816 L 622.6282219697929 523.731052376037 L 337.9559630515974 321.37012830699206 L 319.86645685407535 113.29557208469481 L 403.38686523331285 372.59214724500833 L 258.3587536886787 648.2773222072894 L 280.97123228076066 491.78139810896516 L 613.8075752088703 342.80958672574377 L 643.0997751136944 432.8031254391766 L 299.8625091562225 341.378827600808 L 222.4207403893083 164.3007148485095 L 397.367394215989 389.6980213264799 L 357.93124336169024 687.4819649029998 L 330.32357415074335 516.0279792631834 L 587.2086261153444 262.2072794551351 L 628.4315935536356 344.33807507826873 L 270.07237219089416 379.50118197939537 L 151.72805419658113 247.10784575970737 L 403.7268776280702 405.18380962860607 L 466.47631795194695 686.7078929055804 L 379.9847851891784 518.2602334738121 L 529.636620087174 194.66723510393794 L 583.4648238814241 271.1846479717493 L 256.8156532615303 431.5166838783591 L 117.47823310660738 348.92942185987454 L 419.63004706420077 412.7024693783109 L 568.0146291866697 645.0738000597039 L 421.2518819819789 501.96556367754727 L 447.6768254210957 152.1133786315543 L 517.4351975401246 222.89085824576293 L 266.01972398535395 489.6678005877932 L 123.5969163972863 454.3922593825595 L 439.49021971236147 408.054004466562 L 647.3365199308447 568.0105142187775 L 448.14423913420273 473.70553398710626 L 352.4314778348138 143.15183699361592 L 442.187885812078 204.34021244913987 L 299.8816842149129 543.902050709756 L 167.7602214083548 548.0216972647876 L 456.25321593696185 390.2308558354025 L 692.4453143328872 466.4857464513741 L 458.3400962086956 441.5648468271119 L 257.87798129664145 171.41927579561872 L 370.0389744061004 215.2506972631539 L 356.08417153828134 583.6486761452584 L 241.93778239735516 616.6885203144583 L 463.02251498411704 361.7852450101826 L 696.4983255588006 355.311669566571 L 453.34371954372875 413.38810562464056 L 178.65849599950658 234.72200716413877 L 311.6710161702884 250.58921433523682 L 427.8353790435741 599.8118342887594 L 333.85341053049547 651.6100164217297 L 454.6960214019816 328.4333599944083 L 658.916409862865 250.8131726874573 L 437.8781490049343 395.1542082595414 L 127.67007038729923 325.1422910497348 L 274.4320290915425 301.7900002785241 L 504.7638902346401 586.6107032408214 L 429.09764572415435 649.5795676410804 L 429.27870120902617 297.9615968309587 L 585.473627893438 168.24499260828273 L 418.6471400975801 389.8038463324926 L 113.86856063792607 430.1215629117745 L 261.3233509522891 358.5252844896173 L 574.5393609382851 542.9133027609196 L 513.5198330877317 613.2376234713064 L 388.59408934533445 278.639203936997 L 487.3522590233204 119.38922163399764 L 402.729173048928 396.74185711300294 L 140.67098070422725 534.3589738074763 L 270.8282653981736 410.6849430743557 L 624.9506055013895 472.79333575500215 L 575.4872805237512 550.3657753351024 L 338.23060310296216 277.44309803038584 L 379.3246291454602 110.73329460909929 L 395.93409679084306 412.1012637000729 L 205.24382040959333 622.2181659493965 L 297.5753772962331 450.1949596102751 L 646.0793915503707 385.17389237568244 L 607.6317610712782 472.354768135605 L 286.70481797951834 298.44472293345325 L 277.37108886513363 142.52803652474051 L 401.45671495939735 429.70549586702623 L 298.8157576407327 680.2418093766317 L 333.67756796145454 472.34590597759444 L 632.1791776727343 292.5846300127486 L 607.8023164428298 392.13673290504715 L 243.9760723600154 341.68659543791 L 196.13720250863 208.87349082391538 L 419.1010264288899 442.5280320808907 L 407.97800463185774 699.3491794348311 L 370.4669947075142 476.40367689446845 L 582.9095882814607 209.22076542562203 L 579.089501500033 321.9574082058502 L 219.57630346570716 402.79094963147804 L 146.6566058935582 298.8038586614758 L 445.2355820113245 444.35053055281 L 516.7650315542074 676.3418325424493 L 400.2806617738153 465.41579047855294 L 503.68325149055096 148.6234218982832 L 528.9531085517982 271.3812744531907 L 220.7011664528285 473.40977735522506 L 134.71538668355703 398.1730021485009 L 473.49605369853657 431.2800482083306 L 609.172712215297 614.4579655455474 L 417.9509708048327 445.2809930405852 L 405.03360348462223 121.3772766305512 L 467.6428608157697 245.86942017534105 L 250.62709844349578 542.4687795397215 L 160.11866803897033 492.0083275564299 L 496.1030270826814 402.8109769735389 L 671.6941031047659 522.87732985343 L 421.7204785205428 423.28878058618636 L 301.0836793947724 133.22840433916173 L 406.2214802627548 246.15732022872868 L 307.7695251378211 598.0061850313061 L 216.96113650472478 566.9265896263352 L 505.5393707946602 362.2033627556825 L 695.4488050315931 415.2574408031384 L 413.4169466779144 406.4330233510404 L 207.3562429410472 183.9604448502642 L 354.56096357700767 268.5088654643771 L 385.58789266803956 629.289342590811 L 294.8289507484165 613.2026733712758 L 496.25597234050315 316.0803417391757 L 677.5510462848563 307.5469281464964 L 397.8712014117111 399.842287333383 L 138.28600371073532 267.24135995212737 L 319.67574800324553 305.7619134880563 L 473.3928593687459 628.8299025409497 L 380.7016841944889 626.1512952814621 L 466.0619137031564 273.299018597091 L 621.4921505580578 215.44428039079415 L 381.7085056500877 405.64196718229977 L 104.85317013354347 371.48778654140796 L 304.68321185470523 348.9388009577974 L 557.946787328008 593.9247211370998 L 461.2075228658224 606.6087171462779 L 416.908356317906 243.29269521238376 L 536.4819554861529 151.928576556792 L 371.766091996047 422.475598274467 L 112.74311738688237 481.6182828601841 L 308.55714377282675 389.09825872190635 L 625.6005127751764 527.4243986531737 L 524.8326778926643 560.4636347118966 L 354.8852531871286 234.1906800226243 L 435.8713313319288 125.27307186123994 L 373.46222610276493 445.78157960425335 L 161.35138990720714 581.4116364666306 L 326.68719959450084 419.0700761418015 L 664.6045855269209 437.56213858054855 L 563.7051967938855 497.3540678786773 L 289.39656473785675 251.0740527281864 L 334.93307682262207 137.865831533681 L 389.45197297908373 468.77198609774723 L 243.81116650427794 656.0794270871613 L 352.10554261544524 434.7461793554228 L 667.1915339398129 336.83956336055735 L 574.6594891213047 428.7903616136366 L 231.63592646475308 294.7110795791694 L 248.38411208587968 186.01964250888122 L 418.8498395728206 483.9205931317322 L 348.0463833264589 694.6223701368369 L 377.11897088880295 435.69454888560165 L 631.0557904386593 240.13410801730566 L 559.4243851339165 366.05807643929256 L 192.62159076465647 361.0361432657208 L 188.06992683294203 260.7815230241737 L 457.1899551537375 484.66424298857015 L 458.678382378056 691.5748930556671 L 395.01338364594375 424.9975301255942 L 559.9553808271446 162.3344284857184 L 523.9390244169991 318.2826278198206 L 181.14108528155737 441.5048554670626 L 161.19665095475142 349.5807719994009 L 497.15098504206975 466.975019741362 L 559.4680117587957 647.8459999622387 L 401.49019796265605 408.3678151302537 L 463.30780742195736 115.90008414786757 L 476.9577438427814 290.99610391769784 L 201.98458993919812 524.298925522956 L 169.3939730488519 438.413794325414 L 529.9225780813115 430.47963520318257 L 635.8841741117502 570.5186745196329 L 395.552026064735 392.73503585693913 L 354.8258913302269 108.76284867337375 L 428.2290376784293 285.4444808269159 L 254.80513339407662 596.1962811787105 L 208.74227373397605 514.1783288841021 L 546.9613063414354 378.8839723582427 L 677.3698021666344 471.6478160778892 L 379.66617808258934 384.5972777270451 L 250.40710376436982 142.93480502161407 L 386.60259450908933 298.7301374540771 L 333.83963434900136 644.7939840067686 L 270.7269020983624 566.7535732507994 L 541.8014132098804 319.5901302389853 L 678.9304802334248 366.26682484908395 L 359.1780243600337 388.47595247792265 L 165.62227100013703 214.0713981634959 L 358.42068384966217 324.72708005833914 L 428.5755107945737 660.6976209118671 L 343.92202106315426 590.4778808583603 L 511.56544958878504 262.5467259659166 L 641.7896395026614 269.9456946367845 L 341.0946322167677 405.79119624847607 L 113.2227445373776 312.0759849136729 L 346.4864312592353 355.5638226932597 L 525.2794896081841 639.2854836621245 L 416.08427192435244 584.7912738791892 L 457.8667485437501 218.52207732500497 L 573.0162835786114 196.31579950621165 L 332.4842048083733 434.39239834057804 L 101.08583572873687 422.6543410947096 L 349.78457233381147 383.36754211384135 L 609.1485623606665 581.7210864091619 L 476.27384096669806 553.9643487344215 L 386.90190604856133 197.1061963216303 L 484.2078420451506 154.97623419353903 L 338.8148835528543 468.8502407870448 L 130.94598998115202 529.5643306349212 L 363.9825823817463 401.9211769242143 L 666.72624175768 495.0127504930016 L 516.6275731089232 505.99993355228366 L 308.6781131776734 204.80898591960292 L 389.47088645739694 150.1242805367997 L 362.5724246915614 501.4669660316005 L 198.12624289033062 617.1862623596166 L 382.58958387896143 407.90964865836946 L 688.1719843554249 391.08247967153335 L 533.4830878311777 450.93924879983194 L 235.4807039478496 243.61626208292708 L 303.0581070599342 180.12176123978733 L 402.4467347619699 523.8188243874243 L 292.31415111802875 672.9844586893788 L 398.52536581826297 401.5170271198895 L 668.9886158905094 284.97939080339427 L 527.6797978169044 398.9043777373818 L 179.83112737669626 310.29210614588175 L 237.07129443674097 238.04341595553635 L 453.2711399437742 528.5359612642483 L 399.24846367830907 689.44991168732 L 405.7754992992942 386.26657934994654 L 610.8997054445109 192.5247855931669 L 504.01833271930644 358.2461902350643 L 152.28771149700617 396.58788137334113 L 199.61886726136672 313.0826671351469 L 506.75513637300537 510.9713412550171 L 503.0284665697576 665.2041287911965 L 400.79496623063824 368.145361959047 L 521.711376030161 127.77930368830204 L 470.01523678370097 334.1357447472521 L 159.4815351517195 490.3575868812239 L 193.72750614137692 392.54452098222777 L 552.8978779811931 470.422474874982 L 588.6541475648269 605.0893717670249 L 383.37419320395315 354.19590998382466 L 414.1662797136493 100.75868599723577 L 434.21644771702535 327.8444657410007 L 202.7490652846781 577.4148773915372 L 217.16750804741812 464.06033835302657 L 581.8346388201015 410.6462963243258 L 644.3700287850514 519.2448125953799 L 356.787966622036 350.8629415917876 L 303.97102885580654 115.78656408152881 L 404.40809006287543 336.82212498847497 L 277.62632824970564 643.8288961233023 L 263.1863015038583 517.6309258236412 L 585.7776137550379 339.53507749080075 L 663.4244602639735 421.3409539485086 L 327.1891338363456 362.43283044939363 L 207.32165482312408 170.76660465868997 L 386.0733996592997 355.5277265745136 L 374.32273201579073 678.2695145167975 L 321.98410707648924 547.1467851094967 L 560.6834304430025 267.97665517267717 L 644.9619516595147 326.285703828271 L 302.3584475407237 389.8883070450883 L 138.33929692026805 257.5006057427637 L 381.38909945794944 376.8256859891549 L 479.1219229394241 673.9940617554957 L 382.6387115064732 551.1385997185225 L 507.31908589389934 208.07694845531802 L 593.9195505245873 247.80029298060037 L 290.0509976842452 430.4230612216631 L 106.84472990753329 363.0009529905347 L 388.9444325750896 393.65473785840203 L 576.4925658183677 630.1214726398671 L 435.11506248855414 532.6572594779054 L 431.49956547556667 171.04797870042012 L 519.9718645283001 196.27747545617075 L 296.26372340712686 477.73500699117164 L 116.84252604217039 471.57642008648463 L 404.22254945858174 400.62911058115975 L 651.5631951171491 551.9573171697259 L 471.9918129014628 498.34370857292174 L 343.41645991806564 165.1366745326202 L 435.73224329008684 177.2765002853092 L 323.771156721432 523.0664276726733 L 165.96375524107333 567.3393215882146 L 420.7343483350788 395.2492129563428 L 692.5456810313605 450.2942163918798 L 489.60052235399934 456.89510025342264 L 256.14135281923194 193.97442215797585 L 354.54124994953565 190.89038482457823 L 371.23287287952587 556.8123169317292 L 245.95161629893423 636.7123657809234 L 431.56748281661606 378.47863152058756 L 692.694385071446 339.7885510453958 L 488.39119242193294 417.2386704324474 L 183.5407763741396 255.66255493373777 L 288.2365352449228 232.06301040607124 L 433.0735476794444 570.4027920029105 L 344.09621429927256 670.5171885292574 L 431.03211708485895 354.57031813039214 L 651.4629625486284 236.67503045743985 L 472.48760267382283 386.7697984302459 L 137.9529973381217 342.78537950542335 L 245.290320036058 291.76517921311944 L 500.1935696638943 558.1036811647894" stroke-opacity="1" stroke-linecap="round" stroke-miterlimit="10"/></g></svg>