<svg version="1.1" xmlns="http://www.w3.org/2000/svg" xmlns:xlink="http://www.w3.org/1999/xlink" width="800" height="800" viewBox="0 0 800 800"><defs/><g/><g transform="scale(1,1) scale(1,1)"><g transform="scale(1,1)"><rect fill="rgb(0,0,0)" stroke="none" x="0" y="0" width="800" height="800" fill-opacity="1"/></g><path fill="none" stroke="rgb(255,255,255)" paint-order="fill stroke markers" d=" M 400 400 L 468.86655904758624 400.72726689655076 L 534.0322039875201 402.83121615778884 L 591.9965248223173 406.08456089106573 L 639.6491716628066 410.12893120856893 L 674.438116780852 414.5039929793743 L 694.5074480747949 418.6852340148565 L 698.7971945392696 422.12768072315015 L 687.099770846948 424.3123557768964 L 660.0700104696439 424.792052058084 L 619.1883031261968 423.23299747249547 L 566.678922031381 419.4492211785845 L 505.38807759921036 413.4268907686448 L 438.62843185138985 405.33654357726357 L 369.99863097865415 395.5319420985305 L 303.1877624253162 384.5351914990695 L 241.77544409732204 373.00870722382507 L 189.03846389547908 361.715550042985 L 147.77449761431953 351.4704924595362 L 120.15246547769391 343.0848866160334 L 107.59759727738998 337.3089204422498 L 110.7173470862532 334.77513808328877 L 129.2720387094434 335.94713909272866 L 162.19165825804166 341.0771507599383 L 207.6376772338926 350.1756981133393 L 263.1063283369828 362.9959016848696 L 325.5675023652043 379.03405400206344 L 391.6315115600859 397.5471145387654 L 457.7344772054631 417.58668150113783 L 520.332127270679 438.04791503826357 L 576.0913845408943 457.7308694474614 L 622.0693064906459 475.41080808131966 L 655.8696920552911 489.9133833140755 L 675.7689526727784 500.1901135739346 L 680.8045817018515 505.3894144809947 L 670.8216489884082 504.9185594331899 L 646.4750782033507 498.49235652303054 L 609.1879033636491 486.1650151634591 L 561.068112241078 468.34260150690744 L 504.7889351130083 445.77459532597203 L 443.43940424607604 419.5242984334336 L 380.35358593305546 390.91913287086834 L 318.92798854228175 361.48312818435414 L 262.4372195571161 332.85505327538846 L 213.8579746099545 306.6966264060733 L 175.71089595287486 284.5959730357714 L 149.92877138254974 267.9719446652544 L 137.75802073642603 257.9850287908969 L 139.6985239892735 255.46035546278847 L 155.48469077476875 260.82774511341916 L 184.1083774986052 274.0828709432269 L 223.8819534492944 294.77247207576863 L 272.5376292682613 322.0052126570208 L 327.3572099619728 354.4883122899954 L 385.32482616279714 390.58855913659306 L 443.29401731065843 428.4148475358359 L 498.1598498663897 465.91804510755964 L 547.0265857250546 501.0028719855223 L 587.3617743453067 531.6456379575952 L 617.1285010322025 556.0111873376763 L 634.8888299345408 572.5622828005622 L 639.8731558912046 580.1549331232592 L 632.0121267623566 578.1138279768618 L 611.9299056982711 566.2830550806943 L 580.8996916425328 545.0485893363672 L 540.7644860532531 515.3305895404193 L 493.8279700361496 478.54523064076056 L 442.7219367186066 436.53754287590533 L 390.25792447588043 391.48842345147165 L 339.2714556220214 345.80053267127454 L 292.4675660392247 301.9690925101429 L 252.27610488486278 262.44459167650405 L 220.72460840465152 229.49500460582266 L 199.3354525026865 205.0753109557496 L 189.05253282680047 190.7118392460452 L 190.20099558748626 187.4082607040794 L 202.4816479590916 195.5789596949192 L 224.99972259397666 215.01406153753072 L 256.3257671840315 244.87868399624125 L 294.5846832947774 283.74708887597353 L 337.56744457959417 329.67045000643975 L 382.85886291699023 380.2750341417676 L 427.97400190622585 432.88582191937166 L 470.49549724056254 484.6690800115206 L 508.2041445704671 532.7862229673754 L 539.1956441730631 574.5505456642533 L 561.977310591618 607.5781137840338 L 575.5398053721412 629.9242935662933 L 579.4004552232986 640.198079113083 L 573.6163863065727 637.6475040602306 L 558.7674400640446 622.2109467627814 L 535.9105370770452 594.5309734632975 L 506.5087266825272 555.9294126608452 L 472.3395143830714 508.3445032025138 L 435.38812342047294 454.2330885538019 L 397.73206618519725 396.4428200244111 L 361.42374121147554 338.0610686871429 L 328.37772064689557 282.2486286052334 L 300.26896234056085 232.06724092175776 L 278.4474028479748 190.31042120822832 L 263.8733149303163 159.34700029957233 L 257.0765138196175 140.98618999936588 L 258.14105071899667 136.37188750460166 L 266.71552671684435 145.9123925036192 L 282.0476842366053 169.2498104105099 L 303.0405715328195 205.27125693962384 L 328.3264053569891 252.16168147140633 L 356.353341745466 307.4958166148001 L 385.47975260721665 368.3645680655964 L 414.0703252788643 431.5292059135772 L 440.58836216977807 493.59511716728446 L 463.6790464437392 551.195721876174 L 482.23912654991454 601.1765101519698 L 495.46940946561386 640.7690648008029 L 502.90757802575695 667.7454037429437 L 504.4400900513795 680.5439861161866 L 500.29319906785037 678.3602237615075 L 491.0043804141209 661.196245850846 L 477.3765786406884 629.8668755479896 L 460.418646761902 585.9611728720424 L 441.276071782541 531.7613453642261 L 421.15653570537836 470.1231920006888 L 401.25502586124765 404.3243941333096 L 382.68307993602815 337.8887793980332 L 366.4063445323766 274.3960578748851 L 353.19397326866067 217.28738557009646 L 343.58253754649024 169.67739818650367 L 337.8561278695054 134.1830591908478 L 336.04325127373085 112.77879399455509 L 337.930049821145 106.68598222993376 L 343.0883441668482 116.30302778873931 L 350.91610785269535 141.18002215957637 L 360.6872562510176 180.03958130803093 L 371.6071309211523 230.84290387863118 L 382.869802945464 290.89760876244145 L 393.71331893030936 357.0016011015092 L 403.4692656101478 425.6152160542553 L 411.60351222226507 493.05231082491173 L 417.74566843953215 555.6799062289299 L 421.70562208134584 610.115480046041 L 423.476438663343 653.4111147304246 L 423.2238525523613 683.2143976364362 L 421.2634943649834 697.897225667949 L 418.02782144835385 696.6454100116289 L 414.0253946412742 679.5041148976416 L 409.79563188587906 647.3765796257412 L 405.86243721995413 601.9761323372983 L 402.6901363943279 545.7340659795929 L 400.6449475221115 481.66837005724864 L 399.9647919362633 413.22046211284027 L 400.73963638807726 344.0688214554908 L 402.90379489651065 277.9296971329385 L 406.24075869233394 218.35577225235468 L 410.40022385742907 168.54377820842456 L 414.9261090610493 131.16155904946544 L 419.2935594860698 108.20401548417061 L 422.9522716358788 100.88576925808985 L 425.3729924855745 109.57636982926522 L 426.09377894412114 133.7815282208078 L 424.76256944268374 172.1713369254143 L 421.1728229952866 222.6538594087862 L 415.2894109820686 282.4899902872543 L 407.26257685991226 348.4432344740274 L 397.42856926992454 416.95615439123486 L 386.2964538928609 484.34379282073627 L 374.5215604368426 546.9934736557443 L 362.86696079122567 601.5600623960795 L 352.1552400326799 645.1460488811683 L 343.2135549656098 675.4566793337968 L 336.81552433454635 690.9217638676246 L 333.6238210154577 690.7776403163789 L 334.13741346266903 675.104981715844 L 338.6472212244692 644.8205700207437 L 347.20351376595625 601.6236874408986 L 359.59771587266283 547.9002592276433 L 375.36042447679125 486.59018103699725 L 393.7764418091497 421.0252540469292 L 413.91654931370766 354.7467233852415 L 434.6846530808695 291.31248532472387 L 454.8778941704694 234.1045395458461 L 473.2564034805347 186.14718922381905 L 488.61865174681856 149.94584094257524 L 499.87785147308324 127.35506759711956 L 506.13464605404806 119.48293925012888 L 506.74139278794513 126.63659371971164 L 501.3537137857385 148.31172509323548 L 489.9656365338263 183.2262427351163 L 472.9255408918489 229.39593055866513 L 450.93122242347243 284.24765021669316 L 425.00361068470187 344.7636078210263 L 396.4399732358841 407.64855182314824 L 366.7487140270114 469.5105783567375 L 337.56905992400567 527.0455520331453 L 310.57994692840964 577.2150377707683 L 287.4032020800129 617.4080844901858 L 269.50661483660036 645.5781751923103 L 258.1126658160873 660.3481017079534 L 254.11851284192105 661.0773522715979 L 258.03232615696743 647.8887112822013 L 269.9302388670245 621.6530436821307 L 289.4370770904872 583.9335438749943 L 315.73271627356405 536.8929428128959 L 347.5844492063494 483.1691650141354 L 383.4042310209568 425.72660117507735 L 421.32817570139736 367.69142217057265 L 459.31430628458236 312.18014098483127 L 495.2533906661258 262.1308922452168 L 527.086800153767 220.14663556153616 L 552.9247672377406 188.35871928579218 L 571.1582325364571 168.3180141050214 L 580.5576773584537 160.91921458192917 L 580.3529339089984 166.36200551631174 L 570.2889230835191 184.15070809787352 L 550.653541535612 213.13187637718679 L 522.2754375441936 251.5672278212971 L 486.49109578362504 297.23737819867887 L 445.08240007507135 347.5702151983816 L 400.18756054588147 399.7864746190155 L 354.18987738904076 451.0542436703948 L 309.590173524115 498.6437488809297 L 268.8697802907383 540.0739052248783 L 234.35163766163075 573.2426948148463 L 208.06732767640727 596.5344679124017 L 191.6376746936165 608.8986523776093 L 186.1739215932935 609.8960364208765 L 192.20545553634528 599.7106551692152 L 209.63866268863933 579.127256534526 L 237.7498122573407 549.4762356984855 L 275.21299755790795 512.5497031356465 L 320.1621994053611 470.4938908401875 L 370.28459536862584 425.6843224944354 L 422.9404282506736 380.5910122358158 L 475.30317355589835 337.64137261182634 L 524.5125016676823 299.0884890665435 L 567.8316914788755 266.89196487456303 L 602.8007717535002 242.61769011912335 L 627.3767726288514 227.36169640888605 L 640.0530631712094 221.701799363608 L 639.9508048657435 225.6790912918283 L 626.8770119501698 238.8096234961517 L 601.345500418955 260.1249109025019 L 564.5590314968165 288.23829814348085 L 518.35310118965 321.43283452749944 L 465.10397572178056 357.76519099286503 L 407.6056022757953 395.17937335299354 L 348.9218197881718 431.6235806736765 L 292.22175186871544 465.1635410557385 L 240.60729738194584 494.08602226412063 L 196.94218100828527 516.9869324658641 L 163.6920501137879 532.8394478898709 L 142.78459849630127 541.0388639305095 L 135.49768479871028 541.4222859854906 L 142.3819450990241 534.2627702990554 L 163.22255303792605 520.2390048349313 L 197.0426564447159 500.3829999207842 L 242.14873295471486 476.00945988958097 L 296.21578492108677 448.6314640579552 L 356.4080654923336 419.8677477202259 L 419.52901840676304 391.3472093963264 L 482.19243798532233 364.6162672984967 L 541.0056093988957 341.0543541063871 L 592.7544456774539 321.80220230807464 L 634.580442677921 307.70667762342833 L 664.1396415636511 299.28482481393837 L 679.7347040881148 296.7085685075744 L 680.412622213707 299.8102377173701 L 666.0224251222539 308.107834194746 L 637.2294139990876 320.8478161195847 L 595.4848297493859 337.0621867498525 L 542.952310336925 355.6359178757001 L 482.39488691901136 375.38024093434774 L 417.0284680506224 395.1071282800159 L 350.349645551466 413.7003692147673 L 285.94711767654405 430.17900780020375 L 227.30698145528194 443.74952306633253 L 177.62254065287044 453.8439530311634 L 139.61908393958498 460.14213606477995 L 115.4033172389569 462.5773024493907 L 106.34582482096516 461.32532723237074 L 113.00315563128771 456.77898452598436 L 135.08398109640257 449.509459540449 L 171.46136580927086 440.21812239184084 L 220.23066529364198 429.6821032621311 L 278.81005497779785 418.6975021467896 L 344.078340637672 408.02410438255436 L 412.5426337434816 398.3352580616562 L 480.52681068417166 390.17612005501485 L 544.3705060718339 383.9328271245245 L 600.6277833051356 379.8143433325366 L 646.2546153460789 377.8478298159678 L 678.7748972504252 377.8874388588825 L 696.4158681747242 379.635513717062 L 698.2054815936787 382.67433921360384 L 684.0263374094916 386.50589002580193 L 654.6231645181246 390.5965085723116 L 611.5633864106171 394.4231448927654 L 557.1528751770782 397.51772494567973 L 494.3114587403712 399.5063839581547 L 426.414956319587 400.14069493998744 L 357.1123557688888 399.318611694382 L 290.1281118362395 397.09359028713953 L 229.06036100462993 393.67120248951574 L 177.18607127524797 389.3934518328483 L 137.28376179009922 384.7118871098925 L 111.48345891544278 380.1514197180722 L 101.15205604796614 376.2674351179181 L 106.8202970785984 373.5992980815655 L 128.15531601887028 372.62365085462403 L 163.9801643607279 373.71097104119457 L 212.33918158327566 377.088685289026 L 270.6055551047457 382.81373471455 L 335.62511224610876 390.7568826725096 L 403.8884151606868 400.60028288658674 L 471.72169830228967 411.8489354559365 L 535.4861803672437 423.8557074872976 L 591.7748530802478 435.8586463906696 L 637.59601989095 447.02843023461435 L 670.5336175030764 456.5230406494466 L 688.8756584781886 463.5461620297193 L 691.7039101764362 467.4054479733698 L 678.940074369382 467.5666802545137 L 651.3461330700035 463.6999899161164 L 610.4790460236641 455.7147105123914 L 558.6024843685752 443.7800698159287 L 498.5606253867319 428.32976261788 L 433.6210865636317 410.04943430280514 L 367.29573135194465 389.8471828098614 L 303.1492446997276 368.8082885648315 L 244.6059916482081 348.1364382691545 L 194.76570601764703 329.08465080147164 L 156.23800965072527 312.87987942067605 L 131.0046692898349 300.6458012254245 L 120.31692146930584 293.3285729316425 L 124.63322577627798 291.6303079271005 L 143.60055472368293 295.9547074030652 L 176.0799204989397 306.3686706950549 L 220.21440907142016 322.582847304308 L 273.5356749723498 343.95302236266025 L 333.10277277472176 369.5030093442944 L 395.6654769878973 397.9684298036302 L 457.8429634484673 427.8594672436212 L 516.3079596303565 457.53946992385124 L 567.966256929752 485.31522136563643 L 610.1218223123975 509.53386551778425 L 640.6186260602165 528.6809219016639 L 657.9516635059224 541.4735947023416 L 661.341412045914 546.9436903819078 L 650.7680291350315 544.5049124927598 L 626.9638452917145 534.0000808768306 L 591.3650120889799 515.7248864031866 L 546.0254003251198 490.42608496646307 L 493.497884836121 459.27348394527473 L 436.68988847463515 423.80659816539634 L 378.7013954607519 385.85836196666025 L 322.6545135493906 347.45968961235064 L 271.52402201715756 310.7298927253664 L 227.97817408497775 277.7589148849351 L 194.23834328511347 250.48796830473157 L 171.96495701435958 230.59541200671887 L 162.17561625175367 219.39457240133785 L 165.19944878047366 217.7496756188264" stroke-opacity="1" stroke-linecap="round" stroke-miterlimit="10"/></g></svg>