<svg version="1.1" xmlns="http://www.w3.org/2000/svg" xmlns:xlink="http://www.w3.org/1999/xlink" width="800" height="800" viewBox="0 0 800 800"><defs/><g/><g transform="scale(1,1) scale(1,1)"><g transform="scale(1,1)"><rect fill="rgb(0,0,0)" stroke="none" x="0" y="0" width="800" height="800" fill-opacity="1"/></g><path fill="none" stroke="rgb(255,255,255)" paint-order="fill stroke markers" d=" M 400 400 L 507.0867890820011 490.725580556338 L 359.23942510106076 155.28131862355107 L 247.25129809180007 656.0822454924903 L 663.9163880372283 309.57505545556796 L 218.43983546409441 328.99744265502386 L 431.1799070781434 457.73999257625974 L 383.7154065044726 477.25922345938244 L 562.0730139540862 274.1667425209761 L 116.52159689376612 387.89037892179437 L 617.732133955524 601.0431145180012 L 370.69537892774673 161.6891315451784 L 329.76227691491346 507.08373922893253 L 386.8259863499479 403.8940147802729 L 539.3852824279496 461.4907677427265 L 288.2805677559705 170.1599441407772 L 325.80824302267746 690.0383352642943 L 623.1022406782902 241.56876883251422 L 216.36756969360337 384.28251012843714 L 436.767984093079 436.9789833381198 L 407.33125086408853 491.8349478116852 L 525.4804102779768 225.42376776731962 L 120.67613959570645 469.7505242544096 L 663.5953932856014 529.9969997708642 L 307.7272898600101 187.55555373714745 L 366.6253515601135 510.579522013593 L 376.96443746432806 414.92152606122454 L 562.6773129282184 420.949739928405 L 223.04214213277493 206.13846515060368 L 411.0864799678033 699.7429039817478 L 565.3863307892782 189.4806787138367 L 230.25246228111493 434.765875915893 L 433.8273235011662 418.51772796974416 L 437.71916124336144 498.10273793765907 L 473.9314427489889 188.18260560404283 L 148.8364726376122 547.872811144182 L 686.6144984599254 449.42598311514934 L 257.05406051107155 229.30467619852482 L 399.41229159919465 502.70500609656335 L 373.2552097785546 431.2040727921682 L 573.1302738707249 372.1804756183965 L 169.89052919052304 260.9522568520493 L 495.5780658361955 684.2506711592875 L 496.5345090813592 157.25658084331903 L 257.12789388439876 476.09899937031156 L 424.3350691594194 405.27492735435294 L 471.7455348371461 493.50785318075845 L 411.28742828772107 167.03947234461927 L 199.04147450961153 615.1571819782249 L 685.2210613724313 366.58255803155595 L 222.39640354863383 282.0483033565098 L 424.9313420747078 486.156933016258 L 377.6512177695954 449.88455176955466 L 568.0302315850804 319.51015665336797 L 134.29112522020523 330.40938606083375 L 571.836447595363 644.9364388236039 L 423.1277117798163 146.84848082237494 L 292.9282864250843 505.2492438010795 L 411.1534667391345 399.1738114639639 L 505.42418865382285 476.6946111981822 L 342.80224039813277 165.2380973257473 L 267.2293815170903 665.3804759706322 L 660.1188350368006 288.78537886907174 L 205.69635871364815 340.14084398321165 L 441.2161404959932 464.43373487402334 L 390.9138741823982 467.5034240357924 L 546.1713143431417 268.09943072439626 L 120.22928585200572 408.74499438570155 L 633.1882818956162 585.3629909809088 L 351.8957115093272 158.09237941386095 L 333.0007563866575 520.7455301366825 L 397.6094071951036 400.9034827724576 L 534.3689774581011 447.76361892731285 L 274.6394579433452 184.2595858304626 L 347.59973846871657 693.812555932896 L 614.1743250876798 222.71840859639823 L 207.01230218620188 397.79126238134114 L 447.69318582839276 441.35322546612394 L 412.4570187253382 480.4608615676235 L 508.09098975958494 223.4115044726459 L 129.7678978677792 489.1465077716822 L 674.3678932984894 510.9334296498325 L 289.0549541876034 188.80233996725346 L 372.6584615346184 522.739354162317 L 387.0194420694846 409.84206946468885 L 554.3158618604331 408.3622880448415 L 213.27392579397707 223.58497428916462 L 433.1527011186674 697.6904869473739 L 552.0953552299566 173.80450751376802 L 224.6158372242383 449.66530065245814 L 445.1741867861975 420.54967335732925 L 440.36070382877887 485.50925773235235 L 456.11938840364627 190.6223323611073 L 162.7904812764419 564.3982254054433 L 692.0103654805307 428.3636212583941 L 239.71878383660567 235.06607431124442 L 407.712359733317 512.8803104121896 L 382.2188525929818 424.1502024464989 L 561.6546984634297 361.5927776346473 L 164.83893575232665 280.6609257860744 L 516.3521019670804 676.5012863359474 L 479.9333003987491 145.7160481152241 L 255.2739070355284 491.4137474653543 L 435.67823989621684 405.0103988869378 L 471.5562654612292 480.2163175990472 L 394.23094888175297 174.03613437530424 L 216.9598222745562 627.5804691171311 L 684.9540276120878 345.0289058146955 L 207.4394695947085 291.7063297609984 L 434.9219441528031 494.0260775617666 L 385.1527392140975 441.02307726590504 L 553.9086096479657 311.7423117636866 L 134.48738788308964 351.07764786566025 L 589.8455513683382 632.0433717825686 L 404.46257566957286 140.07016664703093 L 294.67975377224604 520.0720408346554 L 422.10854056303555 396.7065663850061 L 502.1638382868072 463.34163885423305 L 327.7084328306382 176.57141526330264 L 287.899834586985 672.7518792351727 L 654.3229916238164 268.2519682982106 L 193.92634312001763 352.8555211973674 L 452.3159575373859 469.82507310581724 L 396.57974838627274 457.07048505111305 L 530.103423764295 263.86138119200143 L 125.83512476670649 428.94544121256797 L 647.1686857786725 568.2596566228 L 332.50301620758364 156.33641141904354 L 337.9809422932757 534.2918256549619 L 407.8250670175473 396.36114348729075 L 527.9451901270689 435.079025840216 L 262.6503903204956 199.37637748204662 L 369.58501401359746 695.5443843117939 L 603.3832892785302 204.60444795513428 L 198.96472701501153 412.5800994939239 L 459.34988248001434 444.22366883346274 L 415.9258082876881 468.7788551849046 L 490.9809133686388 223.23333530446448 L 140.5470830921824 507.4347621227107 L 683.3621654070267 490.8588560320749 L 270.2557630378308 191.96197848503527 L 380.34321229402474 534.3844859039261 L 396.1665137777956 403.3804360433985 L 544.8205500972535 397.1317322903293 L 205.3711107409492 241.61972448089261 L 454.89998442938764 693.6087996705633 L 537.1896081524596 159.29288845149327 L 220.53835977938155 465.4871983326763 L 456.8863307500747 420.95748662201106 L 441.3076113115717 472.99930769764023 L 439.0262132869983 194.79224944153177 L 178.11272211730886 579.4266528322007 L 695.439015284463 406.7634648326019 L 222.72070906047398 242.69687346817767 L 417.48638667137357 522.1779494680819 L 389.9803632024418 415.9560873919514 L 549.3896380182091 352.6067471468343 L 161.75495364606113 300.4846812586588 L 536.3135820869346 666.8640647403572 L 462.061137682013 135.69025395603086 L 255.13611090813495 507.249501689585 L 447.0051071034352 403.0870662276971 L 469.72556418899785 467.40212968070875 L 378.3000704266279 182.55315920788317 L 235.83783862891588 638.2078473972446 L 682.655442918873 323.44071950107974 L 193.25380359285563 303.080654900949 L 446.1331448397006 500.70884528078403 L 391.21875178343555 431.32419059380953 L 539.3953840671173 305.7350099059955 L 136.63324373162635 371.3725487316962 L 606.5996362818053 617.5232354626692 L 384.94233240062584 135.05849060569068 L 298.2043139906308 534.9945656821608 L 432.6693618140867 392.63208494988646 L 497.40580651226765 450.8414035479142 L 314.08824348065735 189.11890626423394 L 309.057406240439 678.1392006171922 L 646.5586965362594 248.18477048950558 L 183.3066805575197 367.03609870373595 L 464.32257573431957 473.7900778188436 L 400.649867140653 446.1495145137803 L 514.0741191227361 261.4447319069326 L 133.2508683618904 448.29957451986377 L 659.5314120165774 549.8923807152277 L 312.71566402797026 156.48721600340795 L 344.6911204618043 547.520803719076 L 417.2906586678763 390.34605712322264 L 520.2529743467901 423.58338331612646 L 252.4010382120469 215.3208347993966 L 391.5508778036843 695.2279794216938 L 590.8086719348499 187.4230113205774 L 192.370932988158 428.5048853793934 L 471.55674637874904 445.5071018652554 L 417.72091317559256 456.98792000998645 L 474.34779465055 224.83250961350112 L 152.88136647632848 524.4498141836973 L 690.4791586575511 469.96204558534504 L 251.5375090637026 197.05077919171396 L 389.6204703454416 545.3221837987076 L 404.24713212624476 395.65647902872445 L 534.3617179031821 387.367553533183 L 199.37332718741226 260.0371023779585 L 476.1199506402886 687.5438526448388 L 520.7933675568348 146.11655639255997 L 218.1271255415203 482.05728889017735 L 468.7681787535687 419.7032050847303 L 440.59076891197924 460.77055016076184 L 422.8308018490413 200.58964063252105 L 194.6344745940605 592.829286614936 L 696.8501094226804 384.8324380792744 L 206.26482579500518 252.16310814964555 L 428.63148117221874 530.4251640570772 L 396.4139273739738 406.77566559432364 L 536.5271606532215 345.2884064453527 L 160.62750069291235 320.2138329645203 L 555.2714252308696 655.434167818312 L 443.07944030008724 127.31457229724248 L 256.7767463631214 523.412095373376 L 458.1168831675355 399.51421217840726 L 466.3303835217046 455.25041437932083 L 363.64435314741564 192.44750717461255 L 255.4803417966482 646.9550182479545 L 678.3265547604067 302.0306820174958 L 180.02965340880547 316.0893926713067 L 458.424384769137 506.0621194192415 L 395.76326597225534 420.9673066251789 L 524.6934511376721 301.50669489559635 L 140.6672304436637 391.0927244537186 L 621.9363704113796 601.5146633816717 L 364.7557905031356 131.90567530195057 L 303.516121281683 549.8140527205217 L 442.6451059310081 387.00626455082397 L 491.26898736756584 439.35590954727246 L 302.05292176847234 202.70527627936642 L 330.49203169776797 681.507843948116 L 636.8785387607227 228.78953107455183 L 174.00192140546244 382.55789756321775 L 477.06591909448673 476.2232042652043 L 403.08299046784157 434.9353601391372 L 498.2854889293364 260.81892368750266 L 142.3680229125681 466.6263652216594 L 670.1525896838725 530.4349581309747 L 292.7385540428383 158.58869955167512 L 353.0969016700824 560.2327609724954 L 425.8340226222729 382.9575240303152 L 511.4466403200717 413.4062127506551 L 243.9575171330021 231.8954630205531 L 413.2849088487868 692.8806594433287 L 576.5510744642164 171.36068907343792 L 187.360426175927 445.4057102252462 L 484.1239262080429 445.1413242805586 L 417.8482956666547 445.2873982323287 L 458.3812015619887 228.13085767099767 L 166.6214179511566 540.0418530023868 L 695.6408410413758 448.4415231248637 L 233.10902963045078 204.06207176942826 L 400.40960777814377 555.3671769958733 L 411.1174529524365 386.807292038239 L 523.1205038224138 379.1591877901244 L 195.29733318178418 278.6288808986034 L 496.6105345240876 679.5639573793185 L 503.04905704042767 134.43194562792002 L 217.46937807161618 499.1899533632363 L 480.6208845543619 416.7712923891363 L 438.2631730436945 449.01558274650574 L 407.6990894542129 207.89289628509383 L 212.174265570639 604.4966183146079 L 696.2160500070968 362.78188659082366 L 190.55163727631995 263.4082746838849 L 441.02567520160034 537.4615598836474 L 401.41209287121325 396.77612463894326 L 523.2650405298083 339.6817136621312 L 161.4226409396863 339.64163880021533 L 573.0460396094779 642.3268905779018 L 423.16380039211305 120.70615451901676 L 260.2360906954898 539.701103139729 L 468.8169474040259 394.3236702256451 L 461.46795520754944 443.93610051447916 L 350.3962450794902 203.56087593441188 L 275.6843999687599 653.7594917216171 L 671.9917380412555 281.01030614070237 L 167.94752404573111 330.62987089701437 L 471.6395399549933 509.9593283516623 L 398.7212857853051 410.1403362120547 L 510.0059789141827 299.052999444299 L 146.5063861373003 410.045160984415 L 635.7094130303236 584.1730729403228 L 344.10113816036653 130.68287098339255 L 310.60653056829625 564.326907285331 L 451.85242284389057 379.90638150792114 L 483.8895502787302 429.0324130648858 L 291.6934271924898 217.14449699669782 L 351.9913595815646 682.8462561721625 L 625.3572658374571 210.2653085306249 L 166.16219614345457 399.27840846208665 L 490.36474919386916 477.03867276882045 L 403.86029789980785 423.6261208111762 L 482.9344303439216 261.93115902783006 L 153.05920973770938 483.75805923608425 L 678.9279025930614 510.0736328793288 L 272.7806343063105 162.66208227685811 L 363.1415814644129 572.2326295273376 L 433.2953488043851 374.31382393500047 L 501.69376785573144 404.6585782086881 L 237.36364900357825 248.89719833974826 L 434.5780030106861 688.5426696738348 L 560.7309912814312 156.5922660883191 L 184.04446485948583 463.1088172481556 L 496.85544573621905 443.08597806233007 L 416.33647519681267 433.87444719974854 L 443.26033509413094 233.02983521475335 L 181.60274756326803 554.0785000786985 L 698.7911505580305 426.5031982857663 L 215.17765602130385 212.96621260663264 L 412.6094530360707 564.3440142729119 L 416.65014522582175 376.985458820755 L 511.2865363132205 372.57496284678496 L 193.13688454706485 297.1867666535203 L 516.178401360243 669.7588910632717 L 484.1155664671708 124.37926511741006 L 218.63135350130983 516.6905022073915 L 492.24485968549743 412.1688722032439 L 434.39921705049954 437.9195023772868 L 393.78205755610566 216.5630833878532 L 230.54008164968383 614.3397158790705 L 693.5323344362794 340.82504547902283 L 175.77468620902613 276.35394832889665 L 454.52941014580983 543.1411684013669 L 404.8871349812666 386.1357633005564 L 509.80426144197634 335.8080819341148 L 164.08406836787537 358.566810168513 L 589.471468700288 627.6762715376432 L 402.50189197554755 115.96246326294238 L 265.5318785149906 555.9123188615005 L 478.91335572503334 387.5694476633601 L 455.25451432037744 433.62172559274137 L 338.6695105319195 215.72170530598822 L 296.2417858367845 658.581297537861 L 663.6982329738771 260.58739172670704 L 157.17592386235196 346.57982221713075 L 485.60885698938836 512.2920910190678 L 400.0496238823011 399.0372833317401 L 495.5338674283567 298.3468751898521 L 154.04731916157738 428.04751178470747 L 647.7901652007565 565.6688016138987 L 323.1835627034027 131.4392329684353 L 319.4441277760037 578.3312493478164 L 460.1177836595718 371.4301256083692 L 475.4191761203757 420.0015951926022 L 283.0793827748657 232.2421292910136 L 373.3433057697955 682.1660297289493 L 612.0909203494085 192.80206861511823 L 159.9213127037965 417.03898673279974 L 504.02893699112707 476.1716037004687 L 402.98560596895453 412.4206183588883 L 468.2102133550218 264.7071359240951 L 165.179759216405 499.54217185008326 L 685.7738423378646 489.00486915794744 L 253.05237043942265 168.70557257432176 L 374.7467775967075 583.3324387905074" stroke-opacity="1" stroke-linecap="round" stroke-miterlimit="10"/></g></svg>