<svg version="1.1" xmlns="http://www.w3.org/2000/svg" xmlns:xlink="http://www.w3.org/1999/xlink" width="800" height="800" viewBox="0 0 800 800"><defs/><g/><g transform="scale(1,1) scale(1,1)"><g transform="scale(1,1)"><rect fill="rgb(0,0,0)" stroke="none" x="0" y="0" width="800" height="800" fill-opacity="1"/></g><path fill="none" stroke="rgb(255,255,255)" paint-order="fill stroke markers" d=" M 400 400 L 396.3408177306235 378.43424358837865 L 441.1895539427109 385.6079321284786 L 431.4791196972368 457.0480083659188 L 332.4520286454411 453.76842618098135 L 320.256208065411 328.5752347961253 L 467.8212553244979 292.38553319859557 L 535.4213061259143 456.3431343952486 L 362.9128303555428 561.1531998733614 L 217.1329903707497 389.3592693734119 L 378.05257850269925 201.19595488186542 L 607.4963077384525 340.77656299162743 L 499.4085564854031 607.8563164277091 L 200.75472300490435 540.498564231201 L 219.62320392644688 218.4843947748239 L 555.0252943613414 183.06580712064422 L 648.1894787880099 520.6232434463556 L 320.39365956796917 672.4025308568974 L 111.82560472310882 366.34927401070826 L 384.72115619143926 105.47182785735095 L 690.9660916573494 334.9636484251683 L 513.4124382098481 677.4994760034416 L 145.35015633124263 558.2561250354997 L 202.40664566045572 176.57892352608533 L 585.2442377588354 170.26445357285814 L 653.3719463465886 541.8982067343013 L 304.5893122318132 667.6404681396564 L 127.82701525978177 352.0547161977279 L 401.6811248566043 132.8875141839539 L 653.1011487051694 358.69196934866835 L 479.1682769100729 631.2400453322555 L 196.9771563757533 510.36705321670286 L 266.224169287825 229.75263906278707 L 534.9101027213213 251.27073443858254 L 555.0574531717723 499.0898983644351 L 335.17262868217205 553.0894745327778 L 256.3719136560747 365.99278388095047 L 408.2500872160082 272.10292475405913 L 507.4643766925784 388.82034330924773 L 423.44503123278594 484.1454594241841 L 340.1073838441163 428.182236096854 L 374.4814296921134 363.3233859109811 L 416.3675981964202 383.93855468191674 L 400.8591639922803 400.62218053981707 L 409.2167121548879 381.33577049445086 L 440.7962206276724 412.20140190348457 L 392.16231792172096 463.6401251581778 L 314.76965918446155 403.88369845787815 L 377.51586344712916 296.3481651345782 L 517.1569056494615 352.9769497119306 L 476.1510488189269 524.272411784691 L 276.1087872985761 508.18733297543804 L 258.7831434375115 284.65752361650584 L 498.43673190933515 226.7983697678081 L 602.0997265991248 473.48300501880436 L 358.7230100084256 625.9850945926021 L 156.83876101117957 396.93911278898105 L 360.4571759778146 147.73782929661786 L 652.3347645774343 315.38010156538814 L 530.070053128187 642.8977318218613 L 176.0262378589792 573.72384237731 L 186.53603814254183 203.9070620632835 L 560.2671804543747 152.65599473387107 L 673.6978393900912 517.9371594673993 L 329.1053125377433 691.2333016422083 L 100.89517412930797 378.81496559234216 L 370.9947582580619 103.03918427002299 L 684.9630399701298 322.53148234894473 L 522.0974845389488 663.7769365572926 L 165.46661061808516 561.0007232953765 L 207.39415167069976 201.23581447183477 L 558.3148776382787 184.2556879257416 L 629.7130215736983 515.240077160966 L 328.3127849727743 634.3092579425461 L 170.1630686903483 370.22453185228574 L 391.47682484722526 182.9161410485364 L 597.2714270452707 358.5061341020267 L 467.7735403190509 571.9795900997077 L 256.94841546077816 486.42482866166154 L 303.0150025044063 287.5160980916557 L 482.30791515901865 300.5128570473842 L 494.45245966429235 454.47002949561124 L 369.28269032312716 482.8540850224741 L 333.9453361326792 387.50478609609615 L 400.86335911626594 354.2787003385831 L 423.72286665884604 396.4341944988323 L 400.661870070754 402.0156778739001 L 417.4758232285669 390.7828690769914 L 425.24714018791707 432.97639236117675 L 357.0315039531289 446.1880137211622 L 329.5419367825832 353.7143224278217 L 442.1853275831641 303.7711312532224 L 521.5348488174807 430.39660324511885 L 388.85931996879765 544.391217156629 L 237.08653354133446 414.8778764129933 L 353.49184299352294 224.56857270832018 L 580.5912606668743 317.7837342886527 L 520.1713509985699 577.4394375596097 L 234.51620223551643 558.3493615750117 L 205.35145426628458 255.27189618572095 L 515.6780367869625 172.98997055898346 L 653.5365092997121 479.3182311408673 L 362.93838016100773 672.602200165411 L 117.0523225005847 409.32603785484224 L 342.17786201057055 116.24587736778727 L 674.6926648389809 293.7417719075775 L 552.4396533394153 655.945948975048 L 171.7993415387446 594.2669860296045 L 170.14773387212048 207.38860189170285 L 550.7379928323942 142.37662218378648 L 676.4105697492607 504.45979127713696 L 344.1281108857897 685.5101555774445 L 115.27825317372094 392.8307712792713 L 360.52522980604687 125.64310363401256 L 655.2186792619794 317.97191905928355 L 518.7115620922805 628.553413475636 L 204.0226711652782 548.0956788190183 L 230.82308400418572 240.61756390721595 L 520.8270453296707 218.57047907482863 L 584.8296404244966 482.4172652172038 L 353.813669185685 579.8505131475039 L 232.570948943862 386.0212722315623 L 387.3457981814418 251.09420280703878 L 525.9417847321403 367.4588443382338 L 444.9552702687893 500.4171558051759 L 325.68254929010567 449.6523288185344 L 353.1193969023444 350.3858120002855 L 428.1466826032253 362.63820094464023 L 422.2442502664071 411.511973671032 L 399.0307393045163 403.0311117683437 L 418.5122446625859 402.63559700692673 L 401.07887269491323 440.46622750386047 L 339.1258836876625 412.00613236294936 L 370.44318265926415 322.1385794972103 L 489.7505479578614 347.3075679939011 L 479.98561488836447 495.16409597569185 L 306.88926509136104 509.7034858503557 L 260.0907515833171 316.95133812431794 L 464.9228999059367 231.42384060207738 L 593.7072576085774 439.17423172444666 L 393.28080042355964 613.4539054153943 L 173.77373933634874 431.09772198337646 L 327.42293856330366 169.21074142173478 L 626.3385168390078 284.241780289194 L 558.5288853832288 612.5517340237913 L 210.3874348694601 598.7437044375783 L 165.6546261763194 241.79445377564005 L 519.4823115908758 136.51881672032835 L 684.6082882027029 475.0010044913416 L 373.35766912875 696.5816429133388 L 101.28047889517757 423.49294534110504 L 326.80080559370805 109.15715902863758 L 673.2860218819055 279.7128038467704 L 562.7045423644147 646.8787402765211 L 187.10037012250663 598.6482597605232 L 173.33680416442058 226.99541162057798 L 529.1338160493914 154.27946861939193 L 655.2719305556483 483.40293656336405 L 362.01553385917964 655.2762455198701 L 153.8027233812888 405.0135492921181 L 356.3352504417659 171.0272406117018 L 604.9564096200147 323.6692074352218 L 501.75070051161 575.8364114714267 L 256.4649086855087 519.1081021921026 L 271.92746566600715 289.90439680088747 L 477.5621978938178 271.18753292888766 L 521.9793553162523 447.861013343166 L 377.3117110550214 508.66369436227984 L 309.6743224818929 396.58752860240173 L 390.995871177703 331.295477666873 L 445.7117650437739 385.940392796328 L 411.7395354209366 423.31474899611277 L 396.58290159664676 402.515284321424 L 412.6862806501263 412.2568587919141 L 377.7330140622774 432.5399516722481 L 344.59715858524874 374.4545619048182 L 421.46282980975195 320.5861442647468 L 502.6061837212701 409.8686041033709 L 408.89676759282804 523.0262562444543 L 261.1477530572786 434.0184916059446 L 335.74787481018006 251.49478678591663 L 550.7463980750405 302.00634448734576 L 533.3709491032026 544.7550121308118 L 269.8180577113467 568.3512954108958 L 199.14116785053463 292.8237749734702 L 476.3826965848841 171.10493671229597 L 650.6554963143889 438.9108993142172 L 403.7230137847197 664.6356444551863 L 130.27975077661813 449.67807172292385 L 303.11070119514306 134.7494561528872 L 651.0656429640617 256.81823008109376 L 586.3913608878144 627.515635409906 L 204.55441124257936 624.4852567367384 L 144.32470872033298 243.8486478382469 L 511.30967104588433 121.48239787727749 L 691.9928723259723 462.8866091755278 L 386.9704749472642 695.5625480697597 L 110.80219387435233 436.0512020283639 L 317.7960897045301 126.62038427889706 L 649.0699057224011 276.5461264919512 L 558.1112186837876 617.6555136351943 L 219.1318385345044 584.8623598035557 L 197.16028293072085 259.31491564921896 L 499.21605124821747 188.3342534646371 L 611.4687895455509 458.5832985371089 L 379.19869800743965 602.8698795289843 L 213.05867878118977 412.3366831183676 L 360.64121971068715 234.86051273692652 L 539.2157652657038 340.80441137155293 L 471.2375651183894 511.11084852360335 L 317.16147676806185 475.3654143858174 L 328.0482274334704 343.6342916902489 L 433.4957163572176 338.1658649825921 L 446.26064326807244 415.7615133723039 L 395.66482818872356 426.811918391004 L 394.69648502563416 400.04122988127887 L 402.9007464790477 416.32530810129447 L 363.8699882420038 412.9402373055491 L 370.6196926398297 347.7205090635372 L 463.1681575431538 348.9106976811206 L 476.56792303882156 467.5148548493532 L 335.5571713067444 504.03812813081765 L 268.45129593534836 346.46392210453246 L 434.86877431565927 242.90862674068762 L 578.7206965104265 409.0060028394319 L 423.02426694092895 594.6708022229395 L 196.53784574629998 459.78639859723364 L 300.4836585414129 196.00785762682884 L 595.6042113892594 259.779630894383 L 579.7876236856512 578.1314829696869 L 248.0877034109918 616.1099828954821 L 152.79766192317203 282.2232822997876 L 477.0047384251392 128.68365705129258 L 687.0410647934577 431.25853181425254 L 417.5073795475333 693.3847219204299 L 110.16722046525882 467.15290282097965 L 284.530016096502 123.62096215807429 L 653.5279026353079 239.69569917439225 L 599.6740586686108 622.2676897896561 L 215.98351499252627 631.8790688392872 L 144.4061450047849 259.45633768361614 L 493.87156775336746 130.06055122470565 L 674.5297675335664 446.16301730614447 L 400.39892551568136 669.4899324578282 L 144.55449597099602 443.73198430792036 L 318.03043529867057 166.51671082003006 L 605.0860137930974 286.43708445561595 L 537.3647009936774 572.0446605715595 L 263.6464412174164 552.6892049883937 L 240.65425776323684 299.9056954653264 L 465.31523081374604 242.35659990080137 L 548.3668939581399 433.91339845361495 L 392.4740719594317 532.7249889238944 L 287.72547352780435 412.56305275366606 L 374.50551982763193 311.17549587781286 L 464.32580808949797 369.11870410727226 L 428.8275693482242 440.7530263464355 L 380.0147750876507 419.91872454909674 L 394.8165295239092 396.30737287680716 L 393.23579086286986 413.97032544391016 L 364.157929317447 389.58315222596366 L 406.74826212780704 341.4578556742003 L 480.1068123971148 395.7254958715357 L 422.1962164471083 498.6176657107914 L 287.6813794931802 446.09812750940176 L 325.3499581786178 280.27633859700927 L 519.7090403581426 293.813234267076 L 538.804526349059 511.5845435310707 L 304.86035182058225 570.4717826870292 L 200.85198519547342 329.3381558857064 L 438.92600470455113 177.0963900347577 L 640.0338962456192 401.1553678818848 L 441.0436688616819 649.1607073532512 L 150.6844214291172 485.76921892895405 L 269.07097990216045 160.0002686844123 L 621.2173416758637 225.64304327401183 L 613.9342930452808 593.4801291523701 L 242.21704339244812 647.7086435113042 L 125.99616728234395 284.44819453195095 L 468.5670848142654 108.48568039370969 L 699.3787484361056 418.86665694311125 L 431.3658670126702 697.2283909323752 L 114.79230923665466 479.9211574786532 L 275.3143616190213 136.03427062829894 L 634.6191082958809 236.24256677434656 L 595.5501373392872 598.6883905785921 L 241.9882325437 618.8784716434302 L 166.9790800718842 285.3590717929426 L 470.7251349915425 162.2442190826449 L 633.368601630862 428.3901816046158 L 410.3807938618082 620.630610878884 L 199.25055433600494 443.857784135029 L 329.3406746771682 224.70493796755292 L 546.1051530937561 310.172628570732 L 500.8773464252734 515.1755778030666 L 315.45783359994516 503.82052790141677 L 300.8424811027511 343.83923766307856 L 431.7924575420662 312.156761500772 L 471.2255104298857 412.90067243436135 L 399.4339581040466 450.96085674213396 L 371.0875774578707 404.57596658396926 L 397.62890371538145 392.96400888166346 L 387.2607371772049 406.8460717317736 L 377.7266626807591 371.3716693120975 L 439.0993862204128 357.3102982339652 L 466.5289450663592 442.96790409169523 L 360.5296116688461 491.9736784330644 L 282.93559808933014 371.68660008600557 L 409.69500437246035 260.18277508300145 L 558.3434025868238 384.2973587324969 L 446.7491700703429 570.9637321169836 L 223.6888527240213 481.92831262991234 L 280.57694498393516 226.5844711650514 L 561.7657746617397 242.7812543019037 L 593.2182069563303 541.3454862609339 L 287.3598472468685 625.3622069216835 L 148.25166691590383 323.38463947467807 L 434.66723181294554 129.25860483935867 L 681.0689696393188 388.5479014391662 L 459.7297150340465 681.8965521344559 L 127.12204239990166 508.0024098981739 L 245.92390704179877 145.8219654050547 L 626.4663557702742 204.1527313624297 L 631.4196048079765 590.8822203076065 L 251.02704156030563 659.2088984624604 L 121.96958908836405 297.39093218285205 L 453.88104734341795 112.8364391064253 L 686.3902691510975 404.9838489788155 L 441.9044190549004 676.0047672084993 L 143.2056715333987 484.7425744565419 L 278.26166239002885 170.0079437694243 L 597.2044739809771 248.55421747559822 L 572.8426827095075 560.318115013688 L 278.6094824067538 585.3833360288149 L 210.97612929749567 317.4680718720327 L 445.78454680278537 215.7813744003019 L 571.8878697636106 413.00628687504707 L 414.23424739186873 553.3587821065357 L 269.7168433817765 434.745512992651 L 352.22153700594663 295.46335800769685 L 478.10538960051076 346.93408858313984 L 450.83358757209703 452.96670866956856 L 369.02932952852956 441.78228034992355 L 372.9578516170764 386.2704554957408 L 402.52149245839956 391.8981151885359 L 386.716882297435 398.2141167251875 L 398.7876927334991 364.801760667294 L 455.68647424085214 388.56657943951666 L 428.3112386399333 472.86782874526574 L 314.94568410375905 450.8284866996811 L 322.4239690541568 309.14615995610836 L 489.2569074972493 293.1646698405523 L 536.6793644146237 479.70109303560434 L 337.89052059806323 565.086190644171 L 209.941460568375 363.09920647668196 L 404.9706019178632 190.25748692574453 L 622.5384921643329 367.64460380285664 L 473.39332314335235 627.1978039684736 L 177.10047498209966 516.194206081228 L 241.3471544826274 190.69706479797236 L 586.5725451359523 201.3737917482244" stroke-opacity="1" stroke-linecap="round" stroke-miterlimit="10"/></g></svg>