<svg version="1.1" xmlns="http://www.w3.org/2000/svg" xmlns:xlink="http://www.w3.org/1999/xlink" width="800" height="800" viewBox="0 0 800 800"><defs/><g/><g transform="scale(1,1) scale(1,1)"><g transform="scale(1,1)"><rect fill="rgb(0,0,0)" stroke="none" x="0" y="0" width="800" height="800" fill-opacity="1"/></g><path fill="none" stroke="rgb(255,255,255)" paint-order="fill stroke markers" d=" M 400 400 L 451.1203811349776 483.1312747550181 L 483.2812205790451 235.2906886930403 L 149.4049911185388 420.89557771335967 L 572.5069310163028 634.3648223460322 L 512.2377222428461 122.97903284039518 L 129.52055831711482 445.4230572053254 L 544.557087891365 565.5812634343526 L 442.0327286314124 264.95954195948815 L 353.80470119598317 411.77464682108194 L 363.18739214832283 364.3116311315908 L 368.6382615705714 541.1980447956828 L 610.0785969571897 327.39307781774147 L 186.76996922131738 225.19280257719439 L 359.62219454916243 696.4482163946502 L 665.3625729495286 282.78085956547676 L 194.6109621905668 258.4248934523519 L 390.5243028842126 581.428647814673 L 482.6479631678439 354.9405552974848 L 403.166702580241 401.81447317211706 L 396.8673328485071 299.0131014613019 L 243.46220821091487 503.08291927087066 L 629.6061590674716 507.28940436237355 L 366.7399181842866 110.0281514160867 L 165.15653949271305 584.353555116103 L 655.8605151937509 494.5392372947479 L 357.38362246089525 186.91571301952504 L 298.7591219130744 494.0743750987521 L 442.4602302224413 411.7852516041273 L 415.19289297622817 452.71876265009973 L 499.55508559156647 290.72393780941593 L 179.23399762140096 358.1022418626242 L 498.60923707379527 659.0070915147612 L 582.565814117605 162.66211080591066 L 112.42520331518313 369.8787905775924 L 506.9387250314371 623.104821593075 L 496.83947500877724 249.7449373633911 L 309.35956689123924 398.08083426563496 L 396.30918057010035 393.70307705181636 L 350.90009525260115 492.20644750127224 L 589.9004657963322 388.2070256085636 L 253.00602903512194 191.1773155008887 L 284.37225102527424 668.8879534296912 L 695.0417111591142 356.8525266458678 L 225.9884093451001 191.95020186060987 L 331.8438999805563 603.6704756483164 L 531.4472437771503 369.443711723731 L 371.5585664594169 371.2344891310746 L 413.8782265114184 343.2231601484968 L 256.28011986607885 446.2903758491955 L 572.5447624497427 547.669803365412 L 443.42237230165387 124.88552489140517 L 123.41393890430317 515.242786363915 L 633.7360109931967 568.5232963869937 L 417.97889110318283 155.33226824961312 L 243.8901672659394 480.87172383099545 L 474.70392630992507 444.93107272182175 L 400.1077200501501 410.9464126213471 L 491.3331384172775 342.58981059312873 L 226.849895695555 314.57983749216754 L 423.89949202513225 656.1544939608722 L 634.6277586829146 223.71373567024315 L 122.94685007044234 290.9105718760239 L 447.2727523422663 665.4724277613352 L 558.4776238909369 258.87261136079655 L 273.88836497351616 362.1035595199684 L 409.44813191426755 435.6002934596643 L 357.2680913719274 444.95486259282865 L 550.7880393396841 431.938124848396 L 322.9092363951696 183.86068921808916 L 224.71259943541207 618.1594412681033 L 697.433322232396 437.5347287244302 L 281.40715140731055 138.51975603061317 L 263.9474934465548 601.5940278068631 L 572.688677679238 407.3160912224083 L 359.22499398156083 326.930683492195 L 407.1302583091385 387.26709666094763 L 288.81720735273694 404.5444497790598 L 509.31957908621314 562.5043563502852 L 507.38235506014155 164.17174224498845 L 108.0510628088594 436.4009165777154 L 585.8613193607857 632.0265284339981 L 490.41829678668876 147.68269867859502 L 194.87273633102114 443.12846245271515 L 488.31918031451676 493.19121236199874 L 408.56611287922254 367.9159600998967 L 462.84332187503907 381.2176482659926 L 282.7186247494717 295.2450213983583 L 359.0209569517113 628.1589200659232 L 661.7542728431463 297.3845645437965 L 160.49869187136238 219.4932644488289 L 373.00358878457826 684.7609000893481 L 616.3373966305614 293.67461615812977 L 256.3360679761647 309.3968957877353 L 399.0917567165258 480.1601208140094 L 384.3573575064264 409.37664979914376 L 501.7281176599919 452.89195615396994 L 385.7403495053901 201.90935435338739 L 188.10709557843938 552.2952741236602 L 672.0478359430628 513.8277492228359 L 354.16794985873366 106.78289644450587 L 197.36861289147194 572.8967508829119 L 596.923632430736 463.75054664654346 L 370.48023254476334 278.44779171265304 L 379.1725935189394 421.0020628739088 L 332.6725624143188 384.243290308723 L 450.65908663179164 552.1368934834622 L 550.4645945833743 220.64672814283875 L 120.63107153741589 358.7194254661111 L 518.0930167142108 675.7519020717168 L 564.3475125986877 167.2618000207103 L 161.61819363369472 384.83981651881135 L 478.1916822010414 547.3676152542471 L 438.8542238493739 333.93640198182254 L 421.87506735658144 399.5694276023249 L 336.21182730121114 300.70247014982283 L 312.7108142742637 581.416467224988 L 661.3377118447095 373.02039837202193 L 220.1505352141116 165.47136741469885 L 294.1902541699229 676.6798672269181 L 660.1026832087457 351.03805704049154 L 262.6176686770645 248.75115925515294 L 366.10860400047517 516.946925555331 L 425.009270836485 393.0985378548056 L 453.17811219065743 449.5616193364666 L 432.2880611584776 239.79910050023673 L 178.1553962372561 481.5951696436508 L 622.8257772712303 575.4566640320412 L 434.63007363183715 102.00551647298425 L 142.74986890205219 519.7402416356396 L 597.4404371931623 530.440077106132 L 405.32196427515873 236.30546917764534 L 336.5129090992632 436.25164710809406 L 377.61394935710734 387.75189497950294 L 406.1496445068725 521.2116671682268 L 568.1476578076016 284.46454132617606 L 158.2415860047586 292.77691687906304 L 439.5315455446722 693.5037015716115 L 628.8961626145876 212.9190135534734 L 151.61904961469665 313.7407224440933 L 443.4280992241652 596.9088838523302 L 485.14234137392503 317.7035247610729 L 378.39322158282175 394.4583945493726 L 377.4536000922379 327.18210501459896 L 290.33162851776126 525.2413464965342 L 635.250038683413 439.8671789171075 L 293.45499634741117 135.8999521371531 L 221.8145445752575 641.3257947208749 L 681.5340297991318 423.89771284591365 L 294.55496502955884 190.6825445437602 L 315.61250314847854 536.7728151020004 L 469.56293029599465 400.10361577088656 L 415.23352673273814 424.85545260583626 L 456.4318038318278 288.8037136721718 L 194.01378354582218 416.8670079829145 L 557.4653020243916 614.5983540280561 L 511.82863588079954 125.1656947838116 L 109.02156477753562 448.4200308392535 L 571.4594954586523 596.9878046401542 L 459.4022782678793 210.15258994728396 L 288.4702780547448 428.25078268773683 L 413.38172358124143 413.0117742033245 L 382.5914429063813 477.82961479465865 L 560.2790208345555 344.87182249589756 L 214.00787777066762 247.0587957579142 L 360.99212221616574 683.2348699598227 L 674.5226793239844 279.22292385671324 L 168.63103751673412 240.00797622326013 L 387.5501012616191 631.7470280968889 L 538.4987752547378 324.75824468056476 L 342.7767105702604 367.0985956891792 L 399.03236565100127 367.23175963731967 L 292.9869991616548 470.241666637637 L 589.4928898460234 488.8895673061076 L 369.8753800706923 133.86312822008188 L 165.9280667242866 583.1850495010572 L 675.8991128147416 502.4107261992505 L 349.5184991802183 145.61991061380954 L 256.0899732491409 533.3242274793037 L 507.5603257351411 430.02704696260116 L 395.8619674671894 385.56038773653734 L 456.16761332451495 338.53210627352604 L 230.5794265131809 367.58524067091093 L 486.10750928989677 627.187148407334 L 575.3200728626583 172.78279463629752 L 101.87008721264112 368.32421067377106 L 520.6531535149703 652.6819938210124 L 524.7517734611075 207.06823424431016 L 245.53935446983502 396.4993601680675 L 431.4950468804243 453.9177684847442 L 382.8398629360072 432.11024793781934 L 531.0573814721146 392.0571773701694 L 278.2835451378072 226.5387265514762 L 293.1823485629846 647.3843985742641 L 694.6345421811964 357.36022581498304 L 211.99502434767462 174.53802565457121 L 317.9249875185244 644.0557013218963 L 588.4435328222194 356.49008453734456 L 323.98613646744 322.89060295492135 L 397.28271124636814 411.0452723671683 L 317.37319822387406 426.47728199724935 L 533.1404558048232 514.2902404362624 L 438.5696017855258 157.97312881733228 L 133.9568470604287 510.3851752978405 L 642.8040294943959 575.6115836039442 L 420.83702420302825 122.10119754650418 L 197.9410391315827 504.2939333495291 L 529.5907650516624 478.20614535004245 L 399.50840830898335 341.1339581174991 L 433.9207057517391 378.7485440306528 L 279.4057361228066 340.28370734173296 L 419.6059056728494 613.5747469426548 L 616.9384088308373 237.50951655109483 L 122.7599020341541 290.3597010415894 L 450.90011657453385 688.3304836424919 L 591.1323919833407 230.3027007414619 L 217.54820796838766 344.87694985275454 L 426.7485599126218 501.3967471222274 L 405.331711822212 394.40763255790125 L 488.2659299159948 418.83285301105775 L 340.3133991197378 231.86566168620251 L 244.899945314924 592.4468553222134 L 686.7050517802768 436.6148069942717 L 276.71607782967067 127.09670970667537 L 244.53046317296295 629.6265779648943 L 624.7738254787193 409.85814782745035 L 327.97674528683655 270.480433873201 L 372.91622977887215 448.1964707442292 L 356.39172418758693 401.71737046390666 L 476.7576937736267 514.4686629599616 L 490.22321878700336 202.63587206676658 L 129.45511824127556 433.3230337063969 L 586.2819116252842 633.2628139412598 L 498.90459965365034 125.2903773000412 L 151.68486089240025 451.82270770801847 L 528.956073575936 536.4763783371781 L 426.3123914122365 302.03371269317165 L 396.09140012886087 401.1618469446958 L 330.1905269530505 337.45943342811483 L 367.6779800380738 578.4313171394796 L 632.1603153254944 309.3849956096361 L 168.67766227182258 225.1166816085303 L 371.31608605572336 697.8385844280014 L 647.7861650675156 278.6760944690123 L 211.92777329707008 280.9984313093672 L 398.1410604398661 545.0018954066255 L 444.37769767658193 373.48850458688 L 441.88936149974336 421.8590476149806 L 390.08199108871577 259.29586661331314 L 221.56053389605208 527.8483879055433 L 652.6944826221928 506.1726627152617 L 354.2865883313521 104.6593769347187 L 178.2659061093718 588.6262657421089 L 639.346525409401 477.8782749909517 L 356.6309050649758 220.25399881289997 L 330.8926640972645 469.4795659776916 L 400.4165561052534 400.0981417379006 L 430.5667313904892 492.25472433799496 L 518.6162273762076 259.0368340969859 L 151.52253031079934 362.90578246020647 L 514.123276935368 667.5830721526872 L 572.7951798936748 156.07068578191527 L 126.13942793951236 382.1738898906986 L 502.8689467116887 594.5762379991942 L 472.07231551315107 277.8725422732698 L 351.91318533754765 400.8748525518855 L 372.58004018786625 357.1758618853805 L 337.25708890561395 529.905391616018 L 620.8443689483764 377.53319921737045 L 232.64257914756968 181.08683893953395 L 292.7270014370301 679.2586194027581 L 685.2787519055362 346.73875708926676 L 232.3916959084787 214.92120483020844 L 349.0756703486953 574.7473849214159 L 491.17039176281116 374.9870515660701 L 402.35359122322603 402.20009010714267 L 420.02930539241635 301.3809891470381 L 224.30850292006627 464.32296981380136 L 598.7032552606495 556.9422429174629 L 434.11217156172495 110.22707511810887 L 129.1006714938689 525.6028344427266 L 627.5100391696349 550.7929917710387 L 407.3946840059916 182.5267594603773 L 279.5536546482074 468.53814455819844 L 438.99705780605746 421.41204121989506 L 402.6776361236954 454.37761972756095 L 521.6542069300573 316.67700918213006 L 194.984765520818 308.70732173228083 L 436.5631312068956 674.5553614624531 L 632.1070777054447 210.87065300916933 L 126.88912006373613 304.6962535628018 L 452.97727802484206 641.9189153864438 L 528.963143377709 275.7184513605285 L 311.82030933224166 377.2440461547663 L 397.97751087175726 393.4333833326988 L 331.32826472754334 478.1878742200804 L 587.2177248468437 432.0142212376637 L 304.89524072378657 163.2418159786163 L 225.8473178033953 635.1302579947453 L 697.1202374932384 425.66654471470287 L 278.25467311841044 157.42647134716069 L 286.7965775652753 582.866741504233 L 535.3335609605242 400.40316652268996 L 378.6921167634576 365.11693894274765 L 426.3381126506077 348.2929483011051 L 249.86351066802118 412.0686959214345 L 533.9170325724917 583.0771924359401 L 505.29524122892536 142.32253745482222 L 104.37812747769448 448.74030095972034 L 588.9384136179237 617.7231467745097 L 473.6817489442554 165.74088133930724 L 229.16854447746877 443.001391202867 L 462.70240657145195 461.150908595418 L 397.68855294901215 410.26216081445676 L 501.6867358639147 365.1940120115407 L 251.30604528346112 277.3573546737138 L 364.5506187002266 654.5904493052544 L 668.7200358055833 282.25324162742123 L 155.30441120923203 230.25327078062915 L 385.1234386274734 669.4254202432105 L 586.8839444534067 298.8324337045869 L 285.6068250380332 334.00098194881366 L 401.0442451348484 437.24275320097314 L 348.44810347611997 433.7280978881214 L 539.113075050451 465.50979335028387 L 374.56022797826705 172.21620024444616 L 179.47658416759333 572.0529209802023 L 680.8839584054726 504.73733891998415 L 344.50739231889065 118.1705429762601 L 221.15906504623746 565.1913266969829 L 566.7453992867931 446.817270010216 L 376.9555763569176 319.13212404223384 L 409.57137280803914 389.55670085529044 L 291.12841130519803 379.00175549529644 L 469.02558358111673 582.939743768916 L 558.4695341782544 195.25262068720414 L 107.56734758014807 368.48896190002256 L 527.7234415444852 668.5170700616293 L 545.9755316698077 174.9809423348899 L 190.14309211519546 394.9311210790849 L 464.78904097721284 511.2955414591946 L 415.89647871617643 370.36061388760567 L 465.0588536001579 396.15431748453466 L 310.07596339932695 271.44007931560316 L 307.8988988785325 612.4315904050236 L 678.1626537682132 360.16696926488856 L 208.2829200256133 169.3888377195295 L 308.3793334115883 671.1031179156568 L 635.203069019976 346.0626195837461 L 280.6949895928679 278.6144110370964 L 380.6342334787677 478.21581698943316 L 383.0309469270331 405.40977719086544 L 486.5879096016943 474.5529710962299 L 431.4963065471709 204.23524017628174 L 159.02444777466877 499.56379073577926 L 638.630546171663 573.1350188165799 L 422.6358079554622 104.02462315289671 L 162.9445043528095 521.9107741287877 L 577.3209332396087 507.37124978402585 L 399.1390896719165 274.52869962963405 L 374.5501563176029 415.89168924552683" stroke-opacity="1" stroke-linecap="round" stroke-miterlimit="10"/></g></svg>