<svg version="1.1" xmlns="http://www.w3.org/2000/svg" xmlns:xlink="http://www.w3.org/1999/xlink" width="800" height="800" viewBox="0 0 800 800"><defs/><g/><g transform="scale(1,1) scale(1,1)"><g transform="scale(1,1)"><rect fill="rgb(0,0,0)" stroke="none" x="0" y="0" width="800" height="800" fill-opacity="1"/></g><path fill="none" stroke="rgb(255,255,255)" paint-order="fill stroke markers" d=" M 400 400 L 534.2784320337145 468.20309843507334 L 246.34247185511364 189.63696634412642 L 448.06043537808455 696.1178355154891 L 478.5958457280143 153.84893853998145 L 296.7509371874845 504.5718927076104 L 396.01025472696347 401.33012297641864 L 552.5392276224352 422.7683585783867 L 186.0189984633621 247.83893439141642 L 539.2199075889607 665.6652483431988 L 396.738173902007 143.78854229579161 L 336.74907896543255 528.5560526811234 L 393.27213210603986 405.04688691063376 L 555.44829003949 372.7351270899258 L 146.95762878227848 322.7393092249996 L 616.0111337572877 607.9150848759436 L 316.59945225324736 160.06175617194347 L 381.1553766163789 538.2864557611349 L 392.82168712412226 410.3717916180379 L 541.978727465741 323.2777092856317 L 133.55533345954467 406.785309752561 L 670.5210764953149 528.8481177934428 L 246.37528118115262 200.5478247947134 L 425.16655616637587 533.4762031236988 L 395.29504022168635 416.14255469838895 L 512.8406030650856 279.7382306921526 L 147.5878270814801 491.3540987141652 L 697.1519515754155 436.6469839522695 L 193.09750257160724 260.6646373499634 L 464.2584760904929 515.3774712302121 L 400.80225733784374 420.99628363954565 L 470.47629787112214 247.04703974857836 L 187.98502133951297 567.6440601699816 L 693.2003655454141 340.84317887865194 L 161.92506772926285 333.88618428851987 L 494.65464827922574 486.57444507066435 L 408.87874075660227 423.5892319843034 L 418.8640479171496 229.16567790311734 L 250.90380853121997 627.597362628138 L 659.1337931850469 251.3244930859341 L 155.64223029397158 412.4537612716351 L 513.6926166519286 450.6417794760166 L 418.52297398463094 422.82224547107455 L 363.1444243199704 228.61523196183308 L 330.09443917517723 664.75644907438 L 598.5359076422252 177.30698471048984 L 174.41311952806097 488.20314551725437 L 520.0524805148156 411.7117103088651 L 428.317734568389 418.0396326153854 L 309.1048199487668 246.14549238283166 L 417.52548050742547 674.9628770542865 L 517.7271005867758 126.37913692462689 L 215.81394504537397 553.4190568413067 L 513.8285097959148 374.00132864323734 L 436.62035680468193 409.17209269707104 L 262.5740104083299 280.5865014591228 L 504.2044210628565 656.8225584934912 L 425.1006246343263 103.71805302693775 L 275.13448524407636 601.6268609491883 L 496.4429791247917 341.3538712182199 L 441.7977874617975 396.8011853661092 L 228.7905634575938 328.9051554407726 L 581.1094489231552 611.8853609872397 L 330.24455263994827 111.55924267215136 L 345.9122918866597 628.2396681172219 L 470.4189552258169 316.8441063883578 L 442.47533076624836 382.13280814764295 L 211.8138158426362 386.4675014378019 L 640.1351536384199 544.5167638238224 L 242.94204194694836 148.9747072699608 L 420.6391799195059 630.9956994059543 L 439.0438420207123 302.48863565482424 L 437.7650621173595 366.8790314761387 L 214.0435772698437 447.4846206248143 L 674.9523453801316 461.47169630820895 L 172.1548793447019 211.98150068247506 L 491.5625300286058 610.1441141455199 L 405.96640122257037 299.08841827894264 L 427.44135951766685 353.0599364886877 L 235.90473738333313 505.59903368515086 L 681.6902292288821 371.21238455850187 L 125.09667336314993 293.9681778096718 L 551.495408139675 568.3648214589554 L 374.77562515753175 306.21473842497295 L 412.03676874280967 342.7482416547895 L 275.7364552474643 554.551785582277 L 659.3670646429373 283.03960238732645 L 106.49224405167325 386.39322950924367 L 594.5502588441339 510.43615449397277 L 348.6097774909898 322.3330917951906 L 392.84085177164826 337.7880386769076 L 329.9042638656763 588.8597406257061 L 610.0213648597386 206.12717890345206 L 118.09981455399992 479.6812526086891 L 616.7207111518883 442.6906290388875 L 329.83833957051513 345.0440096512866 L 371.7966639485943 339.5237311320553 L 393.12946776337964 604.429484105908 L 538.5269563186612 148.56071122793261 L 158.54468147866785 564.2221943469254 L 616.2536354342354 372.32056686138293 L 319.849335858906 371.4073943154655 L 351.3026148104292 348.5755710749428 L 459.0062365583031 599.0391211102276 L 452.1085370558403 116.48189857302759 L 223.4801176371392 631.3686635294505 L 593.776984257802 306.6099288202709 L 318.96090729917205 398.3088436122171 L 333.940068716962 364.69385008559095 L 520.6554519572594 572.6318453307158 L 359.606211033112 113.42961349255557 L 306.0568431603177 674.327062155793 L 552.175527165848 252.1748539392203 L 326.46074847541246 422.8234809034749 L 322.15753573320444 386.71522525328754 L 571.4480698002674 527.3842195868559 L 270.56442805073345 139.94876721062792 L 397.650133226203 688.8500249441784 L 496.2334475222149 214.292647669438 L 340.7619560977322 442.535150555441 L 317.9493116397174 412.63278558475275 L 605.7214288303829 467.53571925900417 L 194.23991771742436 193.5102690459828 L 488.7669103079254 673.659061252474 L 432.0870305780133 196.38778037856665 L 359.6507097018568 455.77603006194875 L 322.5689626453164 439.77766063538525 L 619.4107630924668 398.99174879947253 L 138.63247359276926 268.752822965052 L 570.0367872999926 630.5550571086166 L 366.549793286112 199.72521718724147 L 380.59149840339046 461.7627390033894 L 336.3156518284547 465.095885986247 L 610.5254709658185 328.73727853395803 L 109.64076424559659 358.02337785772033 L 633.1828764403613 564.207330562117 L 306.3844487500939 223.3382060580157 L 401.05035262333166 460.61845848081526 L 358.424098068873 485.49159611966076 L 579.4148503165113 264.11971294702795 L 110.43282711865027 452.161351778169 L 671.8710529272894 481.64572326052064 L 257.59992374023415 264.19209669491227 L 418.7962136533494 453.2847360943659 L 387.07766178067476 498.19801501625835 L 528.7895384117118 212.0751658196673 L 141.09880157637923 541.4456683568342 L 682.349882805149 391.51117952768584 L 224.84702772610228 317.5606431712838 L 432.1450547689267 441.33982477007606 L 419.5499007079408 501.1324367694372 L 463.4905790114173 178.38015340399602 L 198.6240711492609 616.6059814384594 L 663.8160870223182 303.1451590478569 L 210.97399365103433 377.56924718010396 L 440.11996317078666 426.75103728500505 L 452.46455150166787 493.1912265108082 L 390.02515927462514 167.0098066562618 L 277.1873931801974 669.7921453952054 L 618.4697538293826 225.61446543535934 L 216.78448461725577 437.8430199989885 L 442.5119353093084 411.59548623142194 L 482.1490851012197 474.44602738605903 L 315.9136869395246 179.67396774973724 L 368.7543425289671 695.3998449956513 L 551.2563763202736 166.77400287446136 L 241.01793956099476 492.1880371527775 L 439.83913703957495 397.7859973510876 L 505.04455862812836 446.2124014898052 L 248.91419187054427 215.58485891282376 L 463.90511804002875 690.6649753103716 L 469.3256781585138 132.46505496871055 L 280.5478628215931 535.2325847974325 L 433.2152031647859 386.8367671864964 L 518.1260169720264 410.9760331779798 L 196.20463212401597 271.48616158442434 L 552.8107893523035 655.9633501777698 L 381.26662184875664 125.93152735673209 L 330.7705047569398 562.9615264962662 L 424.1482265973587 379.69688553661484 L 519.2843346019617 372.1778620648369 L 163.60984879757626 341.9457955208094 L 626.2560731992914 594.7831109065893 L 296.20088986940823 147.5129025055485 L 386.13680847663056 573.0902713830496 L 414.30009238355615 376.6700688469474 L 507.6227132975948 333.8762454681688 L 154.9568201166781 419.88636283355027 L 676.6014528840583 513.3715649019653 L 222.8311298475484 194.6430065509917 L 440.7665383334727 565.2435753064931 L 405.23982729523533 377.4271504323049 L 483.62899103747156 300.3195153923165 L 171.62968108503176 497.30117866585846 L 698.5834887431922 420.0924758096901 L 168.5439667144293 262.1512774857806 L 489.07652625161677 540.9263825468577 L 398.22425195487324 381.10556946986134 L 449.1977341093657 275.47424438468545 L 212.3758597876889 566.0829100557502 L 689.8689067822489 324.56041705319865 L 138.66091887642523 342.8315073837915 L 526.3555451225016 503.29664576917446 L 394.0345813160352 386.47885002215094 L 407.49244611552547 262.56165062460695 L 273.3886753462228 618.8784380851556 L 651.3037528958723 236.6424369809035 L 135.91374915873928 428.215356684924 L 549.2261782286806 456.77105392846477 L 392.88938877018205 392.17026478277296 L 362.65634555610063 263.65585667460255 L 348.6625584474865 649.8792210552494 L 586.8308598458225 165.43144497472917 L 160.19629762560257 509.4671901943696 L 555.9481436168087 406.5116129387905 L 394.4436347979753 396.87961037096255 L 319.3979899026977 279.39281885039327 L 430.5877937573256 655.4617850152615 L 503.08372099347963 118.29889400839812 L 208.61516218029743 578.305080301765 L 546.536140706727 357.85231642009865 L 397.87166508376896 399.59090151438534 L 282.4934816190156 308.82802313311504 L 510.72550109735874 634.6075795118577 L 408.6989132254437 100.12615192860147 L 275.82991660970083 627.8512967355964 L 522.6862501012574 315.7296418789521 L 402.02072816579545 399.73191297156825 L 256.25821488483064 349.4655422829791 L 580.6833398812342 589.0538789076044 L 313.41885537294166 112.7952718781761 L 354.64326251067615 653.3242931264781 L 487.5258717509413 284.17801502513714 L 405.6121030589257 397.2634188025145 L 244.04667804359727 397.4623939534694 L 633.0004083548162 523.1553831714942 L 227.07878505497916 154.9926585043904 L 436.77579263916743 652.5020613897078 L 445.2208311364612 265.9421947192552 L 407.46056828059835 392.6857805720098 L 247.8378929181201 447.99236925629407 L 661.94742918524 443.4667464043466 L 158.58404236713844 222.346255212131 L 513.7415648590622 625.9117457020633 L 400.4876355518164 262.2439515822524 L 406.680493506701 386.9619411467026 L 267.9565456399064 495.73484156446636 L 664.1559589210833 358.08618488143077 L 114.98476816933214 307.8818251274846 L 577.7313107079117 576.7298423913774 L 358.06747027027563 272.722215955716 L 402.8486051054806 381.3674106974298 L 302.9663935876867 535.4386803089345 L 639.0073474659969 275.8263639281616 L 100.74484999474515 402.75037314940096 L 622.4107006542446 510.40797983290935 L 322.22061261895544 295.54617887215306 L 396.0992434193812 377.28799232391844 L 349.75446551706193 562.5011365838982 L 588.7368055844892 205.29808506101838 L 117.28147051580879 497.15030431477487 L 643.5514562154042 434.067903788016 L 296.2954829410567 327.6818722893834 L 387.13696157666504 375.9934628679502 L 403.80381466780017 573.4977580235586 L 518.2376693031997 154.00273044503064 L 162.82310490317457 581.3475404503084 L 639.4319963843336 355.7328803399838 L 282.41624793036846 365.27661567055645 L 377.16246378004854 378.41921246189725 L 459.6314040992891 566.6026560330693 L 434.58265547989043 127.52973979662835 L 232.60029732918878 646.6866688776769 L 610.9696001301453 283.4788421076613 L 281.3180796558924 404.11410343721104 L 367.7197201149489 384.98742746222734 L 511.348476852763 541.8486314732157 L 346.3092087612181 128.94543801267844 L 319.34857400472293 686.4873327513988 L 561.5749748251568 224.5956467341901 L 292.34165488285055 440.08697304595796 L 360.48309955191553 395.49477823962116 L 553.2857118868271 501.19282191784686 L 262.54168415011134 158.44024538096784 L 414.0701204047647 696.7323529633545 L 496.74951486103106 184.84618359678768 L 313.5803073125011 469.6339155312941 L 357.01209693141516 409.0852816363076 L 580.6164001749987 448.37402251638196 L 192.0412934134978 213.27464434617633 L 506.973818962752 676.476175280277 L 423.4722836184411 167.8991907062168 L 342.15648616431463 490.09454010424565 L 358.5065264992594 424.3160550952176 L 589.9089786634358 388.57048067241857 L 142.2834402665394 288.0330181180929 L 588.494753959468 627.9318034663681 L 349.44505471461736 174.99194398607796 L 374.5906726709392 499.9463890749649 L 365.59616469868365 439.3114242008525 L 579.5459438897751 327.88930076943944 L 118.66024820860622 375.1619100311728 L 650.2862732059923 556.2282640743994 L 282.277430902329 204.8536839061228 L 407.21708125010474 498.9032818423537 L 378.1955151738395 451.98883324766564 L 549.9590044617781 272.738119457154 L 123.89383307877779 465.73884490143257 L 686.0809661790877 468.8652569724343 L 228.69879694260842 253.8925398941992 L 436.59716885366413 487.8707435635923 L 395.44695841320066 460.32978268944396 L 503.64908455811076 229.14417640837368 L 157.7243955865503 550.3928732644179 L 692.331091002168 374.92331781125984 L 193.87931079176718 316.6208445591775 L 459.88438253484827 468.77069150369636 L 415.7648777551188 462.6619274649005 L 444.98253107479815 202.09357075187236 L 216.90871232581316 620.2811639876072 L 668.56251905249 284.11321896957236 L 180.92895011712403 386.26906345107625 L 475.1012196194656 444.2619334521159 L 436.98068956092783 457.9155018638469 L 379.7791862296443 194.96333515116203 L 295.5320634013232 668.0191503614991 L 617.4066402597851 205.76480619157758 L 190.62337628387894 455.5196727682405 L 481.30149654266256 417.39379244840813 L 456.5755929971747 445.8188831894416 L 314.73121471153934 209.11079833488955 L 385.60348532742677 688.4657438570235 L 544.30864426842 147.86130904876546 L 221.3803524526331 517.2811030613855 L 478.6052103827451 391.236191015135 L 471.9759318305097 427.00429885422443 L 256.71112726901845 243.66924702738737 L 477.8740072074752 679.2796312902301 L 456.9445557541884 116.21980893490792 L 269.48342259197807 565.4193790070395 L 468.10875645571997 368.5302701772705 L 480.87685847190454 403.0047849305899 L 212.0410759664838 295.5776682940839 L 562.7934600515799 641.1862039038957 L 364.40976799463147 113.90262248762531 L 329.5234533743442 595.3714148136821 L 451.6877102314519 351.39917828252385 L 481.55474471377727 376.1363837814423 L 185.8015691894086 359.84755429138056 L 631.5061530402854 577.9247936724465 L 276.2653989690348 140.91960248826962 L 395.00623473658806 604.5782139930997 L 431.72122965196183 341.1497397717414 L 473.12827607096307 349.2737166579151 L 181.2554243112812 430.0440267139679 L 676.7808780456321 495.87945410731294 L 201.54313752879625 194.25044019745692 L 459.0579488642302 592.6967743424714 L 410.77507563227755 338.183508677184 L 455.73261991518405 325.5407787308687 L 199.45210815433475 498.9346903960652" stroke-opacity="1" stroke-linecap="round" stroke-miterlimit="10"/></g></svg>