<svg version="1.1" xmlns="http://www.w3.org/2000/svg" xmlns:xlink="http://www.w3.org/1999/xlink" width="800" height="800" viewBox="0 0 800 800"><defs/><g/><g transform="scale(1,1) scale(1,1)"><g transform="scale(1,1)"><rect fill="rgb(0,0,0)" stroke="none" x="0" y="0" width="800" height="800" fill-opacity="1"/></g><path fill="none" stroke="rgb(255,255,255)" paint-order="fill stroke markers" d=" M 400 400 L 140.06129156609984 251.50356554158014 L 380.22305569882406 366.4569074441061 L 404.0334778819327 694.272279946666 L 362.618600072827 467.5686068965924 L 642.8621203665209 252.28639986746774 L 514.1508015834926 396.87016901242185 L 162.5031122657742 272.8277483071905 L 320.7094431761909 273.571033913822 L 410.2760415916288 649.7794054032256 L 316.4070553410668 561.388507060001 L 590.0918753842534 277.1211269857486 L 610.8773198963303 388.42746771467387 L 222.1671081802516 310.9591387603823 L 268.5884108118014 202.69302822782245 L 411.50679858736873 567.6489301142896 L 287.2612875374055 633.0884153005236 L 510.7999352361323 323.99178453101786 L 675.46443823393 377.2961010693727 L 310.8270435588945 358.3676578569966 L 233.15095229910312 163.7847525539991 L 405.8238187746924 460.5161537664028 L 278.0137767343871 670.9096730901153 L 417.9151735582738 386.9740699212648 L 698.1868714004064 367.1733219560048 L 415.4761810583001 406.7151019984548 L 221.59033105985586 161.56501722802255 L 393.15838057748715 344.8173283130521 L 288.00775514530153 668.1111240175769 L 325.99179191185283 456.9756018536856 L 675.8016523256908 361.9608018619032 L 520.272182886896 448.31355259010815 L 237.62136643930674 194.95529533044825 L 375.4232973311329 238.22187761443956 L 313.5034162268223 624.1595653067072 L 248.89111568572565 523.0729656400719 L 612.0192100227656 364.81152900901407 L 608.9809667061248 477.36599928519536 L 280.61612379510655 257.4557986251294 L 356.2185187918802 156.88381528116358 L 348.58494203864683 544.9538498693521 L 197.65141363945585 574.2451302571992 L 516.883313959447 377.29299113836464 L 667.5357705469191 490.7864139959897 L 345.434098974186 338.36235410672975 L 340.1401375239078 112.94728432722655 L 386.3778968587948 442.0268129131983 L 178.87905620561042 601.2240124359813 L 405.1641855575485 398.8490253926686 L 686.301621169949 488.4812954271085 L 423.01235948007024 424.60183766672975 L 331.82103940194236 112.6982778612088 L 420.3414816570465 330.83406248036306 L 193.89997491373978 598.1497161792608 L 294.0254669336118 426.6879511259653 L 661.6758783151608 473.0767721105201 L 501.65248473237307 502.87115936315115 L 334.8902611597207 155.6491163301629 L 445.3990115430172 228.38846402475122 L 238.77985077814083 563.7377231472934 L 200.33932802867415 456.1433075368144 L 596.7569096729017 449.17591518632423 L 568.8183894716244 561.7261328148388 L 351.0618837777474 234.69156157248804 L 458.7114292835896 150.60904533810063 L 305.1771679239108 501.7364602721161 L 138.07672014208845 481.4607219812097 L 500.95946923497934 422.3119923230065 L 613.1637150685469 593.2868824857651 L 379.5476336102707 337.2831943379955 L 459.9737938777531 109.80448955081113 L 381.85937306921693 420.5656550236896 L 116.18359290247002 496.8776017816107 L 388.6235955335414 397.81100705678415 L 626.4568268119051 594.3007244803757 L 416.932415256172 447.46769277944884 L 451.2087689779682 112.69521823893291 L 456.61069473162087 332.16075552447586 L 137.27199430676802 497.7981765494563 L 276.8265595647106 379.7834339877231 L 605.0757301191359 566.4178339416694 L 457.5681186653093 548.3993438055987 L 436.1264255864138 159.29616363883272 L 518.2065775421831 250.1840290400131 L 197.3212380424221 481.8377584413106 L 182.73794070206858 370.4306292210067 L 550.8054197879597 515.6693049959466 L 494.4432133388244 624.9662008578043 L 419.19862962760226 242.84737767898332 L 558.131601038101 187.87563577774085 L 286.42091696170274 449.52346420052635 L 120.93468617913237 369.7834833554871 L 470.77774459666375 451.2684597621317 L 520.3918276125412 666.0964203356572 L 404.644755813803 350.81313387959267 L 571.7731047819995 155.8881310814533 L 390.4212293566295 404.49294387170704 L 101.10304332116874 375.9029730282472 L 376.5319196090819 383.9626671399125 L 529.4339127943057 666.3892398712878 L 395.5351972787967 466.7989952222002 L 558.9205449306023 160.4623350575568 L 493.2137948249481 353.11917004016345 L 126.49540649086526 385.48124978496304 L 282.3198332336336 324.2274897116145 L 518.0019017481615 626.8256931417071 L 393.1891729875907 573.0882514763224 L 523.5230416142404 202.2573142459779 L 579.2705505388807 303.5931546557971 L 193.3915120563882 394.7049491380219 L 202.9098396256724 280.6082465789943 L 485.81699529118026 554.4652701340583 L 396.9800936823993 653.3983640785505 L 472.78318545917364 276.048355724423 L 636.034202469197 264.5990542358382 L 291.653982565314 400.1937988202928 L 151.23356010287324 258.4755856896154 L 436.23005831143115 461.19826844849183 L 404.57775829297464 695.4211776386521 L 415.7726055742064 371.369507389807 L 655.7855880638872 243.79862854323144 L 406.2936552009234 399.8161716247218 L 136.2561173552483 259.37973760505497 L 375.93025942127844 361.77282702729366 L 412.5681769686075 692.7438832264938 L 361.82645664365947 474.0235656088197 L 636.7048739984011 246.3886223160916 L 519.7986773141574 393.21073370413967 L 161.4238565974493 281.07826425989447 L 314.03439202202236 271.42663314624895 L 417.3158152338726 645.8458513784769 L 318.99891594203757 568.2376078221232 L 582.9788044878903 273.9955246690371 L 614.8591919536989 381.90422484302684 L 223.9579310926454 318.1941181995669 L 260.68224366941644 203.50874627480417 L 415.88404244577356 562.0137037651541 L 292.8374111783006 639.1306236160581 L 503.96239773085625 324.1254221167697 L 677.0563824377201 368.99785057214814 L 315.1301033860529 363.35527054774604 L 225.3583229452423 167.46898564402466 L 406.8169325136458 454.189556762071 L 285.66562995539886 675.1007485723756 L 412.55472294609683 390.29886605507426 L 697.0908933946067 358.4828911213718 L 421.4996938281084 408.5918357406389 L 215.22007335867417 167.52352292757328 L 390.61182173644 338.9373230542345 L 296.4677088988349 669.743909492739 L 323.0701488827154 462.88592505345775 L 672.2001060710982 354.32296197839935 L 526.9333719827408 446.7334983063642 L 233.72544724791766 202.18827250920566 L 369.7723462933095 233.8518289539156 L 321.3564875860362 622.9838495465111 L 248.959541649265 530.5342260170901 L 606.5442306825627 359.49097493454445 L 615.0984289649995 472.56337272800386 L 279.8143786609812 264.7266118892668 L 348.41475399887213 154.82277599289026 L 354.506975858215 541.2154148540681 L 200.74951868020602 581.9741090592711 L 510.50641950534845 375.16317271283447 L 672.0373666827338 483.54016381072586 L 347.81416077810815 344.40930018888986 L 331.4903965221271 113.58634995650618 L 389.3598912012243 436.41946885960624 L 184.52128118699036 607.9095970255937 L 399.0252568295882 400.2473280449424 L 688.4115155988595 479.987247551571 L 428.121141796739 428.35664587012343 L 323.7672255478077 115.9485320493535 L 419.8619140264251 324.37366445804156 L 201.15294804441285 602.6760649185609 L 289.23103779912026 431.36143235894906 L 661.0482087773021 464.7485063511114 L 508.5798295802773 503.64644364465073 L 328.76727759119757 160.95418657474696 L 441.51468033389654 222.23145032710974 L 246.4181147810208 565.3717756024752 L 197.76562275439727 463.2938326899281 L 593.5330621728752 442.407773151376 L 576.3577437202539 559.3390643713008 L 347.87456173232135 241.1229826996622 L 452.0510344251617 145.84759291055443 L 311.8911162314681 500.2481116104359 L 138.21218739646025 489.88152199601006 L 495.73939416366255 418.2441845294209 L 620.0216557887235 588.0970975362338 L 379.8041775766326 343.70221783630717 L 451.6349238925969 107.2743002749981 L 386.4799949405652 416.26069254363046 L 119.03890648392138 505.1578552476915 L 382.3566690165869 397.1365837595637 L 631.4751304878627 587.1551029786314 L 420.5621982727865 452.7254304124336 L 442.5753471394987 112.8295711231832 L 458.3125328727571 325.82175785729623 L 142.3737840959102 504.5608111730247 L 270.641540979907 382.62992349003935 L 607.4278355867782 558.5107829972876 L 463.93729000500053 551.5402567785152 L 428.63720661156594 162.05162809400974 L 516.6537373958807 242.93024385467382 L 203.79120805944584 485.97019736702816 L 177.74215924175317 376.3365952804126 L 550.1338466560697 508.3418063402074 L 502.4649821795267 625.3991613163207 L 414.10571989427723 247.71393636346323 L 553.541168057038 180.96666111172036 L 293.127040263475 450.3624194400342 L 118.01787197855566 377.77423120583217 L 467.249447025217 445.77986559624503 L 528.7122861671347 663.7030423705335 L 402.8029175020152 356.9066275701128 L 564.8843237642411 150.50566959472474 L 396.17499322173256 401.932324283085 L 100.78029462057958 384.65285809255005 L 370.8028532057223 381.27418303784145 L 536.6615761629071 661.5499754082971 L 397.2575732951481 473.01937044291145 L 550.8742129996049 157.5077738258616 L 496.97923344311175 347.62334662478474 L 128.8168287846259 393.5353639205214 L 275.4157069884096 324.83457978241927 L 522.9419118505207 620.3584553828985 L 398.193894086203 578.3155824295357 L 515.671008982379 202.1998435250895 L 580.3485042922885 296.11395124751203 L 197.93430403845204 400.7228732484616 L 196.04440511651455 284.4510878575194 L 487.67036863433725 547.4866131872213 L 404.43689186276515 656.6920385833446 L 466.4599892500959 278.84934264559087 L 634.1893135234697 256.4111529330546 L 297.5982384495348 403.17433640735743 L 145.59638749892497 264.9435405757104 L 434.72451907710274 454.93076144597046 L 413.2468113809653 696.187125632772 L 412.06798047753267 376.4954723832966 L 651.2933059578096 236.28181979618003 L 412.56844131024087 399.2651618572693 L 132.80681811422232 267.4098339671689 L 371.36101094816865 357.3318353918947 L 421.00781602287816 690.8403695227228 L 361.3975894719681 480.5447031135526 L 630.3095336851322 240.7941637753904 L 525.2725943085411 389.223648500485 L 160.72830526310207 289.3315963705735 L 307.20860350683586 269.6235699257318 L 424.1240862596451 641.609161921132 L 321.95478227177387 574.9940205824826 L 575.7692768068725 271.23632124292783 L 618.541810488999 375.1496538625468 L 226.09449437924974 325.2806614923476 L 252.77742020698187 204.7052800467377 L 419.9334026330437 556.199135972564 L 298.7154342775344 644.9368504913025 L 497.186224345998 324.6254181739454 L 678.2750077444887 360.60472741437 L 319.6815434013643 368.06915024581133 L 217.71928824048754 171.5080981514734 L 407.4425467775705 447.838017767427 L 293.50527716995305 678.9527455078452 L 407.4025244932785 393.9267220281564 L 695.6114137554736 349.85057092466513 L 427.63143604376916 410.11707426167095 L 209.12955336714046 173.75015532246607 L 387.7218031596337 333.1909402101717 L 304.9691433435306 670.9924749099312 L 320.4675266901947 468.9835274685795 L 668.2704644941122 346.8862674384253 L 533.5438251226255 444.785063988786 L 230.18747389328027 209.55683840670318 L 363.86151237340033 229.75099138289454 L 329.0978384241995 621.4445647981272 L 249.40270397983807 538.0343540281781 L 600.852623289732 354.4798812573365 L 621.0146137524893 467.43917404699755 L 279.387248233696 271.9775547871394 L 340.47979948809535 153.12037158114342 L 360.1836726827951 537.1964115427293 L 204.21358308950394 589.5864321153888 L 504.0613015124417 373.3976278053099 L 676.2213966094462 476.074657234387 L 350.5209455148582 350.28475073440626 L 322.86103883888785 114.61204369888037 L 392.0055722038072 430.6627619858756 L 190.45785613473495 614.3426889361958 L 392.97801045786974 402.00167283445353 L 690.1417921706368 471.41400724709035 L 433.45229608054865 431.818208455227 L 315.88203435672483 119.54724596102983 L 419.0133592153529 317.9208833425846 L 208.57828373980573 606.8572314717459 L 284.67231427818024 436.3210335531744 L 660.0438109447971 456.4946022700515 L 515.5865845829969 504.0574598156312 L 322.93215979183594 166.50999299134102 L 437.2925637053041 216.2379321330933 L 254.0774641657508 566.6271788815092 L 195.53112673904286 470.61089004043413 L 589.9998955897588 435.85447535781805 L 583.819473328344 556.5795210653155 L 345.04467706580607 247.66466337425229 L 445.14246270418636 141.37770022958068 L 318.47166333132384 498.4127758385512 L 138.73217866880805 498.3202290663762 L 490.3304443028817 414.4943556943836 L 626.6578769832184 582.5907076678507 L 380.4259493883444 350.07237928501354 L 443.1803358017452 105.11395223888576 L 390.8360976461379 411.7002363699169 L 122.25819059575372 513.3040281081013 L 376.05376086187755 396.8281263809989 L 636.1654002169628 579.8030596884166 L 424.5017763309607 457.78381328976565 L 433.9785667250794 113.34881195971445 L 459.6646052137946 319.36298133573564 L 147.75673933312302 511.0603051787025 L 264.5797193172508 385.82696461276026 L 609.4017607396777 550.5427182887797 L 470.5070871207788 554.3657113173076 L 421.33051679131785 165.14116928644148 L 514.7263188466355 235.7133627213141 L 210.41156671555183 489.7557267796601 L 173.00778134702225 382.51701011665466 L 549.0988730836443 501.1088153435864 L 510.5432610272685 625.4547798815267 L 409.30951812193234 252.8065642189452 L 548.6159086337644 174.24533323894875 L 299.82728532658683 450.830555451533 L 115.45601808432554 385.9158406904183 L 463.4350599024508 440.524612329549 L 536.9350514754927 660.9351680722846 L 401.3205157097749 363.079452942279 L 557.7580385217623 145.42971797518015 L 401.7679394211464 399.0410806137517 L 100.84537549162144 393.40394267209825 L 364.91438339255706 378.9173106346438 L 543.6538978885976 656.4031854230426 L 399.3398280749936 479.1587189300459 L 542.728373872658 154.92619896864312 L 500.45679029725216 341.89437467903235 L 131.4926171366606 401.4408519826742 L 268.5065671087748 325.81414937590404 L 527.5493136092043 613.7031906075836 L 403.4965892823164 583.3153563448594 L 507.8742712701457 202.51791074325058 L 581.0611120228903 288.53962303820526 L 202.73738283552106 406.46811626487374 L 189.3295755911259 288.64295564742736 L 489.15114132504925 540.4713694459897 L 412.0781358462871 659.6505382191494 L 460.3369749495526 281.9639228311152 L 631.964395069885 248.28293279068384 L 303.6641871254968 405.80538221609726 L 140.2399333385149 271.6769284845865 L 432.8706925533975 448.78402076919156 L 421.95481092195433 696.5676133621846" stroke-opacity="1" stroke-linecap="round" stroke-miterlimit="10"/></g></svg>