<svg version="1.1" xmlns="http://www.w3.org/2000/svg" xmlns:xlink="http://www.w3.org/1999/xlink" width="800" height="800" viewBox="0 0 800 800"><defs/><g/><g transform="scale(1,1) scale(1,1)"><g transform="scale(1,1)"><rect fill="rgb(0,0,0)" stroke="none" x="0" y="0" width="800" height="800" fill-opacity="1"/></g><path fill="none" stroke="rgb(255,255,255)" paint-order="fill stroke markers" d=" M 400 400 L 622.2735238870164 432.52125050513393 L 685.2988942676686 485.3114946972889 L 554.1944228378517 471.8102160862176 L 339.56563391297027 360.3081461469879 L 201.19169215047742 223.36592166886828 L 219.66470200821766 185.51134844750683 L 344.4999819710479 310.25023574356237 L 455.75542203186944 528.7933033389717 L 475.87517938195293 681.516559711829 L 428.9748198839612 644.4375522300836 L 399.0521532369706 434.7175602353478 L 434.36306559658686 202.86210499800535 L 493.7579525298644 115.03237416978135 L 488.2617582645229 223.2513264965659 L 378.2172378669335 431.27154813764065 L 230.2289772337263 580.8900729232539 L 172.43846965055738 580.9599355322231 L 281.27483862045506 469.0114927461849 L 500.8993080017222 359.55282723681256 L 673.6240394563281 334.2065604680854 L 663.2611930069284 376.0588330645239 L 468.8911777630384 403.76449196048446 L 230.5520933166671 365.67400714557584 L 119.40997400705777 299.1155583414967 L 203.8420379420788 295.2625927183192 L 402.7398108475986 402.0217139995368 L 561.1349418096237 559.7220936556085 L 578.6514445986936 637.696748442396 L 480.08672931495056 546.863142145902 L 373.79491462200684 329.0836163988548 L 344.5832208464456 138.30404698592946 L 382.3247905242202 121.56899868594621 L 408.3698605243851 298.01325762867697 L 367.7164713468517 539.6614706869182 L 293.61682340240407 672.3021998609433 L 279.1504036327844 612.184914082596 L 380.70671497576694 424.7052980307815 L 546.5262589531673 260.0331561183089 L 644.6107478316248 226.39269257664006 L 573.6708960102699 311.35582818523403 L 360.70853044257797 413.31199835436536 L 154.12272171085428 445.0934545194714 L 110.30526893620299 410.4629688617382 L 266.51038238823827 385.36748494374655 L 508.2686441109726 428.160533559883 L 660.3059304238573 509.9762810976966 L 624.6564777207107 536.2041720232924 L 450.639505838676 441.8204623702834 L 282.17619853470825 269.71399206189653 L 233.9261962354656 151.92698110990213 L 305.33921580363005 201.3303395366221 L 402.0082440554804 406.5066539459829 L 435.16126674246993 626.3811624914673 L 402.6144651952689 696.8660447301837 L 377.6273577432591 562.9139034482876 L 421.9356939722984 324.2174697597165 L 511.42278561934506 155.1357097434027 L 550.4089783266045 166.53375201227183 L 465.18053692441754 325.32257467841714 L 288.83342770149625 495.1489165566632 L 152.0884745472474 556.3398366297724 L 178.5960196714197 498.17132314388994 L 373.07059710947215 407.5130903249151 L 603.4854265169865 374.06035759187586 L 699.8279832078779 405.5439157479471 L 589.8111405012512 431.36614460745307 L 357.2702153445524 386.35720784433573 L 173.70388749301947 289.4751149361238 L 161.42452634013165 236.91749320613806 L 303.5206946399882 311.0361537638171 L 472.38137071724583 489.39385813502554 L 544.7299502381201 644.0170276777956 L 499.2663810471415 641.4505976038977 L 415.1098176845901 460.4906115604459 L 382.2778275284711 222.47217241152927 L 413.67741730062266 101.46487260627697 L 441.3497502173349 186.22171269532842 L 396.62924791930214 409.6409132033698 L 292.8666819198115 604.9694356078127 L 226.13757035249108 640.0127353391243 L 287.2617985944651 515.756792753075 L 465.2511209012467 350.0523779748641 L 636.3462077779933 268.40330827948605 L 658.4267930901192 301.91075099383755 L 493.6429863094881 379.30685074971575 L 251.0998302480142 410.7697695856659 L 106.98559097196028 378.5489057906321 L 165.53518341495476 347.972967998597 L 377.04055214590073 391.26245431087057 L 581.294056273455 501.1517472264892 L 637.8723100826471 582.413835909192 L 532.2775963848762 536.0573128649893 L 371.74702199335263 360.92555882016694 L 282.6875190721216 175.07647244406206 L 305.1683257375206 128.00198859364144 L 375.7710118147147 274.14561842852527 L 405.30459064939976 518.0413748442495 L 371.46199569427836 683.3645551166284 L 336.92479212197003 651.5787942367878 L 377.51233921805806 454.5620793138506 L 492.5400397847184 244.28665729465015 L 588.4369950854948 167.68873561186206 L 558.4696177124274 254.13103204409117 L 388.7529160372742 407.67371485299805 L 190.15822797468118 502.26116215538985 L 118.11538521227641 489.72860931921537 L 243.39575772895108 425.737996187799 L 485.4296473226067 398.4951450770576 L 669.7541773524536 434.62723114956606 L 664.8918250642705 474.1525768597737 L 484.6823678702784 437.63715651905204 L 271.30452581731447 318.6836283212101 L 176.45465719014686 208.32551780847976 L 243.58006200561508 220.47266987032498 L 388.5499011416011 382.1928472634755 L 486.82941741043055 591.2612597458078 L 483.052070803971 687.8676280083786 L 425.2944366921607 585.3931770788706 L 400.4993310996666 348.4261155427583 L 439.43156275663347 147.5814551804654 L 484.9064321212805 125.7572279411936 L 453.9002603938048 287.1310422479481 L 332.4418987261229 500.7242840750546 L 208.08248969698224 611.8437435217945 L 201.20446905529244 563.8822715756353 L 352.3685269526121 428.8209310257869 L 569.4077273075188 328.6017770626447 L 689.7933565390861 324.89575558184026 L 611.7521669724098 376.9761758370119 L 382.9955015383688 399.3709476514238 L 168.34489565291787 357.3053413054537 L 120.45981946993675 305.01871835326057 L 261.2883021390944 329.04647159523483 L 472.2898905633451 451.40138533013476 L 597.5228942598857 589.0113324881263 L 568.27013453553 615.8611106730272 L 444.1891427593912 477.74435675708247 L 343.6654709738061 255.43107787650465 L 333.790012271759 112.42321776803857 L 380.90056579938494 164.74877161131803 L 401.14149899675186 382.26382886788065 L 355.8024514755579 607.817837661272 L 295.9727998925281 680.7633643073622 L 311.5576013704169 561.8487317428173 L 433.0395355257263 356.1206971477466 L 582.8595935279382 219.06063818615527 L 630.3413824569822 230.34151256728973 L 507.6484101194391 342.64273099773425 L 282.9100362129136 441.9833377184131 L 118.7963350204077 456.7088947726083 L 144.4926391677382 413.73775323115274 L 347.89633161256825 395.21568785658235 L 581.3105674565168 443.7643185571894 L 677.9621379462315 511.7081323458599 L 581.9725953922191 505.98850027074354 L 384.0328096598638 387.2798597865202 L 237.5179547954779 226.57246708461767 L 231.8197494548423 158.1078128312672 L 331.81685814537275 263.16037948630594 L 428.66034399471096 487.3675591850265 L 446.94709523302515 670.7313044319013 L 407.19296893690256 672.1916228041096 L 389.78193319738125 485.56126429309944 L 441.26686089471985 247.4206547911378 L 517.7099693170305 128.74479412293067 L 523.1975679904335 201.16479174686108 L 409.25899811101414 389.0069980885838 L 239.25603620523796 542.5638165308612 L 149.78467755773704 564.0223082480186 L 235.18316739088343 476.5817998390779 L 455.8431798249545 383.35470641709776 L 656.2879424553273 362.7310339264088 L 685.035197072368 400.2493771701692 L 517.589641056236 417.3098528625013 L 277.89592843192213 363.3714216127819 L 139.1727538342475 278.25177844196946 L 187.74833459216003 260.3322019827163 L 363.42258410006036 367.44496569502877 L 521.6127839263677 544.9019772985605 L 557.4204447021823 655.0651403695178 L 482.52615187073764 591.0912584743165 L 393.8238050804195 377.004669037833 L 371.99106502091274 161.9291859571483 L 408.27943593855025 106.16567374103664 L 425.8780649418012 252.30377083209933 L 370.1730389510523 490.3895151264477 L 276.4248768667772 646.9247524806366 L 245.00152746225686 622.1027633791513 L 343.2137376511779 460.3994574704565 L 526.058347647123 299.93664208058095 L 656.2541747665097 251.34667560258515 L 615.1958326475888 313.95360919824395 L 410.66893934843336 397.4445043612615 L 183.65711871063326 419.4835526030183 L 101.54597792954104 383.42935833086636 L 224.5759838985698 364.3035888623572 L 457.9559069735171 420.894973186891 L 629.8507224514863 522.9860103857529 L 628.3362177122535 568.7986724884449 L 482.1166377329127 481.5391873037809 L 321.6526943895417 295.56836013063764 L 261.96434969265545 146.34232202685553 L 312.77182244853316 163.30577441425518 L 390.59138286146765 355.37687244848297 L 411.9840046130704 591.4283112792978 L 375.2123172920802 698.8304758006589 L 353.5010484780836 600.359656171496 L 409.9212155137083 374.67070353411606 L 519.8248344764029 190.04169663562237 L 580.6958961823614 169.03344297887244 L 506.37634838022836 298.5635526373665 L 319.7009514557822 456.8849764112324 L 152.78303129617214 525.9106488292593 L 144.81066490076282 486.2096424759175 L 321.6692177942215 414.2949005624677 L 563.7067837713454 394.23077507264225 L 694.9721234888076 432.5946780673152 L 622.1407251815614 457.9860599329502 L 406.9681420718681 402.9511476728062 L 212.35647339357334 286.0113156841516 L 169.92629505740229 209.65559770746864 L 281.87884763638925 269.1552621422647 L 436.0768786452338 453.9920219941804 L 512.6420439691378 636.9415160821732 L 483.1772752408765 670.3310852333775 L 417.1803676733394 511.2552470893857 L 398.9402414311818 266.39326210532323 L 439.6633821690704 113.04065419509772 L 469.831182807424 159.53801929700418 L 417.52668009943017 361.57233844868085 L 294.56878326921617 563.3372800364773 L 202.56689943364194 625.8002878902599 L 245.5153524445057 531.9914224116517 L 425.8907513684848 383.70422180163627 L 622.9097101946666 301.3943068769666 L 681.8233753771992 321.63920246509986 L 542.8694498954267 381.9144932807292 L 298.40231178392594 398.0325064984966 L 125.05719018329938 354.3187609042272 L 144.9194911700121 318.3117483828046 L 331.43683355850544 366.43885800754276 L 537.496682165577 494.1649131394512 L 618.3477321051433 601.692822159411 L 542.9287271846025 576.838764931817 L 402.12052120319294 403.5823724918205 L 315.8189369002036 194.7317042302238 L 327.97286598202015 110.56996109395442 L 382.9157745028891 227.33445464421868 L 396.8164659568785 468.1817590799044 L 349.6408892239575 659.1404867212866 L 306.8004087251259 665.8196606247527 L 349.2339314660789 496.9199295547453 L 480.262106180196 289.4039666232703 L 602.9028134889489 192.02876226493524 L 597.4613348862381 249.12353838155605 L 433.97021009361356 381.1244286223171 L 215.7695275952038 469.7427276068002 L 107.02030994146986 464.47361551284155 L 199.8357757840787 414.30160817488417 L 433.8846016746276 402.5104413630734 L 639.8334058515434 453.4385102490488 L 672.5717057503668 504.0041559470361 L 523.0826323944686 468.81436779561284 L 316.8824728145271 336.1452548506421 L 205.02625994790776 199.10368722353357 L 244.16021271391372 184.07279891127072 L 366.2802801717212 335.21091103347317 L 455.65206622752765 560.0726915669808 L 456.0205642286139 692.3693596253598 L 409.91052759801516 624.9235058629356 L 399.9233841249976 400.7541294676385 L 454.6981814185792 182.63976973360036 L 513.7459162973331 124.7008435008724 L 487.3468258551397 253.31742570730754 L 354.86710476785566 455.5419085769217 L 204.434913335341 579.6989879802728 L 168.15945778621105 557.8842035334037 L 304.46237538329916 446.4544901099097 L 533.1302068533298 357.7506600070356 L 687.5668439409637 352.9965765653031 L 646.546842453797 395.87281097816634 L 435.1905551222012 404.5485654563764 L 207.88923750122873 346.04011969478745 L 125.96525797101134 277.91778157179624 L 232.5960872098371 294.0206127116009 L 428.3392666864208 424.3419918218493 L 562.5238874500066 586.8628250905787 L 557.1328880829499 644.8431237895416 L 456.9358184110135 525.7059745056597 L 370.15368990776005 296.20854083465804 L 362.23539678056625 121.3882828598874 L 402.79429617696934 135.3096240925313 L 410.82283910374 331.1135852110509 L 348.90677054637854 564.5185100860472 L 271.3080652159873 668.880039588777 L 275.6889375818164 584.9888176843436 L 401.77889716466996 398.03985449380866 L 574.807315549167 256.14972862995955 L 654.6218953848917 246.237128002205 L 554.785343378758 334.92391346003285 L 327.5085979802183 418.71955426192955 L 134.38501684693443 428.64521958425576 L 120.93079417216552 389.43181227472786 L 298.6812166836272 381.2350062237092 L 535.0524589434298 446.0195365129613 L 660.0027962894894 533.2832310229574 L 599.2414434570953 541.9322989174763 L 423.17285099417165 422.2131683748499 L 275.90373107088953 240.51865747373824 L 251.99986233536356 139.08422463295636 L 329.1550831271582 217.7224475100109 L 409.10462019890656 439.7038937189363 L 419.97690602654677 648.7573709288835 L 381.1158924990156 689.462545988273 L 371.8084859016939 531.9894718812455 L 438.71448967567494 295.7917819384415 L 535.6007802887099 152.36699897351556 L 558.4336449281934 189.96935102839262 L 447.25072450868157 353.32720616655155 L 258.9677162927177 503.6874542831453 L 136.47851877517883 540.1137503261152 L 192.29551670235318 474.2687208456214 L 405.93330206270196 398.8088627360547 L 628.2863033475072 387.9261250837945 L 695.7176690345522 427.41459213807275 L 560.4339309503348 438.8737380922555 L 327.50128888179637 370.79033381278896 L 167.9422090555692 264.567732733954 L 182.70858113621233 226.58547603949984 L 331.8046472262531 327.0829589813762 L 483.0479583180401 519.6704010634146 L 530.4091532162989 662.2982821494743 L 475.4290187032453 630.6172080489159 L 404.8810128232717 428.2945166322292 L 394.7745995866495 195.4884033324189 L 435.82304296544766 102.24743690169498 L 450.5428244334211 213.7705170205369 L 382.40718495160246 440.4445991685417 L 267.38596133271403 613.6152998653613 L 213.5080613451821 621.0249674599322 L 301.2300774793704 487.44477484135945 L 495.6658515267529 337.4082729765988 L 657.1715718193632 280.7792268654677 L 650.6046253200651 325.5404260791961 L 462.44168962929706 390.97561175843657 L 222.20002738591793 399.6888855241629 L 104.44275041479364 356.22809946147646 L 190.99727378583003 337.10434282213714 L 408.56462340021983 404.00690079146034 L 592.6875768960844 527.0357740735656 L 621.2975327603251 597.3089210712072 L 504.1788035328202 524.3501143500723 L 357.2858939194746 330.6555318566526 L 293.09590301074 151.86481728140555 L 328.4575895464407 132.69857208500275 L 388.79451154655186 304.0319329476787 L 395.68366334092855 548.5684888351587 L 349.06913387662274 689.1937379767296 L 324.39843620467093 628.4359677052379 L 388.64792130485 422.63394203101876" stroke-opacity="1" stroke-linecap="round" stroke-miterlimit="10"/></g></svg>