<svg version="1.1" xmlns="http://www.w3.org/2000/svg" xmlns:xlink="http://www.w3.org/1999/xlink" width="800" height="800" viewBox="0 0 800 800"><defs/><g/><g transform="scale(1,1) scale(1,1)"><g transform="scale(1,1)"><rect fill="rgb(0,0,0)" stroke="none" x="0" y="0" width="800" height="800" fill-opacity="1"/></g><path fill="none" stroke="rgb(255,255,255)" paint-order="fill stroke markers" d=" M 400 400 L 382.673945594078 103.78045762186673 L 313.1576650736305 410.19379247285747 L 352.7511408555626 133.19174656601564 L 237.26286054145652 438.7388386111148 L 336.16434365571524 187.72616362601127 L 181.54150386296658 479.8783093587676 L 339.10938270082914 259.50641758583106 L 152.0615442811576 525.1319334515209 L 364.222390705783 338.347483315178 L 150.81936334709167 564.7696141700897 L 410.03742651465325 413.40659527720857 L 175.49892257150515 589.5126706583292 L 471.1447630555383 474.9268018765139 L 219.9410750516249 592.1749928234542 L 539.0260754913143 515.7838786236612 L 275.2416994346052 568.9659832027157 L 603.4286751981448 532.5798619018125 L 331.29229055986247 520.2335096184654 L 654.0499097262523 526.1029273429766 L 378.5029622450069 450.5187643695388 L 682.2501819802937 501.0799523502495 L 409.4178315689717 367.910207365854 L 682.5075925246681 465.26696843392097 L 419.9514734086297 282.80131981372125 L 653.3699124050577 428.0338705193586 L 410.03939608334133 206.25698533335338 L 597.7433039914288 398.68454887675927 L 383.5944868737745 148.2591468056758 L 522.4678952159151 384.7978149949666 L 347.7784734763626 116.12290609195549 L 437.2494205755954 390.87069252582245 L 311.71297104768473 113.34598799343632 L 353.1236980741574 417.49448608512984 L 284.8492272022241 139.08220863565754 L 280.7086794198507 461.2041236784172 L 275.2733557261834 188.32538901591153 L 228.53411920551753 515.0277002842504 L 288.23497055149016 252.7715085042495 L 201.72564233812142 569.6450099948067 L 325.1498188303856 322.2136951387084 L 201.26038192428462 614.9609904216604 L 383.2475224768286 386.23587834249247 L 223.91542057035312 641.829701212051 L 455.9272106586718 435.92146347439063 L 262.9140992478475 643.638539090881 L 533.7648446357041 465.2915076846524 L 309.158353684994 617.4852260255551 L 606.0063761702381 472.232877942197 L 352.8372126203408 564.7478823339356 L 662.2989557557435 458.76301478737184 L 385.13888714358296 490.9498557641599 L 694.371979593097 430.5897339097245 L 399.77700643154316 404.9389248101973 L 697.3876349943416 396.0431913171188 L 394.0733282052742 317.5152470064688 L 670.7354691963644 364.5627832503367 L 369.4143209240957 239.73473095299065 L 618.1381771916286 344.9966090212517 L 331.00475955950554 181.16888828186174 L 547.0507469007566 344.0026246176306 L 286.9601286614161 148.40954515054608 L 467.4530440185773 364.8234690454522 L 246.89124969933044 144.0658323947243 L 390.2370895116155 406.6440342226075 L 220.2203888140005 166.4184996021979 L 325.45771984574304 464.6427379692529 L 214.5137293357386 209.78662870355706 L 280.7377237717546 530.7306249156159 L 234.1128346165558 265.5427031304875 L 260.09217645900634 594.8564843491185 L 279.2979444273579 323.6036977970339 L 263.365982612345 646.6606114347092 L 346.12698505855116 374.14655171407384 L 286.3754739327652 677.2007060149123 L 426.9809512938195 409.25936031290837 L 321.72660611937323 680.4606457150292 L 511.72783468037443 424.2510724634807 L 360.1687262145909 654.3886493042002 L 589.3134109190605 418.40045527226965 L 392.2530951961298 601.2896781956076 L 649.5153932474049 395.0198458862283 L 410.0144196288754 527.5046823135315 L 684.5697654729772 360.82481936630273 L 408.390111167289 442.4284151896901 L 690.3991845625458 324.7179420294586 L 386.1364366310189 357.0280476713964 L 667.2396630405337 296.1935890853548 L 346.08567126786784 282.10816928278734 L 619.5621896444841 283.63478477984825 L 294.6995494919636 226.6100036120136 L 555.3036809289808 292.79142223450503 L 240.99304177414714 196.22670052773447 L 484.5369355832472 325.6989418503113 L 195.0088251768749 192.56341151739423 L 417.8027592585087 380.222668174091 L 166.09888950726335 212.97943015692027 L 364.3834694635586 450.3079238143398 L 161.3027417421374 251.13533190446512 L 330.80619261352604 526.8973944072259 L 184.09607530697042 298.1499639913367 L 319.82520437126317 599.3649299990722 L 233.72215592216952 344.1701284788394 L 330.0516316655211 657.2278915189183 L 305.2208654709367 380.08697932765597 L 356.2897308716553 691.8529138728846 L 390.1536564838271 399.1090545110271 L 390.52000793533875 697.8705033911974 L 477.9061744307708 397.92651494727374 L 423.3606284122352 674.0621430673295 L 557.3535458255523 377.2704071764865 L 445.7581504733189 623.5714646005774 L 618.6125409465648 341.77296396574354 L 450.6201031233526 553.4038317225538 L 654.5902010113749 299.15293263517344 L 434.11178951865713 473.29745594449685 L 662.0725257728734 258.8638527454834 L 396.3962637519534 394.15401923451446 L 642.1737461097156 230.43395001902402 L 341.6902075949077 326.2901297283593 L 600.0736541329777 221.77862197093646 L 277.6236715368857 277.80049363104695 L 544.0894923864612 237.77156570125436 L 214.00898720105963 253.3045045611729 L 484.2400508638085 279.3175727127651 L 161.22389500814927 253.2832639593334 L 430.54424817161913 343.0860985748014 L 128.4793037640411 274.1147206966076 L 391.3403965112898 421.9539823442528 L 122.26211562770914 308.79733266823814 L 371.90821762737176 506.0867217647622 L 145.21483020670883 348.23709669542575 L 373.62420316750416 584.4804713452636 L 195.6409844698264 382.87836027879524 L 393.7907584140949 646.7094224576651 L 267.721064674185 404.4013652824599 L 426.1658849528561 684.5884622276756 L 352.40484868685706 407.1986165693527 L 462.1020451187851 693.4748350396462 L 438.83310268091856 389.3797292445441 L 492.1001500677402 672.9926387352755 L 516.0531209288926 353.1340683236258 L 507.5145759111068 627.0603038658255 L 574.7435911479565 304.3888676000379 L 502.11950516523973 563.2175807121603 L 608.6629057611154 251.81939228944555 L 473.27001996540366 491.3654821344955 L 615.5815436857567 205.37712012293414 L 422.459361735301 422.13049695187175 L 597.5457097670026 174.58347362517875 L 355.17520908994146 365.1267937457069 L 560.4315121389022 166.8766325230397 L 280.0756836312881 327.40662561822666 L 512.8677726714964 186.29065600331342 L 207.62028423392076 312.3569749099438 L 464.71116873823485 232.6909233578116 L 148.38284823398 319.22506144070667 L 425.33208311236086 301.6970090345385 L 111.32750537471776 343.3493527727357 L 402.0007734595413 385.30911999780625 L 102.3353703862918 377.0539627143673 L 398.646038347476 473.1364266577732 L 123.22825659937496 411.05274702595904 L 415.19539819577517 554.0247751900571 L 171.4529253955658 436.12373760374464 L 447.6075480344526 617.8142986463497 L 240.4791854558429 444.76918058121083 L 488.5909875791533 656.9355851940791 L 320.8459965675015 432.578975730639 L 528.8869263444799 667.579984736793 L 401.6815939640734 399.0653256197911 L 558.8992548589296 650.2508268665939 L 472.44466093071725 347.82549199436426 L 570.3955828718096 609.605843910515 L 524.5969788030668 286.00276039950955 L 557.9909562612128 553.619580184074 L 552.9299012136896 223.13401825034404 L 520.1619702928256 492.2081508294722 L 556.3254199002566 169.575883830758 L 459.6175497129053 435.54834476274874 L 537.8276971739496 134.77268864743394 L 382.9604900848845 392.37372204867677 L 504.01676568220125 125.65681526516312 L 299.69285755778816 368.53355501484384 L 463.7931962833899 145.4503410440869 L 220.72855363187978 366.0556888237125 L 426.7812563845684 193.07023116545213 L 156.65926734836916 382.8691868445982 L 401.62185910933766 263.23863737350575 L 116.06173674615616 413.2313008606441 L 394.44474181464085 347.28207166128647 L 104.12771577563171 448.78456946066404 L 407.7787779242841 434.48808826678294 L 121.84437436484495 480.0636453078814 L 440.08525816084097 513.7949316924643 L 165.86103994116178 498.195622475036 L 485.99382452582995 575.5340189157503 L 229.06361128323795 496.5049169599428 L 537.2021705530088 612.9364412587552 L 301.7598510398569 471.7496459325684 L 583.8885554739481 623.154346870819 L 373.2768967834323 424.7782908978729 L 616.3994481370712 607.6294371869124 L 433.70379812245653 360.4928379564806 L 626.927796954669 571.7502241203719 L 475.4881707460813 287.12121231290723 L 610.8983934727124 523.8587905482217 L 494.6211179510498 214.91808288384115 L 567.8254155700821 473.77659476595306 L 491.2141818733139 154.50948291578834 L 501.4953590226921 431.09911154250074 L 469.37455054365165 115.15698555528229 L 419.44141762822346 403.54735380324513 L 436.4028520159283 103.23125346972063 L 331.7940233158862 395.65416716946567 L 401.451780117636 121.1502672012428 L 249.69680294783993 408.0063577680035 L 373.8743917581494 166.96020084076687 L 183.550106156034 437.16976108028626 L 361.5429844744468 234.62971496192412 L 141.37327475381971 476.3090762108318 L 369.4242663298897 315.0093465698809 L 127.55708658742577 516.3970459780952 L 398.65326649255036 397.2966614004095 L 142.21262172994915 547.8080571036729 L 446.26437309223843 470.76350824243093 L 181.22309770219042 562.0261864177344 L 505.627145451077 526.4582132963321 L 236.98772386887745 553.1780629363748 L 567.5157312516167 558.6001606047894 L 299.7310382683526 519.1299652488094 L 621.6337846232327 565.4361360839699 L 359.1568950166289 461.9614644856042 L 658.339695166605 549.4183418000997 L 406.1690738921347 387.73242916912295 L 670.2826589735741 516.6779134496686 L 434.36996487188225 305.5787935118193 L 653.6744251038429 475.8859737036142 L 441.0866835632014 226.2852524473846 L 608.9820553959792 436.6968899757335 L 427.7539160713064 160.57105576412593 L 540.9236074016516 408.03825598771914 L 399.591336350996 117.37355178359775 L 457.76510039339973 396.53746719339006 L 364.6323489578568 102.41493122862096 L 370.03392529869166 405.35136780394464 L 332.2702112594868 117.29059645346007 L 288.8614222914695 433.59725288334704 L 311.56892287138896 159.230606593421 L 224.2293119293027 476.4819757760778 L 309.62597476583335 221.57330491147525 L 183.41063621929376 526.108099508997 L 330.2654550227007 294.87135651755614 L 169.8631698360201 572.8217346988657 L 373.28455174049776 368.4449442938344 L 182.75738802895484 606.875130439073 L 434.38348430234703 432.1224708871282 L 217.21475907648724 620.1236197611697 L 505.7939466876258 477.87826147971964 L 265.21320399000695 607.4701614228667 L 577.5035612976131 501.09461442542175 L 317.00498546403367 567.8125513631967 L 638.8733653484504 501.2390903298947 L 362.8067668290492 504.3313961482182 L 680.3788622948 481.8464838798823 L 394.4764583463472 424.06722771498534 L 695.1838443192303 449.8119324894222 L 406.8942983141221 336.8541946117083 L 680.2836267517357 414.1174328843295 L 398.81590553393136 253.78561563750907 L 637.0259469921859 384.20921611198827 L 373.05432658128507 185.46523007202364 L 570.9215707667624 368.30199560409727 L 335.9613789509108 140.33404196610678 L 490.77521842734376 371.89822361001 L 296.2968261287831 123.35017819672811 L 407.280893348836 396.7741391020694 L 263.6772483611487 135.24024888845042 L 331.3150380992998 440.60567493730736 L 246.86753230843078 172.44519505151374 L 272.2111840734493 497.2994369862372 L 252.20475084475413 227.76754796732934 L 236.30247972704692 557.9750901640385 L 282.42232098361393 291.609871389095 L 225.97323724956922 612.4355554430764 L 336.0753754134791 353.59555581814163 L 239.37503057876245 650.8789078314404 L 407.6674913237156 404.2996133473746 L 270.8512828129785 665.5646375548642 L 488.46120229248277 436.7993223344196 L 311.99543019204674 652.153935997328 L 567.8398327347493 447.7854596628281 L 353.1615887808839 610.4977406817428 L 634.9954261575597 438.04922950521853 L 385.1709911602116 544.7383645286234 L 680.6624658012709 412.26534902279315 L 400.9249931041711 462.7052063987744 L 698.6089635637015 378.1103830829547 L 396.65161125522104 374.7030631049179 L 686.6366975067695 344.86740477584857 L 372.57461439666764 291.8931434064545 L 646.9241785502031 321.75458766009575 L 332.89171902973027 224.53498433213775 L 585.6556123719675 316.26187618680416 L 285.0650460339462 180.3806681111668 L 511.9983036968116 332.7786147613215 L 238.54308747801034 163.48714510937688 L 436.5996447086347 371.7461530099203 L 203.12950513864428 173.64238106261234 L 369.8548151642576 429.4811870674206 L 187.27398920757275 206.4982260651807 L 320.2341947999317 498.70276188611706 L 196.57407213474713 254.3845991983805 L 292.94891168305827 569.6773941083491 L 232.74190610864468 307.66564238507243 L 289.1757162517397 631.792573699924 L 293.21241203029365 356.40803059581356 L 305.9681013238906 675.2964690380315 L 371.461903469168 392.07980089408716 L 336.86511808964156 692.913168687604 L 457.9872799244221 408.9935600758591 L 373.09205673270077 681.0630447697812 L 541.7851367094181 405.25148582543875 L 405.1477581119557 640.4834389234584 L 612.0862376435804 383.03381824737653 L 424.5084855212009 576.1448604926821 L 660.0578233989813 348.18338037445454 L 425.15889347245377 496.47548679544286 L 680.1913988795643 309.1574432621951 L 404.6899330131093 412.0222496314834 L 671.1460970316259 275.52500823262926 L 364.77660312914884 333.77081517200907 L 635.9086607126914 256.26437938977654 L 310.95301898594016 271.4035525722968 L 581.245268472629 258.1498374632654 L 251.72075543958562 231.78462345673316 L 516.5387061089531 284.50159184025307 L 197.13893396091464 217.92293718561967 L 452.20692077430294 334.5124272885929 L 157.13214988122073 228.58335690721918 L 397.96859888616666 403.267766583808 L 139.80035655946818 258.6077013923086 L 361.24642169743464 482.4594662056059 L 150.01515291011088 299.8880363637014 L 345.9748961399459 561.6770874038891 L 188.5394843846158 342.82546546522775 L 352.01114145338846 630.0632094889512 L 251.82050640030732 378.0264509530954 L 375.24525355109 678.0578942048948 L 332.49290048655075 397.94923313577107 L 408.3889660657999 698.9419958764918 L 420.5111352887681 398.22178567237665 L 442.30708381374234 689.9222433141812 L 504.72395196478305 378.40843695232553 L 467.6647683025112 652.5773354884307 L 574.6303740245214 342.0954403909505 L 476.61055523261086 592.5909039348487 L 622.0262043265737 296.2807342108629 L 464.20891570808544 518.8162274259619 L 642.2683643078375 250.1705789153685 L 429.37825682531724 441.82908133887486" stroke-opacity="1" stroke-linecap="round" stroke-miterlimit="10"/></g></svg>