<svg version="1.1" xmlns="http://www.w3.org/2000/svg" xmlns:xlink="http://www.w3.org/1999/xlink" width="800" height="800" viewBox="0 0 800 800"><defs/><g/><g transform="scale(1,1) scale(1,1)"><g transform="scale(1,1)"><rect fill="rgb(0,0,0)" stroke="none" x="0" y="0" width="800" height="800" fill-opacity="1"/></g><path fill="none" stroke="rgb(255,255,255)" paint-order="fill stroke markers" d=" M 400 400 L 167.29512360384754 222.19962856113548 L 366.60877912365873 277.40472038078235 L 310.3844733059184 620.1897832412133 L 201.59242761214009 516.7407975354289 L 536.8478280908566 416.58440038106886 L 607.5887347399946 602.5199372642061 L 398.25922558227376 388.1054166891287 L 543.3811785815875 141.9269997380777 L 506.3923503178173 353.6019352607432 L 162.21911084756815 341.50827158910533 L 260.70453628573796 226.74035513053062 L 403.6681636512116 548.3700942674159 L 231.61841334302733 632.0490227566328 L 423.0157696144614 393.11582813534665 L 677.8910465992433 505.1709327660335 L 455.4103246411222 489.0608782010027 L 424.0887855096532 149.53797981733746 L 545.6487452532689 243.12959561795608 L 243.5459315387296 426.8622993294651 L 149.3531634700279 268.7443291298185 L 415.19633321042875 432.62071645170175 L 335.8730805325885 691.5795198650599 L 328.5664791205472 460.3969097345759 L 657.6467467167795 387.2525732796052 L 569.2294508180574 516.5235814598269 L 347.6409256695403 239.50863611985756 L 492.1796342718923 136.97442301206775 L 359.9734015664652 426.29711848367924 L 101.2685504804769 378.70497903657713 L 338.51176248864437 345.67742396188765 L 451.0698451908164 658.902858719046 L 313.1537180774295 576.3134291231444 L 559.9977348231905 320.59503132354826 L 669.0155599766681 452.22956164669404 L 360.32581006106705 355.36207636523517 L 377.777861996823 100.87434932113933 L 438.4898372331478 341.03157035806515 L 146.03076280505732 489.8591886959263 L 221.7618438776085 342.44018146606567 L 507.15636961066593 554.633501035885 L 387.5137918377502 668.6370151719984 L 445.97072430131533 345.29796864843166 L 692.7340402443803 334.7010607968927 L 453.26201617469735 424.6185436771391 L 271.94436169824746 157.23278317399843 L 429.5565075291814 224.71349821864533 L 255.7808641611941 534.7075637488405 L 137.9031027489384 425.9988509500221 L 470.6652355132364 443.67275090965757 L 506.8213025354565 679.7227606798112 L 386.7115931061736 444.91564316963775 L 625.4060236275943 235.4078213809602 L 567.8948341012026 403.64865885209775 L 238.8787227135824 271.25455990867687 L 337.7641738933918 150.22035376636066 L 362.46106247037187 486.78524130496686 L 139.5529288644999 545.7208615099444 L 365.4245478648906 395.04541258887093 L 598.4284902074786 602.1820709224501 L 419.4576336552098 556.6343537974062 L 508.37790879159724 214.53927693526654 L 632.2322374282207 304.673005053296 L 297.7504205900777 372.47842911633126 L 218.992344401299 164.55982545403887 L 399.93135483023923 377.03905043606295 L 226.42789587341753 628.5842610987064 L 257.81200044643606 439.1846809570759 L 606.82205694729 483.45509582171786 L 524.493662184227 610.1440530170112 L 413.7347798132974 283.7574040571344 L 605.3963525467215 188.1997376323035 L 410.8363062705945 398.38099950063753 L 145.82919836058323 259.7796072505088 L 344.8993718236405 274.6762456704449 L 345.51901178086746 624.36612721799 L 215.67771954140017 549.0989158413317 L 527.9765691180982 396.4531596955756 L 637.3523786428443 571.1489706542949 L 399.69162064281136 398.9801149349854 L 502.9203695165096 125.58009897507998 L 506.865304012077 333.0684465618862 L 162.65157973277744 377.8883926737319 L 231.33455658202112 244.33630830787678 L 423.89544910281575 536.7221174725969 L 266.35591235496986 657.0749798022771 L 411.84531276592645 394.43871238355257 L 688.7089542061541 462.5913047546153 L 474.5678514237045 487.66108747449834 L 387.13625318708586 154.85383691235668 L 525.1237765435872 217.11215823743353 L 258.1631803197554 446.7428054501826 L 129.44666446926112 306.08945037265886 L 413.8366228188222 420.92401266393387 L 379.7492272854301 696.581511265588 L 331.44717106692406 478.0647160907319 L 647.2816361061876 350.45399377005117 L 591.6390435342812 493.6842897197225 L 328.60168574430725 257.20897503611803 L 453.0275659450954 122.44166606954542 L 372.3852758640988 424.6921391921835 L 102.23744632369392 423.016190430688 L 322.36325776117746 349.65534243555885 L 486.95383434663864 643.4408755477845 L 337.6796795641487 594.9706847066684 L 539.1899274992842 302.9283268782376 L 678.0517578397107 412.09084682709243 L 362.4366404705129 368.6234784546047 L 333.90977554767494 107.8320220679837 L 433.7738952713245 326.35313024871056 L 166.51290146218284 524.0542079839458 L 206.89255536298552 368.03199459578616 L 522.8993539544392 530.791104835042 L 427.8215711920831 672.1853610225597 L 431.79080216148895 348.21494852590934 L 679.9079608609543 292.14801217032425 L 466.5900903945111 419.48453210946457 L 240.20493234866342 182.5316386742529 L 403.4939792697634 213.56440426059785 L 282.4831251279967 547.974018583221 L 139.70619939225736 465.6826781567447 L 466.6165075629401 428.5788387759732 L 547.2165728319355 661.28408593738 L 391.9956876364131 457.0725182544101 L 595.6191552844805 206.86105246822436 L 575.48619670364 377.6675925760163 L 228.62413781882682 300.5389969247428 L 299.4520814905387 157.11831133552872 L 378.3857400614256 481.26973512095356 L 163.21968090021983 583.1668570517545 L 354.2134149624055 400.2737740428853 L 623.0964593740462 568.3558500948163 L 444.8631717750327 560.913544784041 L 476.88948527999776 207.79519251104563 L 620.6052230776011 268.4163415954458 L 305.0604412033125 389.07000233104196 L 185.21530931308263 192.9518711450531 L 394.8950442198681 366.5167450078164 L 263.73389820453065 648.7585055985959 L 256.53033727424315 463.5912834018639 L 609.6124389984886 450.2353350392496 L 558.0917600328303 594.2490391984909 L 396.71943556467244 293.1654302546901 L 572.8862417773997 158.7211087140092 L 420.94225662870554 393.5993614431138 L 130.67386369667116 299.9074519735477 L 321.8348915695319 276.024271065251 L 379.91248902473797 622.8325705550842 L 235.30091704518955 579.5294649173994 L 516.2078235837697 379.3316927598511 L 662.0091248868885 535.2157042175177 L 404.23058977533486 408.941396116335 L 460.7113068538326 115.86295876972702 L 503.2914610478696 311.6027500076412 L 168.79061778127087 412.82567804894035 L 204.47605056150155 267.0875622306944 L 440.73881577915085 522.3861954316567 L 304.94892199861124 676.5048908368523 L 401.7739520299369 398.81928394201503 L 692.687778556206 419.10597239387573 L 494.26751776402983 482.283529610785 L 352.34183910434115 165.7778587695824 L 499.8851373420586 194.11890151440184 L 275.2026556457847 462.8682016907337 L 115.52100763121155 346.53127320186667 L 409.4634519253093 410.5200886668783 L 423.6620459970096 694.6509838347695 L 338.2058920691235 495.91996297523133 L 631.505634964897 316.5280173315314 L 610.5882408306486 466.61906068238795 L 313.6762214936245 277.00668006641405 L 411.5732462759353 114.16493938167957 L 383.29807507089265 420.1171538948747 L 110.11303022827292 466.4858691753467 L 306.34587902220784 357.3893446302259 L 519.2666213223029 622.8655869307202 L 365.9109673801199 609.8107958177358 L 516.6699577090628 289.7111110154413 L 680.668899861573 370.4631518878317 L 367.46972922929723 380.1633536154792 L 291.75288569268923 121.55068494590711 L 425.4379846966634 312.08919620434455 L 191.7115046333388 554.010768875766 L 196.11701178923352 396.78875850919275 L 533.8910366961322 505.68135399012994 L 468.8030389184739 669.2636295270911 L 419.57325920805414 353.9961487748048 L 660.5842418109917 252.14963862691783 L 479.2529732366694 410.8735813284718 L 213.32448428467472 212.0544779687922 L 374.8140362362043 206.70701054466616 L 309.95112089199995 556.232356094051 L 147.9211930905451 505.2392088497297 L 459.7785263733164 415.7073152562197 L 584.25698151899 636.723789616876 L 400.61297383424693 468.3423945688913 L 562.1902599962265 183.7321754537626 L 578.6630322821054 349.61207950181284 L 223.57862954324403 330.0356242147387 L 262.03854039230083 170.26608361600307 L 391.80971847574415 473.0638294750404 L 192.52699785644302 616.5172089205385 L 344.0870841942458 408.6957715940092 L 641.8631664950015 531.5504167337897 L 471.81528551514515 560.7252151243115 L 445.78738950264267 206.39506168537514 L 602.9867994337108 233.7856305767404 L 314.9311885806526 402.86679328117737 L 156.20060407751296 226.4084564313323 L 386.7970051196355 357.2586668850672 L 303.28634450862506 662.6362162617093 L 259.70614262240076 489.0407446621013 L 606.9992780159539 418.03648368831625 L 589.3928339887204 572.70776852715 L 382.8045371061346 304.9671363407101 L 535.9703487867284 134.58451477091472 L 429.6168850077672 385.87835645160794 L 122.11143477108766 341.4919632318277 L 298.1997390215357 281.76461872352905 L 412.62510286411464 615.9189873266051 L 260.1497088922221 607.0587870146671 L 502.25565107283427 365.6221385536032 L 680.8418596410361 495.6040779975734 L 411.5964144892995 417.31046382691454 L 417.8776858835958 112.9274909669785 L 495.43677708823355 290.00148654585945 L 180.1969604210176 445.4090027182217 L 181.04772821038804 294.58075718546854 L 453.86021532506646 506.12508605163424 L 346.4397133091611 689.7348849594964 L 393.4553588228287 405.9227927666742 L 689.8100959316621 375.854475821157 L 513.7083799551085 472.7737528390531 L 320.574164053297 181.76316235831146 L 470.4378077237618 175.0034721070661 L 293.8576589139171 474.9714347717898 L 108.05936007507614 389.05366836903744 L 402.4653878658939 402.03442604965096 L 466.4733488104753 685.9067800481146 L 348.92032375856616 513.1645238874119 L 610.9695385631393 286.28689872212607 L 625.296961019337 435.9141452538796 L 303.0538476922959 298.05700209215036 L 368.87510845186563 112.50147763952742 L 392.11779071504674 413.0134631091542 L 124.64079621682998 507.9945754531867 L 291.24865222918726 368.88361509229514 L 547.2659149484708 597.9260206172054 L 397.1910529926923 620.1340717346545 L 493.31356348381064 281.0485820638433 L 676.6386263906534 328.4307543490543 L 374.93209480158305 389.42275657518013 L 252.3906468913936 141.64316966939145 L 413.54787222689123 299.014229127723 L 220.78695468035406 579.0695686029267 L 190.04937621366085 427.995027827254 L 540.1161310294169 480.2027422253467 L 509.36455115926617 659.7729947087693 L 409.8380181423543 362.09804670763606 L 635.2773535489964 215.73668738774626 L 490.4954659971553 398.91775307624664 L 191.86718883800947 244.88063649846066 L 344.27957840962557 204.66647261052034 L 337.27296569423953 559.5621903578069 L 162.5189447442422 543.5815933124586 L 450.7439929321133 405.534719359064 L 616.9803477813457 606.6760214526298 L 412.3687207588793 477.99334613081163 L 526.1097201562458 166.4792695005377 L 576.991090965017 320.2811588721587 L 223.56371970315863 358.8295742821521 L 226.5880811687446 189.51025366651487 L 402.304604708756 462.80767349064246 L 226.73078584598213 644.8929710126533 L 335.7507803568555 420.0574862030534 L 654.3861200074589 492.8129203668466 L 499.489741094991 555.7264501518807 L 415.9781399360542 210.05881495759445 L 579.6490115355491 201.80848561021324 L 326.6773092750751 413.4936832701454 L 132.73076280122837 264.08718974565136 L 375.9470922725431 349.94037114342285 L 343.99567885190254 669.9982624547257 L 267.5918898083987 514.6940173259998 L 599.3655346744254 387.7446267853606 L 617.4195998627574 545.9034998591002 L 372.30650458349663 318.43486303394627 L 495.5760508605885 116.46465576922873 L 436.2169475103265 375.58080245225693 L 120.23185260758669 383.4166954477472 L 274.83811622029646 292.0613673000764 L 442.80383574912 604.1109367341413 L 289.738568232608 630.7719360889237 L 486.8863350336862 355.57660216268295 L 693.293162972247 453.3117616396164 L 421.37598906201333 423.47883617076747 L 375.5464593487351 116.73074412380038 L 483.2225571729209 269.1051954813803 L 196.28446703070844 474.8313633879977 L 161.89176630370935 326.23831544572425 L 463.0775318400514 488.739123077924 L 389.7760845457425 696.332119512892 L 387.46086004067723 415.2882398779883 L 680.2531935062716 333.95734612745196 L 532.0614575251926 459.1346693781775 L 292.5812210027816 202.1268598987538 L 437.44020699257595 160.52654994903426 L 313.2993553888252 482.9459480612971 L 107.36495804917803 432.5663929970244 L 393.34916107944446 395.99873926065607 L 507.0861612824865 670.659624750886 L 363.510287718998 528.9879127932417 L 586.4472819795772 260.40685842911114 L 635.0929687083656 402.2968920184034 L 296.76027913547324 319.50918203549753 L 326.04456348809 117.62221352757297 L 398.3549479331796 403.9315228704243 L 145.37984766984226 546.4858806977282 L 277.85759395535666 383.9854189529139 L 570.3595005040809 569.4795929847853 L 430.7359834330423 625.3618629052803 L 469.98580810315036 276.88081703259013 L 665.9226661938453 287.10932987987087 L 384.2315067104401 395.95733141894397 L 216.82245263945035 167.54401134300053 L 398.32395380663024 287.88472523047915 L 252.80773653811508 598.7338044178916 L 189.17135561533436 460.8226997238446 L 541.7242993658878 455.2259962442458 L 548.4027566558108 643.8059140070392 L 402.98112925938193 371.8886541520787 L 604.6694749994219 183.83587469415497 L 499.5947886981216 383.9001874013056 L 176.22415021179103 280.01559949255096 L 312.75054169285147 207.82591544603042 L 363.581867114151 558.206121843954 L 183.28038954653476 579.6347503064403 L 440.18243762708596 398.4052777531056 L 644.5470976048854 571.9297110668504 L 426.9218434786527 485.33974668256906 L 488.4223848444126 155.37885131558699 L 570.1858602100659 290.5546650207614 L 228.24177591965443 386.0684386852782 L 194.13251741572938 214.511307347038 L 409.58183575664805 451.2057863226023 L 264.94724394097 667.5546949134591 L 329.8501786259088 433.9644593076536 L 660.5106273310757 453.2245096556478 L 526.998143270207 545.7299151789045 L 388.28860442107487 218.35298591221988 L 551.0438242166916 173.45967528851864 L 339.56232491549264 420.72189146645854 L 115.43387678820602 305.0229548928014 L 362.78887249656697 345.1652914689271 L 384.7596169642886 670.8171368000137 L 280.2804623675552 539.6647052601908 L 587.2398554238913 360.1494105943994 L 641.2666578091948 514.391043375348 L 365.3900169754277 332.80380822442083 L 452.73482622978065 104.86901505759016 L 440.1831764253144 363.19545881318993" stroke-opacity="1" stroke-linecap="round" stroke-miterlimit="10"/></g></svg>