<svg version="1.1" xmlns="http://www.w3.org/2000/svg" xmlns:xlink="http://www.w3.org/1999/xlink" width="800" height="800" viewBox="0 0 800 800"><defs/><g/><g transform="scale(1,1) scale(1,1)"><g transform="scale(1,1)"><rect fill="rgb(0,0,0)" stroke="none" x="0" y="0" width="800" height="800" fill-opacity="1"/></g><path fill="none" stroke="rgb(255,255,255)" paint-order="fill stroke markers" d=" M 400 400 L 427.7249706109106 676.0985243206262 L 606.7187805916252 358.06096786435876 L 434.6474575445126 511.9089423380968 L 676.2625831327784 283.0919390373897 L 346.80216622887 302.7162088249788 L 577.9627476735724 278.1214096820029 L 222.8235978389303 189.89201392111846 L 404.71985948966557 395.133910250039 L 180.5466174112918 226.114548558428 L 288.80885948329444 573.4805804498299 L 290.00998741036966 344.14261377247306 L 291.6283233875723 679.5571514527621 L 500.7710966455189 427.86073727298765 L 362.794813909232 617.1897398171719 L 671.3937349141888 418.9126170607903 L 400.41344792158526 413.54838768341887 L 679.9513106491687 363.2323708045752 L 354.02802813706074 204.24966366935618 L 522.4890391909071 357.94161081275024 L 274.9116256887152 127.84943351387352 L 315.3429318243842 449.7060338605759 L 267.3220295259912 218.40875173950374 L 199.6481879766954 579.6873504887103 L 384.98685346043015 386.3016218160981 L 230.15502829220912 628.3309299349776 L 568.1585039262172 500.67919163786695 L 342.32113245485425 522.7106258966483 L 682.010708777924 499.53932734683104 L 421.73824095191225 310.8727897280454 L 627.1099247168543 431.8076887619947 L 410.3917259377306 134.14190149279779 L 427.0313113567742 398.3486659593482 L 354.02196784943555 117.06433897890406 L 215.65960205410155 449.270864766062 L 349.9502336925624 267.53714389717436 L 132.7508182259745 532.8544826223247 L 445.392691515508 472.1743572835893 L 215.6428207151334 543.5248943959947 L 581.392240550194 590.244114058348 L 377.97325176716134 425.6716464936209 L 636.6860662139137 565.0896767671761 L 490.40513356039594 237.98494638516942 L 535.3803030448205 458.6613667039705 L 490.4727445685512 116.39565397701443 L 322.9681251638167 383.68400160921556 L 425.7876941085194 163.57094855773184 L 140.48262556530665 397.7783012781074 L 396.2937004821002 359.61632060399694 L 114.96004132537786 455.2925762395613 L 451.8068768757037 572.5473387054047 L 258.2146855677435 458.57432069099343 L 540.1505593607184 661.5908650177598 L 459.8992114840092 359.72666622605243 L 554.3545288542769 586.2565406676945 L 579.8459876808242 217.73041424663145 L 436.7888665102404 429.66609925992145 L 559.6583195040314 155.53294740878943 L 244.92656039754465 319.5701823920694 L 458.8088885120633 252.06613294437432 L 115.67608294706554 318.76507103179887 L 388.374149972351 464.54225530491306 L 154.89987177644835 380.8099829422956 L 405.54016158317177 652.4017790125863 L 346.4588571835932 406.56612653295633 L 464.64698234070136 686.2574683285386 L 560.4315813530582 346.44435192165383 L 467.58155289886736 550.4150436262187 L 655.2122212497716 253.0765922606453 L 365.6317772720841 352.10613928901637 L 587.290255534776 234.89803404551256 L 217.69740559742038 230.7799804240829 L 436.58162937167936 351.6906750054304 L 148.37472947774614 246.4065325991499 L 329.18779246610904 547.3614161786224 L 239.6933362105953 341.8696714147433 L 328.1102127598775 684.1601208012609 L 451.7177651421092 407.695264364402 L 387.9371254444616 653.0797231800129 L 644.5458137627377 387.1610190254757 L 410.2138083698628 466.4404612729897 L 686.5863736170239 326.023333975726 L 345.50256621591126 251.9447464808123 L 558.3146156128063 322.9819780895008 L 246.87723208496357 151.84618608122418 L 363.7811428882085 427.7022414091068 L 224.29740442095962 212.53583761875007 L 241.5700715598355 581.47926842839 L 339.82490208778415 357.2571974148863 L 253.05874377953592 658.1155011342861 L 538.9111254384919 461.60904135739577 L 343.3605797131551 572.4349307471825 L 683.108555668403 462.501763624384 L 404.5471804850053 361.3802714198403 L 660.328211770964 404.45760710874504 L 380.3773689602357 164.0119308764731 L 479.0198627116657 385.37235302599856 L 316.78289010493324 113.9702136185818 L 264.518166604215 454.6172201318332 L 313.1723483438835 234.54924338506612 L 159.54006834443862 558.7016073732923 L 420.3047531778864 424.9327299507233 L 213.21102091196224 586.0924761601368 L 579.7924746664966 547.5401993571024 L 351.8764782077815 472.3261488627231 L 663.8961851699556 539.7511232605442 L 452.8745059873551 270.2410842441642 L 584.256160795784 454.3546539316581 L 453.13546838613695 118.8302541114474 L 374.68896805314307 397.8001234412796 L 396.428382414209 133.18999753039986 L 173.22899522986935 425.8420297989246 L 380.2186225784081 308.78060538825923 L 115.40427223401923 492.3042355669726 L 453.9048120713695 522.7757877056735 L 228.20546482756603 496.95205268178546 L 563.6163928381334 632.1783337356545 L 414.0916521289567 387.79056457941306 L 596.208701660224 585.2802389968633 L 536.6157138202362 222.76001172291618 L 484.7006712825385 452.70227627122995 L 532.0755217090607 131.07033799707324 L 280.0548638344957 355.34007350137756 L 451.2991687178737 204.2905412669678 L 121.65086028652172 356.14469463885644 L 399.3331349183065 411.8557660451101 L 127.50626063260643 411.9681172261319 L 431.45142507441733 616.9407078026151 L 297.0187351919368 425.6443185887003 L 501.1747731383164 682.2970812261512 L 510.002204039377 347.64510618255883 L 507.3308571045335 577.3215252961539 L 623.3599756971927 232.17265785150587 L 396.54591149247165 396.2508797693219 L 582.9581994106447 194.01023734245405 L 226.17549194481217 274.27862247717735 L 456.4622629000679 302.7645591821928 L 126.81761364378809 276.0303822625476 L 362.98652815963584 509.513907832698 L 193.26411134919553 352.49938199401464 L 365.27489929858393 674.6570794235955 L 398.31886163328124 399.95681545697454 L 420.6730219137003 677.3524805487036 L 606.5466301867466 363.5913412346675 L 432.18154915659255 514.2501699410928 L 679.151517718738 290.2333739491468 L 350.0329386710878 302.7735803347419 L 582.0119438198785 282.0979350613975 L 228.7013453419544 185.9412833140999 L 406.04435007236987 394.08042110554976 L 184.62410053185496 220.1522769561832 L 285.0782519532569 569.5536435439944 L 290.13382415172265 340.60851962211393 L 284.5090279326785 676.625121481492 L 498.5128739174733 429.9798786624083 L 357.00899128272033 617.2788101063273 L 670.1087433377306 425.8077349483997 L 400.0735043565013 415.2342799061229 L 681.363851214031 370.37438628870956 L 359.3245894882736 204.35869304874302 L 524.9736096539093 360.64589205480297 L 281.98077075805213 124.81860649723455 L 315.48635106098624 446.74582662666245 L 271.39760019107933 214.1492388361468 L 195.66898979612847 573.9987188379179 L 384.1338130746107 384.7584884867276 L 224.02186689756056 624.3094452812961 L 564.4398740240958 504.2806645833908 L 338.5172040842745 522.5279040982434 L 679.2331076926218 506.69920783526265 L 423.6001948418083 313.0070707329621 L 627.2842011764449 437.80651577214843 L 417.1647805416046 135.27593984641868 L 428.73815859433745 398.984205850632 L 361.2363231948764 115.48982932492538 L 215.7199432444109 444.21741935258245 L 352.88078257308905 264.8978152631654 L 129.5863788633016 525.8738985375484 L 442.70059392496273 471.9286114465764 L 211.17221512408446 539.3676720137876 L 575.9002958925852 594.235580033797 L 376.2013460271183 426.3369426937708 L 632.7351573426106 571.3830428245562 L 493.86088180779063 241.49952038659504 L 535.1553332337309 462.73398401425266 L 497.6556666588839 119.01379471232536 L 324.99206851651337 382.08845582128015 L 431.9872726318374 163.29903345564915 L 141.47240389082447 391.14385316007065 L 397.22236048005124 357.872451549637 L 113.22144750571681 448.02385626435205 L 447.0046821072211 572.5206665429281 L 255.41012248755288 455.43052914046814 L 533.2741692841752 664.879514411137 L 459.53516301002253 362.15439228736017 L 550.1331468571141 590.9377154723579 L 583.8330831952053 223.01932166345827 L 437.27991801778035 431.6758529342372 L 566.1001604580033 159.39946571262038 L 248.2425551285474 316.2762899966777 L 463.14773710734994 252.31677667555482 L 118.1309889594695 311.5769451251142 L 387.053086390324 462.61439502163836 L 154.5187711456527 374.42286085617286 L 399.06026531053914 651.5484156116064 L 344.6621314830448 405.3481222379356 L 457.3420233426024 688.1609771955378 L 560.4230620849919 350.9883726565835 L 464.2383895986724 553.3943128551412 L 658.6146081055659 259.8338777206218 L 367.80012691887754 352.60406832979237 L 592.18017425895 239.16608386012743 L 222.77817737716526 226.81423813632836 L 438.83719622548415 351.3596548445363 L 152.14388219374334 239.82892920671364 L 326.07133650117 544.2373354601787 L 239.95324096385727 337.26835198928444 L 320.93491802379856 681.8709475944341 L 449.87117006882096 408.73496415715135 L 381.37655197861335 653.5806016659845 L 643.8199161309617 393.47110251710257 L 408.71151388109644 468.3055501942059 L 688.654337129735 333.3463547717477 L 349.78273606508697 251.95103369521854 L 561.4769983508088 326.50987483304255 L 253.50130486692257 148.34154639816768 L 364.4280392693957 425.7870487551491 L 228.59472931726597 207.44029702640648 L 237.64291375295102 576.6104550630716 L 339.6390711697047 354.74901224694275 L 246.35900549639553 654.4557769148233 L 535.9711485666872 464.53311943171843 L 338.5018357234134 572.1819194225076 L 680.9863252453041 469.64609331960827 L 405.29986669848205 363.16089195438434 L 660.9584424439704 411.17673140993384 L 386.50314586330035 164.6203616949903 L 480.96839877660943 387.15263384858923 L 324.1058428751623 111.73954676159968 L 264.53845266451856 450.60530335726287 L 316.86965571933877 231.19645777871173 L 155.94560847474796 552.2239772758007 L 418.63531343874035 424.1223609070746 L 207.91426474707671 581.7830717455126 L 575.1381504317073 551.4113904646385 L 349.11007294167416 472.38217276502877 L 660.3569731987141 546.5585266709157 L 455.5919887924875 273.0058620552768 L 584.0258431978699 459.464514716585 L 460.23069920897865 120.78562423958027 L 376.41928435737475 397.3388365052284 L 403.2904291071185 132.42191586468067 L 173.7309476577391 419.914207809854 L 382.26937173290816 306.7340528766881 L 113.01393638041503 484.99933452986147 L 450.1642550206359 522.7250583295302 L 224.65615223410938 493.1012552695431 L 557.2974869230788 635.8493027161263 L 413.10397357575016 389.22279375851105 L 591.9041192160188 590.7725400870657 L 540.4135035151636 227.19861719636762 L 484.6427188534492 455.7312636695319 L 538.9753559969287 134.4789944858167 L 282.6543854238148 352.8425983655395 L 456.65260851388757 204.48281260079 L 123.44074196132675 349.1165975213798 L 399.1663437267295 410.1597993756304 L 126.59295599306648 404.97941989138485 L 425.7342872866407 616.5333219463903 L 294.8602005637213 423.331790758141 L 493.90566357844386 684.8427839617723 L 509.90447108262003 351.1125059067533 L 503.3429979688807 581.0722832064404 L 627.0933389581663 238.32157159093921 L 397.75055790111645 397.42895295252515 L 588.6391375868373 198.29348554152355 L 230.3984516665554 270.571622552113 L 459.756925365451 302.9203029720171 L 130.08676725733517 269.0540336926536 L 360.7215917473557 507.06872409430446 L 193.4035226173971 346.9110924965728 L 358.3317732886342 673.0300355795939 L 396.64110269326363 399.82732150406554 L 413.5745007531029 678.4172085480733 L 606.2210471144724 369.0860529098846 L 429.61705484138037 516.533963177154 L 681.847040072563 297.44929266958604 L 353.2266985735733 302.93489443040085 L 585.9678259638883 286.2060127823893 L 234.67007158541364 182.16036499329044 L 407.42507227675304 393.09270324380066 L 188.86998425675154 214.29081245337332 L 281.47928513350587 565.5449598452151 L 290.37091618159053 337.04638038387384 L 277.47267793953574 673.5032733225885 L 496.21020224266715 432.0006980430233 L 351.19572764813336 617.206446150055 L 668.6406258899394 432.6483472209112 L 399.6472533566191 416.9100622829826 L 682.5849933781897 377.5654407761461 L 364.58618324471445 204.616012718485 L 527.3951672226787 363.451473595016 L 289.1265340987217 121.98002711096746 L 315.7277424850453 443.82487535209395 L 275.60873372469985 209.9858194598503 L 191.85599643376932 568.219249736074 L 383.35140792302815 383.163767898996 L 217.98914855832317 620.1163842211661 L 560.6428132633373 507.754597900438 L 334.6870923794871 522.2260675492719 L 676.2651804155942 513.7785396615463 L 425.3663376533032 315.17989022941606 L 627.2923610626143 443.83378351926484 L 423.88572691358235 136.59027788252166 L 430.42818627893377 399.70636533725315 L 368.5022508307038 114.10852275502447 L 215.92323360251604 439.1985284540925 L 355.91556650922695 262.32683556397666 L 126.61268348615249 518.8147283743709 L 440.05031528487564 471.59082613066244 L 206.80013066928737 535.0708681336133 L 570.3179813699261 598.064614964895 L 374.3822518935948 426.9265423162494 L 628.6097184610081 577.576628650934 L 497.1931207682642 245.08887392405143 L 534.8054180830654 466.83125051689797 L 504.7605464670835 121.82240829689039 L 327.048451717249 380.5864700753079 L 438.21653802843605 163.1976639308842 L 142.63931263968271 384.55924088488615 L 398.2382639475543 356.152064480927 L 111.67749065525709 440.7009892513373 L 442.2369216683003 572.3565616255136 L 252.67898307823384 452.1793660287852 L 526.3174144770837 667.9792499762281 L 459.0849441532999 364.5374227780498 L 545.7681826519387 595.5182958479386 L 587.6616633610187 228.3977961768408 L 437.6900353232589 433.7286579320204 L 572.4431678442631 163.44322436734754 L 251.62935181675851 313.1019719611792 L 467.51002750204543 252.69814100764475 L 120.77614704471773 304.46427056799564 L 385.823604994031 460.6603586705587 L 154.31237233845383 368.0045767933099 L 392.62808059031886 650.5214222574587 L 342.8954766239566 404.04194326742765 L 449.98032669606107 689.8687893508524 L 560.2827774444596 355.49777626313875 L 460.78453645030265 556.2953623307312 L 661.830223566939 266.6730959362877 L 369.92059860435324 353.18238770025494 L 596.9677799941936 243.5816725853513 L 227.94737129733477 223.0029786060895 L 441.1319538095772 351.11496053857263 L 156.09272250319796 233.34894538519075 L 323.0706393382658 541.0467456403961 L 240.34955997141623 332.6444742441738 L 313.8324245862026 679.3921146638634 L 448.00480385156584 409.6847748934537 L 374.78313130350864 653.902912862774" stroke-opacity="1" stroke-linecap="round" stroke-miterlimit="10"/></g></svg>