<svg version="1.1" xmlns="http://www.w3.org/2000/svg" xmlns:xlink="http://www.w3.org/1999/xlink" width="800" height="800" viewBox="0 0 800 800"><defs/><g/><g transform="scale(1,1) scale(1,1)"><g transform="scale(1,1)"><rect fill="rgb(0,0,0)" stroke="none" x="0" y="0" width="800" height="800" fill-opacity="1"/></g><path fill="none" stroke="rgb(255,255,255)" paint-order="fill stroke markers" d=" M 400 400 L 417.36600780719266 605.6106127268497 L 695.3212279041259 349.755524934876 L 342.83729558167613 178.70284778351288 L 369.55902762559174 410.666912809149 L 325.6805357252979 234.15897111907935 L 140.94890041266217 543.3975379441532 L 538.0130742288358 606.2045305755071 L 450.1093059675583 359.96639714026344 L 506.60712222855824 512.5368658242338 L 592.4587104043962 184.15742261703997 L 188.21188085885925 241.01731055584722 L 349.4175953412745 480.73969954340544 L 287.52779867043057 342.10071499925044 L 293.6594523044028 657.860177570198 L 665.4320219053525 484.11476139084414 L 427.6671915263007 277.78311621678864 L 495.596570396261 413.3122630103392 L 414.35407463778495 134.95430405790967 L 111.29748712637627 408.7089122848258 L 417.5692877250393 552.8839021656609 L 335.86818949746475 412.9119128882583 L 469.47747651787637 638.968880847901 L 676.1535685255292 293.77902798243724 L 321.1700885209298 237.41614398375626 L 428.85821162064195 382.86897372776133 L 266.7091497367177 213.28695785666255 L 171.7568324207176 593.9076044930438 L 545.6816298221675 544.7798926401846 L 399.1567296993694 401.00517188184034 L 569.4582140727613 519.3915786371722 L 551.3480400828237 141.40086041298986 L 194.49232066897616 301.92942518847934 L 389.0680676433087 428.9561637426003 L 224.17934271203737 350.0639745934377 L 343.3228981984863 690.8288247235953 L 645.9420775532635 426.7173220237017 L 401.50508753319406 337.16274894383787 L 555.8528544664064 390.5886162224738 L 358.2869243574898 113.48852620880842 L 142.68623639260704 459.932043954817 L 428.96192523260106 489.45944437704406 L 282.25977455788694 449.41319973354155 L 529.4248956624508 647.6239124663706 L 634.6228145538514 250.9752856921568 L 324.8730227243336 301.20356330382265 L 472.5610770324146 334.4867739929311 L 205.72731019281156 218.23918944731903 L 221.34073946694502 626.4939899714936 L 527.4764779053817 484.1789092007584 L 368.06076620017404 458.55409622896656 L 628.3982497560942 500.65544382456835 L 496.0391585999195 120.37475878798529 L 225.7956745984936 356.15369091752547 L 405.6339498732455 365.59481959325007 L 170.44932365946025 382.0467066459951 L 401.85903101226506 699.4064039213484 L 603.5939590499293 381.53050808902907 L 400.4561759696432 402.58411939013905 L 601.2945587996594 346.66873038233456 L 299.1374809626969 117.78788173905866 L 193.5644299151228 494.05484929109866 L 414.5182028539365 425.8474126746433 L 247.88199201891914 503.18618783903133 L 586.5066392398927 630.4974438134552 L 578.0009352008373 229.26877253686146 L 353.7905114662026 359.30893512666927 L 493.62448872465717 273.652143079258 L 153.40188456962724 247.6332193716185 L 280.81796183300787 635.0925070616555 L 485.99416927970265 434.8405105428792 L 361.8315177610033 523.0930102685819 L 673.3535364997299 460.09943463124785 L 436.5604806312399 124.96568730042264 L 277.2205729629829 394.11496015618377 L 396.40061060244074 301.06557283103405 L 135.29081036076371 432.0866436092866 L 458.61854490224187 682.0873512327366 L 545.3370562761612 356.7644533504216 L 424.797438252522 463.29278557557905 L 624.5580987784183 289.3941736283309 L 247.61859425520768 146.89811377178748 L 255.29862891689726 504.6619015819917 L 376.4132552086986 372.58353328751235 L 238.1232413663765 564.9204606883567 L 630.5070032087092 590.9536704631439 L 516.1533559957464 232.94452008506158 L 403.4093016664607 401.96701543033714 L 488.9175458061823 210.65690581422623 L 118.91671787349662 295.8708964171375 L 339.60756164902836 617.7726649983078 L 427.8496055617933 405.2480974633706 L 381.17828051625213 583.8875907295692 L 696.6528561332682 405.262758224472 L 383.6546033157161 154.64868920939242 L 340.3969930191399 409.0558394030893 L 363.11762917240867 245.98309535444585 L 124.46073168081051 491.0980415051979 L 503.259440621055 641.8244877319436 L 480.8581099913645 357.0968336379301 L 470.41196192503804 509.34965599735904 L 622.1023564226276 228.92170460112544 L 213.1304073052301 195.59314658512343 L 317.3926642452226 489.39999544018303 L 320.91575396120106 338.41075263679903 L 254.12325770271946 623.9199062253597 L 653.4596614701127 536.2183838683028 L 459.8360842195902 261.90825327626226 L 465.63727536985937 422.08891004660154 L 459.7617686492393 156.17654319697277 L 108.3873762352573 354.10487479029223 L 387.2567989104394 577.0710838531686 L 362.53451021818455 400.46526855631055 L 422.38727923708 630.841980052811 L 694.3515251891008 346.151300886929 L 346.9238546475891 204.57777260244802 L 404.93075010843285 398.2031487990666 L 311.6967377833644 209.33490149426513 L 139.52633445094676 548.4401360724892 L 527.5323622092553 585.5193607045285 L 420.90938554069135 382.86529089088674 L 529.4995073433209 533.3462967975643 L 594.8196870378365 175.97003205622062 L 202.13760663236843 255.27722866859483 L 369.29926859739044 450.3845582500076 L 257.306034384681 328.7703524364658 L 292.57663009023116 669.9489498940013 L 651.0228691562357 476.13157608478394 L 418.83911953510085 311.7024212355927 L 530.1999879417383 416.48553891705495 L 411.70276858913275 119.42762699733532 L 123.80548943235249 411.7659537790379 L 415.2454754978303 519.5538608439027 L 300.7793420221219 421.2618316240948 L 477.96285534578794 656.2412158439677 L 666.9122372095585 293.5103083850912 L 333.172661940303 266.42223438999565 L 460.1973697467756 363.2466770037591 L 251.19134536972143 196.93028020338767 L 177.5948021272692 593.7540079179773 L 526.7047301365692 522.8310154847109 L 375.45293421203667 430.00897737322987 L 591.922844488198 531.6834310550618 L 547.8816836129247 139.96957395848074 L 217.05334845240617 315.46869779812823 L 402.24052367562985 393.8347464522838 L 196.27438590317144 344.862955380565 L 346.3035791033785 694.9993012130938 L 623.229044572144 421.4488208891507 L 400.29660861241894 374.2753557204349 L 586.413891962906 386.4179639182909 L 353.5528116265708 106.57706625715298 L 162.6949053688204 458.38761860757654 L 418.456706221771 454.683426860256 L 252.70139467885792 463.9809550325086 L 537.9214350676659 656.082706700201 L 619.1251696989052 256.9694476527105 L 345.2328578910707 329.8044625357308 L 497.1757073779517 310.0475953066625 L 192.23378377192125 210.397806928625 L 231.81270358483954 618.750802316064 L 500.37785661247625 464.50881124988587 L 351.9412541218022 490.769309965159 L 646.95747386959 505.1919534356362 L 489.8463210818509 127.43457911472586 L 255.82250231294196 365.60926108211004 L 410.7229018911512 329.0002111928585 L 148.07597148471714 383.44149753460516 L 405.48947375475564 694.6722625084316 L 574.4793472479664 381.9846234737628 L 407.4554215093434 439.37079581274264 L 625.0301775237301 337.3795903319527 L 295.86953564984117 119.6777395314781 L 218.53900640622993 485.4128553647686 L 396.0602526721104 393.1854806635358 L 226.05873194522874 521.1703894929616 L 591.5149307522076 630.7669335504723 L 559.2811457640872 243.38042370302063 L 381.474683767905 384.091043047361 L 510.00482179893066 247.6268604583126 L 145.20001720073722 246.90447071297288 L 292.54906404479686 618.6426457880158 L 452.5560038111372 420.5370470457773 L 354.03111908919055 555.0289800946166 L 685.1427189073422 458.9892693498198 L 431.18059295175044 140.8385932600355 L 312.2761469438909 396.8864970367418 L 393.48539709917395 266.56478011217513 L 120.76084813621571 437.3719015864057 L 459.3791394121678 668.9380047693644 L 512.7841878771427 364.91820809888816 L 439.1147011361328 496.2979384184091 L 639.8309707952382 278.1478353896158 L 249.1334040798883 156.31422928080121 L 281.9054301494563 487.6713724923117 L 351.65595093958996 345.19787791726947 L 224.9113397091479 582.8688074848117 L 629.0861055790928 585.0281572645135 L 497.7405678635833 255.63408946004046 L 436.0878936708648 420.228015649149 L 496.9953763939671 186.60821410791056 L 118.41859750775205 299.6448968155854 L 349.0578527322595 592.9692743325365 L 390.95546502548257 398.41164702865404 L 380.9525764983638 612.0580980088995 L 699.9146798272025 401.59575547476425 L 382.4536424277592 178.18737115320548 L 377.19613024821797 403.75500454649637 L 353.7170911888144 216.80258954310247 L 118.7845978296802 496.86467519635846 L 498.13350859214154 622.140754914655 L 448.380762744915 373.55417528957054 L 489.83312303623813 535.7764930524615 L 628.7023772370509 219.26895181702272 L 221.93847879421565 210.0198068106508 L 342.07406096993225 464.2722511837934 L 292.6524766450978 318.5209881261199 L 248.9205883456939 638.3252301717231 L 643.7356541663291 527.1170929015267 L 445.1451345383154 292.1612227651037 L 500.084439641462 432.30350175831757 L 460.92099419277116 137.38452671819238 L 116.73301067553285 359.0162219030393 L 391.33293157848476 545.6776920754414 L 325.6729254985715 401.8463596746555 L 427.642028937435 652.3660761686489 L 688.7391911554338 343.46384611664945 L 352.5122648471275 233.36295274971062 L 439.90594392294076 384.89363897944185 L 298.50660322912086 187.8049299889757 L 142.23938248907734 551.1648528735832 L 514.5281451351572 562.2489990995049 L 391.9662346525295 406.75194686631016 L 550.8680911713336 551.5382731587405 L 593.99915565278 171.23753525072175 L 219.50879619494836 271.39269355219585 L 388.887290925219 418.75794762515795 L 228.98867620851715 317.2715185806105 L 293.40792235143425 677.854758102377 L 632.5132505960514 467.37662614249007 L 410.5810088652875 347.20313963600125 L 562.8496680516105 418.56798557405943 L 408.53927717002347 108.32398628996555 L 140.66556244620887 414.2758310040163 L 411.83528931559783 484.4411106724217 L 267.4429519727235 430.1317889418328 L 485.6164288133355 669.3396053396546 L 653.5492273594474 295.1736342976264 L 346.9537010527276 297.1795138483003 L 490.1133180182595 343.4336105649808 L 237.61844969370583 184.08386219505257 L 186.8381476361979 590.4085868825318 L 505.20046589361203 499.480121573364 L 352.85152413258373 459.1224801937884 L 611.684758725199 541.4088795353132 L 542.1380781896207 142.68494384733083 L 242.79642918054367 329.71892507240545 L 414.5031836654456 358.4930652297634 L 171.41817043376884 341.17216351865653 L 350.16264696898463 694.5102950904379 L 596.9269815324424 416.4564121123267 L 400.01048709954097 411.8054343754076 L 613.9742813051 381.73614154473205 L 349.42516491967876 104.3257547705806 L 186.3271216267946 455.3958204916084 L 406.79442964986174 419.33472462954256 L 225.78537890026 478.2578925393368 L 544.4376944754891 660.3839986669491 L 600.4112577270422 265.60643806739404 L 367.1593270851978 358.9687449334536 L 519.686492368075 286.4180738149938 L 181.80752358265005 205.79362819286328 L 244.65470119990835 607.3259280296743 L 471.2303816698343 444.5368749045543 L 337.3543779090552 521.9582976225898 L 661.7744076276344 507.6827707366078 L 482.4901649378485 138.88932011383326 L 288.31691519016243 374.8217014319965 L 414.74893444507694 293.3933984730568 L 129.65331836045658 385.59968933353053 L 408.85938272786706 685.2817153976516 L 542.6832330466958 383.47452792680946 L 415.24287118428987 475.3633209457193 L 645.0508570237884 328.5181109875274 L 294.31800230583025 125.97439473548764 L 246.08829999034768 474.7940952379775 L 376.85928582628264 361.0968917850262 L 207.36236379085767 537.7788033262873 L 593.5145804996939 627.3709007640992 L 538.4781396865278 260.41158587945006 L 410.0560314096024 408.42111211544585 L 524.0575695567495 223.5864861743543 L 140.96262380351686 248.70424649276688 L 305.4919252646464 598.4958857596242 L 417.9541350735941 406.7600776545998 L 347.7090808184221 584.7363023689282 L 692.468323255301 456.7269810862281 L 425.7630003674129 160.8643944541276 L 348.75045657309056 398.81801458899093 L 389.841010751931 234.2146230865259 L 110.68890463589162 442.38315593375165 L 458.8405263951999 651.6154905318086 L 478.7019282038078 374.44348915073033 L 453.6221788805692 527.4518402786812 L 651.1248345136195 268.461132482584 L 253.26762252329362 169.43901749929046 L 309.8962190147919 468.64330178759724 L 326.9863096768058 319.2758498725211 L 214.82869398164587 598.2707002992647 L 623.9309881117218 576.3150845339962 L 478.4092876509484 281.03106344807696 L 468.6464675072674 437.3651872092506 L 503.0107221716851 165.6935630649641 L 122.39947314450677 304.9318489474581 L 358.64195892491193 564.9371363339749 L 354.04346794799045 392.5163952826285 L 381.68100155686335 636.9339856054456 L 698.4340783496899 397.88188713923086 L 382.15235385167927 205.1843486392995 L 414.2051224911586 397.4793480840944 L 344.3476728735452 190.69601517046627 L 117.59489227744166 501.2144962184458 L 490.9560544666176 599.1650848448303 L 415.57709138986223 391.2323095102481 L 508.48559467578673 559.6250285295725 L 631.5495193651009 212.30146785510416 L 233.8994431826732 227.1345602884843 L 367.0095814566309 437.5316675028985 L 265.5840516143626 300.5818571766894 L 246.37378886524073 649.1310916113141 L 629.985137997154 516.3361226504232 L 430.530805985997 324.45037417015175 L 533.2166570726513 441.17792370408915 L 460.7192049861104 122.6529880587234 L 129.59786052940797 364.2996985450865 L 394.7345337663898 511.93241912706947 L 290.0090596250878 404.0994832006865 L 432.95250395345295 669.8455362603645 L 678.5959582995606 341.8487571892147 L 359.5821460717847 264.5749689120039 L 473.9240160059684 370.96158382585713 L 286.400343637538 169.87960464644758 L 148.98661909268407 551.427978842661 L 499.1431076495201 536.8152031507141 L 363.748455405954 431.2437588212334 L 570.3135300109343 566.8734988566482 L 590.0975272015263 170.11109156729856 L 240.0980306574539 289.03105194377684 L 407.85256372987095 386.3616806781092 L 203.0618823185773 307.7291879205702 L 296.0344507199754 681.4089422341729 L 610.1739346776847 458.08415567395554 L 403.0531585049622 383.718616254357 L 593.0125041039812 419.5824563238244 L 405.0247836685852 101.82628522694637 L 161.6008846483494 416.0949679617514 L 407.35442782762425 448.11693120059454 L 236.38655171465945 439.33416145303477 L 492.21361300467777 678.0843818382286 L 636.3206566950296 298.84240284098405 L 362.33655404188744 329.16905212820166" stroke-opacity="1" stroke-linecap="round" stroke-miterlimit="10"/></g></svg>