<svg version="1.1" xmlns="http://www.w3.org/2000/svg" xmlns:xlink="http://www.w3.org/1999/xlink" width="800" height="800" viewBox="0 0 800 800"><defs/><g/><g transform="scale(1,1) scale(1,1)"><g transform="scale(1,1)"><rect fill="rgb(0,0,0)" stroke="none" x="0" y="0" width="800" height="800" fill-opacity="1"/></g><path fill="none" stroke="rgb(255,255,255)" paint-order="fill stroke markers" d=" M 400 400 L 398.8710751180754 692.8088313998387 L 527.4310812749221 400.9826360509067 L 397.2547670618327 637.3339442182354 L 630.7049268191103 403.5581972085829 L 397.3604627120706 536.9068799839829 L 690.2492790488025 406.7155038090213 L 399.7145369985418 410.57468903708343 L 694.7905861972465 409.09536372613746 L 404.0860307362458 282.291982385089 L 643.4909818296528 409.3924062033659 L 409.4897655594641 176.37333446842393 L 546.1029532939234 406.76439547056924 L 414.40292118491124 112.87921888011374 L 421.11313150085687 401.14072633562273 L 417.14833013755305 103.81210789462904 L 292.228909362011 393.34340159563027 L 416.35384769320376 150.8448981392639 L 183.87639353190525 384.97718114055453 L 411.3738617419031 245.0120925734658 L 116.56564399713454 378.10105655540656 L 402.56241735488584 368.420779060029 L 103.0036758695826 374.748002091815 L 391.3176092899057 497.65451403426505 L 145.69275444605785 376.40115923986514 L 379.8677271979397 608.221811436236 L 236.46846337423878 383.55205341221694 L 370.8300623088113 679.2031458837911 L 358.062869395663 395.4550704935699 L 366.6296636575012 697.2137006983378 L 487.39318127484216 410.1536057598738 L 368.90445372133723 658.930306836562 L 599.9488571622935 424.7947094746196 L 378.0351746647509 571.7049399078209 L 674.4423659006792 436.18315256552444 L 392.91955593714573 452.1514519400254 L 696.8400920426673 441.46725018467254 L 411.06262622548735 322.977469296355 L 663.00919840645 438.81112627206437 L 428.9884683448405 208.6662713529298 L 579.4806327568737 427.9009228659234 L 442.9068454631701 130.83075473035314 L 462.18733146483925 410.1589604271807 L 449.5067197965304 104.1221801301823 L 333.4215914805784 388.59595100931597 L 446.71187141102325 133.46909000233433 L 217.593292933175 367.30626956366257 L 434.23100511430806 213.16734666651175 L 136.5970393903944 350.68959415785514 L 413.768334894663 327.98939450760315 L 105.66855169687722 342.54705895698396 L 388.8252937841566 456.09693017828533 L 130.51544139961982 345.236668109869 L 364.1074046331128 573.1992526544791 L 206.26333721561832 359.0717230035489 L 344.6355258565451 657.1645617238783 L 318.4120678162651 382.1056722787305 L 334.72953565690614 692.2077661407393 L 445.61434075390895 410.37367773901684 L 337.069548824895 671.8614304401738 L 563.7438830132301 438.56915095066415 L 352.0355136104836 600.1700392647579 L 650.4768901261936 461.0410558636586 L 377.4793416835482 490.8869204146214 L 689.5157604961355 472.92433234731635 L 409.002294765407 364.83312520303497 L 673.6550145545073 471.17770210250046 L 440.70953509520393 245.9259526635849 L 606.1119653091237 455.31003375937627 L 466.31363033749085 156.63550937293485 L 499.876254959936 427.6290683465315 L 480.3802157085923 113.7334180766594 L 375.2093837641022 392.93586516918873 L 479.4692248045464 125.13897216396606 L 255.77600298122655 357.69801024720283 L 462.93408701134825 188.4564917884739 L 164.14648367731 328.84274619106316 L 433.19939250365775 291.47418249212694 L 117.52649883793481 312.3954535799872 L 395.4349919414217 414.52135886228183 L 124.52256855446245 312.23103407541 L 356.6630932825717 534.2286531615616 L 183.55230689522037 329.195298880738 L 324.4513436086287 627.971627354674 L 283.1931969620742 360.79036333323603 L 305.4353517969971 678.1518576702065 L 404.3944679420146 401.51293476355363 L 303.9591814161513 675.5044385314383 L 524.1234714848754 443.806865089888 L 321.1110579310454 620.8095684542652 L 619.7478838333161 479.4663325412072 L 354.36393684856057 524.6918311104087 L 673.3190001435014 501.22886344078364 L 397.91811448934754 405.5552565129575 L 674.9445132254411 504.2487625569521 L 443.706660265774 286.05569482957856 L 624.6162637136513 487.1530146363458 L 482.89062469405746 188.78736666186904 L 532.1550516349224 452.45328271787844 L 507.5666761650152 132.0057807477122 L 415.2937142814949 406.20711340082113 L 512.3570041132548 126.19763908151623 L 296.27273383401564 356.9666756659956 L 495.56239350468286 172.14296108133274 L 197.60260656649427 314.19620025992515 L 459.6343529815046 260.8277552885526 L 137.80132714365038 286.4511693808477 L 410.8483174266721 375.2123632432503 L 127.91509014528509 279.66988501804286 L 358.2138621933382 493.5085854887331 L 169.47667397338336 295.91804278702375 L 311.809881958927 593.3347296521318 L 254.27908584656183 332.8491171562258 L 280.85255506080205 655.9553039876272 L 365.9952844516886 384.0109701969348 L 271.8668300974079 669.8012841147336 L 483.32447307053076 439.96663263545986 L 287.3238755833047 632.6087618419085 L 584.0581294212955 490.0358947229601 L 325.02685746086166 551.780374332872 L 649.2887519187587 524.3361195113979 L 378.38918985564277 442.91372736141705 L 666.9627680927456 535.7318822279053 L 437.5785865017273 326.7890223151582 L 634.1092123994742 521.3089919324625 L 491.32955300557154 225.3981275805008 L 557.3318300110521 483.0701788721809 L 529.0900395863483 157.77474333910936 L 451.484654670939 427.69331681459687 L 543.0927370536474 136.41723739458018 L 336.7961524986504 365.37199159658473 L 529.9444740323388 164.97721128740073 L 234.99910213442035 307.93833063688623 L 491.40993519702914 237.64155115669857 L 165.2074427371739 266.6139282469645 L 434.21438564766254 340.3111982764149 L 140.323267197598 249.81687864053686 L 368.8768844055081 453.3383918072408 L 164.65014617708653 261.45355755258913 L 307.77498965995176 555.2906692543022 L 233.1545737206689 300.0406243244819 L 262.79714610196584 627.0197843039318 L 332.50109458334714 358.8498842687044 L 243.02854934348704 655.2621480804798 L 443.6493444291509 427.074301964958 L 252.92113346155026 635.0930211259298 L 545.5070370642968 491.8145608807466 L 291.31538666770734 570.7800426071781 L 618.9373469976792 540.5208783014452 L 351.52503807698525 474.889240624785 L 650.3584142339901 563.427291651188 L 422.49409798662157 365.82927061042665 L 634.2571439790386 555.5059530906816 L 490.8275440620386 264.31390003178507 L 574.1517119185573 517.5510414101295 L 543.3225675480364 189.42318465601795 L 481.8357195682549 456.1618337405402 L 569.521480449539 155.01320189533885 L 375.0642706876173 382.60287762355597 L 563.7922851906064 167.15070336880524 L 274.13593491668826 310.7365678477821 L 526.523467516864 223.04797719321695 L 198.0292022141196 254.40765704130635 L 464.18220024130545 311.684015165931 L 160.82965497732962 224.7737641556178 L 388.19997433208454 415.9765570927526 L 169.12125345086224 228.09704035300805 L 312.8760510455205 516.0771078050273 L 220.82522935979677 264.43374995546037 L 252.68331472191701 593.1528148461208 L 305.6905043071303 327.4937995132809 L 219.48473275388832 632.9337893587997 L 407.32433132447983 405.72142590647775 L 220.19627757653646 628.3569182467469 L 506.3612317660741 484.41306342528776 L 255.35656366837867 580.8159812850051 L 584.1571692311347 548.4841873817585 L 318.8972408377027 499.79760737586673 L 626.3034585345382 585.3638768391331 L 399.18183672005 400.99104402967413 L 625.2973487583905 587.4611015580248 L 481.1369745912424 303.24787053780506 L 581.8739261853252 553.7189020326011 L 549.0855988003486 224.9811870919108 L 504.763643004829 489.93970690604226 L 589.7490555677501 180.69282913831702 L 408.94099525934746 407.7964119571627 L 594.8425370544185 178.28436507190764 L 312.7149559122889 322.6959121746976 L 562.7564911562082 217.6508712560954 L 234.2267883320813 250.88613811360403 L 498.9839048776565 290.80704210464796 L 188.02587239225934 206.3504274201354 L 415.1892602024034 383.50161062607754 L 182.3706272809508 198.08349275829443 L 327.075017427948 477.99463311343607 L 217.75563802292106 228.2798437713841 L 251.43586051448273 556.4562077009817 L 286.92700401295275 291.79862691167284 L 202.95394221811227 604.3347997049625 L 376.3623610177977 377.028988875542 L 191.34734888693754 613.0580887789887 L 468.91483413661774 468.0123716479324 L 219.42590196147387 581.5646374534919 L 547.1038807164749 547.4338340033086 L 282.442578009157 516.3933381783248 L 596.4208095421559 599.9210771845112 L 368.8855697688011 430.3348011846501 L 608.0231645262423 615.0218861692599 L 462.5810522740191 339.92126647736575 L 580.317185559799 589.2829044232842 L 545.722597793686 262.24759185641835 L 519.1457423813583 527.0167868223313 L 602.2592007483195 211.7351917023953 L 436.56767009136405 439.5908507566862 L 620.9965213102791 197.45224694958216 L 348.48156165265493 343.3521509690505 L 597.8116875574547 221.4885728306221 L 271.5620750414876 256.5676651686232 L 536.5437641792454 278.6758248581615 L 220.09965071223888 195.95293753469812 L 448.3702845384438 357.68413739366946 L 203.34331084952174 173.44963566220142 L 349.76845104163726 443.26495213736746 L 223.8410631750852 193.87378078680788 L 259.4328063420565 519.1963836769119 L 277.0751653014453 253.89764970703717 L 194.72658755638105 571.3617578228345 L 352.43910285105005 342.57846198136895 L 168.34117634818438 590.3763928579444 L 435.3480548865333 443.3528290466414 L 185.8069365340743 573.2733975751792 L 510.06341505626324 537.1335516308155 L 244.34361952763547 523.9461653959869 L 562.6839980740222 605.9291607950336 L 333.28766708198225 452.2862650059574 L 583.7347668196605 636.2990037474905 L 436.0341764072001 372.20381218187214 L 569.8705476442067 621.979706334379 L 533.1399905376148 298.92580995117805 L 524.3888633951984 565.1696691749871 L 606.0074131531106 246.09746253271823 L 456.4774940358468 476.2094311133266 L 640.4497941419191 223.23891206236948 L 379.3636566648581 371.7001985742083 L 629.4546818501926 234.03188086260477 L 307.7367164623283 271.4027363327011 L 574.6061501570074 275.74412634488647 L 254.9467908704756 194.49650231474703 L 485.8787632376833 339.8777955178714 L 230.5141063144985 155.90804861335783 L 379.82445576281094 413.8939605867643 L 238.41423097850526 163.41230593157871 L 276.4817455329781 483.66454038509477 L 276.44762179691025 216.06998383254253 L 195.5850165048863 536.1720729209425 L 336.7898433225474 304.3144394958573 L 152.79182615219773 561.940863542675 L 407.5928270571088 411.68877488569103 L 156.65026545124064 556.7450026486927 L 475.3109443134172 517.9179269467645 L 206.89414235951773 522.2857757361301 L 527.295275590653 602.7416903419571 L 294.40551076037264 465.73329045253615 L 554.158696004984 649.7831689639024 L 402.8682875543667 398.24501344540727 L 551.4690901180949 649.7131948492187 L 511.8132680206718 332.7655098758108 L 520.4656526316736 602.0987998482399 L 600.4856896401502 281.5410894018645 L 467.68575609997004 515.5697876117291 L 651.8037127216943 253.82701835088272 L 403.5993460399681 406.2558107252898 L 655.65197359847 254.21702419920945 L 340.5339402487388 294.7767779912164 L 610.8746379853994 281.89625451758013 L 290.301121855657 202.3487032636413 L 525.5754040167146 330.93606322852395 L 261.98192725801056 146.74129888176978 L 415.6522164499145 391.5481370649579 L 260.2868186217611 138.85842226888462 L 301.8313824418962 452.035302630971 L 284.78610470089785 180.60003033953703 L 205.75494550820616 501.0507459534675 L 330.1335377793024 264.42486340927155 L 145.86080658962513 529.7289499006583 L 387.2137658005186 374.71144933995214 L 133.84078250660224 533.2877027694498 L 444.9705208481378 490.6720872579622 L 172.35767572061113 511.8119935580122 L 492.5496113454864 590.2757082341948 L 254.46722669268772 470.0942138407775 L 521.3410863195893 654.4384469847981 L 364.8685158743176 416.5881708681449 L 526.5359013471397 670.6838948519654 L 482.75798026739176 361.70144049342366 L 507.91592030404615 635.5702888226527 L 585.7541721782654 315.7700348653814 L 469.7503209757337 555.4122321163422 L 654.1519437121071 287.1096899089803 L 419.8454801346447 445.14686621069274 L 674.6964849625831 280.511610136117 L 367.9552972524128 325.54773170923875 L 643.1536295270564 296.45452545187516 L 323.8744421203719 219.30651255832123 L 565.1777005808092 331.15985148033246 L 295.5873348479524 146.7225923165862 L 455.2998569262435 377.45188757771433 L 287.8230864698456 121.82018961688902 L 334.2175547350686 426.2325758189608 L 301.27770277190956 149.63659100040152 L 224.89122817944417 468.2692690051006 L 332.628724147535 225.20622552900952 L 148.18518573835374 495.9442713975528 L 375.3117998529884 334.4449383456926 L 118.88129225647009 504.6342267055703 L 420.8840535754025 456.77742115024785 L 142.8279016867566 493.4697870336132 L 460.6929793012778 569.0171615212089 L 215.77440521876497 465.3534671943767 L 487.5211845004253 649.7663904108339 L 324.12333197780936 426.26008802367323 L 496.8939656808009 683.5000866143221 L 447.4674102322939 383.9808242369729 L 487.8130094185666 663.5536836450633 L 562.4377450689271 346.572552705086 L 462.798633492273 593.4389826336588 L 647.1366063026542 320.8207440172997 L 427.2603547979153 486.2285843969799 L 685.312980345358 311.00948195693684 L 388.34393058282393 362.116185630737 L 669.4837670488052 318.2214008439274 L 353.49781002782134 244.60851034415728 L 602.4005715510342 340.2792140125307 L 329.046005920114 156.06784176587578 L 496.5745794647943 372.312173680039 L 319.0411108683682 113.45141132193157 L 371.94089836030525 407.8108786749062 L 324.6053431879597 125.060339032196 L 252.0988397917747 439.9453683140977 L 343.86401835619193 188.92206341687404 L 159.8380570794265 462.88042593705586 L 372.45642009165766 293.1215776496669 L 112.7996880340798 472.8345661007489 L 404.497702272541 418.0266808561923 L 120.09952387612321 468.6906395392827 L 433.7836780887966 539.9912314886627 L 180.56028021272542 452.0622606476539 L 454.99296167110464 635.8370232633936 L 282.8959772615322 426.83093998846556 L 464.65338011642575 687.2637768707546 L 407.8207724335313 398.27146102860064 L 461.69724661456024 684.3472024402456 L 531.6877935758555 371.95775367582667 L 447.5195762224502 627.4557515777905 L 630.9705857290157 352.6747391736668 L 425.555465021802 527.2155704527693 L 686.7368534349295 343.54863277833533 L 400.48675887639905 402.52372388605977 L 688.2627826864846 345.5536998367896 L 377.25546613896614 276.98154891553355" stroke-opacity="1" stroke-linecap="round" stroke-miterlimit="10"/></g></svg>