<svg version="1.1" xmlns="http://www.w3.org/2000/svg" xmlns:xlink="http://www.w3.org/1999/xlink" width="800" height="800" viewBox="0 0 800 800"><defs/><g/><g transform="scale(1,1) scale(1,1)"><g transform="scale(1,1)"><rect fill="rgb(0,0,0)" stroke="none" x="0" y="0" width="800" height="800" fill-opacity="1"/></g><path fill="none" stroke="rgb(255,255,255)" paint-order="fill stroke markers" d=" M 400 400 L 357.7230796416319 697.0061325503339 L 400.2663461274949 400.0773934529205 L 276.5277072315007 673.4125451145901 L 400.46834351654024 400.2972778367594 L 205.14093257844004 628.0996778423427 L 400.55018622734445 400.6242304003426 L 149.23366052908827 564.6672420331513 L 400.4722027201035 401.0039419452699 L 113.24706044997424 488.1543750209736 L 400.21664227783214 401.36978214564795 L 100.03975313730189 404.6393090839602 L 399.7909872592994 401.65098948470137 L 110.66072469089687 320.75649232244405 L 399.2283769533821 401.78160506931437 L 144.26600761988811 243.16952497488973 L 398.5850284798877 401.70917746737143 L 198.18574731449422 178.04178471415005 L 397.9348553805081 401.4022717872594 L 268.1363241754256 130.54679767809813 L 397.3617841393693 400.8559209613764 L 348.5606774141425 104.4572538147188 L 396.9505229504517 400.0943515132393 L 433.0697914348503 101.84531651908628 L 396.77671976572 399.17058209220676 L 514.9502689817496 122.91803400570547 L 396.8975387554773 398.1628056855962 L 587.6976653768322 166.0009259793909 L 397.34367500730224 397.16779573365534 L 645.5332122448054 227.67104678765722 L 398.1137154231821 396.2918903495787 L 683.8628796157521 303.0289507009787 L 399.17154804358796 395.6403763826158 L 699.6423072324377 386.08794979580387 L 400.447240312308 395.30628893534777 L 691.618615160563 470.24973684259515 L 401.8414746179159 395.359741449593 L 660.429886107304 548.828584913801 L 403.23327769480665 395.8388944908707 L 608.554419930125 615.5824771487869 L 404.49044257397213 396.7435556517466 L 540.1137961919333 665.2089707068185 L 405.48175064329644 398.03218659615817 L 460.5453950026534 693.766401962267 L 406.08988626774953 399.6227939701167 L 376.1703970247595 698.9869726471103 L 406.22382015153454 401.3978247463202 L 293.691586500479 680.456847475227 L 405.8294343014224 403.21280563849905 L 219.66085687749398 639.6489601593962 L 404.89727494393816 404.90809576573514 L 159.9587241719778 579.8059270865442 L 403.4665431353007 406.32279699472224 L 119.32719760678361 505.6823764555099 L 401.62474870678494 407.30961929556986 L 100.99311635102288 423.16716926352996 L 399.5028351600981 407.74935464990295 L 106.41187242015809 338.8155298396724 L 397.2659978518618 407.5635893744113 L 135.15187424378774 259.32825967835424 L 395.1008279661264 406.7243873930008 L 184.92892315488314 191.01941068061097 L 393.199782385368 405.25990081885215 L 251.78776460027788 139.31470882322185 L 391.74426941012916 403.2551927388964 L 330.41638353181986 108.32057421077752 L 390.88782317292834 400.84796383607414 L 414.5680681527022 100.49797284664965 L 390.74089521875936 398.2193250270295 L 497.5577057226301 116.46700520568578 L 391.358710685372 395.5802132122711 L 572.7928784908328 154.9577487800689 L 392.73342148109134 393.15446551625547 L 634.2975652873179 212.9112516235857 L 394.79145465652874 391.1599100759979 L 677.1868441690829 285.7226448196397 L 397.3965267707688 389.78906515600204 L 698.0548867318589 367.60705151978084 L 400.3583095990409 389.19113851479653 L 695.2454255938264 452.05921570820254 L 403.4462303739871 389.4569720749012 L 668.9832154782171 532.3703300354082 L 406.4074150304458 390.6083823096387 L 621.3560531455972 602.1610001908458 L 408.9873786464813 392.59301667727516 L 556.1487945457626 655.8880040109543 L 410.9517715337278 395.28540562983534 L 478.54256561199725 689.2845882676502 L 412.10733187816527 398.4943734073464 L 394.70307195189406 699.6993289950638 L 412.32019483705045 401.97642195055914 L 311.29072156797986 686.3066423473413 L 411.5298687205698 405.4541678943814 L 234.93148394923972 650.1722316933814 L 409.75750248394013 408.63843994973337 L 171.6905252865166 594.1682825169657 L 407.10751273300343 411.25227625553794 L 126.5904358169359 522.7451538909899 L 403.7621782985515 413.0548338062696 L 103.21231942487572 441.5777154084437 L 399.96940228777805 413.86315898421924 L 103.41142959247009 357.11443580115144 L 396.02443572746716 413.5698801335465 L 127.16993309274108 276.06505308025646 L 392.246902171047 412.1551657098046 L 172.59848685069343 204.86753244348077 L 388.9549104362848 409.6917256710369 L 236.08648997707706 149.17666022812816 L 386.43835147210945 406.34218664845775 L 312.58906153226036 113.41489966180308 L 384.9336145344776 402.3487991089654 L 396.0279335008812 100.42118421806731 L 384.6019104142457 398.0160855996444 L 479.77440055737077 111.22554056724869 L 385.5131539891298 393.6876582186433 L 557.1759521547857 144.96743408833692 L 387.6369495170206 389.71896688309715 L 622.0847457270319 198.96431027873385 L 390.8416697183958 386.44813980457434 L 669.3459374998845 268.9248725614896 L 394.90196676011675 384.16730598439443 L 695.2070805484746 349.29013903208147 L 399.51435241293666 383.09682226303954 L 697.6160743078763 433.6751710505207 L 404.31979404422407 383.3646562590968 L 676.3840069370192 515.3763715033781 L 408.93165153357074 384.9928102679358 L 633.1999678130894 587.9040450077664 L 412.9667821495083 387.8921355526715 L 571.4966688646233 645.4979095888096 L 416.0773113187809 391.86622206772137 L 496.17756591583156 683.5846082167641 L 417.98043935418593 396.62430817820433 L 413.2271730538284 699.140880726539 L 418.4837437002931 401.80239870027515 L 329.2355402718463 690.9335552936973 L 417.5037412832602 406.99107085709585 L 250.8746804184065 659.617307744732 L 415.0759760571529 411.7678473092545 L 184.3685445750159 607.6824385673156 L 411.3555558737041 415.73157647254817 L 134.99865278805913 539.2568335113612 L 406.6078290857964 418.5360238020708 L 106.68464962883144 459.7778573691571 L 401.18970340099696 419.91986851112 L 101.67309716000284 375.5602616444951 L 395.5229005880934 419.73052475429023 L 120.35921517227541 293.29444473510773 L 390.06114408582505 417.9396516217895 L 161.2557137910763 219.5149321432173 L 385.25383149724274 414.6488506227645 L 221.11117631612325 160.08130517095697 L 381.5091004865393 410.0848242895718 L 295.16856909374405 119.712812370383 L 379.15932025894176 404.5841239756222 L 377.5433242682567 101.61362810155299 L 378.43191580414384 398.56847952284653 L 461.69094463608275 107.21851655009914 L 379.4280629355937 392.51250664634557 L 540.9269718000402 136.07909033179675 L 382.1112038894565 386.90626138485663 L 608.9580037887514 185.89968091459522 L 386.30656965332855 382.21559593038353 L 660.3815759850773 252.71995129089626 L 391.71201559266 378.84352202564776 L 691.1151984634864 331.2297240954168 L 397.9195516757211 377.0957807727106 L 698.720476252186 415.1909967765032 L 404.44605322968494 377.153545927852 L 682.5965786303535 497.93360364582867 L 410.77084749701015 379.0556682047787 L 644.0277064203797 572.885138607627 L 416.37725296946024 382.6921383188477 L 586.0808071816623 634.0930361739772 L 420.7947574111813 387.8095621739244 L 513.3616854330941 676.6973373571348 L 423.6383938180774 394.02847250179195 L 431.64890329990385 697.3165907451676 L 424.64202741679736 400.87132548999904 L 347.4345727622098 694.3162453126292 L 423.6826943847046 407.7991289003552 L 267.4085331198062 667.9382311867739 L 420.793804798305 414.2538957091423 L 197.9268994262123 620.2814553248575 L 416.1658880984677 419.70357951764566 L 144.5072030377882 555.1347842602752 L 410.1345518073735 423.68587354276633 L 111.39022641800591 477.67580457635285 L 403.15636430884575 425.8472718643659 L 101.20332979232353 394.05931259951745 L 395.77437560632717 425.97410424469825 L 114.75199908123915 310.92824118086224 L 388.5758729807351 424.0128445060605 L 150.9561541578793 234.88588800031613 L 382.1456564414168 420.0778142333734 L 206.93625379946326 171.97137788162337 L 377.0185515232115 414.4453956274637 L 278.24233276732 127.18002790334805 L 373.6350138396443 407.53495156498195 L 359.20775279901153 104.06671011765565 L 372.30350394961954 399.877740196884 L 443.3995448274421 104.46370692363627 L 373.17283093100525 392.0761165800845 L 524.1295510783216 128.33545340079138 L 376.2169121832359 384.75615091212177 L 594.9857517029952 173.78168262087826 L 381.23343175426163 378.51739025843676 L 650.3415640390862 237.188698642032 L 387.8567749344087 373.88379484121526 L 685.8026597458968 313.51673446824384 L 395.5844607663021 371.25986072024426 L 698.5558157616063 396.7005435802765 L 403.8151800504091 370.89559365703184 L 687.5921038190487 480.13138224120826 L 411.89556624491263 372.8633465582254 L 653.7867108646499 557.1820796477831 L 419.1720628212338 377.04862290190266 L 599.8290753000841 621.7334769114003 L 425.0437694308103 383.155850699745 L 530.008916177917 668.6604146565919 L 429.011994913872 390.72893215465956 L 449.87517947197347 694.2386701567307 L 430.7224361320723 399.18516924812934 L 365.79501799142986 696.4405318829803 L 429.9964282249789 407.86005334209136 L 284.44785787746173 675.0955520922548 L 426.8485370665476 416.05947970038886 L 212.29475481410142 631.9037328495024 L 421.4888263100976 423.1152844295662 L 155.06519847113051 570.3001260882625 L 414.3093469241929 428.43966024674125 L 117.30212953752181 495.1816322773917 L 405.85567017572333 431.5740219094726 L 102.00130139625492 412.51772720642737 L 396.7855129007187 432.228266910174 L 110.3736166709017 328.8760629832872 L 387.8175858822688 430.30708758016704 L 141.74929407040673 250.9006456948639 L 379.6746418246429 425.920984827193 L 193.63145016720625 184.7840520399544 L 373.02523607541326 419.38083509040797 L 261.8948096579102 135.77561250521796 L 368.4288922534725 411.1761764197004 L 341.11372947235384 107.76462301204378 L 366.28916598394653 401.9387018238868 L 424.9934525950018 102.97167874518192 L 366.8185331128577 392.39367087702414 L 506.870312227235 121.77262784743482 L 370.0181343360291 383.3029730411639 L 580.2411365874601 162.6691022707337 L 375.6742535907275 375.40431209845786 L 639.279793232472 222.4079360730393 L 383.3720825016079 369.35136620428955 L 679.2998422623182 296.23995335581196 L 392.52593262543434 365.6597756873297 L 697.1265575683801 378.2975385494654 L 402.42371298503696 364.66341504219963 L 691.3487829206732 462.0609701048497 L 412.2823022530972 366.4846426962518 L 662.4306419394654 540.8764537743149 L 421.30951165729215 371.02114834832486 L 612.6742584975293 608.4846927149687 L 428.76773579027133 377.95071542930583 L 546.0364817050429 659.5180036146297 L 434.0341775466721 386.75378763952205 L 467.81420677913684 689.9264959929875 L 436.65273328021783 396.7522875018728 L 384.22331852922304 697.2994757940298 L 436.3732248045285 407.16179806896747 L 301.9047291362497 681.0565652847156 L 433.1746232803928 417.15309611888364 L 227.39676593011558 642.4933866887975 L 427.2701539374489 425.91821046243734 L 166.61582906732127 584.678213780185 L 419.09360329878905 432.73574279001076 L 124.38657244643838 512.2078354743896 L 409.26765888725646 437.0301715474932 L 104.05891758677762 430.8420576276923 L 398.5565742195086 438.42026898906227 L 107.24230358168529 347.04590560312687 L 387.80675025157143 436.75257072198883 L 133.6782559909371 267.4759155066622 L 377.8798509131344 432.11698582916443 L 181.26136464878832 198.45133493877012 L 369.5837381711254 424.84303586981025 L 246.2069685235337 145.45224316534635 L 363.6067621701272 415.4767529622722 L 323.35219194060244 112.68445209616635 L 360.460748457414 404.73982795698873 L 406.5663864390011 102.74573485187966 L 360.43739667254044 393.47405354432806 L 489.2383473164816 116.41987097210404 L 363.58178822592913 382.575334988776 L 564.80158303324 152.61483725265626 L 369.6853712888192 372.92244078197916 L 627.2559023315758 208.45001845313223 L 378.2992531473623 365.3061597431564 L 671.6438868089328 279.48547299567895 L 388.76700407777685 360.3645746662354 L 694.4444108721553 360.0750058925038 L 400.2745935575837 358.52974599155493 L 693.851970150833 443.8149706941704 L 411.9136673111477 359.9902498101429 L 669.9196585455775 524.0531248240213 L 422.7532486212902 364.67279564329266 L 624.5544712585754 594.4171012362187 L 431.9142041230195 372.2446545703758 L 561.3653450112374 649.3205114480656 L 438.6405178352862 382.1369743887923 L 485.3760448257734 684.4064827836407 L 442.3615971456775 393.5873771592704 L 402.6257399106019 696.8934132404374 L 442.7404823741722 405.69866094079487 L 319.6890269476885 685.7955042608808 L 439.7039010948956 417.50909011704476 L 243.15354962117553 652.0005863127524 L 433.45151855740994 428.06876833344023 L 179.09672154960728 598.1990931795358 L 424.44337690055687 436.516028894399 L 132.60311990367018 528.669866914596 L 413.3662588452934 442.1476999849302 L 107.36087501355848 448.9398469263404 L 401.0814169512934 444.4775184924448 L 105.3690956286008 365.34471038344105 L 388.55763930893994 443.2778489786526 L 126.77954035425665 284.52539193019163 L 376.79485130819944 438.6011480345554 L 169.8850752393569 212.90049470231787 L 366.74427815283923 430.779200265948 L 231.25579370851824 156.15650871171817 L 359.23154271772904 420.39991627913463 L 306.0119448875312 118.7963264462195 L 354.88891430597175 408.2632853029114 L 388.2119517146458 103.78190323097903 L 354.102262558571 395.31977073304665 L 471.32466393357186 112.29942120861779 L 356.9771545716416 382.5958880265615 L 548.7483084228882 143.66557642292526 L 363.32704668346315 371.11279128612216 L 614.3349005141354 195.3823927764657 L 372.6847808418962 361.8043257303597 L 662.8784579700904 263.3361659770732 L 384.33673615381656 355.4411219244576 L 690.5282467198429 342.12469260609583 L 397.3771576000907 352.5668986992198 L 695.0942539441417 425.4867534713002 L 410.77853341748187 353.4522319104516 L 676.2206547989898 506.79970525168267 L 423.4725553069617 358.06970314655894 L 635.4135323451234 579.6056341666823 L 434.43528256406506 366.0926692800962 L 575.9206919521546 638.1242682194188 L 442.7697207626586 376.9180213715518 L 502.4731612039906 677.711908840452 L 447.77915641366695 389.7113782457399 L 420.9089506946482 695.2299429737681 L 449.0252566382094 403.4713402543871 L 337.7089976970384 689.2936902199219 L 446.3660995621767 417.10785990435966 L 259.4821815140739 660.3818542514575 L 439.9708592458874 429.52859709888816" stroke-opacity="1" stroke-linecap="round" stroke-miterlimit="10"/></g></svg>