<svg version="1.1" xmlns="http://www.w3.org/2000/svg" xmlns:xlink="http://www.w3.org/1999/xlink" width="800" height="800" viewBox="0 0 800 800"><defs/><g/><g transform="scale(1,1) scale(1,1)"><g transform="scale(1,1)"><rect fill="rgb(0,0,0)" stroke="none" x="0" y="0" width="800" height="800" fill-opacity="1"/></g><path fill="none" stroke="rgb(255,255,255)" paint-order="fill stroke markers" d=" M 400 400 L 132.42933267055997 324.84186192069495 L 578.6657147621554 508.9687014548476 L 481.9700017922205 488.11362262469015 L 262.72544790079996 133.37061524544401 L 421.1212215282747 503.3323334351279 L 384.0930429664927 619.90150351667 L 492.0820550504715 144.609191808762 L 409.32562013974217 386.93392886636565 L 178.9831564832463 577.6635250615543 L 581.6333989974537 322.51044880848895 L 533.7499016896876 382.59379443851185 L 104.07989430177895 356.96301532766427 L 482.5066603632347 436.6728024707158 L 577.8857159872964 547.4419212933997 L 249.72460892075367 182.62267688244933 L 389.5799464901305 369.68121329995654 L 416.4882230764931 687.9328040597285 L 439.7868830425121 219.22167300982085 L 470.19570367092996 268.5445927846352 L 194.24661539711008 614.6230390988876 L 464.4819600212845 361.988174482958 L 632.9288626072434 338.32881043714787 L 143.74156950212898 396.15345254940485 L 354.0131179322809 386.3348090727571 L 647.3299769370551 555.9878001129254 L 284.61180008615787 272.16885936626437 L 327.6855726221644 254.20710823737454 L 454.68571491743944 689.6317736462174 L 405.1568737362475 341.0252786029483 L 488.37630631667474 165.95727617530852 L 253.16552991568193 599.3326899333731 L 349.71779279073576 439.1915108562128 L 673.5822700510059 288.1057972710996 L 242.22249876323892 418.1294340858511 L 226.23775226388784 372.0597396866987 L 664.4170345215468 522.313934355651 L 367.02201285750607 371.82033498234233 L 256.1137622451166 185.03748731759524 L 474.01694630382156 626.3613630755569 L 403.34681914756504 479.2757783729097 L 468.39119387378827 110.05475423706235 L 329.80228576989225 526.8400024518655 L 267.35388333808703 534.270830496842 L 649.476170310025 257.93671997844 L 373.3795947185336 406.62222465092543 L 133.68629478489908 392.0032354707261 L 617.6054118562064 468.2330386275821 L 479.34434359042507 451.7220845483164 L 202.763197868545 174.78840544368956 L 456.31597057016825 517.9533384009613 L 434.3149399918603 597.9979556767023 L 428.7805421666519 119.45283119557172 L 395.81064656420466 410.6098241849678 L 234.54577228938408 617.6901883183034 L 573.3711782164929 269.00410273630956 L 502.2499170419715 359.96076124000757 L 101.49959781935985 429.76724912856787 L 514.3098537821236 420.14501957056535 L 591.5771270413586 492.1350718692931 L 192.779717658257 217.4788736159825 L 397.47149126694563 396.09699014582685 L 482.912086123874 667.0692848172484 L 394.4032382849813 194.15929001559104 L 430.41994166992833 279.1795601988155 L 250.9427025230036 660.04079307958 L 472.1253248175479 329.1503896090656 L 595.9465501117265 292.28094688338393 L 137.55055425528764 461.1205263604418 L 379.3263929372195 399.068481506226 L 670.686333295999 489.3609726697297 L 239.13256981648496 291.6608087899074 L 309.99110807672724 294.0579741948844 L 524.6045218702848 671.3856658980735 L 386.61206042136746 315.2063158005441 L 427.3693319408278 167.6212232082226 L 300.11866730025775 642.2480078156176 L 377.3692964873697 428.86572137480505 L 633.6944317454964 228.87371862814737 L 230.09334208490046 463.60816073560727 L 247.5029885600287 412.89905209879765 L 691.3530490502311 455.8667599504883 L 337.0749086146451 368.5660211692697 L 219.5653161876746 236.19774495861932 L 534.8020925256984 615.0877548976546 L 414.82824161173914 450.4240527371213 L 396.42811386948193 106.60629686701822 L 356.44303839900437 562.6469731659879 L 314.97463871246936 543.3037180065478 L 612.6941624367659 197.2500218234529 L 351.7342090239686 425.5977701108027 L 153.04439698716968 453.6179032853058 L 644.4785867295726 414.6954664171329 L 464.5174219788205 422.3782942333186 L 156.71685049246682 230.79410112836118 L 498.47961456230405 519.5017340821536 L 472.5382886977154 564.4518013346885 L 359.0498749064858 112.71167829606742 L 394.8875296208387 438.43252865182893 L 296.90218180195353 639.7725203505165 L 547.9390627253265 217.02587643604102 L 468.36433407993536 351.4984700640762 L 118.98854881682416 500.4201873692755 L 540.5415664405373 390.23419413602636 L 588.3282262147776 439.05110111696877 L 146.35606069481295 268.4998368745015 L 416.6475310725174 415.57508996849424 L 539.1773623601902 629.6583663418396 L 339.7679016162843 183.20831204218925 L 400.2810420514944 300.8853872457914 L 318.15339311995035 688.240503509162 L 466.1775034254416 292.1838824096586 L 550.0340185846592 261.2184369478931 L 150.33825253799796 527.6444704237733 L 406.6254016395684 398.66532202524775 L 674.5359350427186 420.6417211232876 L 198.8326571228715 326.8231780915613 L 307.29709352263797 333.4377750491613 L 587.2909123653546 634.3512287465044 L 356.4326710714718 297.0717284482654 L 372.752892866444 185.8899103163381 L 359.7544275594396 671.3224259438773 L 396.19863230427137 408.48741335226373 L 580.1204815243593 183.93814258624607 L 233.09430094784898 514.6857131458979 L 278.06858280804886 441.5195616313552 L 699.0570016641772 383.72538581260915 L 305.6077990995542 378.9447523885157 L 200.3490382550569 292.6599968176012 L 592.4986613095697 585.5936757909564 L 412.80206964007306 421.8584344609101 L 327.46481532459677 122.86470235837521 L 396.602947754402 590.3461491073267 L 358.8443026959376 537.0748030385512 L 559.7601611937805 148.27342049345236 L 339.4380188068384 454.3560949375357 L 187.50406335260544 504.6499432488481 L 655.3613868775959 352.5344129106139 L 441.1232517245263 403.7134304336489 L 128.2170576353982 296.49122505016805 L 542.7713808924736 505.79551491928527 L 496.17877098319354 524.1203935141928 L 288.7491816014555 125.774179479069 L 407.32709253488116 465.4011773296877 L 360.19607307921336 643.1426227504148 L 506.16407495954815 172.19301412320155 L 437.2373641900673 356.6713714048325 L 154.9273338844316 563.036271801096 L 556.5066243495992 349.3153319783961 L 570.3442531761932 393.29232294805837 L 115.1390813581911 331.95483670592944 L 443.7258416654337 424.36163317779375 L 581.0287993204346 579.8554268678225 L 280.7446760603866 189.18882180600335 L 382.6239141974736 329.2954053303802 L 390.2431485935587 696.8682049998453 L 445.54200241085755 256.1893156242305 L 500.61035725586817 246.61102744902342 L 182.06751459409625 589.7726544460559 L 430.86376360000526 385.37163760144557 L 659.5193963339048 355.78041028542003 L 168.89586229549226 375.6292879042294 L 317.9843832958153 367.34651921378475 L 637.4196147649335 581.513864215746 L 317.8658990630692 290.65345694591133 L 329.0949059455613 217.40335499089923 L 427.40437851633305 682.928507782585 L 403.2020897486307 382.1268818857723 L 517.9635441714479 156.48776180732975 L 252.85905711647152 566.1004370615786 L 312.98242467852424 456.02343008427323 L 686.5978972773403 311.9154209871166 L 277.762176445479 402.97678038281555 L 198.67418774682363 348.7030813949442 L 641.4110218486767 539.2894960187706 L 398.5267677952027 398.4917096600189 L 267.186340078543 156.77390809175728 L 447.22577042335286 605.420882770725 L 394.33458957161747 518.2758176085456 L 494.8348806743678 115.44546639978182 L 339.7315404762899 488.9442348019707 L 232.67019851951656 541.3492736460968 L 647.8514688705142 287.05085207243854 L 413.78238723539204 397.86395747311036 L 119.16047088130654 366.11536673106576 L 583.8102464133979 476.39736176172255 L 504.4274305115528 482.3502010780056 L 223.91986485185092 158.1044949770041 L 432.1151714584576 486.530754757933 L 418.71076317287617 628.9325082913841 L 450.6910561630029 139.63293530568671 L 413.465761510454 373.2341130929764 L 205.93825052467335 612.5525544863722 L 558.5290884929191 301.2699259504407 L 541.3277888283278 358.8746546259017 L 102.42180109710768 402.77894314643675 L 474.2179024576917 420.10131173609346 L 605.7919677986841 522.8913424323089 L 222.94310295133675 213.20137498907093 L 378.6131167076446 359.396301364851 L 461.1308700935985 685.4605919719379 L 410.9281923080356 226.41450761895118 L 453.1803529018571 248.0719365583704 L 230.79591290446461 641.8149065803238 L 447.3898783420124 361.1718066406788 L 628.1083348867126 300.15504241402635 L 153.6300610414452 434.4051179433514 L 338.8721434352298 391.6920301715827 L 670.8723702247289 517.3813672684053 L 275.3999121189866 298.6721654168256 L 299.558891364705 257.5712443875232 L 497.4253993757089 675.0900072857252 L 396.97712321397074 354.6375477022339 L 453.0173814409271 147.9153500499059 L 289.1957265167488 612.2496506392775 L 347.0216109215286 456.3054079521822 L 654.9870512383501 246.4598333546224 L 258.4355422844692 438.8993624767918 L 212.90423140337222 398.9389616739056 L 676.5293473904303 479.36920562217426 L 374.8761178627567 384.4807181551096 L 220.29603824421474 204.6170928282302 L 503.8560645865323 604.5626460194085 L 418.0508935910668 490.936628104833 L 423.2808014960997 101.68058779277885 L 354.3172656846357 524.4846004753745 L 283.25478377487224 561.6247291413067 L 621.3632174328591 224.1152200787912 L 387.5404608249935 405.23224642350857 L 129.527987529269 433.6405132198237 L 616.2848594141905 432.7088244436505 L 498.2985866830904 444.3613269368471 L 170.153864793695 207.28093021936294 L 466.557019034787 497.4533859972173 L 467.4753018125003 600.0130821165496 L 385.73445421810146 123.40883425001016 L 400.5604987901862 397.520353552072 L 267.24718329517543 645.2485781207379 L 544.4057551164676 251.06912504268644 L 506.02687460651396 338.30517399121106 L 109.74216591037566 475.09101056278837 L 503.06309336025396 402.13168293276175 L 612.6252584775037 464.49697725578926 L 172.1157662798723 254.46348495561776 L 387.6216664611084 386.12950092462285 L 524.9223648877546 655.4851220822475 L 364.80904780945616 207.6410454089593 L 412.7211432960733 263.4475589931288 L 292.8553306373799 678.9490547600356 L 452.510388546932 329.55551909804404 L 584.3114875414981 258.0147692991317 L 155.96468542741732 498.19788604617224 L 365.61833339817866 403.7532001396585 L 685.1628816911953 447.51354119443124 L 234.25931978659645 322.18767798361296 L 285.59081805619036 301.10939636636385 L 563.7846556535163 647.7178850189839 L 377.89303273803534 331.0708066282426 L 391.14698513409206 157.70110780832826 L 340.06172754068064 647.8110314876651 L 375.3052656758918 444.0296070124738 L 607.0741194558882 192.75358443870508 L 251.694153924009 483.3420136900031 L 239.7813833909539 438.89329644596285 L 694.0776749444855 410.49998140472246 L 345.98930578812633 382.72722135538856 L 190.03805137398783 261.42941900044474 L 561.1082386680358 586.0773844637893 L 428.19759593786983 459.9314140507809 L 351.1079364885699 108.06153612532114 L 383.1298065790338 555.742170145721 L 333.6720296690668 565.2308516733473 L 577.2259098433578 169.5462665147442 L 367.2596942380263 424.44750923664003 L 157.4106687294228 493.41045902208197 L 635.562472025676 377.85750774610415 L 480.47207664278153 414.65273999643824 L 132.0082998692776 269.23846799894415 L 506.5760238920148 494.9516342538533 L 502.7825451862507 560.6444477230292 L 316.65420829813394 126.05684954017408 L 400.53559099828647 424.8934297870185 L 333.1945347071908 659.1193731321398 L 513.6974189411051 204.2286444216498 L 469.6708893544876 332.33347870360376 L 136.70887528500936 542.8024998526289 L 525.2310764372402 371.5832948274836 L 602.5692956493083 410.27885372158556 L 133.53319893898356 310.3530156097389 L 407.3257491273821 404.99428303085915 L 576.5207602648022 610.1719542442777 L 311.177601788461 203.6176024136973 L 383.134734877195 289.1035026085873 L 363.2199466193931 697.7356656556015 L 443.94457787714583 295.1105679903358 L 533.2162458324863 232.05149968794566 L 177.09587563507802 561.2910039274989 L 393.2501506397731 402.4833977135599 L 679.6851457773612 377.9393665427941 L 199.81159267724055 360.4356901796748 L 286.8006677454755 342.6472811308484 L 620.6909039152712 602.6424972429986 L 348.0573163914454 316.06714829344355 L 337.6667755332739 183.50470919515104 L 401.74496913373184 668.3398510622294 L 393.86359023929083 422.4048399748939 L 547.245122277819 155.00639136994388 L 260.27566637955016 531.6874534151546 L 274.8283090547425 465.4780297062999 L 691.9314889949999 338.34861442021577 L 316.77489712672934 394.52354269820484 L 177.8816417410387 321.5427946876815 L 613.2452797810171 550.1156926527849 L 424.75855478786883 430.3932470890022 L 284.34954915057574 133.72916952256332 L 424.307093328673 577.7373253223103 L 378.6596299770499 553.7486514500378 L 518.5731257271086 128.49029237730855 L 357.03225804312035 452.53126548048334 L 199.23989129965625 540.7258635311928 L 638.2286337268719 316.3888285697768 L 454.9484393625159 396.49479936186844 L 112.5308389252657 338.68900784785774 L 547.1734954413479 477.36330140140365 L 522.5622994616542 515.9771936983789 L 249.40193729346325 148.28661035808213 L 413.67034601687834 450.30768707148854 L 397.8387642810168 654.0609699090318 L 467.8243848519345 166.19595172792887 L 437.3578554775938 339.90384301486887 L 181.03516643351088 600.2503729134834 L 536.3243481721861 331.2738776006226 L 578.3892882402818 365.11524179168447 L 111.40567748508829 376.6546603960886 L 433.99420262418323 412.5845084442103 L 612.1479188235788 554.1565536720005 L 255.12851100532035 216.60389052824206 L 366.8272264383169 320.37401742570484 L 436.0225547118949 696.4851461057801 L 421.1180781199196 262.9869925653497 L 480.41697106178293 223.1462951063472 L 216.3195011830371 617.8088820394597 L 416.7642517030357 388.6202159548045 L 655.7581599906104 314.525820061976 L 176.95084059634382 410.8699964509068 L 301.05092747328104 377.33847393995603 L 663.202726390816 543.437855931687 L 311.0812700889556 313.29245666378273 L 296.78495901070403 221.45500368534374 L 469.23224255280354 670.7754095255541 L 400.09915007750175 395.7844688941981 L 480.95575163267426 135.81469346877907 L 285.2381152313924 578.5783643817948 L 312.8813350967548 477.30393818635605 L 669.8583708058358 268.99649306620927 L 292.32477853755495 419.3831848735919 L 183.40148310627677 379.20214782593604 L 654.8031684689291 498.7002034605456 L 409.47311962008627 407.10328267649044 L 228.43633855756582 175.98161449841876 L 474.36666833814996 586.3353589462823" stroke-opacity="1" stroke-linecap="round" stroke-miterlimit="10"/></g></svg>