<svg version="1.1" xmlns="http://www.w3.org/2000/svg" xmlns:xlink="http://www.w3.org/1999/xlink" width="800" height="800" viewBox="0 0 800 800"><defs/><g/><g transform="scale(1,1) scale(1,1)"><g transform="scale(1,1)"><rect fill="rgb(0,0,0)" stroke="none" x="0" y="0" width="800" height="800" fill-opacity="1"/></g><path fill="none" stroke="rgb(255,255,255)" paint-order="fill stroke markers" d=" M 400 400 L 225.5546563422228 175.03575323486172 L 355.271637220136 573.9856699326936 L 242.74614311469398 467.96462205299326 L 652.0719884572272 538.777580702078 L 398.40110311055 389.855020486335 L 592.7283270451287 195.1402506341726 L 213.08912010064302 382.1308624123537 L 312.94490730856404 262.45336617224007 L 301.22746107522676 673.177057376689 L 419.533266065295 393.68609658472235 L 629.2790985317652 556.3794849112303 L 388.07075581057774 204.7009909530831 L 515.762461603086 298.34787286052403 L 112.42421188273761 344.5069042647426 L 413.90327861614963 427.44135765328105 L 282.9607593648134 647.1575733703592 L 598.5506484680062 356.1575527145808 L 511.59072626886245 492.8317880634505 L 410.11618496943936 105.24007955550474 L 366.7891536975698 423.97503395208525 L 141.84003661731902 324.10232956285057 L 476.9316665282065 596.2235604628231 L 330.3187476335799 516.8891029166564 L 694.4348061522608 363.8959919169764 L 363.9971305467236 363.7222067479985 L 434.173807380536 137.830843649876 L 211.9464807164489 510.17439126761406 L 282.2576041834853 352.80129833550933 L 481.8756679964898 686.5305906800154 L 436.19843034697493 350.65236613511024 L 659.2861924815357 393.07553360584495 L 257.501187586572 226.03093615187646 L 426.2003080706554 285.49015474879576 L 128.79404297618754 525.9104385486842 L 463.2834960441145 432.6701784958125 L 446.2396439789836 649.8229420554779 L 554.0995511219033 227.1793346967697 L 507.69598043837846 407.40098738717796 L 233.03542296189454 151.15572168462992 L 374.4528514598209 477.0278349889754 L 165.71227380627727 482.7015815592363 L 600.0812037443737 528.7761372461691 L 408.6108089699618 497.926586161959 L 620.0422901156817 196.1212346479228 L 310.22628738755725 385.1505043174125 L 284.6390160577175 186.63555268897193 L 301.4744334164699 623.2849494977258 L 314.07959541362015 421.3930262727335 L 635.6152141411519 585.5916545430133 L 400.7662281892769 299.27630797185964 L 587.8860215018091 256.5817462794313 L 158.4641408089312 335.94309246636533 L 369.3360381897595 327.54231927279415 L 253.5459634797533 661.2907892505723 L 509.1237084828532 383.6513160177948 L 566.2467417754749 558.8031016111187 L 426.24162891074656 145.92940259270804 L 458.34677121415143 363.69023149206134 L 119.79497271424339 296.2694611613409 L 435.9868036806048 514.2956922563151 L 272.8507599748716 583.4096421836084 L 660.2876989495917 386.08765264163657 L 438.3852752953196 444.3901017810998 L 458.6265393211954 108.13791504756426 L 284.33231675773675 457.501978786854 L 205.32999391617298 305.99624134043364 L 455.29176123404113 659.7715417849862 L 368.6492229616616 437.10814365807306 L 695.9858782866768 412.413133126229 L 319.86722968605125 287.1997358917019 L 460.4536660874804 200.0064016987215 L 147.6897699459809 496.7132508024647 L 367.1533706383499 380.07888403717135 L 433.6134995221214 692.5279055396497 L 505.40826984357363 296.97024122651925 L 599.5445784725646 427.55598576127284 L 263.0384904860132 162.0933024919385 L 410.69430933901776 373.8985427225319 L 118.33249716345125 478.1734093185791 L 525.2867440975625 493.37690137841145 L 403.69816585744366 593.6742457652294 L 616.7825783086921 225.17094727034177 L 417.48253684950083 404.14027404414 L 279.9565346940352 136.19545431486807 L 323.228426253839 545.9747029159083 L 217.0966662651133 432.4164856902785 L 609.1562168825383 589.3746458575223 L 399.4133819267001 407.68143792499563 L 639.5448725576539 241.90417004767747 L 235.82274330283013 344.15894248543486 L 342.1657720767326 232.10142946503464 L 243.6761178432709 638.8699984616393 L 402.55929555242284 399.794564460721 L 591.3330153780947 609.678959744996 L 431.0137177602222 220.97366059777707 L 549.4444213578397 320.66220224922716 L 136.97962647167213 281.5424992410304 L 403.0064297195296 412.4787989719455 L 224.84538953364205 618.9183375439129 L 589.7367362615059 402.88690866368825 L 496.4824017280503 528.4110974444275 L 476.7644963076849 119.1871795112661 L 378.66876046681585 408.83662274485573 L 159.79924992039673 262.95537247251536 L 427.7901652944944 595.6381969543596 L 294.2799567129368 509.0031836624605 L 691.6358965472593 432.36552402935837 L 382.61333846762074 371.58142610879247 L 496.51061031509846 145.26676008910385 L 203.7960942845875 460.13956785301184 L 283.18048317899206 317.69180372199594 L 413.5218849732232 695.0828871608392 L 433.1214393432311 371.7965197607855 L 662.28419572139 454.7641475595135 L 306.8170481486347 208.92578492185987 L 459.0923481608801 279.9676241024623 L 109.03324803742527 459.62159943816476 L 440.70883904472703 434.926976562986 L 386.973237508705 662.8414093429506 L 580.0747146339851 274.12589128290693 L 518.914966448951 436.9349240936233 L 295.36064465821033 120.67217723584946 L 366.54750377338144 454.2230362964638 L 143.39136954026355 427.50999618371515 L 557.134610878305 563.2279055156107 L 383.3875664382237 513.8970361054446 L 660.4339611540063 252.6959647462943 L 332.0071057848372 371.53594317769 L 334.2770631320441 156.00514278435224 L 259.24202183522516 585.8912899777831 L 294.4564781552534 401.2122598158154 L 586.4083482185663 634.773145907262 L 419.88921076288847 318.77704530054143 L 625.5968000549492 299.4072375773841 L 188.88578265625173 286.9115628227819 L 383.98714864529194 305.4716073895075 L 196.96127544377217 620.8475168850601 L 493.1086973768741 407.82339369716743 L 531.2355520131832 602.175194275668 L 480.83257375361103 168.14617532443538 L 481.60471917521676 372.5831221361964 L 150.34535398489848 233.89218036939354 L 407.47033036101203 502.8705114999453 L 225.37415010535216 556.9291283822236 L 647.2758235262149 444.77704428406287 L 435.2167703775805 467.5721371263668 L 525.0136191201578 127.96843919553748 L 290.21288031523164 425.5682064879067 L 222.86656018137248 256.0534921227546 L 394.1409364824295 656.6926513166455 L 346.7570405849621 439.3743131095722 L 687.3740605841028 480.9124941247604 L 354.1008037702028 286.77283396058266 L 511.2007132560065 208.49569528411453 L 140.40971305173662 434.86204643849976 L 359.9816073149437 360.59176119201504 L 364.9529331753637 695.2907278578293 L 512.6777436050962 332.23560169701295 L 599.9001075570327 477.4800131253765 L 323.76199717232834 144.3505634301855 L 426.80507629765157 362.5638267710171 L 104.38534264966495 411.2935075862229 L 490.36179816434924 507.7687439058864 L 356.1341623789378 602.3812897106521 L 644.7602841497186 282.9317178942775 L 432.0580787052112 416.08641934501816 L 343.1853144931882 111.59228322391169 L 301.70793894435633 512.8154586779984 L 200.79726263491358 388.60757689937566 L 556.139155792001 627.030225344186 L 392.205504310809 424.4371949755669 L 673.9572115978979 299.74230122496385 L 265.791907242639 315.78513126122493 L 381.01208894863703 209.20057708349853 L 197.21575127205134 592.2636949814726 L 384.77608804608747 397.6611119131827 L 540.43933237302 652.7650908241756 L 465.6864039402328 246.38417405079105 L 577.7658960095807 353.5640846178135 L 175.67864618334346 227.4421129607021 L 399.9800778934645 394.8631967265941 L 174.4699095201968 576.2889621489279 L 570.1438673036223 443.0379285325627 L 470.2519147327438 560.8304375905265 L 537.0829234176953 148.70425071390406 L 394.9308806922899 400.8190775059609 L 193.1184020225767 206.87654348728105 L 383.2242097301575 582.9617640400688 L 259.17512299236887 489.8967621990153 L 672.3093110914308 497.2662942894271 L 395.20645904694106 385.36445784410296 L 556.5591108756241 168.53417881482125 L 208.66307891117071 412.4322408246942 L 294.993450763681 281.34877831532424 L 345.83712762933294 686.653579096396 L 422.83409068317184 388.3195030977031 L 649.4856874266555 516.9593154400926 L 356.22306451666606 205.33487940959176 L 495.2463559348015 284.59938907201774 L 106.18592657678403 391.0569684771293 L 421.10559805708425 428.9983853487284 L 324.48295847049485 660.5958809595531 L 592.4968769415971 323.6667923902081 L 521.0826135461209 471.5461263123845 L 362.8560820619772 106.51115159498517 L 367.44633241851307 432.55853456800486 L 135.33035429732337 366.54363722614806 L 509.09048418234744 584.5586065627658 L 351.549856554243 522.2347662004457 L 685.6000597520333 317.1908138521988 L 354.58597426313685 366.95715882250397 L 391.9922518718938 138.20072602671314 L 229.2322269146502 540.9867896132009 L 280.7945496870348 373.21140575371504 L 526.7655102650905 670.2981167007654 L 430.14790851274654 341.04240740475365 L 652.2891962461599 352.29117554068466 L 229.05465216243152 248.758618347976 L 407.29227521156787 287.5091992877302 L 152.04175103267997 567.7683102614277 L 472.41513162900833 423.705952743412 L 484.56615394346943 636.6419752226509 L 526.2974328502222 202.08759551981845 L 502.7109915973899 390.5669303946991 L 195.34441496070056 180.83041715605438 L 386.2809791347746 484.9851638127716 L 184.46224429870512 517.6185962442141 L 620.894917084713 496.4491989457076 L 422.9271887484347 490.58217152268463 L 584.717082314018 163.61481866109665 L 304.12747145610786 399.6425094880911 L 253.94617579425358 210.1920507117089 L 337.60755652319574 638.9967557372424 L 323.1148530179314 432.88982381002216 L 662.0681576151646 545.5569603137624 L 383.9567473971393 295.67776694716963 L 560.4041318333748 230.76798710544472 L 148.54790020767658 375.01403945878366 L 360.8112226046612 337.5679714298367 L 297.21360666891 680.9970999828272 L 509.6521564460825 365.00725132107874 L 586.7032039568476 528.363294525641 L 385.22605305467647 142.34519256812348 L 448.03212295331764 358.1387017665817 L 107.33157734657823 342.39142871826175 L 455.8616824749816 511.2833444796661 L 305.22928887355897 598.2178029742171 L 657.1826703128634 344.21579105338026 L 441.10878390249434 434.458375514484 L 411.29427695278616 103.20210521107953 L 291.233285069895 477.9038223305452 L 196.27008400847814 339.2782404420546 L 496.86991631176113 649.8156408099219 L 377.5843580568858 437.2850517238746 L 693.3288719053344 365.1413094720491 L 299.7171021400164 298.1948787817572 L 427.2840634832449 196.60651073778277 L 164.4526718101783 536.8222451051346 L 369.12133147853615 387.4880068072387 L 479.5668600171974 682.4329644661116 L 490.26988911792796 277.8965546741181 L 597.551474162936 395.4612977160933 L 225.5619270865796 185.41070502810487 L 405.2341399337744 377.50994869562413 L 135.49685996764543 521.6017876303976 L 542.4444955040824 474.21114183440864 L 433.8400687527054 586.7184878418299 L 587.3679374297592 191.44008538210937 L 412.8042454866863 400.92790435219337 L 240.17127664821498 159.8604811112199 L 346.1385446862329 560.3948655466768 L 228.44232934793098 459.83993393294907 L 638.1147857292852 554.5139955990016 L 400.2155253312781 402.5604477878987 L 610.1283770608036 206.758068439102 L 224.9112518704979 370.3673699761496 L 318.0913730952188 247.14735467554192 L 283.1550010749162 662.150631572618 L 407.48053831133547 398.16704174614006 L 620.9954725088422 575.4151060213301 L 402.10561881080093 214.25972926257012 L 531.475653118385 300.414934222603 L 120.13096056089461 324.65879551628655 L 406.93951075496653 416.56965028007494 L 262.9279131820034 642.4284141462906 L 591.6757260745109 372.01390348048164 L 512.5884211932788 508.3530725016778 L 431.1158164910426 109.34692445555646 L 375.9975762826014 414.81307004634783 L 142.91635785853322 303.7373895796706 L 459.77914369676444 592.362250510673 L 315.5703880761112 520.8229379773807 L 694.0892549024215 385.3804802929093 L 374.9825258146378 370.8499159606881 L 454.2021096386036 135.28033672251547 L 212.56815152654514 492.30815225759574 L 275.6241800572748 339.36749319764095 L 460.592786201055 689.9828541734495 L 431.4876639002938 363.0104988536129 L 665.3150455449427 412.11805633110896 L 275.46206011536276 223.3001774084244 L 437.8370407306668 276.49166249929823 L 121.633992000354 505.5119317201925 L 450.0621437512001 430.6180487037555 L 428.79008229640505 659.0653982374852 L 560.1768663276441 244.60113130537619 L 518.6405653870233 416.83465270657075 L 251.89389391780637 140.50171986795334 L 373.7089953321015 463.49223424114797 L 153.62694213874465 467.3894440049421 L 583.8241230232355 538.074300837239 L 401.6952119581969 510.3303894184347 L 633.8596628593402 212.8336204401445 L 323.508633370966 381.5835686721004 L 297.3503972022297 172.17009860541793 L 289.1978172350945 608.7875806704925 L 300.75237156465903 417.20849545014175 L 621.5845517248426 602.1362225079163 L 407.07129628910553 311.7410624353488 L 604.193948116225 266.32558891304006 L 170.65908228742816 321.0397342416145 L 370.6856630138937 313.85570718552344 L 234.8011342990084 650.388718565774 L 498.01604255595817 392.4999464921921 L 559.728781259966 576.3606264036989 L 443.3220565024226 155.35139575900376 L 471.822138090748 362.2133186085325 L 127.22562198930808 275.92405853908787 L 424.89226138172126 505.03892731614667 L 254.67023502084984 580.2595213595426 L 654.0195141672637 404.812456609815 L 442.56930428223535 457.09876599999046 L 479.9206095484186 111.8699915291811 L 291.3092950431549 444.5518176317477 L 205.09044347942793 287.83048761474777 L 435.52028420705733 656.9339844916902 L 357.22642720581854 443.7741189577971 L 696.0562471757224 433.97408797122444 L 334.20403500616015 291.54989126858777 L 477.9784892257096 196.47489225526064 L 146.9346859568354 476.537369245468 L 358.3271182204927 370.40515618615234 L 412.4739641356904 696.3780180521337 L 503.9361545752818 312.1630147339323 L 606.1556536639223 443.84753111160626 L 282.9541006666385 157.7051165917846 L 418.2292446495976 363.31734050410626 L 110.85079523563087 458.1265731629053 L 509.810994273353 494.9277344017037 L 389.17761521936825 603.0467601228388 L 624.7202996431354 244.16228744839677 L 429.3456545045951 409.23486427776874 L 298.27931890026946 125.35027547868202 L 318.62265554255606 530.810198563755 L 205.373882769166 420.13132465990805 L 591.7292777464821 600.6562136135418 L 396.9611718964397 420.304194012208 L 653.3751231137189 257.932928425315 L 250.08256853877458 336.58163343581305 L 351.84037085987325 218.5166350901786" stroke-opacity="1" stroke-linecap="round" stroke-miterlimit="10"/></g></svg>