<svg version="1.1" xmlns="http://www.w3.org/2000/svg" xmlns:xlink="http://www.w3.org/1999/xlink" width="800" height="800" viewBox="0 0 800 800"><defs/><g/><g transform="scale(1,1) scale(1,1)"><g transform="scale(1,1)"><rect fill="rgb(0,0,0)" stroke="none" x="0" y="0" width="800" height="800" fill-opacity="1"/></g><path fill="none" stroke="rgb(255,255,255)" paint-order="fill stroke markers" d=" M 400 400 L 325.34818336774237 394.75968865312467 L 543.5181214189034 420.2487750809538 L 198.6538753427092 357.0329736575718 L 643.89572744744 470.2196197769099 L 131.68065593903998 301.93149784307263 L 673.40435713044 522.255748579682 L 140.3450744629224 261.31223956945394 L 629.2061462620879 543.9095739880627 L 214.41947380959468 264.4812857364658 L 533.3126128820493 512.4740762223022 L 322.5191598843551 324.73399170562215 L 423.19481733157636 425.92801425376484 L 424.9094997007866 432.11318507596144 L 336.88450278390593 305.6642397805091 L 488.9676210081186 555.5401743473424 L 298.5246972194578 189.65549452954485 L 501.15972032674176 653.708028164232 L 310.05959726271567 118.56982844884618 L 470.8753253348805 690.5741577739002 L 352.2166969603646 120.22799157261466 L 424.78962192901315 649.3794377110446 L 394.1563021810941 198.53577472530196 L 394.26031164873893 539.628439879676 L 407.6666359442035 331.31834777102256 L 401.06339009335073 394.1973170053258 L 379.9719199541849 478.00371801515126 L 447.41000768526465 257.608692072214 L 319.82076777503113 594.2323478063159 L 514.4121281344077 169.98468367726528 L 254.28660101830303 647.7514013089362 L 569.6972418295007 152.87679176909964 L 217.52280932888777 629.4675967252365 L 581.1129551098896 202.40394188082738 L 236.0332807360467 555.472508976298 L 530.930457901965 292.21725351599196 L 316.50106615790514 459.4406219756688 L 424.67881929017153 384.91786229343467 L 441.25878640101007 378.59953839261345 L 290.84098003081755 447.23702374876103 L 573.4598686896005 338.9679511762041 L 171.2825337639369 462.86655667636074 L 670.1275660784074 345.75984218688006 L 106.00919354907575 437.8609283205593 L 698.0748478008165 382.6934425417036 L 118.16327265901077 396.5936286116377 L 646.4827911497938 420.2985729187114 L 205.14009803325993 370.1013581220201 L 531.1886115209065 429.6575772827003 L 339.3351063555237 381.7373041743252 L 388.9702332435717 395.8169234954848 L 478.26099108861166 436.13644686612065 L 264.03626219543287 325.2527518777155 L 580.1023054361054 516.1372803061133 L 191.97720884886428 244.2037174118977 L 618.6638092082208 589.0543884315814 L 187.3941545717716 188.41783250581946 L 591.9561469966421 619.8661499337647 L 239.91717617081645 188.3900955657034 L 521.2271467012591 586.0180880581745 L 319.9647002460856 256.0673417356776 L 441.058826518944 487.80543254448435 L 391.7241119953369 378.4921368436663 L 384.682943636454 349.9955518349567 L 428.0011588729003 521.1400489966671 L 370.5113568235087 213.81134913523917 L 420.9187945657785 639.8555818804695 L 395.30199531685633 122.2395672028249 L 384.201743678463 696.8501067427051 L 436.62920403777696 104.3149886761791 L 346.24517597074436 674.5698654249748 L 463.514309145761 164.483768013158 L 336.934459058961 582.0408345128931 L 450.73831305534134 281.1797627565582 L 373.73706214482667 451.23687896657697 L 390.84883505850456 415.137722402278 L 452.896665383008 324.9293643786207 L 298.7976204239306 524.1532585359813 L 549.4972298861119 240.80310823483342 L 207.13254989990554 578.4993542718846 L 626.5604193155259 218.04276409234288 L 153.51666589713992 571.0143138473466 L 649.6450822571868 251.5465021344599 L 165.5048401443439 518.0556815299173 L 601.1237246874853 315.83758227980286 L 248.69914021408087 451.189018971885 L 488.3494022050186 376.8604833091821 L 383.13739245638175 403.17440971390704 L 342.2937362248709 406.7236458528094 L 529.5422593964182 394.0484990189185 L 206.99425802760362 395.3338566109914 L 643.1548542248313 422.98623642320746 L 123.79841288910649 354.1973625324487 L 689.8562503769962 469.21971909622977 L 116.47360642428345 310.895578430106 L 658.3509190379391 501.5685457072823 L 182.9332363984392 296.5702325758921 L 563.7224018467834 492.60191747193176 L 296.7321848765629 331.62771353570116 L 441.06290607634793 431.5353475008169 L 417.64563932639686 415.6328607188625 L 331.7738555584782 330.4410907513178 L 507.09200853029284 525.6974125966512 L 267.98267313407104 221.03437264704695 L 542.3073499956604 624.2435857108347 L 261.19182362408264 143.1109488207053 L 523.7567232552608 673.2146951607083 L 299.51150368873016 129.1215951527874 L 473.0352823139519 649.1461960971725 L 354.34388093981727 191.00004924349892 L 422.3516005260167 553.077826617049 L 393.5869319079465 314.54789730397795 L 400.0543745096931 411.2656921313299 L 395.8349072731693 463.7371066363655 L 418.2111943912646 266.2606886114903 L 359.7063234929349 593.3870633608085 L 467.358981496282 161.72052572453842 L 304.4609398830274 665.3641210198437 L 520.585226875644 126.80061691082744 L 261.6500245160092 662.0583360936333 L 545.2656957390519 166.13502136933326 L 261.2306895997206 591.9705344212621 L 517.6272312380868 259.2062995011553 L 317.87483019373155 485.3623564125568 L 434.10119149858576 369.19598350570584 L 423.18345276320804 381.83720442068056 L 314.6755936240552 457.68453492733124 L 547.1782096622046 314.8699630331534 L 196.6497245829874 499.3138451391021 L 648.7179841680638 299.43595069958263 L 121.0638749104354 490.6294429623772 L 690.8733838876826 327.5624935170094 L 117.06468998740047 449.73017346445107 L 655.2405015919542 373.3830542865954 L 190.3685235827183 407.0933896059264 L 549.5183476444647 405.42349658603814 L 320.4297079844716 391.50653884976447 L 405.28516144254553 400.9422074251541 L 467.5201254151936 416.98938960068864 L 266.75217763652785 356.347647507319 L 587.0328289010024 476.15281441110426 L 174.81937749413916 289.345206593798 L 645.4866539789173 542.7912042787865 L 152.59365479224525 231.8597276986767 L 632.0600736904253 582.7174272460361 L 197.9256818918409 216.56916254269214 L 561.2767525795832 568.452200358138 L 285.7221875990907 262.5371085185144 L 465.98260437574345 491.7482233474265 L 378.91615683191765 365.8719176398443 L 383.5880726963116 368.72900325314936 L 443.57637153723323 499.3809200392524 L 341.1700167605429 235.34131688588337 L 462.06445434884586 621.6083694923547 L 345.3944734168319 134.69362152599683 L 439.02174452883514 691.8771630456042 L 381.1993964237091 101.12845925029842 L 397.9273884585462 685.5093223738694 L 419.5878968458157 147.23840012784925 L 369.8152575249196 603.2641589322648 L 431.1766525687033 258.92951388103774 L 378.91963739220245 471.2689879376346 L 399.8141301186928 400.4973204229025 L 431.2568165370021 331.4393417473509 L 330.56642750474083 527.7550077315124 L 510.9448332227484 226.11298417313475 L 248.6701908829281 604.1048144918367 L 585.9035423072203 182.8711248458274 L 189.7434685006747 613.3232091620273 L 620.7366685511693 205.39841481517257 L 185.13704141560717 564.1802762903768 L 591.6271944050712 273.7955551884693 L 248.34899299851287 485.2880237505902 L 497.18036828286483 353.98444449500533 L 368.08382055745386 412.45802678355466 L 360.69634004815464 412.2470643825337 L 510.9400623011038 373.791839887282 L 222.7363582569716 428.9528017737331 L 632.8900601513367 378.5556131850163 L 126.71347172735562 405.9418518125671 L 695.1989092154852 414.28191713920836 L 103.04322954467563 364.66765598914907 L 678.6259761843646 453.1538912841018 L 158.00624562846906 335.99013862235694 L 590.3880448192139 464.92982940690257 L 271.6503883727204 345.92341783839595 L 461.19018195690217 430.99277616780165 L 405.5187557333446 403.29997274909834 L 333.52494483423925 353.6385147467016 L 517.1399281012247 494.54816253242984 L 245.85226223115427 256.63807382751645 L 575.5912898993064 587.8979031970287 L 218.84472093099617 176.65471386702626 L 572.0862329733213 645.4899517259175 L 248.99588672823035 148.83313707170822 L 521.5769485177533 638.6150770430173 L 311.9061739476291 192.30214316949127 L 454.98182457948866 559.9639469290781 L 373.6820211372947 301.4578505135647 L 405.38757413873964 427.87826553214313 L 405.6650407072937 446.6604729040807 L 393.9431815876313 280.7251821685959 L 396.43488872074886 584.2684795534494 L 421.21275742105627 163.42435282623708 L 356.20516773909856 672.2287056570307 L 467.4770257760992 111.28021351124102 L 311.87347966539767 685.220488603861 L 501.7933490662962 137.36157489730164 L 294.8227925707496 623.5057248876432 L 496.0296833999647 228.28843809392984 L 326.5515571790197 512.1064660219322 L 438.0310189255992 349.98101294434923 L 408.12963448546543 390.73393060808695 L 338.39074630171416 461.0150166672925 L 517.9608448084581 298.5127377013408 L 227.86257672364704 528.2678911496492 L 618.9865610268532 259.54164047878726 L 146.23333368754007 538.7075860809878 L 672.6323253720161 274.9177317506799 L 126.96115589806169 502.7918489450803 L 654.0240657946038 324.2015012691984 L 183.6621969558811 448.3542254393948 L 562.4045583873112 375.48542877211855 L 303.87794777291595 407.68055449749755 L 422.51470492252486 399.78265790568594 L 452.7240697753635 403.1899308732561 L 276.2443827516022 383.7562681415032 L 585.1339933137039 437.64267091728317 L 167.6951694068294 335.5391683286378 L 662.0158146916364 492.90748894662727 L 127.40154962942768 281.24870827920694 L 664.0938692799663 537.7988152218084 L 161.78875135104445 253.62319170973942 L 598.1243544319092 541.7668307345523 L 251.87194170238197 277.4543205466971 L 493.1907350171007 488.7945639263554 L 361.5512097604892 357.8465683480456 L 388.6951461459552 385.7127812950523 L 452.08623748038167 476.2479044977985 L 318.9071799255008 261.34994587404833 L 496.94582445930916 596.0957734771869 L 300.2209498515042 156.61047400421072 L 491.16676966588545 676.0491559713882 L 326.0999439567009 109.24555463692508 L 451.6365981742489 685.6874613441087 L 371.5378768207147 139.27028764231767 L 408.41061565069884 617.495489801933 L 405.0053300563837 240.80273481378185 L 390.7961099605032 490.35595347142237 L 402.83940993818845 383.6154898078155 L 414.028918842304 343.0861017293085 L 360.07653734139774 523.8833309262969 L 472.0916787742803 220.46521945200138 L 293.20771149121595 619.9967294080354 L 539.6945431756536 157.14773852917202 L 233.65097798855177 647.3300635528728 L 582.6806804904659 165.66843361341688 L 214.5477541561071 606.2931585571282 L 572.6488150165513 233.10085891331354 L 256.25762549147044 520.6761636401171 L 499.80713032053416 327.48824682825574 L 356.5282365524927 427.14700155883287 L 378.7114491177923 411.3042351600511 L 489.5010227832073 360.2396201628071 L 244.34888875967957 456.4603403547759 L 614.2003038885781 338.8938257990143 L 139.88583038974951 454.84680393555493 L 689.3477253483984 359.89398918437274 L 100.7607521886091 420.2741852717424 L 688.7727436535977 400.7024990163787 L 141.31755529420286 381.20883833320465 L 611.388576288233 430.34918734855006 L 249.22936543420448 367.4420412346951 L 481.8007674311164 423.76676841656104 L 389.9260889785388 396.29026348929415 L 341.2816551795106 373.5718566410868 L 519.317656203426 464.1039061196178 L 232.62009918511188 294.3401363075806 L 599.859718694581 546.692776112577 L 184.7388904890143 217.48880809572992 L 613.7303718091491 608.6337523133276 L 203.01616420042677 178.72333528571005 L 568.0797175777891 617.7793085862087 L 268.94072346848395 203.07702334074153 L 490.4956637307133 559.1084634817249 L 349.00194371350875 293.62749891370197 L 416.7229431247078 442.239444161565 L 409.0566671991202 428.5785569051762 L 375.7203184157591 299.39588371444665 L 428.28947722294726 568.0984800923771 L 378.1285941782209 174.40317738072383 L 407.13238116945354 668.4217089675246 L 412.763749527175 106.87650148580997 L 366.023763130387 697.803719031401 L 452.4419536913883 117.71082291750349 L 335.64432276095107 648.139588986003 L 466.624647912671 201.51171616443003 L 342.7514563574427 537.7323322892039 L 435.5837265138909 328.8964246451915 L 397.5373625822008 404.16392249023386 L 360.1542947497931 457.72425421203593 L 487.83156320303283 290.10046045152455 L 262.92222012385986 548.8247718425481 L 582.6971463092955 227.60948213425206 L 180.17061105101618 580.069494790848 L 644.1468293953956 227.09188226998356 L 147.68350451837634 553.3581152152836 L 642.3705726992816 275.03245250977585 L 186.05383577517398 491.9648988673978 L 568.3684539615009 341.21927536086747 L 291.43280008508106 429.55750911982307 L 438.83340478438413 392.30069298858325 L 435.5607166985725 395.508311023019 L 291.15860268428935 406.0538185509247 L 575.2653190725275 402.54475800703614 L 170.3487384029065 380.5249768697326 L 667.8586462403398 441.76653260213374 L 112.83446663850486 334.34630009498306 L 686.5087616018207 487.0119554103903 L 133.4371633970403 298.16271371254396 L 629.650459059096 506.7179858029743 L 220.5054371683371 300.75191009298527 L 520.8376769479102 478.3378928744784 L 341.0322979775319 355.612493439499 L 399.19844808805925 399.3035720680188 L 453.6424232418313 453.6445089699518 L 304.3334958430596 289.8842391945058 L 524.2736073306733 565.1077665885371 L 261.6376278857629 186.55525087413045 L 538.3827189527931 650.2942522021365 L 273.77323418457667 128.34022368280432 L 504.9715075165926 674.7988243667417 L 321.4981915214999 141.47688887141078 L 451.0545025243749 623.3494468034531 L 373.26762783162786 228.5151783661858 L 409.039678071949 506.6459619385825 L 399.5115647369335 366.2696148161024 L 402.3170494502644 358.3710375734079 L 385.6489752674806 513.581589886398 L 435.0204692920037 223.40138808153947 L 338.46738757646057 625.9797595994851 L 490.1812164003988 141.72187940660228 L 283.2396867579489 671.6008460219339 L 537.038618972434 134.24333785012715 L 252.75557226093292 642.2365683999159 L 544.5094494202576 195.96900353633404 L 272.7759265459893 555.3032189306845 L 495.265511767403 299.04675911060025 L 349.92672349268486 446.1173092780508 L 394.562148229976 404.3455773069713 L 467.12042809097824 353.6721883676373 L 270.0305526010627 476.8600337309383 L 588.593054708022 305.6279280528885 L 162.2681156040779 498.80258980187824 L 672.7747559408001 308.45212907507755 L 109.78150177637468 475.25691382333457 L 688.0250664413304 346.50405312768294 L 134.1606883528292 430.31896729053904 L 625.0447259856653 390.2094344864977 L 231.34920769512632 395.5121248459084 L 501.02254910643444 409.79800865256806" stroke-opacity="1" stroke-linecap="round" stroke-miterlimit="10"/></g></svg>