<svg version="1.1" xmlns="http://www.w3.org/2000/svg" xmlns:xlink="http://www.w3.org/1999/xlink" width="800" height="800" viewBox="0 0 800 800"><defs/><g/><g transform="scale(1,1) scale(1,1)"><g transform="scale(1,1)"><rect fill="rgb(0,0,0)" stroke="none" x="0" y="0" width="800" height="800" fill-opacity="1"/></g><path fill="none" stroke="rgb(255,255,255)" paint-order="fill stroke markers" d=" M 400 400 L 375.38145470572687 119.62995069896084 L 208.109867713487 433.9605603750902 L 361.94320013491813 258.5071685028877 L 121.67682552726848 501.70023815816586 L 424.87001717994696 453.1144960413068 L 178.78792603705116 528.2771076410527 L 535.6204653153702 592.7764298104416 L 329.2789733927256 459.6475262604356 L 612.5646475252523 611.3581053929632 L 473.6634241727216 311.6454097308724 L 580.7428958723202 525.6228168027062 L 532.8385770278725 167.88708042683382 L 431.7278440155957 414.63644175318314 L 498.52900421233505 125.51876939073782 L 238.50635174625555 357.5479243264026 L 429.68714177273563 226.50713964158027 L 112.1172854914779 376.3723178287899 L 400.13651448989 423.98222491784657 L 128.9380447620345 425.3568717622333 L 438.21990851969423 609.0167470686968 L 279.35636520659364 433.18662132845697 L 504.25723994350574 680.3599615124854 L 474.04590392321194 364.81390852929104 L 522.7668876855917 608.9597317973628 L 603.4725937620133 255.11622414867225 L 445.0493642212589 452.7999440786332 L 608.7995841124002 187.6039974677221 L 294.4187818507238 312.98825168432546 L 514.9693363623172 232.5592836757598 L 158.4180316783059 263.56191127474744 L 404.5549393768441 389.97651225713594 L 131.14816342253346 305.21581506794905 L 353.6451284040687 580.5131997083287 L 246.05782918644593 374.55933266429 L 377.5886789691003 693.5493840102683 L 447.80861649861464 399.4556985100396 L 425.8178737146427 660.0207286854248 L 624.7640313250964 357.5770247748517 L 427.86368404368187 499.08412044848615 L 680.5858227730932 293.8368590432996 L 354.4869797319426 305.61176907233903 L 595.4446103956866 283.67187133122945 L 246.66180983802565 187.22794808384305 L 434.7115906185809 370.04067980237386 L 189.16196500579062 195.07888545293213 L 300.387209279512 522.2831456417864 L 247.0523920717336 296.2581267659761 L 260.93057507839694 649.5479279783971 L 411.8582319647709 405.30746605219906 L 309.4901890052333 661.4645647336001 L 598.4246760246344 449.752225186449 L 378.7393990632762 533.3631070326255 L 697.3315663888347 420.9984435829374 L 398.78189134574535 328.67562624639356 L 647.3199715109312 374.02069694302503 L 353.4732764924918 160.96741855745762 L 476.95659695093826 377.8853885757202 L 292.61477853661484 120.9930813838339 L 285.98778345071105 455.7775924521145 L 291.01199008046353 219.23680045586545 L 179.37481334794498 560.9136813982079 L 385.5277219914556 383.42377513666736 L 200.2367579091948 607.8858707624054 L 538.3450769829108 511.3929292668876 L 307.97500117726463 537.3498194045367 L 655.9490476213189 540.7332911246344 L 414.88675440009507 366.22490121897806 L 652.3607009616744 485.7528822917394 L 452.6357972014055 184.8917969192216 L 511.8877003219874 417.1845201659132 L 419.41965104827045 100.79688892193343 L 305.62324657186787 402.1492388006752 L 374.17828098090035 166.95590809975928 L 148.26709613405825 450.48767364654503 L 384.0296203425889 345.59333762047856 L 124.35874970278655 507.89525429550343 L 465.90555326767407 532.7940145883615 L 234.98093183848005 500.7805900321421 L 567.5453122139048 626.9923597723284 L 401.4866975216831 398.6870143564476 L 603.5440228619352 593.3746622943888 L 522.2850638636005 246.34500869924537 L 520.7416095311864 479.9053739289211 L 541.4372003604501 139.26641093118837 L 344.41603679714 375.8776669929503 L 480.56293656499906 158.40698691494384 L 169.54834163102572 344.9981588959436 L 413.24780237540216 310.3458942116391 L 100.84960856986913 382.2931722682525 L 403.32563448491885 516.816081511194 L 182.7122665594177 425.3287317433039 L 454.2622961766816 662.7859878568303 L 368.4177714764911 409.46615232254067 L 507.6698184713239 670.5184923898764 L 550.6159907005583 324.1778565911749 L 491.74666635570566 548.3221271847035 L 631.8441039962743 226.82623696731687 L 382.7055560453512 380.64067472190794 L 585.8118035188667 202.17354683936517 L 231.89506751461812 267.77099799268797 L 467.47110894386026 296.7753330158049 L 136.13976705029472 258.8046909775037 L 367.0425722179317 477.1416954704813 L 170.77455883189774 325.0083950372453 L 343.14886568451175 644.351436961723 L 333.19430422681717 390.51666518463026 L 384.1072051849066 697.1724041358885 L 538.4967440470347 395.26800462733723 L 424.4872195566436 600.1551363976286 L 672.1238069801288 342.1925886901988 L 402.6410771597007 408.63253236503 L 663.6797474841638 293.3094201436528 L 314.5473498649442 232.63252582260228 L 530.7878539563142 318.0664170443333 L 222.25417368423763 164.83875614196094 L 363.07380471764156 433.3674925200206 L 209.24343117220772 222.861639989925 L 258.8282085188158 581.5917772604469 L 315.0925244349935 345.1888782689958 L 259.9717938218972 665.2984162861235 L 498.30614261283114 441.3394391059591 L 330.907841777679 615.3327115514542 L 656.713162238735 458.18887224837175 L 394.0787488425749 443.4901169147164 L 693.2807842723191 414.0109575317229 L 393.6500726111379 240.72184942646254 L 581.7594355611507 376.7124822035504 L 338.91940858411334 120.3102539301704 L 385.7071416446563 404.4619538235088 L 295.0554637966156 144.82277488996363 L 217.0545409389846 494.72296636269914 L 328.6050121368506 287.46351636382735 L 163.06505435234703 581.2148628760365 L 449.42564704483766 454.074993267286 L 232.5752208863368 582.3671530620563 L 594.0179759523321 549.0679983535755 L 357.98550212294646 465.90462885184513 L 665.028598920683 537.9626584691705 L 449.2202602669797 281.0629168878695 L 599.9998769959718 462.9190472261173 L 459.02452645489825 132.5476635693384 L 419.858317145625 402.5886964599539 L 412.0949489315649 112.50026417642715 L 220.97433630337346 408.15812234581557 L 378.2764227083911 237.7781005344241 L 114.56104905854045 464.04056313493146 L 411.79657940739384 437.045038747862 L 154.92615264667856 502.4242241637717 L 503.56015356531856 597.2552500548566 L 306.3078266409658 460.1905408169559 L 583.5412165264213 637.1666965317146 L 470.69728642826635 334.638738473672 L 572.7002300305992 556.7477066451918 L 555.8799288475476 194.70773939198958 L 446.33609869956166 429.16985794207926 L 535.0313130541933 136.95754340013713 L 261.1028273339625 343.443443536216 L 456.527441680862 216.67821418171826 L 123.50507356251035 340.6283314962077 L 399.5096223788416 403.9364508335566 L 120.13412190053987 389.8217265349676 L 410.13256648453444 597.6114885397092 L 258.3288838089923 419.7930908530284 L 466.6476056663082 689.3385986452786 L 459.4767528431428 380.6867224201318 L 499.12788613123473 633.4427841150557 L 610.2110491026535 288.1069957512277 L 448.3855730802864 474.38214501267703 L 635.868213479563 215.30741638178623 L 318.93373801050353 313.31077695256397 L 545.1893946925145 238.19313557399911 L 184.6696846912995 238.42220592969016 L 416.364736233219 373.67353765334326 L 140.65700097809702 268.7276386719185 L 336.68999726103755 558.0528745707348 L 234.59751659864034 350.02722935235073 L 340.7522385318609 683.7778808123695 L 427.7396429140721 403.2953858437558 L 391.70604639279435 670.4280090416833 L 614.9155160893165 387.75322388913463 L 417.4975863905721 520.2421312958417 L 691.3680866031499 331.1360582146268 L 373.0402947711804 318.55663453719995 L 620.3669214497853 304.9404049223898 L 280.34740027950295 178.26352107399552 L 454.7358126330545 363.9492987087815 L 215.35566567649414 166.93871689305416 L 298.0478054765442 496.4328906938102 L 250.25310347914544 267.1629236333658 L 233.8601829915202 624.0554037514235 L 393.9959067886516 396.31502449711354 L 273.2708335774268 653.9446116677019 L 576.2753683206024 469.4474795378718 L 356.68973140364824 546.3545499302415 L 689.2495742588197 458.67392115615803 L 405.80924935663353 348.6035530608794 L 659.246786984258 406.47418271073855 L 385.52794173187834 169.1738852343616 L 498.0755437587168 385.15751444810326 L 329.34588183215806 108.48086047094347 L 297.19618661999 434.68106675175466 L 309.77066415734976 194.06173315155908 L 168.2349597347799 526.7728588650882 L 376.7386023350602 365.1160995172095 L 171.22246597783527 583.3797828378454 L 511.35445563348054 516.3934555165547 L 280.2176878000981 536.5886140474674 L 631.3989494524026 569.5522816269977 L 408.78585819125715 385.5003207349079 L 646.8730207546525 521.4498577307974 L 474.9412249322996 206.55856984606265 L 526.2983786599763 436.5945305784973 L 457.6746494494249 107.12982351655188 L 325.2471908233902 391.981498321917 L 404.74998721419763 153.60566702392597 L 154.7591350939294 416.7777941666809 L 388.16287293225264 324.6834339094916 L 110.20416641089236 471.98537165951547 L 442.42050895478263 523.4215293726078 L 209.74270424006696 484.65304166814684 L 533.1910736613252 640.2405000394887 L 385.0424420883284 410.09751921366995 L 580.8904040260165 623.0581437208951 L 529.9266982080677 274.27391996151835 L 522.4083627105437 506.1203130752341 L 571.8095243157578 162.6989357913176 L 364.94856487242885 379.0329635807164 L 515.4868959146588 161.83481881903816 L 190.56572056612418 320.23105710833073 L 429.87908000037413 294.6386005691162 L 105.38805725088616 343.72245767743016 L 390.08663999614475 497.6564569682139 L 168.0462436692403 396.8490987532936 L 419.1317428873239 658.0672312389129 L 347.8859450035379 408.49475428172 L 472.82797821764575 686.2145378293235 L 543.1653330215397 349.8804606109883 L 478.35258510221126 573.4322440292158 L 647.11720812456 261.1515727722332 L 396.6427989809046 395.0874770862194 L 615.9534825173037 222.8240056007101 L 260.55455341694676 257.52742292848245 L 491.9492446740432 292.70990243701465 L 158.28897919088823 227.08613164356092 L 367.2187987286016 455.5165489500869 L 172.1309121426361 291.1033879612976 L 316.0861326631966 624.1443849788283 L 316.3227474653772 376.7840476579821 L 345.48702469245825 694.4594240068038 L 519.9579106477498 411.48776147352464 L 398.2953434431873 616.0186065750283 L 669.2231688485565 378.4996373071318 L 404.8324666485642 428.61951918490513 L 680.8037734575862 326.8444186371513 L 342.2815349555595 238.08971767863005 L 555.5783512704955 328.6442772598798 L 256.3095097205123 147.6396590395782 L 375.4030196177364 417.01569740503714 L 227.7552242996267 192.47730257600193 L 246.04081912210256 552.4135309552154 L 308.6751220705872 322.63048146197445 L 227.12449752165938 644.5876663347859 L 475.76008844838486 444.1548666349139 L 298.2612753645432 616.0435113597794 L 637.4702257004482 487.3647820553331 L 383.34470198741667 461.38491840960745 L 692.409595027867 452.4137693304877 L 412.73936432581075 258.48852211211806 L 598.6922554791068 400.4368905576639 L 376.1508528787657 121.36234140971777 L 404.98611102988224 399.1288647156681 L 327.0545028794605 126.39600787358506 L 220.46151953326037 465.15684812914867 L 336.30400636531886 263.1829394580135 L 144.05392930079745 547.6676919896013 L 430.78814625525257 443.968641964721 L 202.1667607110073 566.1134397685753 L 564.5353195208692 564.3224491034002 L 337.5169251228348 474.61030896147093 L 645.8997727938479 571.7123049745824 L 455.01888454287604 304.3522794402312 L 602.7576593476496 494.07583862585125 L 490.11599690423793 150.68099978960598 L 438.6278089162919 410.24500733353574 L 450.0148399882567 111.52810048624951 L 237.82377626589349 386.33048582716543 L 399.37087511990086 219.91278667039845 L 113.74883161177286 426.1429728959795 L 403.36471703416146 418.6323910567093 L 135.33272508481036 472.1789925985248 L 472.3739754935207 595.9398325096139 L 282.7248200824961 455.4125715451735 L 550.7357614059221 657.8616591315835 L 462.90336211485686 355.417432426357 L 558.8071337776565 586.9603368787647 L 573.5065302857165 224.27949414736665 L 457.24993332723557 447.3926622879794 L 569.4496152259355 154.37367775596655 L 284.95338121746374 334.69112643814935 L 485.9729301271532 211.9092342648475 L 140.3927196325106 307.83271894478247 L 404.03036044965825 384.4471737213777 L 117.3317882724487 352.6471665532202 L 385.7168240764687 581.8169097674162 L 239.67561595174678 401.4727314378288 L 428.3464565780927 692.0160373707761 L 442.08260268383333 392.152929273333 L 470.8415355349578 654.0569542385848 L 611.0127469213874 320.69066189341385 L 446.5500715763964 497.0840118411356 L 658.1054761522771 247.14386424412825 L 341.69455007305424 318.71916609916036 L 574.9864219369658 249.6406146412664 L 214.11583898383407 218.53591968284755 L 432.2011195105245 360.6474231019343 L 156.24327599619374 233.8800451516806 L 325.03439346831453 533.8263655837501 L 227.86838992256244 322.50317877040067 L 306.4762456195325 668.2616041430346 L 407.6906040480054 401.9462952787473 L 355.5342477712905 675.032714754583 L 600.304896025849 414.58883217720154 L 402.0761069139153 539.5322641678092 L 695.8967803054363 369.5756832061938 L 387.45540187684344 334.7874509319633 L 641.8471614396399 331.07698763326846 L 314.0968831200088 175.3352224948266 L 476.37845631405844 362.8416878977485 L 246.0036678215315 143.31305696089652 L 301.0146310297845 471.8623941285049 L 259.1880324506809 237.99949043689435 L 211.8435008957401 594.9473726541435 L 378.96834735044877 382.98933570364323 L 238.23729897577192 640.2909620089858 L 551.8598436284931 483.93535526602955 L 331.28435112852895 554.9779701564717 L 675.219003543714 494.19573838019494 L 407.64583808107875 369.04847992871925 L 665.6116960745109 441.39257421991573 L 414.59834919162563 182.48100045537194 L 517.8460910829657 397.5755396817169 L 367.6582611866217 102.12968964463795 L 312.1273306793056 417.4228847455629 L 333.58208739793054 171.877696682192 L 163.1867984744059 492.0966710453868 L 372.7079667737157 344.7039058761576 L 146.37359865469708 554.1302796672067 L 485.1587712483653 515.9066406944274 L 251.90246145883424 530.214703947399 L 602.8378480935744 593.5541044723682 L 398.0778056360554 402.40442731625376 L 635.2396708472145 556.4237149007367 L 492.17019018267723 230.97589034355659 L 536.7360112043568 459.69833193340935 L 494.1985683633813 119.57253621730695 L 345.9215771057085 386.96736726779534 L 438.1728682554311 145.53673831150942 L 166.65369628030348 385.67318819108834 L 397.4938022908092 304.5930536827486 L 102.07392126997883 434.06473822105465" stroke-opacity="1" stroke-linecap="round" stroke-miterlimit="10"/></g></svg>