<svg version="1.1" xmlns="http://www.w3.org/2000/svg" xmlns:xlink="http://www.w3.org/1999/xlink" width="800" height="800" viewBox="0 0 800 800"><defs/><g/><g transform="scale(1,1) scale(1,1)"><g transform="scale(1,1)"><rect fill="rgb(0,0,0)" stroke="none" x="0" y="0" width="800" height="800" fill-opacity="1"/></g><path fill="none" stroke="rgb(255,255,255)" paint-order="fill stroke markers" d=" M 400 400 L 439.1570362389465 460.4237182012803 L 457.1053749789208 272.4004643327282 L 202.94994010203055 430.62701147168445 L 564.8206165638543 584.4743656651247 L 474.00164438195065 129.0417876203287 L 116.09228280222675 490.43897186449124 L 630.0345079494266 588.857058960821 L 431.3981763406488 121.87231205296291 L 180.03448286550622 509.68976072043586 L 569.9383180435484 500.3057831401697 L 394.2641324910003 262.7876418672694 L 343.46593771581234 440.08558180668274 L 397.4202729225243 398.9725414025761 L 414.54456611333455 473.2648935893726 L 502.0239131466111 300.8786370961972 L 203.58893262402017 355.08136428674294 L 485.3997677849832 633.8330842068722 L 569.5875362761262 174.88494460181067 L 102.4692285209336 378.9483660281162 L 543.6537040705066 660.2529639513112 L 531.6036463349046 154.12163409067873 L 156.65648019174162 420.38051941531455 L 519.4774234713418 554.4054601584801 L 444.6229224418905 272.73904655608595 L 335.2747303763651 415.68514489167615 L 395.96725401650167 396.1820202628964 L 385.9142593123633 476.08797604302634 L 533.7129859302186 344.732413173637 L 232.46311748644382 284.43121059804514 L 392.77262775715263 650.3744898474613 L 641.6496403019854 253.12421902153025 L 131.11924392422162 270.2281445614173 L 437.1123910686839 694.5520814668666 L 612.4500823601107 220.93505305537835 L 167.93956125666563 329.36619288338255 L 453.2814111874756 585.6204999383499 L 486.91184095528206 300.15762261211955 L 336.7481806472085 391.0042668682192 L 396.4995211660876 392.4417752727206 L 357.3323018264513 467.7430749867004 L 547.0987729218032 398.099335434256 L 285.98935665170103 228.9523125639694 L 300.0415052895487 631.3232123684732 L 679.7472161783494 352.81018399161127 L 198.04514157580172 179.7579308816864 L 325.5933326087213 686.9797712896686 L 662.6233223308798 312.5880392500734 L 211.8295198343439 249.54051460442972 L 381.0294849307713 590.0384622144787 L 515.465989780016 340.54578977549835 L 346.9224222246121 369.58880618802664 L 399.3928805391718 388.9117552184385 L 333.13461960342596 448.72135906243176 L 539.615634220142 453.5269443869096 L 356.95363455297536 196.93677060734538 L 220.48369590008568 578.9754015745998 L 678.2241447801853 459.8572322316139 L 293.7884745027395 120.44498700696278 L 224.9463630063377 638.7273527525808 L 675.2465438480008 415.90392237600605 L 281.6801943490076 192.0405244330372 L 313.04877858187746 567.6231580084994 L 526.7728091182075 387.7312075331846 L 363.63502153811766 354.2381015295602 L 404.42290519058196 386.844301814674 L 317.27044593814514 421.1834773875968 L 511.6655056895755 503.01568302443013 L 435.4830255392653 193.45411770339285 L 165.64620347575445 500.42989932380067 L 637.0488674311065 559.0384939690437 L 404.76937889025487 100.77854453212603 L 149.43047155431609 556.7660964621574 L 648.8239289712562 516.1522841468429 L 367.2580625833331 164.689519880251 L 258.83494437044726 522.1360183331634 L 519.8951886895729 434.80725175729134 L 383.9344722363466 346.64078946012387 L 410.77045613150756 387.2994571251357 L 312.6674978015417 388.72862629598853 L 466.65432436365796 539.175736331005 L 510.4219993595803 219.5556025658227 L 143.6668484319879 406.6252720116733 L 561.8540019271244 636.1567951414942 L 515.2171780608312 123.61206254629309 L 109.68897471274136 452.8380747513788 L 587.4115178432662 599.153986255747 L 456.243387518626 170.9319904005415 L 225.7229697418568 460.51874653813076 L 496.510110136553 475.14527436380007 L 404.58224601115677 347.2040700029062 L 417.153134141204 390.8854606639709 L 320.719608044271 355.92637648971316 L 410.58704826498433 556.3301896291731 L 570.9208097930584 272.0456652612362 L 158.06627778265218 310.81337582557285 L 463.165017278743 680.0814234794993 L 609.4166433180644 185.7484733487848 L 111.24597800645108 341.770228767118 L 499.99682250775925 653.2913380553604 L 536.0074548583814 209.40562891118577 L 217.89468502383951 391.83691658726514 L 460.5707034422954 503.33010364215005 L 422.56418846732856 355.09093445456574 L 422.0618078641519 397.5768160338279 L 340.98343410973894 327.6718140029041 L 351.26776318181817 551.3998673571064 L 608.0092805339979 343.86436247070253 L 207.19023993957305 226.68290872596813 L 354.92371014656806 684.3578654781779 L 673.949233197113 278.38880343432413 L 153.7370195521574 239.35424192562476 L 399.18179734524307 671.1377593972152 L 595.4090024117444 274.2026728386662 L 235.8572684753249 325.9448924190963 L 417.6539628341511 515.8864525361032 L 435.53117052434544 368.44658585741143 L 424.0608393529736 406.64936541844406 L 371.1423439256525 308.4552082979005 L 297.2112409419835 524.432756701803 L 615.9272965572504 425.0364228823108 L 284.389696222506 166.399271421532 L 252.5140729447871 648.1572648064689 L 699.6089431883761 388.38107735561806 L 230.98126274136726 160.09606169068888 L 299.36240224562994 650.4778295211114 L 626.353708098872 355.7737557533149 L 276.45672309500287 272.0688610204186 L 374.0998504139019 511.6988747119765 L 442.10448564577393 384.7665809855173 L 422.0970976047688 416.7513274483298 L 407.2566595676598 301.65514883872146 L 256.418070118346 478.68959873649413 L 593.0145920760035 504.05942937790235 L 378.92089913933046 138.8420410591866 L 170.57073849722647 576.4258001375309 L 682.7186059403543 500.0918254682666 L 331.88206614561443 115.15652334103169 L 214.66824972646907 594.5774311268111 L 624.8979729125068 442.33641910262986 L 333.41229012635927 237.51215774133308 L 336.07409301799055 492.0759175683177 L 442.0065192556362 401.3394488619596 L 415.75887532169037 426.10469337451144 L 444.2757977018412 308.96557203784647 L 235.18993054715676 420.26036875230875 L 542.023008068224 569.5375591778935 L 477.4435768780328 148.29588466109146 L 120.8829223113346 479.20823152722835 L 625.6580101351603 597.6332665118584 L 442.02450793054476 110.77612121614288 L 156.95787239399573 511.67183895482424 L 591.7463611148248 521.5803692202959 L 398.283470296953 226.66496665478883 L 308.6932984898835 460.46269742125173 L 436.0073193527438 415.6884594695484 L 405.4323564511217 432.80697841545344 L 476.7461163384663 330.051440682495 L 237.1605278686354 357.2549644027604 L 469.795933745009 611.8282947902867 L 565.9078739714632 193.78806435505334 L 110.69473774099038 370.2382240644648 L 536.5278258262313 667.12814456858 L 545.739398694335 147.40676844091234 L 134.15470812370376 413.7514383302135 L 532.0807617977678 582.4222135362792 L 461.72136516692757 240.4527166913264 L 295.33682187291146 421.8572069506457 L 425.7078321632866 425.94162410733674 L 392.31947469398636 435.1833965367463 L 499.6150429281989 362.49679152111236 L 262.69063535144517 298.67543065294876 L 386.35060771149324 624.4636889901338 L 631.5625247339246 269.17449088485773 L 141.64743132214937 264.99372469992636 L 427.9969069360725 698.6886220204731 L 628.3375883112051 219.67158384558354 L 149.1578230003883 314.82426237260654 L 454.7556200331093 616.5589777314042 L 514.8187529658566 276.29150741460967 L 297.23787819805096 382.0268230787943 L 413.2058786824897 431.0746708678628 L 378.3043182794378 432.1277089649461 L 509.0128211610197 402.06665092779167 L 308.7259564408684 253.12686086218633 L 303.48623330496395 605.1365210362447 L 664.7965795892205 363.9694577096359 L 209.51821462087906 178.49338366034272 L 315.4973752928641 687.8263923442082 L 678.195241494535 317.15503410971434 L 199.47732828856192 228.90757764853748 L 370.98355125600216 619.6021715885649 L 550.363548696063 328.54460181966846 L 313.402039175895 346.6469860746541 L 400.70753426117835 430.99565040409266 L 365.681840613715 423.3686316117538 L 502.8914998546268 443.25704119192363 L 369.15092236826047 227.55198380929457 L 233.11168406382413 556.1013882635295 L 660.5481505663256 464.8070147017121 L 304.79684880319985 123.14846595309177 L 215.0252222915591 636.092454818679 L 688.3933666920582 425.90719645588854 L 277.6397096742908 168.0371082488004 L 292.70650194159214 591.6373629363421 L 563.81885377291 389.4023178138377 L 340.85144689852785 320.4906445457261 L 390.15208237746 426.4677526514 L 356.78802083120644 409.608389987128 L 481.4175343848589 480.0620737680017 L 435.5993942113246 226.1757069658998 L 185.5303652558369 483.9232335609644 L 619.0734340887141 557.3298946464329 L 414.0211833519311 106.97817952048536 L 140.8606084886759 550.8551466251043 L 657.6798103583372 530.4444600428224 L 372.29804173255934 140.57729217156964 L 230.8894838427106 537.1386277769459 L 553.8963496243138 450.0488195440255 L 375.1453872076891 306.7844908953574 L 382.91267931725076 418.8941092590454 L 353.59034329108493 392.4995239682861 L 447.0476950696023 506.8509997757981 L 498.61506059023156 249.81970210004067 L 167.92976033006457 398.59936723137486 L 545.9594362406 628.238421829969 L 521.683675013063 132.4455896371806 L 103.53350382816251 444.248269738455 L 590.6197012811127 615.9590975129141 L 469.88212931662633 150.07033248281684 L 193.98122472749122 464.26045543465995 L 522.6514645210934 501.94154466886357 L 411.0892803373925 306.8187967158268 L 379.61872958063293 410.01035056133804 L 357.30791104406484 374.4523989314942 L 404.26337045171726 519.2269550244831 L 549.0002818721895 295.69670278749084 L 183.2973592538964 312.17225856018274 L 451.3716299154114 667.2063384384026 L 612.4382550543974 196.0833981884794 L 108.32515187462081 331.4398154350299 L 496.9168099479366 670.4216728468612 L 556.5482006157946 194.78264262557124 L 186.7583257981388 383.61820628987397 L 475.0992082866844 538.017257611654 L 443.5200653901593 319.8567394910225 L 380.1227925565515 401.5440099166536 L 368.1295064978427 358.29484349493526 L 358.98929574673605 514.7367869726361 L 579.1605421929952 357.72640857829293 L 229.92625736733186 237.02594579379272 L 348.63781270573963 668.387003242552 L 673.2927607924892 288.96631817165803 L 154.51911012192326 228.46887242100502 L 390.006721493332 686.2770899764128 L 620.1474305314323 268.0062338990739 L 209.71121891985769 306.73943096361916 L 418.41843367701074 553.654061481574 L 468.0494266266609 343.34301024162073 L 383.6087540850957 394.9025939530941 L 385.08515125521023 346.83208712958185 L 317.77163207896604 493.318820140915 L 584.2477124772794 427.3393551006068 L 301.59073896651597 184.1076243972371 L 252.36584873794007 631.2899341274662 L 695.47299822883 397.96564207947205 L 235.50832766603546 149.95990145524732 L 285.1261511472541 661.4946021679868 L 651.9327298775455 359.0643227412271 L 259.0502170063502 244.41232848919543 L 360.86963142449815 547.2582512135906 L 481.6576504646123 373.36727456196985 L 388.81350348444124 390.9441574833491 L 406.10384993982956 342.37508980896894 L 286.8296325589349 457.41073942214297 L 562.9302137084219 494.66277215228627 L 388.376321473684 161.3303529029075 L 176.36173880923747 560.8963712068062 L 675.6904053555882 507.6092581807567 L 339.74226262288363 107.04086325988811 L 197.1364330833536 599.825567247613 L 647.7634721914271 454.87050758734034 L 327.3200690406428 205.1684814779866 L 310.5891910338083 520.402324534145 L 483.0577395232254 405.3022639374714 L 394.31557177654133 389.86722651433035 L 428.26063630054443 346.31478907681253 L 271.1185334116739 411.6881877072876 L 517.6688797918592 549.9240404093036 L 478.0537738578005 172.39028461520667 L 131.6454197261113 466.99090514470583 L 616.6298097391085 602.2829815932578 L 452.377972039038 105.76225019944724 L 138.4127942919095 510.2366005691551 L 608.6419837018924 541.8134924446189 L 404.52471934718193 194.11374359789815 L 274.4363820889989 477.5070211731216 L 472.78712668242184 434.51393939215194 L 398.8341619779601 391.23406901690663 L 448.1844254635836 358.8166939419811 L 273.5446987981172 362.45927235498306 L 454.44695768815063 584.8717762874736 L 557.8063403843573 216.17514695567795 L 124.85007068098179 362.7987780895327 L 526.5849123595776 668.4592756294242 L 557.3986273611222 146.24215467855424 L 117.09989304196506 405.6036457792427 L 540.5127334531463 607.6953544489304 L 479.59281375665023 212.26767444767128 L 257.05683283839954 425.1260623241037 L 453.02683802835486 457.0351252069244 L 401.4822373042201 394.1167079556748 L 462.56968449460925 378.6945852662452 L 294.45623778879883 316.7928771508242 L 381.98141561264237 594.0075516109264 L 616.0656551129912 286.8576081620716 L 157.23783666009638 263.1190248688986 L 418.2910084806637 696.6345177605749 L 639.8963931769695 222.6584563469605 L 135.98009484840986 300.8574669416385 L 453.3610929185769 643.4467066724858 L 541.9688378520232 256.4964039097945 L 260.2904875965047 370.947796763566 L 427.1886565195147 470.1045232173273 L 401.9275522406876 397.3330101836391 L 468.7144213973355 403.4958678167002 L 331.49529599211377 281.5014371422794 L 310.5191789607765 575.4444301605062 L 644.1927822656771 374.66939442664494 L 224.47806554400248 182.217588461579 L 307.1196071858354 682.696760329925 L 688.193543054261 324.0879707816461 L 192.11204744873538 210.84821727659056 L 359.7480351455451 644.3770375005124 L 583.1007263335198 320.0374776716401 L 282.99872284392177 322.6654481058596 L 399.3436617242394 472.4978369812781 L 400.43373631844236 399.7244643911312 L 464.9981976088113 429.79820181784146 L 379.8469734719944 262.12486370011743 L 250.38480112058915 531.2591048000368 L 637.759686681019 467.2535400330889 L 317.2256512259511 131.78105184652986 L 208.89148048944406 628.5267261287354 L 695.4993174962153 436.071364810115 L 277.2862245718203 148.23518442581152 L 272.9960449282207 610.7875818342549 L 597.6138092011458 393.5306677386509 L 321.3227019244807 286.8821479147133 L 373.58580995806636 464.6125191308755 L 397.7764469430262 400.4205342424607 L 451.2187594318242 453.68251255492106 L 432.86161415162564 262.0671414714428 L 210.48589227505875 467.2755832383202 L 597.2409838975033 551.4072425492768 L 422.4223554009612 119.2251383661067 L 137.62000639333598 541.7440755376184 L 660.8668982089775 542.6791443624002 L 379.2272334139936 121.70228292081327 L 205.28875307312546 547.8670310538544 L 584.0097388776851 466.398034710503" stroke-opacity="1" stroke-linecap="round" stroke-miterlimit="10"/></g></svg>