<svg version="1.1" xmlns="http://www.w3.org/2000/svg" xmlns:xlink="http://www.w3.org/1999/xlink" width="800" height="800" viewBox="0 0 800 800"><defs/><g/><g transform="scale(1,1) scale(1,1)"><g transform="scale(1,1)"><rect fill="rgb(0,0,0)" stroke="none" x="0" y="0" width="800" height="800" fill-opacity="1"/></g><path fill="none" stroke="rgb(255,255,255)" paint-order="fill stroke markers" d=" M 400 400 L 335.4941402909957 296.16879149864303 L 498.91371294442024 199.84740083452567 L 684.1957193137675 372.3711500236983 L 581.1685259710334 636.9275868610634 L 308.18196894199315 642.4073008746678 L 228.09568594200405 433.7431953084139 L 358.6010921954288 355.5372140003325 L 383.16891248965084 461.9796294131042 L 229.41815597603892 451.0411936672836 L 204.50805921488603 227.09835130154087 L 450.00586229679027 105.59924561833668 L 663.321798993431 292.4821688334806 L 578.8298250049565 529.6331940437701 L 391.51899280555335 518.6839618132393 L 403.14138054741363 398.3462898368803 L 508.2361634478366 463.4650360968812 L 405.7696349759149 625.5417861086992 L 160.4984768221022 557.42053542824 L 129.68733545366229 274.9100975328697 L 368.5491172840183 144.51999450548928 L 534.142481668403 291.88046342349367 L 454.0592350309986 418.9101998840266 L 385.2680778271612 333.93505363666156 L 529.1995113340271 273.3825617211412 L 655.211108736398 462.3430174619667 L 492.9892953873562 684.1061652424833 L 217.81576438132217 616.9219762623625 L 183.764568733112 368.9375582928201 L 353.53082192564057 294.02082269973056 L 395.9814843713471 405.8529128592888 L 271.4482104883448 394.1131235631244 L 288.6969426606705 201.0826561793162 L 539.0967709377871 148.23595846377293 L 697.019207116143 384.79381928756254 L 545.7885120098771 609.9055355971143 L 332.8225163836789 555.480376345949 L 346.80600206305985 407.93420438691714 L 446.04604471464376 454.2296494230218 L 343.793166936724 574.9093413869891 L 143.4835555102207 464.128810163505 L 185.17303679291578 191.7242684018911 L 459.91080292561765 124.34627120808165 L 603.5047269149708 327.57967266959616 L 487.9196765381573 470.0854234404067 L 401.2440534804043 389.4246872406309 L 519.3897158880815 343.9680112451826 L 593.0722376894778 525.4184555430661 L 394.1742126535116 688.5633528883376 L 144.67614859132817 551.5659806072861 L 174.88172062172913 283.03659396588426 L 387.24284353215677 234.05941923032896 L 440.5545208734387 370.26742265654514 L 330.7981566422092 372.1781454177044 L 367.7765159066195 216.29254406898318 L 598.3493273261993 222.65680466057094 L 687.3415887164397 484.29327217661364 L 475.06421881653887 670.644272644701 L 255.3376945269446 557.0573351844553 L 292.795176953769 379.5561130333842 L 405.09970063255486 413.2476549618172 L 318.5381858451662 507.7320488260916 L 168.48136302980777 378.7511979947745 L 270.3106772723763 141.0952348149196 L 555.0509775433304 147.39673128228446 L 651.7738018015997 398.64306416989723 L 487.00924471844144 538.3841148819528 L 379.4995656621332 442.05186633148475 L 477.61066893943797 392.03241277543515 L 515.7820835758315 549.7374659054838 L 306.5297620157953 650.842192630903 L 106.28210997079327 459.29977862837654 L 208.3733778972582 196.40261616985424 L 454.2029447361616 196.060772315405 L 501.2161729931647 369.1189732654582 L 386.6481977898957 388.318721275261 L 422.41198027894933 263.6048164561901 L 616.8213143307512 310.1025537654583 L 636.1009654168645 569.2153055785126 L 380.50511779533304 695.1810743766623 L 179.56191439677406 517.566353679419 L 261.13071418377706 319.5756085859453 L 398.66026616383533 356.7478963893128 L 332.18575945575867 445.0984633572157 L 225.30198648210697 320.2970568037326 L 365.6593723440592 132.92378175931754 L 632.398766787637 210.6101701992554 L 663.1710677574135 490.46967824538035 L 446.47108051616516 603.2359438149975 L 327.1864360053289 472.13178736581506 L 420.7020366513871 404.9390212263061 L 444.6974791644292 534.1130266323111 L 248.6138645217363 582.2368240823581 L 111.3962133462669 360.12807006742327 L 279.99649225166615 130.27798952984915 L 539.1819017097433 194.92355264194305 L 557.3376581049705 406.35555060749846 L 419.60000513269125 434.5897155197645 L 440.6327742806314 325.5093603474845 L 594.423667367351 388.9954120281111 L 555.6866255266176 621.5981611376405 L 282.5348990115814 675.9448109739001 L 126.31260916367665 442.33118694335116 L 265.87883218031703 243.75652001291414 L 429.8245684410005 305.442687852498 L 375.9512427263056 406.15005837049034 L 295.7224423971691 299.9870139830318 L 449.51549803609373 166.1090142621416 L 674.7291225922885 300.56199227955466 L 631.3191222297529 582.3665157621042 L 372.5955516701398 644.2967443392479 L 260.5533457564271 466.36452311511636 L 369.50713976346054 380.42491207097567 L 398.6942163238915 488.2416055589357 L 230.78208074943376 501.6888997016024 L 157.6685577214103 275.7472281785674 L 375.3949048498946 101.03696264686027 L 621.3489327915604 235.87639865497837 L 589.0487726152714 474.8240124862024 L 417.05809632483806 494.2607629408875 L 421.03874973240056 380.98433360455437 L 541.8416623316696 440.7811171259752 L 465.71664268014194 632.0776742526091 L 202.6901497732319 616.5463313402491 L 111.04221851644138 346.50826374123534 L 311.19778224337136 172.97273881773552 L 490.64994672274736 278.7641094637147 L 432.5874420400127 402.8138564469151 L 358.5172504005126 318.28880518145354 L 503.7468388626701 228.91821343003838 L 673.783569828201 397.0487991656672 L 561.0505597569096 653.1058041633617 L 281.20266952711086 647.0566009698771 L 200.46964980161692 421.5712857850055 L 343.0730860486978 327.1924269803452 L 389.0257553303455 429.9433583815575 L 252.47452715880095 430.61285618280255 L 232.29805874519027 223.7350082748861 L 473.90981377152696 115.75108474272429 L 679.9083573698944 312.9483272905323 L 582.7563537520195 558.1598978763059 L 376.7428280341825 546.4682999727999 L 373.10795305832403 411.3200859133914 L 477.52311739720653 454.9313962954867 L 387.7315413815141 602.3405532226668 L 157.8501764426489 530.827000416319 L 139.60124023240155 251.06164585389513 L 390.0892674292278 127.5068395283904 L 564.3105128585917 289.44688485521164 L 481.2027175231224 436.51989364557244 L 395.29378202173365 364.8952873892672 L 518.6428519474762 302.2450426472835 L 632.4557884743388 478.5124770847238 L 467.1692843943838 686.6389683896554 L 193.41437641899157 606.8691732570129 L 166.67312544722728 345.6610564326054 L 353.34611686186634 262.49194344058026 L 416.27865915141274 380.1876715745843 L 302.48169569532405 387.0626095557503 L 315.53014111686474 212.8661530698275 L 554.1066950008192 170.27792739841036 L 699.7419232028174 410.49013272853284 L 534.9574183088671 635.2058147932933 L 307.3745478208077 572.0056801680221 L 314.5235498539116 405.3003512220594 L 422.55767988319815 431.742626964278 L 339.3774964448156 544.569308086754 L 155.73201897856012 439.12999301768616 L 206.60627259834362 177.1488413674755 L 486.1968294109778 121.49379944634285 L 629.694531696505 339.9388317167536 L 503.07659386621003 497.80006802130384 L 395.53872054176793 421.6484274530246 L 495.4591990083444 364.8655964551112 L 563.946891483088 527.8251293095657 L 370.50080717821834 676.4093135967959 L 129.96880119422303 530.3009979533933 L 172.31293181791497 255.56167268187212 L 401.8123057585711 207.35663850812398 L 470.25522122838737 357.26415692313265 L 362.1142668672854 380.83166381535545 L 386.03604956076146 240.8301656091248 L 599.5124012985177 250.39441245516477 L 675.5174007052797 507.33375504359793 L 453.3040175922504 685.753387329049 L 226.34087277346316 558.6689415150131 L 266.25131583274754 362.3249258557186 L 394.84670458718904 382.16835127129053 L 329.6654909878665 478.0323104941006 L 192.87819207826692 362.81109005982233 L 296.85923013844473 140.4476493855487 L 578.1626508110279 159.0268565105254 L 667.1879404980727 421.6210392852548 L 486.88311688275456 568.8780943739735 L 359.4976257210527 467.6088422953918 L 445.9642074631668 399.256769635169 L 488.1221131155229 536.8578912270134 L 292.307727919648 627.0876587805683 L 105.62678516078847 433.4307805532654 L 220.27876052236823 172.6782258516509 L 479.0026025942034 180.79112735956423 L 532.8144345203248 371.6923536413681 L 410.4094032571739 410.82350573416693 L 426.70572832351075 294.97184764934474 L 602.9988263895449 335.6653423673839 L 613.1423526719481 582.4566283286285 L 354.6268866388598 696.0421500690129 L 154.9828359418882 504.696915981654 L 246.71331834829735 292.62020480357853 L 404.15662401906604 324.733163479218 L 356.59889785706775 423.7515117738985 L 255.68445138442652 318.4859661221873 L 389.4313942614586 146.97043788824354 L 645.3558005146712 232.98918375526156 L 664.0649231058042 517.0529553998264 L 431.8938446748382 628.5435045350296 L 298.1014020691689 484.8847709963528 L 389.1133638379784 396.38826167787977 L 426.064205259396 508.58875523776544 L 248.5926503015007 553.2582945994243 L 125.1960550255252 337.56098679270616 L 302.31986031130873 117.11678290292758 L 566.9991841994635 194.5016866994854 L 582.8946453383596 423.2616082782597 L 429.9502480046118 465.4091456570582 L 429.2736684961331 355.8501812302403 L 568.6189337438041 404.9914793444458 L 528.1662990748193 620.6072538727606 L 260.45500653075976 662.5147879751107 L 112.78590626258182 419.36441295686126 L 266.65027563208713 214.47913651204806 L 449.4072808664751 280.37234874800765 L 407.8152359446058 398.70481634068307 L 324.185300040352 313.5826153146477 L 463.29887134025256 191.50642470599297 L 673.410474443856 326.93134512346893 L 618.0133814055586 604.6318105359765 L 348.28387517664197 657.9788489360769 L 229.9598770247292 463.62706207438873 L 345.7619158539332 358.18002200945773 L 394.3107319427551 456.17637237600036 L 245.8413647202374 475.4147558813891 L 182.2571616296128 263.5101925645647 L 401.19632349194984 102.24872296253898 L 644.2606172536599 249.6081964779043 L 602.3454494996544 501.0109636748562 L 411.7081279969111 525.6729986483125 L 396.515994247504 402.6419570436538 L 510.3962768264408 442.3234110956985 L 441.5671107340999 616.3588083049651 L 191.25167815434494 592.8037211357497 L 112.06114287939624 320.5642219107467 L 326.07721939498356 149.28331606531398 L 518.9363443384705 266.60799103325644 L 464.0649152608301 411.1468493018227 L 377.5624555429392 344.4110814436914 L 502.9928308401382 259.1154145894727 L 658.0644722415387 419.4834251257249 L 537.8319241338554 664.3966640799646 L 254.4551460796469 645.9487435114792 L 176.24358490243893 404.82444477446427 L 332.8611726106998 296.9545154517556 L 400.34839635696335 399.2550020643969 L 279.36590902640984 414.3588743421966 L 260.93815145344894 226.0419039396929 L 495.2775256933388 131.09829598545866 L 691.4501407665454 336.2372275038391 L 580.975249978496 586.1561622900043 L 357.5839161203526 570.6596298500505 L 341.42030850967484 418.91317370189574 L 448.4005883985268 440.98251051239833 L 374.07112256437136 575.4866060546739 L 160.93806441690134 503.6794151544236 L 154.56829995544126 230.0355763764978 L 414.1657762048553 115.66565011474432 L 593.668269606771 292.65349768877036 L 504.57525310047265 458.32628148291417 L 399.8714825203525 397.27534713038654 L 502.7240949625935 329.26378035472555 L 606.251896399001 490.0991343691839 L 441.10675371300516 683.3947488385179 L 172.1055336920294 591.9332812961794 L 154.8516086791895 320.1338720148193 L 358.7249732618525 232.0338084007462 L 440.59407838436323 358.4642862225074 L 334.69741825252555 385.53207360726856 L 340.25309578848567 229.9482172150872 L 564.3347797222049 195.53866446595464 L 696.6772755496381 436.1094520087678 L 519.4347707971837 657.1661701457351 L 279.9532699158187 583.1874906636772 L 283.55640125252285 397.1810445684621 L 403.18264275613905 405.41080157686145 L 340.5563665643576 513.2955906667064 L 173.19676271786574 416.5197803790177 L 231.0029707667362 167.539159793894 L 512.0875651842939 124.40695396648357 L 652.3231114724965 356.78513855948574 L 512.833334626637 527.2233971778078 L 384.4225514527824 452.3217049681124 L 467.8582815568322 381.47253904284634 L 534.1532865667825 524.565852830802 L 349.5009247300673 659.1470457668349 L 120.3877555200907 506.3491366321841 L 175.45851868486344 228.79015726228295 L 420.66059031930985 184.4111433623884 L 501.41315946646296 349.709290210245 L 391.64621844689907 394.82602218404725 L 399.8201198528124 268.8549467255251 L 594.9493846366324 278.51542545830347 L 658.7227896706173 527.417367379916 L 429.1473373202182 695.6046087672871 L 198.33854219259598 554.6407962388415 L 243.64021255576694 341.01979602573317 L 390.0892415018006 349.87361662433216 L 346.06533554783005 450.3563776402881 L 220.56221732245405 351.536337573187 L 323.4884354345017 145.56635568916045 L 598.0449262023352 175.45985002020825 L 677.243371392875 446.700419901525 L 481.20690033472647 598.1068603224176 L 335.6189714589736 489.0708840564422 L 413.34103786434935 400.93494348207 L 462.7366073196449 518.7786540714304 L 282.93993694124185 600.2685949972888 L 110.75074484498998 407.79636136373205 L 236.79378087059172 152.4365350139383 L 505.6128050579296 170.95256088376914 L 562.8963377407323 379.71978077472835 L 429.91863087913407 437.0156225921467 L 425.3983721383622 327.0720122961064 L 584.0622718098643 358.6905791471139 L 587.3671743346476 590.6642537648238 L 329.3027068585516 691.1423803947927 L 134.1147472534946 487.4294458991629 L 237.7768154000724 264.1341477538394 L 415.0116565281673 294.47092978774333 L 384.5140821745673 406.81552137026574 L 286.54425892592036 322.33187634622215 L 410.3930428663422 166.02474031552887 L 653.1180704030603 257.91300896515673 L 659.2480209045191 542.7678072685907 L 413.13959499912903 649.938775746776 L 267.75139767660903 492.1215515659153 L 359.50550165332896 382.5696547781319 L 412.0070885143713 479.75036099739293 L 254.27868794001034 524.0753986195017 L 143.87013544975844 318.0805017058264 L 326.89790007605404 109.28549341973354 L 593.6472435679848 199.71269167391392 L 604.3628793374612 444.1229324433566 L 434.7551392956107 497.24120531092046 L 412.7331325743728 383.981710445549 L 539.6987037727281 416.2395751823283 L 500.7330605840166 613.8729489159646 L 241.73267282202949 644.3736687793 L 104.6939000764944 394.4432830634819 L 272.9559660710101 186.6523524281335 L 472.72932202265014 259.54807336238605 L 440.44823319063715 396.8346133901037 L 350.2033520639458 332.2735764734364" stroke-opacity="1" stroke-linecap="round" stroke-miterlimit="10"/></g></svg>