<svg version="1.1" xmlns="http://www.w3.org/2000/svg" xmlns:xlink="http://www.w3.org/1999/xlink" width="800" height="800" viewBox="0 0 800 800"><defs/><g/><g transform="scale(1,1) scale(1,1)"><g transform="scale(1,1)"><rect fill="rgb(0,0,0)" stroke="none" x="0" y="0" width="800" height="800" fill-opacity="1"/></g><path fill="none" stroke="rgb(255,255,255)" paint-order="fill stroke markers" d=" M 400 400 L 398.57864885394923 398.9701813569596 L 401.09353945266844 403.33568759175756 L 401.60732479204967 394.98593321068773 L 394.3422907724762 404.1562168492594 L 408.77466346619684 399.9422968352127 L 391.43315606686474 393.8785248294406 L 403.90307691604767 411.6464947421045 L 404.19686327535624 386.60546243417946 L 387.3366220202053 409.43149820247464 L 417.540680432703 399.7692910844791 L 384.22831045010815 388.88621136786935 L 406.81843895156453 419.9101916470987 L 406.67262254434144 378.20256463193084 L 380.4111758820609 414.79072911544034 L 426.28941415302165 399.48129383025434 L 376.97130395214754 383.998030506922 L 409.8365840758847 428.11869230295974 L 409.0323509376007 369.785578336692 L 373.5726474792354 420.22845612943945 L 435.0122473749104 399.07882304873857 L 369.66943271177786 379.218591899229 L 412.9542815125918 436.26399679937106 L 411.27400099915104 361.3628817995063 L 366.82758859546016 425.73907489546184 L 443.70059205861696 398.56260286871435 L 362.3300887309799 374.5523202545233 L 416.1681150084475 444.3382002838978 L 413.39573160186325 352.9428834826423 L 360.18240041231917 431.31683666031114 L 452.3458990584705 397.93356253533705 L 354.96075140487153 370.00345053939674 L 419.47448691744034 452.3335017973234 L 415.3959097778041 344.53401250225545 L 353.64332645290256 436.9558549647647 L 460.93966775831325 397.19283508021726 L 347.5689789197182 365.5760234437902 L 422.86962254729656 460.2422129685806 L 417.27311225360836 336.1447090317297 L 347.21644574322016 442.65011254481925 L 469.4734556477847 396.3417556995949 L 340.1623995283608 361.27388111878474 L 426.34957476365474 468.0567665605403 L 419.026126689057 327.78341467786316 L 340.90766619918827 448.393468427775 L 477.9388878283211 395.38185984276134 L 332.74870271534496 357.10066319175377 L 429.91022884496317 475.76972485326746 L 420.6539526173347 319.4585628425506 L 334.72271824801305 454.1796652136041 L 486.3276664361374 394.3148810133525 L 325.33563026090144 353.05980306237535 L 433.54730758351513 483.37378785875615 L 422.15580208684673 311.1785690788704 L 328.6671486892216 460.00233653443706 L 494.6315799737489 393.1427482862949 L 317.93096721610704 349.15452448464623 L 437.25637662473 490.861801353485 L 423.53110000318793 302.9518214566822 L 322.7463148053847 465.8550146806433 L 502.8425125352897 391.8675835438963 L 310.54253280021555 345.38783843867213 L 441.0328500388241 498.22676472159026 L 424.7794841716218 294.7866709479471 L 316.96537872749764 471.7311383855718 L 510.9524529160775 390.4916984347218 L 303.178171229311 341.7625402944488 L 444.87199611718734 505.46183859776 L 425.90080504059443 286.6914218424691 L 311.3293020628694 477.6240607581959 L 518.9535035964652 389.0175910592059 L 295.84574249204 338.2812072734918 L 448.76894338684144 512.5603523026308 L 426.89512514641723 278.67432220816346 L 305.84284079030255 483.52705735496636 L 526.8378895866816 387.44794238663866 L 288.55311307847523 334.94619620771743 L 452.71868683427476 519.5158110593478 L 427.7627182606384 270.74355440575096 L 300.5105404298563 489.4333343795905 L 534.597967123779 385.78561240816924 L 281.3081466772096 331.75964160016616 L 456.7160943317996 526.321902985397 L 428.504068241625 262.9072256692899 L 295.3367314924918 495.3360370006016 L 542.2262322103795 384.0336360309416 L 274.11869485268346 328.72345398969463 L 460.7559132565588 532.9725058476886 L 429.11986759157355 255.17335876717473 L 290.3255252143995 501.22825777659057 L 549.7153289817822 382.1952187191843 L 266.9925877097743 325.83931861854245 L 464.8327772961884 539.4616935786305 L 429.61101572246093 247.54988274930272 L 285.48080958065134 507.10304517862915 L 557.0580578973763 380.27373188745287 L 259.93762456297634 323.10869440724167 L 468.9412134295453 545.7837425391513 L 429.9786169325035 240.04462379671116 L 280.8062456419956 512.9534121997389 L 564.2473837398499 378.27270805289623 L 252.96156461795226 320.53281323537857 L 473.0756490759724 551.933137526811 L 430.22397809614694 232.66529618540963 L 276.30526413232553 518.7723450372622 L 571.2764434169129 376.19583575256706 L 246.0721176784476 318.1126795293336 L 477.2304194011411 557.9045775161565 L 430.3486060722455 225.41949336902786 L 271.98106238548837 524.5528118417756 L 578.1385535545808 374.04695423276166 L 239.2769348899356 315.8490701568158 L 481.3997747736545 563.6929811323337 L 430.3542048327476 218.3146791987821 L 267.83660155816733 530.2877715182217 L 584.8272178731388 371.83004791746396 L 232.5835995313688 313.7425346275952 L 485.57788835873095 569.2934918431694 L 430.24267231675003 211.3581792882099 L 263.87460416053443 535.9701825692389 L 591.3361343371432 369.5492406632829 L 225.9996178676557 311.793395600192 L 489.7588638425199 574.7014828708592 L 430.0160970148913 204.55717253041854 L 260.097551897152 541.5930119693794 L 597.6592020696564 367.208789808782 L 219.53241007147832 310.0017496917211 L 493.9367432749499 579.912561813367 L 429.67675428776886 197.91868278525925 L 256.5076838211003 547.1492440580672 L 603.7905280255488 364.8130800256551 L 213.18930122978773 308.3674685913279 L 498.10551502115544 584.922574970821 L 429.2271024247357 191.44957074040354 L 253.10699480081573 552.6318894421161 L 609.7244334115509 362.3666169807243 L 206.97751244215885 306.89020047302034 L 502.2591218118371 589.7276113735454 L 428.6697784483378 185.15652595778133 L 249.897234303996 558.033993893403 L 615.4554598498605 359.8740208165169 L 200.90415202700746 305.56937170790445 L 506.3914688821242 594.3240065072279 L 428.00759366990764 179.04605911784762 L 246.87990549628583 563.3486472334151 L 620.9783752727378 357.3400194600418 L 194.9762068403807 304.4041888697794 L 510.49643218697196 598.7083457285553 L 427.2435290031957 173.12449446731765 L 244.05626465887016 568.5689921896145 L 626.2881795479296 354.7694417676013 L 189.20053372452674 303.3936410340487 L 514.5678666840928 602.8774673710283 L 426.38073004200294 167.39796248342984 L 241.4273209204076 573.6882332169693 L 631.3801098214716 352.1672105159738 L 183.58385109239475 302.53650236399665 L 518.5996146717895 606.8284655341549 L 425.4225019091453 161.87239276106104 L 238.99383630685415 578.6996452693838 L 636.2496455765361 349.53833524853815 L 178.13273066195595 301.8313349821067 L 522.5855141726879 610.5586925567542 L 424.3723038839814 156.5535071303344 L 236.7563261071809 583.5965825108799 L 640.8925133988528 346.8879049866104 L 172.85358934919455 301.2764921212388 L 526.5194073501227 614.0657611677677 L 423.2337438152075 151.44681301988751 L 234.71505955369037 588.3724869555156 L 645.304691444816 344.22108081541904 L 167.75268132796847 300.87012155006323 L 530.395148949049 617.3475463176138 L 422.0105723279537 146.55759706344918 L 232.87006081381702 593.0208970266572 L 649.482413609177 341.54308835433 L 162.83609027174668 300.6101692699897 L 534.206614747038 620.4021866825832 L 420.7066768319994 141.8909189672608 L 231.22111029500826 597.5354560205554 L 653.4221733822732 338.8592101224225 L 158.10972178274096 300.49438347612045 L 537.9477100066488 623.228085845231 L 419.3260753400289 137.4516056417889 L 229.76774625720387 601.9099204667237 L 657.1207273968791 336.1747778088521 L 153.57929602005768 300.52031877741786 L 541.6123779170879 625.8239131481317 L 417.87291010465765 133.24424560128568 L 228.50926673150366 606.1381683728772 L 660.575098658725 333.49516445876174 L 149.2503405342634 300.68534066921654 L 545.1946080140868 628.1886042208516 L 416.35144108224625 129.27318364735953 L 227.4447317417337 610.2142073437317 L 663.7825794573198 330.8257765851689 L 145.12818332243637 300.9866302535585 L 548.688444566955 630.3213611800094 L 414.7660392333839 125.54251583348429 L 226.57296582444621 614.1321825644286 L 666.7407339538368 328.1720462175552 L 141.21794610428384 301.4211891973901 L 552.0879949215955 632.2216525028332 L 413.12117966869766 122.05608472238794 L 225.8925608464165 617.8863846343725 L 669.4474004431631 325.53942289777115 L 137.52453783614675 301.98584492479716 L 555.3874377885138 633.8892125749026 L 411.4214346496794 118.81747494023068 L 225.40187911033138 621.4712572475692 L 671.9006932876907 322.9333656341799 L 134.05264846622936 302.6772560339662 L 558.5810314647259 635.3240409132949 L 409.6714664540676 115.8300090332969 L 225.09905674902927 624.8814047031165 L 674.0990045209237 320.35933482474445 L 130.80674294066995 303.4919179319252 L 561.6631219786832 636.5264010666696 L 407.8760201156662 113.0967436322889 L 224.9820074002993 628.1115992398278 L 676.041005118165 317.82278416040344 L 127.79105546792431 304.4261686789806 L 564.6281511473027 637.4968191943083 L 406.0399160484457 110.62046592906285 L 225.0484261577191 631.1567881841636 L 677.7256459364282 315.329152518642 L 125.00958404869561 305.47619503461533 L 567.4706645345212 638.236082326533 L 404.16804256523926 108.40369046912684 L 225.29579379222798 634.0121009016073 L 679.1521583171238 312.8838558598954 L 122.46608527917869 306.6380386968017 L 570.1853193001854 638.7452363086832 L 402.2653483011182 106.44865626683355 L 225.72138123702823 636.6728555440416 L 680.3200543568746 310.4922791360883 L 120.16406943253617 307.90760272511966 L 572.7668919298987 639.0255834335355 L 400.3368345519943 104.75732424177875 L 226.3222543312103 639.1345655818617 L 681.2291268424656 308.15976822345635 L 118.106795826969 309.2806581397 L 575.210285834062 639.0786797633178 L 398.38754753884405 103.33137498447246 L 227.09527881405722 641.3929461139045 L 681.8794488531106 305.8916218898133 L 116.29726848590553 310.7528506865863 L 577.5105388068733 638.9063321471713 L 396.4225706082268 102.17220685149744 L 228.03712556322148 643.4439199464471 L 682.2713730285082 303.69308380779137 L 114.73823209466764 312.31970775961685 L 579.6628303348938 638.5105949375904 L 394.44701637975305 101.28093439217889 L 229.14427607016117 645.2836234323568 L 682.4055305056768 301.569334624551 L 113.43216826067322 313.9766454699569 L 581.6624887453323 637.8937664106695 L 392.466018851325 100.65838711030614 L 230.4130281440497 646.9084120638801 L 682.2828295255272 299.5254840988495 L 112.38129208056506 315.718975852995 L 583.5049981844911 637.0583848954473 L 390.4847254728384 100.3051085610241 L 231.83950183709726 648.3148658105771 L 681.9044537113774 297.56656331619445 L 111.58754902013976 317.5419142030447 L 585.1860054166283 636.0072246172183 L 388.5082891993771 100.22135578453526 L 233.41964558277846 649.4997941955414 L 681.2718600219998 295.6975169927151 L 111.05261211023839 319.440586525586 L 586.7013264343926 634.7432912614069 L 386.5418605346537 100.40709907716035 L 235.1492425383439 650.4602411031834 L 680.3867763818222 293.9231958782332 L 110.77787946279966 321.41003709676806 L 588.046952871525 633.2698172635531 L 384.5905795757046 100.86202210006883 L 237.02391712324606 651.193489311741 L 679.2511989919675 292.2483492689694 L 110.7644721102937 323.44523611988893 L 589.2190582091504 631.5902568320832 L 382.6595680696007 101.58552232537119 L 239.03914174415377 651.6970647445324 L 677.8673893256628 290.677617640063 L 111.01323217172626 325.5410874683756 L 590.2140037671235 629.70828071072 L 380.7539214932411 102.57671181916538 L 241.19024369751816 651.968740434095 L 676.2378708118156 289.21552540817424 L 111.52472134727975 327.6924365044881 L 591.0283444722772 627.6277706875796 L 378.8787011669353 103.83441836011679 L 243.47241224041792 652.0065401933962 L 674.365425211756 287.86647383396144 L 112.2992197443267 329.89407796334393 L 591.6588343954638 625.3528138585025 L 377.0389264126868 105.35718689300592 L 245.8807058195366 651.808741989725 L 672.2530886935781 286.6347340742279 L 113.3367250362744 332.1407638912353 L 592.1024320498865 622.887696652367 L 375.23956676790937 107.14328131431841 L 248.41005944917495 651.3738810156037 L 669.9041476094975 285.5244403934324 L 114.6369519551036 334.42721162742913 L 592.3563054428547 620.2368986260241 L 373.48553426517174 109.19068658828581 L 251.0552922278413 650.7007524527146 L 667.322133981867 284.5395835437864 L 116.19933211980015 336.7481118188282 L 592.4178368749788 617.405086038242 L 371.7816757887871 111.49711119114392 L 253.8111149826089 649.7884139261869 L 664.5108207031014 283.6840043234541 L 118.02301420010366 339.0981364562582 L 592.2846274784305 614.3971052096433 L 370.13276551846354 114.05998987880997 L 256.6721380336026 648.6361876410208 L 661.4742164575681 282.96138732109614 L 120.10686441541208 341.47194692151874 L 591.9545014900659 611.2179756798529 L 368.5434974707032 116.8764867771867 L 259.632879063696 647.2436622048093 L 658.2165603694373 282.37525485647996 L 122.44946736857065 343.86420203416446 L 591.425510249996 607.8728831672281 L 367.01847814777403 119.9434987875128 L 262.6877710865375 645.6106941280971 L 654.7423163870981 281.92896112414644 L 125.04912721675618 346.2695660876752 L 590.6959359236922 604.3671723449924 L 365.5622193051366 123.2576593081136 L 265.8311705017179 643.7374090000262 L 651.0561674060754 281.62568655074267 L 127.90386917281609 348.68271686306497 L 589.7642949394667 600.706339440061 L 364.17913084629777 126.81534226132646 L 269.0573652241269 641.6242023416335 L 647.1630091443094 281.4684323710061 L 131.0114413399392 351.0983536098305 L 588.6293411373935 596.8960246655964 L 362.87351385561817 130.61266642490136 L 272.3605828787765 639.271740131049 L 643.0679437732152 281.46001543225384 L 134.36931687584735 353.511204983184 L 587.2900686247243 592.9420044971392 L 361.6495537787591 134.64550006380136 L 275.73499904922056 636.6809590011017 L 638.7762733144684 281.60306323377984 L 137.97469648442393 355.9160369266994 L 585.7457143335712 588.8501838024036 L 360.5113137589527 138.90946584736184 L 279.17474556866034 633.8530661082374 L 634.293492810801 281.9000092084989 L 141.82451123247642 358.3076604898813 L 583.9957602768895 584.6265878350997 L 359.46272814054936 143.39994606166073 L 282.67391884252714 630.789538672911 L 629.6252832795305 282.35308825348034" stroke-opacity="1" stroke-linecap="round" stroke-miterlimit="10"/></g></svg>