<svg version="1.1" xmlns="http://www.w3.org/2000/svg" xmlns:xlink="http://www.w3.org/1999/xlink" width="800" height="800" viewBox="0 0 800 800"><defs/><g/><g transform="scale(1,1) scale(1,1)"><g transform="scale(1,1)"><rect fill="rgb(0,0,0)" stroke="none" x="0" y="0" width="800" height="800" fill-opacity="1"/></g><path fill="none" stroke="rgb(255,255,255)" paint-order="fill stroke markers" d=" M 400 400 L 391.3825928863337 479.4669413012819 L 550.5048314377169 433.02994116821276 L 469.1273750091963 194.19939671934839 L 159.882289358339 289.27414936232617 L 249.53174632572353 650.9676370842803 L 638.899446550258 580.900370880155 L 595.5700953268206 192.63184727547213 L 237.79812083262917 210.00654962740342 L 237.6502313570402 510.7441247386902 L 460.79300115804773 513.80637387855 L 448.42521731806926 380.5123438362099 L 407.70075251678776 427.33722613898453 L 505.46818856421385 382.2687891022599 L 389.5990809618951 222.54133121720145 L 164.56231357000004 388.3422858524744 L 356.6100962835672 673.2225248406534 L 687.1384465633005 478.0818588143103 L 508.3657445476067 123.50632960602871 L 156.35622958262806 272.676971114215 L 270.4710238481399 593.6372820642937 L 533.4930603493892 511.88922885659804 L 474.148661529702 328.7884455720217 L 385.34062923693944 381.00112698703555 L 448.2327030251166 370.4840567762566 L 343.21148019528994 279.7299719240249 L 211.14319307582358 465.34784344396144 L 456.3009354749364 645.8709317947539 L 684.4291973467705 366.54406943184574 L 397.2808687135912 100.1724066940464 L 109.81460486283368 371.19226902107255 L 346.0990694353691 656.7027449718428 L 603.4956056854077 466.30565793970595 L 461.6887152938388 262.9687515462638 L 334.7565508340766 361.68316530330475 L 402.6367708975991 396.4514324518631 L 338.23399646986894 342.7975355340283 L 280.87322292170234 503.5836780454633 L 525.689133950183 580.7164961075982 L 633.8962266904742 272.31774100602354 L 287.9391600374538 128.66896619341952 L 112.54369504910761 483.79593447916966 L 449.55881650296544 679.2697507870621 L 646.7736898807996 383.28963309750685 L 407.8027842935271 206.995233072708 L 276.35386900027333 381.5119853921706 L 387.86579876588434 446.2756990833681 L 369.35519604879846 388.30890046150654 L 349.453960679243 498.89899788756975 L 551.6056652081793 499.4348145596844 L 551.4994153374782 215.8826230810505 L 205.39689960096302 201.0144108227125 L 165.65314120443125 584.2345451957272 L 556.9518479781857 651.3306643058477 L 645.8929227270472 281.15656584754095 L 322.77082862236625 183.18879480113702 L 234.09103809626663 439.5776002533012 L 412.4112191722798 497.8578294432416 L 419.58434302108134 399.64475064201923 L 394.53518573429136 460.6370072313926 L 534.2783270537897 426.9259307113659 L 461.17270874499343 206.31195875135268 L 166.90158973444554 297.59582662550486 L 256.57252253577906 649.3706552863317 L 642.374416282697 576.7079652274524 L 595.4771062772068 185.05030933189732 L 227.54190924650212 205.2590910900798 L 227.9547694246081 521.98794629499 L 471.326336518541 527.8884922690598 L 465.7218707179876 372.1562754307932 L 402.55110099534295 408.4648966590822 L 486.91558706592895 383.7617130190153 L 387.6201004281597 238.86951374765758 L 177.00208474810827 393.0095818630231 L 362.70698751572354 665.8765059711552 L 685.4772429673487 472.0960965656409 L 504.0788557105662 119.57766570783906 L 147.59668506040242 273.8734698293997 L 267.5985556568263 605.9170357310933 L 547.617424746714 519.237212648079 L 485.7281971784227 314.62521611221314 L 372.82468805229036 366.07077907701904 L 431.3644985587077 380.01576536818595 L 348.9485539707649 296.772014384478 L 226.4766701446804 463.5889251826169 L 458.0672493439939 633.9949913325743 L 677.39052455195 362.25975387054575 L 391.8783091608302 101.55015582481849 L 105.37557109665084 376.13888607321536 L 349.08425625054235 666.4256517096428 L 617.3534138622754 466.4853634107799 L 465.7446680633186 246.58487488354046 L 317.6974779127173 353.6512223068015 L 391.17228614863217 412.34175966317326 L 351.36389497787 356.56917763860946 L 295.390557054734 494.3461497822208 L 520.8753500072633 567.240790768423 L 623.2301101911787 272.8317787912129 L 284.8944036076358 135.02270683119758 L 113.5592884265617 489.16725861594045 L 455.7278751611332 683.9930530634231 L 656.9483960173462 377.9126144236384 L 404.62560839115457 192.3141942397569 L 258.64867438046235 381.4789116434661 L 384.1665865018175 465.17940151256886 L 387.5281835528059 395.4993363227922 L 359.3455203668078 483.2367299694372 L 539.8543529398805 488.1418582183683 L 540.4336505993529 222.87884885360504 L 207.447825169399 210.12608932591252 L 171.23334644312007 586.6591661240727 L 562.8083169439325 650.4797895790662 L 650.4101040382652 273.32044053458765 L 314.5946549092736 173.32754477941336 L 219.58502372138662 446.5119061997322 L 416.8136520819015 515.7145535220078 L 439.0658210933826 398.58226790635854 L 397.0199885733694 441.4659481857145 L 517.3104151765787 421.3179803878412 L 453.43550061569147 219.4721527846332 L 175.14332554588947 306.04407488312074 L 264.09774996024623 646.5271151984696 L 644.7279665842806 571.7137326110343 L 594.3547891147773 178.33756172122352 L 217.8133156314402 201.64128352329058 L 219.34226138069084 533.0833207708906 L 482.07344145410633 541.0808074369319 L 482.4472736794255 363.29274938931377 L 396.70974396627275 389.75859258001543 L 468.08822290091666 385.99665626669855 L 386.2948574381027 255.89236994244095 L 190.48160087509888 397.23425322267695 L 368.66131660703445 657.2645245781209 L 682.4706940082503 465.91099866821895 L 499.2624775381359 116.91879003613695 L 139.88926439032127 275.8655170919764 L 265.68001130498334 617.4725325152659 L 561.4091550537614 525.6091057911369 L 496.4549604267453 300.39367700293093 L 359.8849413877596 351.735839971006 L 414.7309922398388 390.2339001591381 L 355.5083302287981 313.99764178862614 L 242.41505767583752 461.0122581779401 L 459.15631433742425 621.1454858857171 L 669.1114415889044 358.4019631907552 L 386.5825726787514 104.29764141176304 L 102.28078500119562 381.316157952974 L 352.6015731819957 674.9810833978465 L 630.3479410156809 465.91607814351465 L 468.95581672648535 230.6735208778575 L 300.6857494131706 346.41988561506497 L 380.3255193938838 428.5881833226728 L 365.1792419173755 370.02313343858305 L 309.96853361197316 484.20919320374213 L 515.0880589664389 553.2985761825438 L 611.7196622014234 274.24903766227476 L 282.55429239154176 142.51794372759673 L 115.89064270530281 494.1266168362814 L 461.82443387333615 687.3751377602221 L 665.9111213849483 372.27546134782875 L 400.91470570207935 178.57623233428626 L 241.51188907687754 382.15081211724265 L 381.2130837097888 483.94702117888045 L 405.9994263329379 402.0427950649268 L 368.8167001288721 466.8953403267734 L 527.1441706276213 476.94540534883504 L 529.0885254603818 230.97932443463304 L 210.59968373000217 219.89135716224288 L 177.78535846371665 588.1284139519327 L 567.971046718091 648.4423244971388 L 653.6630610293084 265.8423943931924 L 306.4187383014629 164.6558373027945 L 206.04718612019673 453.7716893490068 L 421.78632070298556 532.9453872238923 L 458.3422109636124 396.8223233047611 L 398.8166534914073 422.05387998184085 L 499.6867939818012 416.25352438113015 L 445.98313088796044 233.619025848269 L 184.57822370225142 314.5417965525887 L 272.03246994309563 642.4320026444933 L 645.9228438781977 565.9787063124654 L 592.2402285685087 172.55671799366527 L 208.6915313201796 199.14680056020876 L 211.83973434274824 543.9467618168703 L 492.9586406459601 553.3249686412782 L 498.5181669513669 353.9789161781549 L 390.20749708674356 371.3165384713977 L 449.0871696959253 388.9729494660754 L 385.65211842510956 273.5186034427835 L 204.93074148289267 400.96320892968316 L 374.4044318740966 647.4269229047472 L 678.1247369750592 459.5996298771306 L 493.9821664629077 115.55819676636855 L 133.29233690691393 278.60603698573357 L 264.69522637206745 628.2240106184286 L 574.7783035641637 530.9935068695584 L 506.2858097544633 286.1816103718847 L 346.59524213180623 338.06681444815706 L 398.4216967224156 401.08807082953064 L 362.8698630963096 331.3095308936081 L 258.8657195053569 457.60772749738976 L 459.52989689234806 607.3982965444291 L 659.641111655706 355.0300032211234 L 381.46392342436013 108.39889038212976 L 100.54954476761759 386.6545720715188 L 356.59386711532295 682.3170694852395 L 642.4014599571964 464.632773535482 L 471.32834518366695 215.32790508730017 L 283.8178781046612 340.01417313857723 L 370.15053258758246 445.10331355262406 L 379.6126992709923 383.0827582908677 L 324.517809532975 473.2121611328504 L 508.33476852758014 538.9799561250497 L 599.4434219127039 276.5931414228305 L 280.9684413501792 151.09868735193294 L 119.51241645516149 498.6071981801962 L 467.77564872501307 689.4066334937434 L 673.6183366862987 366.44513909566797 L 396.72022468712055 165.8539182888438 L 225.03614270043497 383.5027384902661 L 379.01015470471015 502.4774855566654 L 424.6720575381856 407.9044369584581 L 377.8070168504053 449.9555502002277 L 513.5301011560375 465.92335123009946 L 517.548369704951 240.16074504214666 L 214.86234522710643 230.23162659398778 L 185.24798283027707 588.6023548501914 L 572.3772744691213 645.2526017784134 L 655.653335947609 258.79772219350775 L 298.3190357587286 157.20644544262046 L 193.54148553952854 461.2920668322153 L 427.2853376453663 549.4625621635574 L 477.312568460512 394.3811211881492 L 399.91120394785804 402.5024904635727 L 481.49736891004335 411.774670548936 L 438.87953275440526 248.68535621414696 L 195.16953209309983 323.0128968227085 L 280.3000681239513 637.087983183272 L 645.9286483323481 559.5680649974755 L 589.1766147710866 167.7657645341111 L 200.2529962671762 197.76206768546263 L 205.46681533781867 554.4948504522046 L 503.9037162747305 564.569151721255 L 513.856028347392 344.2766347709777 L 383.0813017420164 353.2346888724928 L 430.01404133415036 392.68332621743673 L 385.71458906892985 291.6536073429163 L 220.27372383948853 404.1479573460353 L 379.8701091929111 636.4113178194905 L 672.453238665734 453.23519312735453 L 488.30620340493715 115.51683804947328 L 127.85809968250743 282.0429995423281 L 264.6175372917148 638.0957249285584 L 587.636302909889 535.3861426365053 L 515.1843423141851 272.0781645290418 L 333.03328211877954 325.12883513189877 L 382.52291610059535 412.522192320574 L 371.0055274013977 348.6108997051834 L 275.73375538764054 453.3718811966774 L 459.1554222536336 592.8341250450417 L 649.0354728461491 352.1993594909703 L 376.59120596694953 113.83007346446732 L 100.19323375724417 392.0834245101757 L 361.00035437993733 688.3885824596271 L 653.4413196108717 462.675961480605 L 472.87507596768125 200.6386697085634 L 267.19059510453474 334.45234508951637 L 360.6955181044433 461.7968471273654 L 394.5917877125145 395.6754971383192 L 338.9507021956832 461.40100561874704 L 500.63008021198334 524.3761160826676 L 586.4836830790448 279.8811453589242 L 280.1813544339217 160.70296480123383 L 124.3918144440625 502.54513228772237 L 473.50905268811783 690.0861250793465 L 680.0339278570998 360.4908185259111 L 392.0967445144807 154.21392242317282 L 209.31044739645395 385.5037687497998 L 377.5560562059179 520.6705997200309 L 443.44726614374775 413.0556576238009 L 386.2608910957479 432.5025434015921 L 499.07346329819785 455.15079449075387 L 505.8973032580077 250.3924921696954 L 220.2384075820195 241.0658186352023 L 193.55510221183863 588.0472851416557 L 575.9685851948519 640.9516912978411 L 656.3901421952055 252.25981642606837 L 290.3722554088563 151.0045579730119 L 182.12540389571927 469.0049263339227 L 433.26163952821076 565.1828073312852 L 495.8778573260864 391.28117710209267 L 400.29613537028746 382.91440595555906 L 462.8356996673429 407.9178919435613 L 432.1847202840496 264.59805183104373 L 206.87321104727505 331.3828512722299 L 288.82285556112663 630.5054411386109 L 644.7220947478675 552.5506225799259 L 585.212879072368 164.01711724608126 L 192.57083794191948 197.46642570491895 L 200.2356672848233 564.6448333013486 L 514.8284581063368 574.7683454934981 L 528.3875451799554 334.2520485498578 L 375.37398636173305 335.60613240137104 L 410.9703527135183 397.11394372016656 L 386.4987155636354 310.20006036111874 L 236.42957536080007 406.74499407088757 L 384.99507161806565 624.2723157462626 L 665.4779353465876 446.89045458274427 L 482.30504806779714 116.80795253219605 L 123.63220008551315 286.11985647115205 L 265.4140417174732 647.016476449833 L 599.8965727457016 538.7898237611957 L 523.1210760252021 258.1732550187632 L 319.2800841743098 312.98127586060315 L 367.11720562918345 424.47483197360054 L 379.881158391726 365.80612850111424 L 292.9226180878367 448.3080148647444 L 458.0062680952507 577.5379652420896 L 637.3568709011831 349.96123953273036 L 372.03129189537543 120.55966059798851 L 101.21524272575391 397.5313870946509 L 365.7571175221337 693.1578379211113 L 663.4004258177307 460.0913419051676 L 473.6153155819394 186.69328846709038 L 250.90022242745016 329.74583551174396 L 352.0025136093138 478.576141321922 L 410.0393289111147 407.73334882220877 L 353.1817696808919 448.82802614187034 L 491.9956599161758 509.5787072327904 L 572.925928031415 284.12334311253096 L 280.2320401165755 171.26325632263595 L 130.48883289823374 505.88000696830045 L 478.9531293950843 689.420135025548 L 685.1294084521122 354.48333077852885 L 387.1028384535869 143.71659898512632 L 194.41963524676194 388.11727044557745 L 376.84248753234124 538.4276798529886 L 462.2249155411962 417.4742600283037 L 394.1280185082877 414.62544612378656 L 483.8415592758351 444.69951780350976 L 494.2186419991035 261.63677259574786 L 226.7231066893927 252.31094789865318 L 202.6361683478581 586.4360337404785 L 578.6913803022202 635.5870720675292 L 655.8902487662357 246.29960198466887 L 282.6552771201771 146.06766340571073 L 171.84961042266124 476.83943549511537 L 439.6613526500754 580.0278582658611 L 513.9415652133262 387.5511487030912 L 399.97046715453547 363.392551248335 L 443.7984224370804 404.7137610447305 L 425.95434699024577 281.27858843788096 L 219.63817381890607 339.57925945984255 L 297.52265457232534 622.7024670463111 L 642.287226502097 544.9982951549067 L 580.4032918022265 161.35721408338867 L 185.71433006782107 198.23234211738782 L 196.1509760544392 574.3152196097523 L 525.651230977279 583.884591063598 L 542.0450502063467 323.97512784013537 L 367.13398329938553 318.52051660693013" stroke-opacity="1" stroke-linecap="round" stroke-miterlimit="10"/></g></svg>