<svg version="1.1" xmlns="http://www.w3.org/2000/svg" xmlns:xlink="http://www.w3.org/1999/xlink" width="800" height="800" viewBox="0 0 800 800"><defs/><g/><g transform="scale(1,1) scale(1,1)"><g transform="scale(1,1)"><rect fill="rgb(0,0,0)" stroke="none" x="0" y="0" width="800" height="800" fill-opacity="1"/></g><path fill="none" stroke="rgb(255,255,255)" paint-order="fill stroke markers" d=" M 400 400 L 176.75262650690473 332.62421638354596 L 644.4243776025203 562.3183127003487 L 313.2831500473527 295.2471531442484 L 352.5554763437272 287.2716555713937 L 430.4577740336439 688.2737682195611 L 445.27098725191576 161.83437027369584 L 392.9884675398548 413.4368050407448 L 243.8625224813041 559.7209401884465 L 659.418321714849 257.05172457150525 L 253.97225321077252 431.20568819361563 L 292.05906559686775 391.0663707138168 L 665.6857148645347 504.79031159819044 L 203.03427585420846 244.34117250455435 L 417.3155109935902 424.83274402043577 L 466.1385707526092 602.4259478857061 L 393.23408275552816 101.85306166839973 L 356.64978963659576 556.3820850575837 L 349.7680492802529 479.4974937172767 L 612.033229248373 216.20954336008703 L 163.5992548496852 505.8709967925016 L 444.9433183451997 394.21770799114375 L 599.2609454052707 433.21077727641887 L 131.41025670796415 267.50979777356423 L 527.7508047368068 519.3381303858034 L 439.95035303966864 468.7622843135785 L 336.4718461194648 132.5605148647581 L 384.05933146277033 665.862980539377 L 420.82479074648705 343.47597837693957 L 514.7235486345434 247.86029027706644 L 157.88062346172086 577.1235307891728 L 576.3074712380917 337.9339332529917 L 464.74313233844657 397.0600242906871 L 139.7361942303802 334.1733719848155 L 634.0164406778325 540.5417477461983 L 349.5969020278895 344.4496841533478 L 323.32313782359086 238.70063263145641 L 444.9812825538767 696.331390125305 L 428.18739677312595 203.4818166033015 L 421.0662664508054 354.73301888574264 L 225.97071986301134 594.9833899581259 L 637.9241175356548 254.4496471961477 L 313.3298238283678 422.6768894710498 L 233.92397188052985 393.8195895180475 L 682.5491119213068 496.8758922196102 L 229.7959351036487 277.6115338510607 L 378.747923034186 372.29124868980637 L 489.6071227544425 637.2165056194413 L 380.67413870832434 116.51874137240833 L 376.8069169904459 501.31718364267647 L 324.0451978914383 533.2305275283136 L 615.2982059328863 195.5556122005417 L 203.3116908544779 499.03151275187633 L 380.4744872757127 403.4187261734919 L 643.397595699463 429.2926753174147 L 135.6153209744774 284.18400019523824 L 489.8120023254164 476.57121974520123 L 475.82436198386455 517.8538640649883 L 319.05117654249256 116.99918842354981 L 396.66006529207476 630.199654444197 L 398.58472259861253 404.4547778559974 L 533.4553072510281 205.23011078342503 L 172.08006497457674 583.170559733586 L 522.2137420234293 350.637918646663 L 526.0380046185904 388.5296145272705 L 114.89112675384746 341.50803118884716 L 610.8303063656701 513.9360222469502 L 392.6086967828515 392.5617882823111 L 293.5993299254257 200.10002709850446 L 457.53845397559246 689.7605173441129 L 414.0795231041704 255.43132594377872 L 442.8502100374887 295.8117867965881 L 218.80159070198175 622.5675858056644 L 605.8450600249747 260.86145205150876 L 375.534416335327 407.6026251909109 L 183.78409014241194 401.76900855886345 L 685.6779975048462 483.6733366730076 L 267.3936352770252 313.4931994377931 L 336.59280236280046 324.66822358546153 L 511.6029042757838 659.216677479448 L 370.9479620414057 145.01417073857723 L 392.729327973073 440.03281113566476 L 306.4524632124057 582.9064336014484 L 607.3819499458173 184.35694544179188 L 250.91294292431348 483.74937043739715 L 317.97893324312236 418.23059827499213 L 675.9547754079213 420.56743601309944 L 153.4812955341088 305.0926358082527 L 443.9438260471453 434.1477669249478 L 512.337172062957 558.3295507832014 L 304.52431443603444 115.68461119219359 L 405.6556983003546 583.1470534547577 L 382.0175986149338 466.9943810717424 L 542.6235363431898 170.139610579732 L 196.67811096829007 579.1736564842694 L 464.08060170544854 370.67003902840645 L 580.6438369815605 375.2548104935339 L 103.79772888971831 353.11939286422233 L 575.5816145096685 484.8321416442184 L 440.15276063473266 436.8980870522832 L 265.71002548330534 173.1541967939425 L 466.2584131350148 669.1217933096307 L 404.3989610589208 314.9978060628064 L 457.484278941772 239.94773810709066 L 221.88207130337312 640.2739469928745 L 565.476013141673 276.8543300346304 L 437.205144277642 386.5594452842265 L 144.32360633906143 413.70717989032255 L 674.5354882073763 467.0513487175283 L 314.2494278481169 349.45129112628354 L 293.3104099321306 284.33106505316914 L 529.9351665823209 667.6649533275124 L 365.6778005579587 185.7198874267823 L 403.2778769108999 375.7362937462932 L 297.2807168071173 625.5275090078926 L 589.5675829536606 184.07710590671772 L 303.4887907734517 460.1314336450243 L 260.74666423546125 437.654987259543 L 695.0932758238455 408.56473737263565 L 184.4867377234381 328.0733096283795 L 392.36664819194317 394.60528511883393 L 546.9747900859004 588.4153613071783 L 294.8287537266428 128.32542639846508 L 409.71933187299396 527.2203517838805 L 371.860936232009 527.7183244289538 L 542.6091457876194 145.02668313075034 L 229.61992099246476 564.4624548488074 L 405.17090720021054 397.3432247642744 L 625.7214133762596 358.5722637051732 L 107.26378288330045 367.19684007013313 L 529.7437358695892 455.5746640186358 L 489.63207966206045 475.1602042793825 L 242.01762465466334 158.80762501917374 L 469.53076678437105 635.7700299254204 L 400.1325955373199 379.0410287712752 L 464.729121252234 190.32701078682175 L 234.0994431438791 646.4215339151879 L 519.5082349918179 302.33584021233406 L 495.06360957959515 360.6961841385363 L 117.61617156797627 428.0302495780202 L 649.4072425639663 449.04465146279915 L 368.144211174769 383.1198986013432 L 251.6013814423533 253.08337998064926 L 542.5462342030659 662.6054987599132 L 366.1063639362014 236.33423785109272 L 407.85744900761745 311.8499057537837 L 296.1824227971709 658.4176114705097 L 563.6898467166325 195.54437473665004 L 357.9393075149368 428.93457459518373 L 211.71672244726824 460.20213872641557 L 699.73229570317 395.09504649654764 L 227.31923667164872 350.9532134830957 L 337.77338569069957 360.12791133193684 L 577.1786905501508 607.0374379800431 L 291.62101316125086 153.83607397970565 L 407.99821256452014 465.4349480051004 L 368.25766385562946 583.292259348083 L 534.406328957491 131.8156379616962 L 268.443817075476 539.0561351563488 L 348.6932481440555 429.37625988719066 L 659.0012679225619 340.20469285505715 L 125.26763427002635 381.7825526901531 L 475.47459582306965 428.350195812866 L 538.1771425870785 505.57264486634506 L 224.74521560739572 157.22688726916562 L 466.146398108424 591.7628987531468 L 401.72516753705884 444.15333791563114 L 464.9557660489505 149.8474686111709 L 253.80462416496272 639.9774554011086 L 470.84671543849265 336.5303838585812 L 546.1309238148569 331.6637608342762 L 105.00120553191033 442.87154234915704 L 611.3960638192657 431.68752847351715 L 426.34066228952173 412.4617021498288 L 214.2290853836099 232.06967078468438 L 547.6767347279541 644.8665694060627 L 372.98519887089003 294.0169859482347 L 406.454043442672 251.80503708819572 L 302.2245743354541 679.3987385446969 L 531.9907703083816 218.87075642611606 L 411.17686145188634 391.53932617983367 L 173.30452596707036 483.99795585943315 L 689.6168273772262 382.09582011693936 L 279.9413961108182 371.7162097904297 L 283.16954156132147 332.4119969180187 L 600.5271004878877 613.8664159293837 L 296.1332899846723 190.41790211283023 L 400.1894171824018 401.1236238023848 L 370.7627677781742 630.6284149854002 L 519.524687788804 131.77893835207738 L 310.45649124523635 503.6915497217311 L 297.60616693711677 464.96553176314023 L 678.9152043504403 322.12527345244274 L 156.95325276766272 394.93558467444086 L 415.49769019392346 405.0317553907357 L 582.8275697733633 526.9795750422365 L 215.80599145161085 167.81351786554123 L 455.40985948071307 539.7263448714297 L 409.04418216789367 506.86455904148346 L 459.09430474251224 120.93456862670814 L 278.94963767862293 620.64604130907 L 422.41788895319246 378.00359419776566 L 587.9030128346558 301.5053701202047 L 107.0064850710911 456.256162118366 L 562.3645676148501 416.8502332873401 L 485.74283993389145 435.89990819606555 L 183.83259337046596 221.72638180464932 L 544.0131254474122 615.9892700006947 L 386.49980531129506 355.56574353804683 L 399.62680872679437 198.83462647719244 L 313.98281326387655 686.9384053722792 L 496.95168041254715 253.41755316417485 L 460.31908232665063 349.87758129573297 L 147.26404027640464 506.92255176024867 L 665.3333042375154 371.4681926980314 L 339.70408098160607 388.65469262158706 L 231.68861760779632 312.5693993527909 L 614.9118632682232 609.3118642754274 L 309.058662487019 235.68424379815332 L 386.57319496693844 337.73440117615445 L 378.3944669091854 667.0762861499682 L 499.85730870948163 145.43884770559774 L 352.91902224792415 459.80249529210437 L 254.44204054661793 501.89728901071425 L 684.6828272306379 306.40080129030923 L 200.67779876714096 404.89324261001417 L 352.94460763636687 387.0498697184469 L 620.7245966841944 538.8965959295737 L 216.6500861554543 189.2661695990599 L 437.2147623370013 482.6857787951862 L 421.38970701592353 563.8508844308495 L 448.5418368841203 105.38509925101175 L 307.249085993468 588.9111063894344 L 376.9807315427687 424.7338224500308 L 618.4930190592701 272.51450943508996 L 123.32190821529139 466.2651923824923 L 504.8293104844138 406.0902266888859 L 543.0823265239353 452.41366170050344 L 162.7430428061472 221.78179281030404 L 530.8065785126772 578.111983924401 L 406.237334727174 417.6136428415557 L 388.4558432063282 155.77729970485083 L 329.66936796799405 680.2577514524417 L 461.1135234088017 297.8106700710829 L 502.86408894688134 306.31864254573816 L 134.59342436006108 526.7704586641614 L 628.2724889629554 364.91628155539865 L 403.4999325150731 400.49538475104424 L 186.39494388428142 301.07453774043404 L 618.6984054768068 594.4680206571179 L 330.47363225836847 286.8208111084676 L 368.0013014937573 278.6222047003319 L 389.72578376181207 690.5870679847253 L 477.5247008613345 172.51607395871108 L 393.23087823844185 409.4506702925115 L 221.16193139325597 537.6930327384634 L 676.3477632230754 295.02504865554204 L 254.1087577614624 410.21783366649356 L 291.1690097929568 375.2992766721251 L 649.3014966435549 541.5147701501971 L 228.14000909011511 219.687166151919 L 412.0761589397874 423.87431248175665 L 437.54836627329564 612.1342432900669 L 435.03684798238135 104.24922857533704 L 336.3539058153345 546.027746666258 L 336.95387358720484 474.22660695083437 L 636.7318871037849 247.07065432936022 L 152.8259405826948 471.1973559152993 L 441.8130048042896 400.52907556270844 L 595.118894951182 461.5907566056966 L 152.81609144961936 231.30387966499134 L 507.95419720180035 533.8187099306358 L 431.1996728882763 476.835318751001 L 374.4497603269545 124.90590473485258 L 347.28511662823655 659.3928571205747 L 426.89813074571066 350.0054472241908 L 536.8366031622635 263.52090217709224 L 135.48986453403046 541.4210423204345 L 580.5420606523146 363.8010548444438 L 467.94743906828506 406.4901666016877 L 150.0869484434167 297.75815737578745 L 610.8573550857471 571.0153273118457 L 359.8042198479503 340.77048145852393 L 345.84090135578253 226.8478103451614 L 403.0094972023903 699.8410521706764 L 454.70610263541687 211.92940378766775 L 429.09937360693067 355.21219065643584 L 199.0505344014229 569.7782401049772 L 654.7615976024166 289.7545069705126 L 314.3644290638937 409.9179280547539 L 233.5439985696611 370.0875019584754 L 666.4590233503634 535.6574932309853 L 250.46398631494884 256.72560948244234 L 381.11694426161057 366.53075105573396 L 455.8876415264582 649.2593052288961 L 420.50953970290703 117.75881242786625 L 364.024957409186 493.96348910429504 L 304.2701248895424 523.6649775059105 L 642.2210770830998 227.46408506496576 L 193.66277246770932 469.7161291798919 L 376.6642391336873 400.76395826490557 L 638.8426076636248 463.6345363910848 L 155.2922070441949 248.79198338337332 L 476.0360932118461 485.9618784684171 L 459.8614611239327 530.1477857148818 L 359.4199176181596 107.79153743869267 L 364.78444874000655 625.2048205830952 L 396.44284457196176 407.39743753726214 L 560.8956658714753 224.2589243140391 L 149.35600730443193 549.0068394584487 L 524.8346714630771 369.0196761343925 L 529.5937758725509 406.4655903865303 L 125.11398864880977 301.8474494762087 L 591.0581845785649 541.0852325538099 L 395.838796512545 394.4300206604602 L 321.87782609315633 184.99703478854767 L 416.32708346840997 694.3296192090729 L 433.4704424652448 261.8469324570415 L 458.6831981832603 300.02663337534426 L 188.6575643968032 595.6628616752387 L 621.5170189221601 291.95862353233554 L 378.18869290772244 403.5351277709583 L 183.25598275755073 371.1285491192088 L 670.7138329693687 522.6940671338754 L 283.0939826958875 297.7468212141161 L 346.00856624796194 313.70063693701604 L 474.48366839682734 673.4367623725425 L 406.9193044356591 145.3068795548264 L 388.2941457705871 435.29202922914436 L 280.26780317850705 570.0858828732896 L 635.3345997410582 215.72226010450873 L 243.36487667652008 460.9712952055073 L 312.85629014837207 406.8202028631158 L 671.6640569134443 459.32514619342015 L 170.69476416936678 272.30516191826706 L 436.3048836830791 437.47182400205634 L 490.2693787398873 574.8932121805865 L 345.33061691672816 105.21181100631907 L 380.24076865470045 579.3375295487737 L 371.4598479500259 466.97239310175934 L 574.3973776339994 191.23753401488392 L 174.85695546851122 548.0675677078294 L 464.26016586921924 380.91943055345257 L 585.1233378949378 400.82772982425183 L 113.21907235184239 312.0489205691508 L 559.7177575777259 507.09814298270027 L 436.78755948809487 444.8456074897937 L 298.1859248172875 155.03172604252342 L 427.75054305996696 674.3864450123456 L 415.6191540486543 319.7860503191755 L 480.7005622333764 247.01821749554531 L 189.78873471670963 613.1210705202525 L 578.8350180362359 302.49569680319644 L 442.1487248791441 391.1898197250483 L 143.10846130742596 377.58169658040117 L 661.3095527180474 504.4168069337527 L 324.7921546509274 340.01622847889803 L 308.86959212073396 268.05333086661676 L 491.2732748348483 683.6437896860214 L 396.09141104256315 185.4798410968889 L 407.6017755890415 373.0460067873771" stroke-opacity="1" stroke-linecap="round" stroke-miterlimit="10"/></g></svg>