<svg version="1.1" xmlns="http://www.w3.org/2000/svg" xmlns:xlink="http://www.w3.org/1999/xlink" width="800" height="800" viewBox="0 0 800 800"><defs/><g/><g transform="scale(1,1) scale(1,1)"><g transform="scale(1,1)"><rect fill="rgb(0,0,0)" stroke="none" x="0" y="0" width="800" height="800" fill-opacity="1"/></g><path fill="none" stroke="rgb(255,255,255)" paint-order="fill stroke markers" d=" M 400 400 L 648.8560799751713 433.0714271615101 L 665.3464339389704 471.79371706283365 L 446.0788179816795 419.28434742850635 L 209.84788636447777 288.974919028544 L 170.1745769135278 221.410965874249 L 330.8558710978229 329.83616373850174 L 510.27507497671115 546.2830371078935 L 547.0145774914597 660.4747850557067 L 453.75971291964856 533.9278611507593 L 365.15147001999065 263.293962764665 L 364.978533417318 103.26766262787396 L 402.72417468669386 213.92754721250867 L 386.10423833504166 494.0034728777605 L 320.13020181043635 678.9328207278679 L 311.0360559484214 604.1306872526968 L 423.9380785183761 360.34613520141636 L 570.8931521968946 186.60089667520495 L 582.8117318036298 225.0457247918231 L 402.97060172675054 397.8280813011092 L 181.37739522269013 519.2070358834461 L 142.06948485452273 499.17632643517226 L 347.8958949899886 412.4727859361841 L 616.5257576273111 377.6534517552849 L 691.8011262301941 408.54600076250244 L 500.6513616859351 416.38750578743014 L 227.44544188775916 347.8457145713396 L 127.34860961706732 276.39305522163977 L 274.82888552277313 321.91454915879865 L 506.3036299939087 487.7142268054516 L 603.1656804836921 618.6088400242452 L 509.28398896672013 554.1580009945511 L 357.36475296051157 319.00925814331254 L 300.1762719818564 128.59020070782987 L 350.8007663662256 180.31813166562844 L 403.75955163666714 442.5139459491507 L 388.06439929956383 671.5950401556828 L 355.34231264978376 651.0566186623976 L 397.76791299039564 407.01259290647664 L 505.24307109186157 176.6103977780738 L 550.4439424622389 166.52009828034193 L 437.0418628894399 356.4232973636633 L 240.29096146936013 544.1275056195152 L 158.7189776893057 565.7931112892384 L 305.9983637548723 447.7403016322877 L 567.2885213645196 341.23736193378267 L 693.2645975460326 338.81554155336727 L 550.3156159525604 388.9224587333727 L 265.68995512121876 392.12615027737115 L 107.35950720635799 343.5139416424076 L 218.09785412193338 339.15444011748093 L 479.0646261867211 438.67312268402196 L 639.9381979176754 559.6239996333948 L 571.1918172653532 549.8912861699168 L 374.275526303158 370.64156669117676 L 250.21051695334918 175.0228557635434 L 287.0296780660981 169.2533923663776 L 396.49485777501474 389.5338435313222 L 446.48915089587746 640.3768247633807 L 416.437152634944 678.6375189632182 L 395.55353555358306 460.63821216535564 L 443.33326547088654 191.9180072733395 L 497.1800296239301 123.0191565823655 L 449.261262146435 302.9156929717243 L 301.32649238468076 543.7134299421103 L 199.25862876414953 622.6069116563871 L 282.78101833684775 499.7144335051233 L 510.29625038435853 328.87299883749324 L 669.1726153252715 273.0674533538835 L 585.4342388601656 340.9021990150468 L 316.8197366713335 414.8273819866591 L 113.14152686382437 412.7114159601739 L 170.96614912658734 379.8306606983048 L 434.530137384207 407.7200049994964 L 652.1832942279341 492.64765551744574 L 629.048811987062 520.469271381143 L 412.0069035006059 408.5052097179143 L 222.17055169944533 234.85402233156566 L 221.43090812418893 183.7475489389686 L 365.894108760812 345.3726652164336 L 486.7516331832754 591.1703653914745 L 485.2421802196057 681.6554652128423 L 418.0850067436894 510.8219652176865 L 394.92212262245044 228.75592470314777 L 430.67644898733886 101.69450199799991 L 436.5040346573584 247.26066481008064 L 354.1333291873256 519.416941958245 L 257.86042220378715 660.9071173377001 L 283.5450777861827 559.4013126097816 L 455.9511521142451 341.4932066591691 L 623.2153355479476 221.11192807992697 L 598.8000302527324 279.8900768825423 L 370.9209518896018 412.68583740388215 L 143.33702227956212 473.5945429172679 L 142.17637719801627 438.2082417265567 L 381.6136143273668 400.27590522986065 L 638.8569694755155 428.1022896275909 L 673.0301234369856 469.49343464864245 L 463.1050087107552 425.30407890902563 L 219.4425891202224 298.1785815351337 L 164.39835757660907 222.52733637137072 L 317.56721355123966 318.8245918961702 L 503.30680604009285 532.8448264623045 L 551.3408878782768 658.9833780959086 L 461.8874553801523 547.7248241328874 L 367.4177541107489 279.75178284074826 L 360.82221867484077 106.01759543694357 L 399.9268445495849 199.8343905059328 L 389.8310915248018 476.73380958793797 L 325.68601922366827 675.0599230654308 L 309.5172815824104 616.4252217294012 L 414.14160617371124 375.7593984915888 L 562.7134870960796 190.44672048204362 L 586.8605036769491 215.72052006536035 L 417.61060839223273 386.71419349076814 L 192.52755396521584 517.1995280426022 L 137.4272831789284 505.5102277354242 L 330.6559773221259 417.70388045809057 L 603.1937235138057 375.9430126201537 L 695.5845833470729 404.21942457680876 L 517.8047278344184 417.370112725861 L 241.1404213218556 354.57486186718074 L 124.94158093162883 280.2440350275889 L 260.1985586787333 315.6749515608942 L 494.6526828065306 475.7425044014016 L 604.7391368947783 613.7778096347256 L 519.8085811864146 563.7403402810005 L 364.6256887634541 335.1808076553785 L 298.0682038312503 135.19221446271678 L 344.77495887644113 169.6734660233722 L 402.51358135763235 424.26836146945607 L 392.3803995074489 663.4599257489606 L 357.6379500183907 660.7867824665591 L 392.5652380027248 424.63071047489103 L 497.379857516388 184.99122550090115 L 550.3235383443259 158.83487713585725 L 447.7989016334846 342.0278609848046 L 252.15256178149096 537.5038069159493 L 158.40601010431138 571.4008497982238 L 291.66990978300316 457.0778341085726 L 552.1557180073031 343.97443321715315 L 692.7139840125433 334.33237784041154 L 565.6870667155172 385.28709363542833 L 282.25965802685937 394.86885957396237 L 109.16180403966393 348.3756575996132 L 204.0745730119739 337.71638323311873 L 463.58073019580553 429.92569597345636 L 637.5542105424067 552.9464055202573 L 582.2292450026946 554.7871361874179 L 386.1069358818615 384.61627331545475 L 251.66125671948407 184.28950858403283 L 279.4967552094115 162.94126622032715 L 390.2487053619025 372.27192299076626 L 447.82224802740933 628.7996067718124 L 421.07510123792486 684.5576298673873 L 395.42325516109446 478.56033340804817 L 437.6758470709992 204.42654937546246 L 494.0415177015298 118.51424326339622 L 455.2324127457932 286.9763710586129 L 311.95999821128265 532.4419232273555 L 202.49963254229834 625.7328648055305 L 272.63973545934704 511.6780395962039 L 495.2507427616845 336.53192673271104 L 664.6508145754054 270.3107224290278 L 597.4473938044723 333.7941038191584 L 334.5294171486432 412.6869096638183 L 119.22032482383679 416.6664981030648 L 159.3397325751612 382.4413467447979 L 416.6989991558319 403.47121460503473 L 645.346370591069 485.98023328899797 L 638.6921074376851 521.0043833769158 L 427.25513759285377 418.6986989648339 L 228.08228883476863 245.0827764291771 L 214.31553269037565 181.88079560808677 L 355.4050570071568 330.90232532219414 L 483.8346291793353 577.6110636915334 L 490.3775598436232 683.2245387222459 L 422.7071966815372 527.1163835294132 L 393.04144191208593 244.25333683382217 L 426.19356605877095 101.30857647696217 L 437.55677099251375 231.72679078350788 L 361.7432216681928 504.25114584830135 L 263.23483013388756 660.263118577041 L 278.16484777718006 572.1294386523058 L 442.91919999970787 353.7506509716443 L 615.8196623425779 221.65558178955933 L 606.4750633042319 270.98498422560533 L 387.81720135750993 405.5338300815552 L 152.9740167686866 474.8602335565854 L 134.2763970216542 443.46307085744183 L 363.3087680738432 401.10142178277044 L 627.8673979579145 423.3487417255083 L 679.6724698483404 466.7324579293631 L 480.07973420220236 430.72412278140035 L 229.95281090538882 307.440575952157 L 159.50051521435844 224.43139838081686 L 304.2498460585048 308.49929302007376 L 495.5662167689752 519.157616616072 L 555.071763679926 656.4553385211836 L 470.1989062475076 560.7527682652818 L 370.29839598035676 296.5575482739257 L 356.90437797400443 109.92816687396186 L 396.71878343711046 186.53910635980287 L 393.06996503648685 459.0882995500363 L 331.37124123016554 670.0457717561446 L 308.67647116603365 627.9899164982421 L 404.76331652179204 391.54610852545727 L 554.0888143345419 195.28565873974608 L 589.9768615494711 206.93938068610586 L 431.84899974193496 375.21393445562774 L 204.33966632793567 514.433049282085 L 133.89983356112657 511.59365389878394 L 313.82497765298046 423.38364324800824 L 589.099345233122 374.72919487019004 L 698.1913855413397 399.78203720321306 L 534.5624861240955 417.78243279653395 L 255.59513072020655 361.04221282942245 L 123.62988479976667 284.5742571941792 L 245.88627825630053 310.1678262327812 L 482.30914779425717 463.8630277814153 L 605.4318245341813 608.1568869272534 L 530.1837382198285 572.4300973347085 L 372.4970736535172 351.3544733445416 L 296.53356107281786 142.78521166816392 L 338.6399114775002 160.02568609771785 L 400.7105376015487 405.98272101821675 L 396.4633210817403 654.2672222498397 L 360.360427059846 669.5195412517949 L 387.91851549962166 442.30953709040796 L 489.4388146883302 194.36945032187253 L 549.45398319124 152.01723542385758 L 457.9532632065873 327.5236100224481 L 264.3254310795318 530.0332550104564 L 159.10640042855326 576.3967266446834 L 278.0080064475841 466.63356979029913 L 536.5769475335593 347.37045902339963 L 690.9978235837938 330.1154202144603 L 580.3575841627603 381.25294284731 L 299.3206866025712 397.1250506642227 L 112.14003366407212 353.34817323154266 L 190.7103681344432 336.909527305124 L 447.6149891851564 421.54438819348513 L 634.1230536370289 545.8152773519234 L 592.7562022469712 558.8120876834457 L 398.40226026267976 398.28332989497557 L 253.92521908618284 194.26313910529495 L 272.216388739878 157.68963215729585 L 383.5233610859323 355.30269448619003 L 448.6261773565449 616.3813191452023 L 425.79899882965316 689.3311037246032 L 395.84280100478065 496.2003362453091 L 432.2734849573131 217.79257276966533 L 490.4517382432782 115.10558630460241 L 460.53335896643006 271.26753540592995 L 322.5547137001362 520.383571810173 L 206.519172133287 627.9517086136461 L 263.3062900072998 523.539005530187 L 480.10846682287854 344.86826477937063 L 659.1196578729998 268.16340778072356 L 608.5473847555328 326.573268095904 L 352.3976677152027 409.967697564793 L 126.40674632439607 420.36359272447953 L 148.64856382629952 385.4490142129421 L 398.68918788308696 399.74797809531856 L 637.4405942190688 479.2300259477819 L 647.4969082171134 520.8348105418761 L 442.7050228957152 428.3654178608926 L 234.91423604741382 255.66806375959905 L 207.81532429095165 180.98959427809368 L 344.6478543436472 316.9951248545698 L 480.20630790369694 563.5219744200606 L 495.2231936167097 683.642397603897 L 427.7292075558965 542.8166167195345 L 391.65947090699467 260.35040529136086 L 421.6243707510175 102.11461464033778 L 438.01909821635263 216.76517092665998 L 369.0243454368156 488.49327924698747 L 269.0571612945648 658.530850246995 L 273.59051269770816 584.3983182280335 L 430.1116336485692 366.5593727178185 L 607.6901575472842 223.06280502732497 L 613.1563849635219 262.32063877675745 L 404.5340194702537 397.8578598606354 L 163.51392892595487 475.5584557965565 L 127.47468798284837 448.7848338578371 L 345.1665805579591 402.4699663285436 L 615.933381092111 418.8566264095058 L 685.2367842384625 463.55235255186824 L 496.9247297937312 435.5280335789897 L 241.34224421890278 316.70122159785336 L 155.52150227494184 227.08945062755586 L 290.9719986314426 298.89661362141135 L 487.0742731262776 505.2926677059661 L 558.1633139290681 652.9181338569535 L 478.64083574637675 572.9609139915692 L 373.7924844394159 313.63341199304267 L 353.2733714169039 114.97766698792515 L 393.1361625164659 174.10048896561648 L 395.79928768881433 441.1443035695878 L 337.1317344874088 663.9050247403138 L 308.4937793340873 638.763831320559 L 395.8465419403965 407.6372451319946 L 545.0793648354444 201.11305338468318 L 592.1669993204698 198.76124603719543 L 445.62464002374406 363.3809380489915 L 216.7490515033826 510.8984855689747 L 131.49126555847317 517.371577030693 L 297.47537145299987 429.4786315344658 L 574.3077560372044 374.03819239937917 L 699.609757900799 395.2850189356651 L 550.848441653817 417.636024419292 L 270.74993149429133 367.2029938534008 L 123.43181499410059 289.335263165263 L 231.96476583888668 305.40200911824087 L 469.3203699020879 452.1378764391145 L 605.2182886198278 601.7927621738294 L 540.3456075645332 580.2019894641692 L 380.9500125209345 367.45518038338463 L 295.6068423870392 151.32461733686225 L 332.4477845790723 151.41140079051758 L 398.35681316518475 387.7383028176915 L 400.26759013816286 644.0571127095238 L 363.46953694742444 677.2118103466563 L 383.8448053611902 459.96962184797025 L 481.4774792431127 204.71338463933998 L 547.8650817429302 146.1133155167171 L 467.46682713987605 312.98048888344226 L 276.7413837733883 521.7339460824635 L 160.79859245710534 580.7329878182322 L 265.06668953921644 476.3529056987246 L 520.6270744459976 351.42569241788414 L 688.1309190266413 326.2143373660746 L 594.2638711703237 376.85625670633124 L 316.79779020228096 398.8731295789614 L 116.28619918517342 358.37873447732477 L 178.07116802666096 336.71595580277676 L 431.23548994956207 413.57227378662753 L 629.6440979544637 538.2872667361457 L 602.7093605081593 561.9681795219799 L 411.1078698268784 411.5812935387084 L 257.0147185626937 204.8838908968315 L 265.2463002497956 153.50861331163796 L 376.3524976063008 338.70003486628934 L 448.8737575412415 603.1821603248046 L 430.55744923655396 692.9392539940629 L 396.80104165242625 513.4795139451247 L 427.1701817686841 231.96050215059134 L 486.45665865935314 112.81809182570225 L 465.15341251001524 255.86500462780782 L 333.05023367165364 507.58308284414755 L 211.2753520466913 629.2328609166076 L 254.809603577764 535.2307139523282 L 464.9428785050236 353.8543388462155 L 652.6175521685267 266.6628183575451 L 618.6923840293506 319.29325710601563 L 370.3440307830428 406.6758087730528 L 134.66695117694343 423.75689335729567 L 138.9417675969699 388.81422270474366 L 380.58041653171796 396.56762643258253 L 628.4922678279701 472.45258483646643 L 655.4113312222848 519.987095838224" stroke-opacity="1" stroke-linecap="round" stroke-miterlimit="10"/></g></svg>