<svg version="1.1" xmlns="http://www.w3.org/2000/svg" xmlns:xlink="http://www.w3.org/1999/xlink" width="800" height="800" viewBox="0 0 800 800"><defs/><g/><g transform="scale(1,1) scale(1,1)"><g transform="scale(1,1)"><rect fill="rgb(0,0,0)" stroke="none" x="0" y="0" width="800" height="800" fill-opacity="1"/></g><path fill="none" stroke="rgb(255,255,255)" paint-order="fill stroke markers" d=" M 400 400 L 402.61041701340514 422.4769083243215 L 443.9259071858854 389.65759197794966 L 377.09818574499025 336.64314442858074 L 320.1462265167763 439.8103102916858 L 460.4228560749481 492.6085328423421 L 500.95061933205494 316.0487667230162 L 290.5071911365245 295.6281191351218 L 297.45463907809824 536.063478331295 L 562.6335888706035 495.3375304176874 L 482.8134721420187 211.8344658334051 L 188.34834833696408 334.76517153121006 L 356.9494134453888 632.1510420738344 L 648.8239701562661 416.8810360815212 L 387.49548322835705 139.0374061835526 L 131.9830976961324 444.21546806749797 L 477.2720586540009 669.6149186917589 L 665.5764306894662 289.3592294943416 L 256.7283116449197 144.08025052008855 L 159.1387498573788 574.1364665293772 L 602.2655188540206 620.8077100639067 L 596.3417239815672 173.21692223451078 L 153.0611536476472 231.79927359058394 L 262.7496150409662 662.1350910981569 L 671.9481891110485 504.45333304532835 L 470.834380164643 123.85615445078594 L 125.3145725655881 362.55653381030925 L 394.6822917355853 667.7351106962288 L 655.647798977512 375.4439219122462 L 348.72298069136514 161.0419640679673 L 181.63961213386497 474.0626882316349 L 492.2772894228202 594.6840113376416 L 568.8623320595024 294.54550044051086 L 286.68586838599606 258.10106054309523 L 285.16906098327973 515.7720165266082 L 512.9427430416565 488.6910971181264 L 464.47015698724607 294.86484354042955 L 307.15921925292656 356.91930183462125 L 374.6761443491191 476.7155861478683 L 457.5557667647069 411.8601107192398 L 403.18521713329534 363.73158928667465 L 386.16186856116315 400.387860571545 L 398.7403389944841 391.29087585876294 L 369.65622780595794 408.04807686087184 L 419.7021277745113 450.0704199660642 L 466.96444716190547 364.2389309447773 L 344.4044928828474 319.79399193908137 L 310.88978435496057 478.43039068846866 L 503.3733193080741 493.15240804868597 L 491.98757673055286 270.55286187922457 L 244.37436813141136 314.5367516343932 L 326.3746491482055 580.8710181016072 L 604.1718740919956 456.71684931546923 L 435.16920128833897 175.4198838802489 L 158.75431570977045 390.41305827036484 L 419.2740412470612 653.4476695711453 L 660.6207492841478 349.46625068308754 L 316.7801560409563 137.62403189859583 L 141.48489250680524 516.3027870789756 L 548.7330730199418 649.0381200316216 L 634.1433574809778 220.5208034271552 L 192.43502522024085 185.77941599417684 L 210.1629714608514 632.1048638405734 L 652.3359854279133 561.716983821196 L 530.7156946004843 132.3543034755678 L 122.40630083649705 302.21151456369563 L 336.0437481208143 681.9278852673363 L 680.59333989435 430.2685712205334 L 397.76577567504734 126.26582467142498 L 138.3118705125038 432.5586313691176 L 459.793847899967 644.9741255960744 L 624.2732463716987 316.85537117766694 L 298.04007144665803 199.5961842495626 L 225.70850425257154 515.756288160025 L 524.235115910619 546.9354875408781 L 519.3720677168089 272.706767510306 L 274.97370259982307 307.36321237000163 L 332.2732875019768 517.7249923122217 L 505.8641008787964 445.56407537709384 L 426.9626696236202 309.9151167837341 L 328.8286125727914 387.40179629783347 L 397.01630211208595 450.0215613218023 L 427.61421685367577 398.4508187919431 L 399.1378313865077 395.02694919721336 L 416.8709675675791 395.01539278887594 L 384.26512953404034 363.08252832166374 L 345.7665441258322 430.94560011143756 L 450.0032454811071 467.9875776398261 L 477.4807541575509 327.8538352167564 L 303.5075307624367 317.82806149262643 L 318.3018636478801 522.0722587233349 L 547.8630748805132 475.8879336942366 L 464.76804259304686 227.17271957739683 L 204.04999674714614 351.4373740112693 L 372.31457425854273 616.2762633895472 L 632.9459304522784 402.72498007701887 L 374.4234682874482 154.77476156848655 L 147.46629018134908 456.35004738479694 L 488.6310087128809 654.4655083286286 L 650.8044423030478 278.60576523840837 L 246.40898803562473 158.4679279150934 L 173.17137424328615 584.1870507536411 L 612.1999269238756 607.0666895004191 L 582.7979019386574 163.26535534396683 L 142.98397348555267 245.26686343806801 L 276.2831065357101 672.4167512555739 L 682.4800187565372 490.6968324669743 L 456.68955662389374 113.06398299362445 L 114.28840821728687 377.2561083662163 L 410.0970021390701 678.9327671426255 L 666.9200251735103 359.1666941667186 L 331.45536503282807 149.82348289478435 L 170.63036473526435 492.4232352072665 L 511.8030727172274 605.306617104714 L 578.9050698356867 273.8162397178476 L 264.7515515378094 248.84051086439533 L 276.8950087274184 538.8750308024581 L 537.1402555933944 495.77957941847774 L 470.1863182972011 269.68340500591984 L 281.1380139352618 352.7432053818883 L 372.18280608799796 503.4028178391194 L 484.7107844984337 412.5582290782165 L 402.01001567820657 336.3255519085069 L 358.7334531228303 403.4771911543406 L 403.74569678381135 418.5082403070703 L 396.4315931947081 401.16395826217223 L 411.01455556689433 423.95833424444044 L 441.7204094692722 374.6190688005791 L 356.3344349511877 343.9879812750214 L 333.8799339613818 465.120459258737 L 488.8745088654227 471.4872507606832 L 471.7326662527487 286.03463228047383 L 260.62535093202973 333.3340308649442 L 343.70539737281024 564.0651786956215 L 587.0189437999652 440.82381048775653 L 420.6494405749529 192.72564462152653 L 176.03853307411435 403.6562003520686 L 431.36492593147443 636.3338666043115 L 643.7960812120274 338.3810653824235 L 306.5381967933561 154.07450635397072 L 157.5120246161146 525.8730812311038 L 557.8052268388241 633.4466643152876 L 618.9635678859321 211.77846050179036 L 183.86629145381607 200.60606725493145 L 224.7264144977117 640.6376105777706 L 660.9460524174406 547.2997051281484 L 516.3057267184352 123.58273237219049 L 113.42187087530084 316.7687099669608 L 350.911673344103 691.1412328628774 L 690.0152307224744 414.9245202248994 L 381.7854698317585 116.6919634618294 L 128.6772112858415 449.3230660926411 L 477.4714710297512 654.5467166260721 L 633.6333163841168 298.1602046307997 L 278.2527151387322 190.62151482995156 L 217.30851668032312 536.676837775017 L 546.2935006904148 554.561781664243 L 526.0230014469765 249.54367006787317 L 250.77681274007833 301.8847399971669 L 328.15270660359283 542.8482957105371 L 531.7726451479219 448.1597353386496 L 427.8908895575666 283.39240255938836 L 301.8877111688778 388.25375801385445 L 399.727177082182 477.1656529197978 L 454.73408360419444 393.83935265309634 L 392.6228935247853 368.16408396149615 L 390.49598041421655 403.3975057540263 L 394.4399421298188 388.74786546526565 L 370.51645090458294 419.0884015927435 L 436.60621469924985 444.3365695539842 L 455.08427536725196 342.62063023490396 L 319.45218918394363 338.84674970345606 L 337.85524360140914 505.1570390794534 L 530.1930494869298 457.84954016195076 L 448.255731176066 245.38055455695118 L 222.58462000013026 366.45045475842693 L 385.8912341084986 597.612941501784 L 614.3326219388065 390.4892412644449 L 363.40488764427573 173.1844239095663 L 165.5485036495682 466.2980725591571 L 497.67170063910606 636.8010877898006 L 633.6123246185279 270.299354337109 L 238.6610860522066 175.17010434569133 L 189.40250560059434 591.5477653036404 L 619.333356364967 591.2528698998958 L 567.3158181458034 156.21723948263087 L 135.90294697384246 260.5304491582444 L 291.46388047200685 679.6202568269744 L 689.8630951515481 475.4467894947752 L 441.2084418292836 105.47931374899059 L 106.5164639394647 393.13277343848165 L 426.5292100305676 686.8414286813625 L 674.8800731664185 342.0304510190456 L 313.4847037613957 141.92937115214244 L 162.94750924001838 511.3346257808372 L 531.7323363726262 612.6099621171677 L 585.643663393551 252.8251683671254 L 242.69078570603324 242.86228081147817 L 271.87608219340655 561.9757998828871 L 561.2135946762587 499.6441486818099 L 472.7124854741698 244.74146101172232 L 255.46541968471115 351.72170444471834 L 372.808280817302 529.6379019323363 L 511.31488180880103 410.17277536979753 L 397.7852193553877 309.56541500447594 L 332.04320829052836 409.58389646703614 L 411.73821401517995 444.896725886789 L 422.2877691543357 391.3208959543632 L 399.39451223526254 398.8564815235789 L 417.5794303229329 387.9064522297311 L 371.14692866919484 366.9833825473257 L 355.5725074880711 448.9530444923047 L 471.54471851579586 451.2226688358866 L 452.98566588231324 304.3182704018601 L 279.6452401473112 350.5116525377473 L 359.30050680310524 544.5285015270483 L 567.1795780472899 426.78619063649205 L 408.1079969469562 212.6659593408021 L 195.89692516844096 414.79591763761067 L 441.22617680121584 616.7156158030676 L 624.5466851539109 329.65155076940164 L 298.7763753724721 172.85958387111717 L 175.77307120242634 532.8418161178113 L 564.158951172325 615.7324401080431 L 601.7822402172553 205.86538112617563 L 178.230204400274 217.30357374702325 L 241.02145161974883 646.1430755921197 L 666.4440873176231 531.2975811438669 L 500.46387610671576 117.99712101828158 L 107.68579668639006 332.6000290387176 L 366.89268240435524 697.0558174771973 L 696.1001318692739 398.6301401921286 L 365.0177389447857 110.48121624748228 L 122.42003070791054 466.71338842105786 L 495.61622851426966 660.7386312430381 L 639.6198596807155 279.152597707369 L 258.30245980908444 185.00388971315155 L 212.2409301733264 557.6167767942634 L 568.234437203577 558.8871933354301 L 529.4100951508829 226.6278012368655 L 226.94975060390206 299.62890955392436 L 327.2107487292559 567.4862188408305 L 557.0869222420276 447.62235875003324 L 425.73210043639494 257.566782722878 L 275.74147319772 392.1472199554547 L 405.4353211476525 503.42180959498194 L 480.8759640502294 386.2730386639423 L 383.19343147901964 342.367184154067 L 365.2740348789253 414.65595156499734 L 407.45481140710916 413.17284655142475 L 393.937384396492 404.4259659427105 L 420.4379901305899 422.10539708535487 L 434.20151866630357 360.1244775673951 L 338.0986272894074 358.254224371338 L 355.6959585415053 485.5775939713434 L 509.89985647459145 441.629333159691 L 433.67105273329673 266.1657507308597 L 243.6448312951341 379.42293208158947 L 397.31144398362846 576.4829137685439 L 593.3196188502244 380.527798212418 L 354.77936850464454 193.91778498356595 L 185.86878092669764 473.7345980855487 L 504.0841577295256 616.994301630715 L 614.3837754742667 264.7347526976299 L 233.76391533610408 193.79263305468692 L 207.428122385159 595.9549544543706 L 623.4180036746526 573.7796024222453 L 550.3176342165932 152.30432905894224 L 132.03357694950648 277.15955632102 L 307.8536315364862 683.5465705134989 L 693.9150764862802 459.1488671908605 L 424.8435845571924 101.2675441811262 L 102.1469238645372 409.727573642479 L 443.5140479008689 691.3304130959468 L 679.4150685467712 324.5054541441656 L 295.2861037332244 137.454376215148 L 158.66733894810005 530.3174946128618 L 551.5820865149898 616.5365351222479 L 589.0397044305462 232.05823145561516 L 220.99173986376738 240.18537073345956 L 270.1115940192756 584.5847089498419 L 584.6725274839383 500.30542496560224 L 472.0894121335138 220.52898747347427 L 230.63023816962834 353.79376396312847 L 376.4711651285585 554.9341646845749 L 536.8844952576202 404.8055403876466 L 390.63295201979275 283.93062945092396 L 306.5654600237647 418.56565117879757 L 422.5555748832942 469.9881436302858 L 446.7637048080467 378.7009054816127 L 385.04334413412784 375.21779508595296 L 394.985377731418 403.8808478259588 L 388.6033670995813 388.3462993978099 L 375.54443684522124 430.1845501953883 L 451.6575170765355 432.77010237952925 L 436.1456505306216 325.11372047992955 L 301.1282075736937 365.68357770892004 L 372.7875766966666 522.5818464407508 L 544.9889114886653 414.96221889008535 L 397.8884617797873 234.89218147962657 L 217.9680931249667 423.50365863893967 L 448.5446252334772 594.9663204870797 L 603.2572400376986 323.5752025644506 L 293.7762701752104 193.58401393075627 L 195.8628851132226 536.9435376148576 L 567.5450942789087 596.3098477914987 L 583.0224169580274 203.01425660079352 L 175.74284832061053 235.44083078999802 L 258.60946737390816 648.4219248629959 L 668.6476533759286 514.1562108519199 L 483.6422165570425 115.76285195732544 L 105.34623502033526 349.24742015218123 L 383.5232386634854 699.5408975460399 L 698.734925641817 381.85395598981313 L 347.93558709355455 107.7288491436558 L 119.61749862107462 484.2526444223237 L 513.7477738642107 663.491053846034 L 642.1926808504397 260.31569746020847 L 238.6746207364325 182.76461684928802 L 210.50790444225535 578.0892986637693 L 589.5703518954768 559.9289567124664 L 529.5701981088378 204.44672899307653 L 203.9792584937394 300.5390691716237 L 329.3708150353373 591.1537100748545 L 581.3244767439027 444.04858392317016 L 420.6030126385627 232.91717639956468 L 250.86431435552788 398.9454338821805 L 413.9840547497635 528.3211045956797 L 505.5774145822196 375.928304853469 L 371.0453603654458 318.0912176623078 L 341.65164281230284 428.57566833758943 L 423.07594651105444 435.9203732073592 L 415.6025840343201 387.21032099549006 L 401.76827539875484 401.7096012957717 L 415.23597507391383 380.0786216064653 L 359.1437160113234 375.6598166873308 L 371.4468699408187 463.6527016924837 L 487.31716317012746 427.59028097126594 L 421.3622356980531 289.18053763533624 L 266.86955834129947 390.02181627980053 L 406.25788250258097 553.2597476925238 L 570.2921814852626 373.14194050522815 L 348.83186651179636 216.57868129828856 L 208.02082466400466 478.3912492448367 L 507.61678531792603 595.4608380073446 L 593.5431615165977 262.1466155005281 L 231.9350631594215 213.9031477623053 L 226.80850314358946 597.2082051247477 L 624.2707228122563 555.0933527924092 L 532.255980266012 151.69241543506305 L 131.52421027044426 294.69594340304116 L 324.9890383810956 684.0648882773055 L 694.5228133026571 442.2709498973198 L 408.06692256374475 100.52404054501642 L 101.25722381690093 426.56502818407114 L 460.5730113438015 692.3403808130198 L 680.4839506410799 307.0726949677571 L 277.3424819915553 136.42108384555428 L 157.79376038513047 548.8875920970664 L 570.8673714353216 617.1013150230306 L 589.1272577284844 212.0004105191125" stroke-opacity="1" stroke-linecap="round" stroke-miterlimit="10"/></g></svg>