<svg version="1.1" xmlns="http://www.w3.org/2000/svg" xmlns:xlink="http://www.w3.org/1999/xlink" width="800" height="800" viewBox="0 0 800 800"><defs/><g/><g transform="scale(1,1) scale(1,1)"><g transform="scale(1,1)"><rect fill="rgb(0,0,0)" stroke="none" x="0" y="0" width="800" height="800" fill-opacity="1"/></g><path fill="none" stroke="rgb(255,255,255)" paint-order="fill stroke markers" d=" M 400 400 L 554.6143105389303 604.5909053836936 L 472.6551445582075 143.95100071847713 L 381.54737414660923 407.1712657440953 L 190.99379003512286 271.00030554839924 L 425.83419817516705 673.4944010813629 L 429.13980045131217 373.3213401005184 L 629.8342581503051 442.37082826795 L 273.5524684453066 147.8618395276365 L 373.85021762764586 452.9403833340926 L 183.11999188156145 441.34171659263546 L 613.7378912379378 593.3202943011768 L 406.89383079056574 321.97623021792157 L 575.4042748631599 290.2677565951478 L 126.19966574908995 295.49600530872067 L 427.1178273958053 493.41080664603226 L 285.10085251363114 553.9673524383049 L 696.6535815222428 398.20416239325755 L 329.63428699942943 308.0522073836148 L 447.1491274974856 229.92468529983503 L 122.00550721426248 509.97895016246196 L 514.2774945181278 469.58087574127103 L 416.02020689629296 559.2927337330826 L 620.007017635968 196.11285992373976 L 251.12111335698344 373.4844581302532 L 335.12019220941613 272.5598471640901 L 268.92633274400583 669.4552098568577 L 564.8253177444808 367.54571463055265 L 493.4273625670577 483.4799290598044 L 424.43248475937173 102.97693654925632 L 244.58166475542708 498.5431614883985 L 299.7778502458233 362.44074544218853 L 483.9896120694575 682.9051596904028 L 518.2041039104976 239.5870940929902 L 488.29471117374396 398.930949877553 L 221.81027230518578 170.05481842441864 L 344.1774600769605 606.2025543973627 L 335.818485824219 425.84162758761727 L 644.6923616193468 546.9644351639206 L 375.9119191531573 174.22249833553494 L 436.3023095818854 365.94675083692323 L 125.30852884528571 352.7908433865966 L 509.94997982616087 612.7735665348787 L 386.97880272416813 427.1855225175846 L 665.3648216010034 346.0786773638692 L 211.89603233940502 233.96074899285708 L 400.7883539906078 389.6495682924625 L 179.85490554811108 541.458879246594 L 645.1470185260421 490.1826716384619 L 397.262228244291 390.97878982884106 L 547.9206817056399 196.6935126995652 L 129.6686017858787 404.90995662060993 L 418.02185152570763 422.9678021276304 L 338.6695597551481 632.1097625872343 L 657.5857680818151 294.4707891651748 L 357.9851463357095 375.1103397418517 L 374.4758784992704 173.75437972331198 L 193.22144233155709 596.3345442750789 L 467.3429331280865 411.15444755427825 L 499.5275827925196 589.7785494619769 L 523.9750724434107 137.0927902243032 L 314.4674760273858 417.9197750521207 L 249.28110994809575 268.57520823061805 L 379.38132378834734 694.2149032079997 L 488.9433322306371 342.0838635606266 L 573.7992153346353 462.74397899551985 L 311.76030674913926 115.45222516670611 L 327.4084249018351 501.05220255735105 L 231.27031273224827 404.0864721715218 L 586.3661107179527 634.5748273849678 L 435.48540931727234 262.33392586279956 L 540.3433444533878 341.5086820802351 L 140.99586593247244 248.67617256076798 L 418.8149422065022 558.1740611795765 L 302.9194477037287 493.3011650635955 L 695.3073910939921 447.0787874482886 L 317.44806326252586 244.88079410658685 L 449.11815836192886 294.1819874578986 L 109.88126398136427 462.6179835111989 L 545.0026139368839 524.9031560701615 L 393.7300658955124 497.9684519103973 L 644.785666310139 238.48741546251375 L 205.6229301647988 331.15427435532024 L 376.06982765319594 324.45170370808904 L 233.1270039821454 635.2910913281058 L 620.0376770246608 393.33788890521754 L 437.59531976963353 446.73667891756287 L 468.82988467497603 126.12494361485085 L 185.37807287273588 490.97740870152364 L 364.9487324688657 379.8048230730726 L 434.14658552274335 672.9661005236482 L 575.6588204700404 229.12211048707783 L 420.50904394454807 403.1424257740325 L 273.3312797020047 165.41835911906435 L 293.64618229891414 632.8040087839524 L 399.0692591029788 400.2067916973162 L 595.6835854552485 566.5061610027185 L 415.36544565867416 134.72831231129715 L 384.33298314714096 410.47396842089216 L 167.474155146125 319.22332051854164 L 484.41934391683907 661.0150351315581 L 422.1175994581627 368.4106344355117 L 634.1493215872711 391.49161066112265 L 222.08191714909975 181.54194848488353 L 386.1773989455789 456.4435851859853 L 196.6575159806229 487.65198636868115 L 650.3479266790115 542.229140019478 L 389.9269062632763 323.2512418507713 L 547.9202175576573 254.3525889202608 L 110.25438643406045 357.3982867663462 L 446.29869107403874 484.5141889037285 L 320.9301848732815 575.8898924106975 L 689.062706491555 333.93740658766876 L 312.04041246827285 326.0689345752421 L 409.1788780999964 222.9779016369202 L 152.54332188749024 567.6101044290773 L 525.8402414795553 442.8634516608139 L 450.44051651114484 552.7911818875041 L 570.5384395775019 153.26352354693105 L 249.73753905912758 406.3711928842927 L 308.49124997378846 289.01918047139657 L 330.4783789148567 691.5134484291806 L 553.1384714739559 332.88657461352375 L 510.06469788620467 461.65227488494406 L 359.4146421615251 104.64145217462101 L 270.18837215555743 529.3740475817508 L 293.13583896810445 384.9479250672927 L 543.432416395501 658.1028302476695 L 480.30955814040806 218.42095320664927 L 486.8476826648895 379.59779753918303 L 176.00079956146695 214.0283116789528 L 390.2603830983821 612.7316981920235 L 342.18641674664366 439.6715878478526 L 671.0199156238602 490.4870192445159 L 327.71552839794384 185.41304647542918 L 428.582084178987 358.1072529555247 L 121.25720993987738 413.5096935618604 L 553.1126400072778 583.4198261083645 L 392.97061853076184 430.28647435451603 L 647.7266164116824 289.6405793750513 L 180.81995066810498 278.96448508714684 L 398.3892542847672 388.78182378320474 L 215.44907194163164 586.1692397861302 L 658.4052689902405 434.80303445885784 L 395.8387424218247 392.61753813962844 L 500.511239079111 168.97460935610306 L 137.5714505106181 463.32825975553334 L 421.84050774409866 417.9104938647372 L 390.4493225706831 640.4566799369777 L 628.2727720485914 241.31854319065502 L 354.4812556056486 385.1080418862167 L 325.8114740220105 184.0898488453505 L 240.89314086865627 636.2623413496623 L 467.23179559463534 396.33343502530676 L 538.7496330353687 564.1832142394131 L 463.9495128400923 116.69356196692763 L 321.2214333710951 435.6680540168698 L 223.7406564723532 304.0538945875016 L 443.6586015690264 691.5093891746109 L 473.64028231082233 324.809007974743 L 584.0147366983934 423.6505817573536 L 252.20139435782713 141.46273544610818 L 351.39524144915356 513.5929939148816 L 235.408816459487 440.77446152403894 L 632.7673428460927 588.5377765290839 L 404.7539295325074 258.7543128436385 L 524.9877552054295 311.9890603256581 L 114.32909869093066 308.45028934916866 L 452.40614382738613 549.5648299764307 L 324.9952846010357 512.8450988141913 L 698.5635134657978 381.9041140594961 L 286.27214137166055 267.0659092869354 L 425.1860753859006 285.19019987811555 L 130.24373719949614 524.1089481155068 L 567.9934606916372 490.13261699861613 L 415.26653739330027 497.88598207611994 L 604.0667781841425 189.09703615764036 L 196.0063003389915 375.03594266074356 L 359.7927248676454 330.64509919187356 L 288.0307532268068 666.1234876155843 L 612.7260632768493 345.93214642321504 L 447.56639137118844 438.0534661232985 L 407.79928970575446 117.39544203954728 L 210.70869764839273 535.0121224588199 L 360.5017554237145 387.6050481200466 L 492.66508961461835 659.4191805514561 L 534.113229838023 195.55180358947658 L 421.65134826588536 398.55611579787035 L 225.1825485175919 198.1461740369342 L 346.7748068473065 649.84176736642 L 398.27254036780977 400.8074727153739 L 627.5731289572988 520.3300994121107 L 357.53574424722194 138.14847175785343 L 387.63522079153665 412.93477401104644 L 154.9493912311195 371.51609008649575 L 538.8253198931818 636.1581320758435 L 414.3781840927085 365.2393986645411 L 627.3052493973397 340.7594281121056 L 179.19366025746533 225.5349028727701 L 398.7686824240827 457.1625350789616 L 219.98828947480126 530.0446800266607 L 674.979489563281 484.46627697869735 L 373.8358249703137 328.12888909801154 L 513.1829881056647 225.1601258943456 L 108.11930262267202 421.2404467808432 L 462.9313976466577 471.7813386222688 L 360.8136331629034 589.5667806979411 L 667.7212047777216 272.8777005923312 L 298.88082653223546 347.3136617220673 L 370.4383287539588 224.44330392493384 L 194.84452213854343 617.2303863939342 L 531.2911668254152 414.45590809247614 L 482.79041226730254 538.9045702207886 L 512.9561055362981 122.16813656650606 L 255.49402469366555 438.59700769478013 L 285.9397579691224 310.9941092501899 L 395.3592366489083 699.6947267364676 L 534.2972930483479 301.7377675732421 L 521.644335157835 436.56147710799416 L 296.28376982809766 120.37666376629727 L 301.74532825068013 553.8124596151519 L 291.52867757803165 408.5539812698588 L 596.1091144677388 620.9746240333742 L 438.874372425961 206.02668031170072 L 481.1748236022366 360.85175155057743 L 140.794013442321 266.93420487241417 L 436.51608414307816 609.1176299970516 L 351.53484763462126 451.9440330286554 L 684.4819239077433 429.58121453938145 L 283.21829570142575 206.73522013809682 L 419.1641075606633 352.03287296971143 L 130.48645276358803 473.7368314302006 L 588.792356308056 545.4922523360149 L 399.69786552743864 432.0382426819123 L 618.2201711680289 238.2960657949588 L 160.29095047951034 329.5322686907817 L 395.6577625947101 388.50700700002744 L 259.97404140291724 622.1561552546458 L 659.3314365207921 377.96886391044444 L 394.97355339744007 394.4048231273404 L 448.1097525475082 152.16713287353866 L 157.92834435731447 518.5556357576412 L 424.3580684878874 412.31870208557996 L 442.9306339764823 637.3632974908182 L 588.1785685449897 195.85004049672818 L 353.271834622018 395.42683132999554 L 280.4260392471083 204.79374946779032 L 296.0335477989724 664.8672589034447 L 463.94115191259533 382.0894516157541 L 571.5850333491446 530.5835632086603 L 400.97985968004826 109.80767328152848 L 331.5633352998461 451.3571139313607 L 206.4463659123136 344.3713684342106 L 505.7808284296687 674.9341375887014 L 455.10731793758436 311.38560054043865 L 585.509249121323 383.10862826556445 L 199.7237628175395 179.7595082973747 L 377.3500342251689 520.5764387885605 L 247.46688834593246 475.85201690545296 L 668.0702923282254 533.5406027925055 L 374.16068673872775 261.9128291286885 L 503.47559563299694 286.36939061361136 L 101.2640679328378 372.58814526585775 L 483.17045304816133 533.9497217675569 L 350.950012214458 527.2198148675634 L 687.6006708845111 317.5593826306521 L 260.7670295618948 295.36268440634433 L 399.6829988920429 281.58390585832757 L 163.4761426337751 579.7436298911448 L 582.8337974156238 451.3515208377324 L 436.4617631400451 493.0822058018059 L 553.568921557423 149.68977705414588 L 196.1400702102026 419.8072909376909 L 345.085425460055 340.3409336942111 L 348.3698254262848 684.3271471655689 L 595.3542805165157 301.3742664408566 L 455.52542248058336 427.24199229728055 L 346.2589905518185 122.1192279273215 L 244.9012582689308 572.4050304077559 L 357.8129636384847 396.38633231216426 L 546.925296557162 633.4641047787322 L 486.38178743072865 171.84837941608833 L 421.7352077329301 393.6269750381689 L 185.21581627314026 240.60929304698374 L 402.2258079360308 654.9373378992526 L 397.7332108573571 401.74436791857676 L 648.7253328955858 468.23639719381197 L 301.91877705115024 154.0065951242856 L 391.2278180111614 414.4943721871837 L 154.06631150655383 425.3989672202541 L 586.4753435368873 600.1412597164797 L 406.3332693821011 363.8802331772178 L 609.5724425156659 292.5992262765922 L 146.90863963713915 277.72311369627676 L 411.01269050036495 455.1507675819977 L 252.05372394813085 566.4702915606948 L 686.4825673504579 422.7935099510529 L 359.3664225284557 336.2921018013533 L 472.80631575408654 204.13145353584352 L 119.8764333523963 483.98044335538634 L 476.2726029293894 455.8888700326762 L 402.8724880017889 594.2808134024133 L 633.658832144591 217.92927194323593 L 290.7131125970319 370.7279560465671 L 332.77718462902186 234.32366658527985 L 246.88791065368812 656.4811226592003 L 530.4496093781253 385.72911013016653 L 511.4972209421869 518.2252272691185 L 450.004075474613 104.30627257921452 L 268.0391021851301 468.63853298432184 L 268.5967100062029 337.492968837208 L 460.4785984294327 693.6053694984261 L 509.26433055619617 275.5457491885749 L 527.5393437153768 409.3708638915481 L 238.04971374829 149.44258270096907 L 337.70437437153333 570.7499072615586 L 295.11701936342877 432.13694174358693 L 639.5011517800419 573.2763665164715 L 395.89291556020635 202.9301531430083 L 471.46521057032874 343.6145545629693 L 117.88514723971065 326.2640793282041 L 480.74507229538904 595.5960386373787 L 363.48489643577295 462.0171203426741 L 684.41033829853 367.142676160437 L 244.51504021154128 237.1194823395107 L 408.4552421565439 348.09144614020323 L 152.5891595374126 530.5979701985991 L 615.3288220300389 500.83554272174155 L 406.85069928636784 432.26828712686836 L 578.2179153013913 194.5104745687923 L 151.2410155677037 383.23596477834036 L 392.7464739411537 388.92551616076344 L 311.3359543437667 647.671033553384 L 647.9261339599301 322.38873124976163 L 394.65528360314664 396.18223422386916 L 393.19804164520923 147.1184215094565 L 189.73238080987565 567.9745499852816 L 425.52986624494713 406.50785558893256 L 493.6096443358867 622.9233502959215 L 539.2388333997432 160.2089515856772 L 354.32730967576435 405.5568419987521 L 240.50654966800332 234.93263767256624 L 356.00265530885395 680.8118055619137 L 457.7145372982525 369.08671175021834 L 596.424017888922 490.53694080718793 L 338.06842511075405 116.7405589012501 L 344.9261334326249 464.2835852533859 L 198.2840654626076 387.6323911386095 L 562.7929382142622 645.2951308660664 L 434.2795236420134 302.38661723139114 L 578.1407574980929 343.04814968037823 L 156.82085258628513 228.5092252731175 L 404.01244594205724 521.7485790659015 L 266.93988868257725 507.6224661932521 L 690.5974924126979 472.2060317732405 L 345.15706361849055 271.5795857208157 L 476.7735007322997 265.9214501823806 L 102.42399435855339 438.0345028119892 L 509.67541700742555 512.141779770518 L 379.58414514388693 535.6690878066834 L 662.9344141395122 257.11100301001244" stroke-opacity="1" stroke-linecap="round" stroke-miterlimit="10"/></g></svg>