<svg version="1.1" xmlns="http://www.w3.org/2000/svg" xmlns:xlink="http://www.w3.org/1999/xlink" width="800" height="800" viewBox="0 0 800 800"><defs/><g/><g transform="scale(1,1) scale(1,1)"><g transform="scale(1,1)"><rect fill="rgb(0,0,0)" stroke="none" x="0" y="0" width="800" height="800" fill-opacity="1"/></g><path fill="none" stroke="rgb(255,255,255)" paint-order="fill stroke markers" d=" M 400 400 L 487.4264493597389 671.4933817923284 L 256.39995656316603 503.1842532618692 L 541.2433713676552 504.3282523660205 L 308.86922200171085 670.7662155213659 L 398.4789047190003 399.98003806483126 L 483.71659794196023 672.1630229434265 L 254.0528849391425 501.9936416821904 L 538.8779779820128 505.4255661481261 L 305.17138263300717 669.9815752387012 L 396.95863436555896 399.920160160729 L 480.0021905455435 672.7751048103514 L 251.7162921703829 500.7565067095976 L 536.504742829785 506.47613800205687 L 301.4809984117281 669.139528991719 L 395.4400135733668 399.82038998920603 L 476.2841939779719 673.3296101717738 L 249.39105565108164 499.4729536530864 L 534.1245455845935 507.47992756088786 L 297.79903429944886 668.2401617569295 L 393.9238663883756 399.68076704378467 L 472.5635747506553 673.8265387430802 L 247.0780514623899 498.1431040328841 L 531.7382657466667 508.4369106904369 L 294.1264540389721 667.2835754244005 L 392.41101597541353 399.5013465965134 L 468.8412987761376 674.265907164543 L 244.77815407542636 496.7670955599685 L 529.3467823455705 509.3470794771024 L 290.4642198518761 666.2698887767189 L 390.90228432458605 399.28219967907035 L 465.1183310655989 674.6477489840429 L 242.49223605500143 495.34508210994596 L 526.9509736437908 510.2104422107158 L 286.8132921364423 665.1992374625484 L 389.39849195863167 399.02341305850985 L 461.3956354267792 674.9721146344666 L 240.22116776340687 493.8772336917902 L 524.5517168399709 511.02702336136144 L 283.1746291661159 664.0717739645737 L 387.90045764049864 398.7250892076236 L 457.67417416235406 675.2390714054382 L 237.9658170648453 492.3637364111321 L 522.1498877736436 511.7968635516206 L 279.5491867885044 662.8876675622885 L 386.40899808135913 398.3873462699185 L 453.9549077689216 675.4487034098051 L 235.72704903107837 490.8047924278271 L 519.746360629593 512.5200195225789 L 275.93791812515354 661.6471042890464 L 384.9249276496852 398.0103180192731 L 450.23879463666606 675.6011115445091 L 233.5057256469979 489.2006199086701 L 517.3420076435793 513.1965640950389 L 272.34177327207084 660.3502868838468 L 383.44905808060355 397.5941538141976 L 446.52679074983183 675.6964134462662 L 231.30270551746722 487.55145297447467 L 514.937698808671 513.8265861251713 L 268.76169900112575 658.9974347377934 L 381.9821981868436 397.13901854685605 L 442.8198493880701 675.7347434417376 L 229.11884357555257 485.8575416416026 L 512.5343015823045 514.410190454674 L 265.1986384624722 657.5887838350068 L 380.5251535698564 396.6450925866721 L 439.1189208287342 675.716252492244 L 226.9549907909799 484.11915175862737 L 510.13268059473074 514.9474978559443 L 261.65353088807683 656.1245866882603 L 379.07872633308745 396.1125717188107 L 435.4249520502927 675.6411081330575 L 224.81199388015793 482.3365649374355 L 507.73369735837105 515.4386449718141 L 258.1273112963694 654.6051122692952 L 377.64371479461096 395.54166707708856 L 431.7388864369501 675.5094944078357 L 222.69069501793442 480.5100784788394 L 505.3382099780455 515.883784249579 L 254.62091019821418 653.0306459337886 L 376.22091320344896 394.93260507205304 L 428.0616634844535 675.3216117971664 L 220.59193154952408 478.6400052934888 L 502.94707286298586 516.2830838703319 L 251.13525330436426 651.4014893407953 L 374.8111114551117 394.2856273134588 L 424.39421850733055 675.0776771418984 L 218.51653570524402 476.7266738168898 L 500.5611364402778 516.6367276731039 L 247.6712612341197 649.7179603674767 L 373.41509480921013 393.6009905276223 L 420.73748234760086 674.7779235617113 L 216.46533431595392 474.77042791964493 L 498.181246869012 516.9449150729157 L 244.22984922581873 647.9803930180303 L 372.03364361060494 392.8789664700863 L 417.09238108499426 674.4226003676533 L 214.43914852964363 472.771626812657 L 495.8082457570883 517.2078609748745 L 240.81192684893375 646.1891373275666 L 370.6675330083652 392.1198418322607 L 413.4598357488726 674.0119729702627 L 212.43879353165354 470.7306449464186 L 493.4429698789301 517.4257956822307 L 237.4183977177998 644.3445592609987 L 369.3175326796527 391.32391814367054 L 409.84076203188806 673.5463227819794 L 210.465078264348 468.64787190615215 L 491.08625089497565 517.5989647992934 L 234.05015920731793 642.4470406065316 L 367.98440655463827 390.49151166897957 L 406.23607000548174 673.0259471144539 L 208.5188051505963 466.52371230108815 L 488.7389150737425 517.7276291301971 L 230.70810217065042 640.4969788641104 L 366.66891254217506 389.6229532996305 L 402.64666383728724 672.451159071022 L 206.6007698182348 464.3585856491504 L 486.4017830147873 517.8120645711869 L 227.39311065875282 638.4947871288161 L 365.3718022594512 388.71858844102985 L 399.07344151064774 671.8222874338826 L 204.71176082660565 462.15292625653876 L 484.07566937473166 517.8525619993379 L 224.10606164228935 636.4408939692215 L 364.093820761543 387.77877689411525 L 395.5172945461362 671.139676546235 L 202.85255939625642 459.9071830920751 L 481.76138259477955 517.8494271552958 L 220.84782473550055 634.3357433007425 L 362.83570627576086 386.80389273279076 L 391.97910772540905 670.4036861896473 L 201.02393913968564 457.6218196570312 L 479.4597246303915 517.8029805211186 L 217.6192619227084 632.1797942538817 L 361.5981899358287 385.79432417570945 L 388.4597588172527 669.6146914561225 L 199.22666579491914 455.2973138498282 L 477.1714906840892 517.7135571942565 L 214.42122728680607 629.9735210378657 L 360.38199551911043 384.75047345336475 L 384.96011830606085 668.773082615478 L 197.46149696242463 452.9341578257415 L 474.89746893925224 517.5815067547344 L 211.2545667407219 627.717412798993 L 359.1878391883265 383.672756671147 L 381.4810491228584 667.8792649779223 L 195.7291818429391 450.5328578521803 L 472.6384402982631 517.4071931301854 L 208.12011776106914 625.411973474444 L 358.0164292319042 382.5616036661812 L 378.02340637877865 666.9336587511957 L 194.03046097993624 448.09393415873683 L 470.39517812113456 517.1909944530282 L 205.01870912457304 623.0577216413633 L 356.868465812257 381.4174578615046 L 374.58803710125926 665.9366988942754 L 192.36606600178484 445.61792078325243 L 468.1684479686688 516.9333029157435 L 201.951160647433 620.6551903607863 L 355.74464071028 380.24077611297696 L 371.1757799729924 664.8888349643954 L 190.73671937068627 443.10536541228703 L 465.95900734765786 516.6345246205127 L 198.91828292717517 618.2049270175044 L 354.64563707915164 379.0320285542332 L 367.7874650735943 663.7905309619812 L 189.1431341307192 440.55682921781386 L 463.76760545774493 516.2950794220957 L 195.92087708785664 615.7074931545405 L 353.57212919605604 377.7916984350039 L 364.4239136243808 662.6422651677309 L 187.58601366188967 437.9728866887722 L 461.59498294360344 515.9154007703871 L 192.9597345278532 613.1634643038465 L 352.5247822193826 376.52028195595483 L 361.0859377359134 661.4445299783717 L 186.06605143533807 435.35412545844355 L 459.4418716477481 515.4959355442 L 190.03563667101662 610.5734298118363 L 351.5042519499171 375.2182880996177 L 357.77434015880687 660.197831735258 L 184.58393077171357 432.70114612743396 L 457.3089943682709 515.0371438840464 L 187.14935472086086 607.9379926608647 L 350.5111845915582 373.8862384551535 L 354.48991403755633 658.9026905505484 L 183.14032460461033 430.0145620818712 L 455.1970646185023 514.5394990181294 L 184.30164941805623 605.2577692860243 L 349.5462165188786 372.52466704054814 L 351.23344266766117 657.5596401274347 L 181.7358952443485 427.29499930785585 L 453.1067863905511 514.0034870853267 L 181.49327080134128 602.5333893877056 L 348.6099740453634 371.1341201191848 L 348.00569925602116 656.1692275774762 L 180.37129414900133 424.54309620094915 L 451.0388539215726 513.429606952535 L 178.72495797162642 599.7654957398861 L 347.70307319784905 369.71515601374244 L 344.8074466848935 654.7320132316747 L 179.04716169391756 421.7595033722843 L 448.9939514644408 512.8183700300609 L 175.99743885979893 596.9547439941717 L 346.82611949068047 368.26834491385404 L 341.63943727911374 653.2485704493059 L 177.76412695045872 418.9448834496758 L 446.9727530609638 512.1703000808398 L 173.31142999786684 594.1018024797056 L 345.979707708265 366.7942686824766 L 338.502412576842 651.7194854220785 L 176.52280746266922 416.09991087538157 L 444.9759223185858 511.48593302530765 L 170.66763629402527 591.207351998849 L 345.164421685469 365.29352065486086 L 335.3971031042596 650.1453569728724 L 175.32380903256356 413.2252716993731 L 443.0041121921359 510.7658167457151 L 168.06675081117996 588.2720856189989 L 344.38083409630747 363.7667054362614 L 332.3242281533584 648.5267963531294 L 174.16772550533258 410.3216633688888 L 441.0579647669195 510.01051088070534 L 165.50945454936192 585.2967084603334 L 343.62950624496204 362.21443869500115 L 329.2844955643146 646.8644270328044 L 173.05513856128474 407.3897945140167 L 439.1381110478813 509.22058662180825 L 162.99641623202587 582.28193747975 L 342.910987859764 360.63734695107945 L 326.2786015109424 645.1588844898097 L 171.9866175098647 404.43038472953083 L 437.2451707511273 508.39662650239904 L 160.52829209618372 579.2285012508328 L 342.22581689213587 359.03606736182826 L 323.30723029039416 643.4108159934381 L 170.96271908765408 401.444164353028 L 435.3797520999741 507.539224184281 L 158.10572568656784 576.1371397402522 L 341.57451931823425 357.4112475029038 L 320.3710541168947 641.6208803849285 L 169.98398726217104 398.43187423924473 L 433.542451624758 506.64898424040405 L 155.7293476538779 573.0086040803583 L 340.95760894695525 355.7635451474223 L 317.4707329194102 639.7897478541896 L 169.05095303694065 395.39426553095694 L 431.73385396684785 505.72652193419043 L 153.39977555723246 569.8436563381165 L 340.37558722840714 354.0936280388858 L 314.6069141433714 637.9180997129113 L 168.16413426441622 392.3320994262864 L 429.95453168642 504.77246299438144 L 151.11761367056104 566.6430692807955 L 339.8289430720449 352.40217366477333 L 311.78023255664027 636.0066281643349 L 167.32403545874905 389.2461469426119 L 428.20504507475704 503.78744338737806 L 148.88345279352652 563.4076261377948 L 339.31815266121185 350.68986902086357 L 308.99131005983253 634.056036069002 L 166.53114761618005 386.1371886770085 L 426.4859419710791 502.7721090877181 L 146.69787006657327 560.1381203594377 L 338.8436792805709 348.95741037882027 L 306.2407555008315 632.0670367077199 L 165.78594803939484 383.00601456360545 L 424.7977575824425 501.7271158405731 L 144.5614287904404 556.8353553722811 L 338.40597314057027 347.205503044899 L 303.5291644931599 630.0403535420323 L 165.08890016491824 379.8534236275456 L 423.1410143092085 500.6531289254389 L 142.47467825019493 553.5001443312784 L 338.0054712106944 345.434861118893 L 300.8571192399621 627.9767199688865 L 164.44045339499448 376.6802237359037 L 421.51622157483996 499.5508229167273 L 140.43815354346714 550.1333098687851 L 337.6425970570493 343.6462072501386 L 298.2251883614052 625.8768790746508 L 163.8410429353467 373.48723134559776 L 419.9238756590696 498.42088143682014 L 138.45237541360655 546.7356838404812 L 337.31776068092717 341.8402723873968 L 295.63392672660325 623.7415833861322 L 163.2910896378196 370.2752712483663 L 418.36445953673234 497.2639969106073 L 136.51785008712528 543.3081070684123 L 337.0313583658828 340.0177955292955 L 293.0838752911331 621.571594616054 L 162.79099984466018 367.045176312658 L 416.8384427210191 496.0808703171847 L 134.63506911603463 539.8514290810235 L 336.7837725270935 338.17952346984225 L 290.57556093807614 619.3676834085157 L 162.34116524049202 363.79778722294736 L 415.3462811105246 494.8722109341807 L 132.80450922474466 536.366507850475 L 336.5753715672522 336.3262105430331 L 288.10949632442936 617.130629079946 L 161.9419627089603 360.5339522165008 L 413.88841684183177 493.6387360839083 L 131.02663216173448 532.854209527229 L 336.406509735649 334.4586183633794 L 285.68617973149475 614.8612193590824 L 161.59375419095562 357.254526816888 L 412.46527814675386 492.38117087690716 L 129.301884556135 529.3154081719333 L 336.27752698988553 332.5775155616073 L 283.3060949214547 612.5602501211405 L 161.29688655279185 353.96037356590745 L 411.07727921356565 491.1002479478152 L 127.63069777906219 525.750985484911 L 336.18874886968365 330.68367752530276 L 280.96971099699226 610.2285251235207 L 161.0516914525799 350.6523617518395 L 409.72482005425485 489.7967071969797 L 126.01348780985734 522.161830532998 L 336.14048636644566 328.77788612789584 L 278.67748226703026 607.8668557361556 L 160.85848521941642 347.3313671368593 L 408.40828637518257 488.4712955188926 L 124.45065510732451 518.5488394741807 L 336.1330358052653 326.8609294632111 L 276.4298481174394 605.4760606698563 L 160.71756873122712 343.99827168090263 L 407.1280494542484 487.12476654123157 L 122.9425844859174 514.9129152798588 L 336.16667872620457 324.93360157176016 L 274.2272328857628 603.0569657037319 L 160.6292272995204 340.65396326379204 L 405.88446602170364 485.7578803513935 L 121.48964499694728 511.25496745503835 L 336.24168177410724 322.9967021686881 L 272.0700457418659 600.6104034090941 L 160.59373056041133 337.29933540548967 L 404.6778781464218 484.37140322347335 L 120.09218981487595 507.575911756235 L 336.35829659360655 321.0510363702004 L 269.95868057269377 598.1372128726458 L 160.61133236916902 333.93528698409546 L 403.50861312744246 482.9661073479363 L 118.75055612871313 503.8766699075608 L 336.51675972399397 319.09741441167364 L 267.89351587283693 595.6382394165958 L 160.68227070170067 330.5627219522773 L 402.3769833900276 481.54277055154404 L 117.46506503846297 500.1581693148239 L 336.7172925089364 317.1366513758609 L 265.8749146412826 593.1143343151354 L 160.8067675581837 327.1825490512297 L 401.28328638731966 480.1021760243386 L 116.23602145693673 496.4213427778475 L 336.96010099963905 315.16956690501166 L 263.9032242796628 590.5663545147693 L 160.985028874583 323.79568152354204 L 400.22780450668654 478.64511203388463 L 115.06371401654849 492.6671282009689 L 337.2453758731475 313.19698492371583" stroke-opacity="1" stroke-linecap="round" stroke-miterlimit="10"/></g></svg>