<svg version="1.1" xmlns="http://www.w3.org/2000/svg" xmlns:xlink="http://www.w3.org/1999/xlink" width="800" height="800" viewBox="0 0 800 800"><defs/><g/><g transform="scale(1,1) scale(1,1)"><g transform="scale(1,1)"><rect fill="rgb(0,0,0)" stroke="none" x="0" y="0" width="800" height="800" fill-opacity="1"/></g><path fill="none" stroke="rgb(255,255,255)" paint-order="fill stroke markers" d=" M 400 400 L 287.6641302913083 150.57343826028298 L 251.15159893849938 568.1914400063267 L 314.861686200772 373.5427517360828 L 436.2031772870778 695.5875906448489 L 532.8369796851096 319.4609898225784 L 540.2664404355003 496.495836140345 L 452.6693375592306 109.60940844284772 L 330.07365228671324 417.3898386587046 L 254.03930837526227 214.5913099474455 L 277.0928082508084 635.668856964342 L 382.2855773148768 398.9793739294653 L 500.23584636424494 661.8305736967227 L 549.709530466278 249.27381168177243 L 499.1923689572728 437.2058002021679 L 380.7545355479031 101.19740118681432 L 276.4020363034931 465.52721932702974 L 254.21145201197183 286.81949138881555 L 331.58350006995624 683.2823371664806 L 453.76019633961107 389.873013331653 L 541.0890311995278 602.1435927434495 L 531.8026017911835 179.25528672433933 L 435.19105879238896 404.0686098335488 L 313.2248604369096 127.28794137097651 L 251.47096542201228 533.2506508378144 L 288.0994521294724 350.5108082509324 L 402.03033491153326 699.9918519099783 L 512.6718202897514 348.33521609338663 L 549.3314653626417 530.3659268522435 L 483.22700534706775 125.64042822905253 L 363.1434272592547 404.7675403266853 L 265.69694762085373 181.83163781881012 L 261.10230001362913 604.8572555645783 L 347.804641751768 390.8975429393821 L 472.1402874054047 681.9229000314165 L 545.3196567078797 283.9973219996608 L 523.0932039324591 463.1402240640438 L 415.2045717906063 100.86084707886948 L 299.7960592109766 439.1403749425886 L 249.14970567678083 252.18183093909403 L 303.1040563899004 663.743731563766 L 419.4422277289426 398.61556500098794 L 525.6984435285494 633.2648726774416 L 544.0925905478764 211.77728502504283 L 468.49919993564885 416.05363852145456 L 343.46619073460016 110.66228488639956 L 259.8782447008631 499.2170174444734 L 267.3786817019451 322.0269220662118 L 367.7786530557951 696.2560924282224 L 486.36070111018205 371.8755538309418 L 550.3276864786468 565.2996762793479 L 509.2339424127432 148.4207082347622 L 398.2491364303654 400.0237006588435 L 284.6043536387799 152.77237233784993 L 252.68675855938397 571.0674857815526 L 316.1160033581556 375.1724772647127 L 440.17144929129734 694.8555613853839 L 533.0027546169183 316.87788113775844 L 540.3585281705355 493.7858429576396 L 448.7850508573213 108.61810915085596 L 328.6728027730341 418.7669139820623 L 252.22592059707725 217.42751419049839 L 279.9302551023151 638.031800170605 L 384.01995306878365 399.2961646259994 L 503.5382165981938 659.8665566974382 L 548.5124920401383 246.37495606243692 L 498.14367024003275 435.30466400000773 L 376.72076009708405 101.59868941503623 L 275.94377295447305 467.93702457032174 L 253.79715328350275 289.63673424995244 L 335.33308937084064 684.5828646090415 L 455.30472583845756 388.80488307245554 L 543.2275545605621 599.4014701234834 L 529.2525406426059 176.71437612097293 L 433.5124926607254 403.41555352946307 L 309.70912997769165 128.99039747366305 L 252.32930495527475 536.132769233532 L 288.91254338999215 352.6575718323047 L 406.0904252555549 699.9266712497764 L 513.400619483474 346.1316118748836 L 550.078051199959 527.4796797545446 L 479.64743398683305 124.0484764924733 L 361.49195547135037 405.5120824965173 L 263.24668102905844 184.4424628156256 L 263.34598165033714 607.5414398730915 L 349.38883624048634 391.8780877860492 L 475.837240522874 680.5050629442629 L 544.795983903617 281.17128567894395 L 522.5425021197108 460.7769340380649 L 411.15771345499775 100.58915398834108 L 298.8223588284542 441.10766156127283 L 248.06527955882427 255.09792320870483 L 306.48060319647993 665.6053115678642 L 421.16244870958957 398.2048751820882 L 528.4428176667406 630.8207486180977 L 542.1701122993877 208.98649639550663 L 467.04665441537543 414.7588140499782 L 339.6226193540273 111.77634438223879 L 260.0758378785504 501.9483645782483 L 267.6437836727446 324.574716054402 L 371.77291236435576 696.860814669934 L 487.55033489719847 370.1715104618423 L 551.750907479476 562.3932785315274 L 506.0906636348767 146.31499149351234 L 396.49929486544903 400.09479233611575 L 281.5875109732061 155.01668670531015 L 254.27758120201946 573.9267327631094 L 317.40141470297425 376.764120376629 L 444.1250386704462 694.0602777464903 L 533.118215945593 314.2785670816459 L 540.3983488805918 491.08805317976714 L 444.8820419286626 107.68876081052167 L 327.29914217203964 420.1843458624844 L 250.46756171542947 220.2848352681061 L 282.81319711661183 640.3528135803742 L 385.7598837184358 399.5658202038189 L 506.8021799244755 657.85241557349 L 547.2592633388554 243.48635407745715 L 497.05860312832976 433.4376776375953 L 372.6952507287747 102.0645633824551 L 275.5325429308912 470.3687331673922 L 253.43723765373838 292.44799564509043 L 339.1074382744225 685.8239919168086 L 456.82800217900274 387.69355544355165 L 545.3128324504185 596.6319142892435 L 526.6534609956736 174.20986210688986 L 431.8218692119928 402.8086139013843 L 306.22675773688445 130.7471602830389 L 253.24359604687206 539.0111977298612 L 289.7667834240822 354.77470395074147 L 410.14877736909455 699.7963315808988 L 514.0863070181435 343.90082543270404 L 550.768876837198 524.5929897844534 L 476.03740390484836 122.5126865642469 L 359.8555105388231 406.30195390381687 L 260.84715304872793 187.08678499819536 L 265.6415366225216 610.1951352083843 L 350.9914276810479 392.81428307838684 L 479.5063368064019 679.0293547522895 L 544.2173611759249 278.342446283884 L 521.9464298508751 458.4382328000541 L 407.10604323602763 100.3824272807824 L 297.8872602306448 443.1069183124233 L 247.037233223315 258.0209976448532 L 309.89289181922413 667.4146115249846 L 422.8740751372413 397.7474622174417 L 531.1396491696328 628.3373983486892 L 540.1936134309802 206.21999512050834 L 465.5696211868174 413.5058473868063 L 335.8010258041037 112.95117267976292 L 260.3266298629133 504.68884862531087 L 267.9578618212091 327.1034195894643 L 375.778466581306 697.4015264301781 L 488.7064037949506 368.43126517836197 L 553.1178948706216 559.473333376134 L 502.90684807629515 144.25708243507734 L 394.7514969047807 400.213244137991 L 278.6143695478056 157.30554337965341 L 255.92383477259855 576.7681036038306 L 318.7170729299877 378.3170881328256 L 448.0628266249213 693.2020337535375 L 533.1829554287552 311.6640276152648 L 540.386252532778 488.4034747008814 L 440.96141059289357 106.8217167823928 L 325.9535509039507 421.6415977163146 L 248.76452670217682 223.16220557891955 L 285.74091728500485 642.6310214037973 L 387.50435139103547 399.78824427464644 L 510.0268763424438 655.7889013336523 L 545.9499497707293 240.60909468471576 L 495.9379397341114 431.6055367910697 L 368.6791532405555 102.59485327962136 L 275.16886546410547 472.8214274622568 L 253.13147528935843 295.25222569046 L 342.9054952369087 687.0052481298268 L 458.32908880088854 386.5394527474104 L 547.3444472022054 593.8359593110774 L 524.0059733387676 171.74268993081554 L 430.12018780656064 402.24801332003 L 302.7786856885434 132.55757597414083 L 254.2138604772716 541.8848505925897 L 290.661486753726 356.8614156491434 L 414.20423312059575 699.6008761984376 L 514.7282606721399 341.6436996145627 L 551.4040479141498 521.7069345384391 L 472.39790498788375 121.03364058025392 L 358.2350714831876 407.13685228865876 L 258.49889928835285 189.76361788845406 L 267.9884683400203 612.8173397423939 L 352.61144975920683 393.7057834761362 L 483.14656419832824 677.4963232113685 L 543.5836407833553 275.5118715331262 L 521.3055757086913 456.1249918638359 L 403.0507167672931 100.24075075040736 L 296.99147922896657 445.1373886430555 L 246.06558759322456 260.9499635908804 L 313.340006570335 669.170946061512 L 424.5760997860698 397.24350419547443 L 533.7882908458971 625.8157473430934 L 538.1634708068722 203.4788259564448 L 464.0690194341812 412.29520215661444 L 332.00247938234077 114.18633553224396 L 260.6308914140591 507.43743443096037 L 268.32043340252727 329.612090447339 L 379.79417736894743 697.8780179818093 L 489.82810907638503 366.6554779253631 L 554.4285005197542 556.5409297012088 L 499.68332569378333 142.24776032589972 L 393.00676333776903 400.3790045879165 L 275.6856802591655 159.6380904712567 L 257.62526633099185 579.5905248558477 L 320.06211942742584 379.8308049177877 L 451.98370024020653 692.2811442505207 L 533.1965839043535 309.03525122275676 L 540.3226085320425 485.7331076479264 L 437.0242633292184 106.0173098545522 L 324.63689880858186 423.13811520686613 L 247.1170898141149 226.05855280670784 L 288.71268174694086 644.8655611059296 L 389.2523365588951 399.9633609845857 L 513.211460539354 653.6767807063045 L 544.584677840384 237.74426539465273 L 494.7824654788116 429.80892125041674 L 364.6736099474066 103.18936793212248 L 274.8532418898782 475.2941791142173 L 252.87961608466838 298.0483799502575 L 346.72619976657614 688.1261819475283 L 459.8070575223207 385.3430161484027 L 549.3220012362455 591.0146463572431 L 521.3107063789652 169.3137936368225 L 428.4084519022979 401.7339539567407 L 299.36584298728906 134.42097339616123 L 255.24009896794408 544.7526410705112 L 291.59595276940786 358.91693219577735 L 418.2556354113808 699.3403700251388 L 515.3258746909015 339.36108996198993 L 551.9836909018501 518.8225885656622 L 468.7299382371816 119.61190219048399 L 356.63161126343084 408.01645568421077 L 256.20243617030724 192.4719656167511 L 270.3862608753433 615.4070606559023 L 354.24792967625206 394.5522632213008 L 486.75692141758657 675.906534780744 L 542.8946957194995 272.6806326055396 L 520.6205450234867 453.8380703793694 L 398.99289111317313 100.16418658828746 L 296.1357168206466 447.1983014772263 L 245.1503424848573 263.88373098819375 L 316.82101863246754 670.8736468718068 L 426.2675190940227 396.6931994811353 L 536.3881135282395 623.2567326397594 L 536.0800814839905 200.76402696199347 L 462.545777124937 411.127323292623 L 328.22804079904535 115.48137885945778 L 260.9888731634065 510.1930809911904 L 268.7309975359042 332.0997967307801 L 383.8189025148164 698.2901008894537 L 490.91466497424835 364.84482479485143 L 555.6825973895577 553.5971582613503 L 496.4209414098573 140.2877890075543 L 391.26611373883685 400.5920016463523 L 272.8021773870758 162.01346250312213 L 259.3816021639973 582.3929273738675 L 321.4356846207277 381.30471265504235 L 455.8865528828711 691.2979447823185 L 533.1587314584359 306.3932345399202 L 540.2078055608338 483.0779440056964 L 433.07171288276686 105.275852117346 L 323.3500447969866 424.6733264530054 L 245.52550451169262 228.9728003223886 L 291.7277400437744 647.0555837309464 L 391.00281844382096 400.0911150421394 L 516.3551021860103 651.5168358522078 L 543.1635951229264 234.89295186164722 L 493.59297877731115 428.048494664944 L 360.6797592746288 103.84789487188607 L 274.58615543872395 477.7860494466415 L 252.6813897770231 300.8354198281103 L 350.5684828000517 689.1863618985378 L 461.26098891009985 384.1047055067554 L 551.2451171876835 588.1690233037095 L 518.5683068276624 166.92409571349097 L 426.687668656227 401.26661770809255 L 295.98914564127205 136.33666432391453 L 256.322291159378 547.6134818038911 L 292.5694660145323 360.9404933744817 L 422.3018285882635 699.0148995875329 L 515.8785600358026 337.0538643887762 L 552.5079530335365 515.9410229652545 L 465.0345154143616 118.24801634705 L 355.04609638928815 408.94042253807805 L 253.95826075863127 195.2108232950093 L 272.8343791355856 617.9633145116862 L 355.8998885358315 395.35341625989065 L 490.3364183138291 674.2605744109949 L 542.1504197822239 269.8498037377966 L 519.8919596244052 451.5783148109173 L 394.9337243561956 100.1527753584628 L 295.3206589038954 449.28887150600457 L 244.29147662945033 266.8212107847055 L 320.3349863857205 672.5220629695013 L 427.9473335609479 396.09676664091495 L 538.9385062879956 620.6613024908015 L 533.9438625845513 198.0766291079934 L 461.00083064006697 410.00263687020515 L 324.47876180091356 116.83582891745641 L 261.40080549827144 512.9547418437145 L 269.1890354144095 334.56561721867126 L 387.85149633864125 698.6376080808216 L 491.96529899737624 362.9999977717873 L 556.8800795637524 550.6431112688878 L 493.1205548173116 138.3779166094527 L 389.53056606322053 400.8521427383915 L 269.96457834060396 164.43078073504955 L 261.19254786650856 585.174246717006 L 322.8368883205123 382.7382710160212 L 459.7702845942895 690.2527914693919 L 533.0690475853721 303.73898197976064 L 540.0422514116069 480.438967245143 L 429.1048778686366 104.59763484558852 L 322.09383650792296 426.2466422442378 L 243.99000338546648 231.90386758734041 L 294.78532537880363 649.2002542212663 L 392.7547754216969 400.17147173833945 L 519.4569862267031 649.3098640714985 L 541.6868702301709 232.05623747600112 L 492.3702907161367 426.32490429466554 L 356.69873535223627 104.57020041626163 L 274.3680710328028 480.29608979990076 L 252.53650606982188 303.61231295613584 L 354.4312670819688 690.1853765032672 L 462.68997264618673 382.82499920532854 L 553.1134380265235 585.3001443416017 L 515.7794391795317 164.5745067468643 L 424.95884852498517 400.8461661282913 L 292.64949618996656 138.30394371528513 L 257.4603955971458 550.4662852330963 L 293.5812964757628 362.93135376938415 L 426.34165885562464 698.6245729841357 L 516.3857446269012 334.72290285459354 L 552.9770022277054 513.0633049849228 L 461.31265868344707 116.94250909880503 L 353.47948653713814 409.90839184110575 L 251.76685059406446 197.97917739315778 L 275.3322690417393 620.4851276242653 L 357.5663417328858 396.10895635608057 L 493.8840762173879 672.5590453251776 L 541.3507276351581 267.02046182050924 L 519.12045758444 449.3465586200123 L 390.87437518410024 100.20653598203 L 294.5469759990529 451.408299482807 L 243.48894770286415 269.7613153429694 L 323.88095573934373 674.1155609326355 L 429.61454814534164 395.4544443601052 L 541.4388766425726 618.0304160064347 L 531.7552511611798 195.4176558898349 L 459.435124400778 408.92154994765906 L 320.7556847978474 118.24919247570841 L 261.8668984534631 515.7213654616702 L 269.6940105208571 337.0086417107285 L 391.8908101007179 698.9203939100905" stroke-opacity="1" stroke-linecap="round" stroke-miterlimit="10"/></g></svg>