<svg version="1.1" xmlns="http://www.w3.org/2000/svg" xmlns:xlink="http://www.w3.org/1999/xlink" width="800" height="800" viewBox="0 0 800 800"><defs/><g/><g transform="scale(1,1) scale(1,1)"><g transform="scale(1,1)"><rect fill="rgb(0,0,0)" stroke="none" x="0" y="0" width="800" height="800" fill-opacity="1"/></g><path fill="none" stroke="rgb(255,255,255)" paint-order="fill stroke markers" d=" M 400 400 L 280.6734082912473 208.5114942011444 L 268.9663772030031 666.9823431593329 L 565.545967126531 383.2205522153523 L 447.7627569897374 461.7602512600683 L 493.6698811072961 147.5082416385245 L 128.7233962222001 455.5630646945136 L 465.8781697759983 469.41023962884407 L 362.08175968346916 545.9220591892624 L 681.0127827204961 312.13571749028245 L 220.0941725037949 245.21347919326732 L 397.19141296801604 418.1871358569486 L 204.08600921816034 483.76870727104455 L 645.3779968264406 571.3070497115983 L 409.4650814178167 218.8536682517971 L 452.647480117258 370.8912535721158 L 172.28781459177404 273.08716060863077 L 413.83045095818295 683.1294346239804 L 492.83802303606734 335.6540336264099 L 523.557458909254 453.32729523046396 L 356.6623213376979 112.90833869247467 L 211.35165957092732 561.1974236277798 L 435.024790256988 411.081831647775 L 449.57220497953546 593.4654399029542 L 607.2525097157037 183.11453646081955 L 208.40521096271976 360.0794261661267 L 385.51964396864673 360.55751446505354 L 245.71821225796552 598.1030849810096 L 687.384512086463 430.11448802103394 L 343.2102769758093 283.29057740950157 L 462.6790965846904 300.17257194048756 L 114.83552634767904 399.03219389690935 L 535.7121566284009 619.4388335173595 L 424.369380704485 350.7702683158431 L 584.723548299555 381.90989369210206 L 217.5303553250496 162.39325990870032 L 326.54007413869715 595.9727045320932 L 376.7502361206693 404.6798735917755 L 565.0038762556112 575.0364853367739 L 474.7434902169646 116.32078512588987 L 260.3722308387297 443.1377704746209 L 323.8663955332449 334.0455589497718 L 356.49744737042744 675.5004729407199 L 645.778628923807 295.895427537688 L 340.3518473500718 358.05569852766297 L 409.4911356580863 229.46403836793837 L 138.67002912080375 543.333241765669 L 593.6170187640204 508.7731343773719 L 400.2418153277258 405.32080605882885 L 588.7362182751835 270.1330898565111 L 128.02791429532988 281.52049686609257 L 423.6275016655954 560.2030237691497 L 336.56013502405744 453.83706287346547 L 658.6787945065269 482.81272509128473 L 332.6907900736297 133.55479844307928 L 337.1625807243058 465.31283348777765 L 248.0253742237262 367.79610718524907 L 500.8647518365101 677.6506521209378 L 544.4254671397234 215.84543886598377 L 386.9923977136766 398.59231106665095 L 305.80860128731433 204.74429257300037 L 240.23493170110615 652.546515188198 L 577.1184006895985 401.20224122869797 L 434.1935645253939 455.71081805792824 L 517.6027740878002 164.43925686844426 L 119.57092398277388 426.50207243437507 L 465.4916377561791 485.8831520985258 L 350.658756144748 530.2830617019335 L 686.0981795650229 343.4218014768161 L 232.47677477349646 221.0782794046558 L 391.88540525272765 430.3790411187133 L 205.21338526773485 459.4555877494508 L 625.9998790870773 597.129986989194 L 430.5328845117209 210.80608143491213 L 443.6013865550208 381.7060145776022 L 192.75047506317713 253.20940905215411 L 383.0509931783095 686.9806543333411 L 509.7747278863763 340.27492026369276 L 506.8160142515539 460.4865810908382 L 387.95266505655826 113.47785997895699 L 189.22636961707855 543.9789999414173 L 445.48402811063863 419.9981906635507 L 427.0502760847578 587.824614589139 L 629.255194870226 206.78139072931188 L 204.55606241912574 336.6990255871594 L 392.98732732281616 371.83801229418987 L 230.44718093164266 575.039277556486 L 685.6455151838325 461.542865666667 L 352.1487929557825 266.8737632979148 L 465.52960784179203 317.02572868297784 L 120.902786777534 368.83730597007496 L 514.0884986437007 638.5673519943575 L 436.40988409925706 342.875588132468 L 575.142658303871 401.7832797121822 L 244.65967886503338 144.97005464904015 L 301.75541379747676 595.1260144580219 L 389.39298980233497 400.966111642062 L 540.3557399064252 585.3582801040712 L 505.70973174196735 123.71344245210872 L 245.46134667566392 430.0166247943946 L 339.86233082352544 335.3319812442128 L 328.43687242187747 664.3135221643313 L 661.0279225670399 321.2927069510359 L 335.72740423304384 343.5525416994862 L 426.0082410092015 242.24830821461507 L 126.40029360897665 513.7047113790943 L 587.7788033345587 533.9591819594024 L 400.4838102797448 392.25483788402835 L 593.9880181785677 295.3087169730263 L 140.90803799727138 252.12077475235995 L 406.67312527705025 572.6667808571724 L 341.6051855446099 439.59938045479544 L 642.9528883888927 507.80572749606876 L 361.05499067938956 122.92225006046868 L 321.0022793667276 466.12283959215 L 263.14933918391705 355.16265688056234 L 469.7954527247064 684.4025992429752 L 568.9603716174945 226.75276855534895 L 374.4630441371973 394.40725649795576 L 330.46272117410786 204.4589209784724 L 213.45144023860598 634.5685903458387 L 586.2840209993133 421.4399505080333 L 422.5045196067133 447.47186293294357 L 538.7403721548854 183.94790785434722 L 114.11355424736706 396.11875099324254 L 462.1322504102642 502.78920573892447 L 342.2337196139239 513.7681279120125 L 687.192730768579 374.8242770688484 L 248.30623916971646 198.24928781595628 L 383.98392518955825 441.438233704168 L 209.574205145882 436.3169023346612 L 603.5211092112463 620.3478447482872 L 453.3268363127546 205.6580262084252 L 432.89095279922816 390.20410011153524 L 215.14516974776387 236.53650041583538 L 351.6969490035831 686.9097131089927 L 526.4525019715087 347.9504517434268 L 489.89820765283304 464.59381180070966 L 418.57970452729904 117.95063046071641 L 169.11250839373398 523.5951844932874 L 454.21164666890576 431.18621422393664 L 406.3214399460281 579.3370100019438 L 648.099524629202 232.98222462872383 L 203.9778953694864 312.22145516752363 L 397.83055533553227 384.1758412331338 L 218.6447862848295 550.7545796587259 L 679.915498111795 492.763821262377 L 364.0697455411063 251.4145832191151 L 465.427690324149 333.366214267341 L 130.62843750089206 340.0472752205924 L 489.7250681569069 655.0483953469627 L 450.271610441396 337.2263213060324 L 563.2203260695483 419.34698793029224 L 273.6555704073223 131.1307437004936 L 276.5738085150639 590.7770781731174 L 402.43416875722414 400.04130985269785 L 515.2309885792786 592.1033881347641 L 535.6861925911119 135.00380439822402 L 232.18002823085618 414.13757496241664 L 354.6998908143118 339.32382825917296 L 302.45257726520185 649.858453876371 L 673.0920475321786 348.8773932382342 L 333.75145318526904 327.7839582289256 L 439.82367867718386 256.77496032849746 L 117.99408244925985 482.9487843221199 L 578.3598310341035 558.8020095376318 L 403.52823381015816 379.46890703835226 L 595.7136980980795 320.21728939172147 L 157.43366400061055 224.459527431126 L 387.3289092321995 582.888131508631 L 348.9744775249419 427.0918155210484 L 624.4762208091054 530.1498800370091 L 390.9507121810653 115.88934967160719 L 304.2114062954472 464.0124489751796 L 279.35203726364585 345.4816203801063 L 438.3775334280961 687.168935040783 L 592.4052725051853 241.16098385454512 L 362.878499317181 387.55797917018367 L 354.1402429080037 207.49484329236512 L 189.08888390563052 613.3458431384881 L 592.6832256907161 443.57142308862115 L 413.0163079410637 437.40458994351246 L 556.7795597697223 205.58684910753013 L 112.52769566609345 364.9353131642392 L 455.7260952305181 519.6420175293163 L 336.86057613706254 496.8707318178143 L 684.3416995563907 405.7908605674584 L 267.39992439250307 177.2298885235762 L 373.7015873200997 450.93415001189777 L 216.90860453239463 414.7984618327226 L 578.3296119827619 640.5581855132712 L 477.4120108923075 203.6857805468922 L 420.9380940533156 396.1539103292019 L 238.97507246618062 223.27005211728704 L 320.3182008704132 682.8510628230702 L 542.3767768350581 358.64600301376487 L 473.29350931614624 465.70388735553934 L 448.0146498800107 126.16952825744443 L 151.46787511688402 500.33185723646943 L 460.8342888978247 444.3399391931771 L 387.76202914966274 568.3485824023367 L 663.4710081663884 261.25522008494556 L 206.84968733005684 287.1350697740557 L 399.91774367158774 397.10918282503917 L 210.4033765248315 525.7726348915198 L 670.2433320972361 523.2236515102719 L 378.8304020436981 237.39217518230765 L 462.53332840032124 348.73185728228464 L 143.75115585062878 313.14455313203524 L 462.99935255157874 668.4907303186983 L 465.5716942651505 334.1200641661121 L 549.3714826480725 434.31062292064195 L 304.0023727383053 121.08840304343641 L 251.51522860938542 582.8537908178016 L 415.3947115983838 401.9308301492634 L 490.156324790277 595.2915067757258 L 564.1394290769799 150.03014662204887 L 220.9689727189617 395.74598195401643 L 367.96612982989643 345.7646656464017 L 278.959991537272 632.4884849499879 L 681.6643999956307 378.19622971050904 L 334.6307948719787 311.19161263339595 L 450.7453960208725 272.5802911645578 L 113.55413319750056 451.61251609078636 L 565.3995873796407 582.773422555226 L 409.2930274651982 367.4358570774533 L 594.0426674695942 344.35281172999254 L 177.33684000296915 199.02672039280716 L 365.9325563762163 590.4861598018712 L 358.32824672249944 416.6585411528863 L 603.6775148087277 549.5143606333503 L 421.86825949574677 112.66375544716084 L 287.26949984665475 458.8764710089747 L 296.14334321939657 338.838916623468 L 407.16563941051044 685.9612371451199 L 614.2476507558175 258.919373938909 L 352.68221654985643 378.2300917082638 L 376.37856487523686 213.62026215649277 L 167.5724478992696 589.2410669998085 L 596.0135623269188 467.1812440133342 L 405.98806503706527 425.91510076277564 L 571.487816017569 228.87156755063472 L 114.91215066711919 333.495943220685 L 446.27567812633265 535.9469569667351 L 334.51628356952904 480.0839554894359 L 677.6698324590543 435.78341094685277 L 289.50133760896483 158.4936104032931 L 361.3188062740788 458.47453557221786 L 226.8943653278767 395.2989031898909 L 550.8673882096798 657.4190226434029 L 502.31359040161374 205.09817676419743 L 408.195175974974 399.39358020714167 L 263.722019430352 213.5350980962555 L 289.4698496015276 674.8198028781992 L 557.0614161375083 372.25030286351813 L 457.4744639384319 463.9465545216493 L 475.7591510560436 137.9028495001823 L 136.70534682977114 474.54100880271346 L 465.03033101866515 459.09738354700755 L 371.6891990318322 555.2559206811281 L 675.1255560406933 291.09834089939267 L 213.27572552722748 261.95293510989575 L 399.19193454542153 410.1616288210788 L 205.73622953639492 500.62171014418817 L 656.7579646466327 552.3804654384459 L 396.21473391491736 225.26087991040959 L 457.07574677293354 362.69308876514634 L 159.94326837798369 288.5662766210154 L 434.34417444023586 678.5611471381615 L 481.88369294323127 333.791658186539 L 534.0477019852885 446.4521768394976 L 335.15985426501277 114.97891186105738 L 227.10795199678662 571.3625910219716 L 427.79750501720866 406.58403461169786 L 465.64624102122553 595.0202830678211 L 590.5643447082683 168.5548299803439 L 212.22878608841572 375.15372157776545 L 379.29480137854773 354.33764540310983 L 258.3164518157662 612.6120015445226 L 686.5069337004479 408.7539488875348 L 338.5013698555029 294.2462181900724 L 458.65572802739456 289.17956385408905 L 113.10265296819239 420.2508175500389 L 549.0163781178132 605.3537945827513 L 417.6223414066493 356.6101358134997 L 589.1776171954514 367.2376809315252 L 200.28126427013933 176.2686840049066 L 342.87837791691175 595.1335557293409 L 369.27794930234506 408.58516506853545 L 581.0270450965788 565.6365449282932 L 453.27119754115273 113.37708575813883 L 270.6692023218859 450.68538437851225 L 313.02860537606597 335.24355650496943 L 376.70523669760075 680.8713370117296 L 634.0001315447637 279.8017286643784 L 344.2836592124724 366.6773096955366 L 396.758269671094 222.53809221346506 L 149.27033565825445 562.6747773630459 L 596.0372926558775 491.8099725924634 L 401.61127271002147 413.44437717863633 L 582.7077937194931 253.291427056586 L 121.28559689352403 302.3550403738428 L 433.8604593638876 551.2129147707451 L 335.1019600674986 463.88876636898254 L 667.3782593827065 464.2895436422998 L 314.2852615231441 142.47332080073198 L 347.1751934914854 463.71514246941183 L 239.1549255247369 378.1609525342561 L 521.6209528877536 670.6561508011055 L 527.5274173169223 210.0311481890805 L 395.13392555296105 399.83478981944756 L 288.85825602596714 207.37796250305954 L 259.7001814833781 662.9116548964491 L 570.040342494225 388.57743083349857 L 442.8854950107037 459.5227986549337 L 501.35598142616413 152.84979067989414 L 125.1833919070898 446.63342755847117 L 466.53794339897615 475.049081685004 L 358.35411217999 540.4965725232807 L 682.8946230542672 321.9802253878188 L 223.28252021173404 237.20133699027582 L 395.67213810591323 422.85382715315893 L 204.57797087148364 475.8227845430448 L 639.6658488875796 579.7159471979998 L 415.9378594219943 215.43929339282766 L 449.3474933788923 374.8630941632237 L 178.81836264315677 266.6949987809985 L 404.2385222299228 684.9921906931853 L 498.74766039826966 336.40714118763407 L 517.7263118330925 455.6226144367409 L 366.5749376530286 112.85822958152994 L 203.876660063009 556.3890336060055 L 439.17904622924976 413.8754748271125 L 442.1914893650472 591.4623765665807 L 614.4951484838007 190.26930172758486 L 206.3102216859613 352.7324957293798 L 388.37499801687517 364.67345493006474 L 240.81376591750475 590.6831680007951 L 687.45578026607 440.0238838158055 L 345.42450489625065 277.43638952176974 L 463.5135455672686 306.0786084608302 L 116.58113711798308 389.41442313827275 L 529.4053557426009 626.0438402604244 L 428.2901996884683 347.4166575323391 L 581.3892037669347 388.4333089801552 L 225.8694915357301 156.57845750025498 L 318.6086617698752 596.5647377316651 L 381.39587245188085 403.092000338809 L 557.0258988175178 578.3272734140143 L 484.6079235775071 118.08166897970244 L 254.9045533527191 439.4866181866755 L 329.52042069862733 334.6280254458483 L 347.5208234039823 672.068953967091 L 651.2115869187596 303.5107737229529 L 338.0482046510946 353.215479432564 L 414.91235437042764 233.89340523272793 L 134.485853519442 534.1161276056238 L 592.5874985181346 516.9643242021964 L 400.00525066921114 400.4574557123957 L 590.3601824498081 278.32126333438225 L 131.58585817088294 272.0652105079569" stroke-opacity="1" stroke-linecap="round" stroke-miterlimit="10"/></g></svg>