<svg version="1.1" xmlns="http://www.w3.org/2000/svg" xmlns:xlink="http://www.w3.org/1999/xlink" width="800" height="800" viewBox="0 0 800 800"><defs/><g/><g transform="scale(1,1) scale(1,1)"><g transform="scale(1,1)"><rect fill="rgb(0,0,0)" stroke="none" x="0" y="0" width="800" height="800" fill-opacity="1"/></g><path fill="none" stroke="rgb(255,255,255)" paint-order="fill stroke markers" d=" M 400 400 L 513.873461861253 471.0005695895736 L 505.6508760275251 615.5404376175109 L 370.0107390445559 693.6520361418552 L 223.60633218961178 627.6117179707361 L 193.72202521045287 476.22866255718213 L 296.7689700825273 378.69280484212766 L 422.7115835314582 421.6324522594031 L 440.30373722494556 556.4021525650121 L 322.5849074096657 645.6283489828385 L 172.72902850902835 594.5397742054281 L 125.54774998462005 441.60112504432686 L 218.75696869487987 321.8525318742295 L 357.00552850241843 337.9816545567952 L 403.03461803160315 462.3128629490127 L 308.86832282687425 563.3579069699352 L 161.68775220002948 531.5590556779762 L 100.55758945670607 384.08132411740587 L 183.56920900110526 248.52811771040936 L 332.3395313446598 241.1383067293798 L 406.89465467897423 355.8413935313874 L 339.39010247769335 470.17297607705177 L 198.90365365947883 462.3975121258284 L 125.39413055362485 327.9314032469973 L 195.9261620300605 183.8279623002252 L 350.9781048757996 157.03813526022128 L 451.2434029509699 263.20838385163813 L 410.6546271173808 391.81854261412684 L 278.531874950507 411.85904931564687 L 192.36686147059257 297.07659757837973 L 246.3563750211028 151.12051077318444 L 401.2968466297672 108.56296207083915 L 521.9329846416525 206.36368789659164 L 506.0763446477243 348.58900170894805 L 382.1273342138344 398.0943547512696 L 281.82339381811386 307.57133287720586 L 314.25236961609096 164.74897299325917 L 461.507149613043 108.5613983243365 L 595.6802926005382 196.38024718793372 L 600.9619895411474 349.1660439402927 L 484.18276018222764 426.9444074820682 L 368.18283729731303 362.4930576786118 L 374.34443595070593 225.5076428446182 L 506.5233659208314 155.9391244981262 L 647.2793754854172 230.19673477750948 L 670.0077300195335 388.05478160013394 L 559.8355935094122 490.10161225885224 L 427.7722973048712 450.8414393872979 L 404.59402395430845 320.2765857348888 L 515.8521728681241 236.02259223233017 L 657.4301320998812 291.70919952758976 L 695.0032190398706 447.40564954102445 L 592.3720729996935 567.6562631753808 L 446.0522904368353 550.7858873403602 L 393.0713047951025 425.9301976881772 L 480.0686837262921 325.0834106996839 L 618.7689158073789 356.8716719349037 L 670.3703018000901 502.6574403317309 L 578.2194354181825 634.2438064039368 L 422.0057753299947 636.2639014912756 L 341.69505491463235 516.3182037328016 L 403.87938565176245 397.6288707097552 L 538.2403206839926 401.2303174996569 L 604.8310274501519 530.2587661868546 L 527.8913771602622 666.897935719195 L 368.34023977864814 684.899647492575 L 265.6806394669072 570.1709541574126 L 304.8240350075389 434.21207819175135 L 435.07665329083744 407.56600197176385 L 518.692087948793 515.084392210828 L 462.5991246768167 652.1881910039518 L 307.4432439149318 684.8048562031456 L 188.8652874103661 577.4961824431706 L 208.01293210942217 427.355598308332 L 335.0049636689316 371.2871354645889 L 437.5833312940953 455.2567846236366 L 407.5762289280945 590.4406887922083 L 264.34108323628936 638.1681860422188 L 136.35114045077563 542.4994522148437 L 138.51819289499156 383.76452091953996 L 262.46389134297004 301.90854977863825 L 384.5803252992619 362.8829258024614 L 384.1778312431312 495.73911323424886 L 258.8342537530566 560.5285409251117 L 126.73387150963822 482.1319981239842 L 113.76102391217586 322.14904716979026 L 233.225716186134 220.1590539356322 L 373.13841861429626 260.4754806181943 L 403.19253685314055 391.7032133155987 L 299.2373659585718 475.9575783149398 L 166.3129965477492 420.71730631910174 L 138.23861921432933 267.3303914314144 L 249.69391663453973 151.60820650736693 L 403.0150419337014 174.15769595363315 L 461.4308675890581 304.34307757124225 L 379.6567820669525 409.6369316575287 L 247.06977883266765 382.31621647914005 L 202.21362714618598 242.44974609130827 L 300.3217880613968 118.77627866240141 L 460.43540024374033 125.7429503134677 L 542.6438818015693 254.18839947510153 L 481.6489137166639 380.1180768164205 L 349.03791665720354 383.18709944794574 L 284.7682957892014 261.6850536124738 L 363.32746887076837 134.15949068411993 L 522.4482929461899 126.12702706591409 L 622.4903791855688 250.11512570217204 L 579.7518772314168 393.64999021432675 L 446.3387543450392 426.6680196262479 L 360.2806727147494 325.7240554829783 L 413.5565638013058 196.32109218377045 L 564.1268543584479 172.02695526295517 L 676.022689566154 286.7685141911448 L 649.1892321497264 442.32182708352093 L 515.0237107424239 502.06087481327364 L 406.32606787500015 421.3927022540128 L 430.37357288405065 290.25447578192194 L 566.3917464829135 247.0692286304266 L 685.3841788212062 346.37303571392937 L 673.3748347681853 506.59142501859026 L 540.3099630953759 587.8635425634279 L 410.5682891118851 525.5573065816826 L 404.1464937458356 391.90832860943425 L 522.0421578182345 326.89015038596085 L 645.3457516385182 404.3674245121449 L 648.9088400327946 561.418121339584 L 520.9827209785694 658.3553948455337 L 374.51712936803676 612.1015383573629 L 339.32291487968826 475.48149700191067 L 438.1321073228942 386.67498089671614 L 564.9741015079043 437.12427357982733 L 586.5277875641535 584.1069859329432 L 469.61093929714576 691.5074047767794 L 312.9950536088912 659.8315110612969 L 253.14689798827547 521.2419945385768 L 333.95584519146234 408.8114551377003 L 464.91615627898767 429.3712399348625 L 507.71829611098354 561.4436769403824 L 408.51381202806357 675.7792158834438 L 249.47910270031312 658.8759405111679 L 170.41001562082468 521.4633987021455 L 235.25943995465545 388.29858053849745 L 371.1348016958609 379.0231495967531 L 438.03995268308705 493.91744210253273 L 362.72510119024497 613.7080065951905 L 208.7558913617702 613.6119097742062 L 115.85278621764559 482.6524284435376 L 166.45883291713446 334.24409054674584 L 307.0242564069551 297.9326394512697 L 399.21672929325865 395.7270325165308 L 352.12760861010287 521.1822212770879 L 209.15620285589372 541.2172782054711 L 106.5575051132401 423.3848307572165 L 143.2592067584966 266.99006931027526 L 286.33245800243037 208.32536912391245 L 402.43524795277165 290.5639256243612 L 385.18571181204203 422.6226736363694 L 256.76566417350705 466.29828674328445 L 146.67670915896045 368.4204253124449 L 167.94703099130004 211.75430785870503 L 309.06871381089235 136.0164079793003 L 444.91564569622295 204.4687025177037 L 456.21107855574576 343.5544146013818 L 343.3992496188546 413.25011578453797 L 226.12222188659035 340.9150158407725 L 228.8026681148237 190.74939433378816 L 361.65446074698724 102.49703038082993 L 510.81151340804354 157.95856062225752 L 547.0073460659681 302.856477704672 L 448.9675243609129 398.70635748747173 L 323.6195907904297 355.1333899253424 L 303.81175616356427 216.21120321403902 L 421.26696091704684 118.3298761466155 L 576.1604889984617 159.84870973322128 L 632.3894615190154 307.07545987698404 L 547.50908121312 426.4053835305457 L 413.1878039307667 411.9130218533999 L 367.52905388600925 286.4885605060533 L 463.0332959149971 179.88775559414444 L 616.3580317477102 204.66851678824244 L 687.8786639987464 348.5524090301479 L 615.0337023887637 486.0560603228523 L 472.04897811917147 498.2800231165255 L 398.9772796629696 386.40268074096383 L 467.8534785804998 270.4413987308677 L 613.848687080744 274.4655822793925 L 697.2029914941343 407.9368586054163 L 636.7626557315542 556.5519875724001 L 487.5324643143008 591.3387499898845 L 388.1450117773835 491.76919638871965 L 428.437661792626 365.2616118090354 L 563.6616443506332 344.4388515218808 L 657.2925774349269 460.30943333970515 L 611.5382367884099 612.5425475412219 L 460.8481982403035 665.2388483919549 L 339.08008946589985 576.6927728938342 L 351.6930330968715 439.1645614047941 L 475.081412678164 390.6621160077234 L 579.23057088576 483.0220963299149 L 552.0469598083879 632.3338538686121 L 406.569458974498 699.074522105083 L 268.62488188396486 621.3898117788088 L 256.72132910634264 474.17643122015846 L 368.9353364973129 397.51545497016156 L 484.866473919892 462.8356675855324 L 480.79082960822006 604.6822627912575 L 347.987941008553 683.2829614939715 L 201.18365284697512 618.1319593388157 L 169.04112506050797 464.9574044874872 L 271.33039336684203 362.53272663590263 L 400.1350238955814 400.15090321744213 L 423.0512867062985 532.3839700348346 L 309.7764933522621 622.5708993707651 L 161.135824020736 573.4822333307864 L 112.81305508784402 420.3159891132063 L 205.76594903647748 297.1702172154725 L 347.1385870130808 309.02540208411034 L 399.016901574066 431.5513150776588 L 310.2248337538912 534.4677754504428 L 165.23508392154733 506.1380688742481 L 103.46211999869848 360.35011311337064 L 186.0496286527133 223.25932887000172 L 337.431593179561 212.9677412705466 L 417.50315019465324 326.79551751253797 L 355.4451956276934 443.95135937111746 L 217.33917885529985 441.0493346446059 L 142.9693668070517 310.0996339941858 L 212.19594118197222 166.23705075198347 L 368.5745467792466 137.80210832020623 L 473.201352735609 243.79703013859617 L 437.3376320443027 375.80163323637174 L 307.09733526759106 401.62713567188985 L 219.28302871811186 291.6703733448387 L 270.5680573968374 147.24169699813956 L 425.0169537050989 103.80002775824249 L 548.3055261554413 201.54970948903292 L 535.9457479463119 347.0383515446303 L 413.002856318078 402.44724440824615 L 310.0300995092179 317.2610213782814 L 338.21551452112635 176.51170775005858 L 483.03386817456834 119.50213842090858 L 618.0159489833983 206.6654589852517 L 625.4801746279554 361.7713573582746 L 508.8733441603745 444.6990565471138 L 389.38443432006727 385.24600891075363 L 390.06763475974503 250.12420709872757 L 518.1910541030807 179.13258694829756 L 658.222758788746 251.49093270160233 L 682.1563075780298 410.04857005759277 L 571.7647989733209 515.7842049463701 L 435.97516032146433 480.5254767818675 L 406.76261753114414 351.0811102066291 L 513.0341674642136 264.40184393082666 L 653.0003843575942 316.6130388615133 L 691.4332406032456 471.0539501334193 L 588.8840718527681 593.1893860910479 L 439.39911595776607 579.0381194341203 L 380.6967678349723 454.4109871204725 L 462.62818799863294 350.1417342224512 L 599.601353071714 376.97746087457995 L 652.4249314572186 519.6666158190269 L 561.3729604918086 651.4399642208884 L 403.33185278941585 655.0493618561362 L 318.42740162646794 534.7174994883471 L 376.23588604067976 412.03590558300084 L 509.40822694602673 409.73108917641423 L 578.1256941343077 534.3560072084719 L 503.80145018555777 669.9907632700119 L 344.28063032171065 688.9715969730767 L 238.68737467115434 573.8514087582872 L 274.61419070882823 434.0636999509679 L 404.54772608877136 401.3682713159612 L 491.3816650139239 503.97597500738846 L 439.5300285368364 639.6210071551811 L 286.3665087336815 673.308825150428 L 166.62233707323978 566.3452456199094 L 183.75812153699962 413.36430678725577 L 311.207679782927 351.9757923776453 L 417.8504820565206 431.35991084453417 L 393.37404487524105 565.3608530418269 L 253.74693912118994 614.8956751104695 L 126.02663830998807 520.9394104015341 L 127.01711122559004 361.0237486655292 L 251.7133521431878 275.2662139175976 L 378.11911188071946 332.60497693070494 L 383.8343724534612 465.0454633646957 L 263.01780457700727 532.7424179405608 L 131.97126145213912 457.733167699494 L 118.01052515905485 298.5444208382725 L 237.80180714893282 194.38784614068342 L 381.4086390031672 232.2622492675143 L 417.2919504641211 363.9397601447181 L 317.94042423267786 452.15135163282963 L 186.09692435688856 401.8423953693308 L 156.52324647083455 251.0880814340821 L 267.163536946872 134.8019235230252 L 422.80511739736255 155.91161026810835 L 485.95805084151874 287.08767807753804 L 408.1225692981028 396.91858865815254 L 276.02459637221244 375.52244785620917 L 228.64413691108552 239.5780618195788 L 324.31345104635636 116.42209145200923 L 484.86823044320556 122.4065300078928 L 570.2140405741591 251.74073771818647 L 512.0638799898444 382.0247992288448 L 379.0671421288511 391.1873026156459 L 311.1029564107022 274.09838862031404 L 385.51893087577855 147.43928009628317 L 543.1196686937312 138.17593611259394 L 644.6209470079864 262.19604169320365 L 603.6308291783891 409.0671607370483 L 469.10059472553155 447.47955363191437 L 378.46782909868784 350.6280031103914 L 426.262280516619 221.73616274375152 L 573.7168743849489 195.33672578383633 L 685.7474584500418 308.63098045790383 L 659.9691843550645 465.83928808308474 L 524.4801231464327 529.6050613515104 L 410.9842481254236 452.12046025199993 L 428.9339379589219 320.68958379257975 L 560.9438394291718 274.196412690693 L 679.4039237435722 370.28997487958594 L 668.4186257190561 530.1868766594598 L 534.5641156125881 613.8311331686882 L 400.6394730117108 553.6001746183423 L 388.38195682452096 418.80741592141726 L 502.20671765065504 349.37278425988904 L 625.0523991105747 422.0371974007319 L 630.3014222624105 576.9484193694676 L 502.8390800526307 674.7632936880777 L 353.58373903200516 629.7082560646802 L 313.6043583853566 491.46494412148803 L 408.9908466887214 397.64316242741245 L 536.032597499225 442.2518433724652 L 560.4201584742706 585.8390214547079 L 445.68594594501246 693.1587193974086 L 288.16318332502783 662.3758290636501 L 225.06021841246303 522.3591836834943 L 303.4804057933783 405.1033438084777 L 435.5326474499059 419.628905200841 L 482.42160735940126 547.8442642110441 L 387.17185556977677 661.8684114592469 L 229.17250254560872 646.2632112737093 L 148.42622781078427 508.3868324994602 L 211.87874622600262 371.42966181637485 L 349.54456753990155 356.7860153964022 L 421.4574734054359 468.1499847026359 L 351.47656036301044 588.0763420922752 L 200.1010231903569 590.2916249369832 L 106.72157222560782 460.445921087343 L 156.48439088868284 309.9310853251496 L 298.9732457891152 269.56170484362895 L 396.4053368035354 364.7013039516211 L 355.2915116639585 491.1445644126448 L 215.76479440751115 514.7980894472041 L 113.22745937092236 399.9178114714846 L 148.9613609228957 243.37644582335966 L 293.3281925019966 182.21883244062414 L 414.0481047180435 262.83124244167504 L 402.5379726909991 396.72703379503884 L 277.59872698316053 445.19271526745916" stroke-opacity="1" stroke-linecap="round" stroke-miterlimit="10"/></g></svg>