<svg version="1.1" xmlns="http://www.w3.org/2000/svg" xmlns:xlink="http://www.w3.org/1999/xlink" width="800" height="800" viewBox="0 0 800 800"><defs/><g/><g transform="scale(1,1) scale(1,1)"><g transform="scale(1,1)"><rect fill="rgb(0,0,0)" stroke="none" x="0" y="0" width="800" height="800" fill-opacity="1"/></g><path fill="none" stroke="rgb(255,255,255)" paint-order="fill stroke markers" d=" M 400 400 L 389.47397675200205 260.3623438746589 L 644.8855585489828 362.8695877779349 L 466.7065539917023 690.497005540921 L 133.0586200187896 482.8539748760273 L 327.8774374930331 217.41380485859582 L 460.94214853422943 370.45387081377845 L 361.5351504579113 333.8470852423506 L 567.3869891708033 285.0145659246075 L 577.1122043912646 620.3010125099897 L 183.25102196663 602.8910748338023 L 221.47092267871966 235.94591423250645 L 481.7292095924903 296.40024272182336 L 392.4845284006717 394.93860346491266 L 473.2027898773063 271.3906311267049 L 628.3771623500159 508.13443105361176 L 292.73767886227006 679.0456500266595 L 135.58106561985312 320.59306858762045 L 440.6798018312053 215.04746831690701 L 458.2825287962619 408.2882700047405 L 405.6242852902217 314.9365715936331 L 609.6442513916868 398.0678513233919 L 424.089447753424 684.5565043971214 L 108.30358953085005 446.9820596637719 L 344.82899130413364 169.49837411433708 L 517.8535851732651 362.22605899365647 L 393.1904178658162 383.21517917847325 L 539.5578673860722 330.743528403524 L 531.4564104322867 621.3621380606538 L 154.64999874448742 571.8911153987998 L 227.36352580315955 189.2729139612972 L 531.9068237870794 274.225916059802 L 437.0948645411338 433.4619733325448 L 457.4749408207752 325.74773171261126 L 580.2953798568838 519.0219626972737 L 259.7408221427321 651.7898498848976 L 133.35999755203602 276.7437855828507 L 481.01349657179264 183.29895577678408 L 510.8718182392294 432.18470558756627 L 405.5874745633593 373.43151847469653 L 562.046597814884 421.5227189021136 L 385.12542781173215 661.5642865917278 L 100.13193382063355 405.52783013366155 L 374.8867011082342 132.68292004675226 L 572.4891391308322 370.5846700996247 L 409.9109536886731 439.7842069640319 L 497.2788398282013 367.82900544027666 L 485.4378836479812 605.1465880248788 L 140.89001271149613 531.5747836073945 L 248.71239486597747 150.50999557187714 L 583.464743696036 268.92823075834417 L 468.5900536806123 482.167288180246 L 425.939744202109 374.8058002512218 L 528.0175370517062 513.3578441067041 L 238.95585771094775 612.0632187633777 L 148.12797884057323 237.03954002064478 L 526.4995379010707 167.905272014581 L 552.7188514878587 468.8943449005957 L 389.0691232062117 430.0810542549937 L 506.8124748774437 429.94180502493685 L 355.09344287962915 623.7504393630843 L 109.48518015843177 364.1357567735005 L 413.7739541178341 110.79202161179813 L 619.3116974005383 393.9348852816886 L 410.1184928686962 497.9985528305589 L 444.42513254456514 392.00198042028444 L 444.7080234700138 572.6654528330483 L 144.1305942529799 487.2424154858512 L 282.1953207820873 124.32317377920225 L 630.6613199334613 280.1847259460733 L 484.19028218188083 535.9961984089057 L 381.424141198249 413.53135133641365 L 477.2905625792886 490.8743929544927 L 233.65940361304143 564.5658839155701 L 177.67268333502497 206.75816049012744 L 571.4792423668016 169.82195845525558 L 579.9898350195508 514.113600317501 L 357.69845017617257 479.3442138761976 L 449.4957117299341 421.7817168075366 L 338.2342003759933 574.9827085230296 L 135.36512880727133 328.44106027149047 L 456.1915526603364 106.00264219446785 L 653.6349689380975 428.94089262047476 L 394.1605312695688 552.0960619644757 L 386.07250352163976 400.51365926982754 L 414.2695973559592 526.7564750220271 L 164.6381526470841 444.61625650047915 L 323.12679024776156 113.99882383122826 L 668.1984987494723 305.785934574187 L 482.94818841625306 589.2621848549302 L 328.2623340159396 438.1071764280099 L 433.6341546426819 453.22828209620627 L 245.3763584908557 514.8296234111402 L 218.14588789952248 190.1351353329385 L 610.3075990562264 188.0655250474567 L 590.4990793709223 562.5198756672119 L 314.8439017299519 516.5322159468964 L 395.8550591988629 397.42535165756965 L 337.26549478624867 520.3282006105231 L 174.94711622047552 303.4261943121377 L 496.4228722225147 118.59765175305972 L 672.1541793497399 470.90723633171666 L 364.26965076687213 596.7603393889012 L 327.92321261301345 392.44793856453185 L 397.90687924197005 471.7641760934096 L 200.7536844360154 409.18783392264663 L 365.9933861721618 121.06912830019331 L 691.8238585878921 341.88948277353677 L 465.85393994011383 636.2955975563109 L 271.8053985888969 446.36440926532 L 401.7141176779703 403.8150638300125 L 273.70364187771526 468.58863013501724 L 264.5024626823044 189.87964046082374 L 637.9966406326985 219.8276688366824 L 583.9545619676771 608.3771812437161 L 265.23087329236216 538.3385708161994 L 351.2019658658879 359.14009496456157 L 353.0707316016938 465.47889439708763 L 223.90073370647963 292.8515468994482 L 528.9865208576525 146.9344993607495 L 673.3198481250413 514.3148311812784 L 324.3084097651615 627.7224480488057 L 275.6607703027523 368.8253794700868 L 397.7544522498691 413.04876456342197 L 249.07923195400556 385.59167204164163 L 405.08323936820665 145.13677425629263 L 698.8139516783406 383.4598147015943 L 435.71999217214113 672.0869259814637 L 217.81519803367206 438.0270922475265 L 384.81292278358484 347.3859812843105 L 316.353075667306 431.12743136562614 L 311.07527443543864 206.8639853230373 L 650.7842594199258 260.7968269729927 L 561.9882672201313 646.1889023963051 L 214.40501914181738 543.2120281191741 L 319.79929363210266 310.821664150638 L 384.59606142550683 416.1062611116539 L 276.8815455177533 298.8250836353475 L 549.2623009205449 187.63259463455603 L 657.5121658192433 553.4507043073197 L 279.3288025202129 642.2436172758612 L 234.3068039770464 332.48686894473553 L 414.053694600687 356.37964059656645 L 304.86190333541526 377.0765486785229 L 435.1379709146185 183.91883170468483 L 688.2840076760971 424.84354848912454 L 396.85863696040485 692.8551818120636 L 171.8114859238932 414.74144931525444 L 384.45767218473986 289.5106164774389 L 369.40854157112665 406.68008899860325 L 352.2206471600868 240.02178698184838 L 646.5638034746061 305.6505047426251 L 527.9678640384946 671.3235168646477 L 168.10215590765924 531.5299787703786 L 304.3793150286788 257.5527122218292 L 428.9678251143142 377.2183507385797 L 328.13791274172377 321.55986228526103 L 554.0193087804373 235.95809563572112 L 626.9961546833204 583.059872001562 L 234.99636971442115 639.4240985942756 L 207.65313968017276 287.77019387948894 L 445.12463257831917 307.2824307744362 L 362.5318081809506 385.1344031969919 L 451.95300822039826 233.50482952649332 L 661.2887938715469 460.41505123981807 L 354.58900391551657 696.4767875762466 L 138.44640987000275 379.8865444158009 L 400.2477548571838 235.94644907318855 L 427.7681918796507 397.94897572060734 L 382.9610043344654 286.46645565661026 L 625.1256128055281 348.66240695987835 L 486.611136936918 680.5421305417321 L 131.5963842327119 505.55260945635865 L 305.8357750504126 205.02636131656547 L 481.81696698332274 352.59242101217046 L 372.1639453994952 359.3469918659984 L 541.7861323767874 286.3623614588718 L 585.6627149169792 598.9452425407253 L 196.94442875566324 620.3030679287897 L 197.83364743300876 240.01629468968162 L 487.5563623625596 270.4137687632223 L 416.3327672761594 409.3290850104053 L 452.85802660764114 288.79969707366786 L 620.7031659391243 485.21883902692855 L 314.62956427159384 682.7262207485707 L 120.97751160520079 338.1878556540567 L 429.9017803518361 191.98698182918716 L 485.7214552398862 405.7978292755457 L 399.55163782489126 341.8165317032756 L 588.1830329390627 384.35535130797183 L 443.4470084032566 672.3678614902155 L 109.10052945443618 469.1630303857046 L 323.12501356482517 158.90019112949233 L 537.7735459996964 344.3475981042877 L 404.32436210075986 408.7471190033086 L 513.0210556984957 333.1128606419444 L 538.5849974087718 598.4473439447236 L 170.13183622881613 587.7382255117857 L 205.08451083258174 194.96132630209252 L 536.5943965378419 249.03488361323716 L 460.97410907218983 447.34441458144585 L 437.02289505382055 344.10122565671884 L 570.8958860090352 495.53576880951226 L 282.4452025092886 653.301060821635 L 120.89912371186557 295.1776988341871 L 469.51845127690643 161.86252540440083 L 537.5952564458092 429.15397566528355 L 399.9071738725088 400.69090067479374 L 539.1799418730347 408.1257384040354 L 404.1844285202223 647.2550792174729 L 103.28705543916004 427.4229261972506 L 353.3873794486388 124.15411297318951 L 591.075138885719 352.70613973319274 L 421.3802305019871 464.97868342434765 L 470.0629131351463 370.94481727487494 L 491.4405358494362 580.7493360067599 L 158.27729383570173 546.0787869748735 L 227.72016298943626 158.083635685708 L 586.680905461406 244.6438254799237 L 492.229468954812 495.2460984553228 L 405.55434056638114 393.7464133051541 L 517.2337843701225 489.30865212371464 L 262.6230855377539 611.628594030865 L 137.77405808269424 256.56384357915243 L 514.021715281881 148.26174942226078 L 578.3960014340689 465.130834620227 L 383.8392557655887 457.317602621252 L 482.9016622823143 416.76858700480307 L 374.0608806480438 607.5392568961084 L 114.9839115920094 385.9942500602682 L 392.2751261004959 104.52511905172503 L 636.2199822069363 375.97043193716416 L 421.85582947298747 522.4588167487186 L 416.86817092840784 395.6595198826441 L 449.86483023840583 546.9726262734545 L 163.43450858534726 500.66904471951693 L 262.32761542702735 133.97989035038955 L 632.0864430422788 256.8081256698737 L 507.4145319412135 547.9277298705201 L 361.37233574774325 432.7532263311697 L 465.47262603528975 466.3789005530539 L 258.3482858027277 562.4759609940023 L 169.28471373471885 227.57810156927965 L 557.7395892482273 152.0283791244342 L 604.3743599475737 509.356779910702 L 353.07842298101957 506.18703924256397 L 424.933480354049 408.8434462982465 L 357.2445688375507 557.1731322523755 L 143.0798883363363 350.49270827818833 L 434.4495063488373 102.08315834077655 L 668.5906144995516 410.71832721784915 L 406.2049346616007 575.435407101915 L 358.5641132866107 404.6012817103287 L 418.8098654657089 500.0522122238935 L 185.75650697681016 457.2389379630249 L 304.1570812832021 125.84127904448911 L 667.5613466250848 283.21690378884784 L 505.68942060681906 599.6901803684133 L 308.8802540565047 457.3848326786764 L 421.10392153777923 428.5072938028457 L 271.0387753691199 511.4081639747415 L 211.49778992585283 212.37894334915143 L 595.0508529868174 172.06750777570892 L 613.4486540816441 556.4729694783657 L 311.07769823713124 542.6753357750115 L 371.0283155014445 384.83958571643956 L 356.3582501724611 501.2791634434467 L 184.6502413047912 325.8465362431426 L 474.1905511535167 116.99634861609843 L 684.9771323891762 452.1946118113574 L 376.7576298109291 618.6384886175572 L 300.86891477556526 396.9588356870843 L 401.9804871800323 444.40591103505125 L 223.47590147110077 421.25091358877677 L 347.6644809015895 135.08933080085723 L 688.9327637050064 319.94648947850555 L 488.1513634385574 644.8885243177788 L 253.4662808104901 465.57217527113664 L 388.7319288273184 379.17650093143453 L 300.1812918127113 464.1555442762263 L 259.3125097093296 213.57605877713456 L 621.026094366838 205.47216760622098 L 605.4387335393574 600.743552466739 L 262.6202084413335 563.5670071589957 L 326.4554119902762 347.1216799806605 L 372.1788471315577 445.5691482071755 L 235.28830629208716 315.7334649941647 L 506.0502072317533 147.51221219390527 L 683.9405855303798 494.8540948398853 L 337.45369506473185 647.8769179410872 L 249.44451219470005 373.85690497929517 L 401.4127063304895 385.435067691941 L 273.10335982422805 397.27732809824886 L 387.1441531390702 161.21275457055702 L 693.5794384761748 361.9093552974862 L 457.7071185463583 678.5729610732001 L 200.8927500864226 457.1468569557789 L 371.5516607198863 323.1977943908077 L 343.3867429180033 425.96263062471843 L 307.04139925430695 231.93091462163866 L 631.9902295112995 247.85576485249888 L 582.0837609156356 636.7088854787302 L 213.27544219681462 567.4175245079024 L 295.40408064378477 299.6621594403906 L 403.54699319272794 395.6969741906606 L 289.6054118143852 322.1598892892854 L 525.4745799029308 190.15706728014717 L 665.9752066703854 532.994576446243 L 293.39288445092336 660.5125189674033 L 209.2558281748908 338.22754204529605 L 417.2418697305428 328.91348853712975 L 329.8217243016668 388.4791688231683 L 417.37984198245067 201.82385142774473 L 680.730286159284 403.4353197519686 L 418.7396637930652 697.0508812933108 L 156.64281794314894 433.8578715048887 L 370.98723020598953 266.166654800027 L 396.6588614809457 400.9923764408384 L 349.0576007135003 266.2673568206403 L 625.942547537141 293.8525835451881 L 546.8418937763079 659.8075008492646 L 168.76595308420318 554.7145769962161 L 280.5102607638312 247.59064671268493 L 447.49680074497655 356.61806912303183 L 341.8422656874815 345.2300834141606 L 529.3245393215619 240.1309088409522 L 633.4510398263726 561.4077348962475 L 250.25322001357125 655.7578052743252 L 184.00917678895013 294.4758640920451 L 447.68705073892636 280.3340530741856 L 388.0309878220596 396.24535480583756 L 434.2399509392983 252.9280921587915 L 651.552813197765 438.91894396285295 L 376.6070509800743 698.306187253523 L 125.29873253224571 399.17028643234494 L 386.5316393596262 213.82914187328146 L 454.8455804802282 391.8535072050552 L 380.4351337687649 313.6024285131374 L 602.786524639787 337.72945813744775 L 504.4946427061477 666.8961213820004 L 134.3164983590695 527.8197073023103 L 282.5597109184211 196.611693634459 L 499.59110646325365 332.0283576785504 L 386.5223207878404 383.13170731510826 L 516.2355016213355 291.85289147542835 L 590.3434919885443 575.9739354930327 L 213.6434334494336 634.763444020041 L 175.73368080239027 247.97818501896163 L 489.2534351262356 244.2872676621117 L 441.982185952122 420.03362363603543 L 435.1493932646238 309.3762222527358 L 609.0213298651901 463.45952111667197 L 337.0304003171502 682.228202909691 L 110.02237039619166 357.8687699686215 L 415.80621826892957 171.43105055058317 L 512.221828404235 399.30470418692386 L 397.50932308511494 369.4825424338476 L 564.3432762352738 374.03907850396797 L 460.60088733860346 656.6086048914046 L 114.05959990286095 490.69696433993636 L 300.4015589164498 152.35700368459555" stroke-opacity="1" stroke-linecap="round" stroke-miterlimit="10"/></g></svg>