<svg version="1.1" xmlns="http://www.w3.org/2000/svg" xmlns:xlink="http://www.w3.org/1999/xlink" width="800" height="800" viewBox="0 0 800 800"><defs/><g/><g transform="scale(1,1) scale(1,1)"><g transform="scale(1,1)"><rect fill="rgb(0,0,0)" stroke="none" x="0" y="0" width="800" height="800" fill-opacity="1"/></g><path fill="none" stroke="rgb(255,255,255)" paint-order="fill stroke markers" d=" M 400 400 L 403.5297829371717 409.53588941382424 L 384.5737434500927 413.2335072761124 L 373.37709303577356 385.20455048334304 L 406.1697499819876 359.91595987491564 L 449.58072412151853 389.85670809774274 L 432.0010491942527 451.462821854346 L 356.762134694424 455.71570685608316 L 323.3523520908521 375.8321606829712 L 395.579237915321 309.99054799728657 L 491.74923075838154 360.8198059194988 L 475.14732212815824 479.36436286258186 L 347.49701371311846 506.46108717299717 L 272.71307707181006 386.75966723513 L 365.96591473410496 267.1948171310337 L 520.1041722468408 316.8783592382569 L 526.8520152116504 488.82690451947093 L 358.54647811162783 558.1368889788899 L 228.91559836718886 416.84605903059565 L 321.21003634453723 237.99760723884492 L 530.128171728543 264.0738363333429 L 579.8125379597254 477.95777859351017 L 388.89629485071447 603.2674481625512 L 198.4947560159314 462.32112596777245 L 267.27621568004764 227.01915436817933 L 519.8041625246432 209.67668104799128 L 626.5358088621706 447.64383094286563 L 434.8876140173821 635.2534809084577 L 186.17269779126337 517.2989441877713 L 211.40066601659504 236.4007453782553 L 489.89096632271105 161.19537085058082 L 660.3597498778315 401.43117613617136 L 490.7151235788856 649.2719461859053 L 194.21471234339288 574.5797242125228 L 161.1051204004167 265.5122163032989 L 443.820551823583 125.35301219845269 L 676.3615460652991 345.042519492838 L 549.2177537653707 642.9338457811273 L 222.119889411539 626.6307410784573 L 123.1718167425052 311.03715913964743 L 387.23097542445186 107.17094976033513 L 672.028886311294 285.5978284984388 L 602.854169083832 616.6103119641413 L 266.68876664430076 666.6126590418845 L 102.71924438981216 367.4242252094901 L 327.1986572155945 109.28428150917887 L 647.6027036245202 230.64456509977109 L 644.730101851287 573.3825408548613 L 322.45874431310864 689.3113767345003 L 102.50461555549805 427.6430191575024 L 271.2746221740224 131.58256603126682 L 606.0447036867822 187.12964471685663 L 669.5375158067261 518.6223943683818 L 382.4479273356305 691.8483949332149 L 122.54812542686449 484.14156598303754 L 226.45605338131077 171.22468904184456 L 552.6341067082669 160.45322969550108 L 674.2776047338548 459.2608285719065 L 439.1060194903617 674.072893512565 L 160.1302092733115 529.8748617863334 L 198.2333202100586 223.02586319183635 L 494.2485609143071 153.73331198933178 L 658.6690914235171 402.84385138144745 L 485.342676249729 638.5820829347631 L 210.1621703643133 559.264331141299 L 189.8423581952668 280.16401845002116 L 438.4272291814754 167.3813121036176 L 625.1861816675039 356.5046694411685 L 515.4931660851271 590.3670568508583 L 265.8796670489992 568.9574305173682 L 201.82429060762553 335.10931167440367 L 392.34373722896885 199.0465339606092 L 578.7210010563598 325.9921063161076 L 526.0897341270365 536.132411589668 L 319.7645459620632 558.2838746075197 L 231.95230879208626 380.65007582840417 L 361.8289564236936 243.93704520468125 L 525.9165203376573 314.8877050832166 L 516.3335422545832 483.382359521582 L 364.5693877947925 529.3463086901145 L 275.5357758559755 410.8753858769056 L 350.5768024461684 295.47325068789144 L 474.2608830993123 324.118213219439 L 488.2028671497317 439.39788705033004 L 394.3051337441181 486.73307028637396 L 326.0601077692718 421.98033098699375 L 359.6412884158365 346.1850852402002 L 431.06656722222095 351.8298909889372 L 446.1828110627387 410.24435712854347 L 405.05719237679176 436.892187599197 L 376.0752239471796 412.7842454548322 L 387.29337694818827 388.7305497695793 L 402.4735071428053 393.64177279180046 L 396.65336281931457 399.94480698452423 L 395.5188025206462 387.25193111566534 L 418.21148268565213 384.8912707117653 L 429.257139780423 416.89677726509996 L 392.61203841686245 443.2433646636425 L 347.0192089374884 409.93160967650266 L 367.1689620550459 345.2077762111521 L 446.1846423338599 342.4713663026913 L 479.29303901487276 426.44719624909106 L 403.0397443867211 493.2553190514335 L 304.69989074535374 438.8512307687481 L 324.0706734444633 317.1138409744867 L 455.6528847472747 291.69161551320184 L 530.0488359435146 415.69933410020417 L 432.5289555276145 536.235787654481 L 276.1179363718905 482.74868923240473 L 272.31700266172953 307.416253565323 L 444.8090995254042 239.87533153232587 L 574.0621593193005 385.75451290086244 L 477.2338627170825 565.6952991447503 L 265.8228724934921 535.6065830099056 L 219.20044652676958 318.04656029615387 L 414.6277079873951 194.503567225197 L 604.7780957675074 340.3481329046537 L 531.2144693203895 576.9818467332399 L 275.87050210348383 590.1652172065654 L 172.21881289453842 348.15784552726956 L 368.732387494166 162.19510990445013 L 617.4431176846892 285.34094760120485 L 587.245974575489 567.9155592277098 L 305.5420452101994 638.9120622959965 L 138.05309926769183 394.23952738809595 L 312.9027229873336 147.80397471619582 L 609.7535175375399 227.9206624501441 L 637.8032802405188 539.0864576490509 L 351.44142056270397 675.1056922727023 L 121.65667168593484 450.5951848518812 L 254.2870220524899 153.75739677076874 L 582.1699749511017 175.62266841528378 L 676.086445474449 493.77471644410156 L 407.957410904577 693.6946535078475 L 125.57987700193615 510.11829532481045 L 200.42857583619156 179.72454538529945 L 537.8553846598438 135.30337096405088 L 696.9473342001709 437.50429592919016 L 468.02772547968954 692.006034581085 L 149.62213524491466 565.2601606598707 L 158.23807301408746 222.66111079162408 L 482.24441789493704 112.20603583687222 L 697.5911653220227 377.29077922304964 L 524.100828921722 670.1098940452608 L 190.85892759673402 609.0581067666905 L 133.05221264674105 277.2236872550087 L 422.3034796290158 109.24646409617071 L 677.9573539039452 320.68592279421875 L 569.1644527276608 630.8098793089679 L 244.04000224701943 636.0838274853087 L 127.90681401605832 336.49747823087364 L 365.58191901175417 126.61584918283228 L 640.7277397672877 274.7491349759836 L 597.7006175594687 579.2613149848646 L 302.3045283405266 643.1826266562932 L 143.12348846113002 392.9381475671711 L 319.18379974119125 161.75494103208442 L 590.9610820904411 245.08605554816094 L 606.4370102085293 522.2688099898604 L 358.1157324395758 629.902810104316 L 176.2662039213196 439.39945551753925 L 288.80036373163216 209.70303810641917 L 535.4036335446938 235.08526450105717 L 594.7923132048837 467.3591099983998 L 404.28763939171904 598.5567076899279 L 222.4736614465219 470.1066270111285 L 277.9350497429608 263.77424416061467 L 481.5697535342109 245.45714572290504 L 564.954795236134 421.75555290060805 L 434.96398690620845 553.9050094913 L 275.12218478123197 481.44279561237283 L 287.4266859436212 316.4688247373283 L 436.71786069999666 274.13775165144517 L 521.5834522073064 391.3938950946525 L 446.4159012457816 502.50743745184843 L 326.72877960346784 472.4413419160334 L 315.3358382392168 360.4954574581857 L 406.8612886924792 316.570770146897 L 471.17243009459423 380.11363813034467 L 437.549621912016 451.82824784676956 L 369.971287093181 444.91702781314694 L 357.20980287157016 389.765056824609 L 395.94885233851636 366.3291645475833 L 421.16535096372263 389.1350668338056 L 410.05507968861207 409.2184732157145 L 398.6865981178027 403.21805539806394 L 406.6901276253149 400.2207283050651 L 405.32680204046824 415.9917649169889 L 378.94024837585397 416.8932713420606 L 368.1750793357114 380.91361115729325 L 408.7108843899388 353.63284223558964 L 456.37986385920584 390.3907398922105 L 433.555494741705 458.1553420533183 L 350.80345262525435 459.25177329269974 L 318.1265447902416 371.18336216993146 L 398.4473339655306 303.53236228300307 L 498.85235373271865 361.5891483853851 L 476.6057666151097 486.44423131332843 L 341.12954648634474 510.0666413977725 L 267.2527040033629 381.74929644009046 L 369.0840160039636 260.3649406589392 L 527.6640676242662 317.7367376473253 L 528.4082443141876 496.37990726361636 L 351.7646046837274 562.0242145525183 L 223.02175990597712 411.5498143013477 L 324.4321824680875 230.6404990519638 L 538.2334547375904 264.8266725468446 L 581.6807307609026 485.9919969924279 L 381.77404819201655 607.6382615578609 L 192.00851591403463 456.884433562527 L 270.407043864133 219.04268627912944 L 528.4660305381841 210.1076928458701 L 628.9209035625512 456.0874584159068 L 427.5694780560883 640.270677404721 L 178.9977474637823 511.9177396711715 L 214.2217821829804 227.78989950214438 L 499.0405091845357 161.09616687246842 L 663.4290342172039 410.14123748226956 L 483.3972035223178 655.0366083454978 L 186.3315187238729 569.4743173922586 L 163.40464618033116 256.3322810911932 L 453.3169842011798 124.55164897595597 L 680.2213447996935 353.8233055782261 L 542.1218851355579 649.4706487722899 L 213.58939714043572 622.0163257522518 L 124.77308569061279 301.42598714189074 L 396.87967043743504 105.55555873135813 L 676.7095234696442 294.2265350046912 L 596.1984931897607 623.8633156426671 L 257.6451489481857 662.6704861279511 L 103.50473668955152 357.5746065243974 L 336.77652479713873 106.8185457672177 L 653.0537895597295 238.9006421893481 L 638.7001170280212 581.2219429720748 L 313.092189433722 686.164518979687 L 102.43186938419342 417.7775716213072 L 280.55937462869775 128.31093729256935 L 612.1413898383908 194.82385870576 L 664.2615489370967 526.8613254378606 L 372.9798053691765 689.5454056618296 L 121.65545658191184 474.483563019122 L 235.25537081969156 167.26663354858707 L 559.1934562753675 167.45247705173838 L 669.8100451738478 467.6799004130257 L 429.75981293404504 672.5815860603539 L 158.53145962062075 520.6189724725065 L 206.40994217744748 218.55992044147527 L 501.0538050034771 159.97780485916152 L 654.9836715724067 411.2201146583957 L 476.3146348881344 637.7942781348385 L 208.03120085624647 550.5512590160879 L 197.33168300315853 275.4038449769666 L 445.25660334762085 172.8917941969111 L 622.1802192230805 364.64103465100845 L 506.9266844051131 590.1136511761027 L 263.42670869983465 560.8559062988206 L 208.64208497412534 330.2749744113514 L 398.99996910346965 203.9205443456264 L 576.2300241137217 333.7432195419525 L 518.0569421089904 536.2067120277411 L 317.20763177941535 550.7824557600198 L 238.19147820209415 375.9385069432527 L 368.1653864290841 248.33474014909336 L 523.7372814449167 322.178753021534 L 508.8266172830166 483.56850464032095 L 362.1047590300846 522.356102229952 L 281.3526369313191 406.43402523918917 L 356.51657848683 299.5947167675142 L 472.1796251699833 330.95409564391707 L 481.1362499347392 439.50048059224093 L 392.08065356764934 480.1010065348062 L 331.65203465882644 417.88754793964864 L 365.1870193920823 350.24223653294587 L 428.88868840562105 358.2935116496584 L 439.406022352993 410.11527522701067 L 403.1523901770419 430.4230346366752 L 381.6527163137933 409.03920760686924 L 392.52593029818473 392.91744003662905 L 400.05058120334104 399.8816827461456 L 389.97267297830126 399.5035253681611 L 393.9342683198012 380.73604845373137 L 423.96846315499636 381.4146399243953 L 434.3237478247921 421.36237403313885 L 389.86250756338575 449.45244320528536 L 340.22520587918666 409.17628037328603 L 365.8265361964796 338.4508240349295 L 452.2710324968026 339.11672641597113 L 484.38633594257874 431.2743281126931 L 399.96046391885153 499.6433988553002 L 297.59718786672346 437.85899860356625 L 322.82440541955975 309.964394792071 L 462.1531983054699 288.26607371448733 L 535.3796833722281 420.89268125054133 L 429.1960164660901 542.9999561013884 L 268.5529704927152 481.66520491265163 L 270.97338521407175 299.78755957776684 L 451.7299710508277 236.16648500492585 L 579.829964896205 391.23927835276777 L 473.79257989391107 572.9919245164788 L 257.706002062601 534.6261420031888 L 217.54516703539696 309.9294653527433 L 421.89605795754795 190.30915917836526 L 611.1426709760148 345.9795762400325 L 527.8598990473444 584.9041428892449 L 267.1893927888724 589.504231219367 L 170.0463757851356 339.62313833310156 L 376.20447465887 157.35133250625574 L 624.5019112755201 290.92348259373756 L 584.1966167354146 576.4797475735216 L 296.3645173537376 638.7794788997677 L 135.19528187502783 385.4293707454651 L 320.3828512900425 142.2085608760837 L 617.5273283836642 233.23391647714112 L 635.2715485605469 548.2284135220751 L 341.9073692256606 675.6743941733837 L 118.00593494610087 441.704805483348 L 261.55335352676593 147.38435283349693 L 590.5990925402502 180.45095272047172 L 674.249930231427 503.3575581601884 L 398.2608984782625 695.0777354855932 L 121.10453990248493 501.3704256002199 L 207.26253241534124 172.62851606495997 L 546.8066842738363 139.46454596288686 L 695.924773645728 447.33588340178886 L 458.39168619066544 694.2411914141281 L 144.37124441427943 556.8757143872673 L 164.4533210454251 214.97078059063546 L 491.5284445996339 115.57583805096004 L 697.4264004253089 387.14873853460114 L 514.7478314716423 673.1540473350464 L 184.95615780035448 601.2270844716286 L 138.51928074606263 269.12511678740793 L 431.6991938498587 111.7749798032383 L 678.6134530203803 330.3467874122415 L 560.2875045359364 634.544775751429 L 237.66741845970833 628.9404153455789 L 132.5699899858011 328.209645574132 L 374.8657323263165 128.33389011865535 L 642.0920938610195 284.01763326933997 L 589.4379884154473 583.5093333973955 L 295.67842176432833 636.7878817422181 L 147.00769322648426 384.6840270941937 L 328.15894483026085 162.76945367252938 L 592.8607760332802 253.82055432306637 L 598.8545053601968 526.816823133141 L 351.4578230222696 624.2372906792078 L 179.4729064094534 431.3765748180895 L 297.3225969036016 210.18217258237527 L 537.6289985660399 243.21590215785616 L 587.8754106603673 471.98714950135945 L 397.7955688491067 593.5240519702293 L 225.16639187330915 462.46111361655863 L 285.93118428352096 263.9241180978196 L 483.90289094288926 252.99418495121324 L 558.611717709299 426.2663710395419 L 428.78512291622934 549.3459741670026 L 277.5036213782962 474.2504496022541 L 294.9034316112111 316.50514912117814 L 438.9622495389084 281.1690145086939 L 515.6587538905691 395.63939498056857 L 440.6280221832828 498.22248174335175" stroke-opacity="1" stroke-linecap="round" stroke-miterlimit="10"/></g></svg>