<svg version="1.1" xmlns="http://www.w3.org/2000/svg" xmlns:xlink="http://www.w3.org/1999/xlink" width="800" height="800" viewBox="0 0 800 800"><defs/><g/><g transform="scale(1,1) scale(1,1)"><g transform="scale(1,1)"><rect fill="rgb(0,0,0)" stroke="none" x="0" y="0" width="800" height="800" fill-opacity="1"/></g><path fill="none" stroke="rgb(255,255,255)" paint-order="fill stroke markers" d=" M 400 400 L 411.57274433288217 457.01860342663036 L 505.1202319842905 355.4953298292444 L 306.28746502556135 263.2359386757389 L 253.05081174740127 551.6006524097331 L 609.2331267969397 533.9864179613035 L 499.7589587311978 142.2870793031194 L 110.44507443968172 350.5682086370152 L 409.34543394890335 699.8411308681425 L 686.9796157045869 332.3810428009681 L 283.48726992823265 147.04977162060266 L 197.00096138289268 548.5982442780497 L 559.0409625385653 544.8287171907649 L 487.40979087359483 253.65357529366378 L 287.40911675722026 360.40376949868937 L 391.2409729928766 463.10087431337814 L 405.63117596383825 399.64863422547444 L 413.66183648958383 450.8319817591446 L 497.4577553985707 351.3738154123042 L 300.86473214631326 273.06645397483766 L 265.4064519324114 557.3830801976067 L 614.368713229481 519.1388212609027 L 482.8377577558004 138.71454256572497 L 109.12006714996198 368.8239934941498 L 427.9901182593815 698.5714960194174 L 683.1591662971955 314.3539091182355 L 266.9896263050963 152.99302769084804 L 204.32088576559343 562.8896596506323 L 570.7890049598309 537.0812469392017 L 480.24040884699673 244.39447387399528 L 280.20139617386246 366.088111140243 L 394.7719678828297 469.010326251146 L 411.1947484904546 398.59751300172195 L 415.0249494486401 444.60965153866084 L 489.67487501261553 348.04413822078266 L 296.32909659888577 283.0696117960593 L 277.94568639295017 562.1685221588373 L 618.399832122094 504.1404237919582 L 465.83800151403045 136.3348806727654 L 109.04353981526151 387.05701838689663 L 446.4965266495626 696.0392476446898 L 678.1057143055602 296.5777069948709 L 250.83608947625828 160.10040507854407 L 212.7073107277576 576.7768875896513 L 582.1143811550382 528.3786740101143 L 472.22401456331556 235.53282821072895 L 273.32688616444074 372.53125243091915 L 399.00692636395314 474.6791693467405 L 416.62361664954585 396.8555437944082 L 415.6667082201337 438.4199246609146 L 481.84281897321296 345.5051086220565 L 292.68136479320015 293.1700205902521 L 290.5883639451881 565.9559852604992 L 621.3272040338061 489.07598935543973 L 448.84819853131995 135.14396176635006 L 110.20671613157964 405.17648520603734 L 464.7733895585078 692.2583847233125 L 671.8383154080957 279.14227659699236 L 235.1133796944153 168.34867602394897 L 222.13430321878812 590.177547363216 L 592.9396107018104 518.7478140963796 L 463.3864090816795 227.14140268086433 L 266.8545356280988 379.7100861014815 L 403.92663690966907 480.0407926045683 L 421.8516811105364 394.43750307288354 L 415.5976607098491 432.3302815413479 L 474.03211562335036 343.749486904406 L 289.91611307087277 303.2929207021705 L 303.25497663682665 568.7509106716108 L 623.1581795904386 474.0295446900444 L 431.95595343787545 135.13086748684202 L 112.59394139036442 423.09271881134987 L 482.7308028800979 687.2497968416225 L 664.3828454993482 262.13585918505476 L 219.90642494862826 177.7079357075734 L 232.56944801672276 603.0111788930742 L 603.1891823978991 508.22174743204135 L 453.7594501070463 219.29102623882883 L 260.8514640382554 387.5956154489024 L 409.5061004439823 485.03025755842896 L 426.8143364268326 391.3639328374956 L 414.8341803886113 426.4068766032269 L 466.31209361920355 342.76407620520376 L 288.0217790533341 313.36469185572076 L 315.8671758034536 570.5650805268915 L 623.906640782382 459.0838552890864 L 415.2474364486207 136.27800027785923 L 116.18280059563983 440.7177010263269 L 500.28076193769056 681.0411343225699 L 655.7718595391051 245.64456674894254 L 205.29783734188223 188.14175286693998 L 243.9740049356507 615.1997574391644 L 612.7900590892257 496.83965849043994 L 443.380892168459 212.0500969496908 L 255.3824735061169 396.1531105747783 L 415.7146808424684 489.584781561734 L 431.44895317002477 387.66099672760686 L 413.39832846689825 420.714053750831 L 458.7503919430141 342.52985614394726 L 286.980793998665 323.3133507077436 L 328.3482780070714 571.4164833385674 L 623.5928605902533 444.319911676378 L 398.8068637783163 138.56123260172836 L 120.94427860351215 457.96559312825894 L 517.3376833473039 673.6666363749493 L 646.0444086189034 229.7518643375573 L 191.36740266459324 199.60736186361163 L 256.30310705585725 626.6681947153511 L 621.6721687077583 484.6466351225497 L 432.29418667655744 205.48410037840142 L 250.50957463167964 405.3423043870641 L 422.5162949665105 493.64420745000336 L 435.69534662619105 383.3602966755189 L 411.3176765384708 415.31387510867376 L 451.4124830965643 343.02215619497844 L 286.7697551948248 333.06903517601745 L 340.62375754798694 571.3291390474129 L 622.2433219525174 429.816429461709 L 382.7159923200697 141.95009702232983 L 126.84296120641392 474.7532435038328 L 533.818911444333 665.1669183732708 L 635.245816390495 214.5380683956393 L 178.19158645768502 212.05589502520007 L 269.5059987794739 637.3448231642088 L 629.7688782722086 471.69342835035 L 420.5482430848141 199.65514505999155 L 246.2915293489581 415.11762713711903 L 429.86964100264055 497.1514563802244 L 439.4962288729897 378.4986513311583 L 408.6250909214143 410.2656662182277 L 444.36121267735996 344.2108675633167 L 287.3596371374612 342.564472327815 L 352.62172233131656 570.3328849750417 L 619.8904973609176 415.6493664031642 L 367.05363181906523 146.40801584370774 L 133.83727582156558 491.00067723876384 L 549.6452060498234 655.5887196438537 L 623.4274162634877 200.07986431792676 L 165.84305975722066 225.43265382873807 L 283.52631225569144 647.1618602208505 L 637.01744770418 458.0361742864217 L 408.197152635936 194.62151817146867 L 242.7834138671228 425.4284780071875 L 437.7284636223961 500.05296076053673 L 442.7976411510749 373.1178377428258 L 405.3584801785266 405.62558076941974 L 437.6563584167892 346.06069208077156 L 288.71604001030346 351.73542674613293 L 364.2733699883649 568.4631241828409 L 616.5725906121856 401.89145958550813 L 351.8951776554418 151.8925687394409 L 141.879770183561 506.6315645301809 L 564.7412084740564 644.9846133882257 L 610.6462510338572 186.4498463072688 L 154.39024758412626 239.67741723508658 L 298.3023804636553 656.0558495292896 L 643.3594604508564 443.7360799055878 L 395.2998764244164 190.43726439803362 L 240.03620468037752 436.21953201478124 L 446.0418542297374 502.2990743103185 L 445.5493635856566 367.26429802149033 L 401.560507545918 401.44618781552225 L 431.3542116345214 348.5314263886095 L 290.799473707729 360.52112640243445 L 375.513421280015 565.7605380100745 L 612.333242510836 388.61178569083967 L 337.3121672131587 158.35579656310722 L 150.9174272007684 521.5736649489967 L 579.0358827962 633.412680618169 L 596.9647368488411 173.71608247940577 L 143.89690309992898 254.7247852449567 L 313.76758500494554 663.9680762146302 L 648.741228043692 428.85907462965025 L 381.9198997444745 187.1517908287066 L 238.09639046192285 447.43108026491103 L 454.7545843313651 503.8444564521111 L 447.7052994537529 360.9888129563076 L 397.2782702382119 397.77608427330534 L 425.5071839145176 351.5782794322348 L 293.56567543588153 368.86466323681697 L 386.2805279716732 562.2707647744164 L 607.2212025294456 375.8753471791486 L 323.371862652738 165.74453928934167 L 160.89201389609917 535.759244740879 L 592.4629296212152 620.9361502106531 L 582.4502936439285 161.94170799436 L 134.4217101834064 270.5045555157536 L 329.8507364262018 670.8449534854574 L 653.114165894427 413.4754299151515 L 368.1248549168147 184.80950056539618 L 237.0056125000835 458.99940135645625 L 463.80746983527575 504.6484283852752 L 449.2238313720328 354.3461447657349 L 392.5629478099143 394.6595353295283 L 420.1634416244533 355.15222109202176 L 296.965958687516 376.71336580494955 L 396.5176525357459 558.0440468530727 L 601.2899686695075 363.742687024991 L 310.1368627331361 174.0008058284247 L 171.74046214067687 549.1254645286131 L 604.9611696933239 607.623007407974 L 567.1749444055115 151.18454881339022 L 126.01791699961899 286.94213066288887 L 346.4764846797258 676.6383780244713 L 656.4351378173278 397.6593492458084 L 353.98611499845464 183.44945752046124 L 236.8003361422363 470.8571615396528 L 473.1377638859012 504.6752984051989 L 450.06814696413375 347.3946513753458 L 387.4694219662549 392.13614519726303 L 415.36657073065203 359.2003595423666 L 300.94759118261334 384.01914154385713 L 406.1724172290599 553.1348485696097 L 594.5973979687525 352.2695344633547 L 297.66474613190644 183.0621732363811 L 183.3952786763431 561.6147349772237 L 616.4748949413269 593.5455732909719 L 551.2148858140222 141.49677848211172 L 118.73300293621509 303.9589536707431 L 363.5657571334498 681.3060518179234 L 658.6667669587346 381.4885311267208 L 339.57836097562387 183.1050847032642 L 237.51155550574532 482.9338410308152 L 482.6795756393829 503.8946542052372 L 450.20653175801937 340.19587481555175 L 382.0558704107345 390.24056046253276 L 411.15527414354716 363.6663447581209 L 305.4541991925308 390.73878641629244 L 415.1974202993884 547.6014474919849 L 587.2052902778132 341.5064839933472 L 286.0077485047759 192.86221266183912 L 195.78498174209338 573.1750381899493 L 626.9541847465335 578.7800579439288 L 534.6500330077391 132.92461012745252 L 112.60838106424774 321.472968653053 L 381.0362213555037 684.8117683055649 L 659.7777110399032 365.04370785907594 L 324.97912521621794 183.80389805261743 L 239.1645335140327 495.15618370736007 L 492.3643122146174 502.28162013577736 L 449.61262730258096 332.814106488793 L 376.3833374815377 389.00220803687296 L 407.56310361358396 368.4907954137653 L 310.42619545785016 396.83425990483977 L 423.55051729452595 541.5055019307587 L 579.1789481284574 331.4987096615695 L 275.2124753057163 203.3309392049484 L 208.83456144432495 583.7602128314259 L 636.3551854447796 563.406090191829 L 517.5635413745075 125.50802562726454 L 107.67913805248321 339.39910403817873 L 398.8027697403057 687.1256609474298 L 659.74290005129 348.4081630339484 L 310.26831411942777 185.56727766108716 L 241.7785790590104 507.4486672584509 L 502.1211409024836 499.8170776252756 L 448.26565270216526 325.3159322312083 L 370.5152844905452 388.445069505698 L 404.6182279703302 373.6117462519415 L 315.80122780352485 402.2729235694004 L 431.19506568070886 534.9115975673906 L 570.58671563147 322.2857164200601 L 265.3196521478687 214.39528269911068 L 222.46596086453874 593.3302012075596 L 644.6403513184479 547.5062269469 L 500.0413084271742 119.28054367171603 L 103.97381322275334 357.6497751081021 L 416.7780228950398 688.2244125535558 L 658.543734764354 331.66723082790793 L 295.5277130422734 188.41027798705403 L 245.36686288106657 519.7339907120299 L 511.8774685598899 496.48784719145505 L 446.15058802511885 317.7697602185484 L 364.517122819337 388.5874934194987 L 402.3432392475773 378.9651128755278 L 321.51464536585837 407.0277416173439 L 438.100131224617 527.8867762978314 L 561.4994995179577 313.9011300964022 L 256.36391424033536 225.97957630159476 L 236.59857475726707 601.8512567896477 L 651.7786455825747 531.165445328076 L 482.17145894666555 114.26902818281013 L 101.51421818192512 376.13540269404865 L 434.87284858243305 688.0914239791994 L 656.1682447051826 314.90778030351765 L 280.84047669822104 192.34147838816935 L 249.93627346614147 531.9335761595352 L 521.559435024036 492.28683075573826 L 443.25831829346333 310.24533488234107 L 358.45573292189374 389.44204681297555 L 400.75499798569496 384.48517080229567 L 327.49997928844243 411.0774421953825 L 444.2406548441101 520.5000504612586 L 551.9902755075109 306.3725272715316 L 248.37363617468947 238.00605966045546 L 251.14976259514825 609.2961109144742 L 657.7457001318452 514.4706208288702 L 464.043816684173 110.49353829795672 L 100.31529820154572 394.76494472482204 L 452.99689291234785 686.7169410427011 L 652.6112044709781 298.2176880221156 L 266.29060832959783 197.36287506326542 L 255.487314033894 543.9680813804825 L 531.0924172607096 487.21311320760526 L 439.58573701706945 302.81324010685006 L 352.39897251372116 391.0154069899339 L 399.86451874207563 390.1050455159461 L 333.6894345885977 414.4066383733029 L 449.59757890373317 512.8219057531401 L 542.1335833253519 299.7213060777393 L 241.37080307818505 250.39539334677298 L 266.0353726080473 615.644097679902 L 662.5239330775862 497.50999489282475 L 445.74936600021465 107.9672208538376 L 100.38503624836147 413.4464372414916 L 471.0591203923298 684.0981388002162 L 647.8742075638802 281.68530235195567 L 251.96243102670437 203.46981520454543 L 262.0140413893057 555.7579200135656 L 540.401540903578 481.2720224540387 L 435.1358085084715 295.5443950503509 L 346.4151772656472 393.308294327456 L 399.676896568333 395.7572101774629 L 340.0143898785714 417.00590806009086 L 454.1579321927177 504.9237961561078 L 532.0050137197145 293.96259867510975 L 235.37092386337704 263.0671811515349 L 281.170273415413 620.8812363078189 L 666.102623386827 480.3726353278971 L 427.3797068826521 106.6962460304922 L 101.72440029283592 432.08754142886653 L 488.968359387718 680.2391625831799 L 641.9656971713154 265.3989029186289 L 237.94005463040378 210.65097390054564 L 269.50404716195817 567.2237858455621 L 549.4121957736755 474.47514745111073 L 429.9175884965442 288.5095459650613 L 340.57265739263977 396.31544658814454 L 400.19127493985627 401.3739876305338 L 346.40590155057185 418.8718323646536 L 457.9148731080564 496.87763430439736 L 521.680690901436 289.1052258803012 L 230.38298704401592 275.940496821386 L 296.4688897918187 625.0002705393599 L 668.4779422095659 463.14789303034513 L 409.0265068263966 106.67978653875502 L 104.32733424231526 450.59609317537195 L 506.6338495043295 675.1511254875196 L 634.9009536208855 249.44615867363163 L 224.30684167899017 218.88837403492784 L 277.9384816580147 578.287177774277 L 558.0505519451726 466.84031400098525 L 423.9462028156476 281.7787574658938 L 334.9391935499318 400.0256349485302 L 401.40085534587934 406.88805326465354 L 352.7952089883514 420.00699219978395 L 460.8676908309569 488.755280692265 L 511.23675385295047 285.1516941403323 L 226.40945928739447 288.93441176206164 L 311.84573908858465 628.0006649010305 L 669.6529407575557 445.92485850975123" stroke-opacity="1" stroke-linecap="round" stroke-miterlimit="10"/></g></svg>