<svg version="1.1" xmlns="http://www.w3.org/2000/svg" xmlns:xlink="http://www.w3.org/1999/xlink" width="800" height="800" viewBox="0 0 800 800"><defs/><g/><g transform="scale(1,1) scale(1,1)"><g transform="scale(1,1)"><rect fill="rgb(0,0,0)" stroke="none" x="0" y="0" width="800" height="800" fill-opacity="1"/></g><path fill="none" stroke="rgb(255,255,255)" paint-order="fill stroke markers" d=" M 400 400 L 336.84448503935647 106.73336330324986 L 395.5128881218458 402.0266023212656 L 221.77793080737774 158.78980686568985 L 393.49050359036335 407.3868463538856 L 138.43127793630822 253.6088561952985 L 395.66305049884005 414.1140285852918 L 101.60195891710117 374.27155021874324 L 402.47525523560523 419.5246415950765 L 117.76705090419136 499.26995634690667 L 412.8603875803914 420.9603864049088 L 183.93754785376703 606.3628883346295 L 424.405558019776 416.56248791994705 L 288.213114013227 676.5561164541446 L 433.8830260985929 405.88668149605184 L 411.93400661596064 697.4907699862947 L 438.03447994484765 390.19875738456824 L 533.0389955904448 665.6320179382981 L 434.4309601285562 372.3596480596293 L 630.0217085088742 586.8681723393654 L 422.20520075974974 356.30119672598806 L 685.7719355641082 475.4182581383492 L 402.4724730602842 346.18909512602045 L 690.6118893253176 351.2514213748799 L 378.3176822421435 345.44699597769335 L 643.9855023961428 236.48889640933598 L 354.3183529894528 355.85776909636974 L 554.5042082117835 151.44032920381034 L 335.67620886792764 376.95373086968203 L 438.3503739975107 110.98864489161258 L 327.1222531908322 405.85648675899085 L 316.3354291232707 121.97065873820634 L 331.8211204276909 437.6379066181481 L 210.1501655575067 182.01712382449685 L 350.515475857931 466.1642574059838 L 138.4864658040829 280.0498409411814 L 381.11509076479473 485.27819530969583 L 113.72781043172046 398.3335657904779 L 418.8532248450541 490.09113588392034 L 139.79793538368887 515.7012917372781 L 457.020286416756 478.1200699509331 L 211.54346639369234 611.3634618818243 L 488.163639661224 450.01836841503484 L 315.74678466564046 668.6118663347667 L 505.53779612772166 409.71890029952397 L 433.5709735461254 677.7545464535991 L 504.5236092526977 363.918175873397 L 543.982909201892 637.7631800069917 L 483.723938539091 320.96144129008917 L 627.529335595704 556.3517179449143 L 445.49149522331066 289.31475224726927 L 669.7842501552732 448.49057369658976 L 395.74523139728586 275.90503916998887 L 663.8531267459914 333.6422050670451 L 343.0667450451996 284.6522617236135 L 611.4968560611153 232.2305345336695 L 297.21206501358574 315.49777463424647 L 522.6923726118409 161.98793177434578 L 267.29832268562194 364.1510634737764 L 413.73079555544143 134.83682818931487 L 260.00345167197725 422.64661168969207 L 304.21573643721223 154.85754490407925 L 278.1324504243503 480.6476179545101 L 213.51708273382008 217.6902955604266 L 319.8500214712775 527.2832601992086 L 157.32511006424141 311.45583467903106 L 378.76415322091725 553.1910644442182 L 144.92147690462875 419.0044774918004 L 444.88847535401817 552.3798453666927 L 177.6444177111057 521.067183016871 L 506.34198329708704 523.5451303256983 L 248.80224826902986 599.7272513873902 L 551.4955440607894 470.557742671468 L 345.0239615214882 641.5837577557738 L 571.1753288291147 401.992943083697 L 448.77705118011363 640.0449222759457 L 560.5052131616618 329.74602249890734 L 541.577556824028 596.3570415480144 L 520.0214385324093 266.9571940463155 L 607.3019418992357 519.2101981710165 L 455.81655403492755 225.60984054968233 L 635.004072367158 423.02169304852174 L 378.64472782117264 214.24314355275743 L 620.7423202446798 325.2343865618235 L 302.11519048308986 236.21575594995625 L 568.1110506403793 243.13744248821146 L 240.27827149395966 288.86944853911575 L 487.4112906930594 190.79174031953985 L 205.03469405036196 363.7844446088988 L 393.6424153253578 176.6098741537395 L 203.84772585473488 448.1190771139426 L 303.7051455312217 202.00939515341943 L 238.19760779346745 526.8219379047705 L 233.33896661128423 261.3538742123035 L 303.093174058599 585.333458672567 L 194.35179324536747 343.15829329439435 L 387.76768519103484 612.2893265920233 L 192.63232981453712 432.30739336003194 L 477.46820632977096 601.722074838963 L 227.2808639734557 512.8592082020849 L 556.0405627914981 554.3352449759094 L 290.98259532587207 570.9119886194204 L 608.8543324176135 477.58470414057365 L 371.51913729934205 597.0161182221896 L 625.5355077394136 384.51619978336845 L 454.11072323100007 587.7102484210075 L 601.995004048548 291.5382651240945 L 524.1403485366566 545.9323300413333 L 541.3578344367309 215.51244744757733 L 569.7557297322888 480.26805957934124 L 453.59116802522834 170.6798518580137 L 583.883243264102 403.211527672697 L 353.8654129629167 165.98691593477471 L 565.3101586623636 328.7866163520717 L 259.91792333335627 203.3136896146615 L 518.672555583825 269.98219720330246 L 188.88001720116958 276.95335610153313 L 453.3912147769636 236.4723594877192 L 154.13811605974627 374.468884715264 L 381.78803662530373 233.02412604784607 L 162.8066904604814 478.80147179201583 L 316.7565772860177 258.8548821223145 L 214.29081258109653 571.2718529138299 L 269.427702794875 308.01829702717407 L 300.22576820624914 634.9433672496398 L 247.25518257509754 370.7062363855173 L 405.8338109702196 657.737987280419 L 252.85217300501293 435.1907327353827 L 512.4784325292542 634.7296359961924 L 283.7581502723871 490.02383031292254 L 600.9722806707805 569.1789838351151 L 333.137164031332 526.0817156501862 L 655.0481790605821 472.0966660423551 L 391.23658918400935 538.086059385807 L 664.3620518829482 360.38783363864366 L 447.30263182592444 525.3482904219218 L 626.4712566907958 253.89182261907854 L 491.5780623288485 491.6379332932838 L 547.4100237972591 171.83832435840378 L 517.0098238368117 444.243332506716 L 440.73422551754226 129.35667638868784 L 520.3659492415031 392.440147087695 L 325.1855608758017 134.67513455432874 L 502.58621696832006 345.6830157402527 L 221.37974582775811 187.5304846860758 L 468.34331308546496 311.8718129294038 L 148.10734100823498 279.0948497653755 L 424.94086582408374 296.0118238584125 L 118.91466474118806 393.4539279263689 L 380.7932004017744 299.4960191602178 L 139.58998200111716 510.38841390015716 L 343.7977375915166 320.1074276426957 L 207.02305769157735 608.9696968499833 L 319.9142745216561 352.6971170780165 L 309.6616295236108 671.326705170274 L 312.20812759877754 390.3665269082048 L 429.5001823494754 685.9022270738502 L 320.5101329074682 425.89569265119513 L 545.2568724334508 649.6024965161013 L 341.7181748630847 453.126418898259 L 636.1747942402014 568.4389504600671 L 370.6384833279334 468.03552460511287 L 685.7647649866626 456.5312364478721 L 401.16519141039475 469.31005730595007 L 684.8111183453619 333.6370981523879 L 427.5420839448025 458.34630433314595 L 633.0899483114378 221.64374763719053 L 445.4498639014219 438.7140923604642 L 539.4784906952387 140.64740138934854 L 452.7132593273691 415.2328289466426 L 420.4238212850563 105.32715818434292 L 449.51224777277474 392.87548817013726 L 297.0364122416427 122.27100750681427 L 438.090561402266 375.7386778573751 L 191.32514997460873 188.74343569386045 L 422.0593311663386 366.2886511819957 L 122.24912584814416 293.12577303617553 L 405.4728118503953 365.0226091297106 L 102.2984164356252 416.9586477165823 L 391.8912082319968 370.58827342681633 L 135.22381038113565 538.2254164721537 L 383.6363175351955 380.30369514731933 L 215.3301963984481 635.289169742836 L 381.39272288803943 390.93510887697147 L 328.4669734436003 690.7753157711938 L 384.2233860137868 399.54068506234347 L 454.5422806809601 694.6991721585415 L 389.97265201008463 404.1819261475293 L 571.1117448141149 646.2725040265001 L 395.9429371231133 404.3422987689024 L 657.3970898294417 554.0604430424175 L 399.6723811925113 400.9652041386651 L 698.0110417444328 434.4577704977535 L 399.62187892017226 396.1139900307427 L 685.7170377553448 308.7571924263168 L 395.604693768816 392.34515942411866 L 622.7260279073975 199.3368249548177 L 388.8543428528502 391.9526703387773 L 520.2966799825363 125.65336793098976 L 381.712500926278 396.27153900021494 L 396.7116601385272 100.76242655885375 L 377.0090846898764 405.21612892766126 L 273.9957478887699 128.99181232675193 L 377.28124954955143 417.17522886400013 L 173.96817578753297 205.18485192504772 L 384.01992785629193 429.3038563941161 L 114.34071762311993 315.6467656901824 L 397.13193224455676 438.1586657432367 L 105.56324615098009 440.6196755526033 L 414.7618919045381 440.5404977336725 L 148.98178948762524 557.8365834091796 L 433.5401648257654 434.35281143901267 L 236.63564657874957 646.5115449267686 L 449.2268390495819 419.27144676246405 L 352.72342103490047 691.047009899657 L 457.62874948862475 397.05360617939965 L 476.46688691732135 683.7933152264819 L 455.5967694584128 371.3865062410393 L 585.8509690407766 626.3692842084013 L 441.8806690550696 347.2743760184952 L 661.5629929104969 529.3147374519066 L 417.63669060647567 330.06591828847 L 690.4223625921029 410.1475699849889 L 386.446796960089 324.3107386631668 L 667.6880754328084 290.18499013957234 L 353.80652847360085 332.6831805073226 L 597.83777298526 190.70865896716523 L 326.151071834646 355.21310949756366 L 493.6902745325261 129.1673745948737 L 309.5931454622063 389.01296624946445 L 374.04284231557693 116.0987291107898 L 308.61918528239767 428.59706356033587 L 260.2604214364808 153.3159875461009 L 325.01522475318416 466.77023818015226 L 172.43887860023787 233.67376704398984 L 357.2632662279355 495.9422228193808 L 125.83506316192046 342.4388967735696 L 400.56650346721807 509.6265133678338 L 128.20154183108224 460.00361720911576 L 447.54200498547226 503.8293799006961 L 178.49427253687065 565.4394248727765 L 489.48521875107815 478.03908998486077 L 267.1691491393086 640.2441311570601 L 517.9886625951781 435.58925198534115 L 377.9948403506636 671.607485872858 L 526.6128197912448 383.28330484005494 L 491.03731490559477 654.6156274852661 L 512.2794149316732 330.3090267367256 L 586.2649660159931 593.0130488716189 L 476.0941520267496 286.61529597111206 L 647.1189198613934 498.4055076223881 L 423.4032495737352 261.03955811433696 L 663.408532026644 388.06956409464834 L 363.0290530338332 259.5391191079759 L 633.0228586187771 281.7828334624415 L 305.78860803028823 283.87734539513656 L 562.1697443548176 198.25905234282374 L 262.5447472028569 331.04458016848815 L 464.1237819165512 151.83400621449562 L 242.1427265577919 393.5641309253281 L 356.73317308545427 149.99262924500425 L 249.62464910976408 460.66898978239226 L 259.15475447672554 192.16610185431801 L 285.0785018383155 520.1657574443597 L 188.4171874955356 269.9915130676485 L 343.3724754971548 560.6613432493907 L 156.43231898487332 368.95971573759675 L 414.866142364328 573.7439016417239 L 167.98227664885087 471.1283338430903 L 487.0067828847672 555.7006371928368 L 220.02375114961376 558.3912765361812 L 546.546145982034 508.4261344136715 L 302.406641742464 615.7060982955045 L 581.9838915724079 439.3150391576911 L 399.8472635072785 633.7006415173491 L 585.7852721940757 360.11783083896773 L 494.7735563609432 610.2047923862001 L 555.9459997510671 284.9342486768155 L 570.5109806226358 550.4571552064359 L 496.5847725751594 227.68863236152478 L 614.2285244330171 465.98126232018035 L 417.41588352316836 199.54177632032514 L 619.1212996829763 372.36618395297967 L 332.1601083464211 206.7219341592287 L 585.4568254004221 286.37847190604936 L 256.15371330010805 249.19538023683805 L 520.3267318470183 222.94239664332883 L 203.5745960465162 320.45340014685695 L 436.1836624836355 192.53530552945733 L 184.78989407654313 408.49239777199415 L 348.4606494280124 199.45526388126967 L 204.32256325342587 497.84306829827017 L 272.7280311059632 241.24776935640878 L 259.834065222335 572.3042839247469 L 221.91379256518903 309.3604135668531 L 342.342646490329 617.8957195966051 L 204.08638777445483 390.8699572984498 L 437.6729833764148 625.4885115714746 L 221.18218495230002 470.936588530519 L 528.9039192338007 592.617971941712 L 268.87654851984183 535.5188960578882 L 599.389375011577 524.1207840572044 L 337.5836567216489 573.8505763292455 L 635.8100423268472 431.44766590774225 L 414.3655696536845 580.2394726179795 L 630.6939192962236 330.74399302863776 L 485.3730798706571 554.8875347961786 L 583.9280999007945 240.02107415225387 L 538.3570994302149 503.6189246628498 L 502.9591715968545 175.9165414710278 L 564.7928464403453 436.60647748761653 L 401.6146060534773 150.62973841928425 L 561.2464347319338 366.36620564308316 L 297.73028613014264 169.59889645589703 L 529.7657637519092 305.4131563155362 L 209.99326445807654 230.36258361764493 L 477.264517677367 264.0187530375989 L 154.56188775830918 322.8392751936989 L 414.05382109113896 248.47374830861455 L 142.0777986000349 431.0029093636554 L 351.826265372996 260.1516949452903 L 175.6244216180865 535.67540302387 L 301.4850046550723 295.5083435273507 L 250.02334480056854 617.946783495469 L 271.22234251878854 346.974140778306 L 352.6218053699865 662.6095171755694 L 265.1883830763321 404.5339955255691 L 465.4539375985515 660.980174430644 L 282.9657547241902 457.6705879524734 L 568.40487605658 612.5830889140103 L 319.9068705489335 497.2950474590693 L 642.8172167109465 525.3703011355285 L 368.2270560988401 517.3090462385028 L 674.8896123220613 414.41459798754266 L 418.6110480794572 515.5284655246012 L 658.2454148220245 299.2905256223679 L 462.00638862958414 493.8317645927168 L 595.1917990731467 200.600977153377 L 491.2588406152064 457.5488102892515 L 496.4221118815427 136.2692690293647 L 502.2928064152064 414.24830861349517 L 379.19483650980027 118.26766286497974 L 494.641804054685 372.18736458846087 L 264.3006804403602 150.3822879632364 L 471.26835584547126 338.73650886153 L 172.35386867728445 227.43290782078915 L 437.75185646450717 319.080669835663 L 120.07299240309004 336.1059242407967 L 401.03994693186786 315.4263733003073 L 117.22600119772073 457.2671719138649 L 368.03190455249944 326.8341949914976 L 164.80018337989196 569.3504956712673 L 344.2793302616454 349.6668156719715 L 254.7408286628265 652.2185190303429 L 333.049282778886 378.5230289012713 L 371.3204274050823 690.800561312619 L 334.90854734314144 407.4400461291149 L 493.90464770734144 677.8470164115237 L 347.8742775704888 431.1064523241266 L 600.6258139808341 615.2944537516722 L 368.0597639909087 445.8419804806519" stroke-opacity="1" stroke-linecap="round" stroke-miterlimit="10"/></g></svg>