<svg version="1.1" xmlns="http://www.w3.org/2000/svg" xmlns:xlink="http://www.w3.org/1999/xlink" width="800" height="800" viewBox="0 0 800 800"><defs/><g/><g transform="scale(1,1) scale(1,1)"><g transform="scale(1,1)"><rect fill="rgb(0,0,0)" stroke="none" x="0" y="0" width="800" height="800" fill-opacity="1"/></g><path fill="none" stroke="rgb(255,255,255)" paint-order="fill stroke markers" d=" M 400 400 L 230.71767861134632 282.15620445513287 L 296.00807804238747 119.07737565112649 L 457.3963886017647 178.53807087835818 L 424.81986453592054 378.7064437744558 L 219.6376274666647 418.26919436288705 L 141.27661855387703 256.2365972281523 L 290.65456070934994 176.7725136835303 L 409.8856086593647 335.7410840483807 L 293.717294710638 511.6505086952316 L 116.98280567340822 457.9288819537818 L 156.20108379632273 295.12706110135923 L 349.0047458597897 318.0129086598582 L 393.53179433960474 525.0079081207995 L 229.38088020800683 619.9195709106907 L 133.63570703945567 483.22628406614 L 278.93005789627233 361.8461556035976 L 457.8718457411229 474.97174039286955 L 413.020952184817 664.1654530313255 L 246.54821684998618 645.3706606053186 L 256.7171014588118 461.2200500332129 L 461.80223432083665 412.8074140797277 L 570.1912021841424 579.6643696068418 L 444.3356583955698 692.9576839426959 L 319.17183979263115 563.9934937786543 L 426.93202101668055 385.1209034648972 L 626.3012161229485 423.4815899562716 L 626.9476212327797 595.6692211430423 L 451.6085515662938 601.1538195756843 L 399.3205389624067 401.82179313896074 L 568.4056620358341 283.37679062248003 L 699.4394133476543 400.73220069699715 L 588.4693532977149 531.8859623376729 L 411.9441321573657 432.5096964373134 L 445.5168103161697 226.12677209204816 L 624.8646810429887 208.03576033508838 L 648.4430282246597 375.4483900711545 L 458.40897528297364 432.64297194822785 L 333.26043408557973 262.9043602243541 L 444.5414937433655 115.10640860148953 L 584.0794301950742 207.56807085621827 L 496.44093594050366 380.50573276991094 L 286.75742116654135 350.95889898873196 L 253.9526245171774 163.9085773259281 L 415.1398488369894 120.63847619430703 L 479.1379344788901 298.50852415024343 L 311.2957743115702 427.4779919099724 L 148.81848412156904 320.16722469716274 L 223.41402306428947 170.0765017669065 L 392.6320921883767 242.70056152128802 L 367.41581657223577 451.8200863660416 L 173.20581990742585 496.24654108335795 L 109.72658039690913 339.1053505693202 L 273.5360165333895 265.84124505874036 L 404.24483885655656 428.5199016658332 L 299.48315958610056 602.6887954991597 L 137.28350662365835 544.305270128425 L 192.10227475356808 377.91403987645 L 397.06105906388837 397.4535552029655 L 450.07074567573943 597.1614730255423 L 294.7189979802568 680.1884399043138 L 209.54438945770733 531.2052112640422 L 363.4353755356646 399.82118049659135 L 545.7291888468615 502.5092520581994 L 501.1680384181703 677.4544743843937 L 335.91123025410536 642.3968278456298 L 347.56052983438315 444.5457221810196 L 550.1046053197592 385.53691543129736 L 650.8945893287627 541.023450667832 L 516.3611484606776 640.5203770318107 L 384.27618233291435 498.9851411910545 L 484.29187551862304 312.3136853526417 L 671.5147891288707 345.8075593408077 L 657.0966453741639 512.0862410504374 L 468.3571856868028 511.1084661248303 L 405.14731627530915 309.1338106972641 L 561.9986686426395 193.28705747155428 L 677.6080868890822 314.7484731386898 L 551.5300911217939 448.56893389893924 L 363.9899270778274 352.8750497287096 L 389.1238251244783 154.98421774642813 L 558.6442802517533 149.0646487530568 L 571.3033786098432 327.7963577036897 L 373.6885306758288 394.4130772894369 L 246.09205577371492 235.92548705802284 L 356.58774016365106 103.34513725512664 L 493.9639269563319 211.68323712315404 L 405.11919477896504 397.20439427644726 L 199.19632784325447 378.17099142122925 L 174.3701193119078 203.53506980677838 L 343.3204799463222 174.50566375639784 L 413.6279912341486 363.99889974322 L 254.32191186866984 499.83350580273054 L 105.03263731433475 397.83616909527626 L 194.41335463031746 254.632895817329 L 375.94411359833185 333.5218319259927 L 361.5317366253274 544.0683708893547 L 180.61595350563036 585.4383909563722 L 133.10613394200868 425.0576005900252 L 311.15648358581524 349.77634454746953 L 451.93115093437746 508.0154610767416 L 356.01538878802114 672.5898781643891 L 204.66254626338758 602.2116911581556 L 270.2937607052157 425.55881564027 L 481.6405338188576 435.83059299265835 L 536.5770487048497 623.2148608412583 L 382.8384537690701 690.3783658416206 L 300.5231329179917 526.2967930147628 L 454.9130910977976 383.28339719669566 L 632.2991070381141 475.0841645547152 L 579.8425911198699 636.549559709186 L 407.8534962092206 587.2559569709153 L 413.3900802126343 378.93447894369984 L 606.3225722399902 313.62944348356996 L 693.1833977122129 463.0035690781835 L 544.5512351594272 554.8568726512675 L 401.1072226759634 407.6974615730288 L 489.9766195563317 220.77269015912458 L 662.7931243528894 257.32110229450814 L 632.3010461106097 425.82792875974576 L 430.41967800069915 426.61868506065355 L 357.7479226849839 230.1482768689263 L 504.9751127251182 124.72184264739946 L 608.9136900110229 257.5805007312411 L 472.58142316723087 400.7099367032339 L 279.8348533982337 314.5916000360404 L 303.1076861833297 130.17898430159465 L 470.01384738886264 140.3386484698671 L 479.5012647367097 333.13270352149783 L 282.4246147919688 410.7487165256139 L 160.6318520899904 263.9106370897707 L 278.50738337802306 145.70806014172985 L 421.66010838202317 267.8198526083795 L 339.1935354438194 462.63909728308045 L 144.0696213169785 449.7816806455844 L 133.4960732057637 282.2580954909052 L 315.57609308774767 261.26079718085543 L 396.5906865804759 455.38666467775533 L 249.1772795582338 590.5257011207935 L 115.26783142925444 485.91776409452547 L 220.3653902971016 341.45263306000004 L 413.8890548874456 418.3614919866379 L 408.7747227186304 622.1976864428726 L 238.48906487232261 652.7248424824528 L 203.12551888966593 481.8502169140833 L 390.5017295654566 397.9345608173988 L 535.498650416393 545.8723419749454 L 441.8280600906246 695.9233453624652 L 294.0755938886456 609.7137433140713 L 362.7346636406209 420.1147310170527 L 572.3357186157214 419.5875304790511 L 620.9597522713132 594.3064948208932 L 460.6848009892295 646.5222059782446 L 373.29529992338246 469.5171664185121 L 520.6113940217837 318.2087253952862 L 686.0904758442191 403.49796414566754 L 619.5212595897476 556.8359608774274 L 435.48154110862407 499.5720595147227 L 430.54536952605645 287.8080780674618 L 610.5603556415593 223.77820609370065 L 681.3736734370889 374.97049989043626 L 517.7856842986835 467.3470192134721 L 363.3573684818939 322.819981016532 L 442.63276663419776 143.7626670710073 L 603.7678644267542 191.1152485262219 L 561.0964584130911 369.07333959461164 L 351.0435717136318 378.22773276928797 L 274.78386563272505 193.08667511379647 L 419.0142736368059 102.94673178136082 L 518.5673261091555 250.9709559614728 L 379.8003950095922 406.0413684388231 L 189.98874428204763 330.98360090584856 L 219.6258689525211 160.32747123218905 L 392.0572191085423 185.57247575574954 L 406.30478143978837 390.18753067748344 L 217.32248179483668 475.42448788092963 L 108.28745037466427 335.8184353294008 L 239.7054945829448 226.5849843533105 L 393.9111286700694 356.1492336507965 L 322.1451072947239 553.2084159648282 L 141.06876776152006 538.9469129738343 L 146.78980544279665 370.5930135679316 L 342.7872670920666 349.43993258075136 L 434.0842492445826 539.9351331089454 L 296.9616038242876 666.2806540285752 L 175.6399144265432 551.3477148759068 L 292.4891700268115 398.42255241951744 L 492.98689583238496 466.77809858481953 L 491.26865488918475 658.1221986648897 L 324.95370499264504 673.0065934539386 L 294.4083234351436 487.93344645371394 L 483.26025395201174 392.79876975697533 L 624.3369303347995 528.9993719534123 L 524.6989852520129 664.3185218190359 L 372.41129125933907 563.3493036864014 L 436.1674040413187 363.105303155488 L 636.4898905035514 355.198911902927 L 671.8965462064696 521.7170709154707 L 498.9728843386689 564.4541936000169 L 401.26958916657344 380.8984617890309 L 537.2298005598559 228.37684877002434 L 687.6173375939258 314.74404490143195 L 604.9702133975734 467.91552853500946 L 408.1550068213066 410.89131156120806 L 393.21790308604886 203.94838717142798 L 561.9721282157166 149.2643681701965 L 619.6018645482012 309.9579530371747 L 445.09020004398303 410.0362422340609 L 284.73829152010984 274.6904950009951 L 360.3500622788098 109.23211401412851 L 516.5014179871855 172.12159765981755 L 469.0230979911417 363.1781230293334 L 258.67310080282823 383.23642738630883 L 186.96434236551534 210.8062597996143 L 336.4012504184005 136.08617137879696 L 439.7059801523947 298.1292349189 L 306.4320754393509 462.78622540822766 L 127.05783475398823 395.3276927130012 L 169.91358092970825 233.91025278545519 L 353.9380021460438 268.7088015264958 L 378.1518215892323 478.7265026009104 L 201.50051913508727 564.4838407925314 L 108.33814364353583 424.5076463419854 L 255.18959467201907 316.2585356386747 L 421.1165550230884 445.0448646963471 L 359.53228710620994 636.0872680698378 L 190.78557854237636 612.3801862864684 L 209.8628310887382 435.53854843054876 L 415.6841539542788 407.0672480021285 L 512.1661659073817 587.4119967605778 L 379.37249609380353 699.2888563097467 L 263.89676129967097 569.3635119840756 L 385.0822140929706 404.38229816187237 L 584.6623866134595 461.6881881811703 L 578.2073043212201 639.2193890123311 L 407.6636688503055 638.4058853310862 L 373.79386245858495 440.35073158280306 L 556.2015064695901 336.39934126405666 L 685.892172461058 464.3684030121016 L 573.4818166539017 589.5329374198718 L 410.6292212769962 479.39781267014325 L 464.3090736018712 274.96583239913446 L 651.1681749364179 266.7967843115434 L 670.3159153541521 432.73416116404303 L 482.9222909311125 474.00550391397184 L 374.28780782243604 292.1456218220969 L 499.46044131915687 146.65411818256885 L 636.5419798453906 242.1123665081002 L 540.8296726998747 402.755242746235 L 335.38727841329523 353.1180374706722 L 315.58024335340855 157.48039534887573 L 479.07193157835104 117.75683370215427 L 530.3085290944458 292.55798107645285 L 352.3279601247126 403.88839875288045 L 193.95455447001234 280.17405483982367 L 274.0300282454306 129.56802697431505 L 433.39927584422804 207.97080415246754 L 389.2633916353872 410.8458955755858 L 186.5222894890314 439.3611368571945 L 126.7888587761957 276.08701712787155 L 288.19179167301763 212.14519519325663 L 401.2452206636774 382.5548016822371 L 278.6027980141731 550.3094768905928 L 113.79209618900626 483.3176857238509 L 172.83348773637204 323.4949434825449 L 370.20871242340365 359.80440972328876 L 404.9586032873789 566.9681689845484 L 240.01570506289914 645.021074453711 L 160.86750455929916 496.6867179892155 L 320.068064560835 381.7979124739 L 493.52006704353875 502.6758332404444 L 436.9532412838871 681.259795558236 L 274.49536925196816 642.5547771327485 L 300.0874843541777 452.67446289406723 L 508.24445797655125 413.3766093201032 L 602.0042424238738 581.1716722724751 L 465.41486934973886 677.3995812529951 L 347.57544148730005 532.5819852838322 L 464.94233938191405 356.88130039758585 L 655.7200236366534 405.6285648447591 L 637.1473393558181 572.9570821256568 L 455.65554034449497 561.1544080790472 L 412.4930980151242 355.82266842109414 L 583.3573220799594 249.56981975791032 L 697.600662929026 376.4584218308944 L 569.5237748058423 499.1422385437414 L 394.4055565325761 387.912733846865 L 437.4860445743072 187.55236278139319 L 611.5648500460835 187.32430830804685 L 616.3884219371573 360.64904736770177 L 417.6756791982207 408.06884918769526 L 302.3486231966971 235.01422264121277 L 421.9336494857344 102.94547901675242 L 551.7986878934857 212.98592809372104 L 449.913047147776 385.6021627806616 L 243.3581884020047 346.8194057697744 L 226.59055811393014 164.82917693682404 L 392.9466893342418 141.16935789238852 L 446.01215881418983 329.905914582369 L 272.71890117107023 451.1008948265494 L 124.18116936975355 336.4807679871842 L 216.0579888056901 197.05515360458253 L 385.3307812693112 286.19520928945894 L 350.4781416355169 495.13704289006296 L 160.3995495699408 525.5710002402212 L 116.63355809795922 364.2785128079692 L 292.82777887273147 303.40648525186566 L 417.2793829989429 474.08576289978885 L 305.7429758388527 636.6823822386914 L 154.74565950089016 561.9748252781015 L 227.9609412401425 395.7924049420644 L 435.4760222080045 426.00661661187354 L 476.48468386939663 623.2342124247712 L 318.0099831965476 687.243901398907 L 246.7327285875165 525.1178965482825 L 411.34314505766923 399.1306100281582 L 584.7858661403585 508.675191572602 L 525.3254659695323 672.5224470904461 L 361.02112207609184 617.7945603544149 L 384.8916251142452 415.1136088722943 L 587.2324970778574 366.42390755524025 L 670.4458987840729 524.2570527923506 L 522.7632203667198 608.5750848338231 L 395.9024421158547 453.7059723639555 L 503.53870222205194 273.0771549138333 L 680.5127113522619 319.8262258456662 L 645.9014592082736 484.15579421824094 L 450.6993357042903 469.1095226606846 L 396.6420074076049 264.6177497856258 L 555.541124749021 164.3097696743833 L 655.1601562853934 298.2819271455536 L 513.503507365531 426.43152592060574 L 329.3839256619679 321.70475899895905 L 366.17997858311844 132.46404566302328 L 532.7649013991813 146.45940547942925 L 529.4642649564389 332.5527271873334 L 326.4137445939664 390.54078350322635 L 211.942247779943 229.66973343278045 L 333.8546396486141 113.23198272994034 L 464.65280640045603 238.80260403663627 L 364.8441818574543 423.0949112935284 L 165.3171639106692 393.6860800097139 L 159.37708715004572 222.6989431160152 L 335.8602774924586 211.2931503829092 L 397.38865485238125 409.06455083361783 L 234.66217690829941 534.2991760299132 L 100.9023847667741 422.18867144030025 L 208.4311666884354 286.70428947562766 L 390.3130203598588 378.7990742462844 L 366.3002204793992 585.678302606947 L 189.24701206058833 609.7974752042242 L 160.54855094007817 442.33634994965814 L 349.37667808727883 376.59090107879547 L 481.91489502976447 539.9553973658067 L 377.1302762947962 690.3868374174193 L 234.6074335773172 601.7372306166496 L 315.7395139593864 423.8599084081115 L 526.3777191254885 443.59623564494007 L 566.0869670997838 627.5618899944526 L 406.1570526836646 675.3947039883925 L 334.58194446787127 498.6021513491969" stroke-opacity="1" stroke-linecap="round" stroke-miterlimit="10"/></g></svg>