<svg version="1.1" xmlns="http://www.w3.org/2000/svg" xmlns:xlink="http://www.w3.org/1999/xlink" width="800" height="800" viewBox="0 0 800 800"><defs/><g/><g transform="scale(1,1) scale(1,1)"><g transform="scale(1,1)"><rect fill="rgb(0,0,0)" stroke="none" x="0" y="0" width="800" height="800" fill-opacity="1"/></g><path fill="none" stroke="rgb(255,255,255)" paint-order="fill stroke markers" d=" M 400 400 L 460.4384702464131 686.0154624949182 L 520.1195475575514 346.8618583627859 L 536.4636915338838 589.2446100923271 L 558.8695241635228 225.2392646463139 L 509.7745563847484 464.25311584205633 L 492.63564049796173 121.68092857621122 L 395.42850319320956 399.48094281613197 L 372.3163520685556 110.05519041405279 L 270.7196926238791 440.47871762560544 L 287.18715647451546 199.11379375748473 L 220.31664197259485 557.5740058967089 L 301.5228097808781 326.2787524908616 L 276.165117340251 666.9351794840566 L 408.96645078681195 402.0627309774507 L 394.8164571380552 690.0806011453361 L 537.036905979153 373.59094808889466 L 488.27490329459016 609.5902845694084 L 598.5746530265898 262.13332023846453 L 486.4668276609283 481.4728759698033 L 553.6073197504463 148.0044981522649 L 386.9878081035292 395.4092024274179 L 437.7192450974263 113.55057063440887 L 256.81437985219713 411.09366654840994 L 336.7868586635836 184.6935615824782 L 184.76536165310563 515.8618093887842 L 326.0140807216007 312.5286031793124 L 218.45827434776854 633.6822887884525 L 416.5437226809339 408.0371106215718 L 330.5125923529847 679.1302773394125 L 547.5430125736453 405.2746706499149 L 437.9905833473756 618.0290372446418 L 629.3813743565214 308.17946304085194 L 461.2755694516875 491.7129961520478 L 607.2505420559212 187.77406685897014 L 380.59262658561465 387.6890757836456 L 500.0660137340892 131.74696445225453 L 250.05026382479156 377.5224468612833 L 387.03549326353647 182.20352486810603 L 159.23553272458716 466.0387601373289 L 351.42877286185274 305.7741925374579 L 169.62443133768636 587.9018557676902 L 421.4642434428182 417.29871132306187 L 270.9469350109873 653.9962738507454 L 550.2739933483894 440.2740439843127 L 388.4811118755835 614.6897446967196 L 649.1693583025009 361.15678609516203 L 436.09855974462704 495.06851378349745 L 650.5932395483478 238.97328616828756 L 377.4066366207639 377.133555360176 L 556.072231797278 163.41569348400432 L 251.585414773493 341.5957609953326 L 435.1295494625682 191.16963253822107 L 145.57888500314712 410.5870238905985 L 375.9304195807884 305.67157305574983 L 132.38059524359153 531.9539872161222 L 422.6945177382879 428.862298398166 L 219.2219138466813 616.2835985559069 L 544.3034923584007 476.59322989542824 L 342.4416890217671 600.3777217771276 L 656.3876600241298 418.35520449206376 L 412.6790940213044 492.1190847079625 L 681.213543591303 298.93099188144663 L 378.3093263876172 364.88027809682745 L 602.8608400578671 206.60142841051342 L 262.0920644074323 305.4445948903425 L 478.52122269592803 210.47418130778092 L 145.0176192146393 352.40731113186024 L 397.898479113135 311.42258545210194 L 108.81765530442487 468.78350754896695 L 419.5299679745722 441.4608287354972 L 177.94947949969884 568.2668764371324 L 529.2318742599184 511.99901983292744 L 302.2365882630261 576.4995845836513 L 650.1660728132454 476.724085630648 L 392.48815038421066 483.8605199831761 L 697.3825975873208 364.4702399838234 L 383.81278596917895 352.2999603559148 L 638.120521120782 258.7457924374351 L 281.6830921552457 271.3690389211064 L 515.0624172199053 238.4492832690226 L 158.05181999496673 294.65666607095346 L 416.0351317182839 321.85784846539514 L 100.2766491663196 401.7544139910884 L 411.6648955962746 453.6479123410751 L 149.10951939872436 512.7487411698756 L 505.24255707507814 544.1616298204899 L 269.7690473973422 544.9531842812606 L 630.3873055981223 533.0456389911201 L 376.63039326069213 471.6089293936169 L 698.1673032338972 432.0878993210982 L 394.0063724063077 340.88491224200203 L 660.2284485307609 316.8447158546574 L 309.874089412682 241.69014075784756 L 543.1190585785582 273.0015479396393 L 184.40902088196796 240.56649702902817 L 429.44495134254606 335.54361126318696 L 107.26859387797418 334.4589171393139 L 399.2320703094054 463.9162799030388 L 133.94768924578904 452.88922502126786 L 473.1206338632166 570.8077867087816 L 246.38438003917864 507.99050839656036 L 597.7146761527991 584.122710080758 L 365.7800858676112 456.8849212117736 L 683.4866669861628 498.15411819253075 L 408.5337051731001 332.1257646912811 L 668.3304578670762 377.62961932483995 L 345.5846521820497 218.59440307469143 L 561.649230665726 311.7592195293122 L 223.03990044624967 193.25182719313693 L 437.68243403940085 350.9043125827668 L 129.44284315182176 270.51246095593945 L 382.80860692546395 470.82358821380313 L 132.91830762937917 392.01683352680044 L 434.2313950646483 589.8760550193326 L 232.81159824460974 468.0630216648241 L 553.5727423357324 626.9695475366378 L 360.150796102836 441.2865751936665 L 654.1182360623657 559.11973640938 L 426.6041534930331 327.38546092899185 L 662.374381866882 437.76114645318944 L 387.1799776859729 203.98124908967478 L 570.2411183473546 352.2317450587489 L 272.16123603157894 155.52346908615317 L 440.7646924536801 366.35172277307237 L 165.605974819353 213.3469997086149 L 363.38718913235346 473.1162866977589 L 145.67512263836028 333.43299745788187 L 390.4590174093125 599.6639802867577 L 229.14623814127518 427.65985446022813 L 500.08122272606465 658.9937526566357 L 359.5003523724592 426.36055888018177 L 611.6541591067703 611.719207197908 L 447.03851465816524 327.7798516475001 L 643.095227065727 494.02352587119276 L 432.5511510180619 199.3238072504788 L 569.1094243576715 391.97115551989805 L 329.34428287972355 129.714813653475 L 439.14911294496187 380.41121664818684 L 213.79012625968176 166.0149320348294 L 342.31418194468836 469.84230714555986 L 171.10977312997397 280.22186039352306 L 344.10836547831576 598.9569441132915 L 234.87434842988412 389.14949013402304 L 439.9454990108806 678.1580067442374 L 363.1700023737288 413.48075628287506 L 558.4094845198575 653.1568572682592 L 468.3461227558192 334.0738675871779 L 611.953858739457 543.5077545458513 L 479.229881796744 205.55270261471523 L 559.0516601824597 428.7247509725601 L 391.6438703830275 117.53416959860215 L 433.67824857993804 391.8360541079836 L 271.36667444674606 131.01544581564633 L 321.1985690756766 460.4440258783252 L 207.43482252673616 235.07687475104026 L 297.7753799160537 587.1296254485304 L 248.934916665068 354.6351458504047 L 376.3097571930985 683.1112855873762 L 370.154320518761 403.7431277092797 L 497.2882262253595 681.2653322752608 L 488.8283395424766 346.60124550639114 L 571.0337144689177 583.7726441736411 L 524.5310637210473 222.9712221679544 L 541.3683055029835 460.569375533433 L 455.76089853071807 119.95213230428266 L 425.4965180373969 399.70150486759115 L 335.19839082804475 110.15365229425265 L 301.79779248315947 444.82423962821895 L 252.30552582320618 200.15447941028992 L 254.1937319957236 564.2125839932737 L 269.8155458329599 325.8329233628039 L 312.5812349737604 673.2810471777777 L 379.19626262192213 397.88426848146906 L 431.61529919215997 694.6267847548893 L 506.70142227717486 365.21421834414593 L 522.9026047376523 612.9743011277448 L 565.7145432955119 251.2083238771081 L 517.753120717477 486.01898893418297 L 518.228745021661 137.1313915031892 L 415.94524117643095 403.4721738747294 L 401.8208630457452 104.44087046279412 L 285.8883097986842 423.379708766538 L 302.9721712329794 176.96330047030932 L 216.0671575428799 530.918625426435 L 295.67411318091405 303.9801083152554 L 252.2359419670296 648.9202104291663 L 388.900025472453 396.22937175723524 L 364.9444941635462 692.6496546480942 L 520.2302741071542 389.2675511205192 L 470.4487233217237 629.9567143228154 L 600.1560342454255 289.2136030386198 L 490.16173493377073 504.09918640610283 L 575.6124988105935 168.40382993026103 L 406.4440337806802 403.0378578283626 L 467.6422118360774 114.04189040658758 L 275.1298987175731 396.99903366032515 L 356.45306028165635 166.29497543753283 L 185.8980237195078 488.6261392483779 L 324.47757717114433 289.7788382263717 L 198.6174830055452 611.1054849373821 L 397.8531516315013 398.67315010678624 L 300.8540937192538 675.5966240691444 L 527.8636670701916 417.6389463154699 L 416.7014540452899 634.2986652903451 L 625.5163035998536 335.29566417856313 L 460.66790167199196 514.3846531541176 L 624.7090246296567 212.2968805689134 L 398.36750627014754 398.7155529605848 L 529.149052027958 138.27215677579875 L 270.93333811288596 367.0240935690332 L 409.7170620702738 168.20000424523158 L 165.823147404653 439.3193564823423 L 354.1481442542583 283.3778887642052 L 154.7411579720614 561.6865933709481 L 404.7487079601113 404.6948814180139 L 242.74244133438455 644.562325784488 L 528.3612536655219 448.7853147544786 L 364.64833641340965 626.3149845468897 L 639.8976452461252 387.2025439195649 L 431.3174389334869 516.9981041559088 L 662.7356977081321 266.60807871319196 L 392.92650244181976 391.21768114327654 L 583.1063176133348 175.64475285048943 L 274.34103696530224 335.17682630902624 L 459.8642642898727 182.00915354985818 L 157.46763506076553 385.4882779987655 L 382.7067210018899 284.3927130195682 L 123.11529526903308 503.1889613149327 L 408.49840032315564 413.40628244265315 L 193.63571881549115 601.4024601203648 L 520.9030749782178 480.83188160330417 L 317.059598236063 607.0130758131864 L 641.9772627044174 442.2400719733681 L 403.9898153648137 512.5718811969898 L 687.4962435641444 328.5237581298516 L 391.0627560736974 381.58903631380497 L 626.7390108832531 223.96402438593285 L 285.92946184454917 303.45558768755495 L 504.29356428479866 206.39806953792387 L 161.8265587279783 329.9936917964248 L 408.403970272789 291.96128510644405 L 105.59080945610731 438.67534252433364 L 408.3281629402089 423.62854787793077 L 156.01937133795664 548.6189344111551 L 505.17331140509094 511.68874425647675 L 276.33098348167516 578.0084284504782 L 631.1084738576728 497.42152466853884 L 380.27662143978 502.17588139676434 L 697.513440906507 394.77508738922484 L 393.3648613236931 371.117208142682 L 657.8851143282443 280.459851458572 L 305.74087396406514 274.00753392457585 L 540.8470695422528 239.49007284976045 L 179.1826751734545 275.9050533817021 L 429.8303285372755 304.8309198102125 L 103.24831390996559 371.57441687436204 L 403.84903150436025 433.99278751398845 L 131.70309739770892 489.2082972110072 L 481.4116422038801 539.1874815867305 L 244.3542498281383 541.4053602143913 L 607.3825502510682 549.639785974842 L 361.3848297352306 487.21770886463224 L 692.1204163837566 461.8222980962997 L 400.01191553242245 361.22315916048734 L 675.1107443428175 341.95413287226495 L 333.250012188739 248.98526540693788 L 567.9228346852245 278.9897872944164 L 209.06623234729912 226.32089041723827 L 445.99794857578263 321.4692214428146 L 116.32986814552049 305.48648004291255 L 395.0978865327629 443.05639407566775 L 121.72719202707191 426.4829306055402 L 450.4276787763341 561.2288727678836 L 222.42277735385736 499.65131809967056 L 571.646395749173 595.8516284696041 L 348.0708976856495 469.322727767498 L 671.50475661596 526.0561710612562 L 410.74920643447626 353.3400824957827 L 677.7810090009169 405.0491431203677 L 367.3690699600928 230.397229965183 L 584.5496374409377 322.3384370908723 L 250.26032338133135 184.18268322069224 L 456.3895934350595 340.19078941531234 L 144.2197362597145 243.9778048066908 L 382.5448149262943 449.4266977284483 L 126.31543247943904 363.8760526085252 L 413.5763771130554 575.9318283739843 L 211.17734880707098 455.3745852889068 L 525.4740041578935 633.262771014264 L 340.6095296045654 450.2029351637921 L 636.702530244929 584.004734100403 L 424.89801672488136 348.78954912775464 L 666.0828055267598 466.32617342320884 L 406.49176183327654 219.962017127015 L 590.4200427181028 366.88044680650364 L 300.8524061330004 152.093776365417 L 460.9718801800779 359.29037321049634 L 185.47554656558802 190.37599955533707 L 367.06623458132776 451.8826919884608 L 144.876792411689 304.7424711620486 L 372.6949564302305 581.7733380077693 L 210.5944920442917 411.216105467371 L 471.09253965762565 659.5021298684132 L 338.7984470796742 431.5241871001017 L 589.542371244756 632.5327583644939 L 441.3991657015839 348.66420396726517 L 640.9987797090052 522.5423507638403 L 448.57462815101263 218.97663143127016 L 585.8807526718118 410.03046428433544 L 358.3296866194537 132.15474728107932 L 460.1727921994287 377.1728829762412 L 237.9081600484564 147.57867121592656 L 349.8853940239185 449.48569098901277 L 176.0552481096068 252.16716990040055 L 330.0044793877462 577.7096252218184 L 220.0169929686111 369.66629398642124 L 411.266771937953 672.7741785071943 L 341.99798732412853 414.78126583945925 L 532.5428324901735 669.0220438559403 L 458.8874694196046 353.7258699835822 L 604.2346798236464 570.8137701003245 L 491.25116109046326 228.20810765745028 L 571.8820106906344 449.43012471678304 L 419.71325496287903 125.82579622389761 L 454.8258743922223 392.4710374587372 L 298.70557045713923 117.88691665304492 L 332.484226179069 441.6704967422631 L 217.82398986239733 208.7931898228824 L 287.9817080846522 563.2697543295801 L 238.2234747430999 332.91715682922757 L 349.1482837153434 671.9795438315459 L 349.20192999166244 401.18957852544315 L 468.76908333098424 691.5216352506105 L 475.7920459366927 364.32689409800344 L 558.1051815509363 608.7740545830053 L 531.9720248309008 247.81646401466386 L 549.8904381433529 483.08476206115967 L 481.7233443916107 133.8251764856738 L 446.0858270348414 404.1424373771749 L 364.5934594090988 102.873666719744 L 316.49263865338264 428.30997031437613 L 267.61765897190776 176.67894464883895 L 249.2089726443959 538.6145925745674 L 263.5314720879682 302.73882746563237 L 288.09817744332423 656.7958217633768 L 359.13380811436673 391.6009808233327 L 401.6575164020996 698.858935003265 L 490.45547734363765 380.360985488417 L 505.3857594910836 634.699109282507 L 568.1627444482631 277.31506431536377 L 521.7719660601769 509.4717857695315 L 540.966021664756 156.070546971816 L 435.3221661082931 411.53941617078925 L 432.0227857003853 103.2947839578589 L 303.56301579421273 409.74772506908107 L 322.49396426689725 157.19316020082064 L 216.21142983270477 504.5561918351699 L 293.9263662342396 280.38784576748037 L 231.4937891029144 627.7129803911359 L 370.3612325451496 386.4494159941964" stroke-opacity="1" stroke-linecap="round" stroke-miterlimit="10"/></g></svg>