<svg version="1.1" xmlns="http://www.w3.org/2000/svg" xmlns:xlink="http://www.w3.org/1999/xlink" width="800" height="800" viewBox="0 0 800 800"><defs/><g/><g transform="scale(1,1) scale(1,1)"><g transform="scale(1,1)"><rect fill="rgb(0,0,0)" stroke="none" x="0" y="0" width="800" height="800" fill-opacity="1"/></g><path fill="none" stroke="rgb(255,255,255)" paint-order="fill stroke markers" d=" M 400 400 L 397.93202508423724 379.7140800777964 L 439.8508314131539 391.789780553514 L 418.243465770862 457.9945751564608 L 325.9419084739279 431.86812606541525 L 351.3230963061729 312.5575087389212 L 497.6263987417252 331.8334991702523 L 489.7520864872773 504.1810699449427 L 293.2171489755016 512.78410970457 L 263.4330246849742 294.77738021488335 L 499.41193891109856 239.62095372098125 L 583.493398471528 489.3857441830232 L 324.6985096375977 605.1987322200234 L 175.18015961731078 342.56522091018786 L 436.17159410905134 158.2629545214313 L 655.4040479636398 411.9973665007679 L 414.51681641099066 665.3636733410274 L 128.73893390907432 442.7304628376024 L 328.048077275218 127.14604832388306 L 670.0196720190492 298.5418951357754 L 530.5150991928006 662.7587924417742 L 148.804823547016 558.3991125724027 L 215.58288265671314 164.42747386675015 L 616.247487301044 192.0733798163663 L 628.3539840512566 593.6795172272417 L 231.58219442488448 645.2107775056777 L 141.8923176816478 258.9143761899446 L 512.3625521210312 133.2344396488616 L 671.0233622068699 482.9650938066129 L 346.3737666464656 670.8426507917817 L 133.69138992414435 374.9254752522165 L 398.0133100367376 142.37248979364256 L 645.1207018265524 373.10066441910743 L 449.0693567148366 629.2153120574618 L 189.56809074317854 467.9836307391994 L 316.77544449863274 210.6305093407022 L 566.6882238296422 305.5181067224786 L 501.5615312157992 543.0904373195579 L 280.69959383852154 504.39090700656516 L 296.97905577154785 303.956487585496 L 474.02537890802495 302.3755580079486 L 488.49096526590563 453.91157509248364 L 363.6915225187205 476.01838270007266 L 339.29870501969526 378.2541659738328 L 410.66153286008625 356.88331401226077 L 423.9072087448478 403.38901257095677 L 399.85232464694616 403.76258601021476 L 416.6003405052622 398.9634218049676 L 406.0315831790707 436.45833954411125 L 344.89729677416267 414.9860486843702 L 372.3649583405911 328.1402568819879 L 486.11028104761584 356.39704993211393 L 462.4142770233474 497.3075750962526 L 295.0068338664234 483.5073068083199 L 293.7497494547324 291.1898100770917 L 508.5137725723216 270.0405918836517 L 553.918825056279 503.97821081117127 L 304.7992691507378 577.400880232794 L 200.31278659081835 317.69828223027446 L 465.5214087035504 179.9106079763192 L 637.9687239990287 445.21314452357007 L 378.16662643268376 652.7546478987014 L 136.03882742940027 404.07130588406636 L 368.1203073456607 128.79910560749357 L 674.1961897503337 339.086326789401 L 490.4575481338146 672.7872614453054 L 133.06319198846126 519.7784400099395 L 251.85280280927472 143.26881815724374 L 642.378002791282 225.14080636124206 L 599.2544280501388 624.2002956249055 L 197.37268051352518 620.7363455552459 L 161.21115804399378 221.81764756493385 L 551.4677815313295 147.00903738535328 L 663.028874267939 523.1479262552024 L 306.06991190718526 668.7047663028351 L 130.05757385137292 335.45562996647493 L 435.72284501754217 133.21067111174852 L 659.4151812275011 408.1786710555375 L 417.4142477313976 648.1069617152198 L 166.73940034096753 440.4404705742229 L 339.6394511367321 184.6304683548276 L 595.010464176796 323.2736286198217 L 489.193885705123 572.82675112483 L 250.49013686688173 497.53283085567995 L 298.366798006698 274.2205191243149 L 502.3627835524909 298.49173817615053 L 497.2940124305722 479.9735271023063 L 340.7084873605976 489.2451428635525 L 322.272431043113 359.05696558301184 L 425.4828685019244 336.792220351739 L 446.23929572956627 413.37831912178876 L 395.00421941506835 427.44662983062545 L 392.49279184630586 399.4097995276045 L 400.29774652874534 412.8682270266245 L 367.0438285197163 404.13188772819365 L 388.01699799948386 347.9587203174342 L 469.43705142673457 376.37847811868784 L 438.70452780800423 484.50569051240757 L 303.3234346045342 456.78559983057977 L 322.6723550152991 294.53725819142807 L 510.47511269611016 300.2816678314365 L 523.2876915235659 511.43371976316314 L 291.8240584589486 547.3273731940815 L 228.8889872898453 299.3386871995143 L 488.9728368258395 206.0848815269344 L 615.0398818325738 473.31475271829095 L 345.9931783626438 633.8293124616439 L 150.30987890847805 368.52470420279803 L 406.24082924028056 137.89119238405686 L 670.6664640718923 378.9036771829869 L 449.87339145232994 675.0508675823821 L 124.93448388190649 479.3839780713295 L 291.10180680370064 129.36465233033107 L 661.8089786023661 262.31652781602384 L 565.0254706166884 648.7573968585077 L 168.23085258755808 590.248439820605 L 187.2655021179231 188.75785195036178 L 587.6723702452534 168.05875677193313 L 647.4172054009339 561.6397098837068 L 266.20854679299435 658.8146897257789 L 134.1003526410558 295.17618760852486 L 475.4620605493202 131.44171242715703 L 666.8002426246189 446.4398361437194 L 381.52178936046084 660.7581944916412 L 149.31602570464696 407.7348799966157 L 368.4357502204648 163.05875353655617 L 619.9949876919852 347.5544396125882 L 469.9013827936027 600.398062752673 L 221.22471749500707 483.5547620358435 L 306.860104026806 244.1945982717256 L 532.2015735087323 301.49037828917426 L 499.63949499477746 508.6908212090981 L 314.00688276297194 496.6283456614966 L 310.3047066340473 335.1993308913259 L 445.7580073476177 320.82669059802924 L 465.4995095576869 429.4434467429476 L 383.64754693181 449.2024567677605 L 369.1131618557623 393.11660732817904 L 401.3260739561538 388.784043676794 L 390.8925377941192 399.85340962941297 L 397.4835609552933 370.6384091811521 L 448.82637506251893 390.7571464996354 L 419.8390668360606 466.80435434402443 L 317.3591647492627 433.9957719045656 L 348.70317655054885 304.2571626430512 L 505.59626760188917 328.76880755385343 L 493.207648808013 511.780830164392 L 286.0177562498599 516.5717510501204 L 259.3753447121383 287.9985845159878 L 505.7603079465247 235.35679627185004 L 587.9007160837816 495.3043307995957 L 319.1988118086749 609.6878871619082 L 170.66680917507125 337.4637851506755 L 440.90433454712866 153.77779531666584 L 659.8153008490196 416.39887156716776 L 410.402463896322 669.6631949656584 L 124.58009280579876 438.85401434165726 L 331.73943405210764 123.14723689834932 L 673.8491473508409 302.10283571211755 L 527.0297862155466 666.4198162764274 L 145.3013258135647 554.9362748014519 L 219.07306336155258 161.06098028625456 L 619.5063698453935 195.63578947419074 L 624.6808431877537 596.868067472303 L 228.42002939059037 641.3960505263947 L 145.87079928002584 255.72939481316038 L 515.62323610284 137.38937340447774 L 666.6892570899013 486.35637097045736 L 342.7967440332721 666.3368489002257 L 138.3513030059537 371.1090478842818 L 402.1195923740418 147.15919629976045 L 640.2435877352418 377.54241469510896 L 444.2528560258511 624.2923138169316 L 194.4854823681438 462.76074293949944 L 322.427610976729 215.4852128510282 L 561.9573371400841 311.6128466578926 L 495.02109913505643 538.5468770959039 L 284.99167829822125 497.4121302806907 L 304.37837111387455 307.93407375274717 L 470.42244584581454 310.1674528349482 L 480.3440085314716 450.73891664947587 L 366.38436061184797 467.56257302411103 L 348.00958209114646 380.4250889496794 L 409.046000345803 365.789227156527 L 414.87102778242837 402.3527981893172 L 400.29550233454387 394.66399859278744 L 425.6921117735605 398.8104290151511 L 406.7732163127131 445.4744812687874 L 336.0234303127822 416.29834776078667 L 370.5098998597029 319.47144747106876 L 494.51670116376886 354.0362808053758 L 465.2356108628678 505.4011529174984 L 287.268439093398 486.73723245584165 L 290.1685729417456 283.8398256989749 L 515.4519734403613 266.16926765442497 L 558.0171383316433 510.4915687536102 L 298.7133346863078 581.6627269763187 L 195.94939873684757 312.03200657908764 L 470.7857070384202 175.50449695115262 L 642.3635279077243 450.10235327281407 L 373.6173854935477 657.0903711078067 L 131.802418994054 399.8198825863951 L 372.1216872732612 124.69364667319775 L 678.148470365391 342.8894993143562 L 486.7983608152382 676.5740710841742 L 129.4439709758567 516.2083697031215 L 255.3875154547851 139.80918770161747 L 645.6958008948905 228.69109296373264 L 595.6420970081258 627.4031381843192 L 194.24970700915 617.0214615746869 L 165.06181644916867 218.7323970145202 L 554.5631567912164 151.02029368777403 L 658.8414595173467 526.3054485636229 L 302.79569726509305 664.3354892969605 L 134.60425464883502 332.0093837490771 L 439.39549956464583 137.920126662232 L 654.5674612264262 412.1294149005814 L 413.13808962090025 643.1547900597758 L 171.75376011944007 435.79746851438597 L 344.6834575756191 189.65740242619466 L 590.0266022834119 328.7443615962732 L 483.28007260456343 567.9461433375777 L 255.20440701494064 491.1696172850709 L 305.1753194122024 278.7041902311526 L 498.1733865123721 305.7309781092915 L 489.6489249613393 476.1397385646856 L 344.1293674669886 481.2288528083931 L 330.61629089907825 362.01325691755386 L 423.0357958704201 345.4120715843841 L 437.4017085907901 411.4768091596982 L 396.3331135875736 418.4547804815977 L 401.5718189051456 400.1490610465183 L 400.15463369049064 421.9654466203233 L 357.9975382395164 404.5807683157636 L 386.9908219589228 339.0308503827121 L 478.18236129510433 374.79982344346644 L 440.80143246788316 493.0092762713958 L 295.11427945664764 459.35808386338437 L 319.67419927798704 286.6674855405989 L 517.9693808829899 296.9135797324835 L 526.9657065222655 518.5260143507951 L 285.1500066281884 551.252724348117 L 224.77972808318785 293.08869139023307 L 494.8033768202945 201.85421482691328 L 619.3321143002073 478.740511270092 L 340.9480789342964 638.1275758649049 L 146.05529489670448 363.8275885590722 L 410.63005173342214 133.7228298944636 L 674.7143624079215 383.03116481142416 L 445.9569314145396 678.9532451795836 L 121.19288110703201 475.6249352420217 L 294.75822026926573 125.7889471718845 L 665.2238264468498 265.9245215502627 L 561.4140003038995 652.0263248307778 L 165.0835658579141 586.5855744884196 L 191.0221570278139 185.69941649298113 L 590.6821759654089 171.94468901742135 L 643.374594808194 564.6472404064939 L 263.15228383551687 654.5970294479883 L 138.5017255963587 292.01715011620854 L 478.7792384377439 136.02535794019025 L 662.0459671540574 449.97009053723787 L 377.72569791411934 655.854935102985 L 154.33711142274055 403.6240543207858 L 372.9047627558827 168.15776721366973 L 614.8656575440372 352.4182181296165 L 464.614368212871 595.2924855418717 L 226.24746127501848 477.8251567828176 L 313.04179084970923 249.07201410688677 L 527.5336925820144 308.12330551815876 L 492.5666753853109 504.29663725683054 L 318.065015355147 489.13736456918775 L 318.1821548887968 338.8625831350053 L 442.54331561027357 329.0496513726866 L 456.98028442212797 426.7243642082123 L 385.8319023723028 440.4433059478015 L 378.0502140697323 394.73612740921646 L 400.2916604854631 397.832854107027 L 381.8005473868685 399.41398475582014 L 397.32876580454536 361.5724992566865 L 457.7980336163524 390.0195133239493 L 421.1378770891302 475.61642034989336 L 308.76754397231923 435.82444155521046 L 346.38472981935405 295.9408212093209 L 513.5898718322792 326.0082943169465 L 496.35623778312504 519.4127621663878 L 278.7770058540993 520.0496658895395 L 255.62996250440133 281.16846608343275 L 512.1707490786541 231.40718125947086 L 591.9917182182191 501.29650324651135 L 313.6132947796329 613.8595663625288 L 166.4713488613966 332.26364576322624 L 445.74922332726806 149.6100736340261 L 663.9105413498638 420.926419301254 L 406.14785248826746 673.6491886694664 L 120.73117041598351 434.82291021483763 L 335.5998724015715 119.4535682266191 L 677.379439871022 305.8471558272575 L 523.3470825386466 669.7887930074069 L 142.0815973214286 551.2624781806408 L 222.78717868113634 157.9688941643567 L 622.5012092465992 199.43437859888465 L 620.7601328860674 599.8038390060408 L 225.49859924494666 637.3233251255238 L 150.11666184580798 252.7724609097315 L 518.6690564093554 141.81996165500288 L 662.0723711175226 489.546309998707 L 339.4073501605015 661.5422998062354 L 143.3047822325707 367.4665128657561 L 406.0655941512298 152.2431779830739 L 635.0665382375703 381.8372293402099 L 439.57034201457907 619.067685967899 L 199.70533366710444 457.6594013946098 L 327.97007003866025 220.64245987555734 L 556.9244389331444 317.609045250901 L 488.5687626550134 533.7023142157441 L 289.5834231205954 490.5117466414597 L 311.70825477660753 312.20978819847056 L 466.5229667659475 317.89816304262865 L 472.25065339133374 447.2712131562084 L 369.3709435376484 459.1533738567274 L 356.680339284959 382.8887612186807 L 407.13832405751265 374.6611185177932 L 405.86304212103863 401.0245912892884 L 401.03101679591623 385.5879214817893 L 434.7670514993336 398.95062979179056 L 407.220294263609 454.47960015447575 L 327.1545152073162 417.31425746608676 L 368.9534816393366 310.8011297963863 L 502.9315912417013 351.9767416456136 L 467.7528838581388 513.5107633939699 L 279.50576725831274 489.6601397910804 L 286.897370611856 276.4565782719909 L 522.4332018864502 262.61073381437234 L 561.800128602296 517.0585100120885 L 292.5624822833828 585.6071472711078 L 191.9049686271128 306.28873677055645 L 476.13975583945887 171.41816664139597 L 646.4385618169356 455.0946646062282 L 368.9511989966559 661.1072795581231 L 127.88283254658705 395.43730282998143 L 376.26866480459404 120.90190705668493 L 681.7912937412183 346.8527920400441 L 482.9646051761763 680.0568700436917 L 126.12212985103957 512.449516318946 L 259.1248350017123 136.6391478509138 L 648.7329054895981 232.4572673446087 L 591.801282629511 630.3352177880301 L 191.38662855396558 613.0663129299223 L 169.16359460092877 215.89535155987195 L 557.4227075344841 155.29250641688654 L 654.3843399643606 529.2400735661149 L 299.7310587593509 659.6888932972581 L 139.43471367453992 328.75915575503836 L 442.88577304499756 142.9186694268617 L 649.4264654339764 415.9113405540205 L 409.01740652031026 637.9062205346112 L 177.06664958336302 431.2969513767921 L 349.59749824432356 194.98410392417466 L 584.7425160948352 334.0970778310908 L 477.47297532131705 562.7655084601004" stroke-opacity="1" stroke-linecap="round" stroke-miterlimit="10"/></g></svg>