<svg version="1.1" xmlns="http://www.w3.org/2000/svg" xmlns:xlink="http://www.w3.org/1999/xlink" width="800" height="800" viewBox="0 0 800 800"><defs/><g/><g transform="scale(1,1) scale(1,1)"><g transform="scale(1,1)"><rect fill="rgb(0,0,0)" stroke="none" x="0" y="0" width="800" height="800" fill-opacity="1"/></g><path fill="none" stroke="rgb(255,255,255)" paint-order="fill stroke markers" d=" M 400 400 L 142.74561948962804 265.67380425846164 L 484.0433581642402 520.6658224005487 L 427.35460107487216 613.9617869998497 L 488.8758380397094 159.55458738747325 L 463.629234958486 342.4203423420953 L 109.81677215354375 475.43167038416067 L 464.4123205555328 414.8709849376486 L 602.3032720947419 573.2213104359641 L 325.149149635007 213.39712053790623 L 416.3754373850586 236.36011316392495 L 243.92407686056413 637.7292879526015 L 382.2168916306674 409.91524606631094 L 694.5909447968636 391.9201928092035 L 284.0887512338593 343.46533796120895 L 263.8048136734825 215.45928191211547 L 437.74842753207565 642.2540343391072 L 366.26952529698355 499.56795289799925 L 615.7158602428703 193.75810357432596 L 355.7231095788985 412.8153140473865 L 130.3661851024977 345.4896417694271 L 544.1441475924894 516.7280459937951 L 472.00721401268447 566.1762908326341 L 420.0323102192372 123.47838648833834 L 421.35743968366177 365.4395302487576 L 143.94467439412898 552.1167138769997 L 510.1171038078305 393.9550431951346 L 620.2905845562145 500.06418631259305 L 256.6279124223129 216.48698915087493 L 377.5649601659661 278.09388763894736 L 312.8410830386191 682.5477572387247 L 418.20108850094175 381.61702475911767 L 669.1807962233963 314.02406978702805 L 233.446029609515 371.05730863079657 L 243.62483323076412 280.3144833245491 L 513.6078914494328 643.6436449027217 L 397.2753627702745 460.6452731413165 L 550.4453454269642 140.92565140030098 L 322.9889190449084 448.6555391635639 L 147.4251842410111 420.824049828278 L 602.2683550679093 485.26785618775693 L 490.59052140217204 509.6207919195526 L 339.38640553207506 114.80705779054983 L 398.5168086511027 405.32201333483573 L 202.53323556528437 610.6925020643291 L 543.32039525158 349.85351534330164 L 609.6152093995142 430.5309258064899 L 189.9498404200403 248.1811124473725 L 363.9903684335815 327.9966073018576 L 394.7578241387348 699.9179523852904 L 434.1892560540725 337.22160169386933 L 619.023425611193 253.06786250404414 L 196.1107486223334 422.45295405930364 L 251.09474769346153 341.9826513845603 L 588.2281026236656 615.4557212710191 L 403.4831036416595 414.4305808987889 L 471.0403167639027 115.10562534643043 L 311.12761197030335 500.1944281304949 L 189.03501041539508 480.3721789301534 L 646.6157092765649 429.0401407046201 L 482.56762063255235 456.297149889383 L 258.9988587860925 136.38442054009556 L 400.51253082402326 451.5430560324951 L 276.1268683496792 643.0964527813879 L 554.6526810261439 289.9851383940294 L 575.0135440257413 375.8538704134332 L 137.06448959603387 305.7720451722862 L 376.15956188358064 374.1756122464256 L 477.6058117537629 686.8041939049717 L 424.840874809974 287.3030934587287 L 553.403949699356 217.19282344807453 L 181.55100007445876 490.15689281172985 L 281.5778926300429 389.3376727040544 L 649.5203897960191 560.2895197005071 L 384.45212714592446 372.75520399741407 L 389.5153912127443 119.52146232688705 L 325.4591584543555 556.7660124180816 L 246.08309423968885 515.9757480291975 L 667.5729974788915 355.5768211943693 L 452.53633763362166 417.2172441050651 L 191.06192011507514 185.76983507771047 L 427.7043632941735 492.27295398967846 L 352.8186156840716 645.9477154385445 L 538.7562660309276 225.12676176641315 L 525.4504050154736 344.15196957549756 L 107.75475958102106 381.7477679407087 L 409.45533758462386 405.71401019774686 L 549.1431259502693 645.4583857430163 L 389.86325258073947 243.74923662142166 L 484.08632834865114 209.8866358759624 L 195.22305203024965 563.2896285725358 L 326.2104959641527 414.3398664124735 L 687.5344919776412 485.57553723986086 L 344.86298391788404 346.4836816899113 L 318.1005144528349 152.1138421618997 L 366.24762984435057 606.3768038367446 L 306.9584035140644 524.1010429419033 L 659.5340483754042 275.82612938346927 L 409.31871908140346 400.32585773826827 L 145.66441288897434 255.66893674280493 L 475.3274226543168 516.6420033231261 L 420.4477136792672 621.1362026896707 L 495.3402360851379 167.4038920206586 L 472.4012908400584 338.9459890037641 L 107.80833337425202 465.1442251275619 L 455.0372478840119 414.75017280940443 L 599.1919857672272 583.0019578525742 L 334.0994224787314 217.49584584668148 L 423.1206643196707 229.3831996276485 L 237.5061438281264 629.594084576607 L 373.6113755044417 413.5268908730956 L 696.2956212762433 402.2321872026442 L 293.62349278677516 343.4312384185484 L 267.0018077513229 205.94599758452034 L 428.603989298329 637.9726373572229 L 359.7390750468865 506.4493142161425 L 621.9759912174911 202.14958454048434 L 364.25844679598407 409.0039399277571 L 128.94667301082745 335.2668335769486 L 534.3784558662892 516.8269478180013 L 468.8393535704245 575.4296599958757 L 429.2878768345607 128.02216893340528 L 427.66958064109457 358.5388985948755 L 137.92987306721898 543.543936200557 L 501.53801516057297 397.9804647671052 L 621.4909653588161 510.1034196027857 L 266.6496227307232 216.4354991541245 L 380.6035511090948 269.04391388207443 L 303.5838622081261 677.7057552660369 L 412.06053404297745 388.6418194528347 L 674.9038809930469 322.67263706939855 L 242.17773670107283 366.8544976252534 L 242.54321766393252 270.51519253656045 L 503.35632179996594 643.5356585925626 L 394.4316262700914 469.5861930101349 L 559.5899796954792 146.05070042443953 L 329.0455710797879 441.4324517970535 L 141.9898891468315 412.2148394734871 L 593.301854673526 489.56767486379374 L 491.6681604170867 519.1729284735321 L 349.79559142405185 115.16421037554449 L 401.1476503645736 396.3767342238165 L 193.59757937197494 605.3475973004179 L 537.2364172582477 357.30352924015506 L 614.8161514418138 438.9987914649268 L 199.1902810205513 243.89246849630425 L 362.81026481489357 318.6482938240124 L 384.29506663360814 699.2621062462938 L 431.7382395805138 346.28119275656564 L 627.6906379087375 258.53392261886495 L 202.33473924444337 414.7985862122232 L 246.0358341020943 333.72477076188557 L 578.7254062167118 619.6186436945006 L 404.8426508690706 423.6603095778866 L 481.4413883698095 116.05970559120658 L 313.4764125378349 490.9358785927533 L 180.64702805298091 474.89962182915286 L 640.1599364183137 436.8295273018892 L 487.59738519039047 464.323328249233 L 268.70357182386897 132.4454323632637 L 398.9412951486097 442.3217128273949 L 265.8911408399147 641.8944963808702 L 552.2993498765459 299.4851593051675 L 583.1622910834478 381.225023581183 L 143.80466962888482 297.9500205645715 L 371.0479211807713 366.351659648989 L 467.7959710753511 690.456828799811 L 426.60490867276155 296.62931563206075 L 563.4027862760242 218.55238254799622 L 184.02356466332878 480.4234934468976 L 273.5855744943476 384.14769171738357 L 642.4927876100486 568.0290262570683 L 389.73277374949566 380.4517197390827 L 399.3159933461674 116.16944423513604 L 323.56861230012237 547.2410854984391 L 236.3464397617258 514.5708770762184 L 664.8812989747075 365.48646337706816 L 460.48138650601027 422.1902136166393 L 198.3297217883371 178.21797422522334 L 422.20877896075837 484.5986407725035 L 343.1364571689347 649.0358214062421 L 540.6727812658224 234.9061314621595 L 534.950813632799 345.4901081502572 L 110.73086649433532 371.75677285506805 L 401.44372931992774 400.942877599698 L 541.7232507074704 652.7483168649995 L 395.569375847468 251.5161225835228 L 493.5676140590417 206.98206337436253 L 193.395436420813 553.2492620533399 L 316.874356316014 413.15804293719214 L 684.2562855401907 495.53401628378083 L 353.0370391812934 351.116134364086 L 325.5608795374619 145.11458216553623 L 360.3848489274846 598.4158255105089 L 297.7173389198481 526.9301799470787 L 661.166342957904 286.0835198115618 L 418.5942906197131 401.3020054283833 L 149.21130487715516 245.85328282147677 L 466.9320260296032 512.0496377742609 L 413.0598032659773 627.8672607468085 L 501.26697167183033 175.6270586009384 L 481.4136287715881 336.0779214848017 L 106.44823603048917 454.75563407225627 L 445.7074272271148 413.9790553452614 L 595.4543149524502 592.5898704635666 L 342.7263453326231 222.16257908975473 L 430.3441814857299 222.85115081218765 L 231.6286188649411 621.0875977795178 L 364.76774742396873 416.5318289134337 L 697.3514295784604 412.64128081742 L 303.1106841852871 344.04784512306946 L 270.8232930636312 196.62855194662734 L 419.7861217943913 633.1239390159545 L 352.7326827120795 512.8845177046123 L 627.6930952266378 210.9093323232959 L 373.0299616386675 405.8000538986772 L 128.17610256159134 324.9509019792082 L 524.6629603996462 516.2744811392953 L 465.0488785615047 584.4845347540298 L 438.21335120927813 133.13221258818675 L 434.455749633125 352.08569571204055 L 132.46041560309038 534.6062539163435 L 492.7246336236345 401.39718898023244 L 622.0427091627299 520.2320546156 L 276.6180576281322 217.03612237309815 L 384.2630862289496 260.19469925711974 L 294.6603859439997 672.2989676903139 L 405.44747023940386 395.2177423627997 L 680.0797247880901 331.6825605375218 L 251.14170449059546 363.2620012039687 L 242.10970363547455 260.62983501507597 L 493.1615387316966 642.774930009174 L 390.9682636710691 478.32434616534874 L 568.3972836131009 151.73860596703275 L 335.5734898977688 434.66000943503707 L 137.10327541411448 403.24781285652 L 584.1054420666972 493.2552573531064 L 492.0982739645054 528.8082389409025 L 360.1441344866984 116.17444058182542 L 404.39722583398805 387.6361562206726 L 185.00258714093764 599.4421491568617 L 530.6823150022191 364.30070403337317 L 619.4673772351505 447.82113339208877 L 208.65786191848002 240.2181200727421 L 362.2772653833241 309.21928968149984 L 373.8969976546557 697.9532635306288 L 428.66896970417247 355.1340239268283 L 636.0142419142661 264.557972027187 L 209.02761364662928 407.59967765677794 L 241.52739537254834 325.1154037319953 L 568.9987890295248 623.1652701680239 L 405.55519855434665 432.9685410519834 L 491.7737297727703 117.6662419895967 L 316.4432999624296 481.8864441258704 L 172.6051476237494 468.87168204863417 L 633.236798873584 444.16048962223357 L 492.0760109564033 472.698432484351 L 278.6286021172043 129.1244939577025 L 398.01736719884445 433.02393244717064 L 255.72798823267487 640.0410383884938 L 549.3279477543176 308.77330126302223 L 590.9628667990384 387.1490966606916 L 151.01028917862317 290.58957833354975 L 366.4881864554704 358.1809198768408 L 457.76966190847855 693.4900481980756 L 427.7209023338044 306.0298338886195 L 573.3255544228562 220.56219903358038 L 187.11413924737874 470.9051759538339 L 265.9431819481011 378.4069443439544 L 635.0021261432609 575.3037912275792 L 394.4604689019079 388.4932130855128 L 409.3291563888187 113.43775201573709 L 322.3271875765978 537.644262148859 L 226.68891119948756 512.5171035250289 L 661.5718860830652 375.1774394090623 L 468.07490067044165 427.7122068579766 L 206.05778664507466 171.13382101559276 L 417.2675872420485 476.58098989144924 L 333.24550699687495 651.5031261548176 L 541.9388926529552 244.75460723465764 L 544.3694736168329 347.4758820793809 L 114.32401182472012 361.98827530238094 L 393.7853170259476 395.6240353499967 L 533.846204601314 659.5679254451006 L 400.7192331569461 259.6246812298216 L 503.2542292685232 204.69843626959764 L 192.21951793355248 543.1430254826095 L 307.6222403976108 411.32958590891127 L 680.3621700400809 505.2661035378617 L 360.85599968459087 356.29534148000755 L 333.47520329740405 138.58781802564675 L 355.0805878201463 590.1150557344714 L 288.27399294822 529.1383917469301 L 662.1458316389158 296.40313170640565 L 427.78375522104307 402.9241727112475 L 153.37253736093584 236.2677801415494 L 458.89399719454013 506.9112574227152 L 405.22106812254174 634.1240961410697 L 506.6326826746357 184.18776930708486 L 490.6256379174864 333.83079126819433 L 105.74170723272482 444.3087680533813 L 436.4657982393033 412.5621017816037 L 591.1042128611102 601.9441791309172 L 350.9931921984339 227.37461460104217 L 438.0156482694854 216.7946865002022 L 226.31469236521428 612.2462590015938 L 355.7266841594007 418.9155977522788 L 697.7533486970202 423.10457842590625 L 312.5074049260285 345.3104893053377 L 275.25512319138966 187.54774408185784 L 411.33144669100005 627.7308200851148 L 345.28082977137547 518.8429879805086 L 632.8441557847511 220.00080312053493 L 381.996910854825 403.21792995730027 L 128.05928883076467 314.5847639451632 L 515.040562656654 515.0755155099515 L 460.650126581406 593.3001868632451 L 446.77221805895635 138.7854609000246 L 441.68532503804187 346.11035362237664 L 127.5591427637404 525.3403212515905 L 483.7177697304611 404.1911303851869 L 621.9412059359797 530.4071550001994 L 286.4903352749472 218.28378690287812 L 388.5290385651811 251.58690111435303 L 286.10706069539043 666.3506268652711 L 398.39265887890616 401.3145039380198 L 684.6856637638896 341.0170779327657 L 260.2970544441106 360.29371540196865 L 242.32869753474262 250.70136470269972 L 483.06640311147817 641.366734971901 L 386.8999900004121 486.81914563615646 L 576.8309620804938 157.96596062294034 L 342.54177290865186 428.3683595910365 L 132.7878295332785 393.95983773026893 L 574.7200641009381 496.3168985498613 L 491.8766576770425 538.4837528404022 L 370.3891968617961 117.8322674559297 L 408.2506325549018 379.1407967141814 L 176.78444037887576 592.9997386208344 L 523.6891328549101 370.81503449355404 L 623.5465773368641 456.96098068058336 L 218.31156827023443 237.17157942987683 L 362.395373980922 299.7525815964204 L 363.60642954287454 695.997110939783 L 424.9965365765834 363.7396466548147 L 643.9581713994173 271.11625816247124 L 216.15818468148066 400.88609032882636 L 237.5915647895814 316.1916225155082 L 559.0893328056275 626.082283303417 L 405.6169423234848 442.31227203252934 L 501.99455682209293 119.91934223229225 L 320.01299561424656 473.08650480623197 L 164.94531912218048 462.31228149269316 L 625.8776272439965 451.0033107276009 L 495.98153960534984 481.3852902017232 L 288.73280284038475 126.43472608603548 L 397.7443522721664 423.69273544333663 L 245.68016399217856 637.5421758315484 L 545.753943027807 317.80925293030907 L 598.3794376016166 393.6020005531171 L 158.64987410415694 283.7202882263657" stroke-opacity="1" stroke-linecap="round" stroke-miterlimit="10"/></g></svg>