<svg version="1.1" xmlns="http://www.w3.org/2000/svg" xmlns:xlink="http://www.w3.org/1999/xlink" width="800" height="800" viewBox="0 0 800 800"><defs/><g/><g transform="scale(1,1) scale(1,1)"><g transform="scale(1,1)"><rect fill="rgb(0,0,0)" stroke="none" x="0" y="0" width="800" height="800" fill-opacity="1"/></g><path fill="none" stroke="rgb(255,255,255)" paint-order="fill stroke markers" d=" M 400 400 L 406.8890203460716 181.9559086200477 L 101.09491394232617 381.09354160200667 L 381.7368915143595 592.1685507333073 L 365.7896739625668 395.6548464769504 L 362.1967708974244 637.3879993461375 L 690.241043440545 455.6700464193764 L 436.26143367217225 238.6680970882548 L 466.3376932632515 417.1277992153956 L 472.7524883362622 150.99178822056587 L 126.5850904272599 310.65343459923554 L 353.8696687964656 527.3919440374054 L 305.57991005315415 362.39582923614165 L 290.22527543980084 652.1603473408159 L 649.4014443839687 518.0774901150988 L 447.36691221870166 307.61412981897456 L 516.7303764177378 464.582733158218 L 546.7867285202345 153.40906690955404 L 180.40837722875008 259.7085969661981 L 360.02978831218934 458.4119909581808 L 268.1234264629218 303.5066373069407 L 218.29490338059944 632.55212967507 L 585.7118759932526 554.7952177232858 L 424.44123566510143 372.4921049860427 L 538.8826919862859 531.4785076921087 L 612.5671837237611 189.21290011668938 L 250.27614315759374 239.15656338543116 L 398.2461356297335 401.5321410218669 L 262.75459052277773 232.49896277291063 L 162.35495508332914 582.4868700575411 L 513.7105481563998 558.1814220908284 L 373.2983004448254 417.9436568667643 L 526.9633052464228 602.4625162122791 L 655.54575082674 250.7788110419149 L 320.2446728727031 252.93983139408613 L 459.19965425984265 370.2739163212339 L 291.4630455014734 165.67496009109925 L 134.70774770626554 512.8473983624626 L 449.82100684839924 528.2217181779313 L 306.2211933678781 433.06922020187335 L 482.93987731188327 661.2295542124695 L 666.380099429304 324.5973936932037 L 374.36412214213715 297.14393397794083 L 528.3564469845345 372.2820418179695 L 348.43797130728535 118.39620786557549 L 141.19327799468715 438.985423312267 L 408.59336602804603 472.5320583562354 L 239.15072101683697 413.92281928368686 L 416.12911070206644 694.2535597611534 L 643.0715711717448 394.36587209452745 L 400.3288674104374 360.8937055954092 L 589.2943837288525 407.57458256208656 L 421.3976086650776 101.56792830497602 L 179.85288572096792 377.20833505429744 L 399.3743132842902 404.61532167803233 L 188.03680511518962 364.4154086185672 L 341.0648465934747 693.8833104088858 L 591.4223668221659 444.7189622363489 L 392.29380785722805 428.8426163903335 L 627.4618675518784 468.53857248655567 L 494.3997637369496 119.14310789710657 L 241.3777599931585 341.0472898175002 L 424.16801254428003 340.77058518203825 L 165.1877864714003 295.42002085655656 L 274.17213416294794 660.0935759607428 L 523.707386555724 464.7451685189807 L 352.21206347191634 484.68544982443586 L 633.5085039279936 541.6721353152807 L 551.4900637125369 167.21774187098964 L 311.2396403576479 338.16068598255913 L 477.17747100263887 296.3624409211906 L 176.45315878332485 222.28352330893583 L 230.0084651215639 600.4909473162919 L 455.8646944776944 450.4837532465052 L 289.3879152197421 514.8903901679239 L 605.4253953666138 610.674385014599 L 580.3530009688418 234.9242704797238 L 373.0160670056274 368.58172124495053 L 546.1313358782661 282.3041863238904 L 219.88450960192813 161.31445790410214 L 217.93242782181377 528.5730073252373 L 403.84761536016737 405.8309072712536 L 218.34730423832082 511.79637078817217 L 549.0052200151839 660.1759319620269 L 575.1301651877496 306.91872972183745 L 412.1491424182623 424.7111057436105 L 615.0924619690613 302.5597671208569 L 286.18113403670174 126.05077938295722 L 239.96221340523581 460.6392606707083 L 379.9733456468819 341.6477300583431 L 155.51326096445746 475.3668045558593 L 476.5167976215818 679.2562079700165 L 537.7606653918815 366.8923916651988 L 419.27755065321105 493.05659872108276 L 668.1054636292412 353.2361939872732 L 360.81833541326307 124.16168039863294 L 290.31408947671605 412.0608066487402 L 390.1037585546696 273.2741725925424 L 115.44714630493871 413.1983264769499 L 403.8974898247418 663.9426132716658 L 477.5369647183192 401.3041984497592 L 392.3792473998423 557.3212473229726 L 692.8484495949112 423.4741482740341 L 427.37131684779285 155.692571101099 L 356.7264689296744 393.76250081374207 L 432.3036219372597 217.0179178480678 L 107.51595794379563 338.78254747366856 L 347.10599943897876 618.1195151647864 L 408.9777825310833 402.4797618298306 L 337.23443125867107 602.1335337326339 L 683.4531817306893 497.93294742742404 L 471.2739372863605 213.05487805339104 L 423.2665390603096 409.72271993292964 L 497.283317664082 186.42177575698364 L 133.74844294140416 268.4186450334528 L 318.4702897315507 552.6390592934964 L 348.50488499578006 370.3676718831879 L 266.1028376506356 616.5657256835265 L 641.8482185019238 560.3011455461478 L 483.1520797602713 282.76299706774535 L 473.9771081075253 456.0629496230895 L 570.5247390815852 189.16386016077456 L 188.37068015528368 217.4833943516015 L 323.866461563375 482.8372989530441 L 310.6843347656942 312.55115514651357 L 194.91807804709828 596.6351984964139 L 577.3176428988263 597.0293112652505 L 460.96873652306107 348.5208699797545 L 496.5290289424887 521.9355572927475 L 635.6038204601424 225.29999279971585 L 259.12742204310575 196.9123037845881 L 361.37424804261946 425.0241166886539 L 304.8924510774785 242.51241408041233 L 139.64114549999465 546.216260263225 L 504.37636704860324 600.430676257236 L 410.4898736279345 394.9517720257859 L 485.04328318345927 592.0065690536799 L 677.9492836517147 287.25058891195766 L 330.086785357232 210.69720377678132 L 421.71683842704846 392.75027675889174 L 333.1695296329883 176.54688203155706 L 112.60764591350534 476.1537940043631 L 439.4482845304931 570.4400207299624 L 343.9644544475229 411.1176872572647 L 441.43684577133155 649.9652267111692 L 688.1773517769291 361.53502605946875 L 385.28639174431237 254.97300653208845 L 490.3843702632051 393.7059542632534 L 389.7525335561193 130.03361667871206 L 119.7047504645816 401.7815740284797 L 397.1075291560981 514.6282465508897 L 277.32072036383124 393.02280566934337 L 374.98430682427374 682.2571055995294 L 664.2392265959172 431.85655785404094 L 412.3864797738901 318.902646137887 L 550.9550938862528 427.9605630333215 L 462.3937068476728 113.91541307876423 L 159.02396942046465 339.4132299577857 L 386.74308917851795 446.4693029021719 L 226.52040553166472 344.52817594928706 L 300.19558057077523 681.1864085095783 L 611.8898445392397 482.83174011052233 L 405.4939144084379 387.1576660517183 L 588.854106664025 487.9467263477322 L 535.1633244078465 132.19421973998243 L 221.29808187627955 302.60895816171706 L 410.4101340936078 382.25610684365785 L 203.90528310450932 276.4681806254838 L 233.49542198970366 646.6774252521025 L 543.3706290344976 503.5108298108589 L 366.51077351593585 443.4267309987956 L 594.6894093570761 560.1920591115347 L 592.0951238945848 181.0150725253022 L 292.0222228910907 299.0724041902846 L 462.35981275816346 337.37130066917507 L 215.3721953637867 204.17104257541342 L 189.46469756954363 586.2920191307828 L 474.6077127390106 489.88345653743613 L 304.6988655665909 474.1490831451205 L 566.4017737309708 628.4024150675812 L 620.8401032644836 249.54820307358705 L 354.77368266997405 328.88791492070135 L 530.3551360709183 322.7663440374254 L 259.0231081914235 143.95083520455324 L 177.5036562927064 513.4991381838058 L 421.56686211071633 445.79610291297587 L 234.55984578628343 471.61848026092036 L 509.7363890779329 677.1909478639676 L 615.4924532103819 322.4674369793003 L 394.9706277459464 384.50159373747647 L 598.471783023593 342.4547579933027 L 325.5991470506054 109.37385672857363 L 199.68086534237054 444.59240158783 L 396.59933914840803 382.0714139278658 L 172.5161007326057 435.7472289934136 L 436.9283435110877 695.5995298068074 L 577.9408640964631 383.4576601043126 L 403.2094996642924 452.4504943918899 L 650.7428200117627 392.59323294060937 L 400.59927845120825 108.1538694207631 L 250.2601163983986 394.9612215856001 L 405.61500926898526 314.03089568361185 L 133.15203488765002 374.08658541137925 L 363.9027888182434 679.6065944388085 L 517.435939004596 418.94861244007114 L 377.4172731908451 516.4441992579218 L 674.8131801143321 462.36090406656245 L 467.5987424003401 140.3867787380184 L 317.0135775202516 375.56887520565533 L 446.7296756004452 257.9879744197532 L 125.8760019996891 300.098853657595 L 306.6305764728324 633.0474424586077 L 448.47271760560983 421.22047020487054 L 323.32599471560115 561.0935125108577 L 664.7675152248582 536.4355579375978 L 512.0077588148497 198.5287746444206 L 384.0206543345667 390.4435761997001 L 510.69621925142803 227.5140364231842 L 152.7668525590033 230.07664085294195 L 277.47343655263137 566.7363840639704 L 387.4729298386694 390.170453327831 L 253.16099498274883 575.4328960445785 L 622.4842210453148 598.5000502862342 L 524.410267024178 269.12293780736667 L 435.3119954633484 435.7567560699791 L 583.0208721590307 230.3320264482404 L 208.09795008400977 179.41434667849296 L 282.3551645860658 495.9916297545728 L 349.0262997469912 333.3361415906551 L 182.84299994436319 555.4304811989873 L 557.2057442078133 634.9764344545288 L 502.71857375718037 335.8791487189767 L 458.52465219188815 500.69950445098976 L 647.2802791104567 266.54855534776567 L 279.64759295575595 159.08521768878722 L 319.4062360136775 437.12939859375064 L 342.55113830843294 264.170163249182 L 128.34448210382283 504.91119916507625 L 483.42351361864587 638.1331846641431 L 452.6507835663223 383.40241247595816 L 447.73184951528094 569.9565811237258 L 688.8801854154683 328.6291279809907 L 351.495930553542 173.13024957465396 L 379.39205009153596 403.72962427693557 L 370.1385030320955 198.9611217885421 L 102.03416052049732 434.681756477303 L 417.5615637578696 607.8543757224206 L 386.4217441871301 400.71631142922524 L 404.7997293049158 627.2117816774522 L 698.3955135116287 403.12216107739494 L 407.6682540941154 217.73364275813208 L 447.8267924531774 403.52791289773074 L 426.0733235879661 153.10545687247807 L 109.84627004813251 360.05771898010806 L 374.21785652991895 551.6659137824869 L 319.94710542268905 383.7751862972103 L 338.9605527382373 658.882396818726 L 673.7273976988567 473.73722174467184 L 435.7908359584786 282.0964081781448 L 508.289124385881 436.6450784029466 L 498.14209180339935 137.58348483574645 L 149.92245851046536 297.35867112095804 L 362.82353613986896 483.0128149697399 L 269.2003883195465 336.3900922224813 L 264.7000413917426 657.2280735121549 L 620.5835045808959 525.0729818867494 L 429.9226193791248 350.9081842336763 L 546.1808492065361 495.5594553660662 L 570.4278300576559 156.44613420862012 L 213.037135701868 260.17359013682426 L 385.4847006877638 418.181804826503 L 246.55680876053526 269.35660967348934 L 198.44237317954156 622.1225644119946 L 551.1717100832752 546.1416857610266 L 391.91468039149174 407.8515492757253 L 552.0683236848786 566.8283257487105 L 626.9526642808487 205.88757784730498 L 284.7089261644928 256.2511647659729 L 436.5006360233749 372.57355180474985 L 257.960631008683 197.9841248065608 L 154.79152555792643 561.082871828337 L 481.4061063204008 532.883499179306 L 330.9863272164524 439.3368106070741 L 523.8418780333142 634.1644831965765 L 655.3343396671348 275.1160049807572 L 348.514985436922 285.72675939442956 L 503.6687717334421 357.1776949599711 L 301.56434863431934 138.5920436486199 L 143.18919554415197 487.54911603239157 L 427.264789055633 489.09529086570876 L 261.6148537455922 437.6125027115047 L 467.1990258684614 682.1638131059303 L 649.6198261852779 348.82324297728 L 389.84964464146213 341.09181153840666 L 571.0776987541633 376.0574131428588 L 368.1511385136695 104.77483838983824 L 165.75418574057548 417.80880786120036 L 401.1330052885751 425.5612794311831 L 200.2219114513227 402.5397064999554 L 394.34087355180293 699.8307712128943 L 611.647497359634 410.6880158699295 L 399.2671564811877 408.9126663389594 L 622.7490210218655 425.4192330591272 L 443.2439026646579 104.29073067214443 L 216.79774784918416 367.26945570177736 L 408.9685910997974 357.5845117456462 L 161.41487751668166 341.62410762451907 L 321.1800766044999 683.0948976239633 L 550.6261256843154 447.11106213050095 L 374.6435009121497 472.9054646854411 L 646.2945440571041 494.4809658860065 L 510.4182095831069 137.28608725305736 L 284.12580505844403 346.93258119019885 L 448.9384353543091 301.48413417239647 L 154.64344331812958 268.29845668118986 L 263.69934756811426 635.7424211402241 L 481.02704855869433 450.3272694086486 L 321.6624861243504 517.6633466528004 L 635.7517933255098 567.9391311585246 L 555.0609148067365 196.26190396256837 L 351.83001842759273 360.8761223101921 L 511.8380367076651 270.8601132657536 L 182.03661742455884 198.84851806516306 L 234.29392978443954 568.549741094197 L 419.2719169559458 420.18256377041905 L 252.51489272896035 532.1829389834543 L 592.9489077649986 629.47115800075 L 567.7142394822157 267.79004866542755 L 403.9289162036001 405.32141670644535 L 583.1981314650488 273.4802854940792 L 237.9151803080112 148.68605391379245 L 238.93512123434274 496.81710343251854 L 379.97408946838766 364.16888357118097 L 183.1083831672904 512.3830324439881 L 527.0865302726753 665.470828150644 L 546.2399604066649 335.5864731199145 L 428.0257543755467 469.498301119018 L 646.5962562472722 309.502185445627 L 310.0911735624436 128.82183122678714 L 275.8040219066615 436.86692936875914 L 372.5938899676236 295.7092338005762 L 129.426733910832 462.03900864329694 L 452.6323861673465 668.1620440543198 L 496.3084016417271 384.2380393025058 L 418.1459474759389 538.1103347385762 L 687.4153405317497 371.43661620233 L 382.6570145356145 143.34586167610325 L 335.70819363532075 402.30821096515547 L 399.27322758903426 231.0853142068575 L 103.87163940134633 391.9191573246498 L 386.0104094151607 637.3782857060269 L 430.1003142331269 402.7300154134062 L 376.10467734912373 594.835939851538 L 696.1891140124692 445.86129960720507 L 439.62590232017413 188.49156207208966 L 404.1858728609954 400.92192741043453 L 454.3451615902537 185.71088358038642 L 112.42432532603766 317.3205518104447 L 341.8421637480079 580.6004987329031 L 363.5187401168388 386.96691681215736 L 311.09168031591867 626.0641667657713" stroke-opacity="1" stroke-linecap="round" stroke-miterlimit="10"/></g></svg>