<svg version="1.1" xmlns="http://www.w3.org/2000/svg" xmlns:xlink="http://www.w3.org/1999/xlink" width="800" height="800" viewBox="0 0 800 800"><defs/><g/><g transform="scale(1,1) scale(1,1)"><g transform="scale(1,1)"><rect fill="rgb(0,0,0)" stroke="none" x="0" y="0" width="800" height="800" fill-opacity="1"/></g><path fill="none" stroke="rgb(255,255,255)" paint-order="fill stroke markers" d=" M 400 400 L 403.5593633672448 172.31078781483083 L 696.353825086057 409.2677977820175 L 392.57760871878054 558.1647087045981 L 490.157365897622 405.64445692894765 L 378.45407674911456 675.1154995166065 L 132.20531528169334 374.8102596160068 L 408.10957792117335 326.1810851863568 L 229.06258411802867 378.5121143150843 L 441.8667610966009 104.36627933869534 L 613.8482281700932 433.70214934506026 L 402.8583702904724 383.5403121255732 L 634.0608176634294 444.42630317747387 L 340.7697374780563 687.4549353917259 L 259.5285893296336 368.7592251123007 L 375.34446776041693 503.2205973077445 L 126.69367815964262 330.18419301197366 L 468.5848805789758 148.005657415554 L 455.68252645957307 416.09395518809436 L 454.3422727485688 222.4375516519917 L 685.2130373426876 492.18796280669807 L 334.0426863171753 593.6626663227022 L 431.4070130868646 411.247403226198 L 312.7394405956217 632.1659424372776 L 130.56154166535464 293.89496935450416 L 449.1457919901147 280.7052063124616 L 288.31824048213343 351.93512937645045 L 517.6987271754291 137.88053569237297 L 628.7304690756201 507.0331187309282 L 381.8339886761561 437.2911234369377 L 577.0938982579264 489.72126457051553 L 260.26584915814374 665.4358248989022 L 231.47855960766702 307.8923505121645 L 375.3810118992091 443.416604931924 L 178.41736323169715 269.73498612008126 L 548.1362612194814 156.80082178220468 L 496.20107315040684 460.6791708115899 L 474.71020175951907 285.558283797143 L 641.7274014040721 563.2500745321272 L 260.79764337580616 599.3294530080854 L 379.834545262034 385.4432363193164 L 273.9968358116831 568.9239983408382 L 162.9433732503303 217.3398755118296 L 511.4061669288909 259.99878380755393 L 348.7675333554631 357.90717869106265 L 571.5707041919417 197.70710850585104 L 609.9795529400405 583.8095373412945 L 334.23679415505694 472.79819487098905 L 510.69470527142084 503.18512414471826 L 195.40493670967055 612.7193315532988 L 234.6420709953636 235.90527857366286 L 405.8544285515799 394.28209699175034 L 247.17698659169244 238.55498201922285 L 619.3241510228803 198.79486830085372 L 509.7812789984117 523.4877850693576 L 462.5044021143992 346.158623033607 L 574.6911801648803 609.3285454181296 L 188.0788150839083 571.3071027362145 L 349.35275962295066 335.30221491519256 L 268.0878937856738 499.97887150858384 L 223.92297914915795 159.98094151905102 L 581.0891252651815 271.45873575076075 L 395.17246497916636 392.9686420173697 L 594.2708156111157 271.0401148809313 L 559.3323940118999 648.3649496032601 L 271.62034026394105 479.5540734757186 L 450.53340752638917 484.4686728293254 L 158.19905920472257 539.5722116264981 L 271.0818976367109 168.36821030670836 L 458.13732722438937 368.8229016741561 L 317.791057712898 240.77464613783494 L 668.0504066375312 266.8689092746898 L 490.67489456222944 589.964363660531 L 422.92269680714 389.4951307712744 L 497.90244601945244 622.7624269122213 L 131.2352215211269 513.141336201281 L 349.06392945062754 273.50899741747276 L 293.54402862362883 440.94632195486906 L 301.9015843471111 132.55139484696963 L 642.5012668280655 315.32851937786813 L 415.60686979903716 447.0489213631235 L 583.4592482692063 342.3107592026794 L 485.49991151096697 687.531571694034 L 209.0983183779063 453.5330802903069 L 410.6616580132387 440.44113309375274 L 154.6514074815797 460.597071278994 L 335.4949517004741 120.1045334704254 L 518.5830352010205 374.616414830699 L 374.9085392503071 273.12368372349823 L 685.0081589558295 348.251275109415 L 440.4573232288367 644.5037844943802 L 367.3460614092372 404.880063821789 L 427.1062490221616 603.0377567830758 L 102.32503002594615 435.01415333101914 L 381.22022832865366 215.53320560796516 L 341.91367327779136 404.9975283399277 L 381.6713026313569 139.31262855046236 L 681.5451012199592 384.6229835697284 L 404.11789954423716 505.72074930351897 L 544.1676023465484 396.64032095498027 L 402.2511779086211 693.5565135213716 L 161.97812351189353 398.1046409588637 L 400.3859819955985 383.6437569480656 L 183.43984387212163 391.5009926865305 L 416.3692209853842 101.89932449021347 L 571.572407068117 412.1138492351754 L 406.41637936083447 325.67847568911 L 667.7377725215704 427.3368485786116 L 367.6978204021981 673.9240730327342 L 310.7909167439888 388.06355214934473 L 376.50694284788995 556.8830728313385 L 107.44126425095999 351.5027009865054 L 440.7069088788358 176.17985492628037 L 399.66082540131237 399.9328200289752 L 447.7774321355355 177.12141509438464 L 688.8540895397898 466.659196749801 L 362.05905920461464 553.4232791036134 L 487.66131345998406 423.13809813333 L 325.3746508210818 665.8168408957631 L 142.349769542049 323.3030139245027 L 422.19704059288017 329.483071769709 L 236.2265386249911 345.62024923866574 L 498.51991254167694 118.10308080568842 L 602.9999996243238 474.526874410364 L 406.1259496423198 384.08717795101614 L 621.1633521670456 489.13489029478643 L 286.07546004727726 670.4026884762352 L 268.5532256118428 342.18394661429625 L 355.62434190734535 496.7570165884838 L 145.3607916227784 278.3621023722697 L 516.1631669575274 166.28603456311097 L 451.19300240324753 426.4503196715071 L 487.9344373132628 236.14053610401945 L 661.8785545056244 545.8533511402161 L 297.79859406056687 576.9378450954468 L 428.9179972651622 417.3117589595875 L 269.19136711999204 610.9525498443693 L 156.38796956648994 243.61550048372965 L 471.21478669232215 292.787420891299 L 299.5248003344203 330.97300115943585 L 566.441585569886 165.6629916608285 L 603.425071923705 549.3239278848974 L 375.14165899894454 432.77804687586695 L 556.4906924399263 522.5796001439255 L 211.3592382714822 633.2239364201453 L 252.79002274128436 277.07517998297135 L 367.19199272715804 438.06412299033974 L 207.81668293713764 229.0467485754041 L 592.4918194340657 190.297743256115 L 482.3458197347993 477.9940876436242 L 495.7369239249877 302.03487586614153 L 605.4590575495808 607.1625966091003 L 224.8679379824334 568.3441473746597 L 383.28201916829573 382.05473610403124 L 243.39450037773668 541.3879551047485 L 202.96678700904332 174.78033140967725 L 536.2727775363743 284.4918845220602 L 357.7082938056917 348.49456783102016 L 607.7317929433061 234.79695730472747 L 570.1873174456091 621.0038968025763 L 321.60776722483917 458.4381440517006 L 488.7115402244952 522.9681570766754 L 157.92300887463904 568.9492661456943 L 269.79790920289247 207.08496923271244 L 406.5643372430369 395.71740343476347 L 281.3334374733547 211.74264936498182 L 654.2004041063706 245.2652794641098 L 483.5499741424339 542.2154770348691 L 472.06353077796336 359.16505862357127 L 530.7598206655134 639.4073893420885 L 158.96146915174882 526.8000274703932 L 363.0385778880744 326.9914042200406 L 250.9171817982846 472.56997726489766 L 273.89470091753475 130.30542278443767 L 602.4007739354745 309.1881487533997 L 396.4940804130576 391.8471675563165 L 615.8258637329014 311.1606618715064 L 508.01720157239936 674.5311031998522 L 258.8897001875538 452.98951643995326 L 433.2686200698069 492.98480551099937 L 135.5692846433081 489.97253743684314 L 318.59322193125996 147.88850098073164 L 462.76435144239383 380.8114232257905 L 350.2174075839839 227.56991439695474 L 688.8316082955625 321.4804771309653 L 451.97696656036976 603.7230373581189 L 424.862022650736 394.0691285846583 L 452.7990558584048 637.7364777264631 L 114.4540018952377 458.74932367281787 L 374.6684632494102 266.325593584919 L 287.30206564017953 419.5368260489681 L 355.7179819637257 118.48120894562095 L 654.1541282931869 364.0837509530856 L 406.12567275817685 448.84625672634064 L 591.4354782231544 379.026353310226 L 428.00517827977495 698.6686125009112 L 202.59393931176206 415.4015839364074 L 402.622285679037 442.0836544192949 L 147.3673349799847 411.7810916005247 L 391.10943745933554 113.0053980245113 L 520.9388195800252 398.14501945563313 L 400.03815570767745 270.3545057944111 L 689.721077785688 404.6143681737328 L 392.1867649102863 647.5100550095458 L 367.3634726407158 398.45879876024316 L 387.12473412933895 604.6870952494978 L 101.20958645434962 376.5114762935215 L 417.3934359522867 215.67047101736551 L 341.71252362784827 393.57930848111937 L 432.6919020593181 140.55101697714088 L 679.0503451131495 439.60205050173096 L 383.5489457242319 504.18648339298227 L 542.3716206317276 424.76725732220774 L 345.1586118191714 688.4694582068071 L 167.08856801471737 351.93699684341624 L 403.48150001009805 384.36745149805125 L 188.9857046355178 349.5309420107225 L 473.9681182066467 110.79369164990084 L 565.6757046849443 445.1440564328164 L 420.8274351893728 328.01980938095795 L 657.4700606767615 478.8805563419495 L 315.13338956829296 662.2982760285988 L 315.12238697559474 371.06464108746786 L 346.37414530300896 549.6049821469971 L 122.39049139263392 295.56602761529723 L 483.3354702902507 188.56410748834625 L 399.36068374484313 399.73640121725765 L 490.2598875379908 190.44532316848918 L 670.3493770013788 521.4898016505032 L 333.0974842738808 542.8615690835222 L 481.7913817950681 439.87367175373527 L 275.08895107325253 646.3724220262332 L 162.2974927777934 274.776220885209 L 435.31425939261806 335.43369867469534 L 249.66731893030416 314.6967504333083 L 551.4301633626 142.58857663601128 L 584.4465630144615 512.4236015026696 L 409.2852263756388 385.2887507361 L 599.8058132682359 530.521742310196 L 235.74917973935857 643.0549634917061 L 282.54043249083475 317.9202987419279 L 337.4814034754811 486.55319513651193 L 173.75307768336899 231.1350752763854 L 559.2545887903793 193.4448824636186 L 444.8127943107978 435.68139002038055 L 518.2678991807885 256.13884452957734 L 628.5599878679388 593.964303828245 L 265.53507338190707 553.5182790996209 L 425.2582017295699 422.8308320605346 L 230.56490637478763 581.6589776758722 L 191.48057345430757 199.32626395206083 L 490.46834884170056 308.88886899008 L 314.63046906370084 312.5406335985223 L 608.8719323473663 202.39943870375703 L 570.4091661356986 585.864712918069 L 369.5028441411 427.09606413199054 L 529.8608228382711 550.8450599225105 L 169.64423646713013 592.1240645349333 L 279.6461409688827 251.02256922223708 L 360.1531085559075 431.174354383845 L 244.58699082636628 194.82269021236226 L 629.4793400271717 231.7587358638414 L 465.43750916396516 492.24596670084816 L 513.200145123113 322.3289358975608 L 561.3374923997429 643.2011686251287 L 195.66799149023905 530.999279115492 L 387.26871550259233 379.4414949689934 L 218.69714318579793 508.3920421617123 L 250.49289851640773 140.81127178795884 L 555.875584654153 313.30521145395005 L 368.3622388755469 340.9619424065832 L 636.014210588607 278.23250455618506 L 523.9476113410124 649.7445645049488 L 312.04256168769996 441.9525757508208 L 463.25313107536243 538.1321135046074 L 129.6540999376835 518.7201110643813 L 309.8461029985249 185.66500299581648 L 406.95065800749876 397.2034490811504 L 320.0890661739155 192.05765792802524 L 679.3790266900504 297.6188585789017 L 454.2309455940805 555.465806476368 L 478.93963798290326 373.84026261486923 L 481.79550660846655 660.3880719208481 L 139.0574848191456 477.5098530002721 L 378.0178453874846 321.5216869786502 L 239.37972229611574 442.29441416626753 L 328.6878743198629 110.90225523061594 L 615.9609324785042 350.296312136161 L 398.0727004560276 390.9833813610477 L 629.1868859456315 354.7453635884336 L 452.6076494134503 690.2246316536412 L 251.57828916085649 424.5140291587266 L 414.6163504686985 497.9995810758116 L 123.00244093282362 436.89716837364983 L 369.1473579738654 137.03734021375124 L 464.9607947198223 393.4059366855242 L 384.64465051865255 220.90745534244232 L 698.6064348787093 379.09356186032306 L 411.3908150358602 609.6931558277654 L 425.8848012318062 398.9993978710276 L 405.6066425562227 643.666263657769 L 108.56269849842488 402.1491492606782 L 401.12084886898276 264.2594577866206 L 285.33434478487754 397.2603021374898 L 411.2636504349908 115.13453020227121 L 656.110225889684 414.13905694280584 L 396.5425054924481 448.7653350160636 L 592.1264044690365 416.64376234575633 L 369.4414400192668 698.4221104288474 L 203.6215026303591 376.783691244249 L 394.35019675817813 442.1304389609518 L 149.70893768946723 362.4438875354102 L 447.0238753566202 116.84620773210605 L 518.6831602109104 421.621384988505 L 425.28748378491616 272.5267746803458 L 683.3907834376721 460.83638933742645 L 344.28981261152353 641.0849240536113 L 368.61851820711104 392.22968831344787 L 347.5360921034677 598.5286715489366 L 111.48201649965233 318.90992495034106 L 452.79844455923245 222.82348662035824 L 343.7474167965437 382.27483601995044 L 482.53178906770637 151.68648189309988 L 665.926110445005 493.0261209029977 L 363.7312626931331 498.7007891140024 L 535.1289940914351 452.066197130629 L 290.1292706870678 672.3823080284336 L 181.05983110519304 307.6814763782688 L 406.31336146806905 385.6578115258033 L 202.59591604494165 309.3942629007835 L 528.7348028878483 130.7077895540661 L 553.4932715369032 476.3473098517689 L 434.5696323637298 333.14081450508905 L 637.3715820407731 527.4743752829438 L 265.85404600497844 640.6913460207735 L 322.6475778027359 355.2899540269876 L 318.17801183250117 536.5862761359401 L 147.9278463010228 243.59096307424662 L 522.7061202867251 208.9750345123807 L 399.1361251714004 399.42581407086675 L 529.3822262936573 211.79087393016036 L 641.5488689898582 571.6708995760972 L 306.7893826789598 526.9031882965212 L 472.7478848838197 455.20455202023834 L 229.517458245793 617.5138661071287 L 191.27733482970288 231.07519640745508 L 446.9712043263546 343.78275282146035 L 268.8921946694142 286.9290551725618 L 598.5796595328832 176.891711718996 L 558.9115107029011 545.9557112829016 L 412.20402850248917 387.1226327115221 L 570.7881942092765 567.0019420011607 L 191.70659547666142 606.4590013127345 L 300.936972543076 296.88186008113286 L 321.6195619793552 472.9768948115692 L 210.79590181002035 190.30787908781883 L 596.223478907402 228.43599958930588 L 436.806708277836 443.44929510597416 L 544.1749737142912 281.687284462499 L 586.5264981558706 634.6863613284195 L 238.47073744083724 524.3122832133167" stroke-opacity="1" stroke-linecap="round" stroke-miterlimit="10"/></g></svg>