<svg version="1.1" xmlns="http://www.w3.org/2000/svg" xmlns:xlink="http://www.w3.org/1999/xlink" width="800" height="800" viewBox="0 0 800 800"><defs/><g/><g transform="scale(1,1) scale(1,1)"><g transform="scale(1,1)"><rect fill="rgb(0,0,0)" stroke="none" x="0" y="0" width="800" height="800" fill-opacity="1"/></g><path fill="none" stroke="rgb(255,255,255)" paint-order="fill stroke markers" d=" M 400 400 L 144.3306297907018 255.83671670569996 L 337.16589662899855 296.10803759957633 L 407.4231680733913 643.1748109309434 L 296.88719835214033 596.6618648741473 L 527.1255219336842 317.71436790475127 L 684.1662144087577 382.634870512656 L 369.7220783179973 385.2846152900786 L 230.16093777401449 154.37874414225686 L 391.7844417917977 310.5121127654348 L 292.9437464497333 638.5252986614273 L 240.64113404664892 517.5369832574331 L 578.2010735116155 378.1389647321026 L 651.6962539532099 503.86142852767546 L 358.6633686726913 347.3941001629043 L 354.4087996577921 103.52615860977846 L 420.1874788062268 346.5042983076856 L 188.05208895408018 577.2662730145464 L 231.39081491142778 431.2219462826246 L 594.2702186215448 466.61339022895504 L 570.4400695516125 591.5905694705668 L 378.9493667680888 302.959253875641 L 487.86533737853745 115.76449803608801 L 417.26892142748596 383.6667686035226 L 120.85631728663884 469.5350520742513 L 262.3761583614839 362.01607514187606 L 562.0879638732895 561.2222531717829 L 464.36856951390445 628.4436983525644 L 430.8503926953601 273.2633442428471 L 599.0279906912425 187.29999739193687 L 390.51999678559537 402.9862528827842 L 110.97556312304795 338.92194439820247 L 315.7274911046232 325.83533052064536 L 482.0140822314946 635.0739033382023 L 361.94183066996777 611.8580077895867 L 501.9454017176372 276.77429612647296 L 662.747450774198 299.23721420964614 L 356.9484291242577 393.6154222620855 L 163.5888658998766 216.2722128242088 L 368.9604121675897 325.9069304182514 L 369.0044185545481 664.3684657205181 L 287.7818692109539 553.8656275946514 L 570.5569251842704 322.34966027998416 L 666.9664356546136 423.0681840612424 L 336.7993719305752 356.7972751837317 L 267.58483046691674 131.2174648816765 L 402.6371887151142 352.6838469883479 L 249.10007592028515 635.8895619322393 L 255.8474143409971 476.56836935607396 L 612.4385514653134 405.34635811837745 L 615.5797849787639 528.811450116201 L 346.1426613137299 305.6699101291376 L 398.41449930178646 103.93983886637795 L 406.7371967001829 387.90078599188473 L 152.37520156559196 551.5811329362066 L 266.13670628344175 404.80398633054745 L 608.6427880148184 507.9740515556633 L 526.6287224738337 593.3546018458736 L 390.7577926495916 260.99048331450996 L 524.8297267616266 139.61654298053998 L 383.71938968647737 411.3868634335148 L 104.4154324574464 428.73362730750205 L 305.82368196931424 358.3357503611313 L 552.0866947251957 603.9070031244905 L 426.4584389493268 606.5198348138565 L 463.3448034372007 244.1290060234746 L 617.5153577962342 227.1888416225779 L 347.3311993215479 408.3882779781036 L 118.88029407890286 295.6312874576365 L 354.3446084841287 346.00251254254084 L 450.69786316641535 665.8264241788556 L 341.68119824809565 573.0957765097202 L 545.0412490930497 269.5723538105658 L 657.0566319957987 342.7947266003699 L 317.58278559382444 375.0052277944884 L 193.40163811622926 183.89614433531645 L 390.7288257224383 363.613420001499 L 326.05519408587537 673.6230110898321 L 291.42481034181264 510.333705660282 L 610.8599439857518 339.36528281778277 L 638.8971074145646 456.7992107841055 L 313.53433373727836 319.9563659524227 L 310.0760612601424 119.77770218392902 L 400.78838400858757 396.1679955601376 L 207.82042304962235 620.7440258294016 L 282.2155078416495 441.80228327403074 L 637.4064953124754 441.33654137577895 L 573.8697440029753 542.2820244703494 L 346.2511147972193 262.05936735772343 L 440.4261736834231 116.96681541966194 L 381.8558158292888 423.60681179160315 L 125.56035821996636 516.7017127200182 L 306.990465859911 389.5998295444058 L 610.4842642165318 551.7914705717437 L 484.23738386868683 582.4281997858953 L 414.2434856619276 224.18864639420903 L 553.3581985030505 173.0553338075801 L 343.56042952026957 428.1814432761151 L 100.38163817441415 384.9096856592039 L 348.42770983880104 367.39678626713254 L 530.1856120578077 641.9591976081415 L 396.54068628652516 574.6368979065778 L 502.9368960069509 225.60978528085678 L 623.7455777297292 270.65977001842214 L 304.40795813697287 401.02388376319345 L 138.882892211345 256.42884632680364 L 385.4289588635388 376.4803636282551 L 411.80986350153825 686.2961331221654 L 333.50236200080366 530.1996410523313 L 588.4501714826639 275.1360692601751 L 639.0951656653093 382.81693102870355 L 285.27521226568047 345.7537611702287 L 231.24484094392866 161.44902141073155 L 400.6153781264034 405.9967706736407 L 282.21446834049095 670.1388386206914 L 307.4856279380541 469.77720913681253 L 644.5940936590964 367.33135285314904 L 602.3555336166603 480.9758574433888 L 301.9272408717862 277.9051959071952 L 354.03563622988446 121.02317133149609 L 386.3998851718433 437.2422880807057 L 172.60654379212932 594.3611717729991 L 317.4798388517805 416.1965390282205 L 650.9642202339876 483.0600934329406 L 530.1177479243864 543.1473104198706 L 358.99574042488007 220.28825329216016 L 476.88799280092275 141.49462387862786 L 347.6725281756585 450.56491986574326 L 109.88425241705295 475.5772785361581 L 350.4551530115373 386.89512843224014 L 599.6187809708338 594.3440115492007 L 446.8686491388824 559.7615244388888 L 447.4180130645673 195.704557721973 L 571.0427296861824 213.23782126542542 L 300.2271190447961 432.6076868557345 L 109.09929486931651 341.77306815049127 L 386.5462854243639 388.41327703017157 L 498.22830237064767 672.1411381766003 L 377.14971418297625 535.5258768126117 L 546.2605139980486 219.3027072297879 L 617.2065035792677 314.02236144406425 L 265.4241065019728 381.5131060606958 L 169.28840691782588 224.63254912319084 L 406.3249689746725 414.6555668060921 L 368.64039966836117 694.7350825069516 L 338.0842021266919 486.83301776830274 L 628.4740086579818 293.0125511943706 L 610.405882757708 415.9124893736033 L 262.79699561566383 308.3512969176494 L 273.9107608762125 150.82612196630134 L 397.7758517293259 449.42809950730384 L 241.19712815110395 654.2007635530714 L 334.57678099735017 435.65391573442616 L 668.8780693360139 403.8857563030946 L 560.4602318782196 493.55941158051803 L 302.98591349098615 234.23065720027913 L 395.7395773627689 134.83771888512985 L 360.701092266315 472.38961348577493 L 146.44384008828123 558.9700981445293 L 358.61749454516394 401.9290929901955 L 651.942374152877 526.9794844381571 L 488.04921179385235 531.3545612356966 L 383.30780557993205 183.92578470114762 L 504.71659365971925 175.43176338474052 L 307.1084298150347 466.4623861240308 L 106.67536543036135 431.6887271152527 L 392.8115720854546 396.91142076249525 L 576.9522064318219 632.017687000543 L 417.6975046991487 527.3041808133744 L 487.46809857805874 177.98095661758228 L 576.3984403409162 256.7468963674497 L 257.4247914945256 424.2757209699513 L 129.82726125008315 302.9751052353697 L 416.9193243303787 419.5815196232858 L 458.91443993270065 691.8850899719744 L 369.92374887086766 492.53306981522155 L 589.6318012199431 225.7651796921768 L 598.4730265490139 353.59544740681264 L 233.7181271992779 351.5100394559442 L 207.51631502519376 202.92984898358273 L 415.2444336353112 457.2595112176106 L 324.84427961452985 690.4194747651203 L 355.0192583938935 446.6993473048694 L 661.7027400066847 321.7007131981791 L 573.4448515921503 439.27975413632885 L 252.0826449845288 265.98204147885735 L 317.7811502596276 152.9161459559487 L 382.44943898274846 490.1893045993367 L 206.47772379175504 627.1537783846479 L 370.37170328298424 410.8739088288298 L 681.6350325909098 445.93523530967934 L 516.785452863981 493.4980978503127 L 316.6399185995465 192.6578722793591 L 431.65594620700347 160.03521089877015 L 325.88428859637077 498.5974331391644 L 131.54721146645102 517.5667563179854 L 402.10556676930963 400.2126336163288 L 640.2424851732733 569.3702270163128 L 451.2462027759461 507.92861492273164 L 417.13381530801473 156.08076482783028 L 521.5635681112892 215.8857469038629 L 263.62784683909445 469.92810137863506 L 116.20087219462022 388.7522557062506 L 430.43488903215484 418.7872699908894 L 544.3950263060422 661.6138178201077 L 399.2010401614385 487.8392470895584 L 530.9951176612742 172.5445557154226 L 568.9900017988209 299.88229020334563 L 218.8135987136282 403.8818105833002 L 160.80198794522866 271.7977776715093 L 436.9461466052278 458.2335638015219 L 415.5699625151486 699.511873989587 L 375.4653773526955 449.3352125769691 L 629.3628098002839 244.46754069693276 L 569.1581351979223 386.02049133844105 L 212.0089461284392 313.5620235984342 L 250.32020171275585 193.1489401830499 L 411.41874637908745 500.64655028616244 L 284.1296676324842 673.7112796053025 L 382.848417435128 413.2268192281658 L 685.304780924171 358.77906173891455 L 531.372291742163 450.9452737421927 L 254.06520698653935 222.25306047301703 L 359.1352500903953 167.52556004045334 L 355.93837990010053 524.7895885891184 L 180.9946792046715 591.2885531665295 L 411.8028648693893 397.55184091499814 L 681.7694135313873 489.9187184374168 L 475.0569029130111 480.8166160140701 L 341.7465659844728 156.7330727406073 L 458.7455191207281 194.4605089916539 L 284.9180107638936 513.6142394768152 L 129.17249981572712 473.6589041965009 L 444.2210586454295 411.19134481158045 L 616.8453445720925 606.6379432926705 L 422.8424973732654 474.88464930604067 L 457.61032709976087 139.13692972261845 L 526.0153836987506 259.4093397854374 L 220.9434158937752 460.6492944520277 L 137.64389661514832 350.4030008094513 L 460.1032149924923 450.65159971272243 L 504.69970351052905 680.6213380606048 L 392.9475727472216 444.746350036013 L 574.304423715044 179.8760712734123 L 549.4686963369901 338.97557926424815 L 187.69692095872958 373.14908555387353 L 199.38764914688 250.87432027485488 L 444.90687368224746 501.0643357878324 L 371.86393306813744 694.3738162370403 L 393.2902489687065 409.6264761533584 L 662.0754566141728 273.8381487547013 L 531.7756010459026 408.54750209489555 L 202.16446903099475 270.8927872022395 L 294.06412904977043 196.10312329471338 L 395.1643312479943 541.1043570797115 L 249.94240694164412 646.0274194051118 L 419.1851276840967 389.2765288776572 L 697.2680367227231 401.1118387990237 L 487.7835432730483 449.93179319994135 L 268.59683483150366 180.887207793375 L 394.4665396415561 193.39507319779005 L 320.4971018631907 550.2626316570729 L 166.90014287059046 549.6464299005522 L 455.32291221434593 396.82691240216894 L 669.260177116636 532.1104760231765 L 438.8345731848433 456.6140381872312 L 376.1881858263976 129.52170723199401 L 474.7205175163928 235.17293814649835 L 241.29433597962117 516.1412277761058 L 139.50957910931731 430.96748945980187 L 481.3578248019606 433.92863150272655 L 583.7275116962619 635.6243556444474 L 405.2568018077677 435.05662909836656 L 501.3077168247736 134.55001982652033 L 517.71371817076 302.29402420099933 L 182.7000259458008 439.3981585560239 L 169.17305256477553 319.88557764269046 L 479.27188700350246 489.7829791500989 L 461.22635998291054 687.4305629336377 L 399.4631358477102 401.71395600993344 L 613.7198747582588 199.369299563492 L 519.5169732086639 370.70247975632753 L 166.74014880659257 334.68084995165174 L 242.30053148662705 241.9650536690989 L 440.1088423517054 544.4130005305417 L 331.4961910172206 676.9098844695825 L 421.8683083913321 376.80398072577657 L 684.9891008062559 311.3971772558182 L 489.5259801764251 419.2691417469547 L 205.04256589396007 227.12801078219226 L 335.0321647885098 211.5215686476071 L 367.85570551571635 575.1699562026636 L 225.17267376579767 609.7191460711563 L 460.918567488644 376.89891117254047 L 696.5711930443024 445.11597012316327 L 446.4029940042131 436.3414481577743 L 294.4613745236354 145.4061976036416 L 420.7812479022899 228.30684070020936 L 279.14029934670947 564.4191155423717 L 165.37677461587717 505.7605119406177 L 497.20665580507574 408.7658910246753 L 645.1626139040295 568.9372929451814 L 411.20967620287877 422.9702443487504 L 417.05240670396466 113.34747859587998 L 478.2393672946359 278.6966275470614 L 198.73160015379406 505.94286396619015 L 161.66619139157885 393.1098838829161 L 510.33356399109687 466.4868523474508 L 543.6930487356606 653.876152067699 L 399.98684661617114 391.856049324821 L 544.5221439276858 142.72385218546447 L 497.38596353871594 340.88570672217446 L 152.16452743203158 407.96611423101245 L 208.09835051465896 299.77786483661816 L 486.290096200472 532.841299639571 L 417.65672824210213 681.4702218806534 L 418.1866976133621 362.4253703250521 L 645.8967847992777 229.38272318271794 L 481.7052210278367 392.36584516626755 L 157.74377737001385 291.7389618029976 L 285.88857783205043 245.80752756075495 L 422.94557149045846 584.5746100583374 L 297.882383546485 648.6083186895842 L 458.7540498648404 353.67859739180517 L 696.1572608195193 353.96772302152254 L 446.0241485977124 417.2830979736629 L 220.41804008967247 185.98667107610405 L 369.74472110364974 238.07237221394436 L 331.8084665206246 599.9245282911143 L 211.90893555839185 567.8718780623035 L 504.4784706169852 377.15918625724703 L 683.270660758179 487.0660936709058 L 410.7670208849719 411.34707001315473 L 329.4778964686643 118.83079943664325 L 435.85321443387653 269.2732701435549 L 235.38629180921274 566.0331011154872 L 176.53706536594544 463.35488955875854 L 533.86819704883 432.357427865535 L 611.5185027782809 597.282657769556 L 394.5414897065632 382.7688612944499 L 460.8800868555678 109.59452611880238 L 469.0209075211158 321.3164128430287 L 160.85785449912098 483.8669357884002 L 193.743905080098 363.2919351119209 L 528.6607296913021 506.0922719028826 L 500.13480985649403 659.8538375462306 L 407.4818842631971 348.9815133643852 L 583.5908607753659 162.97594331156904 L 466.7833028567299 371.89579272729554 L 131.94762397884216 369.0113050639405 L 251.10019740784642 291.771548675771 L 480.5414218694219 576.1521194080744 L 377.6807241149404 663.2560910360951 L 447.517921830327 330.2451759816532 L 668.1066582297232 267.3792540215236 L 439.27294952641114 402.1252753859707 L 161.49012940198884 247.96614987938588 L 326.442288331611 262.05373290161685 L 394.8632616866335 618.1155071847464 L 273.86319027791285 611.8799366909233 L 500.794704099677 342.23565756591154" stroke-opacity="1" stroke-linecap="round" stroke-miterlimit="10"/></g></svg>