<svg version="1.1" xmlns="http://www.w3.org/2000/svg" xmlns:xlink="http://www.w3.org/1999/xlink" width="800" height="800" viewBox="0 0 800 800"><defs/><g/><g transform="scale(1,1) scale(1,1)"><g transform="scale(1,1)"><rect fill="rgb(0,0,0)" stroke="none" x="0" y="0" width="800" height="800" fill-opacity="1"/></g><path fill="none" stroke="rgb(255,255,255)" paint-order="fill stroke markers" d=" M 400 400 L 136.32941426940715 282.55749325153073 L 505.2410788874379 516.9546895887302 L 462.6049174567938 592.9823244118309 L 428.17011020887344 133.56277374692905 L 428.45971694389095 350.79411639431805 L 158.01675515117418 575.4687415830342 L 503.79084175801813 378.0558285511202 L 635.75110564623 450.41497055189024 L 208.0571548627792 260.13730988407235 L 344.33567291953545 303.24175042236453 L 430.6809645171218 696.7588045588082 L 415.8474849849714 351.5322880602474 L 581.4334798403831 199.3095038918846 L 218.52161770629155 480.32964893781354 L 237.63332977663404 399.623847245006 L 661.866941651021 517.3669116694703 L 403.96784988179286 404.4300797639417 L 311.0886287990097 123.74813805413834 L 383.64239569858506 551.3583363112998 L 295.8340360085806 579.1405498493959 L 615.0508267475142 244.81959151553176 L 461.34612916317474 387.1781807611099 L 107.40939038875223 336.72080817048743 L 481.0878609142048 459.3742483350029 L 521.4680824394094 612.2775506031429 L 376.4937133824353 167.37039961981034 L 436.65801277345577 288.75878482457153 L 199.8736678405686 620.339107672527 L 441.30284322162925 381.8320126094677 L 673.0591379553887 401.2651919034721 L 223.18541167403433 320.2605323511985 L 288.6462600160329 275.0931889427463 L 486.74055369980204 671.6634281481947 L 398.6948488709213 411.8202681124455 L 547.1919514646822 148.20920946720915 L 280.5267261210346 485.7915639659772 L 192.8896173571808 442.78715685399465 L 656.3035524795823 456.0531727062202 L 455.15434210670463 440.5817922179561 L 251.76317964633165 139.5435053788724 L 409.31976848344635 494.4192914903568 L 321.8449950655253 635.331167583603 L 555.0600815511809 230.07149549485666 L 512.3166728655899 350.90521003302814 L 103.15014198438831 397.9368458461366 L 435.7274288951659 416.211987172818 L 582.8355348655971 606.0478082538737 L 342.8127022836647 219.4521716857863 L 419.29971919790563 228.84539477373156 L 256.4733881687339 644.2204053861584 L 385.4912424318085 410.367612867027 L 687.0702916434446 341.3869441132082 L 261.4734438890815 369.36802351808217 L 226.59025193958658 271.7872510755126 L 527.799702989918 625.7629097127358 L 407.12249984701555 473.90979692015856 L 495.181232845067 115.60581929117245 L 339.71030696964107 465.7641233473609 L 169.53326362187363 500.10412632567477 L 626.1696990030712 402.0959138551523 L 516.4216891938454 453.15410305049994 L 204.09241559518145 178.18758647343563 L 409.9905559025866 431.79721290371515 L 368.23571302462585 675.9504502952102 L 493.9707821119122 240.9469370086735 L 544.3100306959259 297.38368376401047 L 124.29677642286521 455.6271353361294 L 376.8069921649901 394.8150101754865 L 636.1670811367143 575.4608653476464 L 332.9805277232208 280.96520482831534 L 379.4274845657754 181.21278186424848 L 318.0652052184026 642.9433546030622 L 345.8028285532182 458.84412828929936 L 675.4351555388482 281.1213854088801 L 316.483751933668 399.0325534279853 L 168.76266118092673 293.7769972163794 L 546.7250469937575 566.9041863066485 L 439.6723822623363 527.2968828039842 L 434.4022768543964 107.10665789036824 L 386.00131716254583 423.56904111885586 L 171.46303643325146 561.7127549061917 L 576.5426138894231 364.80540473852335 L 577.3678453493625 440.08372293062445 L 176.32279269895366 233.01290834584117 L 385.49412199780875 374.09558817144074 L 426.9654963285019 694.0841662034768 L 442.2426928080852 275.6986772148943 L 551.9692615664744 235.76580513390888 L 167.25107145641613 499.8161033843579 L 314.2923551960988 398.8085786759493 L 672.2960308429458 525.8488009291526 L 348.7727620147068 341.4545022283706 L 323.9336994107221 153.9203812758326 L 374.0452548681133 616.6398526318897 L 328.92742958177166 519.0331953961223 L 640.1887894268466 230.87609812411924 L 378.91984609029794 404.1516736757229 L 125.03603313495887 337.1904399473818 L 540.1675991215161 505.1492513257191 L 490.76159813054215 562.9653756588452 L 375.35505769716883 124.19825704898307 L 411.5334997054264 366.31840268990373 L 198.25463079625007 617.0168493946071 L 515.8320518753518 350.64195111746574 L 627.6452994606826 403.69199739607524 L 173.29839299840083 294.5858004641258 L 339.973305809556 331.07641829498436 L 487.88381951059245 686.6621187709566 L 408.7345302160446 328.49724220987986 L 534.0979956268644 176.58856759870932 L 224.68668840018492 522.8366709388437 L 258.76399560809693 427.47627533309577 L 684.9964916178906 465.7963398290176 L 387.58351497247907 390.6405189268025 L 262.38205421292355 151.55025074098685 L 414.769538888812 569.7204244795543 L 337.6541069905473 580.7034486138732 L 587.4027745888723 199.34562869385528 L 438.21573099546487 383.8201197063385 L 102.87246744975442 394.4925673074675 L 509.1353537245501 451.05478433542703 L 551.6369550416762 574.928519748966 L 328.2433139232095 163.99219230189775 L 411.9903323680789 303.69866327506986 L 245.2332171238886 656.4977314825063 L 454.34241596651657 362.1113290622562 L 658.7302608612564 350.2880082950364 L 195.6326956696425 352.31933731695085 L 281.16609176116754 309.99114129788086 L 540.4658344761349 654.9830793382312 L 399.18932537935075 390.4276272393576 L 493.86498387614347 129.97217053468887 L 286.8018077442912 520.6411500808946 L 219.60804715625395 475.88249572807854 L 672.0478549540398 405.6730595299318 L 442.87097955750806 420.1767271327196 L 205.3723661014432 174.42364535822722 L 433.20282897038953 510.120125876162 L 370.3942920324727 633.3698480743674 L 526.1471117116532 192.0249175132716 L 484.3424464961005 341.48459088571906 L 106.04777033036282 455.7736592874297 L 458.82094437501195 413.8672009146038 L 611.8715617513267 561.252549515922 L 301.22994095001195 219.71893664207943 L 387.34305307777015 246.31448810151957 L 304.2727317600343 673.3417147570672 L 402.5109422261024 397.3363530489712 L 665.3800307150627 289.0898637310451 L 239.60368427114224 396.28346112932087 L 219.0825925922354 314.3408045857527 L 575.6118803737797 604.4927264184884 L 415.25249688784686 451.0135559464245 L 438.26231217999737 103.88969710524674 L 342.99501522676337 493.49330804338285 L 203.41148813869063 535.7163242361644 L 635.6144703073905 355.86042815090855 L 505.2759290816654 425.0766799029127 L 162.72825164549633 218.546091971577 L 426.1215308900656 447.9418323520903 L 421.4533964584606 668.0863799125161 L 466.9394578249245 210.26978807572007 L 509.5227877940616 284.35444449954366 L 134.0058785034658 510.44362496210454 L 397.7138247698748 399.9417276125488 L 661.1475879114525 524.3873169826236 L 299.0413209777891 281.8852937797478 L 341.8555766126675 203.8755997512293 L 365.18524940362795 664.6050901094258 L 369.1231731622545 450.3778300167112 L 646.5293819245444 230.64861120094 L 297.7902243453854 418.9027952455868 L 164.29355042911675 343.2774681283148 L 587.2033191235959 543.8525589427883 L 454.1905217582676 500.00868127159725 L 376.9099126752233 102.80389976797693 L 383.6779002697606 445.9232712352208 L 212.8359212129964 596.7125107456404 L 581.875591924182 324.9768094095081 L 564.2219285861343 404.56657801611294 L 141.81751213992152 276.290354137431 L 394.6648466254589 393.72888083239576 L 482.0044584462427 678.9756184058832 L 419.94684720135876 251.06513020742844 L 509.56102704370414 222.16906149673125 L 181.95393354588526 549.0426674530815 L 336.1487689740778 411.6558039603483 L 691.0203768965939 470.7474210451691 L 322.15921788558785 339.8975163992509 L 283.35546195398797 183.53664017313486 L 417.46288660077283 631.7174337510755 L 359.8108328559404 512.2500235996074 L 605.4726871464129 185.04424864768404 L 360.34090539467456 416.2518610135764 L 126.12298307273795 391.7491847966864 L 573.1486843926781 483.4589779446475 L 509.3583049475302 529.1484737133849 L 320.41077370499727 126.90417184928651 L 401.91445399841746 385.9529796511075 L 246.16250245629422 648.4065937800805 L 519.968868996935 318.4039180224753 L 609.7236609375298 362.2175706545046 L 146.29240699645143 337.70051632654986 L 344.1399983266016 356.66240243668443 L 541.5973526056475 664.2336298987583 L 393.2473607182745 307.54041275380416 L 484.56028449266347 165.53263617755144 L 241.68175104596995 564.8586945224688 L 284.5388641815512 447.00259488163755 L 696.362288876468 409.6154559433765 L 366.73840455746733 383.8725934036369 L 221.89557816703118 188.67389290678008 L 452.07441074059415 580.237183704945 L 376.08893274666474 572.4570074284609 L 549.3006551999945 160.16227418218458 L 416.6584043413078 388.7262457750009 L 111.05399155820697 451.3637695427987 L 535.741276527291 433.66573976766455 L 571.3353380247058 533.563264216357 L 278.53806967963703 172.07416555418627 L 394.606967364957 323.7246212068622 L 297.5858263657808 681.9240842068759 L 460.42801811664424 337.3666678892044 L 634.0941853315157 305.335169506816 L 175.46519961083624 392.19421885821 L 283.1148163817627 342.9915612488329 L 589.9455237483904 626.4384029742087 L 391.44895837051524 370.14438486337076 L 438.90489514660544 124.10110261558896 L 302.9655741583814 555.0749346642478 L 251.59511373001283 499.9341135618472 L 676.2394100675458 351.55489827698494 L 425.264106473652 406.3280175477879 L 168.0352932635371 218.30801796890697 L 463.00937560321483 518.9012755885647 L 415.09674091159957 620.7872263092277 L 487.6879810301136 160.3454449615801 L 457.2113829340612 340.9749676219264 L 121.62029934228764 511.823672691528 L 481.2670629044322 403.013700546393 L 629.5363899178421 512.610843751323 L 258.5641700969967 230.59559299015882 L 363.02566798563464 269.7665522814868 L 358.2065192031287 691.4978001335487 L 413.3818002101928 378.72373792652195 L 633.2592261402087 243.7101724844571 L 224.4257430489053 430.37200041694143 L 221.9528382161859 354.9650922415397 L 618.6847539081531 572.1090703872744 L 414.90162291083146 428.2781188820202 L 380.5107858548386 104.93119182860278 L 355.316101872998 521.2515426526677 L 242.83705743048824 561.3952886323282 L 634.0712309813018 306.60399250424484 L 487.8368537903313 403.4611219374088 L 131.03506334746288 267.27149850778846 L 448.3057716806519 458.1313281834657 L 470.0869031536016 649.0594364552921 L 431.23919328735525 185.65126354797795 L 475.1641261802765 281.10560099740843 L 155.97304451079685 562.6866269079771 L 418.9299237572506 396.77052507246896 L 674.0213385390773 469.9862641411537 L 264.0172288721684 292.4678763630987 L 312.5915399324451 233.19319230811362 L 417.55282997500336 675.4539235102209 L 386.82223562335776 435.5046639943391 L 607.4537788390307 187.94466046074672 L 284.88100109359374 445.62439205937955 L 171.0413823457444 390.44682087543816 L 622.8032537695278 510.5912857027081 L 459.63751999441314 472.1071819588178 L 319.47203114858587 111.27389307812899 L 389.77191924065943 469.058851035983 L 259.6490589988864 620.872173885352 L 577.0459923480571 282.5594390976385 L 543.8650616518755 375.7992481766609 L 117.27310591029953 327.09216968327473 L 410.38548662377417 408.2517868115775 L 531.5790874050351 652.52150902262 L 389.6755216688284 231.8421445571991 L 467.54529099598835 219.29806843558484 L 208.19689360423806 595.1510375706497 L 359.27800179301323 416.03003635179704 L 697.1947035730432 413.09006671260516 L 294.07794869760085 347.11801741698866 L 251.94945931676622 220.146669161643 L 465.37106187466077 636.4981853637639 L 385.23815286766177 498.10162650414503 L 561.1819293708224 147.63928321388713 L 346.57296579838186 435.26198647955283 L 139.01555640215514 443.28090170777796 L 601.4985656572433 452.45932968096446 L 518.0494060715239 494.24309656324766 L 266.3349957576828 142.0186097528138 L 400.43169409786503 407.30787545837495 L 299.04361379968617 668.1895921521916 L 514.8916611614 283.6433353361069 L 583.8759463063668 328.10958231917914 L 129.15486984637158 387.44176659054074 L 355.64021976971776 377.72468115438824 L 588.9809047013929 630.662933605663 L 370.1727881377376 291.10994287768614 L 435.7559358412277 166.06410828171698 L 269.3214288462093 603.560855725934 L 312.4002137512522 457.52519643249974 L 695.1042992829698 351.7629571896005 L 343.7196598973051 385.2083376388713 L 191.49011823227906 232.74665826509312 L 493.378721453009 581.2532485488166 L 408.8477028676568 555.9121653559788 L 502.44675691324386 129.7517671218921 L 399.03254015582485 400.97526659354565 L 131.28185304279856 504.34432858087473 L 558.3147673178066 407.70814958760417 L 580.191291828067 491.0065987098708 L 230.29514586951004 191.88304643783624 L 385.46316977801627 346.44383517364923 L 354.17214585323273 695.2508574510241 L 458.2126717646696 309.78129129705155 L 601.1351518872559 268.5840746060446 L 164.7017578135325 437.9018227391777 L 293.3386498736214 371.7028134590428 L 632.3989663974481 587.3021022271673 L 376.13450452056145 353.4109657410014 L 385.3299699257847 130.45000950410838 L 328.8548847427764 586.3726348485691 L 286.20127907547857 514.186694493168 L 668.1169674744208 296.603268413742 L 404.567763503836 400.2330070981968 L 141.5734541772551 268.72796884734316 L 496.6806372024573 519.1263849626242 L 453.56106118124546 599.1519556027652 L 441.3819890229468 137.40730216246698 L 433.3695121468365 348.5455732980848 L 149.09376499664455 563.1067612772788 L 500.5365177906155 384.044451257741 L 635.4789775487807 463.0567057001067 L 217.62483306744022 252.3163608351902 L 347.4164391858811 296.76026220393476 L 415.49595952745307 697.4221228015585 L 416.6768111207982 356.61514666773263 L 592.7981688026521 207.43880303196133 L 217.88941998935803 469.74499093117174 L 234.0417053062589 391.14874877882755 L 654.3304283606376 529.9334502587526 L 406.6099486645992 408.1832121852174 L 324.98797967571716 118.48990474597866 L 376.57800025613597 546.4194268716093 L 285.050196250995 576.3516364360289 L 620.8558557730503 257.15488619553116 L 466.3315934922456 389.63039208835437 L 110.75733779943164 321.8278417971763 L 474.60592373848044 460.7010484566423 L 511.67969525568924 620.527700763949 L 388.5193647574741 169.36420476858788 L 443.79257564600204 286.8566302910017 L 189.33746788470577 609.4309740421661 L 437.9435496393831 385.56902799646366 L 674.499707834112 415.2780372117675" stroke-opacity="1" stroke-linecap="round" stroke-miterlimit="10"/></g></svg>