<svg version="1.1" xmlns="http://www.w3.org/2000/svg" xmlns:xlink="http://www.w3.org/1999/xlink" width="800" height="800" viewBox="0 0 800 800"><defs/><g/><g transform="scale(1,1) scale(1,1)"><g transform="scale(1,1)"><rect fill="rgb(0,0,0)" stroke="none" x="0" y="0" width="800" height="800" fill-opacity="1"/></g><path fill="none" stroke="rgb(255,255,255)" paint-order="fill stroke markers" d=" M 400 400 L 308.13898027302594 114.98870622346408 L 429.44475462232185 378.8192319410351 L 162.53149104827338 224.88101972887807 L 422.8995235548013 331.7273180263448 L 113.68664309704042 396.6136367814486 L 368.4732808835328 298.07075944310566 L 176.17626400224142 557.0219944564199 L 288.46585407218276 315.69568973395553 L 315.5704907242253 642.179853544274 L 229.17082157231405 395.95847997832817 L 467.0006585703387 626.0570152318273 L 235.3909213030143 512.59916233326 L 567.2989566009769 529.5920220752855 L 323.4008426880062 611.6331720821661 L 584.2420184095952 406.5397916563941 L 467.49323693919047 638.0153033654692 L 528.4523130707682 314.3457531681584 L 608.4274396280683 565.431504894831 L 442.9307975731106 285.6329940264871 L 680.5832276035799 413.28365332941263 L 376.96037116101127 314.9298650433076 L 644.4826575071647 241.11935815205143 L 359.02117335437583 366.67708645157234 L 508.00867783281404 122.2939784190242 L 383.3041565086981 399.0115454822825 L 325.0069648794174 109.52805216905432 L 416.57036894730646 389.50813139693935 L 171.32529717932238 209.5109654556278 L 420.78876804412135 348.3651554297558 L 109.8534319401499 379.3761284818383 L 378.3203098797882 311.7273180722764 L 161.79010902251773 546.9098726731968 L 305.0655658311864 318.99746094228783 L 298.22314304282463 644.408181782313 L 243.6728663393017 387.0282705541471 L 455.78791574810975 639.3360259607147 L 240.00116936176656 496.08196508834175 L 568.0264019929855 546.8372283470637 L 315.537030451199 596.2571970753446 L 596.3833616848165 418.63652837584124 L 451.1872097639213 631.9745734869475 L 545.462945962144 314.9714581282234 L 592.2228412845517 572.0339920077855 L 455.7419089916024 274.58470469728076 L 673.0338077759623 429.172600494869 L 378.79631212516165 298.1999706293772 L 649.6294570110922 258.01633345839525 L 348.98536526884044 353.2450615851155 L 523.2294337023992 131.3491670145596 L 366.8351754394425 396.05923141797297 L 342.3792042065327 105.98240783940889 L 402.53131023564777 398.5996069335129 L 181.7876097954779 195.20740559594142 L 416.7387712774321 364.6183204747062 L 107.96976611592174 361.792198540117 L 386.48083362798195 326.4159117768087 L 148.60263229226902 535.2220059301644 L 321.12505335439687 324.2015044820847 L 280.6893293520946 644.6657717022842 L 259.067469754992 379.8630434911035 L 443.1026724263197 651.2925841091269 L 246.4643971080589 480.25744993148646 L 566.7752355299887 564.1081144789421 L 309.5054573419893 580.1343293054255 L 607.0876751565731 432.09300544600853 L 435.7222671022701 624.1424399597661 L 562.3388151652044 317.5705419739879 L 575.4224205602933 576.7488754076692 L 469.7914549733182 265.0782475752701 L 663.7667014765493 444.0772102828464 L 382.58761119392733 281.76392966504886 L 652.845832255549 275.35362671109806 L 340.58599754539415 338.70355782017344 L 537.3289324405587 142.03650927044083 L 350.81692667603966 391.18203414216833 L 360.0329804858002 104.39692616811283 L 387.51859255154073 405.9705712720373 L 193.7852842925229 182.1544989386737 L 410.80654082884394 380.26684246111597 L 108.06257818007106 344.08749355648547 L 392.8476646528195 341.93617069372254 L 136.78658120401371 522.1060416396783 L 336.4296938813854 331.23315644163915 L 263.1961358103527 642.9440881416822 L 275.14622541934614 374.553379682368 L 429.1061037217806 661.7664928748218 L 254.68877496277833 465.3334774569761 L 563.5553743729181 581.1776529706854 L 305.37949946864495 563.4796391316074 L 616.2083681025169 446.7355842369918 L 421.2981367814785 614.6272943359168 L 578.8544487781047 322.1147023202641 L 558.2464944954224 579.5204691347049 L 484.8944791380405 257.245642273916 L 652.9061489577937 457.80720550067906 L 388.2877689083621 265.8441727220952 L 654.094156249496 292.9071270211198 L 333.9396500442222 323.2476298209729 L 550.1276035882561 154.21673479703685 L 335.467334500539 384.444342712731 L 377.74186768014283 104.79092586031112 L 371.73608374275483 411.5206513778757 L 207.16493876197723 170.51992367414363 L 403.0739308685173 395.09873838770665 L 110.13275077245112 326.48926026683023 L 397.33729765891394 358.0767563176087 L 126.49663504623055 507.72846074906147 L 350.77484178875625 339.9936362421399 L 245.970130031222 639.2606897954257 L 291.69171574469874 371.16536603012713 L 413.9766903514312 670.6170919415182 L 264.5592456014809 451.5060074551626 L 558.4027014478115 597.8214501242854 L 303.2073886152629 546.5151912339629 L 623.6197258635748 462.37496254311844 L 408.100800611493 603.5597138565046 L 594.7891065887037 328.5499702959074 L 540.9203114656713 580.3187161173649 L 500.85210681538047 251.19683040060494 L 640.5973878348095 470.1878095669452 L 395.825087812972 250.65633199587725 L 653.36274648958 310.44988766435813 L 329.1397682314855 307.08441350229265 L 561.4630297021033 167.7309026025548 L 320.99550295305085 375.9351095756082 L 395.27871811863247 107.15763658433718 L 355.39781622451005 415.1735124818994 L 221.75497714364326 160.45266566003156 L 393.6465624124484 408.91280920828956 L 114.15510495090143 309.2233480808503 L 399.8910110147871 374.6181492683995 L 117.86736469544587 492.272381822072 L 363.96852803040923 350.36134968567023 L 229.2343725561828 633.6589976628355 L 308.4803798968226 369.7397237609589 L 397.9078644243319 677.7251129075551 L 275.93904170918245 438.95651408535525 L 551.3785921997185 613.8207059334119 L 303.01157610385377 529.4671154068349 L 629.2185681618706 478.8086715590191 L 396.3000412116227 591.0907389945656 L 609.9296918135055 336.79742236170273 L 523.6710800249472 579.1395845724405 L 517.4541683272041 247.018225281129 L 627.0047372855215 481.0620518576749 L 405.1036181526484 236.40639691249888 L 650.6660190055592 327.7551196055419 L 326.25543050814224 290.43039373545855 L 571.1920886738751 182.40249760963502 L 307.5989575402829 365.76667722347406 L 412.4186586499365 111.46428829418386 L 338.7251636879929 416.87786502054297 L 237.36785263460544 152.08105325123358 L 382.65243007135626 421.5212938414369 L 120.07873229366231 292.51123005171087 L 400.4756413238606 391.33554496826315 L 111.01145755227083 475.93514565873386 L 375.833992364824 362.19349292899756 L 213.2054745874647 626.2077223544935 L 325.28546276712865 370.29127133088696 L 381.1054580151315 682.9942525437343 L 288.6714901036504 427.8495921237301 L 542.5691050859256 628.9651001913528 L 304.7884367151054 512.5626237350494 L 632.9256101783574 495.82374653247257 L 386.0472025155754 577.3898810764995 L 624.0735620166616 346.7542212959373 L 506.7249718905135 576.0051211129193 L 534.4819712594436 244.77157203656387 L 612.309430549409 490.29283817927137 L 416.00442347341055 223.28799693025238 L 646.0442981500755 344.59918294142733 L 325.33043695564254 273.50854873452323 L 579.1928415329756 198.0397589840356 L 295.46103967058224 354.0732963240484 L 428.94205679322283 117.6525435062083 L 321.9439209671282 416.60814121480365 L 253.8025414986108 145.51106461540036 L 370.24021367713567 432.7523459241446 L 127.82766639070826 276.5670815726203 L 399.0840208653946 408.0018190380852 L 106.01823113337201 458.925712315341 L 386.2120149711234 375.327936231194 L 198.0907407913355 616.999957813026 L 341.8800060795646 372.8087290048218 L 363.7849881735895 686.3524431230766 L 302.58207843282526 418.3307858608614 L 532.0838464820262 643.0555667423249 L 308.50831657839393 496.02701349022635 L 634.6865084315278 513.199535865395 L 377.47319349476334 562.6428862605142 L 637.0312021279263 358.29497261766824 L 490.3041386057621 570.9631598653655 L 551.7111851543654 244.49313305015733 L 596.7072243239339 497.76475906002986 L 428.38714943294764 211.47984737717823 L 639.5632846407594 360.7645368049617 L 326.38273151875546 256.5454087896577 L 585.3661408281665 214.43820956614263 L 284.7484881845431 341.00935486410543 L 444.63741776133713 125.63926682440677 L 305.2813255966514 414.3648323590556 L 270.84719464485664 140.8249298616184 L 356.5773170585752 442.4523006387728 L 137.30188486580636 261.59495533432107 L 395.7350721354223 424.3905232865831 L 102.95245492799114 441.46190485840816 L 394.9630166884209 389.5853626118468 L 184.08543486089405 606.1519534016767 L 358.03984218029507 377.254867689778 L 346.1688141829481 687.7528030710965 L 317.48075717940543 410.52466928887196 L 520.0545249771648 655.9069192869804 L 314.1159243955253 480.0806952870737 L 634.4725776655055 530.710611610001 L 370.6867614322004 547.0492853675692 L 648.6287243048197 371.27337855445137 L 474.62378123291563 564.0866914353173 L 568.9148005719388 246.193209568929 L 580.4058165813512 503.3856120036493 L 442.09187512743574 201.14339201435698 L 631.3131888716233 376.0426088189384 L 329.40416525076415 239.7680681513142 L 589.6369383771627 231.38335303605484 L 275.6092398875703 326.7473416698883 L 459.304174142036 135.31762156926465 L 288.96306032893835 410.1744823764783 L 288.281932000339 138.08004642195726 L 341.8476598322094 450.4877017165511 L 148.3786287121143 247.7860898073499 L 390.47355823994536 440.2788727884194 L 101.85349605829754 423.76753621004207 L 401.96890019171747 404.7716332366005 L 171.37020390703836 593.80158055772 L 373.5465510099238 383.5670000538369 L 328.48320456486385 687.1742553920653 L 333.1644466102188 404.5332029004458 L 506.6332141259231 667.3502941025902 L 321.5310608391947 464.93628569779224 L 632.281169287596 548.1297429675761 L 365.77305752438014 530.8197618805239 L 658.710161659192 385.5241677389846 L 459.8893117249225 555.4729000378854 L 585.8661234907219 249.85600574759445 L 563.6221068774393 507.0876176294994 L 456.9412225137902 192.42067342560645 L 621.4075409260251 390.2365462493754 L 334.36060373598116 223.4011894662106 L 591.9552751262509 248.65350324257415 L 268.17047809340625 311.4755711658827 L 472.7553314406727 146.55847903755316 L 273.2102761712677 404.08933772061516 L 305.8817428157073 137.30822199169125 L 326.24925134334364 456.7470618723018 L 160.91402153866068 235.31638675220623 L 383.36949243450005 455.4506846323095 L 102.73480001356057 406.06945698317236 L 407.1346077978914 420.68034829465324 L 160.10869565091818 580.1065142373398 L 388.19034127177895 391.65780746142565 L 310.95535251843415 684.6218057193599 L 349.41971560835964 400.43438877424455 L 491.9903465730986 677.2353774579971 L 330.64967650358625 450.7958026759819 L 628.1357063672937 565.2308935690232 L 362.7925137294744 514.1733728406153 L 667.139525595348 400.8652751794793 L 446.29364342514407 545.241881504201 L 602.3417655464157 255.43983693249083 L 546.5793352833355 508.8283136549934 L 472.74269610397295 185.4324593163224 L 609.981692986885 403.1638125688814 L 341.1923772823091 207.66404029551325 L 592.296940073064 266.02270836544005 L 262.5369549153255 295.395699380642 L 484.81993458628693 159.21212181340474 L 258.2366751867057 396.18665824555944 L 323.4194536475049 138.51525501318474 L 309.9915787507347 461.1423334576331 L 174.74496736905047 224.34409103103138 L 374.5172145955083 469.6992295948169 L 105.58371330715005 388.5945632476932 L 410.389375371289 437.0955696212067 L 150.44539984992173 565.2421531388719 L 401.7728177716652 401.4164918072352 L 293.810379162402 680.1264763163679 L 366.0255970363314 398.28124168863246 L 476.31246601045683 685.4323883431248 L 341.34524445477655 437.8480007818896 L 622.0853747327183 581.7922030001919 L 361.78004568109696 497.3346592800824 L 673.8025996229196 417.10024374904134 L 434.014646430211 533.5350590656026 L 618.1245906679673 262.8776794343434 L 529.5041376817921 508.5911149285416 L 489.29122206790237 180.2766494457001 L 597.1910339008763 414.65859517958637 L 349.8150679391763 192.7676007953497 L 590.6637895548128 283.26373134589784 L 258.78960944741596 278.720063972837 L 495.34532286771395 173.11021865355167 L 244.24569156243237 386.5676981313932 L 340.6687248686966 141.68085824185403 L 293.29284371178744 463.6100699288462 L 189.69130195753903 215.00770332416965 L 364.0341468096607 482.8299591032662 L 110.36165039625581 371.5668036971137 L 411.6876657773329 453.7946691294055 L 142.5037424289447 549.3993061386517 L 414.10959843808536 412.71023706051807 L 277.2683641091687 673.7448969025245 L 382.75650251739864 398.10108983367616 L 459.7997666181356 691.8337903585007 L 353.4704292753246 426.2658813607091 L 614.2044742388191 597.59891324344 L 362.74459217680396 480.53068432774774 L 678.6084459811811 434.0208155169392 L 423.2128013830173 520.5133178122758 L 633.0065792425819 272.0780545394618 L 512.6235562744969 506.38553212932504 L 506.3718532528738 177.0269842014963 L 583.2089394468234 424.5739925366834 L 360.12062296042313 178.91178071031337 L 587.0837226873726 300.15104727280135 L 256.98450004558845 261.6688833530293 L 504.1991435554631 188.06804490153877 L 231.42780810962572 375.3563703090209 L 357.40703617969496 146.75892639747426 L 276.37708411675897 464.1122628103509 L 205.55816924904113 207.4241532873869 L 352.0592444923407 494.66307153427533 L 117.0046026598971 355.20422569276667 L 411.0097695762536 470.5512654881891 L 136.38445745774249 532.7816754566163 L 425.0327465034409 425.3859612432266 L 261.5414425395111 665.5585577006698 L 399.3851981629014 399.8952143467838 L 442.6634524470343 696.355710183241 L 366.85903058185386 416.2044105190612 L 604.5914387657918 612.4462014342528 L 365.6689973212844 463.98803803779896 L 681.490605202101 451.4096787403834 L 414.02908264720986 506.3548824501188 L 646.7915720251692 282.9262351007629 L 496.1620447214544 502.2470462388108 L 523.7626044398017 175.73207184970462 L 568.2244853412265 432.7839518223074 L 371.9787800270324 166.28278239663038 L 581.6103132882399 316.4638181804545 L 257.15206480969084 244.46735185833725 L 511.2710976468994 203.8869191438821 L 219.95804361052433 362.69761200183336 L 373.4186217391422 153.67814436865285 L 259.47121884591286 462.63684310956614 L 222.13859162926184 201.68725724122987 L 338.7511634681521 505.0358839874676 L 125.42398272917148 339.7160991511926 L 408.3620650326459 487.1382103074661 L 132.16425844738637 515.6031697508345 L 434.39298575642493 439.2723357261691" stroke-opacity="1" stroke-linecap="round" stroke-miterlimit="10"/></g></svg>