<svg version="1.1" xmlns="http://www.w3.org/2000/svg" xmlns:xlink="http://www.w3.org/1999/xlink" width="800" height="800" viewBox="0 0 800 800"><defs/><g/><g transform="scale(1,1) scale(1,1)"><g transform="scale(1,1)"><rect fill="rgb(0,0,0)" stroke="none" x="0" y="0" width="800" height="800" fill-opacity="1"/></g><path fill="none" stroke="rgb(255,255,255)" paint-order="fill stroke markers" d=" M 400 400 L 395.8578039242309 439.09785010926726 L 323.7754362602956 383.66553586107574 L 435.88694385938345 290.4809543129274 L 537.3341321762239 461.69280293876426 L 307.70988259085084 558.3285226178451 L 228.45838584571558 274.0563950307849 L 560.7416425230672 223.55294409902896 L 572.9820293411796 594.7031447103374 L 174.11167100759508 561.5506182195143 L 256.99892034527517 147.4928243981697 L 673.0195195149054 281.4217129077348 L 489.8540035901428 686.2211793677433 L 108.68869124270844 458.6388831971165 L 373.1188804338553 112.06279498066687 L 676.2140706816172 403.44259264616363 L 369.56231166479614 656.7186229126323 L 169.54309184042458 347.6022297879192 L 467.9001272345411 201.19187892456785 L 563.4475681731474 475.8853937151966 L 324.2831038588931 526.2530824349911 L 310.7998798187857 332.7836298199158 L 450.67405123713723 345.7485958482062 L 423.2472816154449 426.83257442309286 L 403.1544161691435 397.8029263481992 L 420.7818692448535 437.78663525526724 L 324.69909680905573 431.5952693715157 L 365.83571938265703 286.2304094555246 L 551.2082575178968 371.51889618193394 L 415.0034790507046 585.6864713378632 L 184.56439290994936 394.62900451956494 L 431.35513504689703 161.052393907359 L 655.0591713684745 461.3442202826289 L 306.4941983535219 663.0166938279928 L 137.48172008903333 274.11776360294317 L 556.5002262778218 146.26946855761312 L 637.2791397865931 583.4812327744953 L 194.853402250119 614.2138201409986 L 214.0504538263555 179.8885067755273 L 627.3624485112888 245.81263000174084 L 520.8192536411092 626.3141209241784 L 183.15786345548955 487.8222318963505 L 342.85217716892555 200.70983480628956 L 574.4508340446301 369.3871321483168 L 409.79790332950085 543.52154670122 L 291.96232266043353 395.95874477383006 L 410.0437740324001 330.21312578398135 L 430.7092628195532 407.7919793686537 L 402.6652397838716 392.78912714067326 L 442.0558761032174 420.81511302453123 L 354.2903961097292 472.0817775434713 L 304.18435494223684 323.9816402549397 L 510.1030363758976 287.86221819873407 L 520.3441776630074 546.1088426402148 L 217.93181208122922 520.1857232543032 L 288.1180055059407 183.98936140950602 L 646.0730370727301 303.89116266248226 L 473.9604467468696 670.6036278821034 L 111.74562983033235 446.8880597524911 L 383.38131029220585 101.94372345011755 L 699.4735668544697 414.9415554789722 L 354.1858333910116 692.4336096698096 L 122.66902204430124 325.9410262082009 L 497.8827439749051 144.99460795725378 L 626.6947829773295 515.7395647954834 L 273.5825967162159 593.9660999319459 L 241.3722705147505 270.8939992380308 L 523.4423085740261 277.37157754503426 L 487.94837817969125 509.530924730558 L 312.06161101760074 456.48857453774565 L 370.0354699522758 340.33834487245764 L 426.0725028296122 390.1895633542658 L 397.0990220177114 388.8409961859597 L 450.1577324440006 392.4816210952538 L 403.8481933562153 488.94816273858123 L 274.4353206103921 392.16538806265015 L 426.8019479341022 241.83868743860737 L 585.1147915224699 451.9133531140249 L 318.3202019370526 605.1151509270288 L 182.7611749806491 285.6530218567802 L 547.9934382215442 178.99985605598835 L 616.3783536475586 580.638044321893 L 189.64920541564214 603.8186490678721 L 215.7928370580239 164.63922475612605 L 654.1552269313336 241.17869157933794 L 529.2582513798679 665.5641835238222 L 131.17404774972482 497.34551084840245 L 334.96131500572807 136.37022528451888 L 650.1332840706309 365.6879802189593 L 407.0479374929301 628.9537824316524 L 198.86617392968176 384.93170046818744 L 430.6429016747501 231.91695792341912 L 531.499428828693 438.65156924011364 L 361.5031470812795 493.2745394450899 L 344.6121516836241 369.9583489587381 L 413.6169710854409 380.20379452585047 L 388.3245581335062 390.00352150920156 L 439.6118371519212 362.56404791360916 L 456.21682005650376 473.70234763714865 L 289.5133857965067 467.14297064937955 L 330.2184423549386 251.9719020490763 L 584.3432875800102 335.83395970774427 L 450.7941917439773 617.5124989784243 L 154.21288991548857 430.60015077642953 L 395.0979208412357 132.31276326494634 L 682.0843895473438 424.6716493322764 L 343.7263978049881 688.264491427494 L 114.0322668769677 312.0593116965503 L 517.7040247584445 124.59696103327354 L 657.2363342276115 543.6991289350835 L 235.72972400732135 632.553269950615 L 197.20151103089958 221.9368117412248 L 584.1008751361899 230.30517189820495 L 535.1469730932716 581.8383840532445 L 228.80659816798553 501.1349519343818 L 330.3965797778476 247.44900420952072 L 526.7422294600033 357.64707256267775 L 420.9392422856117 494.99784818975695 L 341.1203765222634 406.5863647486332 L 399.8819125857177 379.80680626999765 L 380.8872734804326 398.0880682365909 L 411.87803434620764 342.94486509931176 L 491.7274459329665 429.46416310057344 L 346.3134165910106 521.4059239773337 L 255.35410500248554 316.8149514904968 L 516.298840341196 239.63764093278135 L 567.8904975489069 551.1596102016952 L 214.20417050522641 567.0226927374629 L 241.98000930190784 181.75698814954902 L 646.6535452812051 258.4026333697684 L 518.883616507344 669.3999948353107 L 114.83389880095831 491.3581171116132 L 339.2320103801 106.97961151679982 L 692.4682665599282 370.9697026777295 L 398.12474463319353 683.4797154491778 L 133.50899580402512 369.98287552513233 L 453.6200348073252 157.6196518727196 L 612.4188651976533 471.164351794659 L 318.52883804404706 578.1995728919052 L 258.4516053356057 316.2316940386115 L 477.7336730112215 295.57784945480387 L 468.79923411423533 463.51333632299657 L 358.28648411852464 436.5690868696364 L 390.573351761842 386.63318235868786 L 379.8746362984306 411.22231866098167 L 375.6602666642577 342.92894118315934 L 495.5821827016434 370.68685206523935 L 425.9899016498067 533.6799584010272 L 230.59458753180928 414.68557035858737 L 403.83376076424287 199.07123436307168 L 626.6516039347343 428.3944106630907 L 342.51919704032537 645.2961190314987 L 144.02357056528476 310.6797190153733 L 521.9822961279767 141.75200419276638 L 652.1323682031862 553.4864248962112 L 218.0868234562469 638.1158819392563 L 182.8776249314805 194.48860284557574 L 622.7962663026203 209.5385474080147 L 559.7551894586747 632.6324082889042 L 165.70252797377276 526.8473696572049 L 306.2996650825543 172.4773745622064 L 612.5077006861138 337.71479084779895 L 434.47163505645375 589.9101435479893 L 239.19161542372106 411.9231865507277 L 403.99569652284634 273.35832051134116 L 489.12978157294185 412.29604912901925 L 387.5802702374754 450.1769362713642 L 388.23443551916404 395.7293168268201 L 388.220369490326 424.1544225003186 L 344.2255107350255 365.08705622276585 L 463.9098693425658 318.47156162015915 L 500.17982465365293 497.21801348102895 L 266.96129233864076 510.89093529248566 L 286.73051989710837 230.57248972592208 L 604.4028605193866 292.60961811172973 L 493.79144906823035 636.0568108207558 L 137.33835206533115 473.4431725094999 L 352.3056650043496 117.23355725202424 L 695.2781317265619 381.80352618501087 L 386.81141904074957 699.5225976454378 L 104.71766474731362 355.50707613225626 L 473.75272138049445 117.19140360182183 L 662.8073357338967 499.11813188972565 L 281.0431461530901 636.399742615482 L 194.94043455664274 268.0544863073821 L 537.1437849738907 229.4692680371388 L 534.7298704771581 534.0470953538395 L 277.3850248585135 499.63918095699466 L 332.804355546392 296.72653741581746 L 476.8914313735379 360.81723608928365 L 417.1308879641596 444.7321635441723 L 391.61712530014086 402.2316895302281 L 404.72842025312434 430.3338690388079 L 330.53810925201265 403.41222064866486 L 406.0495030495414 292.9793880028181 L 541.1156271168105 423.06530863094713 L 353.3838000056651 570.0444615178155 L 207.60839764842123 324.68736637580355 L 507.47224187296894 192.892510531072 L 613.567051236048 541.2139283483734 L 225.43692448315625 611.6045131958628 L 198.4774661131151 194.43801653219194 L 632.3793663619235 215.92484277825542 L 560.4255344620374 653.4127857628475 L 132.62170513269064 532.0807791793891 L 299.192403157554 126.6177174498327 L 670.9715011527237 331.4665946515623 L 437.2384738618997 660.158481451633 L 158.57908592043614 408.8451093908963 L 414.88991444162417 184.32496807865434 L 584.2244813306913 432.4736732106512 L 357.23934376236537 548.6875401647723 L 289.09324897163367 354.98309138924014 L 438.96116511786903 327.15397890905825 L 436.4809404482967 424.7806766683099 L 396.87915554996226 403.68845007480724 L 423.85797323219856 424.95075880412054 L 341.9960306742406 444.78175591035256 L 341.9199324028961 305.67411584242706 L 532.016520749162 336.82023321401806 L 459.9693249323003 569.0949370701255 L 196.39011973122115 448.80494455234236 L 369.50947059985845 166.2512212284924 L 657.9389853001052 393.76737355148344 L 377.57285846347935 674.9356114666223 L 116.10895589026012 346.3016242158799 L 485.642109498678 115.59774248419137 L 676.533276858984 516.2793224046385 L 256.2983041039061 660.8115372131394 L 161.8016582920229 233.82158241609227 L 582.2530648659182 189.96492976850004 L 577.9681456063558 590.825151720365 L 208.7882197657918 543.8569516023704 L 290.3301498749541 216.81404949389025 L 566.9893873409947 322.6258898363795 L 448.82590140670703 543.3191666426138 L 286.7111110160072 425.66650181675595 L 390.769478902796 321.6334293713408 L 440.29272374811296 399.5287296951701 L 399.90744940262067 400.9832049902161 L 437.57773701128957 407.59413288986354 L 376.8803245976864 473.44823672910775 L 295.16278270907344 354.371289732867 L 473.8699554203481 269.7956331972131 L 548.346096949864 506.26615438183853 L 258.9977573531766 558.4626789528041 L 239.79719586402067 223.87318893160904 L 609.6611945073367 246.31692169948255 L 539.4813602814778 639.7100877812705 L 135.43249443406245 518.6043171540488 L 307.568990179367 117.18783683251445 L 693.386946448864 337.36433740554725 L 431.0939339907593 695.6580285916823 L 110.54967090037081 399.777928205839 L 429.35418385039895 124.94266710544548 L 653.2247206050467 454.4677637811835 L 326.04560141010717 625.1087250754028 L 207.78845809199046 313.47805331277334 L 491.2669034291223 243.70259549594164 L 519.2940149099294 487.72504092072455 L 324.1025087264676 483.1848403698659 L 350.10170391983297 343.7491848077907 L 429.69105197225065 378.79999129593233 L 398.59418298121017 397.5132013997987 L 438.67103860784306 383.2395849196207 L 424.11516200730864 477.023239301575 L 284.4191156714803 423.17335081730397 L 385.8932999534912 247.6330487047751 L 585.5003062314679 402.4543249401591 L 374.54416272785267 613.3007400759432 L 165.61722419362806 346.52047418208844 L 484.82202639650643 152.26699744510424 L 652.7666138665243 517.5902301113201 L 250.19279891272382 649.3599897357592 L 162.1424988156808 220.47721716514516 L 604.9227103704945 180.947842920287 L 594.1411750915377 624.4301287499047 L 163.20615685710538 564.6589603989758 L 267.6087613497199 158.84163272702347 L 637.1118545005274 300.72485686540017 L 467.29084127156625 624.7092321658677 L 195.5307540704025 438.35075847002565 L 385.80740829379874 222.65442075203467 L 544.6736623060956 403.7179066681383 L 385.7310594697667 508.09614366518656 L 330.5288093876459 383.2351074296528 L 410.96527961472196 369.2312559278464 L 393.9605272547468 397.0982630699026 L 424.1520407808279 360.9099563823782 L 466.731892686838 451.6837413251633 L 315.961289202068 487.61844665483517 L 299.2172259132763 280.5159617582995 L 556.108847083524 294.30849830703335 L 502.274493801069 591.9310643371464 L 174.99182684843663 490.9286360503225 L 327.5044881030832 146.45424223850424 L 675.9977732909358 351.78578011453516 L 419.6519692564748 691.152935437639 L 101.79759905349817 388.6163336308812 L 442.9459321869819 103.21504438946249 L 687.0071838438159 473.05785613673936 L 300.177097529147 669.4374923789626 L 154.92567782818801 278.4688705736453 L 536.7549167779832 184.709674548759 L 581.7556283785946 544.4289120853482 L 256.0902733910063 546.3444688748403 L 288.96957151330946 264.9879561530922 L 518.0191221573349 322.22388525677036 L 448.42346066584696 493.6671042847165 L 336.8959892233395 424.5907735931847 L 392.41771180162476 372.1742905700926 L 389.59243992457266 401.6847203992669 L 397.2688108763132 350.3305597567687 L 487.9749963064557 404.45697992334203 L 380.5718388560594 523.3915319166878 L 245.8535144371256 358.70971568902314 L 468.7607375305248 221.27362350018936 L 595.9612692755524 500.2381047401041 L 266.10827235077863 605.0900354584642 L 194.19723542307682 232.23591434562948 L 599.8802707425026 201.7420463756308 L 583.0735143443251 628.358437794574 L 148.4849438304614 561.2921010657328 L 265.6773026753863 132.04092094554142 L 676.6697665510732 296.138273382403 L 471.79809721697643 677.0538122084586 L 131.0214203695508 440.10748904854285 L 389.25820800811283 147.22040878805512 L 629.2418503390024 414.48012400681426 L 366.0257989316071 599.5560410740064 L 234.7479463233075 353.5201424151419 L 451.13056815968423 271.886448233863 L 490.07835669975026 447.50241384838745 L 364.3621112954629 453.1302175324254 L 380.81198353218053 383.9563682075963 L 389.66221137262255 410.00139693952076 L 367.0392475816271 357.81953843030874 L 477.84915097982457 351.43516626025996 L 456.1032714028423 515.4906071160046 L 246.8629325091857 455.3201432568791 L 353.57183050934407 211.18383818005995 L 620.6610774400081 369.90329142491635 L 407.4142252526268 647.0148271035027 L 133.47720927894056 379.8273286582281 L 450.9402116302821 121.79164189925956 L 681.5274443711794 482.98394459663064 L 285.674681333453 676.3988307711606 L 136.79136516841805 256.97759340084167 L 567.278584874633 157.2113398845096 L 616.3698357930509 585.543092405309 L 203.40215266550305 585.5133487834709 L 247.9766818405185 200.37433115079054 L 594.2560903741686 282.1541067180595 L 484.96041603017125 580.5862031390137 L 240.8246351101 455.26873110321463 L 369.5111681151519 268.98593056801815 L 497.468717080603 387.9412129892536 L 401.0563180871198 460.20537321129177 L 378.90322334958654 398.13852412563335 L 396.4948779307482 417.88220403026645 L 345.2351774922 383.11274174779174" stroke-opacity="1" stroke-linecap="round" stroke-miterlimit="10"/></g></svg>