<svg version="1.1" xmlns="http://www.w3.org/2000/svg" xmlns:xlink="http://www.w3.org/1999/xlink" width="800" height="800" viewBox="0 0 800 800"><defs/><g/><g transform="scale(1,1) scale(1,1)"><g transform="scale(1,1)"><rect fill="rgb(0,0,0)" stroke="none" x="0" y="0" width="800" height="800" fill-opacity="1"/></g><path fill="none" stroke="rgb(255,255,255)" paint-order="fill stroke markers" d=" M 400 400 L 666.8838964345532 425.7006501817409 L 163.8601917407701 354.0942421787716 L 349.86993146197744 385.14918547707884 L 666.5334684703627 507.69873007326953 L 217.6001473999009 305.0372261465786 L 313.64803786824706 343.9151224358297 L 633.2225867109919 585.539884998931 L 281.7318367917813 285.7717462014128 L 302.2691001356335 285.551270255581 L 571.7359031985253 645.3157252849835 L 341.8179750561742 297.1376098670975 L 321.34823329566836 223.28901610037346 L 492.5288181077275 676.6572407223499 L 384.6422222798545 333.43626928128344 L 369.9566990886961 171.53757530505558 L 409.5560377137712 674.8915242663102 L 401.0013048606859 383.67368651693573 L 440.778295563402 142.83115703312495 L 337.36571366027016 642.001922624485 L 387.64669075372655 433.9196405399759 L 521.6138679366971 145.16692527191435 L 288.07107082622036 586.1895943485747 L 347.96662181402326 470.28575967502263 L 597.917369685121 180.2949881944331 L 268.83721546315996 520.1291286147394 L 291.2648112058063 481.8941800478612 L 655.8294923205971 243.32108029513117 L 280.41222537757085 458.28602239256304 L 230.7878983129749 463.21071291492825 L 685.069991728967 323.7060265239139 L 317.0115431741523 413.8614498574895 L 180.91748653934593 415.25033422870996 L 681.079572322024 407.4517777847216 L 367.5794996683791 396.00823870471373 L 154.1186938163279 345.4004649807112 L 645.9602824327064 480.0137996832336 L 418.16158639969586 407.9047560291152 L 158.28851044558053 265.89880964273715 L 588.0165113262638 529.3265647199977 L 454.8870291740186 446.0925586609877 L 195.06305932908592 191.28607686606045 L 519.9935172012931 548.3050900788944 L 466.9326135048977 501.2172899904664 L 259.4408323376133 135.36996735016663 L 456.3848261027277 536.2958954762562 L 448.84267762304034 560.0165407089507 L 340.80170474286297 108.33984764083613 L 410.375998161831 499.1721566389693 L 401.71588370618883 608.1355615632638 L 425.1074360358536 114.63982275864322 L 391.0688248556413 448.053544006343 L 333.0082079768502 633.1772087269794 L 497.82042373041554 152.04815573487596 L 401.570864847002 396.9210548071524 L 254.99322650618697 627.3430912808669 L 546.9261458097408 212.15682480842588 L 438.35281313152353 359.6299965008785 L 182.20375924231675 589.1089885809588 L 565.4228968462169 282.1500169019761 L 492.0089691780348 346.95109250115985 L 128.39363609049838 523.5810701536948 L 552.7546926137849 347.50669179508816 L 549.2603382450189 364.26373410796964 L 103.65952140134112 441.4574067296347 L 514.8859295199551 395.05768344800623 L 595.777986106162 410.3879491280716 L 112.32905634428414 356.8131351254804 L 463.0026064964278 415.7531546702545 L 619.2313646599719 477.80166357537524 L 152.0601483986791 284.17550443541853 L 411.1143328993742 406.55731899204295 L 611.9188706594995 554.1978723177797 L 214.34107095994096 235.50465436340238 L 373.0629681707419 371.0713133456276 L 572.4258928860875 625.0539326995861 L 286.28590409497855 217.7158287389566 L 359.5687581019448 318.7531784280312 L 505.9605023326924 676.6718629140044 L 353.34694197802423 231.26462503121599 L 375.93690360681495 262.8995887805396 L 423.2955675554213 699.0492201954755 L 402.3725219022521 270.0928687654557 L 420.90829215227643 217.81496146196375 L 338.5397187136549 687.9757802431552 L 424.3659999290636 322.9459860126451 L 486.8969745728855 195.76486249259136 L 266.2063604361971 645.9143276502629 L 416.36463473900363 375.78374686856966 L 561.5646982222806 204.35612751946115 L 218.1978427108011 581.4800307440505 L 382.04265969515575 414.7758686948844 L 630.401002073342 244.89622925335237 L 201.3397718857724 507.6281327176948 L 330.9117286218748 429.25074828171216 L 679.7654257240563 312.07809984845505 L 215.98451432749454 438.93182542577773 L 276.28754638283766 413.9755026360987 L 699.7509478034433 395.0573297272933 L 255.97764303279234 388.52383678789886 L 232.4515433943296 370.28644994085715 L 686.265383426701 479.6952689478345 L 309.9938802319911 365.3460688330063 L 211.60612339186645 305.83145218445463 L 641.8922094518159 551.4958798327198 L 363.9605174182629 372.2866508585497 L 221.26555106950084 232.97811088511295 L 575.3494357518446 598.6180014890585 L 404.0571585288868 405.59671332125424 L 262.6327755703812 166.22300355539 L 499.6605123866678 614.3287940836165 L 419.65921742267034 455.70946239442753 L 330.30474558791144 119.14771412848779 L 429.42261375349324 598.3818823898623 L 405.6044925405781 509.28858236959934 L 413.368838666535 101.56297245643032 L 377.7477906398475 557.0303005691055 L 363.30483325610237 552.0738954645573 L 497.6598910430208 117.44263776341131 L 353.52136021399923 501.6720060266106 L 300.4683340609142 571.9241661226303 L 568.7027472826951 164.08287854813958 L 359.55499824155527 446.4138601340302 L 229.49034769850456 561.4153614844058 L 614.7207884168083 232.66377774411467 L 392.02340691018765 405.06785057747027 L 164.85218287034883 519.4463329449575 L 629.0769853648255 310.095120409576 L 441.30289785016754 388.2129341424711 L 120.07552022039852 451.5130304083166 L 611.6335928831935 381.7575655659731 L 494.03476324543055 400.9420063170336 L 104.87426337377497 368.59292792969364 L 568.7444517384647 434.5617772804279 L 535.9781723594417 441.76907906384383 L 123.10399733622359 284.8742033416363 L 511.8819883428588 459.68114110235604 L 555.0509235460784 502.92720569068433 L 171.9412084155937 214.8076602609568 L 455.1886764291697 454.3825279337536 L 543.9167701538566 571.9945648514062 L 242.46533356954527 170.10210738804818 L 412.46933328862457 422.5696819404814 L 501.573570320771 634.5061754702831 L 321.5211490099441 157.2958404732577 L 394.2584112170516 373.9251389006334 L 433.60705442337684 677.0009531439243 L 394.4692599923435 176.4154924461676 L 405.58059227698914 321.83194877166613 L 351.056192311544 689.8620184852213 L 448.2453590444011 221.0044049979295 L 444.8768424953577 280.5136382162153 L 268.12872085629334 669.3516746614437 L 474.0839040794947 279.5141106724668 L 504.32242935288184 261.9956134054145 L 199.24770591682895 618.4121176826206 L 469.332630988327 337.76530675461424 L 571.4700207223409 273.52884957788626 L 156.05099890527723 546.0629801261057 L 437.9759449438144 381.95937353674503 L 631.8716899722995 316.01930820130895 L 144.97539660980507 465.52244026258836 L 389.75734828085297 401.6055226816878 L 672.127306849378 383.79459121145015 L 165.93412710913657 391.44755652917286 L 338.0863176517836 391.74649337561726 L 682.7168807040946 465.75754480000205 L 212.36592297795863 336.87504166558324 L 297.1712199691907 354.01358639056707 L 660.0198897380026 547.6842454704924 L 272.64494904857884 310.5067704946209 L 278.9829711720677 296.2885772852866 L 607.0958967247868 615.1826306158084 L 332.5541247435006 314.9116281446738 L 290.68982083433644 231.04368134451144 L 533.0617279308876 656.6887965582928 L 378.3003416838795 346.02216933010004 L 333.10437033836297 172.70937699236933 L 451.1961831100692 665.870020922631 L 399.43593693319025 394.0316740380797 L 400.4706229031155 134.624814173632 L 376.171340372488 642.9285524267849 L 391.0705928909201 445.50205592314825 L 481.6364707608858 126.21355620050736 L 320.9935254144945 594.5318118576198 L 354.9074211158224 486.23789953032656 L 562.3650568107487 150.97997823417603 L 294.29815524213757 532.3840586085666 L 298.88482627821367 504.32044532425095 L 628.2984315390871 205.74876606236245 L 298.5680585325085 470.74081096966853 L 235.49961033569232 492.6616312782388 L 667.9494396877171 281.30805519757354 L 329.6502407042239 423.390048159264 L 179.16473939479988 450.53944027548187 L 675.0917878226799 364.3210126384659 L 377.67241709602496 400.73653074374187 L 143.15868096694618 383.790480492445 L 650.0450249129987 440.10341185386926 L 429.1656476371877 407.6037875955898 L 136.80934639563662 303.61870222663026 L 599.5839973173632 495.6823028577568 L 469.9452343048997 442.21702410962905 L 163.50629185874183 224.27079771461985 L 535.4921538174855 522.4916803987327 L 488.142250128193 496.58129075409914 L 219.96034693163452 160.06768232245733 L 472.0638038082749 518.1375787587907 L 476.7463285678257 558.1751677659096 L 296.8670205134428 122.41718264656663 L 423.0818619898207 486.8611449020367 L 435.1233432419555 612.6029436408598 L 380.8342630330229 117.4370574075839 L 398.9080847746041 438.60263351142527 L 369.1876447360064 646.6462234240804 L 457.1687682635987 144.68890705220522 L 404.2990382214516 386.86410519468234 L 290.19206812352706 651.071674498533 L 512.9341146128622 197.289480587497 L 437.40804345565135 345.8217617320163 L 212.39022993488467 622.602952713464 L 539.6367914023836 263.3756833631054 L 490.18336430264355 327.29697297018294 L 150.06330973929056 564.6409331393681 L 534.9745951924469 328.6143812754052 L 550.0786123859788 338.22481820065923 L 114.5374734369916 486.58009261124903 L 503.2794848332097 379.22798619602884 L 602.7147634024353 379.15410767538697 L 111.82011257394618 401.864681979487 L 454.5621105314659 404.8981773598932 L 634.9325892665148 444.0954640037899 L 141.35272083099835 325.1938533732884 L 402.3599044511787 400.93585474194066 L 637.5919850116886 521.7499384048782 L 196.14297390374213 269.46421785596306 L 360.8427420871312 369.26010789996275 L 607.5279558947399 597.8596827222336 L 264.24799670364905 243.0936161125245 L 341.7866254765381 317.98001940200754 L 548.2507006638191 658.1857077370519 L 331.29612566003937 248.2895347015451 L 352.0536344937166 259.66760446778244 L 469.2418416311901 691.485567595491 L 383.5156927399471 280.62652526495737 L 392.109683954398 208.68606099510856 L 383.99464948838613 691.8637761298653 L 410.6325744672953 330.02113502521604 L 455.89289894489355 178.13663156722083 L 307.2107580252627 659.9998913079207 L 408.02596530523186 382.89836341993805 L 532.0607708895418 177.06779869178055 L 251.7435925152378 602.9956559062788 L 377.68820891164296 425.09258021269153 L 606.3536668887364 208.53529898091512 L 225.93209319387526 532.8735291602953 L 327.786599597112 444.87108452993374 L 664.5769711386276 268.92219042402485 L 231.88605817772424 464.0430753604186 L 270.9197286777013 435.44266341661614 L 695.5737236367536 348.6627123469322 L 265.0838924577269 410.26911713340576 L 221.436101609172 396.4220635775203 L 693.5615704818292 434.21788713516446 L 315.3669904716251 381.78049290240244 L 192.3804087200043 333.9413448785009 L 659.3417418379365 510.88705765996383 L 369.12067826993217 383.12856833931465 L 192.7113422894168 259.3842664573722 L 600.1254117495863 565.8634152222174 L 412.181615278244 412.2465977571041 L 225.37767071803378 187.01006916333753 L 528.0140918957944 590.8901671757293 L 432.8584926749223 460.9079206670423 L 286.6584560262728 130.96710458022386 L 457.45428483286133 583.9581537540618 L 424.4290200528611 516.4861497080133 L 366.9069384417586 102.32539156459234 L 402.20271482987926 549.687714903665 L 386.58658880478595 564.6460886224079 L 452.54184142075826 106.75324911996847 L 372.44152980608476 498.3148646945876 L 325.5313753222072 592.3979413588984 L 528.8669992655111 143.3274874229411 L 372.6512058825885 443.495927133505 L 252.68634896211242 590.8707766713512 L 583.1256677849607 204.72782517735874 L 400.6891595294434 399.3937484879054 L 182.30847249261342 557.2203384247972 L 607.1464271224016 278.7745654667542 L 448.26794099183996 377.65996438086876 L 128.4982516000308 495.2686811445744 L 599.0236457377393 350.9855593679482 L 502.731900199706 384.9496686956341 L 102.23763205506867 414.7403287239094 L 563.4789103020391 407.61375300687376 L 549.7575447974037 421.49259776142316 L 109.08032823989612 329.25539122201735 L 510.827768189234 438.52539937432283 L 576.4081204420409 481.02225883363883 L 147.98124063932605 253.50201007865516 L 454.7700070537638 439.31264915060507 L 573.8982634248179 552.0782232185138 L 211.5116415197247 200.18343852631918 L 409.46958130956483 412.1956268627275 L 539.4856426906147 620.4073847322035 L 287.41484706609 177.38255875052647 L 386.53995183930306 365.5242391948999 L 477.0904542176768 671.958343393337 L 361.1746746643951 186.8986818516015 L 392.570496431886 311.98508499043993 L 396.5116930023633 695.8380265530197 L 419.0556191120947 223.9066055552793 L 427.7155831189585 265.89174984349137 L 311.40481818691217 686.6075570210442 L 450.9743328109947 278.0092900330262 L 485.6439142585208 240.12996083321067 L 236.4464347054375 645.4335567218582 L 452.5975974053557 335.46186607001357 L 554.8590465861637 243.40183710125876 L 184.28293823901691 579.852206689464 L 426.2250247345406 382.09789161461003 L 621.1129888430504 278.35046656588 L 162.90560635717281 502.195656940764 L 380.27086324458185 406.3408296197744 L 670.4043762472434 340.96054487055557 L 174.00477155234302 427.0122032842705 L 327.4545357384526 401.66580745799695 L 691.9294732605165 421.3619185683977 L 212.64941465744906 368.02363470551217 L 282.081677257992 367.99261019743574 L 680.3641355202184 505.86724425127187 L 268.3592424264931 335.2606335559547 L 256.98912907123344 311.716134180894 L 636.9957873388416 579.8149067944137 L 327.34291184252686 332.9795404365546 L 260.7981816913039 244.36771111408993 L 569.4667464668534 630.618637201495 L 375.43036375600946 358.7990942162005 L 296.05541889904094 180.1892874838384 L 490.18279912951414 650.3816951713993 L 401.0810054062667 404.23863304363476 L 358.65348061096256 133.1315977264777 L 413.7221430868996 637.5252162973602 L 397.8335481346974 456.5438786908939 L 438.6543485913778 113.90891200547429 L 353.79041515789504 597.0880378487184 L 365.6810201191707 501.4150662994796 L 522.3422020195046 127.73107847937223 L 320.3631236608289 539.6352393373209 L 311.08102786714755 526.0620084880402 L 595.0737723602056 173.19091423213536 L 317.6172696127201 479.00577716558314 L 245.59899224713868 521.941772179375 L 644.3260526495242 242.54159166841686 L 343.0875953899098 429.3741833018181 L 183.47021754254885 486.60152007649475 L 662.2996036084294 323.30581047279884 L 388.22480019059725 402.2457942794946 L 138.59454661632026 424.2376343751093 L 647.5293172618553 400.8779519600435" stroke-opacity="1" stroke-linecap="round" stroke-miterlimit="10"/></g></svg>