<svg version="1.1" xmlns="http://www.w3.org/2000/svg" xmlns:xlink="http://www.w3.org/1999/xlink" width="800" height="800" viewBox="0 0 800 800"><defs/><g/><g transform="scale(1,1) scale(1,1)"><g transform="scale(1,1)"><rect fill="rgb(0,0,0)" stroke="none" x="0" y="0" width="800" height="800" fill-opacity="1"/></g><path fill="none" stroke="rgb(255,255,255)" paint-order="fill stroke markers" d=" M 400 400 L 674.4736430682681 481.6259275211107 L 256.9870805342378 306.68572301338327 L 280.61923743198855 259.3008676734886 L 513.1006407329824 657.0160233361551 L 402.1363640158021 416.9347347047285 L 447.38396410005697 112.90450180397949 L 331.57761383296275 540.6981530820063 L 266.45931315484245 545.7548485548909 L 635.2959259443255 258.943518178702 L 433.0147898211152 391.5354754670703 L 105.55130458685124 388.78152430794137 L 534.1239806410414 445.51303693047373 L 571.5392726986435 521.4830683032453 L 235.1425021213183 189.9919640827543 L 381.2555802480334 352.5847771951291 L 425.9613325074998 696.2551661447646 L 425.3084026530129 276.2010311550544 L 504.63653347601337 204.163616829439 L 218.05449345228715 584.0031375336272 L 340.6304280529773 432.5849650724767 L 692.4010539852893 336.79042070447395 L 289.64713720266747 391.57890244181664 L 182.22187642129907 316.72618605518113 L 598.1435019494834 551.9738556561265 L 449.4572655367532 468.19664664945816 L 300.4262573456223 117.05925378192887 L 404.6658803268626 494.514339457347 L 342.17758885831563 636.5551287435253 L 521.0025531273166 192.91038540633218 L 473.3244688087469 331.2875062931998 L 131.90458555513823 534.1249358462429 L 477.0854999489949 386.38518674098293 L 651.4439643579071 428.8517324841334 L 189.1816247108862 310.04475889098535 L 310.3961618199623 325.6894354420926 L 565.98742599174 648.2461111296673 L 381.7559831749942 341.0860465946007 L 397.05548925973943 138.1683951785251 L 340.2604267988834 609.4720403417333 L 329.1420731521677 511.3117924448387 L 623.9216490920587 205.6335782728852 L 359.1365751805214 418.5333272496978 L 132.76366523605282 436.7700657098702 L 603.3522520397977 431.21767118858793 L 532.9719425114827 462.82611315398685 L 181.42678618170007 204.2183363086556 L 414.624143422719 423.78386819168935 L 471.7513443771469 667.3243780392695 L 405.1781769700731 207.09117847685218 L 450.2371042101263 246.2956715674755 L 235.40458310397705 638.0468402663383 L 408.4820824903873 393.1859748052802 L 661.9216993498446 293.0347569772855 L 221.27635707650964 417.6891759969579 L 227.3565977986889 366.72427627887663 L 652.3715625594566 531.2170433432185 L 404.45396947231626 404.3061889557892 L 258.5313426091186 148.97941653112662 L 436.8156314020801 561.4902780141056 L 387.7154002713698 588.9675843524006 L 496.55805618597816 138.71042150721456 L 413.94174448600086 381.3931490387631 L 165.2192300418854 574.3287192296937 L 541.9898940260771 348.2286095358022 L 601.9274345413454 387.75382968736443 L 135.29144521542582 338.44197890066937 L 365.0383525530165 380.0958552032559 L 604.6527558482269 613.525101597641 L 337.7210884713128 278.93564197401383 L 360.30568734193537 189.1285029684475 L 372.84563273600713 662.7037343308552 L 378.1900738192908 452.74907093890533 L 587.7298264697179 168.3830167988223 L 300.4126146898159 468.2210920720147 L 184.73104115166007 469.3251256700137 L 655.5145526685617 394.2523324665672 L 471.1401098797385 419.4261974997314 L 145.50701528009975 241.99012926038404 L 469.64406643326043 478.43470352205406 L 500.31503239453014 614.7283638272513 L 363.69603470670404 156.46411990970736 L 412.6791655918127 310.7253391491543 L 274.90043421896814 672.6711012500712 L 458.4542265219923 333.2454684533657 L 609.0117563850785 268.22184035810164 L 172.6958161487924 463.7583749529528 L 293.70875599557144 398.3426975380357 L 685.6799596011275 489.82946387127197 L 340.088305209856 359.5627686444613 L 237.20493489858552 201.95621975166284 L 487.4665928719967 607.4790731090624 L 413.39095421959036 521.356810632376 L 453.10000623873407 106.79850502485539 L 374.90850199870954 449.6141167569824 L 218.08457544359905 592.4426623597094 L 584.8208420762057 293.08371010094004 L 533.695648008601 367.9351060047228 L 104.91902831547333 384.1470885167554 L 436.4818913748955 413.017306059436 L 619.8243535478776 560.8822871781779 L 278.2571769832506 239.83524074019826 L 346.17563281472417 257.3835835950366 L 420.95877214933665 691.3316721411079 L 404.6870873262066 378.7652393047375 L 535.3574068441297 155.90062795557958 L 265.6070417676575 531.7400162501101 L 252.4635850012293 478.00733545083676 L 682.134100612896 343.5990370238582 L 395.3331032607879 399.5705885262402 L 135.4896365436942 294.1011042225814 L 536.8656592874718 508.40486454799674 L 503.8515587167981 548.0022652125332 L 310.41180852695186 132.17027015930597 L 399.58216216536147 387.6191935017131 L 326.80722307027617 680.4082911333821 L 483.087141563066 262.75845234214364 L 543.7063188026324 269.4802998766917 L 151.0905007351329 519.7116178497336 L 370.9499949395671 404.66500438402124 L 691.2738408197388 438.0315889693673 L 266.85193047366545 340.71584654776797 L 242.87298318436189 265.50176019327284 L 546.0644982908847 625.997447336172 L 413.0221507819802 444.4947632750185 L 401.28946255326565 103.26538522251343 L 362.23007389398305 525.0135251820103 L 279.60863043333046 582.7707181343187 L 599.8300214114084 231.93573874760807 L 457.9110009590656 374.81590842594335 L 103.42245500235038 436.1055115166827 L 513.3985401073746 419.2225364489418 L 606.5600169914353 501.56365714195726 L 214.7295322965063 228.76824827112677 L 359.30052565325843 331.4354540540388 L 473.2007117838737 690.7561133190467 L 404.2017796880403 301.023904682409 L 478.3531177872351 172.35412322572552 L 258.91190383362925 597.3980657702191 L 324.18314539060043 458.9859818190828 L 679.3921381602088 290.9507568808826 L 317.49215593706856 406.8691452115423 L 154.75053421843614 348.75203620745344 L 604.325506334703 510.31635593045024 L 479.34997234988384 479.147540492767 L 257.25997648282436 137.22793256850127 L 413.7173253082646 464.8175071431925 L 379.1282711498766 658.6883736459075 L 479.83562590296765 193.90254340323258 L 478.17295716785304 298.99009437525234 L 158.6621009327831 573.4267085843696 L 446.7622359313215 383.7712538954426 L 667.3997180374856 387.963873352792 L 197.07797224643227 349.4632250242315 L 276.8772257489493 327.3397875058009 L 600.3545000413025 615.6730284677612 L 385.54845710147913 370.797100487345 L 353.3565081211152 129.0406272943443 L 376.7465497114432 595.1626148555774 L 337.4638567987788 544.8126618224758 L 586.4834900696342 177.11604537070602 L 387.0257121090189 408.59378567478444 L 130.90332378068467 482.05199697299054 L 583.3246255181365 398.7350648979977 L 565.200477045496 447.89094612680964 L 159.48899083157448 245.42478730271327 L 399.01587394391714 398.85622581346047 L 517.3256494581248 661.7041303312528 L 377.62266219050997 231.96245642427044 L 428.97633995682537 216.56612590738177 L 279.1719597650834 652.8825628685923 L 387.54656133289916 413.78220281070674 L 648.8417627674555 248.47922895645036 L 249.9670716442047 439.5715454930451 L 201.28363720233978 393.80168695764115 L 659.807105192356 486.1673761217479 L 429.17831266217524 420.36306921671587 L 216.28375341194453 169.26399406856657 L 452.48028884394245 530.1190848571389 L 419.89530722503474 610.334638816518 L 451.5343886612737 138.73995828721303 L 424.40789056170576 353.550246247975 L 192.2268753612372 613.0430864881941 L 509.1532503353203 339.10752631457746 L 617.6832226132398 351.3679441227529 L 142.6164539272728 382.144238445285 L 335.20176843923844 375.7336378600789 L 638.7123262098143 580.487406552188 L 335.2408350484239 311.98777509751426 L 320.7637635437965 179.71441490363296 L 413.9860111638657 648.4809474856294 L 380.2282717413337 483.3774074232762 L 549.544502465103 139.95965844942185 L 332.4375749358343 464.19412876787055 L 182.1889459756175 510.8538256574671 L 635.0058442295667 356.819195023915 L 501.3220991500463 410.91835734216716 L 123.5292563559446 284.27953576007064 L 459.4689197334304 448.63035793953435 L 542.5800540275252 610.0869350207988 L 330.9834104126656 182.45369175513375 L 397.8626561222235 282.2218404806929 L 320.1228292921307 687.5921308578879 L 431.9744995749275 348.997318232588 L 597.1054395813735 226.51124895290056 L 203.19529151884052 490.90185029204656 L 268.0679643286642 419.08147498060674 L 693.1511118521697 442.93495145664906 L 360.65299344582985 381.74048619054946 L 197.33751599201042 220.97481544797063 L 508.38396763947844 573.5738256461958 L 439.4524975120717 543.0390227950908 L 405.8433112014681 106.93982940267335 L 391.96632991939293 425.16635783050697 L 243.83279251485436 629.2224933547285 L 548.7100536723206 278.83704864021394 L 550.4492686364758 337.3439227385736 L 112.59988508530802 430.44927972441496 L 409.2147170898966 401.7102120084815 L 652.3574335114644 529.0056240915412 L 270.899921149563 276.8954205075417 L 312.0155771382183 246.36934017301178 L 465.0255323946042 676.4170294271564 L 399.5532970776705 407.6907681768764 L 498.1532316508484 128.6500325640103 L 302.34650062835556 532.2211577455025 L 247.81217563784944 514.6394807861128 L 660.5138357513188 302.9715703296017 L 424.69825299888123 398.33102437740223 L 114.39966606394279 335.65747016588426 L 530.7143106094379 473.22786491729255 L 541.759218415438 545.876613340229 L 274.3116990547826 159.76325871667962 L 391.9984903308484 359.04917085360245 L 371.5972176290586 694.6461068080577 L 450.64465377488557 275.0776383515986 L 534.6135749956766 231.5538760607888 L 183.7429728929166 550.3469892191112 L 344.3836647419827 418.33515454813556 L 698.1774907845048 391.23387431002584 L 284.6699154804847 369.36037109912786 L 206.20302214721113 281.519899798607 L 570.4783150021577 589.3487797829403 L 432.3013444798062 467.916347200816 L 353.7778259275397 103.95235305467764 L 386.1570128108996 502.5467408730397 L 302.2789045963656 616.9329081691884 L 560.3633059232014 214.29583555870877 L 477.153380181868 350.6089564408705 L 111.72229525835297 483.01109790288416 L 487.28449552031867 400.7586052197597 L 637.0287316082669 472.7382205731679 L 204.1943257432743 269.79892189683494 L 331.02814827558814 317.2646064952154 L 518.1966974262459 675.0562936600907 L 391.74757009602786 329.66656907321925 L 444.0779101511007 146.65939371814525 L 300.2178578730216 600.7291487270776 L 315.80322158764676 490.30929705711293 L 656.7336089745188 249.10943261059526 L 347.46600350415645 412.98345930424534 L 134.76892302041318 387.58543184344495 L 600.5865187007917 470.0159662972648 L 512.5916064156402 481.2151262625319 L 219.71973415955753 166.18979302159772 L 413.3886760569095 434.74781315275857 L 421.4705111307863 672.1906802612818 L 441.7717314194068 204.34966638137797 L 473.62321440740305 265.04286945583635 L 193.0791004403889 605.6549937593967 L 417.82780817536934 390.41587722447633 L 673.8553902881249 343.2861964696375 L 213.65654119343822 384.1499547757652 L 243.47648870436825 338.58419400838864 L 626.4279393881789 576.8142801854939 L 398.1567675982636 397.41132270125775 L 307.6030160147941 129.98067606051808 L 407.04298278289565 573.2238258414184 L 355.2489678481873 576.4176203933965 L 544.3285579243475 157.84544837261603 L 410.22133992224303 390.5870630368681 L 139.357719329423 527.5762198123518 L 556.9647477448361 373.68155123076895 L 593.8052731468731 423.9463050685412 L 147.45385824410346 289.6355017477904 L 376.3695541070922 380.0535706951338 L 561.3123616621499 645.8518635828177 L 358.47660580147254 261.6685422703443 L 399.4688920412809 192.0802723647003 L 324.1436349810329 657.47836751744 L 373.9539513350671 440.14170325088236 L 625.9401076249984 207.29896435958983 L 281.84534471785224 452.3549595503695 L 181.91198020177845 428.07854182896955 L 656.9943231910668 441.74182392014455 L 458.1885394927526 428.113888650625 L 179.0983569402517 198.64527724068074 L 458.6694865811498 497.30194240834 L 457.97694752522006 623.7542563484963 L 408.93180193468083 148.69786202674618 L 425.8923137749399 323.0516463319657 L 227.31476170949352 645.1643102476623 L 476.6481025912872 339.5137284660949 L 624.4990880395956 310.5861637568279 L 159.23283307022984 421.7187016722251 L 304.43753817552147 380.7182000599937 L 664.8538985505047 540.644503437197 L 342.0141504871433 342.95478691453224 L 278.49060330476993 179.94528773596446 L 449.4378890600004 625.8990378962649 L 391.6549488963593 513.1657011625737 L 506.04615303156186 120.52971810493483 L 360.7064136194956 451.50287201019034 L 189.6850979655002 553.3449228848423 L 607.3339880530841 326.43837764744075 L 528.916302348414 393.30565465714744 L 111.33577722640473 330.221219144994 L 441.5138192488015 424.1145087824275 L 583.9926126158161 595.3397231779661 L 306.44573920424875 214.1869201457223 L 374.54131667422695 257.9749667594551 L 367.22232787327454 692.2483232096131 L 412.12568406600377 371.38003934326457 L 575.3547776059822 187.454248861597 L 237.84297766322734 509.02519071964014 L 248.21735876181364 447.4281015636855 L 690.202690308141 395.9950274397998 L 386.4738653283184 396.1798000158345 L 161.8517188364342 249.25500803666804 L 519.7405056284215 537.2384361034166 L 471.9573514535835 557.5846777352797 L 360.36966030691787 117.32486901617233 L 400.450281868979 397.0160580102399 L 277.9568482209066 660.0227804327288 L 511.95248468175794 274.3705451499462 L 558.9528748349214 301.7031847866378 L 130.02412840709405 473.20283221859484 L 379.92498984376925 399.5124470818579 L 677.495920461271 489.91355545898045 L 273.2145470723364 312.8131512386287 L 274.3829213305543 244.44764121958738 L 503.89844221471486 652.5669794554472 L 403.7462995889464 436.8893357602143 L 455.1313242721692 109.97943677284945 L 336.2079588157328 523.4616225441891 L 252.7958774215803 553.0362446893239 L 631.0468386371715 269.009268330998 L 452.5765382210243 387.8725378495454 L 102.80623628624272 381.4419514536855 L 516.0610252583792 442.5530488247619 L 579.64908188155 533.8923375370366 L 246.12643437377065 193.86980395684222 L 375.6255747704011 333.6768165990181 L 418.8854282036013 698.7700816357776 L 424.163243029338 294.87808931834496 L 515.7662546485834 195.4429581562043 L 221.3755595741125 572.0798497827467 L 322.61884731056057 440.0573407560929 L 694.6697608913478 343.7518094531202 L 308.7015199696993 390.79857545053864 L 173.10185103415998 306.8633737495374" stroke-opacity="1" stroke-linecap="round" stroke-miterlimit="10"/></g></svg>