<svg version="1.1" xmlns="http://www.w3.org/2000/svg" xmlns:xlink="http://www.w3.org/1999/xlink" width="800" height="800" viewBox="0 0 800 800"><defs/><g/><g transform="scale(1,1) scale(1,1)"><g transform="scale(1,1)"><rect fill="rgb(0,0,0)" stroke="none" x="0" y="0" width="800" height="800" fill-opacity="1"/></g><path fill="none" stroke="rgb(255,255,255)" paint-order="fill stroke markers" d=" M 400 400 L 512.5799181941841 525.654726761441 L 369.466756916819 677.3335637672567 L 161.9281736393811 570.2914100926411 L 199.8502825215598 355.38799339621727 L 377.2887786202952 359.517830054318 L 358.55223031706333 521.4174305760059 L 161.98361006242953 501.08337855580385 L 128.98215289375764 272.867841896982 L 331.9372729402955 173.5339380593958 L 447.8042615403455 321.7258047704063 L 316.61205068884493 415.37233653308556 L 216.46985260433559 258.17066678457104 L 378.3128863465411 101.99555124185093 L 582.0626895316562 211.330407989231 L 534.7159123384126 404.98780641047273 L 374.9102116495019 369.820226416395 L 429.18547036977077 202.4304575948933 L 642.8136260480013 239.5560106544329 L 672.390764687771 471.3883446092007 L 479.75940070436036 555.3762763896256 L 397.4074906858952 406.7648172783711 L 551.9781926483992 341.9952585868016 L 645.6021472524598 526.5002464428402 L 474.1978259367942 684.6994643080131 L 283.82951454067916 575.2885179072925 L 347.0028229863238 407.75475228565375 L 493.4857554508727 477.935556693419 L 409.08036446663294 654.6817586999891 L 184.02245125178746 607.8440968847399 L 159.79750517035416 382.1887683843721 L 339.82238248952956 321.9081619247159 L 385.7872200000688 476.5102215514797 L 205.86803752758922 518.1972683809395 L 114.67444431287691 313.8213961472211 L 287.5182622600636 159.35731939943048 L 455.3889184785551 270.0729256805765 L 369.651496296759 410.31357540386654 L 230.72008840771304 304.7260127197443 L 337.47167219157166 117.64967817999684 L 565.5459252069033 169.23081112206975 L 579.4342981991883 380.49364359345964 L 410.775032771673 409.68047899145563 L 400.2143065604208 243.46345447112236 L 603.8469757494088 217.8664878932067 L 693.7204574343741 432.7444240498022 L 525.0727543525703 575.3618361649974 L 386.7190179895544 459.2026991419769 L 500.41854071671145 343.84401205963144 L 637.3793934766593 481.3962536632286 L 516.8742456548508 676.24895424026 L 295.6009491707071 621.7656992619185 L 299.01694383010204 430.19904610404893 L 460.37193066711643 436.98441861926545 L 440.0359313880433 618.8569065076526 L 217.9807490947624 634.871460653229 L 131.76013341938017 419.15186990134026 L 293.9347340865206 297.3681706590261 L 399.0469299080863 424.8223620000028 L 254.75144695672196 520.4156794225257 L 115.96111732507717 357.6436309784858 L 242.51613159299708 160.9552975889547 L 447.4582209864831 219.92313774983202 L 419.33356571719486 390.1089085367446 L 259.716920817511 346.0183497312947 L 303.9643181105999 147.3391751610059 L 536.217232286022 136.41927222013027 L 613.3274055373779 344.7148044189801 L 456.42332696570236 437.505198445917 L 384.46256465005246 292.7904051322219 L 558.3602563061985 210.57058331616486 L 699.8168151658501 389.7213669968904 L 572.562813227825 579.8076678334253 L 391.553341780917 511.83535468847384 L 450.5410372703909 361.16321196666917 L 613.8500778677442 440.0284164801909 L 553.6187708837298 653.0890716165679 L 320.9826760598017 660.3273632183073 L 260.5302658142979 464.9587438435578 L 416.1933340486415 406.9295576259223 L 458.64075526406526 573.3335805034993 L 259.875091647466 648.1741397789567 L 118.393743290376 461.9592311737903 L 244.2650460021392 287.9578222350131 L 396.91216253814366 371.2291681077535 L 303.617943227647 506.9848164111389 L 132.92605016187588 399.2687227554232 L 201.96493444517287 177.74405533782016 L 425.26039862754925 176.19495415126124 L 460.94811171164343 356.65593985477784 L 300.95070571603816 377.6377325656525 L 281.823862194972 187.99577534523772 L 497.64842685565753 116.48933218136125 L 633.3022098543964 301.6718379152239 L 507.4524274634119 450.76443561251807 L 383.84576747534317 345.71096189635335 L 511.26029850437794 218.93995504288637 L 690.0659727056403 347.3479533375636 L 617.1590992311781 568.7689954767228 L 411.17829396708703 559.6388247066443 L 407.2258065304186 392.55289099920407 L 577.0501372444081 407.0407114158074 L 580.1005904144241 617.8483778403815 L 356.79664952369495 687.0244307842529 L 235.03863202737722 508.35382106132124 L 365.0674233065882 390.74255576755274 L 462.50316384791336 522.5850626942349 L 304.96064126981287 645.9752407717237 L 120.83546687184156 505.67248859452064 L 195.8654089443352 294.1498790246211 L 379.5916004502617 320.8043830655024 L 347.47119084457995 478.79085597899814 L 164.0301037254253 433.8683491540451 L 170.44736493966977 207.56279757595516 L 391.54643517918004 143.1499204328669 L 490.6356560357144 313.2543170966517 L 350.6350659925868 396.20360832369926 L 273.89319263569024 235.42249826837104 L 454.37167905165506 111.70472160789615 L 637.7112633103613 256.16014320415945 L 558.8838145743487 448.46376067096594 L 398.68101758931624 397.15791769510355 L 467.6051363534437 242.61304115260768 L 665.493014984588 310.58552931563344 L 654.0759994714793 543.9163261557836 L 443.29882553243397 598.0860896760532 L 374.6529149689981 435.13006549519645 L 530.3925377057026 386.18612875289404 L 593.0552437714894 574.401855508054 L 398.7714188775224 699.1304966826051 L 224.68089482251807 555.7832277783814 L 311.84426195902984 389.9278035926164 L 450.78312662426026 471.61592287217894 L 348.1722765554416 628.106593787448 L 138.5853909489594 545.2499111919682 L 153.67267673521334 314.78106275639726 L 348.90000202259205 278.2902526447549 L 381.8567318320098 438.2678884163062 L 206.27178962676575 457.35712786480667 L 151.61515967255824 246.90017298763826 L 350.2819042103903 123.94736231755581 L 505.7903869163684 264.26093047484153 L 404.1022061238912 399.71839679977325 L 281.52715859943686 284.7324509439438 L 411.40501461468705 122.76243951972452 L 626.5244467262494 213.2481854722638 L 605.6832851962257 431.24778874068625 L 427.653543303557 442.22652168591344 L 432.07494924902574 279.6322661010716 L 628.6547808184082 283.8085948568348 L 679.3133254796312 508.36016635565545 L 484.29727665071107 623.6198937329539 L 355.86568392475976 484.8297324816246 L 478.31090086806785 379.9338792575342 L 590.6265548907207 527.4654917041073 L 441.9893962840292 695.4268444342918 L 230.01587924152722 602.206079562648 L 261.5999442157185 404.36541112728133 L 424.2806044164614 425.4390603197543 L 384.654646032644 596.0268034139633 L 169.55911750266984 576.0741490014956 L 121.99238070119276 347.17429828618083 L 308.0684338118261 247.6022646076141 L 403.3276205844956 389.14399419874127 L 255.50083249032807 466.82035873430846 L 147.80683080840674 291.2619048723237 L 306.23178677669694 120.31437165737702 L 505.33205707090787 214.63453907655335 L 456.29039122157815 387.77643675931 L 304.45028307680036 330.85974980920605 L 373.7270196280219 148.71964027859045 L 601.331614839733 177.74714084785876 L 643.2869608932908 401.3323018014739 L 467.95390339273837 476.6867975522329 L 408.4825358163132 326.6481321602655 L 583.3725173610007 270.3467556626655 L 690.0747637020844 466.3251675891781 L 529.6119666464319 634.02417362578 L 352.4528837275471 536.8294809095544 L 425.79641530137377 389.21085919928913 L 572.561313306714 482.1029401254394 L 481.4016913270212 676.3298284060483 L 249.9645618956415 642.6688617160953 L 219.10637669144262 432.3239843486247 L 385.35239800965076 388.55189177344914 L 410.27027072934476 552.6692066682874 L 210.3059896613017 594.4356147509061 L 104.04863869159675 387.41925483333614 L 261.40638291313155 231.42033902469225 L 409.8046859190791 336.0520065403498 L 306.8518386714345 460.8193410911541 L 159.8027033187993 335.6411888214961 L 264.4616861079995 132.36553863939986 L 489.8183514521386 169.4174417059345 L 502.2726171588112 361.6064492404654 L 340.7849569294743 369.089138154437 L 345.75567754113183 187.0919741898609 L 565.1758587978622 153.7074281318715 L 668.0781320473933 362.2720652869334 L 515.5715037326887 497.4252936713601 L 399.3745077620749 379.2688554061855 L 534.3323406758832 272.1359373897582 L 685.0604610648261 422.7077754018293 L 574.2145155213848 628.6552541690417 L 364.38304077000083 586.0533173870283 L 377.8764562298318 413.30440823221966 L 540.2363449806886 443.195849020056 L 512.3566769976683 643.8473029583874 L 281.9235107544761 672.8235184142402 L 188.33285949126034 470.64193087219024 L 337.66619007772476 364.4664585463027 L 422.0325644962766 502.13563618469345 L 256.37016360915084 597.9209525425046 L 101.64712314117708 430.78184867989773 L 213.85108116886352 230.90921668373593 L 400.7937490947548 284.04566057662635 L 355.25272441421356 439.5423395810895 L 186.74287183399002 375.04266872395806 L 229.80759627509534 158.59127988050443 L 461.3859754781482 133.2083919488694 L 537.7711911722035 323.9430775774103 L 387.2471666934343 395.54891877648936 L 330.8858354739428 234.11309891516512 L 522.2348216650004 143.99477387649432 L 677.7650764803276 318.5886185886559 L 565.713734085374 502.7700734211932 L 405.76490573952 432.5189866633122 L 486.59528093277453 289.51533404649274 L 664.6031506651457 382.5636376865982 L 613.1359846995699 608.5086354540463 L 390.0081829867144 627.702023490746 L 339.0894319296254 449.93652880511905 L 496.51514136526873 414.9332412504428 L 531.0870159300134 601.3686547966795 L 322.0377230963137 689.3822517546331 L 172.03158406535508 515.0583360002229 L 285.81749888871525 355.34258753698225 L 418.4184921098518 449.26801021327094 L 302.75677003807436 585.6659719503671 L 114.98633039592113 472.199886241521 L 170.45116699280996 245.59728294601078 L 377.4370842388427 238.07172320647243 L 395.9547391450146 404.7854118873054 L 226.21665661863642 405.00520011685813 L 206.36967004232355 196.01598254074466 L 423.52662465809635 109.68187282881547 L 559.6044156340798 278.7409367623746 L 439.48929022194386 407.6156576265449 L 331.13366611113344 285.1282257403104 L 477.38339131383026 149.9901407806941 L 671.6203457052948 275.2969608001632 L 613.3068975307809 492.66496311133847 L 427.02909226399754 481.35906161164985 L 445.06814515285566 321.1913237809453 L 630.633583127753 350.57837305218646 L 641.9868197545836 576.1143887019721 L 426.2366315557558 657.7545874025097 L 313.0107698053715 495.5018065685953 L 445.44903783978583 400.37334054856746 L 535.1042193987541 553.3103941797185 L 365.6043311282036 690.4614736855551 L 171.4503903344206 560.6588101647515 L 234.84959715044073 361.76246482116005 L 399.5281710846315 399.14254628584547 L 344.4544198778383 558.4465983552739 L 142.63688616330717 506.8130189948145 L 135.83867670505373 273.42649732626455 L 342.3937403806066 202.45330058862862 L 425.0286614863259 359.7651025164412 L 274.51420508830597 422.0687367210269 L 197.08292160812877 240.50942749478037 L 380.72126245134314 101.20399877344471 L 566.0186674396678 230.76107307949007 L 492.5541158443749 404.1883400729725 L 346.9253033014519 335.0805491725246 L 435.6834990351257 171.4448974029726 L 650.5564978287507 237.3806252427793 L 653.5265522260117 468.6748376732503 L 460.9690170393139 521.2119426455533 L 413.990527585892 364.37212599003135 L 586.4788780951294 330.5770399645056 L 657.4162259702139 535.2720994718159 L 468.85677000469786 673.3882772567133 L 301.87960760193704 545.4441535422765 L 391.85418761673975 401.1236625418634 L 523.4594805924027 504.6543643580423 L 407.5649603801015 675.7789446886962 L 186.20281850870853 602.389686589762 L 189.72659599833904 382.67019344623617 L 367.0747277479243 356.5394863893436 L 376.95941732415014 518.5983284499688 L 181.69105097660506 530.4715938630172 L 113.74457764281084 310.9682071029472 L 299.56123970440626 180.4383514867492 L 439.77528280120936 308.78258807138974 L 327.0139302658788 424.1365188763398 L 203.40975511442932 287.21892672657077 L 337.9709494531394 108.58520863009852 L 556.8711492680861 185.07307661271687 L 541.3926104180523 385.80331233849796 L 377.051753687308 379.03969585497265 L 401.8543745047769 206.5063741274743 L 617.030358348658 209.27003314712718 L 682.3018096001714 433.82139209143475 L 504.043030169488 548.4408153373856 L 396.4916092711807 415.05911980772896 L 536.5148812991491 325.12360055750287 L 657.4629408772323 490.65307493517076 L 512.9779346666636 673.2734309455604 L 306.3652247912268 594.7329795316243 L 340.8085648776148 417.17282253889124 L 496.84350694379015 460.42685715643177 L 443.03525584994077 646.683484851257 L 214.30904323609678 635.5868008143648 L 154.81479151252563 415.48265516601555 L 324.2054679140163 325.44378215378845 L 396.7468646799909 469.7726125017641 L 228.0667923230227 540.1711894932037 L 106.60850231333973 353.7822773108772 L 253.66775343413445 173.8606163017703 L 439.00725577956905 256.77439268074625 L 378.66527356013273 410.69469055440726 L 225.18647088842897 331.07698743850534 L 300.2732842987965 130.99560969422555 L 533.6442037311554 146.5249091630263 L 581.3912956368154 354.57798927833494 L 418.7947997269892 412.71693497924196 L 379.7786513450703 251.91113359597372 L 574.7858203576355 194.37867398673697 L 696.7408563587553 392.26657212191236 L 551.7362124655685 560.7288576866783 L 394.26309068030355 468.4643624516689 L 485.70887880595495 335.25226254678876 L 641.7607241578172 447.3114116834678 L 553.5423234154574 657.7121375994652 L 325.49763697902915 638.3890003750025 L 297.1215931801589 446.891647508166 L 457.5149116489328 425.17310184147914 L 467.816204371861 606.0141503058555 L 252.40340911612537 656.4635589185942 L 133.42650718384675 456.3600831355803 L 275.17306140401 308.6289511605221 L 401.63939690268904 416.5556369912363 L 276.9346275715757 534.3673996441371 L 115.32349258194893 396.8819833430971 L 209.77740051884933 182.94841669518766 L 423.1728365346884 208.7966532668599 L 424.5163115102156 382.8663798788996 L 260.6398004359489 367.3314178040549 L 272.0992038894207 166.05182484810314 L 499.28969434965444 119.23588602829886 L 608.8540872393322 313.9892150377963 L 468.21072944491016 432.9132767112909 L 372.0959687179306 303.3257464760888 L 528.4620790515783 194.7456132260984 L 695.4332050198627 348.87676762828323 L 599.0324986137601 557.3208820933762 L 407.38245765447255 519.5106495891841 L 439.1004849964585 360.3587926023427 L 611.5770770255884 410.155050676401 L 585.8543934422348 628.6063096872987" stroke-opacity="1" stroke-linecap="round" stroke-miterlimit="10"/></g></svg>