<svg version="1.1" xmlns="http://www.w3.org/2000/svg" xmlns:xlink="http://www.w3.org/1999/xlink" width="800" height="800" viewBox="0 0 800 800"><defs/><g/><g transform="scale(1,1) scale(1,1)"><g transform="scale(1,1)"><rect fill="rgb(0,0,0)" stroke="none" x="0" y="0" width="800" height="800" fill-opacity="1"/></g><path fill="none" stroke="rgb(255,255,255)" paint-order="fill stroke markers" d=" M 400 400 L 454.27307155668086 571.3243675357783 L 164.6951433928557 565.7120282398744 L 176.2375700065656 229.73819776029785 L 454.74436392759515 247.02263102729674 L 379.03583288807243 399.2265992015002 L 347.7182597737027 211.02575581723164 L 645.627512972874 240.23079404545987 L 611.147575811885 573.3178647501948 L 346.35089027368747 534.1120426482564 L 441.7403764804512 403.08393227783085 L 448.83520601117107 605.7547793322699 L 145.40463372718716 552.5493454913369 L 202.38175148201924 225.2038986931175 L 450.95970545827015 285.0882489829647 L 337.8572415085203 393.0973070533332 L 355.9841523855735 178.49773924354244 L 662.0872529650227 255.81757245674225 L 583.3411969730643 574.6299597679337 L 353.3321893907357 495.56236791845697 L 481.989596028969 412.1818832397483 L 437.92259937211213 636.0633208536971 L 132.00271828743882 534.810868346484 L 231.50995145800118 227.2287359773294 L 440.7844855711413 323.74980555335543 L 298.89465840514856 381.14464453302 L 369.33022559260615 150.70334251361336 L 672.2360638007235 275.4121565161148 L 553.243316530146 569.1908184828764 L 366.65989298874837 457.15987134307966 L 519.3225642280146 426.83937493117656 L 422.3857114130997 661.0746187851408 L 125.26824301902923 513.6754897129559 L 262.2176462959741 236.12120359950507 L 424.3840616051602 361.5276883146783 L 263.51619592587167 363.9664164754976 L 386.7887394460101 128.71536613261162 L 675.4309108067603 297.7569946122487 L 522.2892752530743 556.8449075209276 L 386.0157784180363 420.36267741273093 L 552.4433135094696 446.3221548015728 L 403.2981258169183 679.8304731788962 L 125.70089621074322 490.464671200231 L 293.0551251032613 251.88165690159036 L 402.22620802412564 397.00157726840615 L 232.93133498387087 342.4248726591974 L 407.19291722477226 113.36667589632248 L 671.3213650743019 321.4821861253625 L 491.9265579182734 537.7474988409115 L 410.78754971687613 386.5374266719924 L 580.2422075242057 469.64990116900725 L 381.90609215609794 691.6326695979001 L 133.4976242021272 466.58073609800437 L 322.5936852919664 274.200521119246 L 375.06105220350616 428.8737639435325 L 208.1376453296421 317.6071198360655 L 429.23166921106224 105.21304015458918 L 659.8664477897617 345.1693636455971 L 463.5487579404203 512.3593863723003 L 440.0955219511453 356.89843887314 L 601.8446903305476 495.6412416793188 L 359.57016245619656 696.0740692932977 L 148.54272016693974 443.4415424442672 L 349.4907542245411 302.47059125444355 L 343.88807308875505 456.02681343399985 L 189.87712112471883 290.7751868144077 L 451.5109281458686 104.50846612739997 L 641.3374942241473 367.4177176869041 L 438.43211249439685 481.42770798879144 L 472.8315643153079 332.4538820438554 L 616.6493698229506 522.9680344973007 L 337.70158529277626 693.0565657135483 L 170.41204112058264 422.4145153863005 L 372.55097324606345 335.8128714366435 L 309.91165941641555 477.5729516726743 L 178.60411109458755 263.3080168229558 L 472.61879808433537 111.19415479659335 L 616.3069026844519 386.90915308354676 L 417.67749617987135 445.95373762395667 L 507.70853472974295 313.96139068615867 L 624.3537100030167 550.2164399861504 L 317.696359100882 682.7950927706893 L 198.39116586334103 404.7530469000832 L 390.7804646451304 373.11478585939034 L 274.48724516950097 492.8929370866517 L 174.46629509833323 236.63802920758818 L 491.1915446849621 124.90157470751376 L 585.6232755722053 402.46960607333017 L 402.16051238615495 407.1491052372955 L 543.317960863874 301.8951460494841 L 624.9661703576176 575.9520011546125 L 300.8699530366331 665.807504475634 L 231.50667262471353 391.53816289646045 L 403.4318127995313 413.07903042064373 L 239.06046913738834 501.66265454935655 L 177.29956550190434 212.18514011251708 L 505.9774165472476 144.96951306721496 L 550.3740785027269 413.1237260995524 L 392.4919525237553 366.38242892808347 L 578.1933468347271 296.425909599318 L 618.8042471003795 598.7857682616384 L 288.3956734708825 642.8907879379999 L 268.56911859005237 383.6281177158249 L 410.0377138089033 454.28084996172703 L 205.10212331805354 503.8662284760773 L 186.63703924495442 191.29124788976867 L 515.8953858061936 170.47432703456428 L 511.8375110098375 418.14042864607495 L 388.99042101446736 325.11877984999387 L 610.8762283800336 297.41491115925686 L 606.4785123073061 617.438454995009 L 281.24948839078314 615.084693081013 L 308.22577138244446 381.6182149277575 L 410.43176404149693 495.23114251678874 L 174.0418469929093 499.79506554656086 L 201.73178375579118 175.15816829131475 L 520.0861273156693 200.27201796468992 L 471.42577291884027 417.0672411923289 L 391.66836984337357 284.85472679626514 L 639.9819737851317 304.42186255583965 L 588.8633838412784 630.7997027554056 L 280.1638281799298 583.6244344793251 L 349.0206991739866 385.81268763371565 L 404.755443746261 534.4425267419455 L 147.20358085658313 490.0328779776255 L 221.59221613167077 164.79184796458415 L 517.9529088865135 233.05021391616918 L 430.62230166170065 409.7518747229705 L 400.232175809262 247.05190862162465 L 664.2623389011583 316.7267246828177 L 567.0559624600517 637.9797517469567 L 285.5924728132599 549.8846174532813 L 389.459491584883 396.20992231904137 L 393.45098053099787 570.4953736685908 L 125.74571599275657 475.4273763529044 L 245.02855863722496 160.95539951150568 L 509.1905241213244 267.38769539797937 L 390.91582983950286 396.3500349208293 L 414.0962541330024 213.0721497976368 L 682.6619318139345 333.36422992322 L 542.3248151537346 638.3511626727892 L 297.6881310198338 515.316939355707 L 428.0756730778642 412.5017026935887 L 377.24042050468057 602.100805400127 L 110.60865935633069 457.0499277200933 L 270.70823081666913 164.1331003663242 L 493.8009435261469 301.81875660387243 L 353.734256773339 377.3191137513184 L 432.41056291811526 184.1170644080329 L 694.3660193275787 353.1695813602295 L 516.0510408870691 631.5786851721446 L 316.2937393877652 481.3844997212017 L 463.4957938350336 434.08651156998906 L 357.09186293513915 628.1578011465036 L 102.47220047173232 436.14502237184837 L 297.2176522311907 174.50699923798663 L 472.09496399663044 334.89947488400935 L 320.38133598124097 353.3980450803515 L 454.1002431716912 161.1748898753977 L 698.8375008884425 374.8332415502768 L 489.6643057224718 617.6359081264984 L 340.9478850146007 449.4957067261653 L 494.50024347009156 460.09628867318736 L 334.1743988275679 647.8018188637276 L 101.72461858255457 414.0718565256101 L 323.1276385185007 191.94720054008124 L 444.6797740021162 365.27287486874246 L 291.97905220005566 325.5742380223854 L 477.9155864460085 144.9769630087524 L 695.8413679745887 396.96230998594257 L 464.57676281096406 596.8079280820642 L 370.90411250953406 420.94078529208866 L 520.0770277661195 489.435429515198 L 309.8038082672932 660.4427265761362 L 108.4449357865152 392.2406968918751 L 347.0594103677731 216.01627516810828 L 412.43299279991527 391.7300244633453 L 269.41830249082295 295.03909019803643 L 502.49005179940195 135.9658124961876 L 685.4555358888601 418.14568856430424 L 442.11786856993007 569.6799079428744 L 405.1632442288581 396.8337732757142 L 539.4660689909189 520.8302529761132 L 285.38149229159575 665.7903235658164 L 122.39912403444367 372.04693055301 L 367.7482075408635 245.98760349707132 L 376.4643576544442 413.26428553100794 L 253.32011796994124 263.1341032277112 L 526.4036870988965 134.27631371857507 L 668.0675544788917 437.0200620324134 L 423.4730651482726 537.1120398293756 L 442.5172503029313 378.0626419825527 L 552.192021670985 552.8866883755284 L 262.32942329956404 663.8662959860482 L 143.0504394488584 354.80580885955607 L 384.101609491944 280.8768227867556 L 338.0667952848076 429.11625404153995 L 244.00918295696917 231.29005090804634 L 548.2490633888359 139.73075772964086 L 644.3573463315354 452.3336833569476 L 409.6291229019231 500.20204438758776 L 481.60267924793783 365.24980709265395 L 558.0841183663504 584.153558287917 L 242.02407955075063 655.0020683621717 L 169.58341510211383 341.69086239647817 L 395.2499054630073 319.4849551396556 L 298.65909706277466 438.80734857153374 L 241.50084871589598 200.9619671787918 L 566.696716338638 151.8480534860452 L 615.2667562621778 463.00505393674297 L 401.32863308840444 460.23690575355795 L 520.9612246543305 358.72482284981777 L 557.2821502418772 613.1885782362863 L 225.73237588057893 639.8226538348683 L 200.94042240551164 333.6787969206596 L 400.5862191774093 360.4512608547177 L 259.72279976554273 442.1605230380427 L 245.50222483559463 173.56291167378387 L 580.557110870591 169.86663971481303 L 581.9572955484819 468.1738210021334 L 399.0357241403598 418.6360309648128 L 559.1046784823064 358.5104975396623 L 550.2283181410296 638.6240702388602 L 214.55251225080767 619.2172426895527 L 235.8691398555741 331.50338512746566 L 399.79455993937 402.31341968767936 L 222.7361376881822 439.3071658325437 L 255.42729076802507 150.39952684186636 L 588.8363029658766 192.78005938787086 L 545.7580010171908 467.2415688392706 L 402.91456368689285 376.88841268006996 L 594.5813215581098 364.323057174967 L 537.6453328002608 659.2293996912833 L 209.3624382750571 594.2978717318742 L 272.97877205623485 335.620459594762 L 392.86452182280334 443.57230921346724 L 189.1080654807152 430.6798765025671 L 270.42533207080135 132.6123195798172 L 590.7827591604157 219.38357403116092 L 508.1057784303216 459.90064053159523 L 412.8216261976021 336.48664681426607 L 626.0407361455623 375.58634467118094 L 520.5017685002331 673.9672936474905 L 210.77828557951935 566.3480589779579 L 310.80246425897434 346.1856069154278 L 380.0919606924992 482.75844041308903 L 160.11534819596417 416.9914541206779 L 289.42139967363187 121.12338588225731 L 585.9231963356048 248.32969320857072 L 470.480941096263 446.1496717611028 L 428.31207924386223 298.86079967466594 L 652.2940969020686 391.45940277142853 L 499.96625437312787 682.041476455157 L 219.12466653322775 536.7637442705932 L 347.86307620479243 363.0455848525317 L 362.0656173584837 518.4970352990476 L 136.84557586700203 399.20105924010966 L 311.16694349284126 116.593958837289 L 574.0858037996311 278.19008932143606 L 434.34087287268284 426.29512313227104 L 448.65999841703365 265.3151260288482 L 672.3672018892646 410.87617963504067 L 477.3525953961158 682.9334532837413 L 234.41819813665512 506.98922605683055 L 382.7393266360297 385.7438596446538 L 339.64029517222315 549.5687931993309 L 120.1486907283649 378.4690953141077 L 334.29830888667266 119.39371381418107 L 555.4097835881125 307.52107781163045 L 401.05482955517334 400.9387348308188 L 472.891491186038 236.97050973737578 L 685.5438352480073 432.5955440673181 L 454.0583276786229 676.4267653804372 L 256.3650082523614 478.45101176056664 L 414.1293034221127 413.5400177959924 L 313.8978126986183 574.9635885264672 L 110.59922827468421 356.1028690579449 L 357.40042682352725 129.58323020210292 L 530.3407673478248 334.92968108856314 L 371.84284048731723 370.9514683341735 L 499.82922206729796 214.71523822163317 L 691.3974926547806 455.25932795744137 L 431.4995112326419 662.6176104710875 L 284.37234526160785 452.4925936248237 L 440.90845451730297 445.4421750405434 L 286.0975088936186 593.9246644391909 L 108.4709862677559 333.4955090946672 L 379.07279249870345 146.91041087412836 L 499.6123106333478 359.13726848843953 L 347.7214852499844 337.435115104818 L 528.1463121618588 199.16634288390162 L 689.8100297548399 477.4557479657647 L 411.0447344127418 641.9113416729133 L 317.5737706245904 430.3131192634658 L 462.179426455035 480.25091337774717 L 257.61855410014493 605.981319258249 L 113.7252707743956 312.0609292446113 L 397.9947232316138 170.82102592700087 L 464.2142989621273 379.03787532315374 L 329.45900706944803 301.6733137374567 L 556.4271590652789 190.64325684834085 L 680.9763883440994 497.78531349651564 L 393.95133984216613 615.0050003761874 L 354.8667957671677 412.91274846394623 L 477.311488473958 516.6127522109266 L 229.89669357662302 610.9686059374313 L 126.01325096997999 293.1678030165899 L 412.9869195186242 200.48290497192482 L 425.3496953616906 393.7485467718329 L 317.5417993841002 265.0741993441778 L 583.2324077173093 189.1549811030948 L 665.395188092955 514.926214653633 L 381.306780292346 582.8566736332618 L 394.961258620312 401.0471829670871 L 485.9677545015278 553.0807253130441 L 204.35830407372015 609.033155781917 L 144.69231296181547 278.07556104093237 L 423.0665216239997 234.822681682229 L 384.3815896884692 402.6494157299731 L 312.1537842271149 229.10729018973473 L 607.1651134227997 194.40133552342238 L 643.8456142745335 527.6962073690466 L 373.97777925477425 546.6430656317642 L 436.43624632585625 395.1934380961708 L 488.118970831305 588.1793116649909 L 182.35476675872283 600.6248687714597 L 168.85566637562994 267.8753312903726 L 427.4931503657581 272.5734235394443 L 342.7729513006095 405.41169139957407 L 313.16961409629715 195.23747913258626 L 626.9350834993709 205.7882306015598 L 617.3516550206155 535.1081721384417 L 372.569615486379 507.7072087849409 L 477.80298184815865 395.5284130032361 L 484.0432488592601 620.4707696111683 L 165.10014586678614 586.4748557815005 L 197.37385492963705 263.438517152199 L 425.80383134475045 312.3309847720305 L 302.0218186600216 402.0122860274956 L 320.1619998002966 164.85912973534576 L 641.4184664419549 222.45625788923257 L 587.1353167595304 536.4168105642459 L 377.3973897898077 467.4986881967005 L 517.5708206990851 401.9212334483891 L 474.3117620521686 648.6198594895122 L 153.61501250029 567.5606433489793 L 228.94628104656317 265.37536094990304 L 417.8352080510872 352.61652401255225 L 263.5948672586979 392.734415688136 L 332.4228236949257 139.2332725007509 L 649.7098732647603 243.32129139237298 L 554.5609474914978 531.1543470847233 L 388.4705866896637 427.5090936082163 L 554.313362412295 413.93971381179387 L 459.761065197904 671.4540127404222 L 148.6789738358544 545.0602309532512 L 262.1603994421108 274.005386224048 L 403.73202807124557 391.9423479312112 L 228.862371067345 378.15414975342287 L 348.9970702960547 119.43075618454571 L 651.1646550519193 267.1252458846495" stroke-opacity="1" stroke-linecap="round" stroke-miterlimit="10"/></g></svg>