<svg version="1.1" xmlns="http://www.w3.org/2000/svg" xmlns:xlink="http://www.w3.org/1999/xlink" width="800" height="800" viewBox="0 0 800 800"><defs/><g/><g transform="scale(1,1) scale(1,1)"><g transform="scale(1,1)"><rect fill="rgb(0,0,0)" stroke="none" x="0" y="0" width="800" height="800" fill-opacity="1"/></g><path fill="none" stroke="rgb(255,255,255)" paint-order="fill stroke markers" d=" M 400 400 L 397.3618649963398 397.80552820546075 L 398.75046775529523 393.25208495508826 L 405.0314528969203 391.0207643222631 L 412.811858117804 395.0867051018929 L 416.23642573257183 405.518788313152 L 410.74119213541985 417.54698620015034 L 396.5434670954278 423.74538075501385 L 379.6152016736494 418.3308783483863 L 369.19290008295906 401.18813657177543 L 372.8512369234812 379.13339532754253 L 391.7235403370402 363.2727688982523 L 418.67159499269815 363.4419814473612 L 440.85556475478427 382.4975169589234 L 445.85226621367553 413.6380975062252 L 428.40615611284716 442.62376707500914 L 394.2230676637499 454.2933447689304 L 358.42050511117696 440.39457365769493 L 338.84863936813014 404.7238720145333 L 347.22957850854044 362.58480845861726 L 382.49666891562566 334.25489901576327 L 429.99009864573713 335.2336640022669 L 467.480856168054 367.95935931213904 L 475.58359992989176 419.34432232428907 L 447.67669604474185 465.88775337773353 L 394.2958486155441 484.43337834770267 L 339.3521542839649 463.64309682110644 L 309.42143994863807 410.5217770700052 L 320.9026173607692 348.3805762729053 L 371.24455067245185 306.62578193793263 L 438.852311045751 306.8370610307845 L 492.3047404437582 351.7288540876502 L 504.9717764395027 422.5942591692376 L 468.22496625804655 487.015808985103 L 396.7120467666466 513.7082285003446 L 322.66038698824593 487.69098862867673 L 281.34845930793847 418.4414362238999 L 294.29747579523155 336.6880297914006 L 358.1922102203068 280.78465664867326 L 445.18037380632154 278.703332777882 L 514.9821083978857 334.10612121229843 L 533.5601634210924 423.402380997588 L 489.6883336259718 505.7308858543909 L 401.36581602722003 541.6745254655075 L 308.54311083983316 512.12822398208 L 255.04167865703982 428.2903559990976 L 267.8545444411704 327.6181611422269 L 343.61050135743324 257.09534893515706 L 448.9543675780812 251.28501568203666 L 535.2120052363049 315.4288805873295 L 560.9027315723076 421.8402187122027 L 511.67642646572034 521.8069593796295 L 408.09758164298125 567.9110569258089 L 297.14251024509855 536.5281145303552 L 230.88028664791617 439.8279542602975 L 242.0190586894738 321.22391385249335 L 327.8106519716264 235.87963232252986 L 450.2122683755232 225.02743237004998 L 552.7430144819548 296.06576200396535 L 586.572449895789 418.0345678798587 L 533.7787770394109 535.0729323193385 L 416.69750568798065 592.0266159170253 L 288.54278484017067 560.4555811875828 L 209.20370813242434 452.770550204838 L 217.2325447733305 317.4996567334956 L 311.13796130166264 217.41142557109805 L 449.0487183218669 200.36021646307776 L 567.3776491731018 276.40895647228024 L 610.1693257226943 412.1645581255074 L 555.5729055670229 545.4154318113269 L 426.9099933971504 613.6672679381704 L 282.76906219358807 583.4756322469646 L 190.30541478691205 466.797254548853 L 193.92430502856593 316.38184967134293 L 293.9647758729075 201.9119401050116 L 445.6126373315797 177.68911982911766 L 578.975665192152 256.86635576615697 L 631.3279308279698 404.45764542280506 L 576.6326846655948 552.7804461475757 L 438.43914897276005 632.5228942986254 L 279.78750403701747 605.1618785349641 L 174.4276388457688 481.5566412651778 L 172.50311123377236 317.7508857194477 L 276.6828850114216 189.54587178750592 L 440.1037255269609 157.38826440033014 L 587.456233127997 237.85333738578308 L 649.7242651475801 395.184609157461 L 596.5368173630081 557.1737712062925 L 450.9550703764566 648.332883117308 L 279.5066013774316 625.1049161503703 L 161.7570932052862 496.67406644940377 L 153.34927092757647 321.43407030284993 L 259.69548860404694 180.41871061452966 L 432.7679284579019 139.79299192373026 L 592.7989278757709 219.7843593983523 L 665.0818227347897 384.6536558545046 L 614.8772593891904 558.6602602397935 L 464.10085571018385 660.8908563265841 L 281.7796300383203 642.9204098166217 L 152.42178111088913 511.7594868054567 L 136.80722429973918 327.2096755468817 L 243.4088984869428 174.5752196082648 L 423.89195801710986 125.19345320633357 L 595.0435187934154 203.06453358025215 L 677.1767404101831 373.20374942955056 L 631.267417397901 557.3618946456875 L 477.50017943382693 670.0483401970091 L 286.40821495301026 658.2567156898338 L 146.48895695214608 526.4156201063673 L 123.17881880143364 334.8119861934479 L 228.22414032589043 171.99911087724954 L 413.79698090107956 113.82906377847456 L 594.2885671679304 188.0813458905763 L 685.8419277619212 361.19730338975324 L 645.3499590773374 553.4547169051596 L 490.765285153372 675.7173079034064 L 293.14692934766964 670.8018915072714 L 143.96427676892438 540.2462830110677 L 112.71739524582802 343.9372337039042 L 214.5286249967227 172.61392295237607 L 402.8316031782432 105.88393573940147 L 590.6888615478217 175.1966905177852 L 690.9700973758465 349.0123832597457 L 656.8040786996053 547.1646896006238 L 503.5052332683319 677.8715450720495 L 301.708834258165 680.2899540336051 L 144.79215340060063 552.8647379347148 L 105.62280310452678 354.2502973540712 L 202.6880572349555 176.28507957549328 L 391.36429365883697 101.48337618993668 L 584.4517446665008 164.7393776401272 L 692.5156360115888 337.03457738463453 L 665.3520723749177 538.7625658613981 L 515.3342365648286 676.5468126492718 L 311.7718450292548 686.5062586399245 L 148.85730723506882 563.9018803637799 L 102.03744430992003 365.39203577264624 L 193.03874472371342 182.8230865886006 L 379.77540003058414 100.69152150277381 L 575.8324077759603 156.99826572532098 L 690.4952804547524 325.6487009688815 L 670.7650909103877 528.5578763082658 L 525.8799149813937 671.8398053327672 L 322.98579492666613 689.2918932274476 L 155.98747974011923 573.0141010727759 L 102.04342447778191 376.98709975571063 L 185.88046292702475 191.98780092502685 L 368.4489199065206 103.51015413845914 L 565.1282487741597 152.21615686450286 L 684.9875855167655 315.2305016104196 L 672.8679544467795 516.8921551770181 L 534.791302298489 663.9059277391395 L 334.9800520811135 688.5469982414859 L 165.95725384270068 579.8906640846507 L 105.66086850215811 388.6520675663275 L 181.47001999649203 203.49368437723768 L 357.76419386179475 109.87872524851343 L 552.6724091379908 150.58457853255715 L 676.1311956330717 306.1385346178844 L 671.5429316436512 504.13154345051737 L 541.7464423788143 652.9559339644286 L 347.37153495644316 684.2329458195593 L 178.4929032298924 584.2604507915444 L 112.84743436901448 400.0037374882647 L 180.01565221318168 217.01593524928197 L 348.08768911652624 119.675582372078 L 538.8266209953441 152.23955758962646 L 664.121955263309 298.7063730525452 L 666.7324067230088 490.65891921087075 L 546.4594207162468 639.251498759118 L 359.77296361209517 676.3733337586023 L 193.27817222022264 585.8979332248815 L 123.4990352552627 410.66740927698316 L 181.67236394190599 232.19737357525585 L 339.76504072000483 132.72037761357046 L 523.9735093564137 157.2584726416879 L 649.2089163407425 293.235310783193 L 658.4403797615628 476.86571479427937 L 548.6866882759708 623.0998097376005 L 371.80117937129097 665.0537735130481 L 209.9608693978345 584.6282547848516 L 137.45175599419366 420.2849864003929 L 186.5383073068861 248.6559406541388 L 333.1135119440349 148.77760826623128 L 508.50850530452874 165.65804945168134 L 631.689322897859 289.98770701381085 L 646.7327688001625 463.14358650368234 L 548.2325487003106 604.8472894468744 L 383.08536420317915 650.4204753851976 L 228.16014208959942 580.3313144997867 L 154.48492628165104 428.52273458273567 L 194.65227611478392 265.99266150693643 L 328.4150272021637 167.56121937608395 L 492.831533603343 177.39354136878373 L 611.9026732687672 289.1811079380646 L 631.736506144658 449.87610548186683 L 544.9536966374258 584.8725733507914 L 393.27499320586674 632.6776579587906 L 247.4742853069944 572.9447707397696 L 174.32529003921925 435.0785390834209 L 205.99236637475477 283.7999097542767 L 325.90991934566387 188.7401766858885 L 477.33864256242293 192.35911316634835 L 590.2239785370518 290.98326564635533 L 613.6374452095142 437.4306378209852 L 538.7627138797797 563.5788844856017 L 402.04735899640843 612.0838321785707 L 267.488928257641 562.4659018431639 L 196.6521885952127 439.6885132216536 L 220.47583252505973 301.6698085124162 L 325.79151887537057 211.9448991686787 L 462.41374502101604 210.38942273735006 L 567.0563517952307 295.50815646994766 L 592.6771178961526 426.15057808482067 L 529.6304508176188 541.3859574445755 L 409.11451546303084 588.9470328321388 L 287.78543414242836 548.9522839190128 L 221.10365524481824 442.13282369333297 L 237.96014464956755 319.20259834121396 L 328.20169573472367 236.7744233382098 L 448.4206369534344 231.26237124074535 L 542.8230759903181 302.8130809520677 L 569.1484053661836 416.34809323620533 L 517.5872429720453 518.7216731741398 L 414.2295000429757 563.6190910923144 L 307.94934485673195 532.5212696944639 L 247.28330066801618 442.2406139623742 L 258.2452280359536 336.0148040992712 L 333.2274452590973 262.80415706848925 L 435.6954545012126 254.7029690329937 L 517.9593083765153 312.89690599312326 L 543.3902066734036 408.29752362900535 L 502.7229356710214 496.0135716913616 L 417.1917082207205 536.489060824795 L 327.57870148541144 513.3482762129964 L 274.7678530382327 439.89392512253806 L 281.0768428225344 351.74703672801286 L 340.8985889150099 289.59406901080774 L 424.53972132636136 280.3882424865973 L 492.90358671072295 325.6994868396259 L 515.7812096450517 402.2295744542094 L 485.1857137508805 473.68041208593377 L 417.85131100474564 507.9759281430533 L 346.29207413548403 491.66391297832456 L 303.1152036953162 435.0305337634505 L 306.1510387662244 366.0712734650906 L 351.18663811360835 316.6971511616047 L 415.21412622280724 307.95308606818503 L 468.08930610628676 341.10228296752393 L 486.73288626756766 398.32641508944386 L 465.179757088486 452.1239480736909 L 416.11262539658765 478.52074792610114 L 363.7361406196189 467.7500053250569 L 331.8727992844345 427.64564812810806 L 333.1195986751174 378.69747056280545 L 364.00484604502793 343.6679868057116 L 407.9331561703216 336.9969452031355 L 443.9363359111953 358.9301579725692 L 456.68185024317484 396.71778550393884 L 442.96176626285353 431.72108288356804 L 411.9363689263865 448.57836235006397 L 379.5926627031209 441.93458986798345 L 360.5862144649934 417.7924267836405 L 361.5963643367059 389.3793761106099 L 379.2094486456909 370.07125410566675 L 402.86069275158377 367.0911989043938 L 420.8429430026753 378.9543298596032 L 426.0817270472315 397.4781885903964 L 418.83642526985926 412.8165595137463 L 405.3407517721785 418.608864741425 L 393.5847208278005 414.5859794574161 L 388.80773580635673 405.5813076821289 L 391.16432111836355 397.919426707077 L 396.60207193553356 395.48999702002834 L 400.106660434199 397.78709718378394 L 399.1781816294912 400.89641504029436 L 395.39469653044847 400.6252254321091 L 393.15088953232936 395.71633154523425 L 396.40138336386633 389.068977082082 L 405.48208321500476 386.1060136969889 L 416.1047873510265 391.17815940500094 L 421.3833022665114 404.1726302149372 L 415.9332595411296 419.53350001858115 L 399.7247940260829 428.6240972039034 L 379.27490046370275 424.4334873968469 L 365.08287457103484 406.1191075072001 L 366.28840696278746 380.6817459175327 L 385.249994213393 360.4035111168511 L 415.1056027246885 356.9226273812268 L 442.0680316279621 374.8012900468903 L 451.7981615332286 408.0493572663008 L 436.9070517152146 441.8446111051692 L 401.7115700741412 459.1384341893999 L 361.42350503534146 449.2040533967582 L 335.5997034704756 413.86335614442896 L 338.66119727777516 367.9246527182348 L 372.07199755557116 333.0370813041474 L 422.3305544310157 327.48188291614974 L 466.3189864329854 356.7173721905657 L 481.94725336102624 409.5169861614173 L 459.18652600747305 462.1063687832786 L 406.00632354400875 488.8717583894079 L 345.86659851670726 474.8148258023847 L 307.38152058515095 423.7066756466419 L 310.70272964288915 357.60353834004843 L 357.1029387289571 307.3662327408201 L 427.08884821467194 298.23962354358105 L 488.5170074883735 337.2363642224916 L 511.3710536858503 408.6003688921444 L 482.40019040505587 480.0478026400831 L 412.4925472558386 517.379668104443 L 332.79460611278193 500.8481624753174 L 280.83947109316307 435.4459628722216 L 282.8595508557202 349.820757770864 L 340.62390262073393 283.75213885535766 L 429.37007331056714 269.652911838626 L 508.3654998291934 316.7055284561738 L 539.6207515747848 405.3811097476964 L 506.1491025640141 495.44879381463505 L 421.0003477435432 544.2399708096889 L 322.3424685690943 526.870023321766 L 256.3519239183762 448.830393178547 L 255.58282537329532 344.62091968408095 L 322.9559704923971 262.5140122424232 L 429.22135524091215 242.171422339086 L 525.6172362306111 295.5026647497305 L 566.2666424065825 399.9956718504427 L 530.0145741061432 508.14390050840046 L 431.3100079226434 569.0605098358711 L 314.5874688057193 552.4382879676466 L 234.25753977006664 463.56650094947724 L 229.31975433912388 341.99045481510666 L 304.4538366734739 243.92335773467974 L 426.7460294533465 216.22895814416856 L 540.0786789135421 274.02869413020767 L 590.9061572513689 392.63235055827573 L 553.566307110588 518.0250744575153 L 443.1565846659466 591.4864027108343 L 309.5482329467732 577.111269396331 L 214.8491272355851 479.324152881003 L 204.50504331868513 341.8583743470846 L 285.49871256320915 228.19917994319957 L 422.10115976576316 192.23525896702157 L 551.6132207065841 252.69974010937526 L 613.1713702635194 383.5271754668865 L 576.3708011258391 525.0432165122012 L 456.23544853663566 611.206548962057 L 307.18492345548145 600.4562547111127 L 198.3684071419055 495.74329418466124 L 181.5525876040296 344.09820112834086 L 266.49065980863986 215.50423844213054 L 415.4939529453512 170.56826239194712 L 560.1432834858022 231.93886557190558 L 632.7358362725118 372.95882430904544 L 597.9998634690401 529.2085427375729 L 470.20865393987094 627.9592797360311 L 307.400618163483 622.057903515385 L 185.0017872729785 512.4413322566328 L 160.84753971915097 348.5310329935758 L 247.8405060876702 205.94242280846788 L 407.17714293654996 151.5669711377358" stroke-opacity="1" stroke-linecap="round" stroke-miterlimit="10"/></g></svg>