<svg version="1.1" xmlns="http://www.w3.org/2000/svg" xmlns:xlink="http://www.w3.org/1999/xlink" width="800" height="800" viewBox="0 0 800 800"><defs/><g/><g transform="scale(1,1) scale(1,1)"><g transform="scale(1,1)"><rect fill="rgb(0,0,0)" stroke="none" x="0" y="0" width="800" height="800" fill-opacity="1"/></g><path fill="none" stroke="rgb(255,255,255)" paint-order="fill stroke markers" d=" M 400 400 L 387.5771358982875 371.7246766328506 L 358.44200827216997 445.252455381019 L 486.44660404310486 429.5039854326842 L 389.7812169650777 280.1598113967913 L 270.1110396563263 470.7950665798629 L 537.7020379542082 506.3870066508332 L 447.8617443435848 207.6194602669359 L 182.81003895150886 437.31089983805435 L 532.4326986987548 600.341355969266 L 539.4881732460894 183.68471729118284 L 131.53260013934494 357.0130140640111 L 471.5634617892267 674.3147473083226 L 629.100735448374 218.80771797362047 L 137.10626571277288 260.56040541822915 L 377.9139334890986 699.1003127435606 L 681.9125120041922 300.1955399049104 L 197.99108124525534 184.98586543169998 L 287.21327555752833 664.8373392055969 L 677.6071909285552 396.8472411196066 L 290.8857296491375 159.11404273284052 L 234.0316697262207 584.8941323596409 L 618.3387821482828 471.7606158086114 L 379.90256942421536 192.21159734037826 L 238.1681496704558 490.6040631876062 L 527.8832643821717 496.50204744491236 L 430.69874781651805 270.33864442274114 L 296.8548256840146 418.9275694860873 L 442.27621765615453 462.4023291156241 L 423.99902003759166 361.8381691865558 L 385.84722256162667 397.8984114598995 L 395.6230348033743 383.96990432048955 L 363.1854319038064 429.80186119978555 L 468.9713912231478 435.5849686609372 L 406.66918538606956 293.1775061005666 L 272.96529787048917 446.60373126547256 L 512.3684544422799 516.9132575100713 L 471.4187217504931 226.8719287997317 L 189.64198113966373 404.7786490038152 L 497.8275515411884 609.6026608860577 L 564.7076175188207 212.264551619444 L 146.81952368405194 319.96218966962255 L 429.95710550325225 676.8770740893331 L 650.1124094666286 256.21597012473023 L 162.17017419929834 224.73417481097889 L 334.37060252706937 691.9462347113092 L 694.2924446046677 342.5340965805413 L 230.4753276490867 155.7901184447166 L 247.6012643745838 648.5549635622044 L 680.1182259453523 438.3496487591858 L 325.680126312831 139.49204242904244 L 202.71688464665357 563.4463714871463 L 613.4163449615191 507.0585689646238 L 411.15268794193486 181.48827597996547 L 216.29923455484877 469.7691019582913 L 520.6750675663611 522.7350732557143 L 454.10821353748355 264.4896217609539 L 281.9151210458439 404.02462105609186 L 438.6140386467158 480.3399449048876 L 438.51823425131414 355.0775613037484 L 372.64998031774024 391.69428394897926 L 399.7252134910098 397.70438106238 L 371.4217594515499 416.86365161651275 L 451.70636053299916 437.2057676886948 L 419.47852317357854 308.5082190288526 L 280.15320293669834 424.8183740437 L 486.89395864534475 522.1897599918667 L 490.2302633220137 249.017486526423 L 201.57863918303536 375.12720448181756 L 463.3055098614452 612.7133627313451 L 584.2328830227041 243.8035939143024 L 167.57879905712258 286.692907621636 L 389.1871800101127 672.6419329922205 L 664.5610177202773 296.06748228800376 L 192.49512535851022 193.69250090899536 L 292.6918926583424 677.867906795261 L 699.6514526714466 386.3787608127422 L 267.48221995307097 132.11971163489346 L 210.79402413854544 625.8037612595899 L 675.7316561846314 480.32631981578055 L 363.9905037601701 125.61206613681355 L 174.73049590388263 536.4010979344275 L 602.2429338393905 542.0678592673806 L 445.00773243341484 176.14343850763342 L 197.7010844531345 444.2945656307639 L 508.1227434087951 548.4429728392703 L 479.6328276567154 263.247027817926 L 269.67116327677144 385.16408822981106 L 430.41007295379853 498.0925180273113 L 455.24332736446485 352.0747298528924 L 361.3233864626923 381.6855048413831 L 399.66071052336883 411.9933636090678 L 382.4653121516101 407.1193869897418 L 435.6022704054323 434.6017994008418 L 427.9153939608013 325.19794859380204 L 290.98881398244197 406.1965441383236 L 462.30579578797744 522.430776590686 L 503.9585888454282 273.0313436185857 L 217.8764621682478 349.1801536935729 L 429.9783353569399 609.9242916386968 L 597.7348323252968 277.1809595384554 L 192.96903857371188 258.0523952924183 L 350.42186239707576 661.9480666035766 L 672.1836314538457 337.1563199558393 L 227.13475595568036 168.24799291763628 L 254.0490738236724 657.3166765787573 L 697.8327211599826 430.48175937008756 L 307.98930842686957 114.70135335329854 L 177.9082154871145 597.1359418516217 L 664.4033354147915 521.5461688994768 L 404.7719979681453 118.0907052338049 L 151.09504064536148 504.3677654519431 L 584.8577163629099 575.6250500941389 L 480.4578784332306 176.6958455632873 L 183.29619382834056 414.7887687002865 L 490.2950850324679 572.5534520470336 L 506.3365520931906 267.07564604974306 L 260.97525969549906 362.90291746369513 L 417.705872949541 514.6658377224018 L 473.3169668956906 353.2985394202627 L 352.70328564325615 368.3552848131512 L 395.4061966272409 425.87642068439584 L 395.50675615774446 401.0913228628838 L 421.5347930496588 428.1967646933372 L 431.8880011820005 342.26210562057213 L 304.6566942719436 391.3349437308891 L 439.5560096544334 518.0456385776702 L 512.4753208385171 297.8561620308415 L 237.65785972670605 327.5930696442611 L 398.876706140814 601.6886081354517 L 605.1033112365092 311.24661666172256 L 222.0147128006639 234.70893891732604 L 314.7374120173356 645.3407219854192 L 672.944460093946 378.25647841374456 L 265.0143137034297 149.02300556823377 L 219.50849096865716 630.9491048868608 L 688.9101884744854 473.5880832769287 L 350.85648803021684 104.06334946153675 L 149.9440428946291 563.301916986827 L 646.3175875957518 560.78407033618 L 446.87498643553914 117.34349877306505 L 132.7096279146956 468.14326795571003 L 561.5210799688017 606.5826833135822 L 516.3999500208139 183.46624931135733 L 173.88251991222856 382.0363708942245 L 467.4727429598753 594.014750823117 L 533.196864538699 276.2489704660087 L 256.55894534501806 337.96649343950514 L 400.74702810910395 529.0851841635498 L 491.79641692664467 359.0335219688734 L 347.51049810481834 352.35279166272073 L 387.13911617276443 438.40803809422357 L 409.64769558194814 399.1210743381619 L 410.26865244693596 418.5833405058222 L 431.5078033157994 358.72637024541723 L 320.2468748866919 380.64787405881367 L 419.4851217836042 509.61905361923607 L 515.8624567193212 322.44363500500725 L 259.94708285902504 310.8318994053558 L 370.91342489557513 588.6411542312619 L 606.4473336680007 344.8638746397202 L 253.64329363967326 217.13067868520145 L 283.0812460182591 623.5495720512552 L 667.0336915156001 418.16510208375126 L 304.96906489571666 136.42942886281014 L 189.99506815948752 599.6032728123133 L 673.1856914414868 514.478959775553 L 394.8653236178831 100.51687101033201 L 127.74975571779248 525.225173078005 L 621.8826508447224 596.8639860269537 L 489.0847656998606 123.56787014973526 L 120.31579355873794 428.6858550696601 L 532.7087168607111 633.8515766285726 L 551.6768830130407 196.56182543367527 L 170.1007016331183 346.9719257210242 L 440.1415064859133 611.8369191708885 L 559.1436567040491 290.83466556914794 L 257.00123044924567 311.2222949694087 L 379.9761938619481 540.4357566309944 L 509.6918690776545 369.36579018293264 L 346.3195516701442 334.4670891400696 L 375.23079384634144 448.69766253812685 L 423.9387772377448 401.35552976422395 L 402.4263075088377 406.4972131016578 L 427.08267888659157 373.66691590030166 L 336.79327750647843 374.35299853351745 L 402.79045805405826 497.8847592073703 L 514.405231525733 345.7953283696733 L 283.70949199229557 299.158789505031 L 346.8514326890687 571.5711576821903 L 602.0870834968678 376.95097405049506 L 286.7256642971404 205.57199123309877 L 256.2400232494375 597.4600347006374 L 654.8580977524127 455.7445910650273 L 345.7857895421113 130.65621159623407 L 166.2610383873043 564.2685890212467 L 651.1778750226533 552.013964788864 L 438.7612363897982 104.14506367859553 L 111.99157047565427 483.9708035870922 L 591.7179463591523 628.700489835613 L 530.163847179729 136.73395483648324 L 114.46892159792145 387.082900892163 L 499.0976422931957 656.4413102780575 L 585.1195832402026 215.86848848364497 L 172.40693037718106 310.64747502954725 L 408.9776445645401 625.1311319433871 L 583.1003522672835 310.6878679018137 L 262.702538422177 283.64775501772306 L 356.0182875554414 547.9010443784762 L 526.0068746294378 384.1767518066186 L 349.53312711423933 315.59538402729436 L 360.2317697261799 455.94762299230047 L 437.41982107040974 407.7405594974477 L 398.4623917716466 392.7854726262341 L 419.10232651122254 386.2484414918303 L 353.3140993997542 372.46494844666535 L 390.0003225229759 483.69356311468925 L 508.5771820506457 367.00122308512755 L 307.8926996906236 292.6258513429684 L 327.277816048401 551.3893572155116 L 592.538075345014 406.5202152973885 L 320.11826538530227 200.06793517435733 L 234.81390774054697 568.0790880730065 L 637.0237843145953 489.96203198922825 L 386.24581603013934 131.6650608422085 L 148.86104780053506 526.0502272241815 L 623.603284059419 585.1702187203151 L 481.2969907516165 114.80040317885425 L 103.13013490711086 440.70885966770163 L 556.6336280415278 655.3371433878574 L 568.8953038626464 156.5836839890125 L 115.51632103847766 344.513708187755 L 461.54463644320447 673.497374937986 L 615.5896116434296 241.0514182011975 L 181.05253018609264 274.1953890512996 L 374.825825052352 633.1455330099905 L 604.0256789478639 335.45262445640645 L 273.8653641866174 256.29353689442075 L 329.65839356878774 550.797647611719 L 539.779314805133 403.1448934996958 L 357.36322409152444 296.70680455984825 L 342.84992502321063 459.48744948254523 L 449.16041244381597 418.0227656312645 L 398.6448989662518 378.3706050810903 L 408.216483070738 395.7585388088429 L 368.8525909245645 374.7969954117125 L 381.4549923671574 467.97702471107254 L 499.01802008109973 385.27448975667124 L 331.4680078823387 291.07706636003866 L 312.58476439335453 529.0908254292881 L 578.4881120457555 432.71315984978844 L 352.7053845613162 200.4369297257813 L 219.19794762945443 536.4968851169584 L 614.3117558465866 519.9244938384438 L 425.1679918933351 139.1944520988976 L 138.1345429599407 486.1295237875486 L 591.3503469751099 613.0772185568205 L 521.2758721038001 132.11039192503011 L 101.40440970875488 396.6738726555868 L 517.6031586171966 675.9802947867735 L 604.1255586248781 182.63817906569508 L 123.5827985917644 302.2087192599596 L 421.05788698694874 684.3335753074399 L 642.0210928831389 271.5638145834226 L 196.0710532705823 238.78783479225962 L 338.6704147354688 635.2962274079007 L 620.9545002121413 364.5714536905227 L 290.4824280396715 230.24361671213774 L 301.81320004596716 548.6051889167995 L 550.121322897057 425.7555935074189 L 369.8197976976975 278.80310647390456 L 323.92223843595553 458.80324652339647 L 458.2993744323018 431.75920930772776 L 403.04384403154046 364.2114866789889 L 395.2068184527125 401.6370643193008 L 382.5166429673758 380.97070494202495 L 377.29524485268354 451.7081955627302 L 486.50519583262223 399.9811729346527 L 353.47055204337755 294.1582200796378 L 302.95816838252483 505.71492634822175 L 560.7679479001688 454.83059079788234 L 383.4399957192543 206.29152496992134 L 209.57123498263456 503.8456260162276 L 587.6472397072441 544.9088879204821 L 461.44999238332605 152.77177251249856 L 134.19607543821155 445.7218152765829 L 555.4472271467764 635.04602389623 L 557.5929581100661 155.49137978195938 L 106.82356614497411 353.12204564604247 L 475.72992006347533 690.0270422988781 L 634.805023960902 214.21320064182277 L 138.56428723794846 261.40664218100255 L 378.7628673279063 688.4584598069855 L 663.4602697734756 306.66358868483815 L 217.2734140208628 205.59438680078736 L 301.6012160602865 631.1922208092346 L 633.036143894115 397.3027054743611 L 312.3328160157915 206.5736875495138 L 273.4970390731097 540.9901404364913 L 556.2566092305358 451.3186144456125 L 386.7073299092699 262.8778229966599 L 304.38125874031823 453.56096740510066 L 464.08158068018736 448.33474533225353 L 411.5278415273235 351.26290065189403 L 380.95360779694903 403.49937740260674 L 393.5156492744632 390.4331792684548 L 377.4588374552323 435.8609481569708 L 471.9202721039176 410.6636603585911 L 373.03661777970075 301.3344481424232 L 298.3742573152082 482.3039499807313 L 540.3168032644705 472.35612163436264 L 411.38161267871857 217.05681644754438 L 205.89421668432317 471.25724695577117 L 558.0639420404235 564.3852987318862 L 494.1064339928012 171.73311425332568 L 136.93386008143653 406.0332896021897 L 517.0247465072058 650.5917274431675 L 589.2729582468997 184.1699874944589 L 119.16719744369612 311.2876987103208 L 432.2090902842554 697.0863231191045 L 660.0250819000997 250.44209216282238 L 160.12978869391014 223.3110815999117 L 335.8637043862281 685.5947694635727 L 679.1012112238911 345.4373960219408 L 244.25128190582024 175.73936831010735 L 264.7749102262841 620.6533321634164 L 639.5687561170431 432.7450988382877 L 338.9862943075599 186.30946855920772 L 245.78381095598178 527.8226219352232 L 557.5537363108972 478.9926325444109 L 407.6294963256421 249.87543729507618 L 285.21758361993193 443.6226685127352 L 465.8906706350498 466.9863009810589 L 423.7687389031199 340.43515365479476 L 366.39848250549727 401.152543388731 L 401.19321479759947 402.4812063737055 L 381.68505662117224 421.3694735071732 L 456.2114263377043 417.05705226186757 L 389.4367065694161 311.91468762371574 L 298.60436653181034 459.8620129157505 L 518.1440686622173 484.9725863042589 L 435.7297394004128 231.99576830464213 L 207.91421765142852 439.8215245502325 L 526.6645991873457 578.0329410605232 L 522.3023833631908 195.2499483877811 L 146.0166127749017 368.21845886261536 L 477.2757692397954 659.4483936553245 L 615.503226161433 217.21132693040443 L 137.9938303927354 272.3405798717599 L 388.28619566927716 696.9923446317068 L 679.0500289503757 290.30537787960867 L 187.73157599658728 189.04828395875325 L 293.60146162491526 675.6911598920192 L 688.3163233209885 386.83114145214347 L 276.38864205098844 150.26052462206624 L 229.37364216434327 603.7203691250267 L 640.0283561245469 469.8685420734817 L 369.81567442174514 170.38650992945153 L 219.7662335220072 509.1854911072644 L 553.5540433275175 507.81588892098523 L 432.00177845139615 240.65215792139443" stroke-opacity="1" stroke-linecap="round" stroke-miterlimit="10"/></g></svg>