<svg version="1.1" xmlns="http://www.w3.org/2000/svg" xmlns:xlink="http://www.w3.org/1999/xlink" width="800" height="800" viewBox="0 0 800 800"><defs/><g/><g transform="scale(1,1) scale(1,1)"><g transform="scale(1,1)"><rect fill="rgb(0,0,0)" stroke="none" x="0" y="0" width="800" height="800" fill-opacity="1"/></g><path fill="none" stroke="rgb(255,255,255)" paint-order="fill stroke markers" d=" M 400 400 L 427.5807119045443 514.2219306253503 L 592.4062082357865 301.32771889278274 L 217.05347443198454 187.49553578872613 L 225.07319527332132 643.4409774314735 L 651.2622712431194 502.15150622089254 L 429.63565797469414 202.86216470353978 L 304.7516876682132 408.3765212270955 L 392.535831259614 377.8219764696852 L 282.62140131326964 473.84902048310664 L 566.0379885893365 561.7398517670867 L 546.8558918928632 152.4066712672284 L 115.22414830202933 312.3998266403978 L 383.9965546642673 659.916108504905 L 578.4766841240894 368.36339695790247 L 370.68516117413554 332.98679778552446 L 437.16365043859656 371.7891699133644 L 276.81997072160783 299.4550480760823 L 293.54685928239627 621.7109064546497 L 687.0867052376007 461.4023625480872 L 392.2829726997644 105.79861630054097 L 160.5412451714267 464.510846847105 L 477.70809998142374 542.2147365282672 L 437.1923201302619 366.2430119526106 L 457.59311284112493 439.1357460870691 L 462.8193911813322 233.06473259759954 L 143.35963923084046 368.2762285507534 L 433.82472709222594 695.5713471049776 L 671.267224299063 300.7111409135767 L 270.19830257374963 205.21369380541128 L 303.7025055838052 504.18798526829255 L 423.57937828892483 413.1624384123014 L 375.21704868842477 488.7869484989872 L 596.5134797299548 406.93381481799673 L 345.9861934356556 135.79630266896282 L 128.74930876808827 527.2332188893129 L 576.1305437080493 619.8107926610028 L 533.8165926372278 226.98819591430376 L 289.74677308232515 350.577025577805 L 399.3365609306624 403.5553392039601 L 285.98861169655595 405.9852523812519 L 460.9836240453641 604.8236991957507 L 641.3284968646229 259.7951108317886 L 192.6954292746339 183.29906088595678 L 252.66689664185043 629.5442918901373 L 590.8963273002789 466.17567830679656 L 409.568225420789 301.42620767085174 L 419.59888837195894 397.2347457508583 L 350.12033470700277 274.05762186926216 L 212.43748154124856 532.2188647979233 L 615.6719843135564 589.0968374463005 L 538.5384013793321 135.77039646006978 L 145.706576661401 336.15716498697384 L 398.33456465933233 584.1201523359962 L 474.66521758819687 382.68408434118714 L 419.3119236584974 438.51127037762615 L 519.0835651353215 299.341164022785 L 203.26397662822455 255.9174444698653 L 287.27189793049615 670.2452138210607 L 691.2964227008619 446.48858285513177 L 380.35092162830307 150.75993082712606 L 243.06181880554246 451.24307841368636 L 428.23123262300993 445.7854782110023 L 353.444597049885 446.93564060775697 L 550.0804511458532 490.86276235176246 L 477.7022691422935 155.29917485664188 L 103.72566748908628 379.06635097855553 L 448.0017637681332 685.8194192190381 L 617.3565287440897 307.25073605690943 L 313.34690087002315 283.6772853716706 L 380.43398323954096 423.5330279411896 L 320.36080095166756 360.87141908048704 L 357.73450029386424 589.2272780581204 L 668.024606237432 395.3950756482661 L 324.7351223642719 110.21260212906628 L 150.53053014121866 533.3977058124412 L 547.165538730688 565.1187899030588 L 470.68915352262337 297.9697024506944 L 393.25386872856075 397.3914637513909 L 414.5888338440263 290.1489912062392 L 190.00493419585155 422.10914043800466 L 493.105801798629 661.6836161043315 L 651.1146496873573 235.92264862644933 L 200.29497933012775 212.04147923893177 L 298.61282722645814 577.8278069864255 L 498.41886957726183 428.43351803734123 L 399.2831021369956 416.166850313056 L 529.7780946130399 374.6888624797776 L 305.40774632147634 193.49936751528134 L 175.39899528687715 576.6568660532943 L 634.613790168384 584.8784782945168 L 510.1319315770406 160.15261662960754 L 216.52067246262064 364.04176555463084 L 403.47719053233374 480.06245841859754 L 362.0421937771176 410.9286739918783 L 475.57291470409916 532.8320278066932 L 576.178095540172 234.48696858694825 L 155.6951042237328 240.05435928339944 L 300.65150289615906 678.4259904745288 L 650.5849149717724 426.6134327540842 L 378.02148124455516 233.34295036362425 L 346.496611891158 420.6322244291087 L 364.409948014776 348.5304443017748 L 285.11119994341493 528.6683248990203 L 624.6296168680573 520.3784693883093 L 474.79229400587747 113.10655207821367 L 109.3123589233989 394.740813779895 L 451.78413061692555 632.8400429229181 L 533.0775170218865 334.7663634243929 L 378.1592015356825 373.6822465760402 L 451.00309107963835 331.6637181764286 L 224.28707645321978 324.83139363196176 L 355.63474582282214 662.7009984952942 L 698.4270944062507 379.1874412647426 L 314.2707758669915 129.16552888170503 L 208.60982038421233 515.6346636033481 L 489.6422345183611 490.53919329449946 L 405.7019560788133 390.77138317882736 L 502.10923404893566 433.4434277763814 L 416.58146105208135 192.08889218458896 L 127.04753166407806 443.30608790476947 L 515.2417916303689 676.9812032087156 L 622.5699930795834 237.30884673721667 L 241.78152671359692 266.0139446931115 L 352.472084230936 494.5636895700664 L 387.7574589379417 397.1490274358324 L 401.04902860848335 528.9629723299681 L 618.0402052936911 345.4699862188222 L 268.0611118327146 147.79904519771947 L 174.98531357657185 596.9260611006227 L 616.9640929483901 553.2410358612016 L 470.0438727310727 223.6140412384366 L 317.2133494404664 388.24250556628925 L 396.56304494950496 364.2531811642652 L 258.51105481768917 448.9038946426695 L 529.222077757721 601.7314283488719 L 601.4576658926318 189.79467526808347 L 144.00912498460022 250.96461731741255 L 327.31508309689536 643.3137841271869 L 570.8399349004494 409.1246445651432 L 388.8851201217101 340.1334912132503 L 453.8915649290382 375.9010796355948 L 296.40577004630984 265.8103454670023 L 241.66484853921762 597.2336859993816 L 667.7863389678819 525.9059687641529 L 458.6680575425071 114.35669559670544 L 159.43693051898964 408.2686574819918 L 440.555118870449 545.8048220945062 L 433.01442541359324 381.6101730065393 L 455.46537214943265 460.11991405462874 L 504.5696141035615 243.38745527109717 L 151.47388814749885 308.7779968647629 L 365.75040410270515 696.8894544782488 L 683.0981421166325 365.2675389499567 L 320.59415283105307 188.40357821402682 L 291.8511569714703 473.3455185791887 L 410.69961136061835 409.72911474290987 L 350.01904770198 491.2731767941502 L 598.8173578819702 453.75625127432437 L 407.4596694157474 125.16179243525875 L 106.59030316515805 462.4752709105225 L 519.7103658465704 649.9050385983885 L 562.7505430385429 267.40271176020724 L 313.0717755964956 333.88810586410705 L 403.5967212082901 391.79831513946584 L 276.25695488799124 377.94914206801207 L 413.462002695795 621.9357331241434 L 671.0115319541419 316.90404989673846 L 247.55365412980794 142.44694601981325 L 208.36856094972384 586.3308615024192 L 562.9020883166231 502.6974885681023 L 427.8531190034196 317.48970718855287 L 432.1915024568282 402.8606052567054 L 378.3449865532649 255.0517165298679 L 180.02103655076556 489.1997451339154 L 569.1632411159866 635.8731134210341 L 593.8247359844582 175.27413708592502 L 172.45170542166625 283.0437646324752 L 358.9947452201236 569.1424596055906 L 464.42654695661554 400.0586903800306 L 412.9740995980729 453.9458835001907 L 548.2483548381742 324.14381695160694 L 236.4372653166822 209.6606812498081 L 227.4688727560806 639.6459916594561 L 670.801532120184 510.38282915329944 L 436.3200957166703 159.88509234784033 L 246.1298945573412 413.390715259728 L 413.1621868911499 439.22651109686666 L 333.67779352018084 441.6424875763611 L 532.7483697448816 529.5478714688116 L 534.3839880353936 173.90348687437574 L 114.75293017774197 311.97035652292334 L 382.14374177836646 685.7639136168086 L 624.8980314603912 360.3460717881683 L 346.4393167471656 277.2568282942923 L 385.5947262257821 410.9143356352182 L 322.0757408735074 336.27642673713433 L 311.8323153018498 583.1997256804987 L 667.3718606933785 457.4404920958046 L 392.40848984233054 100.16375455139001 L 131.05701229642858 472.1912654371742 L 501.72231453236986 586.567208877012 L 483.42644743338843 324.41787034658586 L 404.41397021564427 403.0052680149019 L 443.21313357674046 285.48268247479535 L 181.78624632091467 372.82436439166685 L 431.8364496618765 680.4586798107157 L 681.3605372935027 297.3073509511309 L 251.08451339647635 176.08892452502343 L 267.2881550402669 543.3239227920644 L 479.01586870084105 444.20255556011233 L 392.2533024789781 427.65586207267705 L 543.2967119028127 405.18681051131597 L 353.11060960019404 169.57528039445364 L 137.94541944341654 522.628556884624 L 585.6752746058687 632.1556880604655 L 557.8579509579454 196.28879638585303 L 238.5740276609887 327.4612549820785 L 387.4738207847653 466.7897468123082 L 348.14319183982025 402.6749575770776 L 446.5154832526513 556.7520062437137 L 615.3828976780742 275.1310475686164 L 196.52468343703322 186.913609357035 L 241.39004229010112 646.6190688093776 L 631.3671097213291 480.4413562874141 L 415.36327623826713 243.20988615749022 L 355.4801804273088 406.2400502395485 L 372.5148027948552 330.41687055453883 L 250.63522466858757 505.088493685235 L 596.2876222809844 572.4175445718183 L 538.6839205702157 136.0777417783134 L 121.3338560619751 329.76823883446406 L 397.7032079351649 630.6845248328981 L 533.6292791230893 369.13773977183365 L 390.2985799153017 380.6096507135187 L 474.3268847295413 337.2890437047547 L 238.23823768713285 281.3048171862878 L 295.06961484707267 650.9080594292961 L 696.043656632816 447.5227981237323 L 378.2649048864444 121.05666172966596 L 195.5259730078181 466.55830237262046 L 460.748715473299 498.72360181503876 L 398.785226116941 401.2224661172206 L 501.8165292609317 461.7692978733776 L 465.9914634468023 192.83341092773048 L 119.7029104048907 379.9386115762852 L 449.3683737354726 695.6050940195614 L 648.8855684181315 294.0647315169226 L 281.8229593586367 241.0576718255527 L 339.85042841205893 472.21098797692423 L 377.46603742032556 388.90304844207003 L 369.3128685659464 536.803745189515 L 632.8532943619522 396.2115337955339 L 327.76760517507194 120.84344709768902 L 137.31375080297772 540.1574845112792 L 572.5155951042871 593.9167481297553 L 502.57738482218025 252.23106353553263 L 333.361478606735 374.1629810539322 L 406.41023103115236 352.066870553376 L 240.40293626943114 416.6560474549054 L 482.56011520546303 632.7149029400963 L 646.2070936604472 239.44907656858993 L 186.11990341054764 198.3324267877639 L 277.4552575293554 614.48274777612 L 554.2565941768001 444.71750190231234 L 402.1939436444961 351.5220083443189 L 470.0005955340042 386.41368769406466 L 325.29185665189965 236.5144082173418 L 195.91488880744993 560.2196558077985 L 633.6715725810327 584.4812966117728 L 520.583018299506 138.02163490616977 L 171.3991590698627 354.9825776773169 L 405.9622112735289 540.2268589457628 L 424.30675246933015 393.02565979096795 L 446.3198395458207 481.5876911898639 L 544.3822188922002 264.6054602174936 L 173.8906057136327 251.67245500033732 L 299.02608406449735 682.1688961315558 L 679.474489161547 429.9391454032286 L 371.7538122385259 184.30125137213304 L 288.7023740164667 442.80268170672235 L 401.075436425999 401.55830529233293 L 322.8208614332554 486.27751463062214 L 589.3366712141894 501.68718633934225 L 470.8121838773729 129.38386719183023 L 100.21479023856364 394.30303055643424 L 458.816762873978 665.6027792310848 L 580.3506917038295 311.7970752459072 L 337.86132583190886 324.9851106770582 L 412.88283412939876 382.77175149938324 L 274.09474070656813 346.0029823278179 L 361.3947681344885 627.3326180249815 L 686.6531384684938 380.2709515586616 L 310.2803481176394 115.65899056921376 L 176.19085084749375 534.9434948994315 L 528.4703934006812 529.9925018690311 L 439.4688556079356 336.24959917391203 L 442.5494700013038 413.97898915754536 L 412.65596573749957 243.11332057613106 L 158.13597220433581 438.14781521997764 L 512.3774102011225 670.7919906721918 L 638.0450454706463 226.32960116648476 L 210.08471231325674 238.8744439062613 L 326.375847067299 546.1539696670682 L 450.72483457158324 411.8612326280201 L 400.489646281848 467.7868714920017 L 571.5932749859381 357.2520258525405 L 280.784688941892 171.61384862073277 L 176.1366735492734 595.5585847427719 L 636.2095596817337 567.1567761911774 L 487.0239714608036 181.43506493250473 L 257.90467828262985 379.687319893323 L 402.7386990881712 428.7594336644029 L 314.554250387345 429.44615124218825 L 505.1403951900067 564.4666559779806 L 586.1893104210944 206.07994783397933 L 141.30191703829826 249.0727971850457 L 318.9457483279378 670.4317389212331 L 619.6910910699357 411.93452047659684 L 377.7384836117709 279.48433373857847 L 394.96807228383267 402.2446502288513 L 331.38570124539274 310.9536365277914 L 266.89817841651256 565.4921842308466 L 651.833954180349 518.6858310831486 L 460.61157163599813 106.25218434187929 L 126.61081286848855 409.1476254015013 L 454.33713781223406 596.0458709777217 L 488.12427568338717 351.0177975134214 L 412.12796196229345 413.16976816106666 L 474.3817964941446 288.8188036667007 L 185.79344962331862 321.1535612272107 L 366.93395588567813 684.3543839973943 L 696.3495761301724 363.91575753010983 L 307.78544227602833 153.58945260996663 L 246.28288836997058 504.0451747135729 L 458.0133685544588 452.84795316371765 L 380.1751200637143 436.125230667925 L 548.9204230150082 440.4107293543972 L 406.8072573966616 157.34902281074574 L 113.95950337348722 460.6338242777916 L 527.3407372887359 666.4567818548113 L 594.7792656147531 241.60303913560216 L 267.4298894255445 298.9851350241126 L 377.6033120885547 450.9454434975148 L 336.7463665737936 388.66881926229246 L 410.3710138777895 573.5939526815639 L 644.589189521171 325.24920337035144 L 249.08406479319535 144.50182132474393 L 191.6804360879084 602.1885241412957 L 600.7757503450777 526.829715440874 L 447.048729263632 261.04370822327905 L 367.6428050021613 397.09495949065206 L 387.2348660985303 314.0204153934694 L 221.59663747325752 472.1519933483337 L 555.529777776136 617.280939834121 L 595.6711299468618 173.55080109109446 L 147.95618428342124 270.16305720731407 L 347.3907959812021 616.1474275931882 L 525.8465238289959 400.2292839454318 L 397.87420845436543 391.1254768594949 L 497.12801549341214 350.4128266409149" stroke-opacity="1" stroke-linecap="round" stroke-miterlimit="10"/></g></svg>