<svg version="1.1" xmlns="http://www.w3.org/2000/svg" xmlns:xlink="http://www.w3.org/1999/xlink" width="800" height="800" viewBox="0 0 800 800"><defs/><g/><g transform="scale(1,1) scale(1,1)"><g transform="scale(1,1)"><rect fill="rgb(0,0,0)" stroke="none" x="0" y="0" width="800" height="800" fill-opacity="1"/></g><path fill="none" stroke="rgb(255,255,255)" paint-order="fill stroke markers" d=" M 400 400 L 170.7191384617158 377.0481400092387 L 110.7514027133846 341.50412445768177 L 259.04942488385024 356.50480888169335 L 497.84676642868294 441.2634857788672 L 648.9561167870054 535.6359554708504 L 612.2207569020854 544.760949359473 L 434.83992789679024 429.2500554092674 L 261.3507877912464 257.7630173600515 L 213.11065333905887 165.48275803705008 L 299.4633792231058 244.20827004607946 L 428.45260348387296 455.5563679907849 L 496.8311515224638 647.0548107711519 L 475.00271384456767 667.084326094396 L 415.56861812033515 488.5710804941273 L 387.9681621186784 238.20181637443895 L 407.604177021463 102.38342797018447 L 427.376517872248 182.68490007511406 L 396.1607322689464 416.76775834855914 L 323.0588750261144 628.4540707257015 L 279.896981905342 665.6339104715883 L 333.76426644123393 514.511339014448 L 471.36128782535553 300.9183456830433 L 591.1961096788125 183.73190062460168 L 581.6470099000464 231.76595929684692 L 422.6652248163521 382.86581121785684 L 219.67819684489382 509.9464480886277 L 130.57589037316 529.40553338549 L 238.69834459108466 458.5136249011059 L 476.71531168622744 380.55638305705435 L 669.9395362174873 359.6295965844164 L 670.0910424760182 386.84104871510294 L 473.2746413467465 403.7468163956384 L 225.5570394521052 373.48193378583187 L 110.00919310165006 325.75793316732 L 205.6555903927056 328.9699124409768 L 430.9248246774266 414.9450544481657 L 613.9100126388729 531.1334356305173 L 628.512446040106 573.6142405999406 L 485.37826551918073 479.45656873600797 L 309.09901135842955 296.67875551152366 L 229.40923649712977 161.93663147750837 L 281.59843957251366 194.16024140129096 L 395.3932368904183 389.74545091055023 L 470.6880189711631 611.5698335951428 L 465.57295426665615 689.5884268773041 L 419.271923427572 556.0085154628543 L 397.78820504794686 304.42248885674184 L 421.4083584131024 121.1888466867697 L 446.06966999865926 141.55665489564984 L 415.4255630166557 345.5733708546619 L 330.21548211959566 576.794146130901 L 262.6119100426264 666.6787379343532 L 294.349643391798 562.854094772101 L 432.1169879666828 359.8966159694495 L 581.8780361204281 214.31204274794925 L 616.0282378491403 219.51715716799845 L 483.23510663882564 343.51644610885523 L 265.75597795250474 472.7200905383277 L 126.87442354760037 514.407565513249 L 183.3521782195217 466.28339257101715 L 405.85073511204865 398.8314372327227 L 633.0924725256132 377.2332287506363 L 693.9715642810594 400.70772174084897 L 541.5424333619105 414.5131735672362 L 290.5204251326187 377.58503753336765 L 127.49065199665154 315.18872523617677 L 166.4197353381644 300.83259786014014 L 365.2856034945317 380.978424258873 L 567.4776745542351 514.8323721605327 L 629.0262325038013 593.2221557998555 L 525.8115150815722 529.6902765034846 L 357.5988826950835 346.5295402671345 L 255.1807076055814 174.39748650343236 L 275.1938709418726 154.85151516766155 L 369.4560659997548 321.514648025547 L 444.8252980055653 561.1117970204897 L 450.95000346913804 694.007978546562 L 415.4215692978992 614.3584154539694 L 400.64714044198604 376.8542939571337 L 431.15200275241426 157.42573836703454 L 465.41894506696633 117.41559958615585 L 440.7948018361006 279.8290378465867 L 347.17992348135 516.077842059304 L 254.07742620677786 650.8820615522357 L 256.82602089609725 597.7842572852882 L 385.0780892456114 416.7969911741165 L 558.3801030481161 254.02159549981332 L 638.4033028955737 220.67499615189803 L 542.5032676685828 313.5823233426055 L 323.39931771548373 436.56493735574674 L 140.9166844573071 493.27960738937105 L 140.27537275331315 465.162582750541 L 333.148587368024 409.83338113754206 L 581.0433430331365 391.61632684742824 L 699.250089082024 416.0242189706227 L 600.1824841736875 430.9241240979255 L 361.0152435475607 389.919241060224 L 161.5264959358624 312.1899869227982 L 143.52359409695907 275.28997985142536 L 305.41208707427637 341.70093610730476 L 513.5689764162696 486.71700287747336 L 614.8158247475641 600.8837836218019 L 553.9915573562516 575.8842075238208 L 403.06363838863024 404.297191075131 L 287.2838770190347 202.94822552445768 L 279.3495846874505 129.69594124315518 L 352.1539022812233 255.64085895648037 L 422.12035545161325 498.7932703186759 L 433.86757561020306 679.6944435361213 L 405.3806077111023 659.5218988934676 L 395.9967732640957 450.5416238048997 L 434.6202021025941 208.4565227203981 L 482.49332030928963 111.58401877841271 L 470.0128562348325 223.8701613431642 L 373.65978778436784 450.8270450561602 L 256.414280241057 620.1666254306847 L 224.83357551368704 617.6483441124425 L 333.3967136676325 467.67179679153145 L 521.3269916229347 299.13118143156277 L 646.1718924855751 233.81128030388416 L 595.9867454193277 294.44331499844424 L 388.98509751990446 404.58281224181 L 172.35752053285537 469.0483116860179 L 112.80807627786817 456.64198353692797 L 263.6133543507075 412.9898535432689 L 517.2640950318504 400.56461808255085 L 685.614800599511 429.98076005266034 L 645.3138972424371 450.84146426097567 L 432.1174323288062 410.0805691997838 L 209.27349500890176 318.4838453184094 L 137.87058982188142 255.54591252240445 L 255.17500131452363 300.18619129619026 L 456.4739430014682 447.8784750427352 L 588.0242140495313 594.7569708195401 L 568.8956229985043 614.0443740854842 L 442.2338124688996 466.1424485136294 L 322.26568586492664 246.39809719445515 L 292.25095454421034 121.14481311806668 L 344.01014994369376 196.8679198813976 L 404.89954948680116 428.68321425667114 L 417.19844532936037 647.3762698744288 L 391.2432963247467 688.3443463560764 L 384.23688877851384 520.4482076452753 L 430.2868413155648 270.59129152972173 L 494.4285931049012 124.02221577457391 L 500.1993044011895 181.19998539381422 L 408.3371188843044 385.74521413232253 L 270.86067087411936 577.4952321706257 L 201.79634716148925 622.0309701060912 L 280.86282076251905 509.279034367161 L 472.5234361450456 345.72135550805496 L 637.7763999127794 256.58803305899005 L 639.4530567745962 286.40534082851184 L 458.1440327622087 379.2239775470338 L 219.52565393230842 444.81784379012345 L 103.19285241687771 442.92853164396945 L 202.07467321672934 408.68797259030345 L 446.099229517537 402.57983187225466 L 654.136024609845 439.885502404514 L 674.0887048929933 471.5788383506005 L 498.9577929934038 436.7087246859703 L 266.9592372763583 334.9132959056739 L 149.04888047110018 244.49189887716693 L 217.54533463790358 259.98784742672206 L 400.502063089822 400.4717722106695 L 551.6605295499514 574.0655275759542 L 570.6604951996165 640.5990661517155 L 472.63605375683386 527.6955869267715 L 356.68966313585054 302.33690170325156 L 311.3843841595577 130.4616926602884 L 344.55103644268536 149.52892079398353 L 394.72058292213916 355.5026796936353 L 403.6486654040603 599.1150795803644 L 375.6040327951741 698.8619693674159 L 366.68037887725274 581.8453977216208 L 417.49598255607174 339.3822850663345 L 498.7321058961993 153.35323828860479 L 528.1146431870861 154.2353889195996 L 448.94571333388785 325.3427021551951 L 297.6076786104546 526.5996302041088 L 190.5970797495705 611.7402932139875 L 231.59926959773952 539.3207100096348 L 414.85105679312176 390.026130892252 L 612.8727640395161 286.0089431458782 L 669.275040687269 288.72632354455857 L 526.0919359283823 362.08515402079286 L 279.52892417993473 423.45897462126726 L 112.3837266058423 426.69485245683313 L 152.8111637935225 398.21468837212285 L 372.4315704002555 397.03904585389586 L 607.1768673260867 443.45799113024157 L 684.8997442245939 490.1743549107234 L 557.0978711175889 467.5910912622945 L 330.198139286451 361.3142719772549 L 175.40256948199843 244.4079314708253 L 194.38814628060666 224.83023072284294 L 349.62990525222745 347.57426153224674 L 509.30980658656665 539.2181406451118 L 560.5148466970065 652.7218571747175 L 492.7637417250934 584.4003712074775 L 387.45255798674566 367.29315639285863 L 333.81176821484235 157.59142038295423 L 352.3930746950048 117.19650403004141 L 392.23358700274343 284.2643207513546 L 395.4714836642714 538.1539992236018 L 361.27684551627965 690.452911590927 L 345.4268517714413 630.6743048153224 L 396.55950328759883 409.9767445203659 L 493.5578219823687 196.9950826649547 L 550.4681994968569 144.14524066129607 L 492.4407051560412 273.5859404622596 L 335.7262787166113 471.6524998413038 L 193.2902965624512 588.6909493348066 L 189.71763871474943 556.5930279782665 L 352.06863246226357 428.75208498195894 L 572.4023694141401 318.7215391605772 L 682.7429527398141 299.737242770492 L 588.0014057269311 353.7931631048877 L 348.4608745230859 407.3277025116266 L 139.95795781224848 410.7874203924464 L 119.21696378330165 383.6084771478695 L 301.30487204041 384.26669678050365 L 548.2005625461803 439.08424483699133 L 677.4867947238354 503.6952964383589 L 602.8657328252469 499.85273326876313 L 394.3514629004003 396.48089503889975 L 214.20346213141798 256.71134807330714 L 186.35371397498088 198.27290566918134 L 307.18706394659097 292.9564788761004 L 464.80222512898314 491.8265704553155 L 540.6178105305346 648.5995185075492 L 502.16490376720486 631.8825999524182 L 412.06069374697046 436.98435190133716 L 356.47761158094767 201.13561645515605 L 365.4162909451017 102.3907525030279 L 397.13325014143794 219.88538490992434 L 394.2280150266575 468.67035819183855 L 350.9921686139041 663.8803982149776 L 323.15628166493934 663.8519381459928 L 368.76084957533374 477.49852073898944 L 477.92536811656396 251.3883007486028 L 564.2401895817807 150.7936037240522 L 535.2466366795447 233.5996371733761 L 383.1945238996651 416.91143402414616 L 210.8801757521207 555.6965582313492 L 158.96442408866773 561.0372091625956 L 288.5313495983228 459.34539251898804 L 518.5570715818944 351.3419815313135 L 678.306576518958 317.04547768237154 L 639.3830757933799 353.9835199870632 L 421.69231381396474 398.03930815713886 L 184.13847608622518 397.9212367544686 L 103.5387057760475 367.43679445754987 L 237.53451999152978 365.5122492513908 L 481.49092021438366 426.0089056903773 L 652.9329778133317 509.54637422550576 L 633.624147095562 530.2158263314968 L 454.9006021208332 438.22885745427044 L 261.9072296004458 281.7777768421421 L 192.8734929501883 183.3790614476794 L 275.60673836611016 240.7837574446625 L 421.87155765946295 434.61944885069363 L 513.8200592542477 627.6204921698339 L 501.4313998671567 666.3119964032501 L 428.8415608159408 506.6393623422908 L 376.51987293426896 258.43795872524584 L 381.0059737333173 106.36955843198166 L 408.20585226766883 166.8062131701716 L 400.61733836035245 395.45308886389705 L 347.0997612469461 621.2245747951368 L 302.8617144906791 679.4963266957965 L 336.2633760704455 537.42654931928 L 451.8615651202441 312.2989335369372 L 566.988293462837 172.79102696644594 L 573.5629140688608 207.44626947067522 L 437.02459604501 366.3658635940942 L 243.18439028713175 516.191586259574 L 142.3884908136746 553.6885714897046 L 228.85185144392165 480.1841248542182 L 454.6385924017181 380.7727021211125 L 655.725872242192 337.8003480207075 L 676.4444928954399 361.37456827046196 L 494.2241605504694 396.31847182768183 L 241.92557516688004 390.39004086552984 L 106.70474929998818 352.5205591455943 L 185.33854269006162 342.8352517412373 L 411.8095475498837 404.4455936558602 L 613.5527531009604 505.75243286175277 L 647.9496464172771 555.3054062682107 L 507.8020798603619 483.5529916375455 L 314.4707854035491 318.8520384808244 L 212.25920050868294 182.41764838196002 L 256.26125426805663 195.27371409798334 L 383.8331029409717 371.25713924622244 L 483.37032877496404 590.4662003947262 L 492.0922702088175 684.7264352769087 L 437.0723004265188 571.3666834063779 L 391.5555246144429 325.77317198977136 L 396.3395176342234 129.019483152166 L 423.4662849830166 128.64590857307434 L 414.39224190765896 323.5315341654443 L 351.30613625062983 565.7090814492985 L 287.54579629514774 677.0525532473234 L 301.93053428835697 585.9387776379511 L 416.4498507021892 375.1704669360857 L 557.1101557966116 207.64789251639385 L 603.7000778636744 196.00021384019908 L 493.4804823508714 323.4172174160309 L 288.7977481939281 473.9082529453971 L 142.0591984226786 536.5305138099577 L 177.53126117087334 490.68011183429235 L 384.8226708530423 404.4841326997055 L 616.1163384010398 358.99533786686555 L 696.3963830512432 373.9290073188872 L 561.0725634220157 401.93896033932054 L 309.3272009080883 389.8195490045006 L 128.2606849382595 341.63185534827846 L 148.01935343023234 318.90810251646445 L 344.01874175096634 375.5940536734185 L 562.6820239007341 491.18860180200124 L 645.7087191619753 571.9738238065202 L 549.7946029766747 528.8664682536905 L 367.70269094970155 366.05900999312905 L 241.894409724128 196.62660422017444 L 249.39511961325883 160.3388591308573 L 353.30924225132674 306.0618662238351 L 452.5948895211857 539.0957046190704 L 476.42274097659094 685.2904215746498 L 437.01447279003713 626.5380244369569 L 399.9143660972411 398.62479009531114 L 408.69090104654333 168.856667759395 L 440.371820823697 107.92373967570654 L 434.36891621741745 257.7864501107059 L 364.4717827879186 501.437278240135 L 279.9094106895627 657.3101123127665 L 269.073351903261 620.1933011282111 L 373.7812502972206 435.4945810159478 L 534.0368501673755 252.0151105147147 L 622.4171804155006 198.9254724440521 L 548.3688276468372 290.6193084556134 L 345.16084978030614 432.53775921040244 L 158.86056496541616 512.2683809934845 L 138.59128178103543 491.282957446982 L 313.8466564464637 420.7353402123558 L 561.8841577333353 377.77839265338207 L 697.68036646155 389.08670416835696 L 617.6544584232066 413.7580668769012 L 381.66883162149276 396.98719457859744 L 166.41613470572184 337.1935719216117 L 127.72224121362768 296.7545233707023 L 282.7016826215045 341.5612043545255 L 504.38909064842966 465.7354458198476 L 628.0263022974166 577.6142540297684 L 578.6329847742116 570.3015106048118 L 417.6159128875753 420.5156269045015 L 278.5001136425301 226.05946372099487 L 254.15944801553547 139.24530095811014 L 332.02614277512305 243.68489473496774 L 424.5795457577382 476.62335276041466 L 457.18788913351506 667.4651235091941" stroke-opacity="1" stroke-linecap="round" stroke-miterlimit="10"/></g></svg>