<svg version="1.1" xmlns="http://www.w3.org/2000/svg" xmlns:xlink="http://www.w3.org/1999/xlink" width="800" height="800" viewBox="0 0 800 800"><defs/><g/><g transform="scale(1,1) scale(1,1)"><g transform="scale(1,1)"><rect fill="rgb(0,0,0)" stroke="none" x="0" y="0" width="800" height="800" fill-opacity="1"/></g><path fill="none" stroke="rgb(255,255,255)" paint-order="fill stroke markers" d=" M 400 400 L 508.1698661026023 642.9660433086733 L 564.6851515290159 217.11272397530547 L 436.3464834322711 411.8120014506046 L 370.5995524871298 120.06675777404507 L 207.51720374903203 511.1053740689683 L 338.6714688132349 355.4314257091268 L 339.1677863951714 686.0041716559019 L 590.5162932701564 359.5350759887442 L 465.9174356941855 490.760521858305 L 549.3328035424328 141.46257079373788 L 236.79169100604045 382.8112873629047 L 354.69816881814194 260.46599134405756 L 177.10641564296313 600.5936355017252 L 519.4605495397332 453.2257189169944 L 399.94852669879856 578.8448634223116 L 670.7007518605895 279.57582453138804 L 329.1835461909021 336.1947399005621 L 464.3660223522455 202.13430319708326 L 113.70270134655459 429.9855374115948 L 429.13417525244995 450.50662205563543 L 262.43614646610706 589.180054308428 L 668.7291795294904 457.2387223796902 L 395.7792017035513 380.0995253578178 L 607.1230501608878 249.66197334285167 L 177.34219339541764 271.3060090854474 L 401.8854319715719 382.14699178026353 L 139.56950950271937 484.4698592877652 L 557.419712632482 575.0213060124838 L 377.2125283885005 451.1049502389713 L 687.1795302154283 400.16530616981964 L 314.7843708758552 208.2957675767957 L 462.30258239195143 330.8913515759729 L 118.64722998334906 308.3859479888915 L 418.77755875199284 579.7846886214492 L 288.56758859936406 464.2357938812252 L 642.4088113703225 576.3762681887918 L 431.038251071206 254.4845605554891 L 558.5824814534511 366.41308364051497 L 224.55610890073632 158.1418117308878 L 342.7287421329928 499.0211407231497 L 208.13507404670304 379.6815673451878 L 490.29533701575747 678.6643831698129 L 458.1036276267769 347.7699981447688 L 601.4809673223197 489.90900000286223 L 400.24373986405993 117.70728997979433 L 362.9021994666488 416.477786599058 L 218.27809260615243 236.0798808703326 L 317.24091584665825 653.9103363818408 L 402.3828417988263 399.7518180570334 L 532.2000151355053 629.485300275584 L 545.6549179520391 199.9351954038752 L 435.0495910465192 407.4865786971186 L 341.93186533754215 125.43827641555367 L 218.7654779156921 531.3879014794481 L 336.3927137430199 363.186761655403 L 369.18078117291367 690.2251666663133 L 587.0270811896144 339.4572792208415 L 473.477638935017 481.78804293732634 L 521.6473119522054 127.60597252515322 L 233.8889050807068 399.8087663285518 L 341.33674084933904 267.824034528994 L 199.04417493646326 622.650827930719 L 526.3774558389774 441.2314840583007 L 418.27665195243236 575.9691124503175 L 657.0869975828052 251.99795555580434 L 321.12115487140943 342.5384066292446 L 443.1597548471372 198.22514471526034 L 117.69836341312947 459.6202009332714 L 435.58729150642444 449.11832431774434 L 283.5296200708529 601.1083363335658 L 674.1606697709589 429.1931167115604 L 393.00507618410245 378.370209567202 L 589.4985224904104 229.85477249688927 L 164.0895818723612 294.5643017267329 L 400.0223919964081 384.4397355829841 L 150.62448558839435 510.5936809304849 L 575.8004447916845 558.7623616254024 L 383.36049966290796 450.951525661895 L 684.9532571042023 370.48683972086405 L 294.5329112819765 216.67635526620626 L 453.4648357412009 326.6519618693841 L 111.06590870582312 338.10986744834764 L 437.6943949373307 578.7373790572581 L 297.5779136408984 474.1620807554847 L 659.2891407109764 550.2650276124944 L 416.01718185456826 249.988271990561 L 552.3267018915617 350.78702550963294 L 200.30798253310152 177.4650598203615 L 352.3920338427758 506.4396948234769 L 208.90320937429135 399.67000252687774 L 518.8830259684204 668.2753154892323 L 453.9294346567263 340.31750016051717 L 608.1612568615722 468.0465929835506 L 370.91638819846486 118.40320437975697 L 362.7520638483153 421.41467388621834 L 203.40058057870309 256.6081292005805 L 343.762484710704 662.1763905287294 L 404.68847341680527 399.01264485494323 L 554.5971962253058 613.637004796376 L 524.8212840661477 184.75801638582124 L 433.2703813598608 403.56205891317757 L 314.064352906621 133.74534004737063 L 232.1693906805441 550.515838664669 L 335.04350133722335 370.92405143270497 L 399.41314111398486 691.2926445465639 L 581.3980184316493 319.6780707360791 L 479.89897367000776 472.2389340804614 L 492.69296930933706 116.71913010255759 L 232.7836244882316 417.2216438626453 L 329.0077817959981 276.43632505227305 L 223.16516194729394 642.3053551066281 L 532.0644724701386 428.367932403807 L 436.00822845277145 571.2300899277838 L 640.6536096282672 225.95790280163985 L 313.63617777276073 349.88341231320794 L 421.8386692130996 196.57535688883505 L 124.77774082600894 488.74255041203725 L 442.048863451368 446.9131624344239 L 305.61214410979665 610.702520773286 L 676.6453702235242 400.6369710581839 L 389.8357398033408 377.0273073836634 L 569.9981373444282 212.08442265208294 L 153.2875619118713 319.194053202978 L 398.65480490307783 386.9016165201685 L 164.29496771924428 535.3316467870274 L 592.4824589483017 540.5589301663085 L 389.2243283224878 450.09499154660887 L 679.6578385613082 341.27438274804695 L 275.1178870960966 227.21677918147753 L 444.43070124128116 323.4851650861797 L 106.62996341166149 368.41982518179896 L 456.58849449214006 575.6741720041555 L 307.4328685086257 482.92106321169666 L 673.3515104823464 522.5470327339649 L 400.3961332230364 247.0701552000983 L 544.5511998708828 336.09311100071 L 178.19111966930842 199.22411584610873 L 362.98811333533075 512.8928783423277 L 211.74043099813574 419.2793772109446 L 546.2783370594204 654.9406085057964 L 448.81671325104463 333.1904062573561 L 612.4830101773294 445.77009749596465 L 341.74043520034894 122.16398974912141 L 363.2499463312097 426.5456488530383 L 190.82212810061174 278.453893535085 L 371.1104176013806 667.6513425138992 L 406.8410834675723 397.79851036504397 L 575.1292983048937 595.6150491265507 L 502.3967012225104 171.77149627891666 L 431.078543130657 400.08944733182415 L 287.29749148291444 144.87930988402724 L 247.60854941218452 568.2584030464872 L 334.59438108552604 378.5359433515738 L 429.5331375702923 689.2069409954643 L 573.6547572858401 300.42780775324206 L 485.14479276685626 462.2515500078598 L 462.78887762306516 108.91603515060132 L 233.5304072237063 434.85707264989003 L 317.82596990595914 286.16846966535115 L 249.20580325686782 659.3412635270491 L 536.4151059722432 414.7640082284689 L 452.95549046463384 564.7206515412782 L 621.5743136016926 201.7448719676705 L 306.8510745697476 358.1757153816694 L 400.64215525782544 197.16618099821733 L 134.8766635217238 517.0301082781431 L 448.41667919220396 443.8763050820939 L 328.42707023950845 617.886493739863 L 676.1361121335729 371.88192603265793 L 386.32409675803984 376.13319162132797 L 548.8547343513568 196.52631443945418 L 145.07852295642866 344.93484023033733 L 397.7950691290816 389.4546132916696 L 180.4120883151384 558.4225630410144 L 607.2588225583286 520.5906490768829 L 394.7266591237993 448.59338207558847 L 671.3664699238238 312.8454687096487 L 256.77154707216647 239.8319722727771 L 435.325800182254 321.3847286455694 L 105.37904236613372 398.9824584582758 L 475.24254923190927 570.5894934921148 L 317.98833084775606 490.4460089708882 L 684.4441937357046 493.5269919900188 L 384.34377048556945 245.80624003025832 L 535.3816744719823 322.4767901444915 L 158.45053408025964 223.1835129945224 L 374.4179089214011 518.2661048295516 L 216.57613119598173 438.29693071045756 L 572.1765367189053 638.796972856901 L 442.7903709415697 326.50497552553963 L 614.4328120499603 423.3326362428616 L 313.03797385431824 128.96500725198752 L 364.4329172160143 431.7870451598624 L 180.65527604475315 301.3614839473788 L 398.98883729419805 670.2527522805165 L 408.7676367071622 396.1358394641214 L 593.586896288843 575.6359362690204 L 478.61377938718795 161.14314934875577 L 428.54889085083124 397.1095587325396 L 261.91776335449214 158.70081551576672 L 264.9377059102456 584.3975803722178 L 335.00384971004235 385.92112721858587 L 459.21154148018246 684.0033216556882 L 563.8479623741404 281.9345874089614 L 489.1947544760084 451.9654675570445 L 432.26409300918726 104.276335738228 L 236.16285095814936 452.5154170862677 L 307.88927304156914 296.87597083841 L 276.88120246972244 673.5715626179372 L 539.3366819052593 400.56143746405115 L 468.9435309532498 556.5523865480059 L 600.052577787655 179.6284315279726 L 300.8830359276386 367.3465016093703 L 379.8044072724874 199.95362969866278 L 147.89708565470107 544.1683144868456 L 454.58574520067197 440.0055575888866 L 351.71269505303763 622.6122087075707 L 672.6188857969346 343.24385512625315 L 382.53162448040473 375.74314834844563 L 526.3172697691006 183.32944946753054 L 139.57695078559328 371.5114337760718 L 397.4447430978337 392.02023085819417 L 198.7809846722078 579.6254063504958 L 619.9418324890623 499.0592782904005 L 399.79919546709107 446.5129640725528 L 660.1852040029969 285.50738840620784 L 239.7172942637783 254.41172300733865 L 426.2722020091866 320.3300903519546 L 107.31741225598455 429.46254807039566 L 493.43797254723745 563.5014294600835 L 329.0956053637809 496.6874122106376 L 692.448474018631 463.52377849847784 L 368.03805068539634 246.25424462368838 L 524.9574628460242 310.0674975680423 L 141.3051775793507 249.08312453762582 L 386.56853560596926 522.4552493909157 L 223.31798011183375 456.520508084738 L 596.2885634710028 620.0127561896957 L 435.88950762031567 320.3755503657046 L 614.0242826468896 400.98557945442633 L 285.12751313148516 138.74759350854924 L 366.3274210232171 437.04976869912775 L 172.98429340301774 325.06613156564777 L 427.09368818819047 669.9297611613414 L 410.3992087934907 394.0610188123122 L 609.7854353965614 553.9361552182495 L 453.7228174537153 153.01555435735582 L 425.75999595578514 394.65253122510273 L 238.19451774314976 175.04149803287817 L 283.9881341692287 598.7308141554298 L 336.2193010176314 392.9856565360404 L 488.12530414509126 675.7514573332664 L 552.0530998566202 264.4215115548231 L 492.04466256383006 441.51960690204885 L 401.4539239531501 102.84450499889982 L 240.6927802729567 469.9925571180111 L 299.27810731113254 308.4062412770929 L 305.88832804252195 684.8403234320385 L 540.7518532532317 385.9132161960801 L 483.81214884312726 546.8539469174168 L 576.3193915493855 159.85544760456327 L 295.8422229179141 377.3127249889228 L 359.5517795292741 204.86937165892851 L 163.70805255904725 569.8540994110886 L 460.4498305948914 435.3117569212961 L 375.205314918035 624.8599046221295 L 666.1132021099502 315.0393168733143 L 378.5274445826713 375.9042823619695 L 502.64784633946243 172.61499491647194 L 136.86788842100628 398.63681191901884 L 397.5946098526774 394.5209075742175 L 219.18317320474998 598.7218994255611 L 630.3653876813812 476.1866173318601 L 404.38354829505806 443.9269742792705 L 646.2516039630023 259.55379062727377 L 224.16694901279965 270.8216177829041 L 417.3868235603536 320.2870438579123 L 112.41400895531882 459.52677813864716 L 510.9574969442042 554.4519160323679 L 340.60343500475034 501.6132042541969 L 697.2799461071706 432.8668476082404 L 351.6642069212167 248.45247056302318 L 513.4295730359644 298.9774084930807 L 126.94545889997266 276.64105358703506 L 399.3144310117805 525.3682879602688 L 231.85337120430168 473.7607603729907 L 618.3443222263427 598.7861459490359 L 428.1672586491486 314.9128461587982 L 611.2975595721422 378.9756705525935 L 258.320367085606 151.41955236039766 L 368.94856866598616 442.2406265755784 L 167.8645163362017 349.29709916882416 L 455.1161286123897 666.6638952056524 L 411.6722579160556 391.61979940242765 L 623.5671144503867 530.7693474867547 L 427.9891060483987 147.50448413085172 L 422.79277536858 392.737514781632 L 216.37704391763125 193.70607318191767 L 304.5693001337212 611.0735439474499 L 338.1781178641431 399.6441372307185 L 515.9611547414515 664.55451117054 L 538.3699258454683 248.1039730710367 L 493.70609374804775 431.05040115575923 L 370.6961652425496 104.62940925636047 L 247.10968947127714 487.0822865397902 L 292.05473318765667 320.60068195853717 L 335.90940665125333 693.024425947094 L 540.5999405422143 370.9819236839397 L 497.4174876761594 535.7691968976881 L 550.6307274197158 142.64727040473974 L 291.83006513208034 387.9778561796484 L 340.1002704500848 211.82189184919585 L 182.14704584171628 593.7993394986127 L 465.90306095208086 429.81897998274144 L 398.64227025604885 624.6379929710799 L 656.6720726415988 287.5819788025003 L 374.38726045630887 376.6545420972505 L 478.11861805896115 164.47517051392845 L 137.00572461365658 426.0153323675245 L 398.22491666955744 396.8814006809705 L 241.37917738019442 615.5188102366396 L 638.387133698224 452.21216745299665 L 408.43191969174495 440.91427197404363 L 629.7330447324748 235.26145330490206 L 210.31811483514872 288.90428247668535 L 408.7799339787104 321.2085998346763 L 120.60288821123288 488.8474641571028 L 527.5877955005176 543.5066427041518 L 352.36000446228314 505.2087336437953 L 698.8894273504644 401.89253786179466 L 335.4126041446914 252.41892245424438 L 500.9586077135699 289.30043025236097 L 115.5310835246151 305.5567721267855 L 412.5186832602446 526.9268101125554 L 242.05108753541265 489.8431584536155 L 638.095772367053 575.3430283328687 L 419.69043418770224 310.2222558460263 L 606.3184757199629 357.54224163274074 L 232.91710908167758 166.85603139372085 L 372.2995935602167 447.26374237515756 L 165.32202797973804 373.78082978466034 L 482.74600083177955 660.4695020605225 L 412.5298136643781 388.8665435448999 L 634.8024484939085 506.4032991938751 L 401.6900325784808 144.69732928237067 L 419.7290589148349 391.3725378144396 L 196.69188902700583 214.47468915286268 L 326.47080660114545 621.2615606740017 L 340.8088886092345 405.82076793010697 L 542.4190736533021 650.5478495625521 L 522.9216764663038 233.18699691665245 L 494.2058209956312 420.69003809837056 L 340.3273107300531 109.60427991907522 L 255.38045169216707 503.5787771839417 L 286.2628929954745 333.29679617272996 L 366.6154833105523 698.034934980026 L 538.838083502015 355.9378789151457 L 509.63344852864816 523.4552083553856 L 523.2647153926282 128.1972048865427 L 288.9376417112616 399.2328318241615" stroke-opacity="1" stroke-linecap="round" stroke-miterlimit="10"/></g></svg>