<svg version="1.1" xmlns="http://www.w3.org/2000/svg" xmlns:xlink="http://www.w3.org/1999/xlink" width="800" height="800" viewBox="0 0 800 800"><defs/><g/><g transform="scale(1,1) scale(1,1)"><g transform="scale(1,1)"><rect fill="rgb(0,0,0)" stroke="none" x="0" y="0" width="800" height="800" fill-opacity="1"/></g><path fill="none" stroke="rgb(255,255,255)" paint-order="fill stroke markers" d=" M 400 400 L 303.1564056845679 121.54007448390257 L 314.44151459399853 467.70007504653694 L 185.3316828022111 263.4012626711599 L 353.263780344099 597.8191239887324 L 221.72228776423532 418.3728867822849 L 514.1926085905583 644.209955857436 L 343.0739169062091 455.4309218116231 L 667.3798083960435 533.8098170280672 L 404.02221573590293 369.067870551645 L 681.4082087271423 341.3747962324315 L 329.26053878167215 282.01240669994 L 551.6602018501011 218.47745366268256 L 189.42936764175155 320.425241221463 L 404.077574460894 246.8182229406109 L 131.45636670637919 485.45534456779444 L 370.66041432023167 360.8220267707974 L 232.30780779121076 648.6662415798503 L 459.98357417322177 415.8680675109119 L 421.05173930923036 676.1631098973851 L 550.8542862931099 334.29398543154616 L 546.5669532002559 558.7619650160254 L 515.2035735834597 184.33720403579457 L 524.0654924497281 419.5027100404164 L 348.2559020012661 113.65697149029103 L 415.5971175489672 391.20430599341597 L 176.77253282516025 203.17626555869938 L 365.1128486161717 485.37582658588684 L 136.8968055438968 385.9828811495101 L 452.70223124594196 582.2665367960298 L 242.27927336889027 511.6889688738565 L 612.6394016602931 551.781834328499 L 372.82442586840693 492.67847043402435 L 696.6313008000561 385.31386824835056 L 395.00493597605583 387.64372677262236 L 619.7924977096847 207.66762986730086 L 294.4708110253704 339.9652482093462 L 444.8599004984085 156.97345963471986 L 189.59301774399265 432.2658768422223 L 321.23326383471976 251.20525810776334 L 212.58735968904926 601.4823332013369 L 339.1092832501888 373.20589509580947 L 376.090648363034 698.8341018110473 L 442.9824975866214 388.8019926461359 L 557.5416967884461 635.5180833693362 L 489.9285376852921 280.8513816880517 L 617.1073764675225 469.9866407220072 L 394.6590876044039 166.36839018602043 L 532.6696804519238 350.4327926340525 L 217.387330565556 179.75410653049718 L 418.49744267900314 369.4089444713866 L 107.18924913370569 337.8507469933771 L 409.3948089215712 474.4347076555955 L 156.68984042134124 520.6234391468585 L 525.294124953948 522.9235814971869 L 311.7803880563739 586.8323131268735 L 650.5590373484729 426.7736223123154 L 425.6502786147071 510.42129349174184 L 648.578635306427 243.13204764786786 L 403.58453470784025 402.85830504758627 L 498.15917229175705 121.1381180788486 L 295.1807606099995 399.6062465051129 L 316.54302373152314 157.0941831087435 L 242.79836976242686 523.4319051944632 L 246.08037456768972 301.24288790532927 L 337.5060054479102 660.1455463106543 L 316.5430853678168 408.2841626874626 L 525.4568584070937 670.947402702783 L 419.148167255159 381.49437920554925 L 657.7131472010842 530.1849899712037 L 417.70887599338 267.70151564660273 L 634.4837330919337 352.06882583648274 L 286.5365669470587 209.1302152602739 L 501.21684774580604 279.7740311661087 L 138.25820510995493 299.9623856585988 L 401.62340777284675 346.56103097468997 L 113.79240872807497 489.89373263136406 L 434.3261878926592 446.1974032041266 L 243.3120776599001 630.4758617827019 L 555.190721010099 441.6785783205219 L 415.84197342466445 618.6543787328724 L 622.0632325100439 304.2690673588836 L 487.64558901472134 495.6565582234634 L 537.5196625069003 144.87186589666393 L 422.1946412425592 403.5744135643096 L 348.0834622237197 106.40448011717524 L 323.31264247966885 442.8674713242115 L 201.4132754012789 223.57210718297569 L 328.93502366161397 572.0614884297212 L 203.57320510154037 388.7950216224554 L 470.9989340902699 649.0464597113806 L 317.42923831438935 458.0074950751343 L 640.5266104413122 573.0552679661411 L 402.492452699663 391.61660361475765 L 692.7698286522516 386.60732937722054 L 356.481812887135 291.17447461852885 L 588.5306954935791 236.27011330090153 L 218.19845576680117 295.6685878753423 L 431.88136625198416 230.84625404728075 L 129.69254967152546 440.41291376910306 L 367.0238243769154 337.13620020052394 L 195.1383100289575 618.5890037365511 L 436.43980824051255 416.19848811390824 L 376.2177559577443 683.8299641018768 L 540.7262941798066 363.9012746318534 L 527.7455954608774 592.5353065896657 L 539.725799132826 216.31282343572812 L 538.4582234416669 445.2081964298152 L 394.56273703658877 115.36023892582182 L 437.8006437396812 386.0387548876509 L 209.6384507158271 168.6450392153567 L 363.25444013504205 460.25739318553565 L 132.68925153120807 342.2129097567471 L 420.8709874641918 570.5133497945451 L 211.58122330474367 492.53037186021703 L 577.419597380722 575.3756599830463 L 349.3911720793907 506.1452892410185 L 691.2080185020891 432.22404912717485 L 402.04092320075983 408.9381309373146 L 651.2357448461844 242.77174160238732 L 321.64961391223153 337.04055227033365 L 486.9739538244129 155.84667213097634 L 203.57841942228058 398.5242637576755 L 340.06586266251225 223.40264682579084 L 190.61030001668274 563.1412794306714 L 325.8959584605716 352.0598305500645 L 329.28018680853364 689.593284304769 L 421.9596361205183 397.9034992952326 L 520.8359128699053 663.5597556125841 L 493.35359682318233 310.45479968925804 L 615.6540757374421 509.9574164711041 L 429.8620819115573 183.10705049683074 L 557.9037719073121 368.3401276854218 L 258.5716496321114 160.03959515543238 L 437.5003490391268 355.7949767737242 L 120.18417282071931 291.84809192794467 L 398.1900414651834 453.0171383673873 L 132.2110908108486 483.0048032133455 L 493.04422987106466 526.2098212388116 L 274.3103944285763 583.3942241511787 L 630.6611322337199 462.8770961869486 L 409.1712510454261 533.5419506462481 L 665.4620954730606 286.74054336642604 L 418.19863953079465 420.01244012050313 L 542.6781755824823 137.6659344083302 L 317.6506650964942 386.42020278553787 L 354.369945881956 136.17956088177124 L 240.32842056897817 488.4692491641283 L 250.84595861717816 266.4830723393492 L 301.14528476058257 636.8203284265744 L 294.97845753917073 393.61326466576844 L 479.9627865261599 684.5391192298065 L 403.4148727004153 397.6200970062032 L 638.0197387811971 572.6122597836982 L 432.60079733926864 291.8359250416342 L 651.9923925558134 389.4211086787988 L 324.1179447612567 208.15523997014054 L 533.2154070706722 285.18378742789344 L 165.12548760144807 264.0359109471959 L 414.2498604484482 325.9240993857144 L 103.82060774288226 443.14412700102935 L 416.2939779122233 431.347553828157 L 203.48500665996926 608.1106532403121 L 528.8594699305354 457.8622299393578 L 379.5894243059873 633.06520965765 L 620.9005092364955 344.2187675440193 L 482.26366626416007 525.0027123273146 L 572.3088498460771 175.23554934275842 L 442.56790630364276 414.07608038764886 L 395.4001421152107 100.23069765319178 L 337.8958670805608 422.6727163019687 L 225.85643129944776 186.72762775368258 L 311.99031451480124 543.1109418470415 L 191.819614243357 354.17643699393665 L 429.07521501665025 645.1745201762377 L 290.4737821977411 453.27739093603424 L 606.8710202149958 606.0299382012652 L 394.0359598865116 412.38876929499145 L 695.1269932345385 433.78039548874403 L 378.94166511309254 306.1529507593999 L 622.1558879494668 262.129134688493 L 250.05677524082972 278.5814437830087 L 464.4507016712484 221.20154055709654 L 136.74260343452875 397.0331089577574 L 370.5602138256266 312.1722515051832 L 164.59359258288836 581.9946475623217 L 414.6447072174928 409.55233559418485 L 329.8838309376737 682.5122242604984 L 524.6824675820062 388.568953238484 L 501.16551377202825 622.861943217534 L 556.282183113972 251.21658792849576 L 546.6196914680945 475.45355299884204 L 438.7840579727149 125.92881264623043 L 461.2869210412973 387.951207152259 L 248.68801608882117 141.05126368816718 L 368.467126891447 436.88882286728466 L 137.38772959843476 297.36193043331116 L 394.21020295332477 552.7631494620337 L 184.4717869503638 465.91950485895177 L 539.4921712823373 590.7098844988193 L 321.59000522128997 513.4917386205436 L 676.9279394101645 476.6079281283156 L 402.0474617186569 431.5461554278938 L 675.4795872012357 283.6878324824255 L 347.03771802335376 341.3177724679552 L 529.7836570500008 163.4953722362111 L 223.61120242748385 370.23160284252566 L 366.05875029133654 199.27393707781695 L 177.1704529289402 522.3714322850926 L 318.6906676090832 326.6629842070894 L 285.4413425641392 671.5670910388078 L 399.5785734740656 399.9727822401914 L 478.7161315331186 684.1976270240548 L 489.4202352889045 338.1787447111705 L 605.5985482093799 550.282097754004 L 459.2977954265889 205.9015714360657 L 579.4294358551238 393.14248194195784 L 301.8518680225128 149.11078738860044 L 460.68968181554686 348.0885939133344 L 141.83032275493946 249.25319004010706 L 394.07345183609107 430.1964017481426 L 115.2790513916242 440.38333581340225 L 462.8161285026537 521.967724224625 L 236.77700600118789 571.5585755394384 L 604.749761738716 492.86530708847357 L 386.02523540020337 552.9618965857675 L 673.3521480599549 332.0651028710507 L 426.98125248183703 441.33632926347826 L 583.3757746515838 162.65142408960887 L 341.5556942791503 380.4301591515218 L 396.78901649241067 122.89226400065479 L 245.55687502834508 455.7268582785347 L 263.7857676970619 231.894343669066 L 271.26545496870403 607.5813158614919 L 277.07529356864507 372.4579250593049 L 433.16979885963485 688.980240323114 L 383.4886673663276 407.9551296903002 L 610.1153240871549 610.8391470350933 L 440.1414296077444 317.41167959501615 L 661.853052555518 430.96880895563345 L 359.22498283613936 215.03535876964074 L 564.86614441896 298.5392422274306 L 197.74615550847076 234.96041454823953 L 433.229213481227 308.89016835480635 L 103.09880937418887 395.53844766411885 L 404.05572552805927 412.251991307457 L 168.1922082030174 577.8253049774496 L 501.1177546817612 466.49909065563634 L 339.51169117616473 639.8619261234529 L 611.7524349801718 381.3881262065284 L 469.1562832152173 553.8806094916591 L 599.8861653374714 211.1311385623089 L 459.40260570072826 430.8526098972805 L 443.1173438300426 103.34413765879788 L 356.7952982373379 408.3254452810709 L 257.8957202008652 154.69813782458328 L 302.81839739795805 512.8272908831834 L 187.59980823104695 316.0654570390507 L 390.2831550892141 633.2252818235792 L 264.0552429687697 441.0210238983794 L 567.9632510179081 631.4544206458746 L 379.32979516959074 429.67932724666935 L 688.2232130955708 480.8993743345927 L 395.44703571870247 325.5227465225299 L 650.7438683130281 295.2397490003885 L 283.1174861810963 269.5119454960511 L 500.2258488938445 218.97424052823473 L 151.9135482758186 357.1724024599307 L 381.45604215725103 287.76945580137186 L 141.90240953311877 540.4802555214416 L 396.2946496677636 396.6326279705487 L 284.044072373389 672.0214582841666 L 504.1810616953649 407.12159995166155 L 467.685439225971 647.9899150579264 L 564.5701630656115 287.13468655120175 L 547.5040363187164 508.67044723762285 L 479.07400446857224 144.60584495231905 L 484.2224617246221 397.0979449225879 L 292.2815859452419 121.56866867826363 L 380.01964476772497 416.9608032377569 L 151.1145971524403 253.4178755013085 L 373.87549071419704 530.5111012629766 L 162.66258575313606 432.7536928978202 L 500.7966974898146 597.5325896753989 L 290.9961426532559 513.7120926011171 L 654.6127313265365 516.6360883102541 L 394.89644015533696 453.6368578418575 L 691.4087952885851 328.7387766240297 L 368.9478936764765 352.03426911927573 L 571.3123077401324 179.97882868703266 L 248.15602734083703 348.5205007538143 L 398.28110292673074 180.49114693250013 L 172.46418610624508 481.13577603313814 L 318.4632280839166 298.59687399190506 L 246.381063721095 645.6418031038356 L 377.6713180929998 394.9089518366478 L 432.8913373580295 696.377398094663 L 478.9262444289998 362.33813034508455 L 586.9407925055837 588.9994472538085 L 481.86071815786755 233.17388640832027 L 595.6124992923342 423.8801059409752 L 345.24502682094055 147.1040187360963 L 486.47709721324554 347.2277259328762 L 171.17818714373078 211.84456908548415 L 397.1185429275925 407.80929188320454 L 106.88580313015183 394.49396069704045 L 436.2930302082375 511.0344227490325 L 201.12274327196377 551.3801884645795 L 574.4473695898738 515.6646386113939 L 357.197074889415 567.0821756659457 L 672.1763075167507 377.10718932023195 L 429.02276806257476 465.2332510140127 L 618.5074748847039 195.0843574977404 L 365.0507076064678 381.68095826455277 L 442.04532118735517 118.16204208136173 L 257.6029147637187 426.8852102243086 L 284.7949823954481 199.39834862022542 L 248.90296077064718 574.0959314388019 L 264.4006285618659 345.82516750638024 L 387.0868255517089 684.2650793904982 L 360.9770890029581 411.6153196844016 L 575.0673127937087 643.1602172831061 L 440.31690491798065 342.5721487401402 L 663.197259711115 474.94273220760135 L 390.18192145744035 228.8418334498244 L 594.2692972767945 319.6905187840572 L 234.40834163228692 213.72966303834443 L 457.5341313861858 296.9980825329954 L 111.56398042052666 349.09026158951764 L 398.47214171300294 390.53220648894046 L 139.09583141281485 540.740003568642 L 473.8361862727312 467.6094974763655 L 297.38702931169337 638.2352766680158 L 595.5995275161384 414.1091681953965 L 448.51358421628294 580.412245796547 L 619.3059885226983 250.80402123940232 L 471.18418039457424 452.85711057563 L 489.2229448296443 115.6122597227386 L 378.371884363363 400.6639084647755 L 296.36324205658457 129.09925136512368 L 301.36076159093403 483.0967638872041 L 191.66684536937453 276.2448956723509 L 356.27890886398836 614.2342839759924 L 240.03105556034438 421.4644249372018 L 525.5978310428272 648.4364044704585 L 359.440769298378 441.9941915865495 L 672.2601444689176 525.9597290900128 L 405.18224857115064 347.62342475549826 L 672.7277109148409 334.39182689541497 L 315.47811356030286 268.3589196035905 L 537.4230343164515 224.86494939543442 L 174.1124106915362 322.4702870978067 L 399.45312989039905 265.76680290963907 L 127.89915406641683 495.87640757254826 L 382.8667071485608 378.52752158553716 L 240.6894981573092 652.6268849743342 L 480.9076750486773 418.7673476805442 L 428.55208650137286 666.4019784240752 L 564.7383357969411 322.1488750703688 L 540.4589042329353 543.0767051782194 L 513.8151827469596 170.23951284147094" stroke-opacity="1" stroke-linecap="round" stroke-miterlimit="10"/></g></svg>