<svg version="1.1" xmlns="http://www.w3.org/2000/svg" xmlns:xlink="http://www.w3.org/1999/xlink" width="800" height="800" viewBox="0 0 800 800"><defs/><g/><g transform="scale(1,1) scale(1,1)"><g transform="scale(1,1)"><rect fill="rgb(0,0,0)" stroke="none" x="0" y="0" width="800" height="800" fill-opacity="1"/></g><path fill="none" stroke="rgb(255,255,255)" paint-order="fill stroke markers" d=" M 400 400 L 536.4161209726977 610.6479473633436 L 287.5063826171332 650.9464210736248 L 350.196638477801 407.69356879041845 L 546.232537439851 564.0772527602323 L 322.83652406172115 680.8285043732546 L 305.2754433004898 429.9813588547311 L 540.6948466947151 516.0197234698899 L 365.7029411501014 697.2173545985426 L 269.61664624476225 464.56615061755235 L 520.1338386507749 471.40992220364893 L 411.4594757050628 698.419822774101 L 246.64821963765664 507.88262629593623 L 486.4251583071015 434.8242103248959 L 455.16295627489967 684.3005477798492 L 238.4934642594589 555.4639637001023 L 442.79650637258806 410.01020171101675 L 492.08152015962264 656.2958772147636 L 245.75274558250447 602.4011250231166 L 393.4958193528579 399.50143062331455 L 518.1812082888091 617.2661835915807 L 267.4418205546156 643.8476158242786 L 343.35454733048294 404.35685403871906 L 530.5408004878424 571.2017609424493 L 301.09309625053413 675.5178140937314 L 297.29093388912804 424.0519732216494 L 527.65223710516 522.8125420070859 L 343.00940880388504 694.1276304202892 L 259.8043717064035 456.53276958572917 L 509.57573716332286 477.04382192538867 L 388.64422865765556 697.7321898904804 L 234.51282495325134 498.4269090739039 L 477.93366352822994 438.5677824832109 L 433.069198818528 685.9258147341627 L 223.780881441879 545.3904986892142 L 435.74376587574653 411.30309918523506 L 471.48093308381544 659.8837451851166 L 228.47667877054386 592.5547411233213 L 387.1089476621098 398.01202590807964 L 499.6949644377595 622.2413087502321 L 247.8826976871376 635.026561750363 L 336.795455731561 400.0163855201754 L 514.576055053775 576.8229618906311 L 279.7695950244114 668.3917327300154 L 289.74286375484144 417.06166875661694 L 514.3606227387352 528.2490644718141 L 320.62548457476794 689.1687622071681 L 250.55623375730775 447.3432149133662 L 498.83813141262834 481.4608190492629 L 366.01709087168797 695.1668790047141 L 223.03267247198963 487.6917824179644 L 469.37279475568425 441.2122214746601 L 411.0456414650924 685.7113042586461 L 209.77096272377378 533.899428616238 L 428.76336140709344 411.5812612568943 L 450.8506221176398 661.7126472087358 L 211.90440814509466 581.1521913004051 L 380.95539880690626 395.5506308201831 L 481.1095980081177 625.5732897574687 L 228.98436053593616 624.5250829807716 L 330.6356590962052 394.70105578925 L 498.4827085274805 580.9403854800421 L 259.02640575415035 659.4885018092373 L 282.75023499634557 409.04877855882 L 500.95613200143214 532.3308701118511 L 298.7144592173625 682.3739891842395 L 241.99604962360036 437.0439053385002 L 488.04920474386 484.667040519234 L 343.74178558312383 690.751444104654 L 212.33796604213427 475.72978662821765 L 460.86389812188327 442.7704546496682 L 389.2538784150588 683.6790084962647 L 196.60116809552935 521.0470433692166 L 421.97156631008687 410.8661904586894 L 430.34766223921645 661.7999299047482 L 196.18072454764993 568.2509783196468 L 375.148609493634 392.1484366838808 L 462.5756882382192 627.2764419757414 L 210.89819959038948 612.3994537570155 L 324.98823203344887 388.4520821012365 L 482.403481377159 583.567461231081 L 239.02005323835996 648.8610711510486 L 276.4282152142329 400.0640709661697 L 487.5730137987981 535.0729577016338 L 277.43593964034966 673.791400969712 L 234.24325971115823 425.693921364397 L 477.33493156963294 486.6815657816655 L 321.9785703821878 684.5282959165547 L 202.5540959067374 462.6064378165606 L 452.5256568461512 443.2679506628444 L 367.85225392134913 679.8656408661468 L 184.40383609377497 506.9029724125306 L 415.4814376819914 409.19161191298446 L 410.12604804305073 660.1773920933688 L 181.44512868309155 553.9223147582152 L 369.798182997655 387.84865799801804 L 444.240818615313 627.3791518826907 L 193.7702816996459 598.7199905950107 L 319.9617768461187 381.3226389885358 L 466.47806805316554 584.731229469543 L 219.90182252358994 636.5766868487752 L 270.8868836297099 390.17033937385 L 474.3423278007484 536.5034378921538 L 256.9444645259879 663.4835260401899 L 227.41166502714663 413.36455609638415 L 466.8177966236197 487.53609285996936 L 300.88285513899046 676.5542933730358 L 193.8003626188276 448.39974545245275 L 444.4728367465154 442.74235241824 L 346.9944904243097 674.3222306568135 L 173.30489143329828 491.5496760720606 L 409.4015833685997 406.6030676202038 L 390.3353396035876 656.8908802399483 L 167.83052204261497 538.2505956869809 L 365.00867134442143 382.70608444507656 L 426.24824686201964 625.9234689359256 L 177.74002628785846 583.5705138708134 L 315.6592137601498 373.3773666562374 L 450.84183574152644 584.4719234968096 L 201.8164246658944 622.716348355862 L 266.230022146046 379.4418681189487 L 461.39067441027066 536.6630985242427 L 237.3881657391626 651.5267893378823 L 221.60821255601397 400.13874205359343 L 456.61555617534856 487.2744793485663 L 280.603866412528 666.9002046799252 L 186.18875161244395 433.1996055344433 L 436.81507634496904 441.24298676545476 L 326.82836383986785 667.1135881217076 L 163.4226056108882 475.0818119475472 L 403.83497648913493 403.15738908965756 L 371.1193562696581 651.999755731139 L 155.46195269133372 521.3327459588822 L 360.8784081591818 376.7865125079372 L 408.7356238586005 622.9645709721473 L 162.93893790652797 567.0476836040552 L 312.1766250371694 364.69175987475586 L 435.62457337985677 582.8424272714634 L 184.9007199284742 607.3741395973326 L 262.55396345427306 367.96377936834153 L 448.83897670259194 535.6048475864131 L 218.90748798133737 638.0108440692343 L 216.93184065521618 386.1103591412662 L 446.8400533274342 485.9521632137849 L 261.28337073531816 655.6500431520619 L 179.82277047355834 417.1070748037557 L 429.6557335445256 438.8302560570218 L 307.4944383046235 658.317645363599 L 154.86642251099488 457.6054820776368 L 398.8778293377858 398.92205366281735 L 352.61493057983836 645.576239394444 L 144.45542793452498 503.2774479161958 L 357.498403917113 370.16606229576445 L 391.8337735553626 618.5701086824529 L 149.48940711704688 549.2602154133785 L 309.60216460959225 355.35144322694055 L 420.9493028375938 579.9076142942224 L 169.28251037383936 590.6564402209567 L 259.94650774577485 355.8312671192814 L 436.80132607577696 533.3930396834957 L 201.63397859397304 623.0377839334194 L 213.47239597720034 371.3834301348407 L 437.5960989679696 483.6354694557368 L 243.05446860052768 642.9002841687062 L 174.79636037413718 400.23353257670897 L 423.09080028983016 435.5749178339209 L 289.12487210159435 648.0246794678006 L 147.735860439862 439.2373676396182 L 394.61853792349115 393.97443102510175 L 334.9507338945955 637.7046398307009 L 134.91680525894844 484.20425647791984 L 354.9513147190305 362.9303863143038 L 375.6655453208301 612.8194358575621 L 137.50359106153343 530.3279837617647 L 308.01504424460757 345.45133968964217 L 406.9311635385125 575.7435745274395 L 155.07941315855726 572.6810242399662 L 258.48591894314995 343.1487255361916 L 425.3839027091368 530.1026929977002 L 185.68915875093757 606.7212431481753 L 211.30963274858416 356.07121113295796 L 428.98042929245605 480.40080979379206 L 226.04047030021127 628.7589707195003 L 171.19289243719504 382.6997378714076 L 417.2078959436421 431.5572599981361 L 271.8423057992188 636.3364254523583 L 142.1195013073986 420.1037590551191 L 391.1367077077345 388.40092747929174 L 318.24618463648204 628.4804732280371 L 126.94077221597405 464.2426096533112 L 353.31049499870886 355.1737779831481 L 360.34474945290725 605.8027331777893 L 127.08238433628543 510.38102068593275 L 307.48460650743743 335.09474058620816 L 393.676381069797 570.4367372454733 L 142.39782508039582 553.5760543874865 L 258.24001060023977 330.0287798914029 L 414.683981181129 525.8186047869075 L 171.1834865081809 589.1853926995379 L 210.5123044636614 340.29518547126 L 421.0807500453085 476.3337835771883 L 210.353863979112 613.3447160600679 L 169.08425900856412 364.6347905286263 L 412.08534933227804 426.86617985704413 L 255.75884283936443 623.3650876405063 L 138.09407685650774 400.3394903914507 L 388.5022703053515 382.29603656549693 L 302.6104492209904 618.0094833481387 L 120.60992508455564 443.5307435342517 L 352.6391437480162 346.9981886939384 L 345.97518575918417 597.6200343320857 L 118.31448993598093 489.55841920300026 L 308.0694939518548 324.3922859228054 L 381.2813294888055 564.0828987069015 L 131.3319880682272 533.478981491578 L 259.2653307662624 316.59122934345703 L 404.78903074682626 520.6343744275655 L 158.21542130679543 570.5638422202559 L 211.13735716634238 324.18397054185453 L 413.9748767675607 471.5281890793615 L 196.09538538545172 596.7856129627214 L 168.53006891116848 346.1750059700987 L 407.7913785306603 421.59817635974 L 240.9751319174033 609.2322590121092 L 135.72366093353088 380.0867878785691 L 386.77470001121776 375.7613055294931 L 288.14154485660424 606.4065713126893 L 115.993955222652 422.214521742444 L 352.9895529346649 338.5121631118007 L 332.6497741976427 588.3801641705287 L 111.27559909796452 468.00715149864834 L 309.81692303920096 313.46086501461093 L 369.83169611115704 556.7861644434088 L 121.9631643534338 512.5353590805161 L 261.60645415879833 302.96191166301 L 395.77591883895565 514.6513439066554 L 146.87059856363302 550.9984577901771 L 213.22923253601286 307.8721478277936 L 407.7299793836455 466.08495519734083 L 183.35319782719495 579.218059923419 L 169.57695477864334 327.46271408772714 L 404.3833764931187 415.8562656973999 L 227.5795595138606 594.0677589533685 L 135.05897579292372 359.4940432017848 L 386.00233803810136 368.9042279759574 L 274.925552400861 593.7946456639163 L 113.14895100826124 400.4461901330307 L 354.40246578552353 329.82970323144036 L 320.4497955671659 578.1995994249888 L 106.02768785018702 445.8808128172337 L 312.76207026972247 302.42244810250304 L 359.4017565534128 548.6578167655182 L 114.35892902625545 490.89758423109924 L 265.2953889591991 289.271500795339 L 387.7102253329545 507.9774664509042 L 137.22112193799052 530.6381067420047 L 216.81928793721642 291.4990272243335 L 402.401938429732 460.1110043565043 L 172.2021897896323 560.785515460829 L 172.25799950335457 308.6449935083116 L 401.90730958874735 409.7488311864515 L 215.64755987637298 578.0084005834563 L 136.13681935265896 338.7145229670096 L 386.2218312891099 361.83707377020056 L 263.0359463904382 580.3034039149904 L 112.1168221787052 378.3830682819649 L 356.9065515382797 321.069072412504 L 309.4442491624215 567.2012632514734 L 102.61843696913996 423.33830268473844 L 316.92757692032774 291.4028603506335 L 350.0537667179352 539.8151187973021 L 108.57258657166466 468.7235763708412 L 270.3511044429521 275.6542488244989 L 380.64567402343545 500.726114664394 L 129.32497974633617 509.6373412400576 L 221.92533948538585 275.2073573800003 L 398.03481911921676 453.7180580738048 L 162.703396544175 541.6371923141924 L 176.5922876987225 289.87235312046494 L 400.3972349868544 403.38841899903065 L 205.24104862113552 561.1966994880368 L 138.97961917726752 317.9050263643965 L 387.45769136240494 354.6756678731024 L 252.53304822612915 566.0680574426437 L 112.92485222527256 356.1861898984487 L 360.5180021234922 312.3515512180699 L 299.689333162494 555.513265471575 L 101.0807808883294 400.542455697342 L 322.3231776365405 280.530510201632 L 341.83747726058607 530.3800669376988 L 104.64271680762732 446.1754063316085 L 276.77918448932115 262.2466844645049 L 374.6236866033518 493.01484012720164 L 123.22559081868701 488.15503297101384 L 228.55133299518224 259.1419943333403 L 394.660468279878 447.02139719091247 L 154.90355089735948 521.9267039000142 L 182.58458689404705 271.29737328155795 L 399.87494166419134 396.8904918288699 L 196.40798493160736 543.7795362315143 L 143.59511776064977 297.2245035696077 L 389.72197830503444 347.538130304969 L 243.4636073029276 551.2280120911781 L 115.58538329122052 334.0189048031991 L 365.2402550473863 303.80015736682606 L 291.2280523288463 543.2676008828064 L 101.43258988249812 377.6586345918351 L 328.9454569157283 269.9350845247923 L 334.7897748779985 520.4781041370226 L 102.59285442524748 423.4178884215394 L 284.5716108051911 249.18628065288928 L 369.67306323254286 484.964096851795 L 118.95148386095366 466.35297173998185 L 236.68714645807577 243.4485411507486 L 392.2982379840095 440.1385892243481 L 148.83476699358013 501.81067582741673 L 190.2251619379062 253.0733195315156 L 400.34971858900406 390.37215300175086 L 189.18206610347727 525.9067854338876 L 149.97619244250635 276.8326478173042 L 393.0141124038837 340.54358981557994 L 235.86051363482096 535.9255172621935 L 120.0956367659764 312.0454554912716 L 371.06384551078986 295.53834247592647 L 284.08995634785435 530.5988183910683 L 103.676488593042 354.853298677691 L 336.77773628270097 259.7462233454332 L 328.9344535134854 510.2368067224749 L 102.43130506695667 400.6171486297325 L 293.70667843974786 236.6101041423779 L 365.80979253538976 476.6959413458426 L 116.51611312333392 444.3944410956098 L 246.3085264333067 228.2719715772038 L 390.9548384456096 433.18819558137614 L 144.5143598182044 481.44733558448905 L 199.48972481923533 235.3527419282222 L 401.8182523818326 383.9508538139687 L 183.58255690532107 507.72992450222984 L 158.10081200791646 256.88847435051974 L 397.3208160461433 333.81088411291273 L 229.7426442591229 520.304296535274 L 126.43767148985171 290.42954155339373 L 377.96638953448974 287.68867851469827 L 278.29101088082416 517.6426739776684 L 107.79981267254459 332.2925609489424 L 345.79009368115635 250.09218716040843 L 324.28211730524123 499.78455775436805 L 104.15109958757495 377.9391823002409 L 304.1490448922195 224.6534601912495 L 363.0369925975391 468.3327222288176 L 115.91781187825131 422.4427843154346 L 257.3771594460102 213.75525088839262 L 390.6243214837911 426.2884715983461 L 141.94480175627933 460.9950936975015 L 210.3395208235237 218.28607328301348 L 404.26465547912574 377.74309706768474 L 179.61425494286036 489.40063526944436 L 167.9321307277745 237.5488995959582 L 402.6161864001006 327.45725963483187 L 225.11484440731834 504.5081730238793 L 134.57848017542773 269.33288535655527" stroke-opacity="1" stroke-linecap="round" stroke-miterlimit="10"/></g></svg>