<svg version="1.1" xmlns="http://www.w3.org/2000/svg" xmlns:xlink="http://www.w3.org/1999/xlink" width="800" height="800" viewBox="0 0 800 800"><defs/><g/><g transform="scale(1,1) scale(1,1)"><g transform="scale(1,1)"><rect fill="rgb(0,0,0)" stroke="none" x="0" y="0" width="800" height="800" fill-opacity="1"/></g><path fill="none" stroke="rgb(255,255,255)" paint-order="fill stroke markers" d=" M 400 400 L 271.28464869872874 357.48354668002634 L 205.7284439492845 255.94098453684802 L 229.55596447412168 158.04590578937433 L 316.88134359766127 126.14244090994072 L 405.2278027265705 185.4023814027273 L 432.5911937575493 308.84904440729235 L 374.2009603312167 433.07631743580095 L 257.3107740787953 495.4038418944661 L 145.29857860053434 470.5779572790853 L 100.44208735282513 385.39630025302995 L 147.30288673927973 302.64373150965946 L 258.29454294644734 283.8120449580654 L 369.9382995217061 352.57856482382726 L 420.2271093761639 480.5716029455076 L 385.0808319653228 603.8173191406611 L 292.41192223023336 660.1821621662676 L 205.51567162035218 625.7522956015601 L 185.5765289092383 528.71735354396 L 255.38939549636623 432.5816774867336 L 385.6794690629242 398.6003978303213 L 512.0877155314294 449.57945967178676 L 572.8186062988655 556.3740752211754 L 544.7710326113493 655.0432842028152 L 456.867291352328 684.5521136023438 L 372.7319111646076 622.8034402289561 L 352.9336799887227 499.76499939605674 L 419.0470875818175 379.9536024121917 L 540.7168200331464 324.5951633278578 L 653.353002459911 355.7551287601443 L 696.0339320764688 443.5720746828369 L 647.284282878523 524.1122476543105 L 537.6478894560491 537.3178320777307 L 431.6479771734099 462.6804108537531 L 389.76635099973436 331.61139379753115 L 432.8466684983794 209.21329565629796 L 529.8974886706909 156.18750327529125 L 616.4806755237472 193.31969824026618 L 632.8462977065988 289.4654781449862 L 559.3379889506725 380.11084333491243 L 428.20047308326417 405.56544846085035 L 304.8262090754698 346.27789186158054 L 249.48670707186224 234.45905534795398 L 282.09378732245125 135.16172812421166 L 370.7502740693594 107.96467732147374 L 450.83067864536577 171.83982038977464 L 463.3415103571163 293.9063500205801 L 389.9497717284005 408.7003368056689 L 264.03188029427986 456.6068728934325 L 151.22653156996665 418.81044186869235 L 110.94649321906019 328.1717484374528 L 161.5256307363389 249.62615871068485 L 269.5360237451661 241.66000729064467 L 369.56774577611264 321.57206283148355 L 402.8135238412982 454.9972391272562 L 351.7199580285444 575.8724169266832 L 250.2858600589177 625.0851642504512 L 163.94005695146484 585.0364727659353 L 150.85835944235853 489.75622154305717 L 227.51793839704564 404.6161786849309 L 358.79112534857734 387.60063777588095 L 478.42063112356954 454.96202629903615 L 527.8154450022232 571.5041079016571 L 490.3110676132841 671.2218844741919 L 400.7109435337408 696.1376307569949 L 324.4926959316866 630.4488339259659 L 318.9390319044861 509.86549687109493 L 399.1047301404616 400.6338922251161 L 528.6811272166367 360.6062898936918 L 641.1474537533888 405.29534483303195 L 678.7502997895274 498.9135812530417 L 626.3460554412445 575.6742361498169 L 520.1676944515816 578.796409719649 L 426.353269785884 494.22396819443134 L 401.8916840822043 359.1822956152329 L 461.0016733019844 240.52438229084552 L 566.7572853383409 195.62028860782183 L 652.8947512836223 238.83092705513312 L 662.9491944162924 333.31642570819986 L 583.6564464107485 413.0002256124735 L 452.9338536407355 421.7400475120961 L 337.73340578352696 346.61757110944745 L 294.81362865148117 225.72504406809318 L 337.54179400689327 125.85637570634657 L 428.28388691697984 103.24596330285937 L 500.8608396784025 170.4891169070287 L 499.83161695031174 289.13613132665853 L 413.4477669869766 392.3238563255034 L 280.8533931136793 424.10886616741277 L 169.28149651993647 372.3252376466777 L 134.67868632160554 275.60671757212896 L 188.9561300470857 200.43850217785183 L 293.1604136449646 201.76578906726937 L 380.58437888598746 290.3767300136111 L 396.1955266118603 426.28592869379713 L 329.1446824869782 542.0233077528304 L 219.19622922017695 582.1106578102648 L 133.28982551457744 535.4691858516969 L 126.04561135452826 441.66710285493645 L 207.48774468904242 367.3319234839688 L 337.0083735081773 366.6334649794742 L 447.1318837534642 449.1300941633518 L 483.0791677520927 573.9312106538763 L 434.8216467953757 673.6205285848268 L 342.7411066224833 693.8463549055059 L 273.5656760701518 625.2519047995214 L 280.76855616871933 508.9317410371634 L 372.77226724893785 412.2002144079603 L 507.70161356653495 388.9515845520478 L 617.7837312444858 447.97046650146007 L 649.0227827148765 547.8652833277571 L 592.7754088978404 621.6079085119585 L 490.62539397306807 616.2152889653646 L 409.68986671404133 524.1850908617544 L 402.9130057448585 388.15597165983036 L 477.74912307312167 276.04088155043496 L 591.6924103758838 241.28119753680937 L 677.2893468245816 291.63726441754557 L 681.8950829743685 384.90033343619814 L 598.7457280027306 454.04641272919366 L 471.03494123595686 447.00290400562284 L 366.59051360770553 357.58801121868316 L 338.07078598328 229.38504833580112 L 392.1329067999125 130.26338238847507 L 485.7372116134541 112.55591720246105 L 551.7604125905889 182.35615349241365 L 538.8184688236697 296.0246169622734 L 441.8260365580416 385.96119227455046 L 305.27795305754034 400.45480484685027 L 197.31263968944924 334.12724369606946 L 169.83516864234514 231.03162395226346 L 228.19276352255915 158.58119256519277 L 328.26668563137304 167.6743841835939 L 402.6887774068649 262.51725340903613 L 400.72871401185097 397.93064709840206 L 318.34271333218214 505.7337644210936 L 200.67294228593235 534.6619916829577 L 115.52214316383038 480.3017821298244 L 113.4328268843646 387.4085000941997 L 197.89507142040415 323.24769366905014 L 323.2392636591906 337.67581962266803 L 421.4566979105153 433.4906131768529 L 442.1450613108789 564.5292880443974 L 382.04239106328964 662.6409429827319 L 286.749279479412 677.6438561365374 L 223.62893466098333 606.7259057835702 L 241.85984706535584 495.9666641801357 L 343.1871283628886 413.08723977237196 L 480.61438960170386 407.4881820319143 L 585.8132844624286 481.1258204061606 L 609.105011685599 587.3895120607347 L 548.4595498754584 658.6407476850716 L 450.42993309843376 646.1840655406786 L 382.4768796711233 549.1129175049371 L 392.99793630991235 415.0286287071144 L 482.620305238952 312.2046388273012 L 603.6783083833313 289.59445628866496 L 688.1868380318788 348.244726195364 L 687.8289877357092 440.9534772885825 L 602.3953569901964 500.368777802668 L 479.91686280220443 478.9632863043555 L 388.4125831272281 377.32183369955123 L 375.9000980596259 244.06625372631595 L 442.231627255493 147.45572211540824 L 539.3495971693665 135.39249644538938 L 599.8072615155628 207.39600032692297 L 576.7430448447477 315.05602746002353 L 471.74712380301463 390.6941900309134 L 334.1931959524433 387.3407935481908 L 232.42319382703366 306.46716214521626 L 213.7591440499624 197.12991419596824 L 276.9002796366332 127.03120214955527 L 372.9650792400634 142.54944140713565 L 434.5580014483773 241.29553941105758 L 415.72640939884224 373.36942509625237 L 319.25617931124214 470.579812270125 L 195.21620139931147 486.41253157527126 L 111.60530914375971 423.199451180946 L 114.39561623915574 330.4831006190314 L 200.51564383055208 275.54655552355894 L 319.692273190139 303.4811055678563 L 404.0653690031038 410.3296536411802 L 408.1238013556184 545.1384723882805 L 335.43027881015615 639.7145194681669 L 236.38850929711063 648.5587410861194 L 178.37145963010826 575.4488335935077 L 205.81753716571188 471.0117238703563 L 313.8140135410101 402.72078503446465 L 450.73977734889456 415.0018222917877 L 548.415726812906 502.9598263361348 L 562.0016011887194 615.2110744987908 L 496.13484621831464 684.1528346535713 L 401.9146037893706 665.8333557040105 L 346.5144658025973 565.926549841619 L 373.33696419068605 436.50315677126383 L 476.1960823675399 345.49853069748735 L 602.747094428341 336.86587086372134 L 685.147400020332 404.8918956418263 L 679.8844744329749 497.80554340886624 L 593.304221092682 548.5477202484935 L 477.7987331129786 514.5640206857436 L 400.9015943656651 403.16491528178113 L 405.50314392280313 267.50262845916245 L 484.6300620799526 175.52909920659587 L 585.6501222502714 170.22142379165444 L 641.4221648124903 244.5073902421825 L 610.0320072658213 345.6615287472394 L 499.69461817176443 406.57602452009945 L 364.1434883415462 385.4744614140014 L 271.2190227053204 290.66184260332545 L 263.16073971878217 175.72307349487966 L 331.99652612065506 107.99730583884428 L 424.5254555732139 128.90465293188748 L 473.95147792763544 229.5040276558875 L 439.52031778014685 355.68630814380725 L 330.7959183515849 439.944262096271 L 202.26480420327107 441.00022377173946 L 121.4425591472912 367.94288841156776 L 129.2720466530983 274.6539285262755 L 216.14605662677812 227.81362727473578 L 327.6805654631543 267.3448259954844 L 396.8339968996805 382.61092547740805 L 383.44342164110145 518.4003305168444 L 297.8788691864219 607.1771348131293 L 194.87686988272682 608.5995180825639 L 141.1882844106574 533.0244438398536 L 176.1072974527752 435.15365442420097 L 288.1443617786202 381.57091319071606 L 421.59326417174685 411.30547474323976 L 509.12698721867605 512.665686327453 L 511.21922757312257 629.9981169055044 L 439.1666613057823 696.3920731539237 L 348.1512856900592 673.0592037757967 L 304.4373962134347 572.1834252868185 L 346.0399761291467 449.77617526219854 L 460.0484409475794 372.74651330690796 L 589.9747087689037 379.58950651738246 L 668.8012980523782 457.8560993412375 L 658.260007298691 551.6777182355331 L 571.199553816694 594.9072363938783 L 463.8653204197173 550.3418695567925 L 402.64398492241503 431.909013236014 L 424.872467954582 296.7353118841562 L 516.8075481921569 211.76636460739357 L 621.7389954283149 214.60128415382536 L 673.4649347789764 291.615414162253 L 635.4015752841369 386.2569433616559 L 522.2782589443791 432.6223317229022 L 391.6301588378081 394.5193839228879 L 310.0980039419527 286.99352635932667 L 314.38938300955505 167.62768286924327 L 389.90142862957765 102.73890140907986 L 479.5965651597055 128.38871758350967 L 517.894899393668 229.18131973472808 L 469.6046183449598 347.34238792725637 L 350.94283416593345 416.7284246702645 L 220.25323242339613 401.72613638423036 L 143.8843505273441 318.1207178301255 L 157.3301594827274 223.63827889258803 L 244.52694508882868 183.7391229303719 L 347.5017945093935 232.82369571687013 L 400.6828762355634 353.71694196799814 L 369.6496069957193 487.52613414717536 L 271.4852842449701 568.0689797884099 L 164.73709721565302 560.590169395057 L 114.8993466807263 481.95756631955237 L 155.76051281920974 390.4430642127588 L 269.3931386655969 351.11637213355016 L 396.58044744288617 397.25070685091856 L 471.53851111429844 510.48910481220065 L 460.47653616714763 631.4641546640689 L 381.27679302633464 694.6175111735256 L 292.70227280137823 666.7042000392318 L 259.4975606146245 566.2945050613366 L 313.9545928595362 452.7832225232421 L 436.5983928932099 391.3840501917259 L 567.3808143214699 414.7375732704196 L 640.7922957032124 503.7559184875887 L 624.2068621266844 598.9902946530138 L 536.8699649918842 635.8200038709542 L 438.3452102611064 582.7229901499285 L 393.2329203916737 460.0713252353042 L 432.9554839704989 328.3707701529569 L 537.1321699145205 252.86920700913777 L 645.5214129580552 265.38382336570163 L 693.4946565619741 345.8355880977374 L 650.1380569661943 434.36615079187004 L 536.528832108837 466.8904590089311 L 413.4149149023608 413.12815316224714 L 345.5558861710078 294.6963554485079 L 363.7354985676159 172.59643138821838 L 446.82740627890774 111.46356177505152 L 534.4779129787635 141.64197530049177 L 562.9267348025387 241.43074066836706 L 502.8513554661902 349.95959062222175 L 376.9277127870748 403.10525722812207 L 246.7526316757176 371.2822541362483 L 176.8280573513409 276.8384065426276 L 196.82438313814149 180.80503952455607 L 284.35447489774367 146.81156974499586 L 378.4036462472793 203.43185865164673 L 415.49615460917533 327.1546614745722 L 367.2810399321185 456.0177504698155 L 257.3844205789379 525.8762464933575 L 147.59415030194336 507.93819725502715 L 101.51563577403726 425.4540934511183 L 147.11447521931106 339.73161843106 L 260.21850397571086 313.7233196025845 L 378.701683701746 374.6508847921313 L 438.9928086511689 497.69729069315025 L 413.3971954868904 620.3827965195701 L 326.2413079745278 679.1587608347775 L 239.33043112155596 646.6600559973973 L 215.2936358524028 547.668108606843 L 280.4216095704492 444.3814030759896 L 408.9022613010851 399.67617361290064 L 537.7499384077623 440.0092180968982 L 603.6369684681922 539.8247303473421 L 579.9295655525132 636.6540574674545 L 492.10964779254596 668.0093951249157 L 402.50080869541836 608.3286168440844 L 373.3050043782704 484.19740814780965 L 429.73725967733156 358.8749454321092 L 544.9873448142025 295.23762785476765 L 655.8743298319941 318.9726746224743 L 699.9722261063621 403.705613326686 L 652.3314347815406 486.81990831708777 L 540.1579963126276 506.6402124658281 L 426.8008712119326 439.0612723506597 L 374.48290283289776 312.03117974374624 L 407.7362376579195 189.34794329236564 L 499.0869358447438 133.31189015297537 L 585.421483747245 168.23680026085347 L 605.3866829556248 266.3171698377887 L 535.7789918858839 364.17547181424356 L 405.4742983979015 400.3347032485154 L 278.68375053269006 351.5313366492127 L 217.3966723607584 246.4680149689154 L 245.1361538663256 148.90072543245347 L 333.379286354969 120.02693151148014 L 418.63810241769227 182.33977097102556 L 440.129535391784 306.2504270631792 L 375.8302185516634 427.3646838458488 L 255.66421196802986 484.23639561425557 L 144.04760553481435 454.35457162161765 L 102.0722380440364 367.1623371753134 L 151.6099634002203 286.4413884708682 L 262.48800169512776 272.44849035992087 L 370.29133634328406 346.1227071970195 L 414.30094484985364 476.4619457114424 L 373.21182271515664 598.5140178673975 L 277.5840443499313 651.3865541648041 L 191.69193631523297 613.8829704967749 L 175.4705929776941 516.7702140308022 L 248.988131476479 424.4540637842958 L 380.3843991432439 396.8648409512149 L 504.38896911447307 454.0173845077209 L 560.5117630732215 564.1324106012701 L 528.407167423151 662.321068768365 L 439.5783456283753 688.8230833168125 L 358.53093456801327 624.2652425636534" stroke-opacity="1" stroke-linecap="round" stroke-miterlimit="10"/></g></svg>