<svg version="1.1" xmlns="http://www.w3.org/2000/svg" xmlns:xlink="http://www.w3.org/1999/xlink" width="800" height="800" viewBox="0 0 800 800"><defs/><g/><g transform="scale(1,1) scale(1,1)"><g transform="scale(1,1)"><rect fill="rgb(0,0,0)" stroke="none" x="0" y="0" width="800" height="800" fill-opacity="1"/></g><path fill="none" stroke="rgb(255,255,255)" paint-order="fill stroke markers" d=" M 400 400 L 287.03378556632333 180.67293180355364 L 563.0150823234567 171.4426377003073 L 471.99179759062605 410.4340614053481 L 335.53649265519357 212.83128341131467 L 606.0534242155163 184.71223242642208 L 535.33830631884 440.07199984823404 L 374.35484607043225 265.0225160862552 L 634.394711662864 216.81253962593453 L 582.6636353269326 484.17065173938875 L 396.9934013419123 331.44096323104134 L 642.3831021016914 261.39842361862134 L 608.9413731093409 535.6193817121989 L 399.5764313172732 404.2170695899283 L 627.2524311907542 310.4120054584342 L 612.2243003842266 586.0071412180046 L 381.4316646494787 474.57153869307706 L 589.5552650395637 355.3000667289732 L 593.914992120214 626.8857614159309 L 345.1935838039959 534.1049119068557 L 533.0977867111237 388.30372380904083 L 558.537110073682 651.0407810737653 L 296.4108292933614 576.0302474246955 L 464.3900619472559 403.62768177583644 L 513.041730928301 653.5799648321915 L 242.7163212573961 596.1650652366766 L 391.69357626805106 398.31437572166095 L 465.7524687594938 632.6768686983021 L 192.68402271134 593.5346680279335 L 323.80805732383357 372.69239046273657 L 425.10706996230215 589.8582967381075 L 154.5430785723133 570.4969712631994 L 268.77851590263816 330.33213510665655 L 398.3835333452225 529.7925782223608 L 134.9413815088547 532.3704149157932 L 232.715345276369 277.5153424947874 L 390.6011026946297 459.610112236285 L 137.9432566626956 486.6207177887332 L 218.90343393404407 222.2975766011176 L 403.7603513063495 387.8574508150816 L 164.41102093389603 441.7280960595175 L 227.33309229763364 173.30372139666736 L 436.53592911136866 323.24089666932366 L 211.86287497576794 405.90426692569093 L 254.72261319923197 138.43631557427915 L 484.46793571687033 273.3470095464206 L 274.8284822794112 385.8509741216085 L 295.0288824372162 123.68963249405061 L 540.6234116600042 243.53085532100943 L 345.64929612674536 385.7455578119696 L 340.3695895469282 132.24663727268302 L 596.6292249828726 236.13778043362956 L 415.6043044446672 406.6051749479588 L 382.2191396867055 163.9937371310178 L 643.9221550131203 250.17469182610998 L 476.1932874210838 446.12472186042487 L 412.6995102286328 215.52588000534195 L 675.0295232430758 281.4797051660952 L 520.3861758127046 499.0127630220546 L 425.77313061012 280.64136102026583 L 684.6891381270182 323.3646132575929 L 543.6521689220967 557.7753921655349 L 418.15950612505014 351.2525954018315 L 670.6412909705106 367.63403248153054 L 544.615162970719 613.8310499092872 L 389.83856925100184 418.5770243773428 L 633.9744850664346 405.82884832250693 L 525.2378418970231 658.7898851594897 L 344.0654646585119 474.43050844471657 L 578.973192022264 430.50809824149354 L 490.50716161954665 685.7066574862554 L 286.8944402084463 512.4302729336198 L 512.4902621616143 436.37770061829997 L 447.6684071752315 690.1201062428927 L 226.28283117580227 528.9279868067322 L 442.93757145622055 421.09731760157496 L 405.12240386071915 670.7235730192068 L 170.90884172666827 523.53385893241 L 379.0454713625175 385.6447112417437 L 371.15075479022227 629.5667001713903 L 128.87958179815644 499.15370879941963 L 328.57611209938193 334.1830385008607 L 352.6596491157242 571.7580223589334 L 106.52222512084921 461.53369191998553 L 297.1825825755395 273.45076407447175 L 354.1300045094603 504.71276955201444 L 107.43876512609967 418.3808755480157 L 287.5840253696686 211.76516639970347 L 376.93088964495485 437.0580851755619 L 131.96550948074503 378.19119114037545 L 299.17969571160677 157.7881262308104 L 419.09891887815326 377.3589961019286 L 177.11804406982017 348.9599802126349 L 328.15938533273106 119.2384012094551 L 475.61672289936047 332.8552175664504 L 237.02993304567127 336.9678764748246 L 368.09351248250954 101.74260108808 L 539.1490662516264 308.3972424126057 L 303.81972255802367 345.8235125557007 L 410.9145552944526 107.99639031139071 L 601.126834043136 305.74039444365076 L 368.75688583919447 375.9061847289198 L 448.14307133946573 137.36114623957667 L 653.0171512616673 323.30206517573976 L 423.55273167443454 424.2918807365177 L 472.17502654680106 185.95630504337765 L 687.5900870881853 356.4181842832681 L 461.58365834362536 485.17389226081104 L 477.43800449455193 247.2336376592082 L 699.9928861604559 398.0604243393517 L 478.8642538431769 550.7153727470248 L 461.24344887338754 312.94776239238973 L 688.4713859815827 439.90684123872876 L 474.62510957979896 612.2066915180311 L 424.2074838815094 374.3780594115387 L 654.6309370236283 473.60587550161233 L 451.40924937975984 661.3549086091975 L 370.1772818465696 423.6196356837659 L 603.1978774216111 492.0447666095634 L 414.6729639296962 691.5129492791059 L 305.6737850873211 454.7506983653352 L 541.3171647808482 490.4327736987896 L 371.9508488158135 698.6650411400419 L 238.93381505621159 464.70216651944475 L 477.4910025275552 467.0372497099228 L 331.7099218232954 682.0213490541462 L 178.69443186371385 453.69982708307265 L 420.31688007800136 423.4624534131376 L 302.06412524182315 644.1330728323574 L 132.90090792849043 425.2131803012735 L 377.2133748008752 364.4292646896346 L 289.54136899658727 590.5108512542804 L 107.53110203825605 385.41879030362685 L 353.3238707646606 297.08849785827334 L 298.0874273054121 528.8034557625501 L 105.71165879466025 342.2584581934584 L 350.7617650427164 229.97015754870688 L 328.4556362955047 467.6593887124443 L 127.25790535142568 304.2330425010607 L 368.3097263998831 171.7253520837363 L 378.0737330310385 415.4413249779887 L 168.7060752679666 279.1122306007151 L 401.61775940966373 129.84855223914235 L 441.4079290830752 378.98528628639434 L 223.83300070815739 272.7531200026874 L 443.87033471805506 109.5708339584591 L 510.77006218186835 362.58973761517893 L 284.5856516024726 288.2042256120006 L 486.8227959089887 113.08923124768427 L 577.4475039701473 367.38544495347264 L 342.2817277253309 325.22891326414697 L 522.0521046941597 139.2471592938083 L 632.9872998143298 391.18006272643635 L 388.90206054844725 380.3196341414256 L 542.2349733490097 183.71353790002664 L 670.4429751038112 428.80051892214044 L 418.2818953717862 447.2010496967305 L 542.2623364272987 239.63380458699 L 685.3980021786022 472.8819227347834 L 427.02324400982957 517.7471348099482 L 520.0235445967592 298.6555697413155 L 676.6132527546844 514.9850338661695 L 414.99216638906 583.1755280863848 L 476.742974197914 352.17574984171694 L 646.2018861874653 546.8752615035357 L 385.32683409568557 635.3409927649183 L 416.8185742673861 392.62296770586084 L 599.3056640195093 561.7720314439748 L 343.95529352344204 667.9350420867621 L 347.18624006148593 414.5837650212186 L 543.3211038529705 555.3817747780801 L 298.6950712335662 677.4127804415785 L 276.3047047836278 415.6045147835932 L 486.7910787139174 526.5600918678012 L 258.069216003972 663.5087264198878 L 212.91230748670682 396.5493642604532 L 438.1273993151168 477.50400836393914 L 230.0157258806984 629.2647369414972 L 164.7410641678415 361.46084934414125 L 404.3551308420463 413.4453993869135 L 220.68324030675402 580.5659824674015 L 137.37985384540826 316.9440976725987 L 390.06612865265333 341.8911383221594 L 233.4930081814738 525.254357601578 L 133.45627847963613 271.16669012113306 L 396.73801651624404 271.52320706010914 L 268.6073938835746 471.95178484717354 L 152.25918758365535 232.62365422791964 L 422.52024466164073 210.92277969259027 L 322.8844897510548 428.76916449257203 L 189.85807737159286 208.85214757005195 L 462.5191034151668 167.30858016631504 L 390.32582732643687 402.0937763888818 L 239.70140216695344 205.28791541385235 L 509.53904803404475 145.47769105307952 L 462.9505573350489 395.63620370430107 L 293.60434695653146 224.43445119499393 L 555.1695383329878 147.10677241004532 L 531.9657923226403 409.8790771946998 L 342.9784783927237 265.4691092212945 L 591.0549889363998 170.51784835222495 L 589.0585838061859 442.00992026644315 L 380.11959666368546 324.34518601620874 L 610.1580682392239 210.94346762949527 L 627.6168404462124 486.34807180034306 L 399.36144165461747 394.374939865523 L 607.8275614382724 261.2514978179855 L 643.6970975241969 535.2018712309285 L 397.922957859785 467.20671333510853 L 582.5111795317162 313.02120128226056 L 636.5948376503848 580.0280269816666 L 376.3225995125476 534.0504819677095 L 536.006697236794 357.8098090748288 L 608.9323958754742 612.7199504988748 L 338.2978251598464 586.9690597609208 L 473.21372484359 388.42038490372113 L 566.2515001539823 626.832563713017 L 290.2418335606576 620.0423866713286 L 401.42297136931177 399.9815990569358 L 516.1714475569879 618.5605558827015 L 240.24169564959442 630.2312693473872 L 329.2489076058921 390.6781372192383 L 467.23875636952334 587.32386289231 L 196.86157439083556 617.8118148136093 L 265.36497774637223 362.0226548466221 L 427.6401831517269 535.8727741519344 L 167.85280589879756 586.315888559381 L 217.22998789135795 318.62866206101387 L 403.97137651958843 469.8967849937784 L 158.9835550251185 541.9866739373608 L 189.9956173063934 267.51826268220145 L 400.2451126562443 397.1953984927365 L 173.1629230530603 492.83079805700896 L 185.75795709777356 217.06814437868007 L 417.2872648733335 326.5344782256992 L 209.99043709114906 447.408712193835 L 203.26461846998785 175.75125160617964 L 452.6107453413069 266.35869810461077 L 265.7983519262069 413.54408037792064 L 238.120937944904 150.86210084550368 L 500.78626886914515 223.55211775079093 L 334.18062647879117 397.14500545732375 L 283.4642950724433 147.41616026333992 L 554.2545855744739 202.4317245513955 L 406.92978295708957 401.3132047608184 L 331.0056746497746 167.38774542055103 L 604.4588910476821 204.1239994860965 L 475.2419653788081 425.8742337003132 L 372.28278453404073 209.40035652321163 L 643.1282946587779 226.41737692443905 L 531.0104769042916 467.3989679390894 L 399.93746702541836 268.9158448599094 L 663.5206504910526 264.11241727932565 L 568.014870312646 519.713183108096 L 408.8265305910433 338.89433051056255 L 661.4391020719721 309.81720446713643 L 582.8282646627216 574.819170927316 L 396.80001840373427 410.8265184752122 L 635.870459003816 355.06901229344277 L 575.3076344695396 624.0917869646366 L 365.0306043213852 475.9844687591328 L 589.1499691928785 391.6145794640759 L 548.5940836992411 659.5703275240838 L 317.84484842070367 526.7042680358186 L 526.6277468783055 412.6576638981207 L 508.6232785045687 675.153302955254 L 262.08144279892156 557.5092948101194 L 455.88650850328156 413.8874473058832 L 463.21934605407387 667.5176518456988 L 206.07222533418235 565.9065766139395 L 385.6272482645207 394.1340987799816 L 420.9077325428099 636.6250637804432 L 158.39808582154294 552.737552027755 L 324.38905230354965 355.55349315202477 L 389.62446650822324 585.7397076256827 L 126.60552202623438 522.0310836214937 L 279.2940040907175 303.31340121596696 L 375.51472999899954 520.9545959587858 L 116.07550063709704 480.3808861810298 L 255.00437784488133 244.8279246749027 L 382.0002922322252 450.29716460981194 L 129.21355912818694 435.9405412313603 L 253.04761262641875 188.65442158820284 L 409.255201267573 382.5474579405364 L 165.08214108307382 397.186361881467 L 271.60964083396505 143.21758341346407 L 454.16815527145343 325.94520690971484 L 219.53014790728758 371.6330268199351 L 305.8272114879848 115.5511548542147 L 510.7972903813875 286.97866367304766 L 285.8004697703755 364.6939446324683 L 348.5353424774921 110.2451754848434 L 571.249579821761 269.4358382505179 L 355.52490977861385 378.856688082468 L 391.3580817047939 128.75595751046177 L 626.8536196314969 273.85959424560053 L 419.9580907580716 413.2967810528968 L 425.9795009657103 169.18187526365276 L 669.4507495524867 297.48775302769445 L 471.26626727732423 463.98765474052084 L 445.40494156757944 226.53851250232012 L 692.611767322953 334.68693386692587 L 503.67878198379105 524.2904894021108 L 445.0239942154939 293.4921745190115 L 692.5975824234415 377.81513466208963 L 514.3304266672959 585.9359876308977 L 423.3163090064725 361.4423528006606 L 668.9203659224222 418.3840418117883 L 503.66913053364283 640.2515861465367 L 382.09467274348015 421.7916460978466 L 624.421381379879 448.3473067546267 L 475.3683083419785 679.4509461147408 L 326.2488956732932 467.21366965840605 L 564.8538249216451 461.32222252888903 L 435.75716745980884 697.7932420820093 L 263.0285998472017 492.7298005897148 L 498.0328890054767 453.56218403095573 L 392.85425143397356 692.4391885185255 L 200.97186535957135 496.4341642864879 L 432.6798622027728 424.5345347113091 L 355.1487411123415 663.8760013809731 L 148.63958633446705 479.75880072466117 L 377.1327416198709 377.017332940241 L 330.3116970041068 615.8478328165509 L 113.34441768159877 447.2396160709102 L 338.11574734831333 316.7004141338223 L 324.0298849406653 554.80203344334 L 100.06402168514734 405.81827176024126 L 319.7513165635095 251.35015288582204 L 339.1365196908039 488.9338673028281 L 110.70082667074973 363.7844591637084 L 322.961934450933 189.6624894138674 L 375.168921529146 426.9722389128239 L 143.7987935926032 329.51670654055374 L 345.3509383644852 139.97534743741124 L 428.4193293155009 376.8876412891509 L 194.75947205419266 310.20994827313507 L 381.57990350586323 109.03258343724684 L 492.47146930145834 344.71512770844964 L 256.5250999403755 310.7800626504768 L 424.1860632018352 100.98393269692832 L 559.14293769531 333.66791746827187 L 320.6267880156031 333.10915861512643 L 464.71750669753465 116.77020112832633 L 619.6928481912225 343.67383425768907 L 378.4413411987991 375.7445096105488 L 495.01644368768916 153.98545166599118 L 666.1145728288715 371.4036268189775 L 422.4691374702485 434.09629130346883 L 508.4587129757377 207.23673523897693 L 692.3206817496875 410.7867645508988 L 447.44236142765 501.1047941141142 L 500.9642442514746 268.9476494417777 L 695.0432646575512 453.937503502906 L 451.0982386114878 568.27767278801 L 471.62738182124673 330.4857617139832 L 674.3152936892994 492.3527504604175 L 434.5019538083993 626.9425318469783 L 422.8727407336121 383.4455992316835 L 633.4612218801751 518.2026625601119 L 401.87119029293154 669.5279791659927" stroke-opacity="1" stroke-linecap="round" stroke-miterlimit="10"/></g></svg>