<svg version="1.1" xmlns="http://www.w3.org/2000/svg" xmlns:xlink="http://www.w3.org/1999/xlink" width="800" height="800" viewBox="0 0 800 800"><defs/><g/><g transform="scale(1,1) scale(1,1)"><g transform="scale(1,1)"><rect fill="rgb(0,0,0)" stroke="none" x="0" y="0" width="800" height="800" fill-opacity="1"/></g><path fill="none" stroke="rgb(255,255,255)" paint-order="fill stroke markers" d=" M 400 400 L 375.192791179253 381.0814145936863 L 383.58296815124385 340.1533685475524 L 434.54049961557007 314.4666886219299 L 504.43412858390195 338.0411560198434 L 548.295638739309 417.2899585673763 L 526.3227994057087 521.9041199259538 L 430.20144247696163 597.6030049981352 L 293.5566535269455 594.9050047729504 L 179.11197040187707 498.48300363745216 L 147.95051307456444 340.41657559096416 L 226.61699800264893 188.69201783455722 L 389.8669070850315 115.46822837911412 L 569.2725877636699 160.84284729221744 L 684.5020506674527 310.95389621701156 L 681.9871894841784 502.3589613414182 L 561.4096983013233 651.2333193157024 L 376.36742993226346 693.0514304480228 L 208.7143401428889 612.8879609252956 L 129.51560808616972 451.252351149446 L 166.26266978957062 282.949877221836 L 292.47196470353356 180.2103934622528 L 443.99606130960683 179.03227475928068 L 552.6138352542491 265.40886001728006 L 579.0017876557456 387.2341485409906 L 528.3543738812293 484.15531568734957 L 441.8404908156418 518.6856327889301 L 370.2174975353126 492.1487738463052 L 345.1288442101509 438.07842201805676 L 364.02402549124815 398.3846461637845 L 396.2834171685255 396.89235115193355 L 405.8295479244308 425.72319721493943 L 376.17858946742473 452.1241843504523 L 322.7125250515679 441.28321832336235 L 284.5270242160384 381.25389539668015 L 300.22835407454386 294.6746780029614 L 381.70894977060925 229.3783355665831 L 501.7002181660622 232.1467434739416 L 603.6243640027285 319.95926807894415 L 629.840786483451 465.3470604553348 L 553.6557058308963 605.4051569267108 L 397.48434520328857 671.2923235797534 L 226.21714751421098 623.5451486491005 L 117.7742521420048 474.61288121813357 L 125.16043726926853 286.037588074815 L 249.37090878577408 140.65838347357186 L 437.38371688549324 103.30436691152414 L 606.7600750328686 189.68363758863663 L 684.7059775135913 359.18371244992795 L 642.02940846202 535.107881645185 L 505.16363464216926 641.8778263322102 L 340.84140482512936 640.2786401537029 L 222.03703803828034 543.2822541743718 L 193.05436496243397 405.4492239558612 L 251.36019494009918 292.71204435952626 L 354.3141156529676 249.14061627188144 L 445.56729738265096 278.006274715495 L 485.8275816251257 345.9761279773598 L 471.2158965862308 406.40823609255875 L 430.1070909223956 427.56085873476724 L 401.7152856229732 409.5349457082438 L 409.8259308531389 380.82478489882675 L 447.4128507213272 377.34655369110703 L 481.22628171903307 416.95717002952784 L 473.6311524221526 485.0681033976157 L 408.71448471461633 540.5493276018029 L 306.80675610143066 539.3047361659909 L 217.7997161736719 462.3381425044286 L 195.6170100590983 331.84389880888733 L 267.2594256974503 204.88221916578848 L 413.7441906616777 146.3999621560539 L 574.5897239637826 195.0913213103329 L 675.1135215236329 340.3285809110731 L 663.3263828154384 523.307825758346 L 537.4367131768697 663.1417034301819 L 349.2244741844167 695.4238014867799 L 180.74706147415858 603.8681374236306 L 105.62849218009853 428.7990361266973 L 154.26478833575837 247.97929895270332 L 300.34362209394044 139.40157388374524 L 475.1208808049952 144.8022246236462 L 601.6957449219299 252.01597448353616 L 631.5445900888508 404.294528801381 L 564.9817863664151 530.7282241025298 L 446.14842527857274 581.3466213025312 L 336.67150827964076 548.812199086207 L 283.0090753513199 466.5068663318467 L 294.9976300177818 385.77939061190773 L 346.15915870400687 346.07875812223995 L 393.94612399136986 354.7921551866755 L 407.1990614948489 387.38014001219403 L 384.61347637636345 406.5207857483604 L 353.72297561045514 388.15003824864607 L 351.4568852981032 338.5494040696875 L 398.1583208138033 292.0130650091512 L 480.92516590258714 290.0469201024955 L 556.9751476540301 354.04668546263395 L 576.2721402406389 467.7105297348586 L 511.2897019590529 580.4966605289874 L 376.97060263691253 631.8264139622877 L 228.56257899605805 583.8240385786376 L 136.7639226665114 444.8390112911308 L 152.18401307315867 270.0967515182293 L 277.6054351491247 137.6051220516041 L 463.2030254536055 110.68878239191952 L 628.2770540708109 206.0867347891797 L 699.2441141732622 384.2298717653619 L 644.9391631742279 567.1697557202943 L 491.39966675903895 675.4535479028139 L 308.7207420739259 665.4945009201741 L 176.83661898654128 548.8121450390714 L 147.70589243025964 383.9790474917032 L 222.82153108951485 246.1791734182173 L 356.5958543454445 190.52845537331058 L 482.5510333878186 227.8843627573123 L 547.6555098450816 324.61504874941426 L 536.6548106975197 424.7940381885868 L 474.47715728850136 481.601938298789 L 407.12791772169385 480.5604156526217 L 373.0915235530965 442.6082637568472 L 381.848249885707 406.7492240318605 L 411.3572125150416 403.4578999607509 L 425.10326933702186 434.88837216933604 L 397.9522055453992 473.5956204416991 L 334.99189676379063 480.4967748772465 L 271.5947879684435 431.4112839462397 L 253.84005308213136 336.1930880275925 L 310.0477513450842 238.29496462586684 L 429.91000410223023 193.56198875224865 L 564.1734452782284 239.08363579084335 L 646.7783606873946 369.27988623131097 L 628.7674952527382 533.328148505955 L 506.10424372491957 656.9713462426685 L 325.9148785590967 678.5467421775862 L 166.5745589385424 580.9055726738789 L 100.80090480490662 402.3279368709081 L 160.16419123460852 220.02927437038144 L 319.1380265715272 113.96779748421824 L 507.0119686241578 128.94918837336928 L 641.7603798615538 254.01310556287936 L 668.7804856899822 429.2196555607883 L 585.1389031080429 575.9016541313499 L 437.7274976394105 634.6080180891122 L 297.3380534191467 591.5081380153945 L 222.88604916455972 480.6240436208017 L 234.45338359159854 362.2230139533666 L 308.3310109142636 290.0357347777458 L 395.01436037864374 285.13888688245936 L 448.86773405205315 329.805259117303 L 452.51482386394036 383.11370405515754 L 422.8092864855817 408.0792905882435 L 396.15443055083887 394.1155754560899 L 402.7728643439172 361.920007658167 L 445.6617619816529 348.379286900959 L 497.03252033108157 380.83070204662846 L 514.7366876578544 456.3451628883519 L 469.3563928998872 539.0154693857323 L 365.9996668548814 577.9844635599891 L 247.24590972306817 536.842319102967 L 173.96469115025428 417.88874384692804 L 193.28189999827623 266.7537607654754 L 310.8105299433323 153.1453885856065 L 482.8818007500613 136.57245550833534 L 634.3833342663931 234.6306633355877 L 694.2272669490794 410.918003238097 L 630.7235353334697 589.890684667299 L 468.57269767860896 692.0214975949813 L 278.3028778841351 671.863616261724 L 143.05882975417734 539.8257658113757 L 119.3087300862386 356.6707056218877 L 211.11585737630836 203.68393229050272 L 370.5172564510163 143.8041743111333 L 523.0462157132586 193.30412205591716 L 604.6756854890094 317.701823031186 L 591.1208894779834 452.7347499239941 L 505.17114081339776 538.3344533237275 L 399.7800507361599 547.4005358487831 L 327.43598319716386 494.8565068030855 L 313.0144154650903 423.7222367350319 L 344.47483478568387 377.4811201106392 L 385.2282390370195 375.016722826437 L 399.7436830398964 402.1702670282426 L 376.7913309284463 423.97820906628414 L 336.52851420505095 409.60401568450925 L 317.2868496858674 354.66755354807907 L 349.90804164178024 287.19620958913424 L 435.00193042082117 252.91568061127293 L 537.2470059328517 287.72797349868284 L 601.4046918722547 393.12822893920486 L 582.2683325343422 529.4160192101759 L 472.2780779478462 632.142857129585 L 310.889776969717 644.3509875291802 L 169.06225163528316 547.8840401121502 L 115.56472773644202 376.63502104438027 L 182.00446142565596 203.53633869533994 L 344.8936285095573 106.78470109750793 L 534.7307298626183 131.95602182270142 L 668.2351787859994 269.26655267490423 L 687.8229842857469 457.7540079510168 L 588.5453175691987 614.4370275852132 L 419.11284368440005 673.7552183704927 L 256.9360843347605 617.4937794287912 L 170.31485541202107 480.5862522947472 L 187.09570694510987 330.8382409705896 L 285.15432169722027 233.97856756948144 L 408.2357649580991 222.4905353362397 L 497.4197489566461 283.84381693103325 L 520.835235219264 372.80508693474627 L 486.1373373720832 439.52133561470123 L 430.3780177913549 457.07631830110205 L 394.5272267092239 433.3962666046377 L 398.06655260121283 401.82603289437304 L 428.39352644026906 396.998994631825 L 450.80210289552923 430.8840961791235 L 432.6941881009254 483.5402338403294 L 367.28724294828874 514.4090882240579 L 282.169258740037 487.8707391088475 L 226.6227677252351 398.133560602091 L 243.93428962654124 278.30126469302627 L 344.01603223655354 186.95271682501476 L 492.3592529588193 178.19611053650326 L 622.9843412093585 270.9322974236126 L 670.0428404550519 434.43488789386595 L 602.1282907457047 599.304441519774 L 441.06564939553914 689.520088282695 L 254.45568632901785 659.813333014177 L 124.74003094592882 519.1894552579021 L 109.9140158242846 328.1191524330353 L 215.64126287795375 170.31742760175038 L 392.8738486596927 113.10063773829711 L 562.0681197187348 176.1707500745515 L 651.5390624324621 324.23411100267333 L 630.5186703985084 486.4959006482077 L 520.6643775000362 592.3351855663306 L 381.2838264067484 604.5758511031371 L 277.19206142982097 533.7523742989465 L 246.65805421637958 427.3492375933763 L 285.94663215089935 341.3407369199131 L 357.3006644662 310.2879272456708 L 414.27961122724366 332.1060457401616 L 429.2619305103075 374.74845780656796 L 407.48983754284416 399.5468255205158 L 380.3002086095903 386.7784750475418 L 382.37089062880307 348.22197582963554 L 427.0336854730572 319.3340774424683 L 494.7912695784868 335.719253911953 L 542.5242671203868 407.9376067118408 L 528.7872093797175 510.0635442365758 L 440.8895167411563 589.8874325249149 L 307.69796999353576 596.3494535133681 L 189.46861712464707 509.55924418808326 L 148.62292886161651 356.4086588180096 L 216.33217277166787 201.8797681941733 L 372.93644459903345 119.04214262922483 L 553.6216007061473 152.50320924648653 L 677.7320814848549 294.26624309573606 L 687.5063022205134 485.09772025202096 L 576.6581624754243 641.5321696272554 L 394.0812843537644 695.3443523555745 L 220.57690519722598 625.7428983352353 L 130.2975388948641 468.20455064462817 L 156.30988172929676 295.8655203057844 L 277.29184570775385 183.39482579414857 L 431.23312778627644 171.93969947235672 L 548.0689666823176 252.59239368486814 L 583.8093703715675 375.6648477905486 L 538.7562321278374 479.42884054424917 L 451.5652846255414 522.1812021437811 L 374.07276938316505 500.6271535541848 L 341.79815392996784 445.8358757817867 L 356.5550284794822 400.67609344818374 L 390.06796408804695 392.6671750415213 L 405.28088771942487 418.1396974424714 L 382.0278824043376 446.57940157934934 L 331.4844169528902 442.1040098458842 L 290.5167173981774 388.95903715458456 L 298.8789622129568 305.4102760425178 L 372.47106828834956 236.91636897664688 L 488.7062255216931 231.3877790331142 L 593.7007160056386 309.99963219328737 L 628.8638962516463 450.35560639334034 L 563.2142295063596 592.7198580010523 L 413.70547755860196 667.6659562815797 L 241.48615609770653 631.5137083033726 L 124.52472350711088 490.95078331266245 L 119.77555941479318 303.1886497953187 L 234.13553212560157 150.45851062421417 L 419.4294075444052 101.08347807318137 L 594.5222853017557 176.61378374422284 L 683.7228756617046 341.6518052869267 L 652.2552742932439 521.4513736927164 L 521.1634988960144 638.1983350984759 L 354.7113657968 647.5096348914266 L 227.47163190858433 556.993417031354 L 188.41546593914381 418.4026678643986 L 240.18298905600716 298.7365603714912 L 343.087427364789 246.23404984262717 L 440.0829305027026 269.0522110411083 L 488.1206747736801 336.793788145975 L 478.73471734779 402.3083723878119 L 437.4830937397888 430.3633597461961 L 404.0584853985902 416.69847089197333 L 405.642621256419 387.12709333248546 L 439.4825230659397 378.11399530648424 L 474.9417088153524 410.9722132664467 L 473.7482071818233 475.46586695022506 L 416.373001722687 533.146739059465 L 318.5582998811856 539.261455467186 L 227.2743254523847 471.01745682712885 L 196.98304930949365 345.6790510970762 L 258.5952692162713 216.9797575156485 L 398.4285920683985 150.10610115362928 L 559.8533434139296 187.63420740642053 L 668.4259533533076 324.54772549889003 L 668.4911452698462 506.46476177266516 L 552.4729783860681 653.3551957811312 L 367.2026781241299 697.5568510453321 L 193.19440809785794 617.0162941339006 L 106.75756514436296 446.70776301133304 L 143.83534626248718 262.18508815986786 L 283.6839803509492 143.46383990147206 L 460.3292082030475 137.43182770010975 L 595.5151206005216 237.5075306898833 L 636.0746077417504 390.10589895296863 L 576.9051823781376 523.5490605230189 L 458.78575389626644 583.7587399003601 L 343.67257703506107 558.2716142405076 L 281.65534961130874 477.0884334333508 L 287.36291081504174 391.6291389558823 L 337.58994116735374 344.62816959205105 L 389.80310839809334 347.9764834924238 L 409.7354371355753 380.2500895361574 L 391.74891156607686 404.10119612778016 L 360.38059057467194 392.3702184016515 L 352.67559950412254 347.01393035079286 L 392.18433026516 299.33451252987294 L 470.48534528213463 291.0065912328317 L 547.9460105292907 346.79601486166104 L 574.4241519161269 455.1649737315488 L 518.8959074107887 569.0499761184891 L 391.19891881733037 627.9972082946159 L 242.6352064833324 590.6230608529166 L 143.36440623599646 459.8594313291664 L 147.3397202015458 286.44619964279093 L 262.96116396885725 147.2825962012076 L 445.41554542718023 108.67764402945124 L 615.7754706450863 193.0122772037574 L 698.0074698003743 366.1561115759702 L 655.4829512027982 552.6059865722817 L 508.54127985466164 671.1103948374088 L 324.23808312547794 672.9864222307026 L 183.62005485524347 563.9976361282711 L 143.23787982610372 399.2337237481921 L 210.20376094723213 254.35883833473707 L 342.6650659850289 188.51942682950622 L 474.16644272405165 217.90725253423562 L 548.1763041385334 312.6865394053334 L 544.4635729382283 417.2803208405875 L 484.25018692978637 481.79016642312035 L 413.04696294041827 487.10385864455714 L 372.15679641093567 450.62306900747683" stroke-opacity="1" stroke-linecap="round" stroke-miterlimit="10"/></g></svg>