<svg version="1.1" xmlns="http://www.w3.org/2000/svg" xmlns:xlink="http://www.w3.org/1999/xlink" width="800" height="800" viewBox="0 0 800 800"><defs/><g/><g transform="scale(1,1) scale(1,1)"><g transform="scale(1,1)"><rect fill="rgb(0,0,0)" stroke="none" x="0" y="0" width="800" height="800" fill-opacity="1"/></g><path fill="none" stroke="rgb(255,255,255)" paint-order="fill stroke markers" d=" M 400 400 L 145.9861376890882 274.8940912239725 L 285.942636707597 251.6688321734518 L 431.3550102189347 556.390284234532 L 324.8637786199308 682.7013782849506 L 377.7793271145122 425.4676063794959 L 649.2992512842055 295.848369226013 L 611.9338380453265 413.1366046379401 L 287.27478707103563 335.52551048025754 L 233.22538468895928 152.84990506225827 L 390.89583324936973 333.4526924459546 L 319.7679835179228 640.7533350130791 L 234.93792020302436 567.0803463297161 L 493.12482517527167 367.7031799066498 L 697.7030029894247 437.0482622707454 L 483.2993960167066 454.7482978583818 L 281.296938997087 198.1940004924249 L 381.1769925350118 146.29952401690437 L 375.293598930454 461.2188660735085 L 177.83537343584666 598.6467808501495 L 273.88660138769376 435.1646536413524 L 607.8681933666294 439.0544400370335 L 616.5765786041077 562.3841259034684 L 385.2302020687401 370.9089054062849 L 396.4483921372354 107.76999071217375 L 469.15982920828526 255.16398563563843 L 253.79148966257694 515.2794287259319 L 122.69149660693836 459.1124506275641 L 398.8557087368598 399.71071242545565 L 615.3041359058883 583.2940933784654 L 474.5880921799055 572.6076322732904 L 407.88258323452413 241.6944783655272 L 542.2602528941383 144.11026070528263 L 428.748859925808 380.08783426725233 L 133.28688764104118 439.7959952614671 L 196.95769166180793 335.06599793783494 L 492.7176497266312 489.3974505159905 L 501.1551686785349 680.6085041605749 L 392.3877260481176 467.89156289201867 L 536.4526374440767 186.786658307983 L 601.6053357333017 278.09328989610583 L 302.91113953880335 408.3909259342579 L 120.46225309220051 291.1169727556838 L 331.90856052281845 325.6848589516569 L 465.41276761087954 624.0343411418227 L 355.9596374766817 651.1898785213976 L 438.2777094001357 347.6338377731957 L 663.9542792381708 261.9282308586521 L 531.946150354155 396.79231975581166 L 208.8054952465472 311.54082351312513 L 229.51090092660309 189.09225923351903 L 406.93052478354105 430.67911755543537 L 331.8809173838266 683.9256099383874 L 296.81428086764316 524.2334374346636 L 569.1573434339879 324.450242416665 L 683.7215966838895 410.6728264303232 L 402.07695290326706 401.1218464988816 L 236.4178167790614 169.84925419717084 L 369.8462718842619 213.4693357652713 L 353.85142877812973 550.5856201724209 L 199.18591861924844 613.4027626363605 L 366.1499792556072 412.66932744025263 L 667.8151205041438 426.7371870157258 L 581.6374325410177 513.1569741740767 L 332.584711310753 291.51065497289943 L 370.69474502966693 103.03444781811277 L 424.4240902998239 334.9695988007925 L 215.91440743476062 572.8307588632438 L 173.96772786903827 468.9879981613911 L 495.0815609970302 415.4818030915723 L 644.3167504964301 574.070729450674 L 448.32685429307554 489.7155252443256 L 391.5199607086801 167.50944791184497 L 504.5165934266783 166.70057596590502 L 350.94267612193715 440.65150429525767 L 110.39395265493727 469.13258658411314 L 270.25962934821393 370.53555917083133 L 563.0273768870459 532.0924174785864 L 513.8062535926247 646.7175841809775 L 400.77039473068237 369.731640900992 L 535.5040507862658 141.67251320017868 L 531.2904519322021 304.2612159326418 L 218.4011325968403 431.62566558403364 L 127.1846063290497 320.0064034497442 L 397.3920742874166 397.60500227053814 L 502.0380044575444 662.8507042869526 L 383.43579404451924 589.1435870812537 L 481.12782608172625 266.17850649129537 L 647.204825274918 242.1907017706492 L 437.08703454486414 395.8844928011661 L 147.399165538654 308.61539611236094 L 251.06509339110957 245.18056944363178 L 438.44400391674833 520.6850701196245 L 355.60793951862365 695.2080475128728 L 359.7275019664656 458.0032828264701 L 620.2720762890565 277.8699346474328 L 636.7710929006633 388.4811329783186 L 312.6394160112337 362.1309567809485 L 205.808790356194 171.36774125765595 L 374.86565218345163 300.1003298152487 L 351.39492226321676 626.7472184947187 L 241.10830532836258 601.0495952663159 L 456.48279120894165 373.1083130877887 L 697.5700359696921 403.9560649125598 L 519.5031815556595 460.8443763266437 L 274.82711592017046 232.6557154748014 L 350.0436309222018 132.4241638515785 L 392.1511285811013 428.0253162112748 L 205.49885743434297 617.0293485353385 L 248.32940340762343 461.00931924948003 L 582.8811804065951 413.7784717523449 L 645.210427571345 544.6105229281134 L 402.5884460891694 403.9481208886262 L 365.5481753165539 120.55960689164118 L 462.71766497316463 219.8238319100592 L 289.26532813801424 509.14767648580823 L 121.42298622552443 492.4839127768729 L 361.87563100242835 394.73998498736483 L 622.0608560721996 550.2136263665717 L 506.8535505193739 587.3150147812705 L 392.3733397844449 274.6424195324923 L 515.437262982197 124.57113029713844 L 454.12543803960057 352.88381405457176 L 157.1345372420422 464.2520806909828 L 166.92027708827177 352.99268925118645 L 474.52720723565056 457.4421701600589 L 532.2224807135582 669.2378285594004 L 399.8812070832966 504.1206694914443 L 502.36548203579594 192.75496109416423 L 603.8074858026132 243.6545161242026 L 339.78148240776403 412.0018850062595 L 112.62228692877972 323.26976402217815 L 298.2607399972485 311.0271066773722 L 480.0129310808761 592.1364141305884 L 382.8191097221305 672.1516486248028 L 413.8939116542888 375.77249193582514 L 641.5278226949395 237.41997232798 L 562.9770678356901 377.8929183679639 L 226.96124663378538 342.1147085065841 L 197.44964864327292 199.43922748322623 L 398.07277426840193 394.42247963750407 L 364.9616824108341 678.9546023679518 L 294.53412049087797 560.0678779746635 L 533.2373072900486 321.83377529897393 L 692.9885078011345 378.5981502318748 L 436.75698740768166 414.8829889342978 L 221.8834696870271 200.33822362701346 L 342.09722047326727 191.41978875350497 L 376.8684159356455 522.3490486152284 L 220.51062420806886 638.8221717035314 L 334.9554230020303 432.9304035284996 L 650.5586765924163 397.24074792903593 L 615.0964251669345 503.01100863240595 L 342.5183305483743 326.92486976434645 L 337.8050743529113 106.5896105845564 L 425.9072953867748 298.01223942694133 L 250.45097827941967 575.2604052769283 L 163.5308314982557 501.8642532256249 L 460.16910427033525 403.06485124193176 L 659.6694653694024 544.7496407587704 L 477.42732617414805 512.0612392684848 L 369.64462621565934 194.95552562289956 L 483.51049351655377 139.89402483274756 L 381.40855485804235 419.2379514858959 L 126.26106532734127 498.32603871539914 L 235.59604027245874 381.3764160827062 L 552.7834536204075 498.0245019243205 L 547.4040289951023 644.401283176386 L 400.6016646484518 407.05550680649003 L 502.19017485244234 138.52742666819773 L 542.1503652067885 270.05238614287487 L 252.64097418367055 442.84297964072044 L 110.46917721625334 348.89688293638767 L 367.0684876204506 375.87059880613316 L 523.4990647219528 636.752664092239 L 405.03288585424195 617.2253018749468 L 451.96115056176484 288.02725381620394 L 632.631464579507 212.3887815726619 L 472.24829223446056 383.7654601874572 L 157.0403325108251 341.4161833353115 L 216.16334220523598 246.95430949875382 L 437.36104206076266 483.90905759871583 L 388.3845748215034 699.6768866296027 L 349.35988874298283 493.4983119610526 L 587.325413455449 267.17782497740643 L 654.8193294052824 359.10529596252263 L 343.5229054745344 382.6214793961176 L 183.8456417988165 196.13115020284064 L 352.03322299544203 271.39518909486935 L 379.25933107441944 605.3797708500659 L 255.02793137220226 632.1159272390231 L 421.740168356629 386.5250144386031 L 689.1989975991446 371.79429412926663 L 555.7448411739928 458.69742478036903 L 276.5457199542417 268.20530005097476 L 316.88928522921697 126.57916442420378 L 401.33693136982856 391.84787693748217 L 237.083469456211 628.1101349804411 L 229.53964736597743 491.5707256003252 L 552.3503216423992 394.6171000356581 L 668.3863932928373 520.6031720579864 L 426.75782586747937 432.365835012174 L 338.4203263908079 140.7247066113128 L 448.5429318683939 187.37513356048905 L 322.8582078169894 494.98600348393165 L 128.3895959233784 524.9132261685962 L 324.8335555407516 398.0010359612523 L 620.6106396603395 516.0410610756531 L 541.136040146823 594.0101076708911 L 384.536134068307 310.60105974634314 L 484.7022367240853 112.34188325586723 L 472.75866182788695 320.95392211608623 L 186.54385922495328 482.58304339811843 L 142.3324657056736 377.1385640222627 L 449.5057619139603 430.089624066946 L 559.5046281909779 650.4901850494673 L 415.09733714128186 537.4808935566978 L 470.15343770039186 206.77471918453085 L 597.7887026942428 210.1630541011061 L 376.7413616359765 407.37977762650434 L 113.00140399474361 356.50753691869437 L 262.58735922000994 304.359925892187 L 486.9292960022928 557.2071318036191 L 413.5776595466083 685.8078558259419 L 396.23531852013 408.65771001822833 L 613.5342168143798 219.05144334527182 L 588.578337321392 352.7831683546238 L 251.97216911276365 368.0923611114317 L 169.18082973538674 217.15287000504478 L 381.4901114851238 361.00762189238014 L 396.1613169076973 665.9159241764212 L 300.45595384825646 594.9619512308302 L 497.20529422935994 327.4636177575248 L 694.0362157129148 345.4505720391377 L 473.4831613688868 420.67040283666205 L 215.04985234292567 233.86727364969505 L 310.45738878850625 176.65933990772245 L 393.1665207793414 489.33983447790865 L 247.39573149999052 658.0916959027254 L 309.1649523379978 459.4047225155147 L 626.4271251951421 372.3463328675427 L 644.7673509991217 485.5144813146092 L 360.19148998384185 359.52040509161986 L 306.80857240019554 118.21712641708717 L 419.2036722008192 261.9758605752662 L 285.1105507950146 569.424279769481 L 161.30074364376347 535.8048867876543 L 423.18350007279105 398.61607990385966 L 667.3078578973889 512.3923181728148 L 510.4214622049563 527.1409589569284 L 354.49447291602985 227.1972149357901 L 456.95757698943123 119.23644480034909 L 406.493037150685 391.59558612222077 L 149.01227669857664 522.9046490420856 L 204.70341751522514 399.55436550748453 L 534.778143448212 466.7629736522641 L 579.0990197285239 634.0207298968373 L 408.61526958559546 443.48519846847404 L 468.75509012671404 143.6653764583594 L 544.8234812998289 234.77715786148056 L 288.97900943965396 446.0848134410062 L 101.47125021182774 380.8119493202615 L 332.83546841652173 361.3808081193942 L 538.2206675411626 605.8463117439475 L 432.16470114769413 639.1718817096921 L 428.16329671175123 316.1285442932686 L 611.1779618057346 187.21325234077332 L 503.664034363539 364.3128400438521 L 174.4636944269676 371.409915565254 L 183.16417076122315 256.7756691563203 L 428.08726685511385 448.00121098976854 L 421.2719261343938 695.855096787621 L 347.15961954019275 530.0747497152653 L 552.2650191766043 264.47736028842144 L 665.1598900047408 326.7161898116606 L 378.340633813174 395.87943157505435 L 168.6361226790431 225.70256459478477 L 323.6689866861009 248.80213389964746 L 401.75449506681616 577.7359196390976 L 275.8143654389064 658.5533379210133 L 390.7172380459609 407.28478999024884 L 673.033808041765 342.44977537308114 L 590.0971170742877 448.52009585202967 L 286.47329760900334 302.9040555905628 L 283.6355521223123 129.01940276509293 L 402.3663537884732 354.5641764337786 L 270.7843894469405 631.1820500554403 L 218.4377396947798 525.1423991625275 L 517.8591197382704 382.6891881044891 L 684.8027011452293 491.79826906137777 L 456.4690041286365 454.6960521093156 L 316.67242761672094 167.18211071690695 L 427.51649628544067 159.54499975442297 L 352.7494533327934 473.4613479208123 L 143.1494569781308 554.5130963893341 L 289.6571000306375 409.2827943036001 L 610.9310694734645 482.71479842293775 L 575.5139767478057 592.4360618562895 L 384.85710700315923 347.69326978970014 L 451.8591594095097 108.13153209757951 L 483.72655757788556 286.0040446129963 L 219.93262609198607 493.66870428311773 L 124.49766201741363 406.0686191949693 L 418.92144857944464 408.806782097799 L 581.3929835600352 625.4469601215783 L 437.15665882289784 566.2441173884691 L 441.6375256172475 228.18072927441204 L 583.9888952178966 179.5068255002871 L 411.86297904018977 394.73414277843005 L 121.62405374732379 388.89210092417693 L 226.8100413546024 305.94196076054783 L 485.67414836593764 521.1229595861016 L 446.43196224964316 691.4475097827815 L 386.225305486516 444.58427790661506 L 581.5543533109087 207.94431263762544 L 607.445005774905 322.89704494659395 L 282.5715050874759 388.0059009163039 L 146.3142831947915 241.15351673114313 L 358.06064951835384 332.1634965286418 L 423.65838131944844 645.4728742542544 L 314.14166113997555 627.027041395506 L 462.98911099820384 341.13183418095764 L 686.8381671117222 313.16824029459053 L 510.33388253204 418.2238206789179 L 216.4064201349972 268.56067894690005 L 276.7296120274846 169.90089180391118 L 401.8210445351053 453.2623509695426 L 278.26162411097755 670.0880040512619 L 290.08490174999184 490.65925759635724 L 596.6856706613995 353.52279021218635 L 669.0390773923307 461.7455093612174 L 384.7274771891552 387.5676516964083 L 279.5272584124025 137.25568800421883 L 404.7497280443017 228.74971812260506 L 317.96540086819164 555.5285530568101 L 167.30607223072616 568.8716163846784 L 386.0461483460137 402.397287361856 L 666.7405530771753 478.87379125152984 L 545.5068230559291 534.2400281518151 L 346.9955648399552 262.5311645214739 L 426.43633978532773 105.85292656708447 L 424.8885884243962 359.15644575897824 L 177.38403763118436 541.3984480162002 L 179.1941496386201 423.9926632977881 L 509.8866047053462 440.0379938336157 L 607.0684469665737 616.2352725472638 L 424.3762087912318 477.1309723880287 L 437.12646617458347 156.882139008865 L 539.2792865321944 200.3740548811285 L 325.4942150175965 441.0878116602408 L 100.68423117915017 413.87712360480566 L 296.4950353136182 354.8518562895545 L 545.2752396225309 571.8338608842259 L 463.2536824086542 653.8564973034814 L 411.04288115444456 349.0514736341452 L 584.1062264005486 168.1353872346254 L 529.7207585066672 338.6021220029084 L 198.79583183299118 396.8658679134968 L 153.89123779623552 273.9871214443887 L 411.0561620884549 414.8515755192858 L 452.3422439010485 683.944829808416" stroke-opacity="1" stroke-linecap="round" stroke-miterlimit="10"/></g></svg>