<svg version="1.1" xmlns="http://www.w3.org/2000/svg" xmlns:xlink="http://www.w3.org/1999/xlink" width="800" height="800" viewBox="0 0 800 800"><defs/><g/><g transform="scale(1,1) scale(1,1)"><g transform="scale(1,1)"><rect fill="rgb(0,0,0)" stroke="none" x="0" y="0" width="800" height="800" fill-opacity="1"/></g><path fill="none" stroke="rgb(255,255,255)" paint-order="fill stroke markers" d=" M 400 400 L 129.85973397155436 285.4147863807167 L 315.1499292856067 312.22617287496536 L 487.13286395644235 626.4630119903918 L 392.44713567786556 622.903463477389 L 463.1567327086075 264.1009601135386 L 611.7801901688177 208.71577461542537 L 370.5846650860312 410.1881751106241 L 102.35528091770158 379.80601844388354 L 317.0504197048416 357.97823247980995 L 567.4097488724074 598.465460187794 L 459.3161195309753 592.0564702010544 L 417.8548185297986 224.89155062734014 L 532.1448291869358 159.70071223596076 L 351.3421953029989 438.30045120202584 L 110.52634338480294 478.7702933635015 L 337.68855602297197 391.5057451312344 L 635.3416227962705 540.0015481717244 L 504.59399219730074 542.5595297828505 L 353.9886849357375 205.0822718408203 L 443.8450524502578 143.58595759321975 L 350.2872301125758 477.46976576738433 L 153.54371952591285 568.2870431541974 L 368.51682442187547 406.3144800251439 L 679.2055932567091 457.5362198858918 L 524.0120758178351 485.6434434105289 L 280.89478257149017 212.2162994578667 L 360.27290568563893 160.0407375808536 L 371.5370237776867 517.7896380498669 L 225.04804726009704 635.8321905035747 L 399.15002418670707 400.49957533142197 L 690.7489118156398 361.9295963894807 L 518.4936554736282 432.9176612886821 L 210.58479173609135 249.27557178065533 L 293.2497504024458 203.42582092910683 L 414.3308530835799 548.3120023368277 L 314.25588003003196 672.5090812401479 L 419.5606555287295 377.05786328462386 L 666.7424235005208 266.63695066154503 L 493.7400859612031 394.13771820854504 L 155.57592301320588 313.89263511074864 L 251.00579696337942 263.98844272726876 L 473.0033780041193 559.2843898391088 L 407.84944527258045 674.5231784640771 L 422.19013574587365 343.22394067943765 L 609.6438741463554 185.41374935620712 L 458.91296912956244 375.3775388494757 L 126.57206089618103 398.5546929404992 L 236.8606683425648 329.78152803294466 L 537.9258758596226 544.1960400722594 L 492.3016649734871 643.7333786561605 L 403.5666577638647 308.96021003367787 L 527.2432932340411 129.94534019326363 L 424.6733217872332 377.9502407715032 L 130.43034023560006 491.77411269177856 L 248.84134236831065 388.9415286602293 L 597.2447166889634 501.2367115767496 L 556.2082665830134 587.184703648282 L 365.11488514235725 284.89292418845855 L 431.35154830919487 107.83603812995767 L 400.959270031214 398.2772415742083 L 168.79694099853913 580.0178077873952 L 280.296666369513 431.89452913685614 L 639.0936749028235 433.8813258447498 L 592.1991718604187 515.7164995687295 L 312.9968613136285 280.09268737542936 L 335.77084018399404 121.32629046240612 L 394.9319417057064 428.7242146766451 L 237.67277752205942 650.0444877342338 L 321.38000757936146 453.0767186836962 L 653.86458249169 350.477590862937 L 598.0816644280212 441.91160663420885 L 257.0083636316088 300.1287520187292 L 253.91905491592365 166.9716366532861 L 409.4858792980852 459.2380045388835 L 327.99737065122156 691.2207861171987 L 361.1088207716732 451.8496166572386 L 636.1069108268642 262.90156292387894 L 577.0129255687339 377.7731379346822 L 208.73552370040204 345.7759038406266 L 196.5435486389244 236.33862193927823 L 442.6118278171904 479.46585616490927 L 427.1498395105891 697.3894802795693 L 389.60259353182 432.4446772368702 L 585.6938956268114 184.52235262470532 L 536.6820524482205 332.5638598523948 L 179.31872004006766 412.6302121185993 L 169.94220853167883 317.58415925257395 L 487.7367017906415 480.9460973839775 L 521.0951605013125 667.9450850156891 L 400.0689066587535 402.9569087690352 L 508.02832232158335 127.84864104944131 L 487.6672810391492 311.2097513411235 L 177.24760562441313 491.7184849516366 L 175.01389302128567 397.6214347695689 L 534.9787347832842 458.94517117402495 L 596.7836703882034 607.9187032803108 L 390.1570973725886 373.58797342448827 L 413.23969137910916 102.29152211908001 L 441.28792922626053 313.56057198074757 L 206.60803852186856 570.9982044852406 L 207.30464400641839 464.4679280442161 L 573.0805808343707 413.5823717155728 L 644.3647936247826 527.0576870472174 L 362.4207478029879 354.48174514875416 L 314.51267521612453 112.45868060012657 L 407.36367751606645 334.63679589843275 L 266.1190762530041 637.475482440242 L 258.0296760075696 509.3395594705564 L 591.6526148567885 350.01828680390577 L 658.810963664685 438.0719713733208 L 323.80088157404504 353.57260406673356 L 225.8492184850205 157.29759924224385 L 392.30879349931485 365.8049585597372 L 349.1514964233278 679.5501167080797 L 315.869115875122 528.1051841409477 L 583.2975929081128 277.660411884559 L 640.658095745623 354.37297199483595 L 284.2290561581014 374.8642502785232 L 159.67279759392895 230.24854205834163 L 397.923088604034 396.64766506453225 L 444.73602909756823 689.151557863051 L 369.1919749244357 521.8380433862811 L 545.207824725697 208.52620433218803 L 595.7340062309418 287.7238329049401 L 254.61807049941842 417.47500424209017 L 124.71328016843142 320.3808800136942 L 421.10730774620265 417.1633721073096 L 539.3840562792512 663.2661653942446 L 408.28478379674135 496.37221771095074 L 479.92343917850843 155.064728743927 L 533.9348571363802 246.23422420116194 L 244.6258882359796 475.6398680013741 L 124.55886595692454 414.3039971339888 L 454.5536916458849 419.8692886288337 L 619.3908141988095 604.5678085935864 L 427.1632688567929 460.9602477353288 L 395.0969442317976 127.84259765826619 L 467.2866079343809 233.06622770256627 L 260.6232777041482 539.6775535833625 L 157.13748416254307 498.5007189964866 L 488.2760870903062 401.39995451006024 L 673.1998645461746 521.0297747919805 L 424.6268825026271 426.29744372826497 L 302.29567894928016 133.52831550967568 L 407.66039651458414 246.0827530421443 L 304.25902178596425 597.7466213802738 L 215.2170559484647 561.6537871145839 L 511.6834441495706 363.2905838804068 L 693.3949870427194 424.58500501252263 L 404.3614331954064 402.2970983328517 L 215.0548694644179 173.5558896642982 L 364.5730471519968 278.49189821275604 L 371.90516385083254 638.0635910114398 L 287.82466310075284 596.5388257208884 L 515.796185070106 311.7898438694677 L 677.9541191611697 329.0784336341799 L 374.0769623891106 396.0465330171979 L 146.5357366005465 243.72355130378614 L 343.4849417753263 320.35325354563645 L 455.0995426696942 651.1660137700455 L 362.31441802578746 601.1398769828625 L 495.17651149984397 256.7319790959599 L 630.53672558729 247.8865131154858 L 343.85199753749976 410.3381016502008 L 107.2187415029033 334.81001818801616 L 344.91101546214344 360.6506265248207 L 541.9149091431655 631.7921016297589 L 426.69461392991707 578.7903070395525 L 449.1966647603245 209.67808031014638 L 559.755387236707 191.64023995906112 L 324.0066117339204 443.0587781524842 L 103.057289629092 434.10144031022537 L 364.50495998987054 389.5304065722937 L 619.0086085985214 580.0178916381144 L 471.7788391533737 537.3250655236933 L 382.39354722477145 181.67681864649163 L 477.57081511115524 166.46770986412594 L 322.91675702825677 487.5576904048406 L 134.4328430627669 527.5525162263184 L 394.09128544528846 400.27553843257084 L 673.9772047478264 501.4301706842543 L 492.7616537200438 487.41544463654986 L 303.83054515876523 181.06951539980747 L 397.1115932885283 173.07428011454442 L 345.19408950535427 533.9239928338349 L 196.1041790839101 602.18709846236 L 423.4397265898172 390.63723559590306 L 697.5809937677955 406.2927878947478 L 489.930242388265 440.40982059490597 L 225.57537883731302 211.7588036122061 L 330.325373438038 206.82125388128497 L 390.5867210175103 570.9331455077527 L 278.15924308649437 648.2991042700828 L 442.4355967541364 363.27019558559743 L 685.4254034644857 307.8518762942319 L 468.3881836128176 406.0947725705476 L 160.57089631692682 272.27527562116717 L 285.897284861671 258.7771853772098 L 453.8199633448336 588.2909620020326 L 367.79222150698763 661.0520607473406 L 443.22467046811585 325.1887589152826 L 638.7857708455961 220.0866020817971 L 436.85498741868224 390.8034560014529 L 120.29218933984123 355.82825022296385 L 267.818662624204 317.53454668655974 L 525.4178831818842 578.7460832248227 L 451.57593614193115 641.1880828640215 L 421.9161660582487 286.3487091876947 L 564.4203535401798 155.31608288406795 L 405.77997426763756 396.22993996729974 L 112.62620338992201 451.3429435266669 L 274.86486972511193 371.4426486582382 L 593.3599860722219 539.6640208120921 L 517.8090018423205 594.723373974223 L 379.5114513958772 257.62683512635056 L 473.40399442581923 122.10050057833934 L 385.13841174892804 419.17238222411487 L 140.37094776525112 545.3014271475836 L 301.0685035121373 410.831957412093 L 645.2678031208468 473.75547789647567 L 558.505327416246 531.6962156066265 L 321.8733406063698 248.58629844644312 L 379.19646518301363 123.82000812791529 L 382.3372313165901 452.2501375565354 L 200.6376926348783 624.0535747140556 L 337.08617516890524 429.8094191284966 L 670.7137246427749 388.8096468454485 L 570.6625918828527 464.20941811592013 L 258.73348807570915 265.4583164597449 L 295.30111789187947 158.18898968359107 L 400.63595090435393 485.4537977800769 L 285.2724244125833 676.175188127037 L 372.1887845510696 427.2881076008132 L 663.2185339234605 296.4699225528435 L 556.5832045963798 404.1393248064911 L 201.91892787589492 309.7315682041926 L 232.9445448615116 217.78922625751858 L 438.3897717227715 508.22792480568995 L 382.2236296447264 694.4404438862077 L 396.4884620709219 407.06152916127223 L 621.5597671972 210.26982998866447 L 523.2001293818237 360.94334371272913 L 163.12856836187507 377.62734382651666 L 199.2024601387061 291.51619606320827 L 489.26486007517667 511.68396799770846 L 477.6076704616289 677.0466606658895 L 402.9720620122543 376.9154284106185 L 550.1399352049672 143.2869857281995 L 480.54711837256934 339.97650134971104 L 151.67809345925062 460.57207273784087 L 195.91208486444822 366.66361148236956 L 543.3902314765556 490.51491174623044 L 558.0935769392064 627.8679130659243 L 388.9493506739657 346.9534361401553 L 458.3380431065502 105.84619456108646 L 439.6731330653781 341.62886902495967 L 172.64059118254724 546.5907921277387 L 219.56298106603958 431.25405880802964 L 589.2315005138099 444.238538716878 L 613.1702831019959 555.6942408433915 L 356.63653871621267 327.46272095310997 L 358.9570409196885 103.69545563892439 L 410.40390607266767 361.43862365025586 L 225.7385032698268 622.3707778651243 L 262.1744757724931 476.18018098113066 L 615.8329227352019 377.52244264085783 L 636.88217359519 472.6013343139214 L 312.76125746900425 326.73364692661784 L 266.04832267720747 136.99199647188766 L 399.3803691866554 391.1496796815131 L 305.20352585561886 675.6168274610026 L 312.98313241339173 496.75925079608265 L 615.0019268610013 299.51732112381205 L 628.7189500226126 391.75634509293155 L 267.2621849893686 349.25669863182776 L 192.5105387431692 200.2856574173286 L 408.7491065033773 420.5033643883275 L 400.6409220662203 697.262689509568 L 360.6128742436462 493.41684805002546 L 583.0184665700268 222.31295137585306 L 593.5044137891019 325.06876311645107 L 231.32991237640866 394.6488373030287 L 147.90198503398372 283.50207405782606 L 435.7544867546168 439.4143781775209 L 498.74714522730216 683.1277156853575 L 395.31165903643415 471.38130251025467 L 521.5386215857649 158.7981685207173 L 540.3159717385311 281.1218196895977 L 215.16250741096488 457.52338705281136 L 136.8658038012528 373.74280453896097 L 473.3094593572945 440.1085521264719 L 585.5699475761371 634.7094731245369 L 410.82863264323305 439.45824833698197 L 437.5116732453683 120.32061048738751 L 480.6473224326489 263.7647684329283 L 225.86554692571494 528.3385496660559 L 158.45269990839438 457.56855619970173 L 511.4348250061845 418.80739887903786 L 648.8982863377585 558.9628031559206 L 405.5761944561903 408.12864411446554 L 342.11426807817963 114.58230184160243 L 426.1669596244919 271.62015678458476 L 265.9014128308962 595.0734823376648 L 206.458362572192 523.3432604611776 L 539.2905060632926 376.63072633148727 L 680.3445002484416 467.10372452524746 L 382.8589685716765 387.34114240361794 L 248.88961998860862 144.16559561419098 L 386.49856495851657 298.5866923203533 L 332.3909652085579 645.4226942890558 L 270.7037464691134 563.2074373977557 L 547.408396643579 319.53735378740373 L 676.7381125324881 372.65742992890927 L 350.130238409324 384.4267254941729 L 171.42931996478686 205.96825110323587 L 367.442368006445 335.23026205570545 L 417.4113722353574 669.0992300495827 L 339.0112926198959 574.3207213828533 L 529.6963500830759 257.3071470901717 L 640.5785668763419 289.1095089626182 L 317.4222000559518 402.5393491166665 L 121.02205584460552 291.6581333259658 L 369.9705957707254 370.7885141115056 L 509.24682857972147 659.8137322793064 L 399.5018916678763 559.1520528329809 L 484.8244059151495 201.75057702543853 L 579.4692184242875 227.5922399912915 L 295.2542992639575 439.92556527982805 L 104.70103177946288 389.0687100319853 L 390.18155249773235 395.3996253396504 L 594.3693206398763 616.5545678157872 L 442.77991683002233 524.775723456834 L 416.71972896596935 164.4802221399335 L 504.64414539912684 195.02974340657696 L 292.4240853509455 490.16779230014913 L 124.04864213235106 484.2816970127169 L 420.2137864037792 402.125028036927 L 659.7883157343842 543.9229741144544 L 463.59764914622605 481.31834463505277 L 334.0642580156193 154.66403248272653 L 428.8673238733554 193.07857071990023 L 314.1084836034098 543.3599850680546 L 174.97668966312574 564.0156555457834 L 449.9388183314704 388.37657353907406 L 695.3373410330406 451.45254293363416 L 461.69121290695847 439.8607213873375 L 248.87721545543428 177.1865141026385 L 364.09894128681475 218.05038184458456 L 360.64566707067513 587.9960703855409 L 248.51942979861911 617.8829948087744 L 469.10259492434824 356.47310647631684 L 695.475303277303 352.0314229207864 L 441.6386118761858 410.1996888903434 L 174.4379682327431 231.56993863243224 L 319.36457243287884 261.818971123466 L 427.2396280180912 613.2143849938436 L 332.4889104766337 640.103220582381 L 469.50019914078837 313.218030532984 L 660.269325757981 259.7129105206233 L 411.7766409044481 398.89925671517744" stroke-opacity="1" stroke-linecap="round" stroke-miterlimit="10"/></g></svg>