<svg version="1.1" xmlns="http://www.w3.org/2000/svg" xmlns:xlink="http://www.w3.org/1999/xlink" width="800" height="800" viewBox="0 0 800 800"><defs/><g/><g transform="scale(1,1) scale(1,1)"><g transform="scale(1,1)"><rect fill="rgb(0,0,0)" stroke="none" x="0" y="0" width="800" height="800" fill-opacity="1"/></g><path fill="none" stroke="rgb(255,255,255)" paint-order="fill stroke markers" d=" M 400 400 L 318.4729165690905 164.397711686987 L 618.0280487089924 228.58273842362573 L 449.81640192919855 432.02759509909686 L 449.9026720629891 194.51136758638987 L 693.1392069563794 372.0964001149961 L 448.19884077917845 505.6402997854811 L 519.6736418717015 285.98631813376886 L 666.5800047651642 537.5918336243168 L 375.9395863209934 566.7115024714569 L 510.5913822292485 378.7533405855453 L 546.6920428450014 654.4616673426525 L 259.6583023480066 561.7300169818088 L 451.51308543244136 420.6688685762346 L 386.64416235995947 675.5548678325911 L 158.7237064869095 470.61180247876973 L 397.80537030756 396.9118702360224 L 256.4171931273539 601.2037894842416 L 132.6091840204047 321.1765199215429 L 397.07643661466227 337.1350444272596 L 206.1046805565758 477.35699919435734 L 206.98612584347234 176.68821521961522 L 459.93537386234544 296.50128527676753 L 240.856134139515 369.10211220396343 L 357.7362463434379 103.0463282820694 L 552.6054505350613 321.61287884448626 L 321.1617049886476 324.59518065722585 L 522.110945927668 133.7445278241268 L 615.7519482714799 420.96376218867346 L 387.87965634651613 349.6611746315177 L 631.0768176660936 252.07677902325887 L 598.9317543999339 557.035016183297 L 397.508388759918 407.15503300235554 L 645.0150423977977 400.4799882606627 L 491.09180321093635 664.9212866831049 L 347.53815442451304 441.080325639467 L 573.0762360552999 511.7527108605074 L 329.62672999504963 687.3265471399493 L 277.46596170437846 411.42170487350705 L 465.6807797543875 544.7065123185896 L 182.49725750743818 606.4046417520789 L 244.95604751082314 319.5910255450404 L 384.7174293653965 504.4433323047108 L 113.05798362790176 454.54424068741014 L 290.81170762380555 209.73433592776604 L 368.4425610318231 436.2232495335641 L 147.0062392133553 297.91411019924124 L 412.8667207167742 144.87340390064352 L 410.91195730158853 396.8297061942437 L 259.7323909780639 201.80407703440537 L 563.9528939529387 171.20071949486933 L 467.41192576340995 420.0158155715121 L 390.95576442933657 196.9521342603255 L 675.5374776422769 290.69603667445114 L 482.5398319940119 495.87533387359656 L 478.28424627185336 265.4243613037328 L 694.1007123097149 457.6979425504053 L 424.69694527940584 575.9966031705217 L 490.822339589909 353.5729531410557 L 610.040506892719 601.6824265613595 L 307.0857398948725 601.550930879469 L 444.0820155518411 404.3704641035635 L 462.97110711140095 663.8045422536077 L 182.92807930276118 538.3592648956286 L 388.12847424753795 390.5909126643893 L 320.44212083775574 627.0292744614205 L 117.23639406317307 398.8921191863429 L 376.075924771488 329.97605498121976 L 241.93956624611909 523.2707146913384 L 150.81990063746787 238.4156375317851 L 431.157935021803 273.8554779345583 L 248.19248710937606 413.8504363992313 L 276.7423221224351 127.0216216815503 L 531.360768455057 275.8301054591334 L 312.71102520004894 354.5129322944892 L 442.5867048342993 112.88360395744735 L 620.6009227593105 358.51401605578695 L 379.8869205617976 364.79243712763594 L 577.4756932270377 197.0882394044634 L 640.3101873418648 497.5157783222119 L 399.00945656111116 418.90462530279746 L 628.9507616095559 333.96813695836397 L 563.6131669925394 632.145942958169 L 354.6395078047821 463.0401977075807 L 589.3270535871224 456.61844173006676 L 412.6558634473929 697.227975738569 L 275.96005760204633 448.9248384419313 L 497.09740765374715 513.2327751955987 L 249.00976427210458 658.3959110672785 L 219.73900542207787 364.26875625427533 L 412.9958387428248 493.94861668974704 L 142.16822996060597 531.1633702048763 L 236.59662173027837 242.48247465764968 L 384.5321018979811 433.38102861400284 L 133.4679607304863 373.0475919185232 L 339.84633067331913 145.79445583899397 L 419.17455091265305 387.83110923512 L 215.36434622278995 253.0723633772572 L 494.8483234887048 131.0268093022055 L 481.31541780648877 400.4778993773299 L 337.3986238578976 215.5905221323461 L 635.3140135738073 217.2197609186288 L 514.56908598438 474.61317303791157 L 435.2548258502321 258.4606404683402 L 697.8057704972226 373.4173025998371 L 476.5176051212283 570.3522850915828 L 466.42942200208995 337.4529776938806 L 655.3625313993562 533.7084624275217 L 365.8944691071996 626.8736963107924 L 432.4706558773918 393.95943758447413 L 531.5743081092776 631.3694957808726 L 226.42086401178477 597.6739520240346 L 375.47735705137626 389.9929299775052 L 387.3196855535892 633.2591904341089 L 124.70104284306558 478.8153356473465 L 351.19367443618364 330.4612288448042 L 287.6436659524762 555.5048596709601 L 114.2982066149537 313.9504915180065 L 394.31484531878795 260.03102010560553 L 267.2978619387476 452.04127444012244 L 206.0351670521602 172.90385511620522 L 496.0266905133532 236.40209186479078 L 314.08076306781527 382.79413362627486 L 361.2070875687897 115.45525359733216 L 606.8490967774283 295.2819565275738 L 378.97423547581957 379.6519756067569 L 511.62974454627454 160.32555777576925 L 663.4713387988464 427.16442786946305 L 406.909837564208 429.4579390134138 L 595.4560482826097 276.4926984387733 L 624.5849948944294 579.4378462837832 L 370.3769920181396 483.48382904810603 L 588.9144310156591 401.4803735848629 L 495.47903233879777 683.0802567618566 L 286.5599422608995 487.75883249675815 L 516.4929555552401 476.19151141168715 L 327.3415067601478 689.2882042488409 L 208.11158891932158 416.7494754768885 L 434.26560875239556 476.68762678688563 L 191.34807905210732 595.6877697141491 L 192.70595413225033 290.94235963385177 L 396.1618163594841 425.1961497136504 L 141.75113711405004 447.5191728883337 L 268.6520122152154 167.97186218101223 L 422.50016892457995 374.47756169292734 L 188.3519657880863 313.1477395462919 L 416.22594660418434 111.93046260885211 L 488.68494186587407 374.79825837728725 L 293.46637633317306 247.57780432189944 L 575.6258660149869 157.928420891656 L 540.4217670648165 442.5933530406128 L 394.753400488983 264.27167708842944 L 677.4959903292054 291.8022341074877 L 526.6826949804347 548.9112044682523 L 440.81001329755094 330.7841119548865 L 679.2375929427831 456.48827172238185 L 431.4988074711078 634.4736570075072 L 419.388450202014 390.23220214267633 L 587.0041838336078 581.68712885686 L 286.22807881512085 643.0287145313534 L 362.4212452955797 396.051139444517 L 451.249384663323 620.4271085435058 L 154.92858166532454 554.1879386571092 L 325.27728140483663 340.05819511388586 L 338.4743537768657 572.3202376109552 L 100.66980857224763 397.0679475880218 L 352.328818799844 257.74283138452853 L 295.08791687313465 480.83344150765697 L 151.45527464969626 236.7447500292755 L 448.6979673408233 207.7053618467101 L 323.58303222589194 406.5194355332256 L 284.7788673680403 140.76880996206825 L 574.5675235203654 236.92047075268275 L 384.148731129643 391.62094020018867 L 439.48066382789233 144.19220946243902 L 665.6508158016259 351.6566685094249 L 420.3935014554673 436.1906115028806 L 548.3278045843529 232.4114809402805 L 668.543690899904 510.8152286076797 L 394.21696031182944 499.20822128228264 L 573.19997026357 351.14798489854155 L 571.1362321947049 645.8763131609282 L 309.7327834490659 523.9072116535485 L 523.4021014827644 437.6950182655987 L 410.88479697661273 696.6421277940132 L 212.41039724616942 472.7195550496265 L 447.2094511891748 455.7138856800507 L 256.0789388926105 643.0081844205554 L 163.71894036470502 351.71959354032805 L 401.8560198018363 414.0241531159142 L 170.34447741155816 515.1356971225556 L 205.54058854521247 210.32766137997376 L 419.2823588055872 359.02012764037283 L 179.9967275950965 376.44571979358096 L 334.55856786240497 116.01087133799922 L 487.23989592679743 345.35083318743324 L 262.21955334975024 289.0296227697083 L 501.3444085115545 117.90223092466204 L 556.5344055168974 401.84000232479536 L 360.3251077448836 280.8304404207369 L 635.0417445470322 219.63598113550296 L 570.2755586670277 512.3226796270171 L 417.15572429340995 332.81021008440774 L 680.157888871038 376.65135187126793 L 498.4223744349098 622.6103365831475 L 407.5850592024741 392.94187704043173 L 625.139707070372 519.5748496306177 L 357.7950530954381 669.9501081217677 L 351.74393154660333 408.68404467286854 L 506.98416766028043 590.7283481392709 L 205.84033612553762 618.5077466808852 L 301.6382410641713 359.18508641435676 L 389.54384794871925 573.523522073391 L 111.22153357225596 480.8411825132433 L 308.9881829810669 268.6928556439101 L 327.8819297126813 498.58800875907514 L 117.41666018167496 313.0750888581636 L 392.8236089297242 193.37722885967895 L 338.7382979971049 423.6103015964653 L 219.5446279189602 186.18909531066313 L 525.5635995937582 188.932210297802 L 393.56177505960136 398.67130313918875 L 367.3098340736822 149.21566893227552 L 645.8724506295872 277.33623448529113 L 437.70020203629423 436.9165184474413 L 492.37738319014426 204.66898823762753 L 691.4090812834818 431.7767627121015 L 424.49663291121504 507.26528385915304 L 544.8690837560889 309.64520720943955 L 633.2447875038708 588.6132747766546 L 344.60393235849074 553.2538006525584 L 518.6687889622067 401.6274178921265 L 492.6316580882829 680.0626535780732 L 233.56541006991873 527.1996703764538 L 451.6470849970857 434.2145149787637 L 330.5981680373843 669.6053469232681 L 153.0671149525541 420.0926161642444 L 401.1214807987433 402.550045359895 L 216.02521598692718 570.5227437597546 L 156.26150963011594 269.93426049291014 L 408.83518914502025 344.2050391135533 L 189.87236309763713 437.3892338197677 L 256.71235974740637 143.37388412734975 L 475.5847178264933 315.2716496999655 L 245.3166978880425 335.45914142762797 L 418.63114316253785 100.58041853817338 L 560.0635035669567 355.52947924481987 L 334.56563884827517 305.1985561067402 L 574.2042407835094 162.8329192237402 L 602.6711757300329 462.77815253380885 L 398.0924565662484 341.7910211927069 L 658.6267961854898 300.90652699402926 L 560.7840709523227 591.2624645726091 L 399.4855991566112 400.8608463711869 L 643.5172457123738 450.7537548200072 L 435.3587213974043 675.4654482803467 L 346.0733390585208 426.7717642689759 L 550.2895420447776 547.7432699160026 L 273.5055818501345 666.1209636721348 L 283.67444611892967 387.08461368664337 L 436.29991856976125 560.3962410196815 L 145.1532088335924 558.2552363943829 L 268.590045967274 293.30896029173357 L 361.8285692352592 504.9580496049713 L 106.52550744227403 395.40026070041006 L 332.93737090361094 195.90255251508796 L 356.6182590633046 433.0206019485004 L 170.63879438546374 247.4083036329998 L 463.2853154494445 156.13532237178904 L 404.7762245310736 399.6207818042157 L 301.1620689207948 174.06028339689783 L 605.0927852291547 210.64897944796598 L 456.32791877148065 430.2000856753063 L 432.9397149002409 194.58868030953474 L 690.8764107209602 348.83033479000017 L 458.5478118977516 505.3425921569029 L 507.5926218106937 279.86627585042487 L 676.5706465938437 516.0344141912134 L 388.95734205683186 572.0280328221857 L 504.2678402285354 371.25112501054343 L 565.7982054001079 641.218231481392 L 270.92357178743026 575.0090475996066 L 448.4856555836309 415.1227734772414 L 408.43662341208676 673.8308942915417 L 162.6560847284563 490.406067159359 L 394.4924951443729 393.42236927707444 L 274.2059984028512 609.5818948499713 L 125.51158812509783 342.22993425943065 L 391.5236562461681 332.9239327340408 L 215.94454616697365 490.9249017405923 L 189.33398819870595 192.09008920113558 L 453.4431800726089 288.13114311609627 L 242.9363755864952 382.2499989487576 L 334.3937789712011 107.44888440479855 L 549.2470315029892 307.724930680787 L 318.9111637379966 333.9004203968725 L 500.28591821788973 125.9217040044964 L 620.0184234239941 403.8795725169373 L 385.3999286052861 355.2710738609221 L 617.0719350154835 235.4433680908142 L 612.8414347743798 542.2035549143197 L 396.87054691440636 411.9626505697504 L 641.496754587082 381.3018713633825 L 512.4436690161809 658.4194529954202 L 347.5218076536846 448.2601710114974 L 578.2888947045999 496.0393287283519 L 352.4671093677034 692.7446382892257 L 274.46487477948995 421.8301242095054 L 474.9509216901441 535.4803788202514 L 199.64279527848183 622.831123719618 L 235.5094876863814 330.6092100087531 L 393.3288058463893 500.8367328592507 L 119.36602865265041 476.7855503221855 L 274.2649242845648 216.29934276433684 L 374.22686872773613 434.80172594575964 L 141.6546594889652 318.865891628883 L 392.56209337633754 142.1767093238151 L 415.1030007226364 394.28100894821995 L 246.3077117334477 215.71255165549678 L 546.1667777680274 157.5532437556196 L 473.3319128127354 415.5838478211832 L 375.35147989177494 201.82782022416524 L 666.649719778705 268.92207854382525 L 492.94390040989884 492.08805438207867 L 465.60598522528113 263.360433827688 L 697.4964615252227 434.2109054977048 L 439.3816031000662 577.2357740162391 L 483.01463026278157 348.89900551473136 L 624.4237406867286 583.6720068796359 L 322.2256734700841 611.2713232887867 L 439.5461646817698 400.77481361654725 L 483.01084744487184 656.0119867105604 L 192.6223780689868 556.5688502481172 L 383.4490163202901 388.895003314601 L 339.39836050860185 629.8161831958694 L 116.47571472266105 421.3934789877608 L 368.76823448455804 327.8366844188675 L 254.83956351753554 532.9690040868128 L 138.24997126059742 258.3401902357939 L 421.77390084105497 267.5401279838395 L 253.85110756476394 425.1199216051461 L 255.67300562239186 137.9054319681365 L 523.667691602378 263.00134884991945 L 313.5629064005439 363.3366356645561 L 419.6435876914418 111.65891256247642 L 619.6653763354178 340.3586436374776 L 379.8400175896094 370.42184046705853 L 559.5838236071737 185.39263457400605 L 649.5393345106392 478.9059535656611 L 400.63728770428276 423.70128426942864 L 620.2534450134419 317.09051871300284 L 582.4368191778786 619.6273845277924 L 357.3792460785703 470.3828238475741 L 589.6649788067015 440.69441762057295 L 436.2115733431051 695.869203315661 L 276.38130057450996 460.4672690625301 L 502.7941612273009 502.2474472699317 L 270.0960577651574 669.2020073604378 L 213.73825827348844 378.2108449672992 L 419.41104389883515 488.17426000553434 L 154.47229182952412 550.4760883044922" stroke-opacity="1" stroke-linecap="round" stroke-miterlimit="10"/></g></svg>