<svg version="1.1" xmlns="http://www.w3.org/2000/svg" xmlns:xlink="http://www.w3.org/1999/xlink" width="800" height="800" viewBox="0 0 800 800"><defs/><g/><g transform="scale(1,1) scale(1,1)"><g transform="scale(1,1)"><rect fill="rgb(0,0,0)" stroke="none" x="0" y="0" width="800" height="800" fill-opacity="1"/></g><path fill="none" stroke="rgb(255,255,255)" paint-order="fill stroke markers" d=" M 400 400 L 210.5371981781806 336.2759301656325 L 162.482776424837 219.84666553772968 L 262.3536026028774 197.68987709862208 L 381.98601185889066 335.6564777769194 L 392.53660493835224 544.8546985953585 L 296.0501965991697 663.3613462183528 L 221.33687827604237 611.9496119839444 L 288.6598175233955 467.64496641884375 L 480.8889655185153 381.78427863535927 L 652.5889142467904 426.0977195448057 L 669.1816000319136 522.6096584388563 L 536.7298515817831 527.8542495455227 L 392.11405448072094 385.37341992503406 L 364.13287693545 191.08016212862486 L 446.07143576934425 104.04984647822977 L 508.1509375904467 191.69638341896035 L 436.35499716502403 364.9269096166631 L 256.0140374519725 468.3139560655274 L 113.8302194882454 434.0834055182773 L 135.28576610390445 344.70871626698886 L 300.7035197965778 341.7716697959557 L 464.8195774817406 474.50761496199186 L 500.1272779065851 642.5366411773957 L 419.60621424513045 691.9044290294353 L 355.7270643246725 568.1925367114436 L 418.2362234078876 372.2772401337423 L 575.8739019769421 262.23146516848146 L 682.821808144472 299.94186220205603 L 623.9690750071007 396.50848262953275 L 432.44644982211867 410.352964084115 L 260.3864768971411 297.49372197406876 L 231.79013517912136 160.86968513129892 L 325.2081637056798 148.04899544789566 L 403.5734332429798 300.47587888343315 L 359.6994945695716 506.95567347787687 L 229.192058165951 609.1618950910392 L 155.85790228624163 553.589749878643 L 244.36371918576825 437.60665965914006 L 449.4577387909647 404.33203087741896 L 614.579548754386 493.72825921756964 L 621.9686653130445 601.1671088320784 L 503.7977091100259 585.5375635684768 L 403.22885716875174 417.1957454795894 L 425.81229790648996 215.28939716831155 L 532.1232237878462 135.5238936766092 L 580.3124300995727 220.53551866826248 L 475.10643049313677 362.92074466133766 L 271.6784538262375 417.31595005186693 L 128.13131301459026 347.6231396029366 L 153.3074064294077 260.45869573689424 L 302.58922399591586 291.4929860057426 L 426.1167660053704 460.5679212081982 L 420.1598555271027 643.3513757544514 L 328.5937236097724 689.5321872508039 L 292.41075789977333 569.2456492494822 L 399.31525724646673 400.5538220716308 L 586.7679769067481 330.63010352864 L 697.8653458666217 390.7107279177887 L 634.7340847186398 470.8866554481183 L 455.16891384481744 439.19712905350025 L 315.16332653700385 283.3033617552958 L 315.29315950643115 130.1406879159499 L 405.6341936492522 122.51569791152366 L 444.2978192548573 276.6413220264311 L 349.08772190796464 464.3667737183869 L 187.58946217195876 538.2950486301997 L 113.46085323343294 473.98256443913846 L 212.60196763691215 386.52550210837126 L 414.51827578836685 406.07388792970113 L 558.7997003128784 539.4718749147058 L 550.263929858862 659.0348573049121 L 447.01376411509807 630.5082057583824 L 393.68265404022287 450.9934791750765 L 468.6686057312203 257.0108622717709 L 600.8971624033145 193.71503487525217 L 640.9289357956848 276.34835130451825 L 514.6260101847773 382.70883940291264 L 303.5660718928649 382.9759870650554 L 170.00347127711825 274.5941174267981 L 201.05730072730333 185.22631519396282 L 328.35948294979204 240.73193537217904 L 403.16885382237524 432.15179837228953 L 350.0238469091484 617.1439032722012 L 243.02459641651038 655.6501077549822 L 227.60654002613325 543.9346814183237 L 367.4464651589327 412.67198689437254 L 572.2951739979948 391.936899275096 L 680.9746868447701 480.09346384822663 L 616.9429261439498 549.1029772515512 L 460.3069384459566 480.29296600492785 L 364.33038660756114 292.2700423051308 L 401.2711009929462 130.34323157210594 L 493.3165602504411 126.82197847351858 L 497.8132701577359 272.2960331489894 L 359.5419983141935 427.24844336372377 L 174.75025620562567 461.91874313751254 L 100.86317764977798 383.1733276501253 L 202.0422029414481 320.7847337757675 L 386.00631534292626 388.09072623415017 L 495.7316965851659 559.2563845349935 L 463.5576133712277 688.5748085021175 L 372.61162164655855 653.3911825935955 L 364.56697405663357 476.8288157039182 L 488.3374127456218 306.41837942925247 L 644.0204207095958 269.9168307346808 L 679.8435830331524 353.31366853902 L 544.7336968474613 423.2304112258106 L 342.36585987729376 369.7306825361842 L 231.64567546401219 223.83807335734355 L 273.4043640155354 129.8928678474295 L 377.1466049103833 200.09990900516664 L 400.36824647430717 398.2775790580936 L 298.74448219525436 570.8201162571163 L 174.32341707743134 594.4711393266635 L 172.44313820536098 492.6900945831896 L 331.5996200718952 404.27044175979717 L 538.6015421962827 437.18323917675576 L 635.3192829019176 556.3888187300314 L 570.3221846459356 619.5556065043226 L 443.39341014293274 524.5183266521029 L 399.1168031072804 318.78433049953287 L 478.0393538041797 159.34576783760807 L 576.3502217896632 162.169231638498 L 554.7418218271494 292.2377117374131 L 385.7364806692745 404.1610783909269 L 189.44741554648482 391.446122854637 L 120.32078183891332 293.1097006151474 L 218.06773687858808 249.99357696082367 L 372.38567421520776 355.64248370176125 L 436.3566673275512 553.6315867093955 L 373.5458022514082 686.4792490106527 L 290.2798998758507 647.9974512427639 L 321.20186925066196 486.12680200876764 L 484.9561532508554 352.99628357357454 L 657.2660369114167 352.94731674014093 L 689.9333397356278 441.9108885667905 L 556.4975122950725 479.10478155519445 L 377.93200336798634 377.6177075502876 L 302.56332953464175 200.26938738184958 L 361.28396168066536 102.51685593478516 L 443.63742260668454 179.10489864713165 L 417.77623855860503 368.9165276338979 L 271.646827082428 514.1393750780633 L 131.3544583546476 514.3406784155593 L 137.13795646205284 420.5290807334996 L 301.81284594027665 375.29290219845797 L 494.7944861426443 460.890032399477 L 568.3459497592734 610.160441941686 L 499.31721556173636 671.3079760437596 L 404.27586341042587 561.5454778070866 L 414.06622239445284 354.2022787911552 L 535.8749805148259 210.65627530752113 L 643.2015286038547 224.94249491008108 L 604.3222799468463 336.92121032471897 L 419.2482841375146 400.48160588251335 L 226.06725732859184 336.61397627024553 L 169.22955761886544 215.6921926415541 L 261.69645070384206 185.3705584639261 L 379.0280225342791 317.1630153916942 L 390.22653947699087 527.5195469010405 L 292.2073311353324 654.2812039032651 L 211.58639919764036 612.4951041742138 L 272.1922417523863 473.33720798490646 L 463.00335597364796 387.4590644911757 L 641.1692275278812 431.03227764365664 L 668.3729565029217 530.4428306345706 L 543.943259599665 541.5118618051536 L 401.19525511857415 402.3561681862259 L 371.4017048127927 204.16268559691065 L 453.1539781625026 106.97955715607503 L 518.8841485088883 184.38882493510192 L 451.12860093154734 353.0859428377503 L 269.55902276087056 457.9360664231739 L 118.98413116915071 426.35979272786017 L 129.17966970373203 336.32443118597917 L 287.28458870491784 330.0562291599485 L 451.2194616521808 461.9377020456395 L 490.49066705256155 635.7461079583652 L 412.4524682670018 695.957958419988 L 347.26202691969564 581.7551414345752 L 407.97175895011327 388.517522038084 L 568.5840862912864 274.6173979498463 L 684.6211148236694 307.2477577196369 L 636.3321685942758 402.22808224616335 L 450.1844241301992 417.407393568745 L 275.7121991247384 303.87036337027394 L 240.55254135214213 160.82972874760063 L 329.25604648473086 137.81628718950202 L 407.154709234765 282.67256071497445 L 363.81711248745853 489.19921547739176 L 229.8422489146158 598.0404807857685 L 148.05321809283936 549.837268151855 L 227.87661141412661 437.05976103782547 L 430.3631644707589 403.42674462649364 L 600.82445268311 493.76962268651863 L 617.1719811163737 606.9464421748667 L 505.2539893241306 599.7058953494563 L 405.86557422581495 436.2097219712637 L 427.9014543544955 231.25145817777337 L 536.8771637410803 142.33752160502854 L 591.7745491069159 218.44686641887688 L 492.63156133837305 357.11620054528106 L 288.81605749157654 412.18034263806226 L 137.32685288200997 342.5454838302395 L 151.96196139015834 251.38826517149636 L 294.60475019980845 276.5204383758499 L 417.5393514062008 443.6473986574712 L 413.3932686730951 632.1099616902436 L 320.9820139499875 689.089719088211 L 280.459490648907 578.0470424919134 L 384.03435852409564 412.26537635245006 L 574.440664938348 340.12976964992254 L 695.1761799466631 398.1815314419292 L 642.9434978157786 480.0492594440234 L 469.0743877551671 451.7246740628595 L 327.85963976201595 295.36134402593495 L 323.9987149854354 134.83682366628216 L 412.87832658237033 116.01305714792255 L 453.5311380735613 261.891118140186 L 359.4507498347993 448.70972604228086 L 193.4115027295591 527.2623275426804 L 109.21735347915865 467.3674121136425 L 198.44271248380366 380.4290905314714 L 396.7853223544126 398.5595912570349 L 544.903076083617 533.8332540824501 L 542.8888292030329 661.1608376394299 L 443.2425089751359 642.8975238739898 L 389.62237738372863 469.47637505890555 L 464.6336842167497 273.614764605477 L 601.7041498815202 202.99459934690907 L 650.9066792916605 279.058405430118 L 532.406372637988 383.40224655494006 L 322.0577335537749 384.2205520598313 L 181.8031667471357 273.8474280689681 L 204.1106767663544 177.61434695018409 L 326.4419670602353 224.88791974097776 L 400.95830883305143 413.0635376720014 L 347.92726019275995 602.8932769385198 L 237.06204177856927 651.0537744907284 L 214.42199121478748 547.2238757318145 L 349.2187375909264 418.31842307130665 L 556.3374331595317 396.59934919394675 L 674.1361288324794 485.61379926230484 L 620.1836153777085 559.5837112860422 L 468.689526787996 496.38302820678337 L 372.28149975091225 308.69051539087116 L 407.7482629025489 139.44908093349864 L 501.73128368932225 124.88503003691125 L 510.97091907167857 262.3894136770828 L 374.9759082490879 415.958665707168 L 185.4642453953173 453.23956579924317 L 101.01473361101495 375.6667794491049 L 192.04400513546608 310.686383549512 L 372.01742455296807 374.95202177489193 L 484.0677485054243 548.1213877912612 L 455.5696600307529 686.2115186387965 L 365.0079871392577 662.1733113263698 L 354.57977940709856 492.33791470173117 L 478.2119126061257 321.1908275575174 L 640.0139620396845 279.662997503623 L 686.5413254609248 359.53466389061043 L 560.3254821251218 429.8643551153226 L 359.6745978815003 377.5167732062956 L 243.99691555035685 228.36522193155565 L 279.62566902001635 125.50086051767425 L 380.92385427592706 185.77837607494988 L 404.90551069970496 379.56896677690696 L 302.3885104694213 555.6597859521651 L 171.76112413986957 586.9378676375371 L 160.33777099902537 490.70003852140786 L 312.92330536014083 403.25265791763866 L 521.1279106903212 435.7662975254317 L 625.5583866458883 558.1757354742674 L 568.7409012660733 629.1294163496389 L 445.4632978794732 541.7744909845468 L 400.8840480150647 337.488469461851 L 480.42392655300125 171.6254619197836 L 583.7779656301818 164.6904271970932 L 569.5635434540098 288.1081119698716 L 404.25655417033516 398.8729693863418 L 203.83576107449244 387.10938839910796 L 124.76969662772495 286.84147247120075 L 213.25199874973177 238.00845453360688 L 363.94388884827106 338.7170592859968 L 429.0648150032186 538.1525913172533 L 367.0952651934964 679.7189948140465 L 280.8313313176702 652.114136786083 L 306.9427922028578 496.7381222083296 L 469.7712543492125 363.6466119517014 L 648.5114686823941 360.94514066529666 L 692.2906167512144 449.74488121328943 L 567.9134645874826 490.217517940667 L 391.64166349071917 391.08731335055313 L 313.15867781428364 210.07439211373043 L 368.8161694810371 102.397200115212 L 451.8249746537481 168.30178142807728 L 428.41229110986967 353.08197431600246 L 281.157694562577 500.47270818870044 L 133.2527330234529 505.73255116712994 L 128.07709440263193 414.40486428889557 L 285.20209841129434 368.03954521743236 L 478.2811753896385 453.09489581663127 L 557.5609091725089 607.1079685368785 L 493.969474246922 678.0556365803736 L 400.2567945053393 577.4907262257427 L 409.14272762343643 372.68635189589156 L 532.9656607564068 224.16803530787308 L 647.758179554414 230.90705280384523 L 618.4109383985401 338.511494156922 L 438.38113616708364 401.9218502897601 L 242.16360902999278 337.96511334485365 L 176.9664537724037 212.54496922403482 L 262.12102900636523 173.79636769903775 L 377.06467867863415 298.83624835384035 L 388.8316281921676 509.64552772474144 L 289.22252960992887 644.1405475616282 L 202.4982418223915 611.8257607675712 L 255.913913003737 477.9535307712546 L 444.63493387901326 392.2706267730623 L 628.676490511586 435.259953784675 L 666.2466012997374 537.7461727450207 L 549.9736885919403 555.0057216547793 L 409.4118099332041 419.763474923917 L 378.0900425456968 218.27962436447154 L 459.8696481358245 111.27973103502819 L 529.5348251640913 178.37068858915993 L 466.2930052934543 342.15818974661784 L 284.06722994924047 448.0573806648767 L 125.5027640256447 418.8360075467442 L 124.44189740210544 327.8916132645894 L 274.85634277339784 317.9387933722712 L 438.09131034415395 448.48232062827844 L 480.90992343723616 627.6499125670509 L 405.0873073866377 698.6127145154567 L 338.3296200677284 594.2465234261588 L 396.8790809685489 404.2636078885993 L 560.0835265640414 287.04693375290555 L 685.049475229644 314.9339132763965 L 647.5675860496559 408.53033791424986 L 467.37345735398475 425.2748167336909 L 291.1260245953001 311.35246937150896 L 249.8425838194971 162.0782682433638 L 334.03502992341714 128.72176371171685 L 411.58656820224513 265.48024301972737 L 368.95190238919037 471.36216850636214 L 231.66011225671778 586.28791351156 L 141.34003254468166 545.1972871978264 L 212.04257629973424 435.57449926886966 L 411.2318878731605 401.55303063440084 L 586.39049690262 492.7775940204127 L 611.3510115802997 611.7360485064839 L 505.64932607514265 613.2218234976675 L 407.5307588445454 455.20464429527374 L 429.07740777637264 247.88563318702424 L 540.7832552173347 150.26934106063905 L 602.6403333801501 217.55209373803174 L 510.09740015245245 352.33719774576605 L 306.5788828614417 407.87535233466866 L 147.6782618004263 338.15792901679754 L 151.92610585916756 242.80323727754205" stroke-opacity="1" stroke-linecap="round" stroke-miterlimit="10"/></g></svg>