<svg version="1.1" xmlns="http://www.w3.org/2000/svg" xmlns:xlink="http://www.w3.org/1999/xlink" width="800" height="800" viewBox="0 0 800 800"><defs/><g/><g transform="scale(1,1) scale(1,1)"><g transform="scale(1,1)"><rect fill="rgb(0,0,0)" stroke="none" x="0" y="0" width="800" height="800" fill-opacity="1"/></g><path fill="none" stroke="rgb(255,255,255)" paint-order="fill stroke markers" d=" M 400 400 L 124.7873632224265 367.48055467861 L 606.421493115363 449.4727490365779 L 507.4833778855948 439.5816853552745 L 132.59269289484433 264.010346916186 L 495.88616329937776 463.9346906763509 L 561.1574974085662 537.3175307477595 L 211.411157014631 196.54052374072637 L 400.450699136091 400.61831463528256 L 535.6879868310474 641.2995071911746 L 318.18107247773804 203.55003227610433 L 368.86766280284536 290.507631342483 L 447.6193954679617 696.194321236519 L 395.15563779021466 284.14848691934645 L 415.9975934755497 189.4236902960087 L 346.61405036337015 672.5300338379463 L 400.46836438197306 398.5431573967718 L 514.9465992424796 148.48397613224157 L 289.1627390145619 582.2952600412829 L 330.2933919802516 489.0956711401666 L 611.3033946365132 187.05114125718598 L 308.681331451957 472.59478422618855 L 220.87192959343233 510.82378821287824 L 651.94056447163 282.48845206360295 L 397.8202632326095 400.71947239169214 L 129.33228849714988 455.2046281583948 L 613.1364489116288 382.1440626080379 L 512.3499188295135 403.82518898844074 L 103.45485666459592 354.68105841861893 L 513.1336182479495 431.2212126490878 L 594.5655113754701 479.2687093669974 L 156.38445810444267 265.48616189958744 L 402.48712778307043 401.7835285040928 L 603.8240009753254 586.0082070467533 L 259.67404607133324 237.87625807063324 L 337.3109117901745 307.5438312675184 L 538.0508306850845 666.3270797859695 L 358.3414826321547 289.5272074504197 L 349.58215084421056 196.60919823135723 L 434.83364981095724 676.3833760555201 L 399.9703251440437 396.1745032672452 L 430.2205685359471 126.02208336475081 L 351.52415775349533 609.4159713783274 L 362.4524906369221 504.45106152437774 L 533.8982462862273 131.57207462153656 L 334.8795411075935 499.32519439788194 L 265.6894805489861 560.1280791919309 L 603.0342670905422 208.8559688088804 L 396.3113399182538 402.7327869581926 L 161.05907650970258 536.8119721950897 L 598.2745741192396 315.6104653303442 L 505.84174349559964 369.01629186833725 L 104.22245291746452 449.90901622023426 L 519.3250103187694 394.0828542369631 L 607.96606371718 414.17771786651247 L 125.66404419098126 348.46665351482966 L 405.1112620176029 401.5995959816489 L 651.0258848889738 512.3769691012742 L 214.55648627698866 289.20961163779793 L 313.18104699450834 333.15380504728057 L 614.54661417291 609.611123607581 L 324.4904108094136 306.5127044504766 L 289.25031255578824 224.05679228437964 L 520.070534987393 652.299545764507 L 398.0364938119096 394.2027715083431 L 343.0116736633407 131.25028588953614 L 419.75177524647927 615.6456297951403 L 397.1398428452416 508.82142216100505 L 443.00891495439356 103.1701808548321 L 368.7495190870419 516.7641933099342 L 323.2599340118899 592.6217236621218 L 533.2903142452933 154.111981815921 L 396.0308691723698 405.62660055846675 L 216.59666747519702 604.1274184687404 L 563.0267018547661 256.66550018381145 L 489.0364882428062 338.61607078521075 L 134.81216814583854 540.0806476892112 L 513.418344334327 356.2228804224744 L 600.3250166279129 348.6895073614404 L 122.51021371558778 437.1619495892746 L 407.64968086463875 399.8813137984894 L 672.6795894326876 427.9382446990616 L 187.6268687632779 352.57219868447305 L 298.62317736440417 364.44314420731223 L 669.3883699260629 531.7777537350939 L 297.228020550481 333.7538588745036 L 240.9643753640157 268.6937928544287 L 593.6725718738294 602.5488211428881 L 394.9380515024569 393.2771424267593 L 262.11497312233206 163.459183361746 L 486.97933508135804 600.0388365788876 L 430.77520532495015 502.1830447474376 L 347.8134522285712 104.70495861497739 L 407.0429846542776 522.7692272514972 L 387.60273237423075 605.3065826121506 L 449.64788897337706 123.91522562068855 L 397.3261605270844 408.782265908853 L 290.19606141216576 650.4701350602509 L 510.6834786684108 211.42842492102469 L 464.01466630434356 315.5108131751115 L 192.12703395238788 616.0957781957786 L 495.6009257325479 321.5501240954957 L 572.7419408596465 289.38529806991585 L 147.40696662263474 522.6222816227653 L 409.3943934490517 396.7366961914571 L 666.776788933858 341.263996535521 L 181.89697872187938 421.6841157761265 L 294.73277152149376 398.05022639959776 L 697.0481807921987 440.69057977057935 L 279.61720154475654 368.77968535410884 L 209.38085243371822 325.76582727530405 L 648.1159434887892 532.0182240961357 L 391.2009781130882 393.89463565282387 L 195.63066894205852 219.2245625832457 L 546.3418777052117 563.8662927814187 L 460.0195172919903 485.6283938098599 L 257.9220147802032 136.00982475443527 L 445.936587112124 516.3190904424024 L 452.15005236337805 597.2252704849495 L 360.49689440512924 121.46845495809418 L 400.2669943752989 411.47124033947057 L 374.32630863758067 671.3180544399038 L 446.32932104878427 184.70811820026333 L 433.61057125902096 301.7383420278577 L 270.37066957240904 670.2881000624467 L 467.31151173227966 293.7747686217063 L 528.3058783262105 242.1197024962127 L 197.99638920113014 596.1732751104613 L 409.71987219453575 392.56262371397753 L 634.1002284740202 261.09359517874566 L 198.25771407323407 489.58712359179765 L 301.48242311529106 430.50673500226725 L 694.7470508392178 345.54926108245775 L 273.81700761950043 408.2213001874541 L 197.4012421951968 389.34281790145576 L 677.7758090762926 447.73066146871633 L 387.5314087332152 396.3092627030958 L 150.15121149382242 292.7712108871998 L 591.6781947870865 510.51686581731553 L 482.1070680048159 461.21312978217696 L 182.4045125205046 193.91013940611185 L 481.4144852129656 497.6589562088972 L 510.41860088730476 569.5255441923941 L 274.834488964341 147.17888052479046 L 404.6184071869047 412.9700015152574 L 460.44663428674784 664.7497048995535 L 376.34804875399504 179.49218690334243 L 401.09452083721914 298.3114465068801 L 361.6347965358422 697.2000868351072 L 431.1309126594605 276.0118575963186 L 471.75219397350594 211.44164975697348 L 269.3016032758221 650.2983425115725 L 408.1915075312112 387.99670477551683 L 578.1257480521224 195.4506336763221 L 235.35754316961373 549.3467959066311 L 317.7668486837908 458.59618179941003 L 662.7347451378796 255.9582625978928 L 280.82589314984443 448.135996431488 L 205.90729083906683 452.93592432284447 L 679.5083558000032 358.1441273521775 L 384.71113580967926 400.4745332936473 L 130.10626377153648 376.57188213359734 L 618.1711470616616 445.18111822802257 L 495.10658145821344 431.70948223412285 L 128.87340067274266 272.5458575770788 L 509.68365914809306 468.3163712473542 L 556.6622879034917 525.3108143345929 L 201.35503865123877 198.6008670555478 L 409.858242187386 412.67868552751617 L 539.8753815467902 631.62021639113 L 307.7883138925914 196.6155220162332 L 369.821770214266 305.1533536773484 L 456.70034385093663 694.1338482191695 L 390.54850978958103 270.4348535125997 L 408.95838251451573 200.1564999031963 L 354.21723802660284 679.4084022765405 L 404.6499574183698 383.8310318377829 L 504.6528018784439 150.83811404950205 L 289.7090908374869 594.762131099765 L 341.5573209418811 479.6733143917565 L 604.2627637293839 180.95510154034537 L 300.33919213940936 484.40224630004155 L 233.70470300407945 510.1611796030812 L 652.9839227129296 272.30105107280156 L 383.477167927492 406.02833358002135 L 137.33074773427774 462.11920943870524 L 622.8592161345451 374.3457421219791 L 498.0866227191808 400.29485679179663 L 102.7145776745441 363.9659438204131 L 527.5789385201666 430.9824998313418 L 586.4399227886124 469.29528269651314 L 147.56574236467927 270.6683189146124 L 415.23830974232493 410.22686110290795 L 604.6671772725167 575.4554985739499 L 247.65203770880663 234.6448373360337 L 342.88572228030506 321.1479799809853 L 545.97081183486 661.4221996802355 L 349.6255942837122 278.01751131114355 L 346.3324721159835 209.07150897145564 L 444.21899998001317 680.4199480462935 L 399.258789521544 380.89875691665566 L 421.2027248250213 131.59291550328004 L 356.0160686962902 621.0098663504999 L 370.1456053006194 491.91262377034485 L 525.253366345307 128.09662429402601 L 330.7394535391437 513.1459683015385 L 277.6777071802468 555.3818122156771 L 600.7359087533373 198.91353809339859 L 384.4017039265392 412.32369774129194 L 170.89814710772978 540.7912544658403 L 604.9649937478982 305.14819987972123 L 491.17156087660715 370.2103512727646 L 106.54426773805397 458.934122691673 L 532.9145431142947 389.2670706291488 L 597.0417392980621 407.3017715955948 L 119.01808051899934 356.1946983447521 L 419.8821202741675 405.5511934629721 L 648.4094947045176 502.0772573348435 L 202.17784963531747 289.99400666039014 L 322.81133402242614 344.2956066893351 L 620.4431876994964 602.3926493753066 L 312.58802282054506 298.39407442362955 L 290.1577404717328 236.94751705570948 L 530.2213240475862 653.0815881800411 L 392.50742423139246 379.94832548405475 L 336.24726412231655 139.46375770883213 L 427.6899962864145 625.1564627497221 L 400.4487853895953 494.4626709659791 L 433.6984102300291 102.69590114261365 L 369.22467299387296 531.1539053504719 L 333.13542006688033 584.2644799984452 L 527.9189456560447 145.47725067227847 L 387.7892516699825 418.50294078826425 L 227.23406958340735 604.722442489425 L 566.0044054917341 244.65591516610186 L 475.4862520250109 344.4258144827682 L 139.94678028689208 547.8641300563532 L 524.7433506180653 347.3491447353589 L 587.733786528678 345.65569396113546 L 118.73392260584467 446.59123176772925 L 422.90706986133563 398.9330929037677 L 666.8585738841978 418.9987036145033 L 176.19300522937166 357.2614799218925 L 311.31916808875013 371.9539061936596 L 672.6179618403348 523.0281888825384 L 283.38913849936904 329.8561095148036 L 245.96088699014157 280.6584127996362 L 603.4966194667985 600.0144834611232 L 385.16712548398965 381.5222803316848 L 258.3466568166281 173.45377486275353 L 497.5062352253266 606.4834395637594 L 429.34097732999453 487.49362921744836 L 338.84915798364534 107.28697245902833 L 412.0649693819998 536.2300490392498 L 394.3117668284589 594.1944238415066 L 441.7994043730636 117.50425041939587 L 393.6058351563297 423.60676541953535 L 300.4965653636667 647.5917086441981 L 509.66252809721465 199.1429724579182 L 452.9993367729063 325.3461154049658 L 199.51949152369372 621.789552241584 L 503.4937784780784 309.5575148100788 L 559.7983895656537 290.53831164029384 L 146.88571266564898 532.7313687359585 L 423.5553287558515 390.98939773150664 L 658.351506895986 334.65376269190597 L 172.60119290833683 429.75811191986276 L 309.18205817503434 401.13599752561197 L 697.2560546060993 431.3595395549081 L 265.2882328457671 369.4903291149571 L 217.96733988437623 335.5387856823697 L 656.5628965375026 526.4610780601316 L 378.2039496460408 385.8574846949741 L 195.28513372001092 229.94170821918803 L 558.3338721579659 566.5902070649537 L 453.9763109837756 472.1370917675266 L 250.2793719952546 141.37149152128137 L 454.96436789626057 527.4558271906924 L 454.96572564476065 584.5097776820501 L 351.028692333561 117.95347431780448 L 401.45147800823713 426.7050400860102 L 383.18276413417226 665.2487037758929 L 441.4456653792506 173.4384963616133 L 426.28534354627743 314.58773122335816 L 279.2201937196801 673.2699152284129 L 470.9662828105337 279.9229609316356 L 516.3699661285001 247.36554105040574 L 200.76457387078153 605.8742885670548 L 421.315989890628 382.61511553045017 L 623.9544344852486 257.53901020855415 L 192.060552718828 500.1737536407399 L 316.18583967240176 428.8322275592899 L 691.9060843285044 336.65072461573806 L 260.48945525385983 413.4469392980965 L 208.6974796102704 395.88136819647207 L 683.949305111964 439.76620619658627 L 372.6583839143535 392.8213831236536 L 153.29135182361867 303.0673889013508 L 603.8655467184456 509.2609481173189 L 472.0697536047975 450.32855828734614 L 176.91679004906635 201.4726514213999 L 493.49256749491553 505.32386013671373 L 509.01934011126707 556.534307702322 L 264.7721805412724 146.91778207549945 L 410.5818575519823 427.03260571509867 L 466.8987545992195 656.1158983129421 L 368.14246449002906 170.41447459060157 L 398.2336034260946 312.8463128457388 L 370.9812808231993 697.1412543552407 L 430.1858339049126 261.74874556381343 L 462.08630160182196 220.2548754307366 L 275.04101531137394 658.5537970828318 L 416.02153121546183 374.8835124526576 L 567.3338371055723 195.35582119871154 L 232.88738433971812 561.3160340789946 L 331.1942245121767 452.32108507416365 L 657.1487913221098 248.46074352767866 L 269.8809267907235 457.31394936381014 L 218.74234240386068 455.531277654952 L 682.7611010624853 348.64203665255167 L 369.5061474206172 401.8947518317414 L 136.42200190402463 385.34050703865523 L 629.2723809110116 440.106168726094 L 482.1080127157719 424.57288642883395 L 126.14118158568209 281.4905761673742 L 523.543199531485 471.7276293492147 L 551.1681446872362 513.4086929559375 L 191.78166391481528 201.60067060100786 L 419.9788203187307 424.112158461596 L 543.2135591531878 621.3275960307143 L 297.14688926824545 190.66732559647974 L 371.7365621583377 319.86553704413535 L 465.5282038605511 691.0352784474002 L 385.121854200706 257.245075111718 L 402.59381241585777 211.63298656574327 L 362.29314507863415 685.3420225032512 L 407.9043208844167 368.9146200352256 L 494.3660616567885 154.23953980631103 L 291.19828717481204 606.8465016163411 L 352.30690913329164 469.43707757263803 L 596.5341934010659 175.67660015065553 L 292.90431122170736 496.5610115868361 L 246.73846902984866 508.51511517423336 L 652.9856039014783 262.2905826537859 L 369.51767217780355 412.20576227944014 L 146.1697112690744 468.4093461959076 L 631.715916350725 366.01281647396365 L 483.4711665585675 397.66037520542136 L 103.04031048694105 373.32277534214495 L 541.7711044742425 429.80414410612633 L 577.4025577030535 459.7409441829667 L 139.50543196810423 276.58640968904933 L 428.4630890713173 417.8471886049927 L 604.5101361824244 564.5938265377117 L 235.71071785175633 232.4282939480894 L 349.39103626920325 334.5064692809522 L 553.3189815534729 655.6148153828141 L 340.3014112281785 267.267735925441 L 343.95952266116876 222.0213700326645 L 453.74993103628066 683.4096380778257 L 397.60346898766875 365.7277900366657" stroke-opacity="1" stroke-linecap="round" stroke-miterlimit="10"/></g></svg>