<svg version="1.1" xmlns="http://www.w3.org/2000/svg" xmlns:xlink="http://www.w3.org/1999/xlink" width="800" height="800" viewBox="0 0 800 800"><defs/><g/><g transform="scale(1,1) scale(1,1)"><g transform="scale(1,1)"><rect fill="rgb(0,0,0)" stroke="none" x="0" y="0" width="800" height="800" fill-opacity="1"/></g><path fill="none" stroke="rgb(255,255,255)" paint-order="fill stroke markers" d=" M 400 400 L 538.1475644372705 535.7406277159948 L 394.80113163241236 104.23013654078545 L 222.3384771609661 587.2849836266413 L 498.40936333453476 396.5393671889497 L 479.460096997082 472.7670789987907 L 386.1373207721144 137.32846269845896 L 205.27627511419024 620.2850763412293 L 585.5696600346292 386.9324714161132 L 407.51265040874966 406.4092619094126 L 382.34939516772926 199.66379770674945 L 211.04903858595856 629.5302586883805 L 651.5695354476811 373.372308319233 L 330.2343106150433 344.5963647584456 L 385.65380271160285 283.9808657230258 L 237.26396732010141 612.4850249321721 L 689.0085362343921 359.09408878248615 L 256.65781133894757 294.1627997852886 L 396.8905877849545 380.50684447281384 L 279.21880762429015 569.745835749291 L 693.86203847055 347.81352161123567 L 195.82446820103323 260.05977036481147 L 415.29559227418645 478.12766612716433 L 330.640179021505 505.1121859390937 L 665.9330647753934 343.06611048012445 L 155.6427468649232 244.8519599762536 L 438.53667928819846 565.7181083387226 L 384.5847795789515 425.24883830636804 L 608.8381262001019 347.55081787372114 L 141.84753739388077 248.55261471362877 L 463.015041774154 633.4612386955074 L 434.37696438038483 338.96924934614094 L 529.5326244589984 362.5826342903991 L 157.19825494988464 268.80316088807496 L 484.3921179875337 673.9952940559688 L 474.45608894352887 256.22064555802325 L 437.4386802332054 387.7442452991693 L 201.026498039557 301.3569736421465 L 498.26731907679294 683.2490146364837 L 501.0240038913521 186.89222695445926 L 343.28720274237753 420.7990173071593 L 269.20143608246394 340.78727433393885 L 500.9068813835203 660.8667461228657 L 512.414456337257 139.5939727069357 L 257.8203956727806 457.88979897426293 L 354.52870248175657 381.3116090288466 L 489.9134514619343 610.1769882279378 L 509.14727154002316 120.5608041366375 L 190.51643634951864 494.0058699316031 L 447.5430562910576 417.613421156396 L 464.73127876277164 537.7157031544042 L 493.6751858709949 132.82414494815782 L 148.4929637748615 523.6597731805189 L 537.6036724127541 445.54615236326566 L 426.90266144367484 452.3711764352088 L 469.8737864182538 175.7615502551327 L 135.72114305494688 541.6826141414284 L 614.1604111074691 462.6260196611777 L 380.0248870223251 364.2634667054523 L 442.35933695697497 245.08886910289718 L 152.64086116766103 544.0256025977191 L 668.0352410678281 468.25289561551426 L 329.3987942007039 283.5026774561874 L 415.7407319041315 333.3041687129562 L 196.21555274300542 528.4503910506 L 692.5585079416326 463.63964599192957 L 281.40447101009977 218.9826328307842 L 393.91767927994863 430.5354396439997 L 260.4090964605823 495.00221894739923 L 684.4157738331878 451.4729546621477 L 242.68025904106943 177.35873037646124 L 379.52694926761865 525.6923075331209 L 337.0144387710087 446.1867764236619 L 644.095655025781 435.36703184687207 L 219.21232537276308 162.33210012222244 L 373.6138803821895 607.7823503259037 L 416.72084540965074 386.81063609357136 L 575.8781583874301 419.20029061559114 L 215.45899145716717 174.32047701814508 L 375.5710519647391 667.2303844147133 L 490.2793049818626 323.4909047444412 L 487.3602622073839 406.4401497935432 L 233.63405440989484 210.5450587271822 L 383.3453069190138 697.0372422127522 L 549.6168786289749 263.8862001658817 L 388.5736013004064 399.56060849214896 L 273.25607331970275 265.5088818253104 L 393.8740549669372 693.6334940195188 L 588.7614821853997 215.74172992575484 L 290.80064039799123 399.64139580919505 L 331.03797840236825 331.79294702378843 L 403.6777971506742 657.3209562418496 L 604.4669206925821 185.87037613181562 L 205.23401253580704 406.20876273985806 L 401.14750498828374 401.05779877347715 L 409.51294602813726 592.2459653312545 L 596.4699003606163 179.20498197553962 L 141.6438046669062 417.3406075093224 L 475.81959296782503 465.1153293042015 L 408.9805182735133 505.9067791005635 L 567.3604342164169 198.05228378219078 L 107.21687149361122 430.01807949488773 L 546.253627717302 516.9309014484478 L 400.99332635314306 408.25564137691623 L 522.09782495762 241.6563457631513 L 105.71081208624707 440.6679972907336 L 603.6878138186987 551.4296725286115 L 386.02584456553404 310.5065774069164 L 467.24952426569735 306.1415709588639 L 137.0257898030385 445.8108514754651 L 640.5157370900325 566.0110018988316 L 366.1038450908505 223.79642612393368 L 410.0637836170016 384.8571266921948 L 197.24497218908718 442.71217239422964 L 651.3002563986435 560.7166697281776 L 344.5304285282432 157.86433384777627 L 357.50492639759443 469.09218123287707 L 279.1357330395541 429.9331650585397 L 633.5489881067422 538.046457857169 L 325.38548260665397 119.91172629127823 L 315.38026837831103 549.0816251649364 L 373.04639855652084 407.6901273168206 L 588.1429927432324 502.46189145774815 L 312.8710075897125 113.78113854551486 L 287.6705979391061 615.1816296332086 L 468.0845473327755 377.9594343106238 L 519.3525836840446 459.65926545946957 L 310.59993872254466 139.55134275901577 L 276.1444315489228 659.0690165599062 L 553.4288633484268 344.30198127312957 L 434.42613954936064 415.72119539893316 L 320.9372837301149 193.59331071515365 L 280.29463820763925 674.8116271926663 L 619.6115285499232 311.42267215673706 L 342.792735946177 376.26831202928656 L 344.4977497905102 269.07353285090767 L 297.5903929942056 659.6699093901027 L 659.6138854890592 284.52085395217546 L 254.97014218697186 345.72804868442427 L 379.88397140687727 356.83554620008795 L 323.99412375070773 614.5214307063898 L 669.64366833794 268.52067900737245 L 181.30953030680487 326.8167942404734 L 423.7165824491855 446.5442973136434 L 354.65806652487134 543.8461392119277 L 649.5040083340041 267.29133131220965 L 130.73174089289967 320.298227114985 L 470.966174469369 527.9469940199104 L 384.6929122435847 455.26513684137603 L 602.5171052332707 282.9726266398503 L 109.61384125774197 325.0393381883508 L 515.5533722722192 592.0921625053514 L 409.8946094997239 358.68247018248985 L 535.0220220184912 315.51056402257245 L 120.96822622299476 338.34242773051255 L 551.143023635468 632.3569984054301 L 427.3252579838669 265.13063467939594 L 455.5191847255975 362.481150501388 L 164.0215377841057 356.4923290435658 L 572.0276343880446 645.1604092753928 L 435.6684760790112 185.4594321830351 L 373.57706875401914 419.24260162013013 L 234.25153723094684 375.4286974609894 L 573.9782645621132 630.2815768192943 L 435.3149309202816 129.029354432072 L 298.64386175788127 479.4109349370695 L 323.88295716211337 391.4374108222865 L 554.9408527357039 590.7556917915252 L 428.17468100658255 102.57184490401329 L 238.91535059176553 535.6081772074193 L 422.785581933543 401.754991748461 L 515.4728003459659 532.3728626932387 L 417.2536665852382 109.35929989324154 L 200.39913269286444 580.3922712456522 L 519.6667823677441 404.995283929188 L 458.8467046156059 462.85597646811215 L 406.0662599993693 148.78986833097883 L 186.2863220057202 607.2490109491847 L 603.4130614244028 401.33600715647736 L 390.79131715747087 390.8321121668822 L 397.9793451847854 216.44074550867572 L 196.69932795720345 611.513211257376 L 664.4157526421108 392.44005453862644 L 318.88844952194245 324.7351371809869 L 395.59262522571026 304.5852514569942 L 228.8338796221346 591.0910278044355 L 695.7174114631113 381.12702355256397 L 251.6921085945509 271.78167151639184 L 400.25351440470905 403.110995105412 L 277.46201937472085 546.8776739724166 L 693.8375281844874 370.84857638776725 L 197.67610315824174 237.14849461436154 L 411.7840419465889 500.72626900937155 L 335.7170893858859 482.8021269061156 L 659.1761762095987 365.0512697993847 L 164.14310441210196 223.44897073020144 L 428.46474991134187 586.3059134121422 L 396.0476811493834 405.47806278447615 L 595.9469860747267 366.5281071641923 L 156.23773839800148 230.56359438711587 L 447.2813279811825 650.2108132880653 L 451.2093533922285 323.49202271422354 L 511.64965233764985 376.86265237208966 L 176.19705113656198 255.8312290645631 L 464.39939542019295 685.4190973028706 L 495.162686617602 246.4088198694137 L 416.1495159033809 396.0566626452845 L 222.94443742876035 294.5596463276985 L 475.79729324157177 688.3314352824239 L 523.7635328654907 183.61383570807152 L 320.4803068274507 422.4056190946124 L 292.0911144153472 340.77298049351043 L 477.9612092273645 659.154393402736 L 535.1633893630295 143.1366364435844 L 235.51972859026594 452.65000862567035 L 376.35773555628504 388.08504228146154 L 468.5352475589342 601.8192087022524 L 529.8799874735653 130.6066784866926 L 170.7020141136967 482.38894223165977 L 466.3744167662823 430.57466025752575 L 446.8230477190983 523.4516932115584 L 510.5444816828234 148.47856831827244 L 132.9251773232101 506.70261409054956 L 551.7674056574966 463.5436910933091 L 414.056900730671 433.46478354498254 L 481.37563935862227 195.63279157199207 L 125.78441252079642 520.8970396483351 L 622.4015304503387 484.0590327816893 L 373.38245508117205 342.391405818549 L 447.46719608312327 267.4118575025099 L 149.220503307353 521.2633567853114 L 669.6247309531138 491.21366353075143 L 329.54764261139235 260.60602262810505 L 413.99732182463896 356.09720516021537 L 199.61881557692513 505.73800159024927 L 687.3576433105666 486.0834617672053 L 288.3277223943803 197.09471170667575 L 385.4760815330931 451.7759865307679 L 270.3374162246373 474.3604419047951 L 672.888104039836 471.4003669868498 L 255.75819965713245 158.4246598634295 L 365.13725125376163 543.4962806329822 L 352.58944338295623 429.45073503479097 L 627.2656340332287 451.0021595754615 L 237.27806879073935 148.03596590667513 L 354.55654391074364 620.5710434478301 L 436.56186556080274 375.4666720404908 L 555.2401205945209 429.1492809473282 L 236.90278777642808 165.93550681634312 L 353.542917906651 673.8702644842501 L 512.6255800556105 318.54464642921016 L 464.7458290818583 409.81561478022695 L 256.54689472119566 208.82012368127872 L 360.3083918814767 696.9402617479739 L 572.4836658858599 265.77354892793284 L 365.9892719708465 396.0609070450538 L 295.59975599979344 270.60145755983217 L 371.8806295392712 686.8090653417817 L 610.1162484147163 224.29062517340105 L 270.2499471959115 389.57766006771476 L 350.8264706408474 343.254556721322 L 384.6873632917028 644.3750079453263 L 622.4099872137767 200.31666861937623 L 188.53997950960638 390.47723777448056 L 416.6234544716111 417.87330762075266 L 395.2174617536618 574.3271793083524 L 609.4034887227884 198.26092617397435 L 130.2874149020838 397.3427634030778 L 485.6103044216197 485.79267476701455 L 400.6534846084408 484.60477350435076 L 574.1310625248757 220.02148493262675 L 102.20583108784956 407.53562629861915 L 549.492672312785 539.6333520993184 L 399.37621971621616 385.46011027154026 L 522.0993482549682 264.584880011516 L 107.49022025084719 417.70396706966176 L 600.0915177054577 574.1389098855502 L 391.26203828061983 288.23984766535244 L 460.4775918834513 327.9918022979124 L 145.4386219186401 424.4109457430655 L 630.4078218860961 586.7065550813167 L 377.7259160650215 204.03424261372814 L 397.11679521137876 403.68875339842003 L 211.54588172963696 424.78233558209405 L 635.5825192150571 577.555750661274 L 361.50197041415913 142.36072782894456 L 339.5313248021341 483.23443049689484 L 298.05696667467777 417.0696775569177 L 613.6207006723998 549.5281808867517 L 346.1936733158198 110.0434667482591 L 293.9767885910164 557.2813283808813 L 394.9100114410519 401.0373858007638 L 565.7762431450558 507.5612250911962 L 335.66164385708936 110.42554253155174 L 264.7404710758853 616.7140763355234 L 490.9510087486337 378.1081043515561 L 496.53467813821425 457.9187375066845 L 333.34285981628193 143.00827949729518 L 253.72812843908173 653.8018069242003 L 575.2689180127087 351.2365912259321 L 413.1830824859122 407.2921207836905 L 341.6073994079548 203.55833349174551 L 260.38820722257026 663.2159242865417 L 638.4861114422474 324.5232930851948 L 325.0094602395307 361.8978027473088 L 361.25550559478 284.6645555533001 L 281.9675772743776 642.7781608238981 L 673.8461617117873 302.6186751248795 L 242.22342458372384 326.692898334864 L 391.239149519801 376.6707455030186 L 314.0481299271315 593.8353710993163 L 677.9679502655019 290.0024757616646 L 174.72837995212598 304.81007378936687 L 428.6608407727623 468.8643847282871 L 351.277125102997 521.2032806542753 L 651.1783323034525 290.24346255889293 L 130.89759602564607 297.27865946930916 L 469.0625334996131 550.7710652825909 L 388.18077093191374 432.6756168408802 L 597.3894521894964 305.3516822960376 L 116.5093700186003 303.05685696799026 L 506.9747154305345 613.3933440138505 L 419.9431008158006 338.15073366985246 L 523.5442600804381 335.3254212401296 L 133.97921685026523 319.35546974541853 L 536.6562353256508 650.2423376093527 L 443.04143780601055 248.47775046665902 L 438.70743640496266 377.9702005674857 L 181.99166296412753 342.1931661233964 L 552.9248524070823 658.0390574050859 L 455.65395534609604 174.16177056600625 L 352.9219534054428 429.0303631801126 L 255.58510241942204 367.09241139838804 L 551.9614355963784 637.0063263926562 L 457.790354920337 124.0878901565103 L 275.9785148014445 482.63013005109644 L 346.68650536105963 389.80801591325564 L 531.9699312127037 590.7252714601439 L 451.1382683076581 104.42362965744348 L 216.2528801021909 531.9764454567028 L 445.0358005860784 406.9788990329634 L 493.59115277302317 525.5858539750392 L 438.6596659164662 117.83891226271805 L 179.75390613758677 570.2367543955058 L 539.3898426659234 416.60807511214136 L 439.9992887089058 449.91149664147997 L 424.00739324174157 163.1442272245853 L 169.4949364110875 591.4766924733866 L 618.8595190449657 418.30372235940416 L 376.65182168606 372.8771274124504 L 410.85693984806824 235.39595564059715 L 185.2571725490016 591.5297254899469 L 674.2155388868707 413.2513233440841 L 310.7107555625333 303.3630121490968 L 402.25923420537094 326.4595524115249 L 223.7618423735459 568.6752320835149 L 699.0012085185033 403.9278204119022 L 250.19924297833293 248.89090455298168 L 400.11527713809505 425.96381354291736 L 279.2152347508581 524.0231971609418 L 690.3137956907303 393.6075675765743" stroke-opacity="1" stroke-linecap="round" stroke-miterlimit="10"/></g></svg>