<svg version="1.1" xmlns="http://www.w3.org/2000/svg" xmlns:xlink="http://www.w3.org/1999/xlink" width="800" height="800" viewBox="0 0 800 800"><defs/><g/><g transform="scale(1,1) scale(1,1)"><g transform="scale(1,1)"><rect fill="rgb(0,0,0)" stroke="none" x="0" y="0" width="800" height="800" fill-opacity="1"/></g><path fill="none" stroke="rgb(255,255,255)" paint-order="fill stroke markers" d=" M 400 400 L 364.5896190003731 692.1008545442887 L 288.5552066215009 372.5768555338353 L 311.6703742145413 633.3125591552994 L 212.13910205554023 301.58750603838115 L 305.40645532610426 537.3250775563359 L 192.3609973163995 216.47571034189727 L 356.1446981989187 438.9580594904379 L 229.20040294667194 153.36773610826296 L 451.62455131508943 372.7911110370946 L 301.19099764133193 140.96779148263647 L 561.5709355592486 359.8130681924471 L 373.92349739165235 189.31111051098873 L 649.2999954680903 399.3758305389375 L 413.5604265644037 285.74617144667917 L 685.8326032164755 469.57613391377055 L 400.10909972062996 399.7096322080327 L 661.0358326414922 535.9139780430793 L 335.29350414353934 494.44217616569335 L 587.4667355731654 564.860602079488 L 241.9645517625295 541.0974023360408 L 495.42727767426027 537.0612371735533 L 155.2759829178365 529.7665448483264 L 421.1530588729091 455.03947375775317 L 109.05276338214111 473.14020110766626 L 392.72525936102 342.40595519180357 L 122.64711539484176 401.38881900382444 L 419.17910389423855 234.874491193685 L 193.38853634057872 350.25513969635455 L 487.03967362042414 166.57141674817467 L 297.5616117645382 346.9888065470105 L 565.6298131987189 156.95265075662726 L 399.5331165986175 399.591485260143 L 619.0864048492972 203.40703049941908 L 465.4845996923299 493.5544935093005 L 620.4145770672197 282.4157441781345 L 476.41802936293846 597.359846556162 L 562.1171710282125 358.81412237722043 L 435.38498570138916 674.6107211518712 L 459.26679205684394 399.5548358519414 L 366.13440089616006 698.0813980227388 L 343.8233466160817 386.6233264107258 L 303.7079942500001 660.2304977121353 L 252.40068065247357 324.0862209299788 L 280.64103971789774 576.0946956775534 L 212.23066211331673 236.5333612819768 L 314.13355274459053 477.4395654742817 L 230.7731976998384 159.51820357375755 L 399.1800622571179 400.4400516583296 L 293.0042453594117 125.71053258375633 L 510.3312704718586 371.6760828376321 L 367.4311459737996 152.1418021517164 L 611.4073952161094 397.88274082269663 L 418.49430703509375 233.4995716144627 L 669.3936377917084 463.4351841455742 L 420.5335117954566 344.078104854687 L 667.1232055386241 536.5430863097804 L 367.8896390972934 447.62993396570914 L 609.8239479605116 581.7452812593938 L 277.21435586671174 511.2942513640676 L 522.9881133776106 573.8472931113222 L 181.08795373212317 518.1946173843854 L 442.3950687829224 507.88349974175196 L 115.42274149644697 473.8157684554459 L 400.1647253919312 401.2297628124085 L 105.54424559216761 403.68631187462 L 412.26081651071485 287.0415991292134 L 156.35676043778406 343.2718148537792 L 472.299279648882 201.56277998332394 L 250.4137198230988 324.0090292401431 L 554.0668824413908 170.23049685972572 L 354.6430839696761 360.9110816281112 L 621.7707565397792 197.97083582062538 L 433.11620593478426 446.56302415569235 L 644.0355087352684 267.45059836217956 L 460.9014337427578 553.844333732217 L 606.2080950464838 345.960833569832 L 433.62286927321395 646.3243133770924 L 516.1875115810535 398.2544885235979 L 369.01371804335855 692.2951172747753 L 401.51140263577355 400.3479175057091 L 299.86412191173247 676.9934737036439 L 298.8278569235469 348.92204916680106 L 261.1068829211738 608.2653132580306 L 239.8385943584755 262.66905466254724 L 276.06213593157935 513.4742771094295 L 239.17032469846487 175.06004419925432 L 347.18896384176816 428.85610576922187 L 288.8818373110369 121.34278510900396 L 454.9411567129996 385.4549489002274 L 361.7364258692972 124.82065497571301 L 565.1759548925302 397.1048659827145 L 421.9640692063634 187.74392738621015 L 642.2417873165078 455.1246081858813 L 439.32825207917125 290.35328905153665 L 662.6646015463139 531.7851161759779 L 401.02873481900986 398.4490503548009 L 624.1195521600283 591.2004830141079 L 316.8126169739732 476.5479461082489 L 546.2060270286812 603.4086632846303 L 215.30494696100945 501.5192206187487 L 462.7278506438956 556.1685532141174 L 132.98171397747217 471.4059373438625 L 408.4801283733257 459.8868245700633 L 100.066948743985 406.0083017076292 L 405.677731818585 343.75658179069575 L 128.83119861452673 339.00642509533526 L 455.29903269664374 244.60378123316735 L 208.83636385009063 304.6869717705565 L 536.7083375290354 192.77016104678918 L 310.9739504301948 324.4345481451597 L 615.7036452152136 200.51267001647224 L 398.72831028624654 398.2400799424285 L 657.8625597324392 257.4218117305029 L 442.29026279505734 504.52927511328045 L 642.0002842956176 334.6347103543568 L 430.03977355531003 608.381812141753 L 568.5094764581294 396.20230844663183 L 372.93904060096554 674.951901166971 L 459.3395201902764 413.1911493203469 L 300.1320939974911 682.8798142246619 L 349.62025600781334 375.0382610565147 L 247.46365007551046 632.4870341461501 L 274.1808056720755 293.7452862043268 L 243.3811431275561 545.5736533881891 L 254.19696826018506 199.28041883764368 L 297.7007746863562 456.8985063186965 L 289.15044758381487 127.97297002944748 L 397.6060060183549 400.65306324705676 L 357.2194118498975 108.40829395312767 L 512.4373279753729 397.184337399843 L 423.9443350570534 150.3025364881271 L 605.4168641077533 445.124664062293 L 455.7982407742897 240.6796960646672 L 647.7571924470863 521.9850548674798 L 433.3852851990208 348.83726764282767 L 629.6773636966213 592.980198883603 L 359.13621640213796 438.17309792790473 L 564.0503509192708 624.6546846353093 L 256.50745014466617 480.28115905637077 L 481.2684198611749 598.0142456766282 L 160.99163587281018 465.84302596663935 L 417.3242158685434 516.0576296801102 L 106.42918926293072 408.0871354283498 L 399.74048027580574 402.7795574872933 L 111.93631441138541 337.47562002387997 L 436.81653577948805 294.028274037296 L 174.52611973102583 289.68679626724173 L 514.3705536217404 223.765330161211 L 270.288350842129 291.5661567221866 L 601.2439596496396 211.06124915119798 L 363.668985855249 350.5080440168899 L 661.4296982903275 252.87478252990292 L 421.2448913668571 451.39742275803815 L 668.1121296880985 325.41663540191945 L 424.6431084837966 562.3040753909345 L 614.1630474057404 393.56370676785224 L 377.5872686174776 646.7211566513373 L 515.0144453267299 424.66258542712217 L 304.3357747407016 677.5973642875651 L 402.789632200142 401.3561832880378 L 240.12112886245922 647.714827503997 L 313.96980186764654 328.4472854075957 L 217.30773414222134 572.3840239944134 L 275.3841131835117 231.12985508225123 L 252.6492382919254 483.41127561179064 L 293.962253414505 145.2729919935854 L 340.59966152392195 416.684311311107 L 354.2264865327939 103.5304770446192 L 455.2809754808237 398.2000858764366 L 424.493288847489 122.67117025731653 L 560.347023522784 433.9635722500916 L 469.3709983231757 197.05188681962304 L 622.9160926777856 507.6817660979534 L 463.6939711018332 300.7687501133976 L 626.1637808929827 587.1481408141017 L 402.4757654529238 397.6521822430743 L 575.6881212203522 636.8360152951342 L 303.01062348166914 455.2241580626544 L 497.1780931412628 631.8065976359737 L 198.30309594893606 457.1976465423977 L 426.29485726118037 567.5261644300247 L 124.37493675745975 409.6650474580228 L 394.69990750909835 461.7755759767326 L 106.37744665882735 338.57466181102075 L 417.6607323995523 347.9069170811073 L 148.90202643738445 279.47913751219915 L 488.0511921560155 262.0632253101507 L 234.25131237164626 263.54240353989576 L 579.0789566170018 229.32225618988323 L 329.3412845316723 305.2453749506584 L 654.6813628303106 254.1430444055041 L 398.55234600337354 396.5709002342937 L 683.5513134125025 318.8223417694423 L 417.53691878979384 509.9313570814289 L 651.3439547716323 390.55627603928775 L 382.62015838627417 608.7058318226865 L 566.3209741955053 434.3596522703144 L 312.14304629408673 661.2974316830037 L 456.23813977396225 426.81989389058333 L 239.22801634813106 653.2535020933396 L 357.68301855255544 365.33866494021345 L 198.7800765222295 592.7437244970761 L 302.00229035671003 269.2675742884344 L 213.77633433386066 507.27103888047895 L 303.28250481068415 172.4938691085146 L 286.17371684720365 432.89579186276194 L 353.04999266561083 110.35412200779427 L 395.9709198453843 400.1614870204709 L 423.7450152953556 105.95799675655053 L 508.7930701044074 422.1913074380737 L 479.6163230512432 161.2339690067686 L 589.0567895065855 489.5806318658112 L 490.79942188597715 256.1750956481559 L 613.6055109177189 574.0699536652041 L 445.10498253797533 356.5779576534632 L 580.522191095965 639.5708752151913 L 352.933475896896 427.26905431434824 L 509.6999743780189 656.2606237773049 L 243.40266217427674 445.6817498337512 L 434.9530882683325 612.2678316149359 L 153.188521536037 410.51128898535615 L 390.7364696557515 518.4075085600047 L 112.411301109394 342.088065961543 L 398.6366785999468 404.12291404932273 L 133.0467156177245 274.32718845741465 L 458.8850473153651 306.20758782183475 L 204.36184171027472 241.38531611693048 L 550.1924069427848 254.6852328067415 L 297.1467893702063 264.21226169453223 L 637.971321496622 261.32897960132414 L 375.096778274848 342.2259871044786 L 687.7526930063418 315.2759790897799 L 408.9220314819154 453.34941513618224 L 678.5850068769632 387.43669986623036 L 387.7038242986858 562.3990807925235 L 611.210576859763 441.9816477928975 L 323.08551574279437 634.571026141929 L 507.8415736500227 450.43880846947957 L 244.67155616471103 648.7889965178399 L 403.6213758657183 402.92105368411995 L 188.4236770111387 605.7332678113796 L 333.08633969087214 312.117996263647 L 182.56455522979383 527.4346339327436 L 316.88481252971155 208.4980591397914 L 236.4680822732649 448.59452363101366 L 353.90979034114696 128.58168622847143 L 336.8555622981915 403.00604723771113 L 421.8980632090606 100.83890484301071 L 452.7792763120275 410.353471927096 L 486.2592251761638 134.68792073042613 L 547.4613557056055 468.52002521681953 L 513.7004696347798 216.86731674487748 L 592.3929052915757 554.3933843181734 L 485.34982983594335 316.59050350895336 L 578.2203429084724 632.8563132492317 L 404.275314041375 397.4799206775274 L 518.194059896114 670.469422445575 L 294.474554202339 431.6452872032627 L 442.84386733316416 648.5295436308559 L 191.72333035720646 410.4379004364354 L 387.95379653280315 570.4291519414145 L 129.83429685590386 347.7049106548518 L 380.51166515994436 460.4556514745122 L 127.66064162995434 274.28173739227776 L 428.09523516059545 354.4943095868156 L 181.89041683082618 225.86518602900404 L 515.8212709074094 286.24348036926335 L 268.4281493430906 228.98178968018223 L 612.0451986073421 274.29377095444363 L 351.8248223656209 290.50625360814547 L 680.5989968918163 315.0868448235781 L 399.09121126203047 394.8059907374533 L 694.8143141741677 384.48514783836595 L 392.52730063129405 509.6252826861642 L 647.8836308724219 447.3384566774053 L 336.583397395758 598.4274552658319 L 555.5342586221077 471.32643166171636 L 256.0878242766397 634.4045922449628 L 449.97568865065523 439.69523107766867 L 186.5307056665729 610.7163908421741 L 367.47036559877074 357.9360380404571 L 160.1800956225942 542.9844987283868 L 334.3545802670732 251.80709050927518 L 193.42637009741597 463.07703693052554 L 356.9377222136364 157.46408465217155 L 280.2741756410777 406.60129849202144 L 419.20092970995336 107.5300392981124 L 394.51344740142855 398.9664611846601 L 489.18576262039596 118.51366612085565 L 499.7296937529749 445.43316799179064 L 531.5871924203474 184.46195759869798 L 563.2686001284716 529.0174064648363 L 521.6546259921905 279.3113788571619 L 568.7340263766598 617.0642027100655 L 454.9963431302968 367.0233731407104 L 522.1683642945371 673.9378848830867 L 349.4741188559987 415.5664253249823 L 449.5185853543257 674.8988029872158 L 238.44768580750858 409.3132394525221 L 386.37665121277047 615.7748165950335 L 157.9892898299901 355.03793988633555 L 363.98411717149844 514.6689112824411 L 133.03134807119653 279.1851407872652 L 396.9418207241506 405.03757216206736 L 167.8249956576445 217.4740859534617 L 477.4027991485048 322.82634479752477 L 244.41296163926415 200.879325158859 L 578.0074994035161 292.65722732671077 L 329.70720198770437 243.43753150059453 L 662.4235731280542 318.43046042618005 L 388.41939518189946 336.62102109159684 L 699.3977057858344 381.98799003365843 L 396.8192151645815 452.4677577410193 L 674.8619464250885 450.35375005916114 L 351.9743316580537 554.2560513545764 L 597.3921764993848 488.7337492500691 L 272.8820259933831 610.5812560196266 L 494.8983215999134 474.2212578373316 L 193.0529757869476 607.370160410219 L 403.83162079897454 404.87849275538116 L 147.4291428694661 553.169869899652 L 355.10066085606144 300.6625002068296 L 158.7194637012241 475.6605877984613 L 362.16587251319817 195.83158698059705 L 228.46381600578414 410.7508490756313 L 415.9353034123964 125.77866808160837 L 336.2994067690893 388.4950368341761 L 488.4417439722432 113.40336864462938 L 447.71767426084295 421.3070858300926 L 543.8693733319785 160.31437415847756 L 527.3017531438433 499.05173501412474 L 552.6425090924915 246.27755970446873 L 552.3057580722776 592.9222861098199 L 503.09915619575463 337.1226237751447 L 521.3046011701497 666.5997680720443 L 406.21012119520714 398.03554387380024 L 454.5582566810569 690.3590326402891 L 291.50606376117094 407.07248758837125 L 385.9532865288962 652.6418070614804 L 195.79045798394608 363.64543398538 L 349.65653748672554 564.6001344094868 L 149.01911185663428 288.68383946149964 L 366.67004376545844 455.8439134315098 L 162.82783567268098 216.4110683124484 L 436.51431879608185 363.04274131887536 L 226.16135161255704 180.93246594707574 L 537.274581166864 315.80771134076963 L 309.6981509629184 202.84811268382347 L 633.9951560743459 325.33500720995687 L 377.3493238848743 281.09419155062534 L 692.1636505175729 380.2197616626909 L 400.361740089885 393.1860604774249 L 691.0486456825012 451.06271166902644 L 368.5447636181424 503.7724868604228 L 631.7109690009779 502.0759982340094 L 294.2577656779036 578.1819555942693 L 536.5772355223971 505.17517877506975 L 207.60868118590946 595.7027474686794 L 440.74166031335074 451.0785571968011 L 144.7289124594198 557.4419613134952" stroke-opacity="1" stroke-linecap="round" stroke-miterlimit="10"/></g></svg>