<svg version="1.1" xmlns="http://www.w3.org/2000/svg" xmlns:xlink="http://www.w3.org/1999/xlink" width="800" height="800" viewBox="0 0 800 800"><defs/><g/><g transform="scale(1,1) scale(1,1)"><g transform="scale(1,1)"><rect fill="rgb(0,0,0)" stroke="none" x="0" y="0" width="800" height="800" fill-opacity="1"/></g><path fill="none" stroke="rgb(255,255,255)" paint-order="fill stroke markers" d=" M 400 400 L 285.2974793115193 306.246374349225 L 348.73412963476665 147.51037410312964 L 539.809434027522 134.64716783447403 L 643.076750617313 297.0463148285711 L 552.7648516940906 444.6904093868525 L 407.25672328734856 410.58541507399053 L 411.52039779505816 263.63822906775033 L 574.5262789645121 219.84255489787208 L 697.3689898782541 365.3392624241115 L 627.2911897495643 545.4315592803575 L 452.8564883943476 561.4695284174613 L 390.75320240679247 423.91934675518905 L 508.94554818759997 338.10257969059825 L 640.1086530173632 440.8623714564869 L 596.0084529984788 624.8433622006128 L 408.73620335367093 675.0591986812872 L 290.3711533420134 543.1702641382003 L 362.62162679952127 408.83350756291424 L 502.0668212220947 449.7035750833162 L 498.82833871439107 614.1396422268322 L 325.790390589125 687.2090582980759 L 174.15457204207775 565.6049523300808 L 209.84843580573593 390.00148764573555 L 362.18671326744146 365.62723018675666 L 414.9518394507082 500.4353380790559 L 283.43029730545186 595.5952332326985 L 123.20620885641318 500.4430783076732 L 131.60945102164493 305.9244354906135 L 295.64976921001727 229.19603411796157 L 408.6882141278106 336.8944450060972 L 334.53024039241234 460.8374913037576 L 181.3091953984438 413.90578161244326 L 162.8629789639509 230.08277716649786 L 324.8397099329293 121.74744533147339 L 485.71118859578945 208.7983344601021 L 468.1241910787833 365.89615954190947 L 324.8357185057288 383.1048694583118 L 270.4047777833812 234.54588478332835 L 405.9948004833342 111.59314859820842 L 589.1424814665972 178.16715132752947 L 615.0145043162103 360.977099959907 L 477.44672924977806 442.884692000282 L 376.0600733919506 340.03673143082057 L 460.3774119244765 208.47564857774424 L 638.0982372453125 243.94696201010282 L 692.6612687824653 430.8626456465579 L 559.8078554249141 561.384173233979 L 409.57816411996134 500.25226935866226 L 428.91534468781094 356.81295819458063 L 582.8107723729975 344.33616663078277 L 659.3536593253275 506.5082978532784 L 541.0823810210138 660.7925568986418 L 355.712126298116 631.0912606879137 L 313.5230291500733 472.2795551291241 L 439.2833809965603 399.5691391516683 L 541.4131217736991 513.0216450704863 L 457.7874504105056 669.4214839813658 L 263.90439321516243 665.3199636863272 L 177.25591764079553 497.2366748376522 L 280.1353995695036 366.35697997061266 L 415.2378378140038 421.71298584640004 L 387.5012775317504 570.171048606801 L 214.12145037814875 596.1353470956714 L 103.08664902944747 437.91264825302375 L 187.66049717249243 267.3947784565197 L 356.2560363742143 271.16454451354696 L 395.19412234411413 412.84896290562864 L 261.8317346949698 480.51748415683653 L 138.87674591932085 358.50276624504494 L 200.4553873029253 176.10581208675026 L 389.0168062970457 143.047627890022 L 488.3080832403167 282.0151303984818 L 399.14080836924006 400.21302572207753 L 265.41136642492233 336.2757761013076 L 289.28482691817635 166.85915176593957 L 471.8474946076276 108.78303844408174 L 610.8199250449042 241.82838047587757 L 558.2797578080254 406.58282352387994 L 408.9298986958895 407.94028563536335 L 378.24180879873177 264.0960212994818 L 526.2856615609084 182.7182643636384 L 680.3406313629138 294.77626226808536 L 655.2421695258952 486.33541264618 L 489.7733700982963 543.3852642298434 L 396.8918793245022 424.5665471214488 L 491.430905160644 313.15023912513385 L 643.4001708433071 381.84075425907537 L 644.433236222016 571.1194513049712 L 474.5767584899406 664.5329456770082 L 328.3296154545601 564.6956119155252 L 366.6267401278308 417.1673802766706 L 511.82933573613184 423.85120897946433 L 547.7982624647949 584.4894873648853 L 397.0871257101699 696.7578817780138 L 220.84879845504585 614.8433376165093 L 213.70298960239026 435.9257953407868 L 355.7940165832895 376.151447722476 L 438.99943337005067 494.65528420000874 L 333.7592921099164 618.45024575755 L 155.37282087737273 564.1956129261762 L 117.1393288132661 373.30417647077945 L 258.08199637278847 259.79167649431713 L 393.33821050019344 337.5186025165613 L 350.6327008280653 475.5118907305596 L 190.50709736792516 466.3074081096091 L 128.75066909867667 292.0677461191792 L 260.2066220959523 148.22799454167287 L 437.06685569892454 194.41529723927223 L 457.2638912379336 351.0607330484926 L 322.1238581760156 401.70849945187683 L 233.89965017955353 270.2071278263935 L 336.35994602270887 118.39041490280329 L 530.1057351879127 139.35722169076223 L 598.750703558781 310.62958693810504 L 484.6737951613885 422.76704294990725 L 361.82925972228753 346.8582294454392 L 412.5534325881764 198.91885527776384 L 593.7356464577542 191.03065318024 L 691.3159758140387 359.55026769749026 L 593.4539139620606 517.882004987533 L 433.14560676659653 494.214041186989 L 417.96894118690943 350.30398629362503 L 564.6277840135401 301.6288549135894 L 677.6733697227792 441.01033971275774 L 599.6046169729029 619.0762079392629 L 412.5964752191063 634.4084341341133 L 333.9432107577977 490.30362769774575 L 438.87448317228683 389.9077417304883 L 565.096537126022 475.9636575926239 L 521.0787954700298 647.9104981408007 L 331.77602796893575 690.1783996922932 L 207.61457119068425 547.6660165527161 L 276.3673378942107 396.21587374825396 L 420.680498233548 417.9864439014905 L 428.94326675349475 568.8947342781848 L 266.59528102402805 635.4366176581589 L 120.99271617425188 508.228985920293 L 162.4540049133222 322.5430689340766 L 326.9635133452217 286.14237029680925 L 398.3261157347401 414.5062851309596 L 284.7320376110751 511.9227875711531 L 136.14877571746666 422.5974444475466 L 152.4581800598476 230.71917311143181 L 327.6325347617398 153.6804573873653 L 457.0195544132308 264.94199513243905 L 398.4346535405135 400.82705745799007 L 253.27877099124825 370.3854884485015 L 236.1477263436261 200.0062790551791 L 399.6543712174372 100.0362131793305 L 566.2921917980813 196.07135797304846 L 554.4751552902682 368.4497610763145 L 409.7952498494123 405.14652272533255 L 345.8684678103471 272.6027741120723 L 470.4201830224016 158.24996331330445 L 646.8232886268531 230.37442695542072 L 668.1287201834259 422.3414841935161 L 521.1147031008958 517.0588150328523 L 402.7920274701347 423.71630866566653 L 468.2752539282797 293.02307392817215 L 632.3649812271567 323.6395910654874 L 678.514387147826 507.3000408585612 L 535.8689476981012 638.5024653180074 L 370.1883133173019 576.4031622044138 L 372.40034165868127 424.1161810512624 L 515.1001256192742 396.2115237229937 L 588.2845967250769 543.8301062637356 L 468.61742151641243 688.8624076260528 L 277.95620972125243 651.353581802399 L 228.44652003797705 479.4141494839615 L 352.1994016831149 387.7079297884103 L 461.12472541257324 483.1583594531005 L 388.246798613215 628.543882782725 L 201.96459328786125 618.3625865463152 L 119.31002130377016 442.11704815921144 L 229.08050401363636 298.40310506522854 L 378.7940733541408 341.77156058431535 L 369.9773154190395 485.96966965985393 L 212.10756695564947 515.0876957126244 L 110.54746867228187 360.48868863198476 L 203.89567644192243 189.45099769738312 L 386.5444814110295 192.17181311774914 L 443.3052669089252 339.41570944551665 L 323.9989704023167 420.6230354558941 L 206.97207509840237 313.73711250710727 L 270.35324278286964 141.76761855522494 L 463.51180374180746 115.91463973264399 L 570.9234296928518 265.80277014548165 L 486.81751596363864 401.7045065565364 L 349.5046057973883 357.04623450324766 L 363.67643625719313 201.16294594555976 L 537.8866195925148 150.3080390539063 L 672.8572291294372 290.69893295978875 L 615.5824468053972 467.6886573628007 L 454.3856064785571 482.7707706233433 L 405.5718339912551 346.5737882258729 L 536.5990991098322 264.42304587091735 L 679.6920284499956 372.95280132693415 L 646.3442671128805 564.5259562082454 L 468.475435487757 623.9601451605524 L 357.9274789285124 502.7858101661818 L 436.07425410755974 380.43094872663755 L 579.2164452861027 434.1322007641902 L 577.4028688619933 611.7526681865533 L 403.6114899066848 697.967717093647 L 249.12990554445648 589.21587554075 L 279.8788961073535 425.9092460296278 L 425.1858824662159 412.8824388507148 L 469.0285125473675 557.6308760856672 L 327.0713293766863 660.9884218164987 L 155.28943308946324 572.1552653715671 L 151.28475719548462 382.0204638954289 L 302.28452680692374 307.6079887789803 L 401.97924975014985 415.35963575712515 L 314.65901147698963 537.0068470699431 L 148.94838073826196 485.5632001475153 L 119.01928073389604 295.2741070207814 L 270.7138681991393 178.73104597882627 L 422.72157968230823 255.95282014702883 L 398.0195471361418 401.7691677894641 L 249.69812814332064 406.59802383486056 L 192.4755155835372 245.04699125118427 L 327.47496416557294 108.92276403654267 L 512.1475557261736 162.4315935936855 L 541.6622660503153 332.5265170111473 L 409.8867577804187 402.42712628081046 L 316.3293613686057 288.7463901594516 L 410.19268302039677 147.9281606159055 L 598.7823837077342 175.92357444990594 L 665.237678382954 357.22201003023633 L 545.0912935404833 484.1045696535525 L 408.10625958485633 421.5215625048098 L 440.7806191997997 278.97685336809786 L 607.593199279813 269.69290476272914 L 696.2385281891935 437.13288031116855 L 589.0246923388086 598.5367232866599 L 413.4622700536468 577.6838647171643 L 379.5181527715378 429.3288862629534 L 511.5918137353457 368.40134737455725 L 617.8612640379927 494.5079999702953 L 536.173475528989 663.9720415728592 L 342.09844472318684 673.0202648258389 L 253.13584755859844 517.9339294380122 L 351.5194069258524 399.57999679897057 L 479.97913763392125 466.5360409690084 L 443.70034306376726 625.2167184701769 L 260.2564449306389 659.7462349082901 L 137.96059748185183 508.31761886493246 L 210.2895254289504 342.71266498784104 L 365.888222155331 349.3048272110834 L 391.4700653030619 491.50756320003404 L 244.90431677115578 557.3491183022373 L 109.34662620658372 431.328318977975 L 159.20097785744883 242.96892069344418 L 337.1191086565354 202.12569436404988 L 427.13670307113216 331.5721320945693 L 330.4494649561036 438.722009616299 L 191.26832021623278 362.61402015814696 L 211.86543618714708 180.3764142051836 L 393.284866044615 109.19448922902308 L 533.2298103942323 229.09576389122174 L 483.8496647169691 380.9495060256196 L 339.8790940776812 370.0757754008838 L 316.62501433038676 215.15224815330615 L 473.8163629898489 124.19974593203062 L 638.3902682332534 228.35198467956997 L 624.9540140311891 413.7836169057446 L 472.092445069798 466.6826623602011 L 392.4302814870694 345.9407703930953 L 500.310207911883 234.95516162892326 L 665.2546302256987 306.3367002183211 L 678.5651935509968 500.36001385230514 L 520.0744341480271 600.4242149017192 L 384.01869697372393 509.0758019592775 L 430.9521577724824 371.73354484076464 L 582.8643931710583 389.96203783537004 L 623.4256848435334 563.0402521998142 L 475.1854128674851 688.2416016998675 L 299.3172613820677 619.4857034045912 L 290.3698237177216 453.69961125919406 L 428.40386629679506 406.64351790590683 L 505.3756003373596 536.9606953380434 L 392.01053634522196 671.2472173132214 L 203.9535687258496 625.9359696486142 L 154.75331106129673 442.318537940591 L 283.6114001127242 334.2281379959215 L 405.938027786288 415.255691965875 L 349.9075812910151 554.2268355648212 L 176.5702781688656 543.6875676035575 L 102.10233067198271 365.9732775113707 L 221.5865304482748 216.67718489866553 L 387.45569896715784 255.4894701702957 L 398.0046883919384 402.92500073001696 L 254.9691450895935 442.79094424056296 L 160.87398514683437 299.368905041198 L 259.55375481474454 134.92157971478457 L 451.5963643655351 142.84510763484673 L 520.6779117062073 300.89754173185884 L 409.2955548094131 399.97857864383195 L 291.4072069220715 311.65689270671936 L 349.1356367631168 152.41508359957604 L 539.0384302932381 134.62941461064264 L 646.7848270719178 294.8043968012928 L 560.3615314086569 446.51186565102006 L 412.54643183824913 418.2114054767176 L 410.52336049993727 271.92187190838376 L 570.4874417838039 223.19824222502237 L 696.5534815978455 364.7414463031646 L 630.9432704978605 547.0193477152127 L 455.6030762053 568.5453172296465 L 387.4931759380797 432.5752959637043 L 501.4165253191683 342.0706367318917 L 634.7345656363966 439.39140593896946 L 595.7777556792444 623.5366464382092 L 409.4915557901761 678.6050344646108 L 286.25095252258654 549.2624004087409 L 353.69298576482214 411.05631846243705 L 494.3875454571708 445.6951977710005 L 496.8544661871523 608.5978978805181 L 326.83166316579354 685.8975793177449 L 171.96199397672552 568.0221271843733 L 202.74314152712836 390.0836531763523 L 355.3337011442112 359.58534571219315 L 413.8680634832504 491.703827434897 L 287.02362921618555 590.5630990283502 L 125.24209343557038 500.42144491285103 L 128.72818659100756 305.61588022549023 L 291.6832766724789 223.6184767582473 L 409.7568456586055 327.9033458263824 L 341.1883055761684 454.9036147530311 L 187.78172136178333 413.9853170105128 L 164.35103071221354 231.96952490765935 L 323.5568854253133 119.5669317473629 L 487.9366482753973 202.6165078797749 L 476.04314388311855 361.7124207935 L 333.6027627597605 385.2361492454664 L 274.18857463342323 240.13692040185677 L 405.2804395568317 114.27054536648734 L 589.960062458162 176.16553403943462 L 621.0844638314014 359.3489803298223 L 485.28796874378645 446.9701526177719 L 379.31882327146747 348.5437196507893 L 457.8459863654861 215.02011310428395 L 635.1749473983898 245.0869959362802 L 694.387435563799 430.3588931609316 L 564.3856024985388 565.2436964330341 L 410.65731825689153 508.89633118368477 L 423.72605188408136 364.38626682485847 L 575.7441635188817 346.04501273274695 L 656.4116874331758 504.6102293598696 L 542.2907069711935 661.5839497656384 L 355.1934637247468 636.747657827822 L 307.1341631448255 477.9837387041167 L 430.04870172060885 399.6011687785473 L 535.8042098227486 508.0269113373096 L 457.60098006773586 665.5660958197396 L 264.1178615492766 666.413831426113 L 172.5982349418641 499.8944736181596 L 271.9678236354681 364.38262833260876 L 409.9441830248273 414.1006330933848 L 388.44175072332746 562.4913298218114" stroke-opacity="1" stroke-linecap="round" stroke-miterlimit="10"/></g></svg>