<svg version="1.1" xmlns="http://www.w3.org/2000/svg" xmlns:xlink="http://www.w3.org/1999/xlink" width="800" height="800" viewBox="0 0 800 800"><defs/><g/><g transform="scale(1,1) scale(1,1)"><g transform="scale(1,1)"><rect fill="rgb(0,0,0)" stroke="none" x="0" y="0" width="800" height="800" fill-opacity="1"/></g><path fill="none" stroke="rgb(255,255,255)" paint-order="fill stroke markers" d=" M 400 400 L 438.01249678611464 407.2421989790827 L 471.3696036786447 428.21920541580533 L 495.884582716062 460.757318741549 L 508.26110891430505 501.4764312520891 L 506.42594020626547 546.1285846752651 L 489.73920816968484 590.0235120678269 L 459.0612834925738 628.4985947440896 L 416.66951751275036 657.3862203857136 L 366.0331786766525 673.4317878699899 L 311.46908814677863 674.6205407385592 L 257.7123930407604 660.3805308099494 L 209.4454050894807 631.6414039620493 L 170.8316276458352 590.7431221160278 L 145.10157530629306 541.2037462680767 L 134.23180980719383 487.3695034659856 L 138.74929155578724 433.9821356467113 L 157.68061088841495 385.7068023507073 L 188.65117085227527 346.66775482848936 L 228.1243936882117 320.0382212759402 L 271.7570167040526 307.725519682386 L 314.83493097802057 310.1828885540906 L 352.7459599270917 326.3668495227353 L 381.44228011730644 353.84435760673034 L 397.8462233690216 389.0390109668862 L 400.1588635161927 427.5916812750467 L 388.0405164944934 464.79947982221603 L 362.64509590719854 496.08913821265185 L 326.5048860767987 517.4774398038119 L 283.27725836669117 525.9726333450686 L 237.37866737856774 519.8766639661507 L 193.54253995771256 498.9579782081816 L 156.34528376587446 464.47760669199386 L 129.7478318733954 419.065905166441 L 116.69858630243402 366.4622738743983 L 118.83748212349474 311.1438820043496 L 136.33077889974635 257.88052732691847 L 167.85310980075522 211.2601502487343 L 210.7185886437791 175.2324572936913 L 261.1478649566345 152.71629776854627 L 314.64441839613977 145.31006026987401 L 366.4424568222239 153.13405066144614 L 411.9816200810594 174.82061103585616 L 447.36101054982527 207.65296061596598 L 469.72713992771344 247.83886289246172 L 477.5569927096268 290.89173668523415 L 470.8078989368863 332.0810813643022 L 450.91923262024653 366.9071532657998 L 420.6657748554716 391.55240493701325 L 383.8774193491568 403.264523860291 L 345.05326848251485 400.6327501588443 L 308.9087326832753 383.72982896471416 L 279.90094793562577 354.1053946606372 L 261.7799953117045 314.63144649498986 L 257.21082547264723 269.2153713926089 L 267.50371834856327 222.40922002386552 L 292.48025116133243 178.95432088470784 L 330.48819267498817 143.3067860740107 L 378.56384400863647 119.1913745176438 L 432.7255967792833 109.22834231254387 L 488.36935319617976 114.6706093499298 L 540.7262630502646 135.27753670743738 L 585.336998637727 169.33794431190535 L 618.4951341202021 213.8400700067839 L 637.6152861650606 264.771472741854 L 641.4891987927722 317.51888445861726 L 630.4041643285548 367.32801761425793 L 606.1119429493875 409.777338259305 L 571.6512980204429 441.2184180591883 L 531.0419072697052 459.1388223223564 L 488.88027608702356 462.4112404906565 L 449.87808180948633 451.4039454641302 L 418.38913618996366 427.9415402046853 L 397.97229132002667 395.11992662782535 L 391.03401824475117 356.99401469408974 L 398.5864170956487 318.16942008806154 L 420.14487007576525 283.3390034452384 L 453.77557919706413 256.81062199086455 L 496.28823669384866 242.07334371217647 L 543.5545574131612 241.44552684014366 L 590.9208115546118 255.83997833420102 L 633.6730924078913 284.6696934150357 L 667.5087779001823 325.9036155303149 L 688.9670245756279 376.2668491936062 L 695.7752301299904 431.56530809428904 L 687.0768059279644 487.1023332187745 L 663.5174732378592 538.1456156234863 L 627.181448606249 580.3977262725289 L 581.3838992327715 610.4231943859337 L 530.3404263557594 625.9894221466873 L 478.74663533783485 626.2873426046154 L 431.3098448745613 612.0097570092215 L 392.27977487338836 585.279524268881 L 365.02515419468585 549.4347946566363 L 351.69859544619874 508.6927798228082 L 353.0232539302268 467.7257011796065 L 368.2226049602085 431.1913433772303 L 395.10035678010973 403.26518015993827 L 430.2624974098171 387.22088215245776 L 469.45925528563595 385.1011758757084 L 508.0127578840017 397.51198470375385 L 541.2875995724239 423.56044971229994 L 565.1572373032428 460.9430351169164 L 576.419549852471 506.17490905659207 L 573.1199813954873 554.9376577342247 L 554.7499346214213 602.5105531245525 L 522.3005575746511 644.2422357704675 L 478.1665336695869 676.0156307582864 L 425.909488849873 694.6595912696116 L 369.904672709714 698.266092500701 L 314.90624681676866 686.381246205737 L 265.5746554476186 660.0510276061013 L 226.01334700121637 621.7171393486292 L 199.36117906432423 574.9734278226168 L 187.48127002374298 524.2072159059068 L 190.7774124457211 474.161427767962 L 208.15640325619694 429.46130418403754 L 237.1400494951146 394.1530483652564 L 274.11563618777575 371.3005483158002 L 314.699792397936 362.68051163059806 L 354.1793482900047 368.60650364967404 L 387.9850747424941 387.8994848104268 L 412.15090809340273 418.0077878244933 L 423.7127149640748 455.2645259533414 L 421.00670051905365 495.256675596635 L 403.8376029318026 533.268904899794 L 373.49984296657146 564.7577426530165 L 332.64950741026513 585.8086463783575 L 285.03996712976505 593.5302388317502 L 235.1475720886064 586.3462670888509 L 187.72486212858894 564.1560692370326 L 147.32598369503202 528.3474870433425 L 117.85178358047449 481.6609230404058 L 102.16008299761677 427.918130777032 L 101.78011570978043 371.64285799740674 L 116.75969471159618 317.61128069781 L 145.66039533461864 270.3771891853007 L 185.70123674358703 233.8194128828327 L 233.0364896686303 210.7567460436686 L 283.1398217828562 202.66888428573395 L 331.25635546946364 209.5512773821285 L 372.877419838975 229.918407841816 L 404.19050926807637 260.9551575165905 L 422.4594414667309 298.8011109941662 L 426.29669098319675 338.9393467154243 L 415.8006606055842 376.6508148095548 L 392.54416430004034 407.48884010751453 L 359.41527957981094 427.72627593802304 L 320.3264956007229 434.73057049451245 L 279.8212585094286 427.22921905633234 L 242.61727966556475 405.439040783286 L 213.132298569664 371.0463412637606 L 195.03974783012544 327.039938788505 L 190.89877667614127 277.41375127518734 L 201.89565156144803 226.76868950072173 L 227.72241132935247 179.853675503034 L 266.60492471479347 141.09169504086367 L 315.4775530483574 114.13829064192646 L 370.28695589107343 101.51665721105832 L 426.3946589610303 104.36583997348049 L 479.0381243733632 122.32722116126678 L 523.804211164004 153.5806490221202 L 557.0676747014024 195.0265941744227 L 576.3508508865733 242.59611139638298 L 580.5685551555242 291.6576007934262 L 570.1337085580864 337.4796797690827 L 546.9131349906935 375.7038648982504 L 514.0379613679811 402.7797820847467 L 475.5875968664635 416.3193723778752 L 436.1789134498039 415.33466450151286 L 400.50173266509694 400.33533287665864 L 372.8470945983129 373.2762865382435 L 356.67550661834395 337.36053673007746 L 354.26836994178063 296.71706837937336 L 366.49746119124467 255.98594487956598 L 392.7355363703047 219.85215581415034 L 430.917007398037 192.57484510643033 L 477.7426287313651 177.5590196242537 L 529.0077254098067 177.01258923736168 L 580.0211351810906 191.7230537511129 L 626.0729624820539 220.97618387364162 L 662.9043587469994 262.6248396204982 L 687.1323402873927 313.30105117165226 L 696.5871521641279 368.75015649887905 L 690.5284341922936 424.2535806182976 L 669.7185684216818 475.097974440215 L 636.345873404694 517.0437938662468 L 593.8053302349967 546.7464559054337 L 546.358776253722 562.0879525336773 L 498.7085589158236 562.3857602503587 L 455.52729853741187 548.4581577766829 L 420.99079859611896 522.5394282393883 L 398.3608267928251 488.053438624275 L 389.6595007677878 449.26825613253055 L 395.4678482907723 410.8663611829669 L 414.86868962460335 377.4734597543094 L 445.5395522212245 353.19303900743387 L 483.9863191736939 341.19323538755003 L 525.8942342938951 343.3873511789929 L 566.5611466268849 360.2399872752253 L 601.3696500447793 390.7181938528113 L 626.2508822880629 432.3925337256409 L 638.0935816640705 481.6779565830062 L 635.0574752100607 534.1903962181922 L 616.759641694533 585.1834263208659 L 584.3151991285371 630.0213014603838 L 540.2282384289897 664.641069695492 L 488.1439048424562 685.957535944958 L 432.4864182167103 692.1705715407555 L 378.0192327927295 682.9440334474443 L 329.3713255471673 659.4383993380902 L 290.5769901562729 624.1938573824359 L 264.6751624598105 580.8755484755227 L 253.40834804376018 533.9064473416378 L 257.05125895239973 488.02460816639615 L 274.3862912824369 447.80906584053054 L 302.82828643873745 417.2218187740247 L 338.68608554689206 399.2117099402726 L 377.5347027274322 395.4198303485746 L 414.66087746422454 406.0159129581697 L 445.5374260771379 429.6820810913891 L 466.2789315853613 463.7455745179399 L 474.033178177081 504.44717312588807 L 467.26916436721535 547.3184633019439 L 445.9328746876931 587.6302037342846 L 411.45521851621993 620.8669345193965 L 366.6113331030088 643.1803477382842 L 315.24531665093104 651.7760617107093 L 261.8879190856895 645.1951024644884 L 211.30542629107083 623.4619282440958 L 168.02485691541096 588.0841825163056 L 135.8829608140489 541.9041925504152 L 117.6441277073634 488.81706057578117 L 114.72542182941777 433.3835392886094 L 127.05624272015905 380.3764081734745 L 153.08664579551112 334.30571890620627 L 189.943485996627 298.9703916199462 L 233.7187612042866 277.08100762038464 L 279.8613083476302 269.9915219423304 L 323.6326670404792 277.56672339484004 L 360.58150730934176 298.19869038917307 L 386.9891615487051 328.9705862557679 L 400.2416919709324 365.9513988905082 L 399.091274289967 404.592130794277 L 383.7807510022686 440.1837971947285 L 356.01889577606715 468.3314071316728 L 318.8088648624269 485.3965036426693 L 276.14699816604406 488.86398441434926 L 232.6221025046223 477.5964988536195 L 192.95530521584107 451.9509637719972 L 161.52651176432568 413.7455327578528 L 141.93484159355563 366.08031411239824 L 136.6370180603302 313.02976245692173 L 146.6998908442322 259.23750628163805 L 171.69185271589495 209.4541336617995 L 209.7240190279047 168.06416479352202 L 257.6370575482116 138.64952207033804 L 311.3149868642959 123.63315788721127 L 366.0945609604038 124.03848239423371 L 417.2292961896279 139.38865008504393 L 460.36173117960243 167.75577411070805 L 491.95668697039923 205.95514001417368 L 509.65219623829574 249.8649863940212 L 512.4930065210399 294.8398597308651 L 501.0233090556292 336.1761906686804 L 477.2294271056646 369.58351575673805 L 444.3382068088481 391.6142045054079 L 406.4912881962014 400.008703038093 L 368.32785019679636 393.92175733760564 L 334.5175791143631 374.00698564675986 L 309.29058936803665 342.3513399334398 L 296.0113301578993 302.2660129685708 L 296.8391116213789 257.9547083328257 L 312.5092191618873 214.09245900808725 L 342.25652172809123 175.3571288895165 L 383.8892255817677 145.96046540499768 L 434.00540541247403 129.22561690560343 L 488.33066200318024 127.25338104855359 L 542.143138753465 140.71057492613596 L 590.743390319675 168.76170202821288 L 629.922109625146 209.15075724792842 L 656.3789333799657 258.42499288595377 L 668.0504396315134 312.2782683139886 L 664.3145342495519 365.97964410655 L 646.0507879930773 414.8443546256828 L 615.550695035663 454.7000542028136 L 576.2868361423789 482.301705231584 L 532.564043369914 495.6536143286503 L 489.08746637638313 494.2064112819909 L 450.49075246795337 478.90927562893125 L 420.8715418907912 452.112195952125 L 403.3807475575898 417.3280488720355 L 399.9067075987131 378.8783075366932 L 410.8858081415948 341.457830439105 L 435.25852194391285 309.6622761460203 L 470.5752615323293 287.5254282343143 L 513.2414585179185 278.11272342972086 L 558.8773529511875 283.2116537898844 L 602.7565011989122 303.15002314590964 L 640.2791357797722 336.7602483274886 L 667.4330236527956 381.4932863150823 L 681.1957194312045 433.6708008114761 L 679.8379718482275 488.8503530696409 L 663.097929153748 542.267095467711 L 632.2087129274896 589.3077932959344 L 589.7765972280326 625.9697660686859 L 539.5219738576308 649.2588479215704 L 485.9090099148797 657.4865664225874 L 433.7010377548428 650.436820244518 L 387.4861462122595 629.3853901686713 L 351.2204223546929 596.9703389847409 L 327.8345269817165 556.9262714357542 L 318.9429512347124 513.7090433660401 L 324.68502983012877 472.0484674323903 L 343.7136060944906 436.47376494997735 L 373.3324736368164 410.85923920069627 L 409.7688366651162 398.03562217975724 L 448.5535243982367 399.5059767002545 L 484.970915869265 415.2945762240987 L 514.5335579072457 443.94388206358286 L 533.4339888103441 482.65992239603946 L 538.9285603087039 527.5915318732503 L 529.6148527486642 574.2155195417814 L 505.57492257827016 617.789235867641 L 468.37004240309494 653.825266926676 L 420.8874495476842 678.5407697733767 L 367.05442315058446 689.2364991126417 L 311.448281444847 684.5676079938687 L 258.8413024234931 664.6791308114684 L 213.72608107181333 631.1925925440207 L 179.86879354735476 587.0450798698241 L 159.9350473195819 536.1968679127176 L 155.22573557409856 483.23684459473145 L 165.5493104478675 432.9251976546145 L 189.24324362789778 389.71910468707483 L 223.34251956742693 357.3288663337408 L 263.87829886837176 338.3488769812587 L 306.2768684998961 334.00034067383183 L 345.8189639851486 344.0114613395543 L 378.11350997549454 366.6470840937631 L 399.5383838056037 398.88481399937723 L 407.60410592780386 436.7199857801575 L 401.204071494645 475.5689683460506 L 380.72628752891904 510.7304510212324 L 348.0154346750189 537.858558042385 L 306.1890455696024 553.4004545007721 L 259.32618558858354 554.9546587495406 L 212.05977627890303 541.5142081406434 L 169.11334128374887 513.5703433178301 L 134.8285147522431 473.0663289701445 L 112.73057688508806 423.20602021487485 L 105.17547790786705 368.1363140105233 L 113.11366084221936 312.5352406975649 L 135.9943103220329 261.14688994295284 L 171.81960806736097 218.30968379398973 L 217.34357061382843 187.52517521073827 L 268.39558248476635 171.1104967537959 L 320.2962649105565 169.9692165609508 L 368.32408415139236 183.50351437272224 L 408.18602838646433 209.67645400406636 L 436.4452756533481 245.21811439008067" stroke-opacity="1" stroke-linecap="round" stroke-miterlimit="10"/></g></svg>