<svg version="1.1" xmlns="http://www.w3.org/2000/svg" xmlns:xlink="http://www.w3.org/1999/xlink" width="800" height="800" viewBox="0 0 800 800"><defs/><g/><g transform="scale(1,1) scale(1,1)"><g transform="scale(1,1)"><rect fill="rgb(0,0,0)" stroke="none" x="0" y="0" width="800" height="800" fill-opacity="1"/></g><path fill="none" stroke="rgb(255,255,255)" paint-order="fill stroke markers" d=" M 400 400 L 273.4008015227194 389.9250823996149 L 172.77977061217274 363.604579339343 L 118.22979324934539 331.57105291281954 L 119.49575631183899 307.77319922677526 L 174.00008623287803 305.22855634799305 L 267.79979755180295 331.7650155863507 L 379.1893166076867 387.07139794206 L 484.0134723771208 461.94149067715136 L 561.3487332227133 540.01477514671 L 598.1489800935585 601.6433755158346 L 591.7466238889981 628.9271221033711 L 549.6707688737134 610.6145412146218 L 486.9410035534285 545.5618095149782 L 421.6368326200547 443.78091144658845 L 369.9635645708564 324.7085986484943 L 342.1295288653774 213.0362514906715 L 340.0969970684282 133.07462750622722 L 357.7411735247292 103.02167386085807 L 383.29082548503084 130.5517185225682 L 403.3070696059655 210.83421009499904 L 407.0472757443145 327.496289403529 L 389.966893454948 456.3157381308184 L 355.3570176985566 570.7540346919196 L 313.6332169692415 647.9854459076503 L 279.4425069970682 673.9623704792084 L 267.3655336950535 646.3079828692754 L 287.395642874332 574.3792353866788 L 341.46516780937196 476.55431507397446 L 422.03497368869495 375.48664610643897 L 513.2300123459731 292.5575469241919 L 594.3298677370909 242.9289704518656 L 644.7860142919185 232.40723069360197 L 649.5059279623797 256.83226039484526 L 603.0351006789541 304.03728160612684 L 511.5148727436533 357.75688947506245 L 391.83755377299207 402.37097466988786 L 268.1233805130558 427.1833899884996 L 166.32658040850944 429.09324806133407 L 108.26406921047248 412.9769792054827 L 106.52347241460421 389.7355221814356 L 161.5030668475261 372.6023257175122 L 261.3149351085576 372.7828108255584 L 384.5757067512612 395.67796997198474 L 505.39609485746956 438.7854032210147 L 599.3420093204963 491.91277997568204 L 648.9123604324038 539.7036644983394 L 647.2178913444732 565.8335658384008 L 599.0135076156126 557.7574051731057 L 518.9116195558597 510.7078841143523 L 427.3118020802662 429.80968820193783 L 345.14144043294885 329.6476990905145 L 288.77163741775917 231.28726403847625 L 266.38730550040344 157.41946542620255 L 276.67734195087235 126.81687363201894 L 310.0821087047701 149.49876802698526 L 352.15809969179867 223.859312769114 L 388.07168771683996 336.5406250132832 L 406.9576239701131 465.15296832044464 L 404.9432610185002 583.2291745993065 L 386.0254478714243 666.2329258530079 L 360.5882024590372 697.1668190847124 L 342.003571807016 670.4174506277286 L 342.28991575737825 592.9089241241064 L 368.06841841788486 482.3031946113395 L 417.98777677188275 362.7159376098736 L 482.39634474747606 259.0247276128169 L 545.43342027945 191.1786418768084 L 589.0480692114382 169.89268603882692 L 597.9120149048127 194.73658757279344 L 563.9190002347564 255.004653237344 L 489.03334480351054 333.0438145886461 L 385.65158528857626 409.10380187707887 L 274.2721700376784 466.4130144150075 L 178.96676967153368 495.1654679427819 L 121.73106480906677 494.4277895052626 L 117.10906837818203 471.55116901471325 L 168.44761345394357 439.34698022819276 L 266.75205637526744 411.8777550196863 L 392.4760825183727 400.0714148082492 L 519.8491370349219 408.3938264577634 L 622.7101606769818 433.5081686299274 L 680.4381838827525 465.29311682270225 L 682.5456967518844 489.9355000916978 L 630.8359157839111 494.2332851883582 L 538.6343829129648 469.8976646805066 L 427.33310509914276 416.62318575284905 L 321.14628639378134 343.0099737947566 L 241.4032998247502 264.9907587875541 L 201.79065329700407 202.0881867273179 L 205.68223958926842 172.42649954605125 L 246.14036405646365 187.7857942276307 L 308.47570538783714 250.01676352016278 L 374.6033347986663 349.81616416523127 L 427.99195897436925 468.2764132791043 L 457.88582864943356 580.9161152177118 L 461.70929292124515 663.254157176867 L 445.07746599690597 696.5759594425958 L 419.4939516520678 672.4659927576029 L 398.4423288606066 594.9682935362454 L 393.0060460131747 479.81571196191055 L 408.2687205522344 350.8929935247333 L 441.5236978651076 234.78463949423755 L 482.81878231207554 154.73140832194426 L 517.7144514545436 125.45930616712809 L 531.5154262957867 150.11725670324424 L 513.8127381751054 220.02374048266327 L 462.06155689643197 317.2165714018986 L 383.152122809545 419.1044842837451 L 292.44907329416213 504.01126895180016 L 210.44384718149607 556.210212684819 L 157.80990867324394 569.2139034411906 L 150.1001260525273 546.56400815737 L 193.4583006243605 500.0292619791004 L 282.4929795207256 445.7929984923181 L 400.9345541775174 399.71889118247685 L 524.9990949466027 372.99496658075276 L 628.6927803046484 369.31992005678825 L 689.7869694756546 384.3525353156969 L 695.0070755017896 407.5153942521185 L 643.1586938108264 425.5972993689746 L 545.4180294802634 427.10778487687315 L 422.7135298751243 406.13264084036854 L 300.84422467664376 364.5759038438165 L 204.53521446929736 312.11485214567585 L 151.88174208187309 263.8225515603509 L 150.51817062271425 236.05960749744358 L 196.39875067818028 241.729265252892 L 275.41047770115665 286.194187053406 L 367.3266614198869 365.01102370453265 L 451.0352937424039 464.1835442053397 L 509.6842366890172 562.9830027642279 L 534.4467297435272 638.7051130072449 L 526.0046602654427 672.2049101167756 L 493.4663628774226 652.8145891794982 L 451.11580001133905 581.3709466904469 L 413.95202045023444 470.5316045977015 L 393.27562500988176 342.2298321379514 L 393.5371314889148 222.83617092565075 L 411.2952846955429 137.17733929505926 L 436.5419796163335 102.85914910495046 L 455.99403268427125 126.2733523279274 L 457.40675579651656 201.25429623487923 L 433.6764993009663 310.69483022517534 L 385.5468057139397 430.6989290341564 L 322.1041284190088 536.2268837180216 L 258.84645287807916 606.8347593752201 L 213.773128012135 631.1110662997826 L 202.49925385058924 608.766641835332 L 233.6933522007579 549.944812463566 L 306.09052437201797 472.02871494262075 L 407.9522237855214 394.8479547476545 L 519.2237754563757 335.56792634046917 L 615.9413041693161 304.58728350889953 L 675.8427366376404 303.46637212551593 L 683.8000667366059 325.3459144671916 L 635.7031234452479 357.6421544839726 L 539.7895050805595 386.20061218942107 L 415.0410685054733 399.71444349095935 L 286.9962643591864 393.1627455521108 L 181.97412099721572 369.3098771243121 L 121.10462316750505 337.8506250164342 L 115.60947366230897 312.44117102011637 L 164.46408002149593 306.44618609357764 L 254.97612212421305 328.599054463232 L 366.0903374693775 379.815523532168 L 473.55810054924706 452.1070785102571 L 555.6639690730822 529.9848837761149 L 598.0910161624471 594.0741096935849 L 596.7568307274945 626.049641680668 L 557.9940907716874 613.6204660767758 L 496.1405837038998 554.2364898582654 L 429.2634122564635 456.4873175661751 L 374.200743579581 338.7351636055079 L 342.2457392404056 225.2279444067846 L 336.58903897301303 140.59227130835677 L 352.1378557606899 104.03947228022355 L 377.67639366148927 124.7164691313767 L 399.69860436214975 199.36855802339497 L 406.79848597882443 312.9176756546692 L 393.36271946724145 441.83956973377445 L 361.51142864538076 559.5292051554986 L 320.72039619979597 642.3522471363718 L 285.20110328233545 674.9163572082288 L 269.7408803881333 653.3002493133957 L 285.1457680377152 585.4976160928401 L 334.56362293014973 489.03342215534923 L 411.75540089609706 386.41225496511515 L 501.88055214187875 299.58371193689493 L 584.6982590873045 244.82623532865532 L 639.4341803900215 229.30698132230813 L 650.0953264619027 250.11313951671286 L 609.859654433933 295.89334216913 L 523.3675993032497 350.56929732162666 L 406.2528687454744 398.05426550018944 L 281.94104600723284 426.68096560086667 L 176.44019942225873 432.15437712739043 L 112.36845705544499 418.2705571917179 L 103.67389296649918 395.26478812775133 L 152.3457622470886 376.3037931310634 L 247.93082015405815 373.1432709277009 L 369.9764531410328 392.1986261833067 L 492.79914684420237 432.1632589722151 L 591.4059964720752 483.8854643652192 L 647.1229231012557 532.5948058199444 L 651.5741050103536 561.9174932789791 L 608.0873498337107 558.6126165267597 L 530.257465312489 516.7346992185475 L 438.1144296213869 440.046866959034 L 352.9322150709063 341.9458652191401 L 292.02832888912707 242.80368075240003 L 264.8666405167174 165.31342487775055 L 271.40170288939805 128.97012283644432 L 302.99356878712047 145.0756247838974 L 345.54009222005857 213.55938458813083 L 383.8982745757444 322.4738012087596 L 406.34710966043593 450.3620191296264 L 407.8626814771327 570.9752667083554 L 391.32351126556404 659.2204238501847 L 366.34500554887626 696.900056316482 L 346.09959863904567 676.8494041985402 L 343.03723754151514 604.4682489966433 L 364.72950273503807 496.29069376446546 L 411.0366119048177 375.96873209773037 L 473.4450499401056 268.67990602735085 L 536.8371252690279 195.3449346215249 L 583.2879293036266 168.06444368190833 L 596.9176620496543 187.8521100608893 L 568.5110375533073 245.14296873799253 L 498.63819048067415 322.8464188413602 L 398.3720638727691 401.0767721961876 L 287.3054420317984 462.29269048886886 L 189.27031008785104 495.5107311975095 L 126.77119287716596 498.53958689348076 L 115.5024575158871 477.73200654622764 L 160.3308749501545 445.42291796780637 L 253.7818690978092 415.83669073969276 L 377.4553058396261 400.64211705751353 L 506.06907294968244 405.4077928778092 L 613.1712688277482 427.9460728533814 L 677.1425211170149 459.00341073879576 L 686.0361651225454 485.1018256207339 L 640.0947384934743 492.736027043888 L 551.3622178465429 472.74492627431914 L 440.534252573345 423.6095846087472 L 331.8691622347724 352.7021810091796 L 247.44817827096026 275.05217050208415 L 202.20791065576452 209.8642560613542 L 200.94067971051732 175.6410828075533 L 237.93176380149941 185.16634706350592 L 299.21583745180646 241.68129545359378 L 366.766949640929 337.3140328909974 L 423.4596370461912 454.2632519513071 L 457.47406595610397 568.5376871087166 L 465.0038026712535 655.3901865831481 L 450.6073250872993 695.1330599894785 L 425.1927911558108 677.8985757419957 L 402.26643468676735 606.150135504351 L 393.5380985659182 494.2969417699021 L 405.1407190807193 365.48011220778795 L 435.5419940052563 246.29972674681449 L 475.75492540006405 160.76179418796204 L 511.8162622035177 124.91216688493046 L 528.8692506222794 143.44391203977483 L 515.7297716990303 209.06283060529032 L 468.6571365633413 304.70197767073205 L 393.2377078825585 407.9679514188265 L 303.7749656227438 496.6596721132615 L 220.23785122784497 553.9607028332107 L 163.47750082601368 572.0263205610916 L 149.9063735224432 553.1307499243289 L 187.01297379377237 508.1891083714339 L 270.90817444130516 453.15171901545295 L 386.6066331296907 404.30752530434637 L 511.06271309304657 373.78976558684974 L 618.2794183696733 366.48750023078816 L 685.2717632705297 379.15905671190495 L 697.4323731977689 401.929456594103 L 651.9792695943819 421.6986177656963 L 558.6322580070309 426.4657696133606 L 437.34769846208803 409.32699796352836 L 313.6684193904246 370.9931935001048 L 212.83158632671933 320.0806938961907 L 154.07412398145755 271.03850737668375 L 146.50883071134416 240.23074889195007 L 187.5338468327892 241.2151506102108 L 264.0908285434072 280.5067873412078 L 356.37020228927406 355.02082657003643 L 442.95897599014967 451.9700872067052 L 506.09056792548483 551.3590034215554 L 535.6695441267765 630.5299143669961 L 531.0984565337911 669.6603869505019 L 500.532314664283 656.8296671262844 L 457.86933414130954 591.3456740279829 L 418.37473629349614 484.4370205707662 L 394.17438596189703 357.0647482942812 L 390.86034025403234 235.33087336553837 L 406.1231904986253 144.570647132832 L 430.75647786999394 103.55570724119474 L 451.72023414214937 120.21765058421533 L 456.3805665431348 189.92917205396225 L 436.71309145223574 296.74686878469686 L 392.25861756226305 417.28694530653416 L 330.9507483439464 526.2585418765751 L 267.5098578567314 602.2828141876837 L 219.76374650459005 632.5781519101689 L 203.83455942212572 615.4020977318323 L 229.46825359228995 559.7258721748028 L 296.7840002518893 482.3251897349569 L 395.3812715114425 403.1184011087166 L 506.1466980853976 340.0043975729582 L 605.4040515904595 304.5427591033581 L 670.4304956191276 299.5589468089323 L 684.9835112381337 319.22074377997717 L 643.4472735575233 351.462991253742 L 552.5281909739597 382.01363181765623 L 430.0280506194084 398.8594165312316 L 300.94867682669167 395.89215176950506 L 191.84960373858502 374.7193073361109 L 124.81942665352454 344.13910160569844 L 112.5197503384216 317.4303816954064 L 155.49268188921775 308.21690639229183 L 242.35703522513865 326.07008542393737 L 352.7993068306087 373.10418939722575 L 462.5762978048229 442.5672979099571 L 549.2617527965534 519.9041855293877 L 597.3108693298655 586.1022835661994 L 601.2208538312532 622.5048727327102 L 566.0762159029139 615.8543128038878 L 505.44925567355426 562.2272166456106 L 437.30139957953264 468.7745293090731 L 379.0253860395722 352.72179097335845 L 342.9562602659396 237.78079364823688 L 333.5162486126035 148.7941988522977 L 346.6924846689142 105.90519573673828 L 371.9039046621266 119.69098141603098 L 395.6664025510706 188.48057611735925 L 405.98543107460137 298.5469922561625 L 396.21922714949096 427.1544835287552 L 367.3117815021146 547.7334284257413 L 327.74961887823923 635.9284751794673 L 291.2279555474364 675.0538078816812 L 272.65032203789355 659.6460052166872 L 283.5595040676022 596.2888474681133 L 328.27811818289575 501.57090882095787 L 401.8731518188323 397.7499370063478 L 490.5904681598671 307.25621387585596 L 574.7538429383604 247.42974655215878 L 633.459419856262 226.78982522492282 L 649.8963258783467 243.70980015214175 L 615.9220881995417 287.729221499865 L 534.6750758712566 343.04859076512787 L 420.4805502058175 393.1979610571623 L 295.9830648970344 425.5920909450495 L 187.143281298839 434.7509657872628 L 117.29004710999465 423.35338003818026 L 101.67515505255335 400.89631025878714 L 143.87033274772972 380.39111504133473 L 234.89891152337339 374.06315221240067 L 355.32069010970184 389.291514130065 L 479.7585804172902 425.95849407557824" stroke-opacity="1" stroke-linecap="round" stroke-miterlimit="10"/></g></svg>