<svg version="1.1" xmlns="http://www.w3.org/2000/svg" xmlns:xlink="http://www.w3.org/1999/xlink" width="800" height="800" viewBox="0 0 800 800"><defs/><g/><g transform="scale(1,1) scale(1,1)"><g transform="scale(1,1)"><rect fill="rgb(0,0,0)" stroke="none" x="0" y="0" width="800" height="800" fill-opacity="1"/></g><path fill="none" stroke="rgb(255,255,255)" paint-order="fill stroke markers" d=" M 400 400 L 562.6659965778844 636.2450740479737 L 340.0280897455408 557.038808209358 L 582.9964276243878 355.5668924078731 L 607.5786863743912 585.6159500117851 L 403.1712706966839 375.0845522550191 L 660.538519785134 265.55145935365755 L 529.3479166040449 469.22543644999274 L 376.9243174725352 194.08472252156966 L 602.5429398282678 224.28321443196043 L 351.5394700778087 387.4606163809186 L 298.05208049073724 120.53656790095164 L 472.01095829098483 298.7037941861251 L 175.38530030916064 396.630029960359 L 258.0331433277739 187.04676304394528 L 372.3263208106109 469.32582901790096 L 107.75016333562758 466.33440060736154 L 325.7377354325077 331.5626777683986 L 366.05845282272475 638.0912688801493 L 183.3638384275481 507.7089426148504 L 486.32113408384 447.87756717604566 L 428.91303898764045 698.3872239002576 L 341.1002765756353 449.56974463582134 L 645.5633837003986 467.4869146384683 L 474.3349647030075 613.6729220974347 L 472.219308753219 301.57156118971966 L 697.6469713723855 408.9334065612827 L 428.42872998629076 444.0618375653978 L 502.7145720230949 153.493911574806 L 604.4325868946567 356.81246160945193 L 295.1526596750706 300.42680713914405 L 445.80498141565437 109.90764793820358 L 424.82609925178224 388.117865374554 L 159.3254119502963 261.74971915419104 L 384.49901702794597 210.44463280200895 L 271.3307097051421 505.0308351176228 L 123.92431285858345 319.6542012554065 L 399.2405058852574 397.70656120939003 L 227.30264192382538 628.1154189221779 L 230.07605048907465 392.34712704020404 L 498.70993211417846 558.1495905246202 L 288.6966427929849 656.2227689639806 L 422.2857455573914 395.64018954933056 L 609.1647814484612 604.6979759917009 L 374.5882999517202 546.6241428870005 L 586.6280446325021 314.0940037538582 L 631.405241482124 537.5832969103237 L 396.8277266531488 352.4327837322728 L 632.9927647626649 215.56589228587015 L 520.8965778368892 437.160417486056 L 333.06972287575684 187.2481345806406 L 558.2971790599961 197.29784347675954 L 327.82732866187 395.66379507208774 L 245.21650004187498 143.5239109703905 L 442.5580183849079 305.91841166919755 L 164.73861977491165 442.3706427452544 L 228.64759820614992 227.19881752075537 L 382.11042599033016 494.7510274225293 L 125.75543946197138 521.2842108688424 L 332.4402909421545 358.44771159652305 L 413.0661026062489 653.0457958213673 L 219.27598913486764 538.7000991296443 L 514.0385070173352 436.93371026028433 L 485.1718200564826 685.6366472436791 L 365.6182310642808 442.6904135069306 L 665.1924150307366 419.9297567327224 L 506.1353815765374 581.9827805976654 L 460.6607810375631 271.08512184882784 L 690.2616320345846 352.2078285396222 L 420.75179601139536 421.56487887973134 L 455.39481146930177 128.97286644169685 L 576.7861891333506 324.9668382952028 L 261.54663525017713 311.95517800382396 L 389.4575442275464 111.98335599239448 L 403.87667551414916 397.1161407703766 L 129.85556985160133 308.00811441577684 L 353.30740786581595 234.37517489323304 L 282.11304191280254 541.9620250523359 L 120.90898863583624 374.81003611183934 L 409.96209054204587 417.6857196811837 L 271.67267756054997 662.4255266311322 L 250.75095151857383 422.2798886745337 L 539.0147718229055 548.8682734669426 L 341.91171472344035 663.957744242243 L 441.9475043688947 382.9342927043898 L 648.0439162592847 563.0120599100236 L 402.7770381107228 528.6354174088099 L 579.6079980675684 270.52933495960474 L 643.3525235094544 486.96388099553144 L 382.03033648088484 332.3915707712714 L 594.7225155484174 172.54198406773506 L 504.94314369051915 411.06134696774234 L 286.51937491301237 191.27555599519334 L 510.80825245366725 181.7588773389489 L 306.69942260431344 412.5000879713591 L 198.60873411509152 177.74140336223238 L 418.74112332449977 320.5375014027096 L 165.10399634387562 491.4812693872427 L 210.22329981303758 271.16296718508556 L 400.7744809575496 517.6491398332133 L 155.4037232034222 570.8005541244395 L 346.44255411505117 379.9497973689084 L 464.17614348004525 656.9195184817945 L 259.4759012980908 559.2488465816696 L 539.3335048368083 416.8032425124723 L 536.8343579071434 660.9324204604626 L 384.9323244071543 428.60503348650906 L 673.7634436092283 367.4948264124751 L 528.0266338667568 545.624286761161 L 439.56036343466866 242.85403401500295 L 670.7198785131291 299.2175518640331 L 405.9342183329093 404.16007257284116 L 402.3963126576347 115.38653725973887 L 544.1837138835557 302.50181997369486 L 229.95454210366728 333.4151531013272 L 335.98062527714626 126.30869251578406 L 387.96492612918 413.2331762608331 L 111.09145905503772 360.7528095280499 L 330.9906055438488 263.4627532765581 L 303.2345929272339 577.2039484768771 L 130.12933785371678 427.9442252780952 L 427.8367653008152 432.6376389284095 L 323.32342017491504 686.3658246871014 L 276.70676694606493 443.8046066192459 L 578.043440278598 528.8403819858935 L 393.91931386111366 659.5718550820134 L 456.5640341759464 362.9752274043134 L 676.993290377711 513.2838536471401 L 422.97169698327696 505.30616941956544 L 561.4532623375666 227.7380521609673 L 643.3846428722592 436.7894962967846 L 359.80801456190335 317.4246717509464 L 547.6999660178155 138.91041682927232 L 483.63851172122565 392.6058493318692 L 240.15269582782432 206.78757500337142 L 463.0682042889059 177.85163799823022 L 290.66776380498163 437.0068184758262 L 160.7689472361994 221.35260422687202 L 402.2878511941177 340.48668569174686 L 177.24756367058183 541.0781864710676 L 203.08532646143 315.996626360787 L 427.42629222013625 535.4545511139363 L 195.0039379717311 612.2465577161496 L 365.7402122639132 394.29441389209296 L 516.5123148788937 648.7942212073805 L 301.0780225986037 568.9009604695369 L 559.5823957061962 388.3017352062153 L 581.1811493348612 625.812745790992 L 397.22205097225634 409.2541777227615 L 670.2014435455685 313.03765597783644 L 539.4364338865726 507.4206293660708 L 409.64918214584424 219.56340896411547 L 640.4018382908382 252.74976329128478 L 385.858574232649 393.7149027098875 L 346.5394900888647 113.96938869176034 L 509.38291272319265 290.0966741816322 L 203.12452126699833 364.1692643304337 L 288.2137456550361 151.66438076172145 L 379.00806762779206 434.6396490902806 L 104.42730428684308 417.21359084963217 L 318.3242367883786 295.01595739743885 L 334.16179169015663 607.9456892899486 L 150.52726992167229 476.18018456964484 L 451.08509272827956 440.59113316549343 L 379.5501682797275 698.3844286682076 L 305.3173423200067 456.05901982637647 L 612.9246161378901 498.4847441917353 L 441.8205137946983 643.9640280414105 L 464.10480981305426 337.4942403630155 L 694.3078977625158 458.1374868361846 L 434.2318260934439 479.20010382296755 L 532.4569249636588 188.6472789415443 L 632.2455634460349 389.96768507428453 L 331.8436153931916 309.6280488342569 L 494.4543394036955 116.52242566587086 L 459.4881245373256 382.805717944832 L 196.94575495918878 233.62752258994493 L 417.9808574087787 184.9810092758284 L 281.90013247375015 467.5517524010048 L 133.685535533063 271.9363593774292 L 394.27632870536735 363.31361560527125 L 201.15896251729956 588.1454101501658 L 206.77972204731893 358.8103037614252 L 460.48853408068044 545.921460889308 L 242.25458880407783 643.5076407856988 L 387.9282998664026 400.3401251828666 L 567.0297497743475 628.5252906239299 L 341.2158291710463 567.97809584428 L 572.4557958368102 352.9453225504031 L 615.9839695566159 582.4497783096624 L 401.2836522016613 387.0012199352141 L 654.1997916212252 259.6192275882707 L 540.5637223964002 470.20886877592 L 372.3740633968491 203.63070138924598 L 601.3428143791816 215.13263168929223 L 362.8520583421614 391.4964542933824 L 290.8872770904796 125.19513044265221 L 475.18709326961243 287.66532636225804 L 183.5651158612719 402.8496929254242 L 248.5706089856566 186.15714367776104 L 378.33936259974917 459.0399493510155 L 110.50675979874467 474.3407301153368 L 315.32545234735704 326.2673467491508 L 373.6167805223863 631.5864021684354 L 180.35429595555914 517.0333203488633 L 477.4396705706135 440.14229707620154 L 437.3320980939233 697.6672698452662 L 333.85117288519353 458.9317360676137 L 640.9660001177797 458.9774417319967 L 483.07423304623995 618.7375873843597 L 463.08951687294933 308.7323454895282 L 699.0052469560692 400.54911125830455 L 436.3597071201889 453.01454646004964 L 493.6810549634189 156.03768730391087 L 611.39533033004 349.082318161505 L 300.3517594666222 310.56511485252656 L 437.901760437188 106.5244971278106 L 435.1584101650145 381.9385049386657 L 159.76220701988726 270.8595333663907 L 378.1603014336783 201.82629392673914 L 282.05022533904184 501.9486727977901 L 118.66224123553064 326.65104850179745 L 395.0591549422648 386.37832405588375 L 236.04020216285667 629.7439786129795 L 220.11945849392566 396.97076467852764 L 497.80749473356184 547.2986632519489 L 294.4017297578746 663.1316395314851 L 410.38813721176564 397.66216912201486 L 612.7240189937438 596.7621523693897 L 377.2462203052045 557.5406701651427 L 576.0981905009344 312.8490300908409 L 639.6528613764128 533.4983027422418 L 396.62107988166963 364.44901190181645 L 626.2500653333972 210.29764873981276 L 532.3503245348426 436.63470097486424 L 329.80319596669693 197.02165507557692 L 556.0889319769973 188.0818564717528 L 339.50697761793754 398.07319766795086 L 238.53802024128623 148.73753478297738 L 444.2394050921506 294.3760196414813 L 173.35691777941818 447.44500304424946 L 218.87960804798448 227.35680328539468 L 386.60276029709667 483.8476609711129 L 129.174362858013 529.0103605258801 L 321.2640014526331 354.57930817478973 L 419.6562697224582 645.9277001467766 L 217.3011329881681 548.5761319883762 L 504.31637195694793 430.56691131284765 L 493.5353949594051 684.1959395841048 L 359.6770961977626 453.05963975063105 L 659.8504386501461 412.1811090015729 L 515.6675087527544 586.0783443228561 L 452.70741241851925 279.2735556220276 L 690.8923906128155 343.6465268450419 L 429.9061425238571 429.3751995417921 L 446.89442413945466 132.34397141545128 L 582.8960092523657 316.2185862786677 L 267.91678570283307 321.14050636174204 L 381.14814191445305 109.28231344419788 L 413.27224793941184 389.53344680175906 L 131.15073251531453 316.8221470996182 L 345.7515773348468 226.44730629347174 L 292.12465509021195 537.614438413359 L 116.23327375505681 382.42795142835394 L 404.24112585820274 407.0568034794481 L 280.35034950269 663.2171407810008 L 241.2824778206222 428.2842383803856 L 536.8048568251031 538.4692187465741 L 348.4281193917262 670.4222651382072 L 430.4897169129878 386.58286245505565 L 650.8385121032115 554.9127033257566 L 406.93622112724717 539.297924089094 L 569.2741596399688 270.58058065023107 L 651.337891320548 481.9112237092073 L 383.48447362972087 344.23891727762555 L 587.6157730335331 167.91904533673335 L 516.3991408895607 408.96263478164445 L 284.48585010253186 201.0976629449417 L 507.51767598839047 172.59092537116595 L 318.4814348761183 413.26848080905165 L 192.41513707200173 183.48726950222073 L 418.83024831681865 308.724984913463 L 173.99367954171822 495.4341687245234 L 200.26643375812313 272.47033128346874 L 403.6983873760601 506.38299316108527 L 159.4828326266719 578.235544874144 L 334.7277671384102 377.6390888771484 L 469.7989589104478 649.3385932233749 L 258.66601729609147 569.5628958313358 L 529.009645334897 411.8829357716836 L 545.1245253090223 658.7499767618076 L 380.4614637392883 439.77048077821377 L 667.8066799110006 360.52447389304047 L 538.2471060458145 548.59230625522 L 432.8877922995744 251.8519763997464 L 670.5778046807758 290.49823335000843 L 416.12115726199505 410.6371122857315 L 394.45936531466265 119.47854511257367 L 549.2556640330087 292.82483761296 L 237.30252094862539 341.5216492943051 L 327.27908580730184 124.35932329577042 L 396.20834309952863 404.4126567064374 L 113.16349899049231 369.2337852968093 L 322.28633272366613 256.43391877055063 L 312.39655840491105 571.7562346103223 L 126.13241836089202 436.1799805881918 L 420.7123188285743 422.9429806762893 L 331.90300729737373 686.3767818727742 L 267.9545894589064 451.1465818732109 L 574.6616412920715 519.0447862573276 L 401.2600854157754 665.4793253262825 L 445.7947918136164 368.1466377925084 L 679.0553625049106 505.054143536797 L 428.6186147167963 515.4718157357851 L 551.470617501207 228.9801086690615 L 650.9785291879128 430.7350484842618 L 362.8533472230979 328.8468421953477 L 540.2517800529159 134.92255943050122 L 494.8449501145758 388.9152255338337 L 239.27612346343466 216.50567243486913 L 458.6361736619475 168.87278480317661 L 302.2947104416713 436.16915115389327 L 155.06849010654415 227.62362717063127 L 400.7316879464726 328.65863313014927 L 186.2644438788783 543.958403194375 L 193.08703348532296 318.5403454569507 L 428.7829212337381 524.0778084339107 L 199.7557430457069 619.368045729597 L 353.7378707480473 393.62890744242736 L 521.1925325657788 640.8810237105739 L 301.54959325050385 579.5051569910188 L 548.8977006078661 384.85845363751054 L 589.3666515949458 622.8534204490674 L 394.34250421605645 420.97493252880395 L 663.7424271437038 306.84061602510786 L 550.2031807586403 509.1147458754717 L 404.31633056437636 229.1467308244686 L 639.4272905472553 243.90688350957836 L 396.8532918388934 398.7063186421031 L 339.1757094684099 118.69115704103353 L 513.2416974892418 279.62103394922633 L 211.247605523578 371.11394131798744 L 279.15172363527034 150.55141297648152 L 385.9191015112724 424.78452055750114 L 107.20867272734785 425.34271134763435 L 308.5836905484787 289.0881708459539 L 342.3722174702931 601.5755318499569 L 147.31825007996864 485.01093519484516 L 442.7340940639584 432.03438289214085 L 388.0097559782916 697.6577445538137 L 297.50678427046444 464.6497070342202 L 608.5211081502177 489.4076388865855 L 449.97736307917046 649.1829530233346 L 454.2458689516486 344.0415321583306 L 695.6562888553414 449.79645316284166 L 441.3053809845572 488.62471681357874 L 522.9475302130461 190.95868634880037 L 639.2972620482544 382.8999602955393 L 336.3656765886469 320.39112226759477 L 486.6750828357834 113.17334018732345 L 470.18730490800533 377.55289657254247" stroke-opacity="1" stroke-linecap="round" stroke-miterlimit="10"/></g></svg>