<svg version="1.1" xmlns="http://www.w3.org/2000/svg" xmlns:xlink="http://www.w3.org/1999/xlink" width="800" height="800" viewBox="0 0 800 800"><defs/><g/><g transform="scale(1,1) scale(1,1)"><g transform="scale(1,1)"><rect fill="rgb(0,0,0)" stroke="none" x="0" y="0" width="800" height="800" fill-opacity="1"/></g><path fill="none" stroke="rgb(255,255,255)" paint-order="fill stroke markers" d=" M 400 400 L 174.4754644759634 351.66578183993914 L 130.92814306097864 279.1128460115958 L 281.82431796289245 313.22384495098146 L 471.37217435665644 480.3498404052734 L 539.9525693080492 647.1934945882039 L 476.5893182558541 644.0910180653154 L 404.0009485171504 442.9342402168766 L 423.66597797475623 200.72337914475403 L 496.9494204074475 116.33770572090629 L 494.01001470331084 243.32971671277085 L 354.8692983123541 448.2911129647805 L 180.6611207311255 552.6771587160881 L 145.7470075095278 506.58777502596377 L 316.12448498618767 415.76929392861354 L 566.4873324308902 404.21074808627105 L 690.0406355714841 469.8756334367598 L 593.8390887926346 493.0467850385843 L 381.53454433234197 385.7084136301586 L 242.05656694483218 212.86647039164563 L 263.627381691309 144.255990604371 L 365.3853094773476 279.0586581908632 L 408.71434918377787 528.6507589901678 L 358.42842163404305 687.7222273368593 L 315.67391556586097 627.7421614102517 L 389.34244596965993 416.7841208700398 L 552.4256422017814 244.95145622593168 L 648.7683653149056 236.0163095482677 L 552.4640218721881 340.570325314137 L 312.467718510018 414.1755505377897 L 123.31060021819445 385.99514953123656 L 143.39759335216115 331.2715066541691 L 344.17824087174245 371.4459077590135 L 543.7447016002137 517.1825127448374 L 587.5681440493129 633.9889089402585 L 488.75179739716236 577.0829237271669 L 388.3247241144967 354.92932198188777 L 389.0937031177269 142.60715589550296 L 447.525227636311 121.09526603366896 L 438.64719143866057 303.2128944571248 L 316.619654573431 524.2541263643934 L 187.51078120747906 605.4849704479807 L 206.18041412168913 520.8456830942554 L 403.2705493509168 398.8195127273046 L 630.7268228563813 368.59867922546357 L 693.4806048836758 422.3059297531912 L 537.6985950466338 440.63917527223106 L 302.7423117322851 347.1063809371864 L 183.60229446321904 214.287728529376 L 246.19957913287675 197.8685624864793 L 383.1249937335113 364.09108450200944 L 445.9769050721836 597.9795998909451 L 405.1113773401493 699.5732356956017 L 365.2985123870623 576.5635558714253 L 427.3902031178151 336.14212640894976 L 555.3790355179374 180.64987893783143 L 601.9411327491352 214.3631644911488 L 470.66260957404126 358.3855718452205 L 239.23813652824134 453.4720511742887 L 103.12019458728622 432.78313004103046 L 188.51102673592936 378.5356495202309 L 425.51814513031474 408.2380947450472 L 613.8206620655684 523.3915495632433 L 614.4186327524931 593.6398590597139 L 471.7667623428185 499.4395335553746 L 346.8660225113886 279.08285210728246 L 341.2499018525899 114.43169341551697 L 401.98070103533786 159.2132862164007 L 403.5710026952029 383.9820890400892 L 308.27408817888784 599.7525807209082 L 221.9355626196926 638.3611960122149 L 278.9714199942187 505.7376032069093 L 480.419266538991 355.33886372776095 L 666.2680959902141 318.85186036209575 L 663.0673218343778 377.66642847155003 L 458.82312868592845 407.47698209026066 L 222.44192274578688 337.67882734078336 L 144.06805672415564 243.55050157810817 L 258.30183801220744 265.37472303751747 L 428.2209375087188 441.26249627422953 L 498.3136334560385 640.0346742750808 L 449.779741600077 677.3171396904527 L 396.6175791926444 500.89359452179235 L 436.970351151855 251.903786396238 L 530.3574148798075 134.06337488751495 L 539.8757574189943 222.31255203421387 L 394.64934130413866 404.44118544366563 L 191.70933391025892 508.8776854781565 L 117.04556432013209 478.47222824321295 L 259.74020905796476 408.342284871292 L 512.6258335817317 417.21967750974244 L 667.586731624366 501.58991434316493 L 611.7219049225845 536.8954961555228 L 425.6242949774148 425.60869456016326 L 288.1561686894074 227.25369559220778 L 293.55493344679553 120.13859982704764 L 373.1199743114898 224.90416775490934 L 395.7182973319891 472.7361223413403 L 327.91367687058533 660.5442335388782 L 273.73823212168264 641.906365958923 L 349.8009288914749 460.55391961423317 L 535.3038698760607 293.3551166022136 L 668.3902197818907 268.2370932578015 L 603.8206804743373 348.9868567311775 L 369.7413103748253 401.0328600863222 L 155.0588486843012 356.18586042828184 L 133.45988420669386 291.0197483118765 L 301.36276489387865 332.62650237282014 L 493.1757374148691 497.95143408297145 L 552.6303248905988 649.3428911174602 L 479.1920665913286 625.1856781346968 L 401.63925470105244 412.8339044988409 L 418.6580645885954 178.627144884171 L 486.42765415542436 115.78787660418732 L 476.51226032088744 262.0299770189123 L 337.34814576277057 471.80029870980593 L 176.0740946597693 567.493323745929 L 161.65649969417183 509.6225776607837 L 345.46249618576195 412.1933564466661 L 590.8654688739671 398.31370363422553 L 693.8801138959392 460.2735657249986 L 576.5602958055229 477.4566960914914 L 356.6678616826535 368.7667675730927 L 224.87266092030112 206.31765869234187 L 259.6331800060366 157.1053311965545 L 369.93745922067114 307.07252863709726 L 415.8081074657277 554.8192012191525 L 367.61407234808337 694.9290532100694 L 329.48285479830065 612.4392534398539 L 405.28697050462534 391.01004130950406 L 560.405169617228 225.2931775406127 L 638.909027008744 230.5476058907458 L 526.2653488318552 345.7506388864112 L 285.06922653365416 422.66099509898993 L 112.79422886349704 395.2745958845521 L 156.22901031603848 343.54537729985776 L 370.3303594580301 386.07912631316395 L 565.8525025712584 526.0366214932225 L 594.9834313865977 626.9209755720076 L 483.38165678295155 553.0950921203997 L 378.3777040887369 326.90071508483925 L 379.2345752065758 128.9722157450663 L 436.43723713163956 131.0451905816173 L 425.51996775632995 329.16166428769685 L 307.4407436048615 548.6536767138091 L 192.10126206099673 615.2474268012863 L 227.67650119404118 515.7894125744783 L 431.32078275691134 387.47145808269454 L 647.1658240830311 357.7281563751069 L 686.714429871533 411.9737987326075 L 512.5563698349202 429.083885315164 L 276.335718175531 338.11517322370975 L 171.18815166628528 216.81062167132114 L 250.40165294752688 216.71967186308507 L 395.68519461626073 391.5774360997536 L 458.2096075747023 616.8010477425989 L 415.1716637311172 696.1690737160272 L 375.3466100224078 552.8213492446536 L 435.7471615895865 308.1270378387182 L 554.4426520360055 165.39488696390168 L 585.7547509540448 217.16500954041305 L 444.2724844040931 371.85008167376674 L 218.54067451405018 467.314627516307 L 103.11752476962022 443.07968956887606 L 210.30054173472948 387.2664790479634 L 454.6488063749933 415.60506502936533 L 631.977394766385 523.5179527663711 L 613.5373696697825 580.0060919421801 L 457.808538049791 474.59766501885207 L 331.28528901404525 257.0737174997769 L 330.21611243275373 111.11294298243354 L 394.26464503196746 178.56713142262709 L 397.4393337869544 413.6657886879671 L 307.62043219741025 620.7378574953692 L 233.2517343350972 639.8651036476325 L 301.91592105185885 491.7769349472302 L 503.1478496225368 338.0206594134974 L 672.6819245468349 306.61792433401723 L 646.5373328836666 370.5690972357738 L 429.1898589906519 402.702209559968 L 198.83377233508403 337.0138937962151 L 139.79725427345022 252.89121961134086 L 271.71974065155194 286.19246601934293 L 447.14470077360323 464.1218886560365 L 512.1438346681623 649.204791283207 L 456.7236010315631 663.884501842644 L 400.04380173973146 471.9241616787249 L 437.1802913015711 226.0019445496495 L 522.564607320144 126.74941308973496 L 521.2843793010868 234.61843837619287 L 372.21304251466455 424.71254962188345 L 180.22059364773074 524.6084524598856 L 127.23564168652689 485.7687581162847 L 287.4540450874026 410.55705238654167 L 540.3844875596607 416.5852882449219 L 678.0978361781235 494.85850787552795 L 601.089939584868 520.4975356818491 L 404.37700363645484 404.08555983025815 L 270.3322268740397 213.95857212395634 L 285.3893904782583 127.0757241494158 L 371.8593585263469 250.8227085060786 L 397.48662860463804 501.82880093328066 L 334.0994945229735 674.274080148585 L 288.10360533202197 633.4717599812584 L 370.01007871392943 438.79729370271207 L 549.8468915491402 273.3706896576154 L 664.5825168212696 258.7073328361796 L 580.1575237596919 348.318288248703 L 339.89675246344416 404.10795452173596 L 138.22385978689186 362.3399801001677 L 139.24127132549307 303.62940481582376 L 323.09143029559993 351.23041680545964 L 515.2560892058441 513.1683981740438 L 563.9681409972296 648.4154162332742 L 479.7140841978531 604.1352377449484 L 397.21175722585343 382.8491374702595 L 412.05470482155664 158.93117766297598 L 475.1991483181182 118.55323967539692 L 459.6811690543519 283.1509695878274 L 322.0151688010353 495.78098337329243 L 174.48102972089305 581.0042493994878 L 179.8571044016278 510.5007232398567 L 374.9777297759873 406.4981255080531 L 613.0595160491649 390.8422137025798 L 694.3801133176707 449.9777610321345 L 556.6383301443897 462.43527217097494 L 331.10525787889196 353.82922265562365 L 208.92542328019078 202.65301873442488 L 257.8685846912009 172.3499894700242 L 376.68975470205294 335.5417327921299 L 424.4790448787005 579.0480629049654 L 377.4715700433186 698.816080342752 L 342.78818990493716 594.2877631367759 L 419.39183987343904 364.29162524989886 L 565.6292228103864 206.76569456777682 L 626.5918802281933 227.36980833437005 L 499.35598406427175 353.23483889591296 L 259.3453010313732 432.7546046147244 L 105.53338664969294 405.20363107926846 L 172.08903981997815 355.3509264166794 L 397.6919952386573 399.01170406379765 L 586.974108920884 532.2742074916877 L 600.0664808253343 617.3722728290956 L 475.58714042747226 528.1707711095899 L 366.76065181092673 300.26989686604145 L 368.74004290947806 118.48544734378021 L 425.8070854226738 144.17109745596423 L 413.983843580842 356.5935477961712 L 300.7379990624356 572.249685417653 L 199.16008245928498 622.6637670038973 L 250.30013579484987 508.1789893915658 L 458.2525846811885 374.36004010287513 L 660.6035514353732 346.2204670220327 L 676.6633761933701 402.10732263449637 L 485.6580397367732 419.04169001878523 L 250.51472286924187 331.46691661170973 L 161.1003295013186 221.75988166559404 L 257.2885813453455 236.85136624645406 L 410.132045777298 418.2181632947768 L 471.10402987181305 632.8022591954108 L 424.74782120445553 689.4136362687748 L 383.9281008719952 527.059855949689 L 441.8794808848486 280.4490251648664 L 551.1442016024951 152.4081540223659 L 568.1739861455208 222.77454285549302 L 418.47030746342773 387.3509610473463 L 200.45523137399144 481.87168300824885 L 106.48800845245552 452.8713225994759 L 234.35382775335395 394.54776240015445 L 483.715075606618 420.8442610427075 L 647.9648884315774 521.3607494182043 L 609.7421806060836 564.9024909481566 L 441.6431434172105 450.1087687731714 L 314.90544676546835 237.4493411853584 L 319.70182885731214 111.14480150813716 L 388.00647125589427 200.40244486602958 L 393.36498000864765 443.5741578450964 L 309.1664104460564 639.6944995952383 L 246.07777805620367 638.3736123397288 L 324.71357332281684 475.42410053017466 L 523.7291098504093 319.78515556072807 L 675.8099085037536 294.90360349575406 L 627.3418188994355 364.9576481943811 L 399.0352149378289 399.94379629055214 L 177.07355953756652 338.4677453481132 L 138.57141226169858 263.75122842999605 L 287.72095653306883 307.03622217675763 L 467.13712166809313 485.0724553531585 L 525.4762615712486 655.191864331646 L 462.141014502343 647.6411698581254 L 401.4640525181617 442.1382217096478 L 435.3410444018324 201.73079314102125 L 513.2673440325376 122.49234398727339 L 502.5298255582008 249.69617949347656 L 351.45486941156554 446.23462378828737 L 171.77998908182752 539.8915065109989 L 140.33933376637503 491.4937699291438 L 316.26874883291475 410.74669093759263 L 566.7608358848288 413.9529026717278 L 685.5817060288907 486.65417141196195 L 587.5091682909947 503.8352860611218 L 381.670685229599 384.025768566508 L 252.87302652143768 203.55190991002294 L 278.83640134884865 136.98583643005844 L 372.6695226359905 278.10701632920484 L 401.22594811213 529.8116990648259 L 341.7183454781892 685.0499141420241 L 302.8000716906313 621.9317011793971 L 388.9478091690839 415.3532121951001 L 561.677548769816 253.6322959454905 L 657.7851758095885 250.81858604018367 L 554.8908724949424 349.7877421068847 L 310.87351780468487 409.15527533352713 L 124.22623070261739 369.88745870307815 L 148.25649536347152 316.60636032770253 L 346.7485442384348 368.7265928935361 L 537.2456386082679 525.8566362869917 L 573.6570999014352 644.5214862478613 L 478.0157183921491 581.2770665437653 L 390.7804314735509 353.3902831117902 L 404.0890691052645 141.91473031052686 L 463.59227977645196 124.64580139604743 L 443.8259204133217 306.4454359312293 L 309.02866066739057 519.8613005833718 L 175.796188083185 592.8861641941297 L 200.03159228067662 509.0686797947294 L 404.26014950676483 398.73705338534177 L 632.768830976974 382.0232792322637 L 691.4997581790244 439.3107966405681 L 534.3028858449728 448.2910964721071 L 305.2207509958924 341.0657401238687 L 194.55396647346217 201.80972271233586 L 258.5029909215882 189.69397242930916 L 385.5982848037176 364.0598579753287 L 434.50535389326024 601.0179175072919 L 387.6826480641986 699.3131200919695 L 355.2821495041984 573.4968884077425 L 431.4776563641748 337.00244907664796 L 568.1398072254855 189.72340155109626 L 612.091209817504 226.67011187981984 L 472.1356790909251 362.99004916081884 L 235.63117715491344 444.23924570068425 L 101.6273770680827 415.46673466755243 L 190.79165244816946 366.38087780976707 L 425.8929798682789 410.0566353222146 L 606.7404966711798 535.9187290784057 L 602.6105466910099 605.5955139038404 L 465.3882011419199 502.70040986396737 L 353.6860258517831 275.38469507240603 L 357.924381738415 111.27443023753648 L 415.9423383568514 160.31241297731574 L 404.2320878698573 385.1450051822088 L 296.5041864140778 594.6597577207484 L 208.4554044881742 627.5062598374718 L 273.67232001400015 498.0192657348398 L 483.7088527740109 359.6924899822742 L 670.8855942343314 334.3899453782502 L 663.4607663064198 393.01551872757824 L 457.3571755584486 410.7113119410751 L 225.67324489844768 327.16836865843266 L 153.58854905580418 228.92336768537402" stroke-opacity="1" stroke-linecap="round" stroke-miterlimit="10"/></g></svg>