<svg version="1.1" xmlns="http://www.w3.org/2000/svg" xmlns:xlink="http://www.w3.org/1999/xlink" width="800" height="800" viewBox="0 0 800 800"><defs/><g/><g transform="scale(1,1) scale(1,1)"><g transform="scale(1,1)"><rect fill="rgb(0,0,0)" stroke="none" x="0" y="0" width="800" height="800" fill-opacity="1"/></g><path fill="none" stroke="rgb(255,255,255)" paint-order="fill stroke markers" d=" M 400 400 L 305.3971247891442 299.1786717186418 L 384.39856289346983 644.9010455948179 L 629.3075679395665 210.7559350028442 L 119.96218025838027 364.17495475519473 L 519.4609622894325 565.1062723173072 L 415.0623324599047 322.041240191723 L 453.16649431896013 366.4646493436434 L 215.17731886718542 351.9247281056015 L 532.1584121728162 642.4256299551552 L 493.5482365805915 115.8981071081244 L 168.98903019299226 507.48626450413036 L 542.1163442831429 457.04581141619576 L 393.81548948390645 384.1431223766131 L 452.9523298952495 289.06157250367716 L 175.87515497449348 471.3623511601443 L 657.2276797391198 543.5290903902023 L 330.33709691361736 120.94184682849891 L 282.9972376034687 581.5113418868259 L 494.1225250202352 382.7736817729873 L 437.09380673545104 427.3989682363895 L 379.20517155820005 223.6829597529698 L 226.7393969544284 605.78155258331 L 699.5039482572887 383.87756241669865 L 209.7251926601961 217.90706150030854 L 398.35146983197666 567.5190702452837 L 425.011274948707 376.98997348678864 L 506.9150854530617 407.8681005082509 L 258.95925449619244 225.63338947163382 L 360.2538442022854 688.1329137426122 L 638.2409684778244 231.16977967629043 L 177.14461658541163 354.66305114181057 L 458.6398172617279 495.0264034653323 L 392.3653803706239 428.2085328970349 L 544.3468337882987 323.14209448519614 L 152.8704547799463 315.921499312704 L 523.7926798007678 673.0502061272106 L 503.45638047323155 149.4238104787817 L 230.3805053450347 464.2393546202307 L 445.6651334293337 422.35092176223424 L 426.7941849759287 487.1072930657402 L 505.41509433586873 215.3723987841566 L 121.62950118666782 466.58825480483637 L 646.7265171575643 562.4994673185809 L 359.4324694411512 165.3264743225834 L 323.3742604058251 501.63087278542423 L 387.8336557956475 401.3136465740066 L 513.0304255633719 497.08423895972146 L 388.920971975778 148.01105817371837 L 191.36436509286958 613.7588903748904 L 677.8924371585526 405.469925717557 L 269.6335801363008 255.4662804308174 L 394.3809308352685 467.2995858370025 L 341.40513905155615 446.44954015242865 L 598.094008790199 429.3150532925695 L 239.98356696791467 169.41971323922206 L 337.7398197333232 691.3365955505828 L 612.4252975872835 271.78359520881025 L 262.8334133898311 361.42337798126084 L 402.20891979244175 404.2488373997013 L 355.59763153402673 526.4170565527916 L 621.9383256661947 302.001184081864 L 126.9415313454067 284.10325249448636 L 497.93458109982265 666.4772939429693 L 492.9517369357161 214.73017821158336 L 319.4653235224498 423.90755056987615 L 349.77133953496536 370.66227786714734 L 441.7696288747623 582.5373992595495 L 553.0675905965559 172.49963903896213 L 104.4503071025008 448.1007806873006 L 603.905184912613 556.9074013180937 L 384.65983157103415 243.51365904994057 L 385.6343529928644 416.3959966381028 L 281.524853962203 404.0412721705675 L 564.5720032342277 563.8206564084223 L 408.6667741357935 106.51128572949835 L 183.54492602923187 591.4088970555703 L 618.2999061336709 420.39160612298383 L 338.5226654196436 320.86055144488665 L 406.4598684433656 359.12939548732425 L 256.3650283545961 497.5987349910399 L 660.4000007647046 458.33410200861636 L 247.51146867309902 141.64854270735202 L 325.57248437519917 654.9866459245011 L 552.9164435277264 322.40239644803125 L 363.57786918473283 386.8031547676238 L 359.4354740552024 305.63099431901975 L 311.6332929556359 602.6286748591863 L 672.8421693370019 302.76290071867254 L 139.36558312744603 266.010682414857 L 463.4232811463369 621.6175836402414 L 459.5358712835372 300.33463764292134 L 423.8901381763786 394.7801262911628 L 268.54962259604116 309.6653930983804 L 439.0341189488639 655.6850079963044 L 585.032300547034 164.37987699489562 L 127.94400162801674 423.96893842283754 L 538.0648686370021 523.3905938343014 L 398.65254667141653 344.46176055274253 L 461.66845550069394 339.25609180311926 L 190.9655562748461 391.76770646911916 L 586.5226338554904 615.1593868088953 L 430.45191108771655 105.34255029361168 L 208.20386503970403 545.988168488703 L 529.7785911042643 421.8234379326602 L 404.126644276618 406.203590686984 L 433.0478863266134 258.9955785560319 L 183.80475182095887 524.7542148085632 L 685.4348156104423 486.37198630711316 L 275.88459257234007 149.33146631853853 L 330.6297541087939 585.7287376283239 L 466.60055509817244 372.1449805223302 L 463.9998167299431 428.6632522672775 L 335.80651865152515 214.11184796521985 L 270.03216946853536 646.8083928104622 L 687.7163597781755 320.7150072728232 L 185.98248845258036 269.2804419320128 L 429.8993448824125 543.6043618292972 L 405.50108738349564 392.1614766053044 L 528.3875997277883 381.69067381975117 L 212.8975608749738 250.06868083184588 L 423.06597474668996 694.9827662514894 L 592.27738631794 189.07070309526196 L 189.30660039926352 403.03765714050127 L 461.5469561941418 463.7260643218737 L 397.3705080328503 453.3989304055114 L 539.821297826255 281.17793291389944 L 129.50761240235965 369.352426861213 L 579.1596180650675 640.2452175540647 L 445.5875066271341 144.3140131662224 L 264.83144516880066 488.0081767978691 L 425.8103920195162 406.3178741242888 L 456.0667660450932 499.40905114337687 L 468.5227150091495 181.33743525746593 L 136.52069183335436 527.2456287127075 L 670.8418327095515 504.20858646250537 L 316.1754876343342 193.90380618483735 L 356.2608220866867 495.140670134962 L 365.26066480557375 411.61533234443726 L 549.3938561466446 480.5575379339981 L 332.2106759843165 144.19799630880868 L 241.12381041241588 654.453142295971 L 662.7204884450275 347.9918711604313 L 257.4383046572507 297.8415221684248 L 405.7150802579174 443.1057268869815 L 337.8380105223044 476.02785611856393 L 617.2871577697555 385.1590905277362 L 188.81073382562076 203.64592692928014 L 401.34551762446085 694.0425001546628 L 569.5802969859092 239.41357189637998 L 279.7156067329902 392.88976042680173 L 387.4054717451453 384.8806380323698 L 380.98340042405334 554.2538320237842 L 606.8672952525746 248.87631428245137 L 105.87724059556285 344.56773481614806 L 547.8052648651488 631.9692862594308 L 446.7193617199937 216.95616562428796 L 347.22955553659625 429.08184570268173 L 322.0304737254263 374.72129514015126 L 487.64455718808244 586.1352668521175 L 504.2952125308648 136.69388401568455 L 123.84729544092932 509.1637517439169 L 620.5505702136761 504.0351550150097 L 358.1802254402462 270.70780705251445 L 401.286709414562 397.66900163121755 L 263.7307181616761 434.6808651637954 L 608.148296606014 532.8287531228307 L 345.0735930666194 107.45439697113017 L 233.84268634749532 627.117677023897 L 600.3301077675083 375.44312147963353 L 341.0021197116391 350.78550685903343 L 396.18226683168433 334.65111725900994 L 267.1857409083424 540.0593672537558 L 677.1352511002781 401.4590296899433 L 196.6316533098624 180.9641848200109 L 382.56023207484975 652.7763094889103 L 516.8434993486211 304.60047074489034 L 385.76457368792774 398.1026488146624 L 327.05541878059057 298.0579461473349 L 353.84474275712705 632.3144934303326 L 650.3830154566227 243.90470324803817 L 122.76839381109511 326.3272941190786 L 501.4857002641089 588.515789614595 L 429.60156879465563 311.669459490107 L 444.30266132001583 379.6696143909169 L 233.6082870420283 332.1907042203892 L 496.84516866236527 652.2222404828111 L 530.5952740156218 130.05971281703256 L 149.85627172952954 478.19886721047794 L 543.9333760908328 481.3092297518145 L 392.5698002327908 369.5546457453562 L 459.9123160498082 308.12130892763037 L 177.4541131902337 439.520666811821 L 633.5589366822867 574.4238629626462 L 367.3956807220813 110.45504396663051 L 253.74224482477672 571.8656270709663 L 509.05898291179085 394.70496571704814 L 422.9103291338789 422.15743018077114 L 402.50372345851395 234.2598468454265 L 206.00028023955122 576.6003550077309 L 698.9578683219856 423.58397917427294 L 231.34228792917122 189.23118704926458 L 374.5712232032664 577.4357541607787 L 439.48536161225553 372.32968423444004 L 491.6885295821043 419.1560336184532 L 288.3323987731859 216.89146821934025 L 323.56110674433467 676.6441048384276 L 661.077896787352 262.74752765413734 L 176.48322097629324 322.63973351587424 L 450.9590344542186 513.9926322100831 L 394.24253510653375 413.7393432101033 L 541.7781249058685 347.1566828951231 L 172.7532629475041 287.2866526848527 L 486.3832070936277 686.1827692007398 L 538.5767729455367 160.23230148847247 L 212.44349872241136 443.82227040911766 L 454.0424795745666 436.0029105589506 L 412.7741384937393 476.28589089780985 L 522.5930014878675 239.169897098112 L 119.87818376863692 428.75472202312903 L 624.7246566140489 595.0860658201719 L 390.46495941312855 153.56994562264268 L 301.58902948623023 499.7712842935742 L 402.1256698231136 400.0530373282556 L 490.79981121253104 501.73915679183557 L 421.5964481146191 156.78877432904315 L 166.2727405401283 583.2857261553546 L 679.7609516071502 442.90686354925583 L 283.8144783427906 230.68295725318316 L 382.55916809172703 479.55979836483425 L 347.8005786495582 431.13296549108435 L 581.9851657240616 452.21677217747856 L 274.3124003983295 155.09931965105642 L 299.34187605169996 681.8274070352751 L 634.6434754101408 297.8638701389244 L 257.67498458093803 338.70540745008645 L 406.50873212548737 418.0022300661787 L 345.1773071538884 507.85129971331094 L 624.5622160073043 334.6208154339527 L 146.78572041736655 250.3083688492397 L 462.81080860218276 681.291844976956 L 522.3211286670477 220.24780268229827 L 303.4886756076203 415.18612671316606 L 365.26041917134694 372.97511309083563 L 416.23181289837987 575.0697420349536 L 577.7110618876017 199.31384928885817 L 100.1512650978309 408.6478932943103 L 586.3868196486108 587.499766425281 L 405.8876657738309 230.8155313365331 L 372.8332431277189 423.76958749742454 L 295.29343881857153 389.66292790871404 L 535.7836666192123 576.7060282766039 L 446.83552558006335 113.46934094246058 L 157.22313985191423 563.1031864933052 L 623.0012237083272 451.1905336116006 L 342.75589997874806 301.83808468159043 L 407.7320015244307 374.0196778510148 L 255.37857368759416 472.43339165921935 L 643.9660103837773 489.8521041183518 L 283.0896498564112 124.02508737188685 L 289.95998812403246 648.7442945012708 L 572.7631363586501 339.4528016010949 L 353.04906110089274 375.54967611092013 L 375.9346221827093 314.20424469944925 L 290.79139282780574 580.6523628097542 L 679.3148013476257 340.5100722409857 L 157.10604209220304 231.1902390196787 L 434.88896003245736 636.8857333306524 L 480.3320663941937 298.80647967441394 L 410.07770288305056 399.1655675234548 L 290.798671008075 301.3661789159454 L 404.7682095689722 651.0295948942166 L 613.7555612015335 191.65489242392528 L 121.53803872569563 387.56488641801707 L 527.7709740298188 548.9649392093447 L 407.51962011084413 330.80356779615425 L 458.0886225906616 356.2661477856938 L 204.26374136990034 366.0246185280109 L 553.7987248207269 633.8664761309477 L 469.56429366718226 110.07093821974416 L 183.40974165255898 523.4667871039333 L 537.9463777190989 442.536297303296 L 396.96445881677363 393.78725751076064 L 446.8655585036353 276.5116411612188 L 176.84837059753 491.9536527080079 L 669.7867960259819 522.5372239946698 L 308.5240836772296 130.51890336999872 L 301.73505049386296 584.2453993891853 L 483.07464849701887 377.57730118036613 L 447.7055827179907 429.48401276300996 L 363.1274075077688 218.11027409940186 L 241.8087239175596 622.9024705160307 L 696.7789181383273 359.26945419451897 L 199.22731508097158 237.37116706550484 L 411.56351452499536 558.6224298259248 L 416.20667739860494 382.40811324930075 L 516.5829050766392 398.9330274495671 L 240.49958028086274 233.10287943837523 L 384.03955352900226 692.7382063489314 L 621.5942188193532 213.68636812729136 L 180.84088103958527 373.9993221418412 L 460.6723803754048 482.25915726635674 L 392.90346010766507 438.6243995319096 L 544.5630436946265 306.955097575723 L 142.08500525050755 335.42644752933074 L 545.9979226175159 662.0762760685848 L 481.0629835550411 146.01399878879658 L 243.6244153357701 474.5078700051842 L 438.0446006987768 414.86837858744235 L 437.45415770245484 493.4945220870146 L 492.7837449290119 200.94644135961968 L 125.35024647456066 490.2262398781926 L 657.6038825955686 540.6630776741581 L 341.7840702979628 175.55775195831137 L 336.95109067476255 499.804491155454 L 378.068748489895 404.2216480490819 L 527.6946856388075 492.5262465696286 L 367.4923922138468 144.49602368768274 L 209.22381039190506 630.8400058499393 L 673.4405099437187 382.7695395868658 L 263.8400200832785 272.06162882563945 L 399.9602992081043 457.6427285825758 L 338.3227873954993 457.7932595227235 L 607.2379088596567 413.3454228846556 L 219.33232409589257 180.77708226733594 L 362.165948998685 694.1322587082113 L 596.3991024067249 258.10340815596305 L 268.93349829650435 374.5831220600324 L 397.1622820619716 395.4942457526204 L 363.9162409195464 538.3308567570863 L 618.1981883383469 281.24405605954655 L 117.0353320947059 306.6101572329122 L 518.1451563560295 654.3771201553685 L 474.5749374762585 214.58342985528537 L 330.8037674815397 426.93307010157304 L 338.60180390133405 370.6419173496106 L 459.04926444306454 585.8964134766325 L 535.6983057350365 157.19952859909634 L 110.19270926291489 472.13426866379353 L 611.665507637579 536.6466776213157 L 373.3598909202313 253.87340751394882 L 393.0413869151083 409.4072811720219 L 273.1032335690243 414.87759501909295 L 582.3227895972482 553.7238917671264 L 384.31801363760235 104.89165163246292 L 202.07301798837923 606.5353515455618 L 612.2117574066702 402.2345178783137 L 338.6888283547029 333.26423025690315 L 403.80551202585167 348.77115466745715 L 258.57064335826817 514.2375830004992 L 668.7518954778911 437.2613040263696 L 226.8373907198381 155.28837959875742 L 347.8374944774393 655.5057035732625 L 538.8446355177743 314.4523885507126 L 372.3118323135635 392.48574622298236 L 347.3545972045174 300.9623017789825 L 326.48926139509985 615.5809729190174 L 666.1368306848736 279.5625406886476 L 131.35029633347085 288.8649042481645 L 479.16003569360214 609.4519257963352 L 446.9747323603447 304.19316651303114" stroke-opacity="1" stroke-linecap="round" stroke-miterlimit="10"/></g></svg>