<svg version="1.1" xmlns="http://www.w3.org/2000/svg" xmlns:xlink="http://www.w3.org/1999/xlink" width="800" height="800" viewBox="0 0 800 800"><defs/><g/><g transform="scale(1,1) scale(1,1)"><g transform="scale(1,1)"><rect fill="rgb(0,0,0)" stroke="none" x="0" y="0" width="800" height="800" fill-opacity="1"/></g><path fill="none" stroke="rgb(255,255,255)" paint-order="fill stroke markers" d=" M 400 400 L 111.03615193610409 358.7706361528003 L 270.56080749121145 362.2956609656454 L 609.1765373443195 494.7127173962613 L 603.1966301051314 529.3539449418981 L 310.13093601394746 322.97077468690736 L 205.02018942506774 177.89551572138419 L 390.07602989908276 384.8108198246513 L 521.5375442224985 660.1785253303749 L 443.879038180346 544.2545739204489 L 366.72789623956567 185.03658458335883 L 397.02569156555876 148.7671522175495 L 386.8569198707368 500.6203359421822 L 320.01995334365245 687.1910488984311 L 385.4513181272412 433.1708442439657 L 548.2898962964346 160.85468287751618 L 506.6526168036099 272.54662225865883 L 247.82846878670858 536.81088581412 L 183.45245061842604 545.1696034487161 L 475.8733584902012 363.45682797437416 L 685.583056813221 309.4248284068038 L 453.4266235383352 391.0817588772371 L 125.49287241997621 406.50060947923504 L 220.2683425502156 378.6841375178319 L 584.5796884297752 449.05678104284675 L 647.79727854511 505.20360456430944 L 342.9471319229429 365.55083232201 L 167.6724802511647 210.2195971237536 L 351.2913959411417 347.09586471362087 L 551.1611733851037 619.8136418163767 L 486.74730257485334 574.7871425562479 L 344.6072172730306 232.26385185993217 L 351.2110969247338 127.61564601559428 L 401.7339792025104 448.803468645425 L 368.2741573842839 697.5886367739928 L 378.0623850526182 486.66189368788713 L 498.0006465212156 161.35367520055544 L 505.6790080959762 220.20372098217416 L 299.220283763481 526.3986671545891 L 193.9269044333647 594.2879941349009 L 425.2052149981498 382.22378614706884 L 664.8709119400263 264.6126374844321 L 500.7743804577809 365.3921536573752 L 156.1718832482387 446.6595597630825 L 179.03338560406092 410.47130296870057 L 545.4274373667956 413.7649119802147 L 680.676708895073 467.5253212547568 L 388.159443995942 395.3006742879283 L 144.30015215358287 253.75195253690828 L 302.6761255545548 324.26913952813874 L 565.0352741322104 570.9455801081415 L 536.5709388632616 588.8592699130618 L 339.4837999760531 284.98683320975834 L 301.5287046087352 123.94440916237136 L 398.92000656909323 394.69714819925906 L 417.19059428069806 690.0841338181074 L 388.48902719608924 539.1560874918662 L 450.2801963759391 179.56169477977596 L 487.3411680378944 172.1005363909179 L 344.8820118714506 499.0714164369842 L 220.74187321599237 636.0837915397458 L 383.2573885433299 416.551134155988 L 629.394604939838 229.94487304573835 L 536.6887515070891 325.9996073594847 L 199.52904245084798 474.19631435848646 L 151.5639098655185 453.6677778707424 L 496.1228552060871 393.1609081150909 L 697.9303346992585 421.0969436671179 L 440.65263257964125 408.7675810403284 L 137.87450131535633 303.084884953616 L 249.88716475794033 318.7973265642316 L 561.2204774654482 519.4322376949701 L 587.339626963909 585.07264620353 L 352.20088716146154 337.0922594069336 L 254.14235208239165 138.0365560848045 L 378.6956798041809 344.46646679879274 L 460.6566849099038 665.5192091456745 L 415.3360432620073 584.6419077927552 L 410.98684017828253 213.5403456338856 L 454.10257746173306 133.89476595093691 L 379.40433433258875 457.79951940852555 L 260.4472391339176 665.4414077870133 L 354.81024257240205 462.53562371935703 L 583.4764010251121 209.82498880509954 L 557.1775912449916 277.6101800949672 L 250.51361599384873 485.5657373219896 L 140.9307243490182 502.9212274121067 L 442.27700100110076 389.81394708980014 L 697.5110592154688 371.7392581930035 L 494.44226059651214 404.44367304755116 L 149.35080433698818 352.12247101009433 L 199.08295372304102 331.07673979795914 L 539.8848958348696 471.44212943132624 L 632.9259338860584 564.1559886036994 L 381.472885545876 382.54419082311546 L 214.9447175941119 168.06227378176092 L 343.4210535166606 303.8138083773728 L 493.2102585014403 626.7640676004269 L 455.24748118868087 617.9405323152938 L 384.970850007845 259.4745732578133 L 410.20362071897944 110.06912709113965 L 398.71004016634686 407.2157119324341 L 308.0589365649009 678.7234281004655 L 343.0322554586123 514.881263317792 L 532.6785273292537 206.92424915158244 L 560.0867995516617 226.00674180402152 L 303.1701467342176 479.1512742879324 L 148.20157644010908 552.1542559720556 L 390.04031726425075 404.2323860468321 L 679.4732269056237 325.62224700532687 L 543.3877920661524 382.9455804821368 L 177.55442788269923 394.80707267909673 L 156.18955600941393 359.386162587198 L 503.28416377860094 432.7192738970294 L 667.8155440451598 528.878127202121 L 424.03851078134124 416.10327902104416 L 188.85502184304818 210.2969210551901 L 297.2543229160225 277.2993657820281 L 510.69055667814894 578.3754205034495 L 503.30660995945277 635.3229349370122 L 375.49642192078784 312.12724606697236 L 361.15618349266 103.39716719218501 L 400.5399004577755 353.0630683452544 L 357.65297223080466 674.2041200862893 L 349.1024886638615 567.5303969508636 L 483.1402951940253 221.86332150461212 L 545.356952147821 177.35981965538255 L 351.3481387074953 455.4576665297937 L 172.31395974901375 595.2887084894064 L 345.3697472167185 434.8031518256399 L 645.9661460290339 288.5297321861675 L 581.9242934512987 346.9409325756793 L 219.32076016691596 425.8412856691788 L 126.1944791888713 400.0920334179859 L 455.49270731814124 407.8986684610746 L 687.7644251453801 483.7179697064141 L 475.0493776094126 433.95109709757486 L 179.2327365879425 259.5649346057826 L 245.65630086130068 267.7977738022141 L 510.7341470884603 526.0534755189894 L 553.6218914655863 634.9542137736355 L 383.8526368635214 365.4632059910865 L 313.0867246858944 114.61275529864855 L 384.72189132376167 301.5106698940266 L 403.0714565259553 652.2751276453557 L 372.0701357697815 614.3855518832531 L 440.8464521128707 253.13823926901927 L 515.0303073146639 137.49224687287943 L 389.4349832206877 417.05086832997563 L 210.20178480442314 626.9700631667135 L 313.3189119268961 477.98394450819256 L 600.9779542557636 265.1700387941072 L 605.7255405237473 300.8304269553204 L 269.87228856788687 441.31928945717294 L 112.55234270494407 448.0815275597541 L 401.918266889648 399.9539283305779 L 690.3046147397613 434.33067544569974 L 528.6477266128638 434.1451369368739 L 187.47716893939952 309.85664140609333 L 194.73965992219314 276.15561142667923 L 493.0566482618183 475.96265650231123 L 600.0291217636884 617.1121959360398 L 409.1997983368141 413.3684197192313 L 272.0061089542099 142.3226424369849 L 353.19168210442336 258.4185054686626 L 438.65650781212304 615.3988368289924 L 408.9678899963305 650.0360323279067 L 410.9139543092172 297.299558450169 L 473.0073538393607 111.18524526589414 L 413.0247834813661 368.2523277263068 L 257.16081714607026 643.2055891478763 L 297.4359373677395 528.7253493001753 L 549.8603510002071 258.6148256197206 L 612.2195078936563 250.22336697210292 L 323.3878867988109 439.19236054720955 L 116.7732199050269 497.3719239902504 L 348.65752840840156 409.84291479884916 L 675.038352550004 386.87365507764247 L 578.6644395090982 416.850251068527 L 212.86063915212938 355.04447141144834 L 150.54049069334752 301.0905889856131 L 459.4866923355502 433.99700358212766 L 636.8260670877048 584.154267703613 L 448.66945886085506 450.37852889231385 L 243.09321443096633 183.17251077855812 L 309.7619471920929 228.63920686940006 L 459.9245698130386 567.8149710491382 L 455.16562011120584 670.4026704394828 L 396.98215572873784 349.3633577387943 L 424.5819125448443 101.60863605930462 L 419.4433735072709 314.6240633794365 L 307.4093333086837 641.8402194905411 L 299.34069271609843 581.0725534077691 L 498.690834431039 269.9329585509844 L 600.8948099990869 201.26916758494824 L 373.6964693289136 419.5130734252947 L 138.24271178376796 541.8236389211527 L 301.7696523113311 436.3935834048364 L 643.6855066011545 347.27271707026955 L 619.3541600647596 384.3189580667773 L 252.61513224439005 389.6132190661933 L 118.29898522873333 339.34443409406225 L 413.748078273221 405.07779621944314 L 659.452047554885 540.2363830003248 L 497.7062150339722 472.32997746231763 L 230.0776885966378 232.246723457715 L 259.66799275979577 215.43983124623497 L 464.10078325092934 515.0353808717491 L 504.9222069275449 673.2238992354369 L 400.77908502404193 403.4051029379869 L 375.8101936747784 109.94308117029567 L 408.066964482062 262.30590126648525 L 354.777180947239 622.8134293288252 L 318.53182066083554 628.874960926095 L 453.54844578518976 298.0630581164192 L 573.361574802071 159.92449468531908 L 415.01234982078677 384.4290876100997 L 174.29519435848505 575.871953239221 L 266.5542745710227 476.4436555535542 L 599.8786413603966 320.5158147762122 L 646.079915812168 340.622958522373 L 302.26209713299113 409.3173278596993 L 101.8349670136252 386.07125685879674 L 361.0160764973474 392.56710195338485 L 665.0314821231494 490.81773613065656 L 550.6105392558161 476.85612096406464 L 234.7954096939675 283.6541365962148 L 208.94384635047768 220.11259725597608 L 450.4497302944584 463.1872346104678 L 552.0697776609626 658.3252218316607 L 421.9154975890916 453.26560454113167 L 332.78899999369827 135.23937268566164 L 380.3964452735428 217.28385311810322 L 393.4411273500727 588.1665068727643 L 352.4465560234226 666.519140481375 L 419.78933100404726 339.9399098176549 L 533.1594958522726 131.24337335133242 L 442.6246704583975 337.92726118634175 L 220.5315107318847 595.1902334115999 L 246.9200207504448 525.2174688402373 L 548.7301497373212 310.05855873647744 L 655.8656537671649 291.16785701529176 L 356.1460909242779 411.6868688966507 L 103.0926859708785 435.4151125965388 L 307.30076038352377 397.86713860510133 L 652.7166201838168 442.0101272623054 L 601.2179585178118 463.6691960543211 L 256.96962965960023 331.23016193268484 L 163.70316113841176 241.82096374006508 L 420.3631367715943 418.28288211223975 L 590.748797478344 627.6399641805408 L 457.9312456009753 493.28493906174947 L 300.92909262574256 174.53153910650198 L 339.8784826836003 184.67682439379712 L 418.6188643678911 541.7993507423412 L 396.76620405021356 689.5977597847573 L 401.4084514800877 390.8596728694524 L 485.3359372946747 118.77486329992013 L 453.45874243756185 285.35858496564657 L 271.34324826533737 597.2056093726685 L 244.9187876663338 576.8950965814352 L 496.2230340973545 317.4123397159509 L 647.7508441243458 242.04892099876756 L 408.10867364300606 396.32191567912207 L 121.90912557396678 481.20793352051993 L 258.73085338170125 420.2531941986979 L 623.7886162303103 399.84955720743716 L 643.6336420942264 434.5945478419017 L 294.243879930745 369.2714147958368 L 129.41062997301208 277.699393809032 L 377.1940806018253 385.50340252959154 L 616.106416885936 584.9788382049927 L 504.58844012490385 518.9768722492906 L 284.3103131153209 223.19028941936577 L 291.49474103828044 168.12665525632153 L 427.1389647303076 489.00577623574475 L 445.9308743102119 695.4347897418279 L 400.56350925600265 445.04036520453934 L 435.8443693394085 124.14008095134835 L 446.44240232697246 232.8005511620921 L 320.58112240660296 581.4056557050438 L 260.5012925989389 625.305914208949 L 448.4979373030484 341.96414613334883 L 622.9048935919334 199.3246512388481 L 452.2222449453968 364.9402342586573 L 156.03343305677356 517.7046564045216 L 220.82343614632498 456.9600156351289 L 581.5049024589453 369.57685604005854 L 672.934856850623 393.35303613250926 L 342.4627187379059 393.21539894301077 L 110.23073526913925 323.19491536281936 L 325.8574639196088 368.5812161439419 L 624.8748524300935 535.5757766502992 L 556.3764689679936 527.5634127611081 L 285.1953122502003 275.4746748367261 L 241.16817409610513 169.36418373616863 L 417.8188676742418 435.8427083750007 L 493.8021290082512 683.4043892075599 L 417.31782081690363 496.3108314025168 L 390.834823045393 146.83897467043232 L 422.63372538631506 186.3329435108265 L 362.28781542979266 549.3995287030765 L 291.52302138607314 664.6639597709939 L 411.12138874752316 381.0495483779725 L 584.4877336677531 168.2947329051781 L 483.4963710377347 321.17260548403374 L 201.3951572086227 540.267940564967 L 197.82654313685973 503.5113711182872 L 530.711047991614 355.0130735176423 L 685.7575781281951 345.11755139527185 L 396.16686306976095 400.18422978087955 L 108.53144464710505 372.60977404044473 L 272.244360870892 369.35533477855745 L 615.7608746904693 485.46416281832194 L 607.1686869828163 518.3057932037107 L 303.75983491842777 325.2162263257186 L 195.05714186281347 188.00304360593213 L 391.605849079916 388.4084353802057 L 534.3945774655897 655.0054686896899 L 449.6327813700685 538.8460888049888 L 355.9209213984677 184.30987991208866 L 385.09487617943546 151.31335337586412 L 391.4079372153168 504.72627355520575 L 333.9998665456278 690.2574551502519 L 388.4224689682005 430.2701524406621 L 537.2731976570722 152.86841436260153 L 498.472428382025 270.13017091734946 L 252.58932768232867 545.9208778558658 L 192.21299185356835 554.2535121583925 L 477.26335970014884 358.10406644990024 L 680.6973494097679 295.8964907469715 L 449.24370013004574 389.32760011614124 L 124.60199723968981 419.7805102761759 L 222.52003361665862 387.55225188395 L 589.5999880136492 440.7577903020408 L 650.9525206119552 492.59243533369914 L 338.0717031462048 366.5540388146752 L 158.82147287963622 221.58577018807213 L 351.4641766012752 352.11593356314904 L 562.5892321607244 613.683047199962 L 493.610817646582 567.8614201685394 L 335.51083508237895 232.23475705783986 L 338.5271298011334 131.73875904957833 L 404.39050157674126 452.43314578493386 L 382.58299084444604 699.0103173095708 L 382.97694293716546 484.01769172602974 L 487.08006884960946 155.09858438688894 L 495.635700131145 217.7953620785855 L 303.5205685993484 533.7018278489871 L 204.38576538976497 603.028962134563 L 427.33103364732176 378.6885548482181 L 658.4766200732604 251.81766553854453 L 495.6556564334359 361.9241169850249 L 156.61841225975516 458.81253439078597 L 182.38927241962693 420.8185837559539 L 549.2569282704574 406.92224122365775 L 682.5459796479179 453.7734165712783 L 384.32100193935224 394.63320162040606 L 136.94793582896062 265.8767196213424 L 302.0218975764151 331.0478619648047 L 574.7436152098356 564.4176912778248" stroke-opacity="1" stroke-linecap="round" stroke-miterlimit="10"/></g></svg>