<svg version="1.1" xmlns="http://www.w3.org/2000/svg" xmlns:xlink="http://www.w3.org/1999/xlink" width="800" height="800" viewBox="0 0 800 800"><defs/><g/><g transform="scale(1,1) scale(1,1)"><g transform="scale(1,1)"><rect fill="rgb(0,0,0)" stroke="none" x="0" y="0" width="800" height="800" fill-opacity="1"/></g><path fill="none" stroke="rgb(255,255,255)" paint-order="fill stroke markers" d=" M 400 400 L 563.5292958094351 476.6014646839452 L 584.6129298963874 621.5736493194613 L 471.0635635909745 670.8573576990543 L 371.3339981947488 556.2109088515789 L 415.31615328079914 378.52611570681455 L 575.0620451744735 301.3488973706111 L 693.7194731058052 377.90210879382323 L 651.918205318959 495.6802354692893 L 494.5294872802845 497.5358083202989 L 382.8887784708876 350.31556252129803 L 423.3365796982101 181.49096184127697 L 554.5671777668701 144.73574840309576 L 613.6682585669711 257.4757268854713 L 510.5249402143129 383.2747130731804 L 324.90936892003856 377.764852371945 L 222.8632057973621 242.76248968224053 L 281.3199408531516 124.50912400420856 L 407.58077449680104 157.902275119788 L 439.2952944405264 322.5217827348395 L 318.4709476718489 463.714004733102 L 154.24365997126475 456.3199010460171 L 107.55158781734639 336.8127989866687 L 220.42928420896413 263.24484676782276 L 371.5960258909707 345.68819102395935 L 405.59592269626063 527.7066068941901 L 298.0308607424981 645.0781505755693 L 181.02227978898958 599.3224243187426 L 201.8220972718111 461.3845801846312 L 365.1001066083651 395.1637318245499 L 526.8193643742454 482.3234196872442 L 546.268290596742 634.8876744216268 L 434.4815214407122 688.6762208708437 L 341.12845647712857 578.1351974606051 L 393.88415370501735 406.47009886710083 L 561.3131954402404 336.4159918636071 L 685.2655226326816 417.88249795426066 L 648.3478880300315 535.8913413455879 L 498.25134083608805 534.1760917192878 L 396.6274050621624 382.8320461074078 L 446.94475161670755 211.5127532855746 L 584.5593757449591 172.77996984149246 L 645.9989713751972 280.9992192518297 L 543.6946083755681 398.2054585190821 L 360.14366530940197 381.93367113236604 L 261.2358193767442 237.6211637228639 L 320.9490728164378 113.33160587025344 L 443.9548873289556 142.39453013251534 L 468.45358814689746 301.44467745079123 L 339.7230684857051 434.96615440923125 L 169.59818835047162 420.23060647458345 L 118.51785834034695 297.09459956167547 L 225.64232459440046 224.5356972363908 L 367.82571560607585 310.2350657328857 L 391.0853230646611 494.65075767108107 L 274.6146917631888 613.0306014575929 L 152.75994236325613 569.4168224213479 L 171.57503136580698 437.490169689461 L 332.6578831471735 380.9706491535841 L 490.51865616639736 478.35090641319874 L 506.32143662130227 638.5593759170966 L 394.4046838207877 697.3553894521373 L 305.6780297916199 591.8765170779391 L 365.62563610284826 427.5614427872539 L 539.4043818239186 366.21508766663067 L 667.6840192565328 454.3469006019752 L 635.134680016147 574.4749314148128 L 492.2709940727242 571.1928583670206 L 401.00113975986216 417.7702417847287 L 461.8678719999865 245.90550640569774 L 606.8845744978055 206.90654264166412 L 672.038028972461 311.9998507737803 L 572.2799591553427 421.6847119187359 L 392.7282977920555 395.4076953496075 L 298.9743746098745 242.19260379649148 L 361.9260987761667 111.85109522861478 L 483.5769099809283 136.0942946454917 L 502.6585671963541 288.6417457512928 L 367.66340414631736 413.2148417811205 L 193.0121103326385 389.6176207021932 L 138.52418897346752 261.13966947976763 L 240.42860589277913 187.6963508823906 L 373.7387166221092 274.6176135995271 L 385.99929381638515 459.3656535646932 L 260.0145869184712 576.8095739773545 L 132.3299534901522 533.6341969542717 L 147.7875150268999 406.30053379036383 L 304.97146175285934 358.3474318486358 L 457.06771858312703 465.115128881575 L 467.25080902562956 632.5070164509003 L 353.2419761349778 696.3046930205453 L 267.2172181337403 596.3614988764687 L 332.504069224142 440.28863697518943 L 510.94434034592535 388.8606955484109 L 642.1608974095773 485.1173186716311 L 612.9909478067617 609.0554457002552 L 476.79566300346 606.1160581056554 L 395.7019843884666 452.6715080908016 L 467.29583404287325 282.3266154503133 L 620.2664322315517 244.98903868154412 L 690.0988874602135 348.65946476038556 L 594.2568675620373 452.2820782203499 L 420.3876234112714 417.2064554755165 L 333.6486514387137 255.9878012924216 L 401.7709538985824 120.08987850580996 L 524.0248244897482 139.53372418723222 L 539.6514644417673 285.13288427488527 L 400.2934243077075 399.92499661071366 L 222.83199089931506 366.32818351520734 L 166.33256799100067 231.09715935824548 L 264.0192134353896 155.08419067269602 L 389.06951608203445 241.299761447453 L 390.58790083538014 424.316665424431 L 254.98492050453947 538.7768665203033 L 120.95730149604236 494.13117690576973 L 132.1017812806724 369.67324966242523 L 284.03025027132617 328.77158983472384 L 428.718714965964 443.6499869112564 L 431.474892581119 617.2774858901427 L 313.4733566429958 685.5614441056955 L 228.17948932911364 591.1160766584826 L 296.80128250431636 443.6854863855967 L 477.9658736786105 402.93519639091073 L 610.3936026120418 508.3860615892393 L 583.2059701085956 637.5141335605081 L 452.6500260033354 636.607878344333 L 381.05338163914706 485.0791540349093 L 463.03679228716715 318.3050512623233 L 624.0070878868909 284.64778105397755 L 699.0087892945098 388.79275386354084 L 608.0281586650517 488.10191508322987 L 441.16772208128896 445.8061444942871 L 363.03108957785395 277.91968929216773 L 438.07847020948657 137.44321077663386 L 562.8205317730299 152.61598502027317 L 576.9888520415922 291.3341378710127 L 435.3092837751376 396.00882375384526 L 256.99156268673283 351.7317068642682 L 200.20242318097047 208.73384180446064 L 295.0746013022019 128.78613983034046 L 412.9384675749189 212.59856148957974 L 404.4699919102249 391.95221202084576 L 259.658914741373 501.4079673545051 L 119.28262679074123 453.3038045913125 L 125.63769540489517 329.8207124811479 L 271.3857767346194 294.17559419275955 L 407.3892651765141 415.52492383113855 L 401.1953441185314 594.0107559847162 L 277.4889858816067 665.7880295674173 L 191.03941345344444 576.2963187156454 L 260.9693614423157 437.3938569729154 L 442.7938827585489 407.58079971783525 L 574.4809398266076 522.8329590117669 L 547.5623446102564 658.1264743865916 L 421.22278795808256 660.6144567078538 L 357.9892373241505 512.6979129487534 L 449.52954608369924 351.4017317824819 L 618.0323723201587 323.4042078618666 L 698.1848555035417 429.9889718769493 L 612.5273052317937 526.9062917788077 L 453.5632360957209 479.23853056029196 L 385.24131010760465 306.3737512284042 L 468.6743588448045 162.7185813623451 L 597.5905793542563 174.62148655105304 L 612.2011952782747 307.03063020992636 L 470.2513770958651 401.76659677772165 L 293.1458437926906 346.6309800813483 L 238.00352969029024 195.31955103048935 L 331.771429584856 110.48326790643642 L 443.9088191613289 190.53379237346218 L 426.65796028774844 364.5448300478795 L 273.5400730415889 467.1314347768622 L 127.3206941212677 413.6321402899025 L 128.9200541013759 289.16665443506344 L 268.0509448205662 256.8214875369439 L 394.5379937101401 382.7430259636657 L 378.2541905069781 564.3658551280445 L 247.43422215655224 638.2289468898437 L 158.15212895620763 552.678375247383 L 227.4714951685838 421.68696744389104 L 407.8944466565715 402.55517746386926 L 536.7868819786584 527.7109415497431 L 508.22038783034367 669.6740207174782 L 384.37664817794433 676.499171611388 L 327.9933325094602 533.5429428151988 L 427.81500417420466 379.3678184467647 L 602.8965533173284 358.84165060121256 L 687.6719064445532 469.76827267328974 L 607.2876961305483 566.2601581110857 L 456.61510474612646 515.2187064489003 L 398.86810941991183 339.3128517858364 L 491.756211660927 194.21311390449543 L 626.2201003375367 204.25451882246188 L 642.9531017651755 331.3904307157172 L 502.66399970556563 416.86715691706974 L 328.8233382350027 351.2101402242143 L 277.35419819300995 191.5448647239751 L 371.92079136602206 101.34172826874175 L 480.0798892410589 176.69684727547437 L 455.6218581087956 344.04365653758134 L 295.5344712769398 438.1713237503796 L 144.45947208236925 377.5194163178844 L 141.84449311169396 250.1889507628582 L 274.43423691713775 219.15410931385878 L 391.0698601530083 347.6109855050653 L 364.0143616514138 530.4131662083488 L 225.0705002090853 604.6300729937702 L 131.60055637321574 521.6081935491911 L 198.6221024935217 397.4517159507444 L 375.71474286722724 388.24716331614786 L 499.78717513901245 522.8944367821993 L 467.5780284527274 671.5234070937615 L 344.3275135864115 683.1488624782694 L 293.003056636412 546.0686854774935 L 399.46858187661235 400.29066774029576 L 579.7463065963857 388.76209538775106 L 668.1395571803732 505.7425325947062 L 592.4729811401761 603.6893043961718 L 449.972852722093 551.2933870505279 L 403.06101020807057 374.40948828739863 L 506.0103736475211 229.8240789649415 L 646.9899756554246 239.72726913600044 L 667.1948686085057 363.0184581270862 L 530.2547563244555 440.3693826606536 L 361.58644384294644 365.0227833574013 L 315.77577735068746 197.47636918197037 L 413.1101585416901 101.93710328809601 L 519.210344765084 172.14741598656911 L 489.3886998503355 331.94789507260407 L 324.02181186425287 416.40288284171874 L 169.49987959143002 347.1361766556752 L 163.68421530485762 215.25891198152254 L 290.31313391792617 183.6424591892945 L 397.27741442413264 312.5893640095589 L 359.2713098485591 494.5000356001484 L 211.661119615105 567.1254036307258 L 113.0602728305484 484.9142635619883 L 176.43660952607928 366.1311884001954 L 348.52419447175623 365.6514990198407 L 465.908693065311 508.8874405204145 L 428.1152846441472 663.6673983486655 L 303.5007941481025 680.0460877155782 L 255.28370770036867 549.2692239448785 L 366.49791716634985 412.7179681361345 L 550.246250491165 411.3287559268929 L 640.838775935471 535.7702217125639 L 568.8665232834608 636.8408636223567 L 433.91739082232573 585.0001329288972 L 397.585429414798 409.19688169376764 L 510.6971031572705 267.1853487696003 L 658.688320134833 278.8757665868004 L 683.2954947048867 400.04692329873757 L 551.043373707133 470.7832369662998 L 389.18965984194705 387.0209881219037 L 350.8534460147375 212.55241020234376 L 452.85983666804873 112.21706592023088 L 558.8635831671929 177.34466457299283 L 525.6705126720249 329.209475695224 L 356.96063044292504 403.23088425533695 L 200.73362045019113 324.27951476497265 L 193.13710271616898 186.4874894579777 L 314.84847637573 152.61949131923762 L 412.8217883410557 280.1328718377721 L 364.2014498693164 459.0984129874158 L 207.88935326180982 528.0986120220025 L 103.6908146574255 444.78905507131486 L 162.50062575528426 329.63107858001445 L 328.26715102763814 336.3042661882041 L 437.37196424690984 486.790739669122 L 392.2334160843653 646.725314024691 L 264.37410447020727 667.3027321333 L 217.28151524584365 542.7436262985776 L 331.21254214881554 415.7520080481626 L 516.4708758635948 425.18520770359174 L 607.5207242388308 558.0952754980409 L 537.8206430155976 663.6359419640736 L 409.34284957551375 614.0271690445393 L 382.83788369118815 441.2291039572435 L 505.69849454229626 303.82094051590946 L 660.6890588693631 319.3002317212194 L 690.148527948337 440.25644308628375 L 563.4902623178588 506.16643119362067 L 409.7253291492467 415.62336843518176 L 380.3928625285228 235.61960540167058 L 488.7837776272928 131.50478030224997 L 596.5657852392885 192.1173778970705 L 562.0128253751025 336.1712242477572 L 392.0208290093328 399.4984812545142 L 236.05405585039694 310.25654262073954 L 228.41015579253892 165.58837291997108 L 346.63883525407164 128.1307341145726 L 436.7546568411582 252.531026724444 L 378.3507651015627 426.64440760599354 L 213.81418922685725 490.02840920625914 L 104.06046069762795 403.6468392182108 L 157.8670068308821 290.1960918126255 L 316.4366617002192 302.18319299679945 L 416.04708874611424 458.230413384656 L 362.0991869583724 621.9028013974084 L 229.31657751811858 645.6527832468514 L 181.46492246664926 526.7220364646794 L 296.0739660396035 409.1079584072531 L 480.7698831623545 429.54335364215456 L 570.3231446364479 571.4609565455038 L 501.1689474227715 682.4044745595911 L 377.698624433982 636.3634291294762 L 359.82024579803146 468.23985219911384 L 491.5260538701438 337.30568590568475 L 652.9924956613577 358.52072505303147 L 687.2438796704932 481.21996712999896 L 566.5964854540789 544.2504339285227 L 421.7474591900841 448.8177398474136 L 402.5625072868509 265.0077489049721 L 518.7443161589395 158.54282072221915 L 629.9663840436967 215.67500226609616 L 595.9539615762724 352.54455291470384 L 426.73493634958373 405.43250656003846 L 273.09292108623015 305.7996517912751 L 267.3357812034889 153.76686250555647 L 383.8113645773253 111.80155748536157 L 467.5797439626732 231.75953001554888 L 400.66431899827234 399.3801709753114 L 228.8665776221539 455.32773954929803 L 114.10937658525 363.96711923746295 L 162.98748293811497 250.26435139812293 L 313.9775306233967 265.57930415982497 L 403.33239336897566 425.25225161401255 L 339.5043445461464 590.9135671627316 L 200.43521620197708 616.4047451432582 L 150.1644254779617 502.0508189827572 L 263.53589671882634 393.13238830823775 L 445.61566397591406 424.2345137910826 L 531.6316674567025 575.1913187052954 L 461.1074327337549 691.9935567376139 L 340.8953927898182 650.4290903895638 L 330.0747222751176 488.2895679445484 L 469.2874362175727 365.422602196986 L 636.2252413574811 394.1379955418378 L 674.7009467768102 520.4601791870558 L 559.9686495060178 582.58764889289 L 424.36558736479225 484.29173823963885 L 416.0124829761432 298.63824835332025 L 540.9907905403714 191.57475937167558 L 656.990538199844 246.65887175328126 L 625.1848016859411 377.42811949624354 L 458.6582815284695 420.6287609205439 L 309.3740158908519 311.01906464097965 L 307.51238315115893 151.64172562304643 L 424.14324123063 104.73169964725969 L 503.34988291083175 219.35200374587953 L 429.5547570227832 379.20836524063253 L 251.88642589083764 426.18724485955266 L 133.15351128340342 328.1338290528879 L 177.68328893039796 212.3092543519389 L 321.2249445597394 228.94824191290718 L 400.0636983643392 390.1889414652098 L 325.74943081401904 555.8681460774368 L 179.43825195383675 581.3567774201625 L 125.42136144768159 470.13772158687135 L 235.88496777107568 368.7808123639973 L 413.44282293190327 409.7203242074021" stroke-opacity="1" stroke-linecap="round" stroke-miterlimit="10"/></g></svg>