<svg version="1.1" xmlns="http://www.w3.org/2000/svg" xmlns:xlink="http://www.w3.org/1999/xlink" width="800" height="800" viewBox="0 0 800 800"><defs/><g/><g transform="scale(1,1) scale(1,1)"><g transform="scale(1,1)"><rect fill="rgb(0,0,0)" stroke="none" x="0" y="0" width="800" height="800" fill-opacity="1"/></g><path fill="none" stroke="rgb(255,255,255)" paint-order="fill stroke markers" d=" M 400 400 L 403.32798348526643 571.5431222246896 L 118.7215029883119 410.91786869867684 L 383.1192304489851 110.24764209404879 L 594.1039643658369 384.90891226506966 L 402.8245958833942 429.0314117725616 L 545.8418727051892 382.9488350208348 L 436.5587836138584 667.5837110601782 L 107.31315808301144 445.7880832685067 L 362.4889449944446 187.32347869513634 L 456.97167892279595 388.8079952308464 L 374.43968228762316 282.0336346399347 L 649.1830785663246 340.92580944996524 L 474.71327001100576 689.9721172597094 L 173.43688075959182 463.0862444671254 L 375.21290325929766 317.229249102028 L 311.0353651052827 428.533671150645 L 322.38598375832595 173.23109386083772 L 681.711108612205 297.4351460570646 L 490.85215136604137 635.242563788296 L 294.54078237696865 443.0978589735157 L 425.8579415994481 459.927130678899 L 198.8153447769298 491.4779137797546 L 271.70820761983526 131.78437917520665 L 638.3897689085402 280.238235314192 L 465.4346788717296 524.1848188726728 L 431.94564886109765 382.367401369595 L 500.1416386801739 573.3931761312897 L 150.00540409753734 550.9230595638365 L 251.2750009176529 164.11199988884727 L 538.2445416122888 309.04368413337835 L 395.83388108502277 393.92778623832066 L 544.440445723685 296.72320731744134 L 569.604216882108 627.734945519627 L 172.16672915596007 576.6497490602229 L 281.2984162581331 252.88890352411192 L 416.72054287044733 385.9643685510516 L 299.23680830041314 284.5838255805425 L 602.2756809421015 216.37040774709422 L 602.4830192306108 614.5307264886678 L 249.54722376135985 547.6255502835644 L 363.71155142130436 364.42398743750636 L 312.587233858471 492.693392122293 L 207.53114325399872 225.4236853394689 L 596.4831521475238 174.74941837330917 L 576.6388909248468 548.1459483861486 L 350.2141287796056 461.75555890548475 L 479.3692050139661 461.4841768195297 L 254.31927622495851 595.7869975307303 L 155.9063334750262 225.62796296357533 L 540.2797112916015 195.3510857301626 L 489.4791332655866 458.81675562855867 L 438.60622089961646 338.70967052639264 L 593.4569349395615 516.677836087797 L 250.96809137610154 658.3013049438255 L 169.3992855827874 272.8474613569972 L 462.33035067265934 281.5836398810216 L 360.86446674801385 380.3601792258638 L 488.66061952159214 214.435691529193 L 667.3371047542247 521.418903130692 L 290.73896150383774 653.5169002281366 L 252.5212806740984 339.80386922871213 L 394.7014167890982 413.73708938591466 L 227.5957485173764 337.3150806183609 L 492.57475606938846 129.14054802383936 L 672.534405276974 487.28125030335775 L 347.5037243438487 575.5729773749649 L 386.04943160352815 396.12192389995414 L 360.270306291495 554.4702760484295 L 131.26562354924482 336.412431007951 L 462.0431842985324 113.06300783045748 L 601.6423601231548 439.52257536522666 L 392.4547522858286 442.88679101732714 L 532.4356865851146 420.66014431533483 L 364.4491699736104 661.0405973486113 L 103.8177729304553 365.5004378777548 L 421.7654410116933 175.2936475755374 L 471.9839063836239 405.565518216126 L 406.1951320478376 292.8717777555499 L 648.0665584933346 409.52223154580287 L 394.3100640407528 699.9219085342856 L 156.1023742653616 400.1045648016652 L 398.0141454059302 299.85181732286827 L 320.50111692919097 403.11989654532124 L 386.4838359587507 169.7004348459472 L 698.0151812797786 376.701537513291 L 425.26198233113377 658.4947029471015 L 273.67898013892454 414.8237760178539 L 406.93345151120377 450.586113977424 L 191.59256856937444 432.69491016896853 L 348.6283313029924 109.46615900736032 L 667.9491302540243 347.24245731092236 L 432.4640515330201 549.5188180739135 L 421.4766954228761 394.89876289204534 L 447.289920717989 583.2133294184412 L 122.2403695984213 477.470185609826 L 318.44608132928226 128.0938672973096 L 568.8700214095394 345.758377746644 L 402.30841381064613 406.73518629734343 L 555.6647873677528 343.2502598635833 L 500.6088857979032 660.1736284426443 L 129.78202447190705 510.5647919832855 L 320.6643880006672 216.3520580389962 L 432.9891476748003 384.98288669160127 L 339.2836879536994 273.20199558783963 L 638.438132137141 280.0858872206136 L 538.6957655497765 662.9495280559509 L 206.7018720721643 506.8002426712767 L 367.4530971451091 343.70145645065264 L 302.30117417493443 459.0384641602873 L 265.34341582691445 186.62828646328254 L 650.3758206304461 235.11441992876658 L 535.6004536080987 597.4592450655197 L 324.212374419919 454.2382539288095 L 451.7776016466804 469.461848530649 L 214.08160887279104 544.2788575183018 L 211.85391742709405 167.02831342255288 L 595.9766850498684 235.34911654531373 L 479.27490680686924 490.7245241819452 L 443.1491970156969 360.794605476799 L 548.4163243569293 557.1120767395861 L 188.60612069927433 607.5994416614559 L 207.14325357403243 211.09161175187748 L 500.54881178231926 293.28538792589416 L 378.20645382490966 380.2494778002923 L 528.03763694909 253.08905808921946 L 622.5112079132632 586.4563380075722 L 223.47733839840413 619.1550635086534 L 264.47538291223486 295.1073906729067 L 399.8542702366629 400.19602832991194 L 260.1828148005643 300.20996455451865 L 559.0995335918461 167.68202570751296 L 642.554695773553 559.2880738008809 L 296.40555886858806 564.6205609203702 L 375.2244515460474 385.07184164029064 L 326.5669048684815 527.399995433159 L 163.35140513252753 269.64495084775996 L 537.8558083177712 137.82632791162064 L 592.907312946805 496.7053162859512 L 375.0952387145852 452.18250120478774 L 510.12480194793807 449.9594330283002 L 298.69327090549507 635.3381626987034 L 122.7275945858209 286.96486109797917 L 484.486807580708 180.67978296767572 L 480.9944266815569 429.409669893885 L 430.25307689585236 311.36000652988304 L 628.4342204706729 473.049859997956 L 314.2370488277815 687.2815467132589 L 157.13481199186688 332.59879970125587 L 428.2745476136824 289.87199216312405 L 336.2475011326305 384.94382851929 L 446.6499205532241 183.80503003352217 L 691.8234274496766 457.0684581604704 L 353.9059181104392 662.6561503428003 L 261.512186910849 378.45652978196046 L 395.0589717180584 436.3973970532065 L 200.920452180594 376.8975458919735 L 428.0344386746901 109.27371687227469 L 677.9484090170881 421.3700282206291 L 390.52873413223256 565.0075518450127 L 407.6027005742717 400.28857147959155 L 396.70442492223265 577.7307337687365 L 115.96927781115596 400.2435417032205 L 394.16230209678133 111.83330419579403 L 588.6902325302044 392.51391791737564 L 401.27399178444614 421.54936081421624 L 552.9507426553309 387.9765212841627 L 426.69839118721364 671.9881966399639 L 107.07316530359316 434.50229475440256 L 371.31139192847087 191.3542892783286 L 449.96309847165173 392.1398514951699 L 377.7235119078224 274.3289881396543 L 655.0515320103668 349.6683200068641 L 463.54209250733976 692.0502105233979 L 175.8757867393214 453.33646635060813 L 380.2010316818346 323.42936992477695 L 303.0828779597868 427.07602907481584 L 329.74875736463906 166.14212670606787 L 685.5704958553492 308.13870952569084 L 480.50005432178136 634.5445757841646 L 299.62790240070865 436.6407880679844 L 426.24006383348706 467.7701722883301 L 190.79531084456536 485.7047781576104 L 281.6087734702545 126.26761715418723 L 639.516130207903 290.8449772964839 L 457.7512897225919 520.4733233998686 L 439.3260643967148 380.20120350956023 L 496.10818286525637 582.0197381183116 L 143.01763222564978 542.1306244575057 L 261.7791460075275 161.14658215505784 L 536.1194862252488 317.6646102993099 L 392.00646441062895 387.34577037793315 L 553.326127849258 298.9324514922932 L 562.1833034482233 635.9519353568871 L 167.4168259539331 566.6015563013032 L 290.5328171408423 253.27645113270844 L 411.24264762616275 391.26760607036977 L 299.606002571978 275.79621654198024 L 611.4337761262607 222.20807044702843 L 593.2269399836773 620.943321307524 L 248.1116331784278 538.1248134064845 L 370.24965301810585 368.5336076833317 L 304.2512240299838 494.1107959662544 L 211.6334620347502 215.64806742914928 L 604.3740087687281 182.90707748998125 L 567.2289594567403 551.4216453193592 L 352.74283464415737 454.2700340135018 L 482.45247821582564 469.03204272103903 L 244.27300162948742 593.5067519414222 L 162.7006563455129 216.49896443537617 L 545.3431814232671 204.3165181619331 L 481.36928443703147 458.0220802152998 L 445.0590543234647 334.14398686545695 L 593.0168615627695 526.6376813758595 L 240.8877176665322 653.083866819129 L 177.58329373547278 266.11588155867986 L 463.35753188862844 289.97122310226507 L 355.05565233247995 375.268052798065 L 498.18017792485927 213.08680554848942 L 663.8506897226233 532.1280385026423 L 282.5217592615774 646.4217841253719 L 260.82957162349726 336.9356027660063 L 391.1844521573027 420.50294567219305 L 224.57649914989028 328.57311148171084 L 503.56634286997155 130.80701683182565 L 666.7946118461452 496.74563679516524 L 342.84446576407777 567.6979963395336 L 393.45020622591085 397.90856833326734 L 352.61397032008585 558.9783762208901 L 131.09178718581614 325.4953571964135 L 472.46934578706333 117.23211927470277 L 594.5383648044208 445.85529775573707 L 392.4210580065212 435.1971246008454 L 538.1950444035504 426.9636630772426 L 353.9607839700747 663.0057669079633 L 106.26002512125984 354.4341327934648 L 429.59109000513547 181.31804057600456 L 464.36224585601474 407.4410396038662 L 410.9295719412794 286.1458879172476 L 651.7066027110952 419.24388324346046 L 382.9493558212843 699.2976289564357 L 160.7792304968359 391.0227360334833 L 401.6836428924316 307.0511444255421 L 313.1298299795729 400.11173007351647 L 395.1295664804208 164.565075067097 L 699.2314923076249 387.99982041791736 L 415.20801402091365 655.3825449836777 L 280.11756092108243 409.4756907138022 L 405.74376573946626 458.25734825943164 L 185.19779042782457 425.3937836538816 L 359.5097111130521 106.45598657378792 L 666.5598804855911 357.94792887907715 L 425.6159582795389 544.1507367418977 L 429.0911225313367 394.24622061497627 L 441.5514580289471 590.584174856973 L 117.55065226304737 467.3444858736424 L 329.45789943280886 127.66690893457934 L 564.8418671353236 353.87143306463463 L 399.85925042167764 399.5321896985006 L 563.6915665838688 347.26683435466657 L 491.54918349899873 666.3652921955423 L 127.51398184814843 499.6033054175688 L 329.7597456426791 218.82133021017646 L 426.53671811827775 389.1154275958544 L 341.48398193178144 264.86414187406854 L 645.8975504561975 287.8094213203927 L 528.1393769473987 667.0141703873435 L 207.45202582885716 497.04221093393573 L 373.09240022776754 349.09244161379144 L 294.0088431023621 458.6804560123829 L 271.5109325742478 178.18307879536653 L 656.1248927784256 244.926216792955 L 525.5243068385739 598.5236925612618 L 328.2710051161612 447.3255241555652 L 453.218518259592 477.3537519299665 L 204.969731225174 539.8286058450028 L 220.60968724186648 159.77044221415926 L 598.8828671323942 245.38686503343797 L 471.370018229043 488.2189878751063 L 450.3008260554903 357.66585850989793 L 545.7799112382718 566.5463693388509 L 180.07192755213697 600.1713466525198 L 216.78756301576877 206.3859331430558 L 499.7586262448284 301.86382797858295 L 373.564520265945 374.1501123420078 L 537.4379189509466 253.88337049814206 L 616.6324172770401 595.9862850214622 L 217.08218198293 610.2443899894124 L 273.38342687803606 294.08456342186525 L 395.0795501485219 406.1195327080307 L 259.17614005271537 291.19886572333405 L 569.30714203948 171.84824747181912 L 634.6901988657215 567.1990520964375 L 293.54032927316524 555.7392472733854 L 382.14966194958424 388.2994002974359 L 318.28553249717646 530.0987164830494 L 165.7063073593009 259.1033179498978 L 547.0518554805873 144.3715344327831 L 584.408030460669 501.3729584556794 L 376.6113658880196 444.57315847238164 L 514.3429040232021 457.1979902831029 L 288.1738532364409 634.8250977589727 L 127.73010971140258 276.7629046882786 L 490.8489992897751 188.45614798365375 L 473.0442739304419 429.704811596557 L 436.1749763776844 305.8524102952482 L 629.7241283180351 483.19163655394385 L 303.34623585822845 683.9869976272782 L 163.87462603055423 324.7137324864206 L 430.4126028986439 297.80681402820017 L 329.72886131419943 380.562870159764 L 456.07282974844844 180.81893244693046 L 690.3377682062222 468.30512258440734 L 344.7269949425441 657.2274560956497 L 269.0761311758508 374.51330068619114 L 392.38523169052866 443.61055302875997 L 196.40884483854873 368.5076796053095 L 439.26091508234526 108.91771424300805 L 674.0559980243316 431.56506746366375 L 384.88603414762537 558.1560472959573 L 415.16768931711414 401.1530843433071 L 389.6228940971434 583.539702008572 L 113.80822728954632 389.3829182013278 L 405.0574572832529 114.02215380409967 L 582.865881487314 399.6864036352235 L 400.29537882925473 413.98847269928604 L 559.7800464821274 393.5236749950959 L 416.54551606045703 675.8496740014363 L 107.4553606672988 423.24938300278836 L 379.78638656982855 195.87547393194907 L 442.7620894124449 394.92610207543015 L 381.56801079877056 266.7948173093811 L 660.4447482693515 358.7981969721459 L 452.28724908123104 693.5096943659497 L 178.86688807690797 443.83527168580724 L 384.69138138033674 329.92827560420125 L 295.1858709755398 425.03836118964125 L 337.5789048134271 159.443573348541 L 688.8372968742552 319.0395950880355 L 470.2875944416645 633.2528327084543 L 305.1089231499301 430.61402866259033 L 426.04537820179735 475.67430369284017 L 183.06700942423612 479.4021510600089 L 291.8131502824203 121.29595386035345 L 640.029003212099 301.42700256545595 L 450.41364550276535 516.2876335610854 L 446.88132422530964 378.5861420799431 L 491.5033475145308 590.4633904107906 L 136.50779583463486 532.9390676833768 L 272.3751407189212 158.79181654908405 L 533.4577886839436 326.0382725498398 L 388.68302586022344 380.4822550547223 L 562.143766319699 301.7331557942518 L 554.2827256755752 643.775299141088 L 163.2522764164139 556.3476919677621 L 299.6286406242551 254.24289131028877 L 405.38771357620266 396.1337347963877 L 300.5641734970631 266.9600678036427 L 620.2965255495453 228.58813843364553 L 583.658398499114 626.8173701637738 L 247.27539734533346 528.6478552057017" stroke-opacity="1" stroke-linecap="round" stroke-miterlimit="10"/></g></svg>