<svg version="1.1" xmlns="http://www.w3.org/2000/svg" xmlns:xlink="http://www.w3.org/1999/xlink" width="800" height="800" viewBox="0 0 800 800"><defs/><g/><g transform="scale(1,1) scale(1,1)"><g transform="scale(1,1)"><rect fill="rgb(0,0,0)" stroke="none" x="0" y="0" width="800" height="800" fill-opacity="1"/></g><path fill="none" stroke="rgb(255,255,255)" paint-order="fill stroke markers" d=" M 400 400 L 116.92832095658468 330.38614904645283 L 522.0395326213493 463.88852820252345 L 569.7068319522741 549.8724440700047 L 260.5495397057205 198.87261518674856 L 360.45374433716404 296.5420339729528 L 436.73460868498864 694.8011130084419 L 403.46344290299845 370.57595250796203 L 499.27325245065583 134.89720771522468 L 307.81401005630835 534.9086407040263 L 246.6223060391537 537.3194978177719 L 630.1195494038092 277.5299223867213 L 480.1546269386041 379.7091069555217 L 100.25529274346502 402.03840196253464 L 457.35310453110156 413.69152537298646 L 641.7287438858264 524.4596930459865 L 258.659684124444 276.87935183407893 L 294.5303503839199 250.07042985116982 L 499.5947012881047 655.332361695536 L 407.01525029694784 453.339791801606 L 432.98734561084507 102.33060691833384 L 369.7949444770026 482.36175821218256 L 255.87194780456713 614.0329249228191 L 555.2495416256925 259.09094231845575 L 539.814790081661 324.365751452187 L 124.4116621031281 471.76199245252695 L 375.6130073461105 400.3317008875434 L 688.666261599579 466.83980454935386 L 296.8394854996109 347.76981471226526 L 216.70256335436198 242.5102221831642 L 533.508672699679 587.0718573755781 L 449.1942544260101 523.6300505064412 L 359.8597025894835 110.0617564753486 L 399.4562993964701 405.230911079494 L 301.9294025239437 673.1463287011209 L 478.7344057978239 281.3441823744072 L 564.0495216062898 249.05654097106245 L 182.90126083298233 519.3572558899453 L 297.74576831296633 427.3703963073211 L 697.7052468426864 393.925652800291 L 365.9897193014792 392.3683244062129 L 148.17857966441568 274.64687553825445 L 528.0009558956816 508.4745744304709 L 518.4651512189732 563.6281368162181 L 301.0129114999722 156.07745951347732 L 388.8336034087818 323.19252333510605 L 371.0227530450643 698.5164029886971 L 421.25393602877523 339.51332209663974 L 547.5442242685974 174.3289328073381 L 259.94526031307464 530.6354861676851 L 243.62903117041532 487.3601583174273 L 666.282301106342 326.7800776164036 L 448.5990488950766 398.67771063600367 L 107.67999561075356 336.4902049189602 L 483.3030211026719 440.7625728813239 L 595.896948586392 563.7373035062672 L 273.688656759991 228.0089256725149 L 340.9400432095337 257.2589470694299 L 443.12880030069925 683.1224016832916 L 398.2800042575198 419.06639353268974 L 496.0424732052513 120.61200954621029 L 334.76640156898907 501.2727482343302 L 226.69553744488476 563.8670044595035 L 602.7808965733077 284.8955802559115 L 523.4975356730588 365.1367217031265 L 106.35833175598083 409.98818801201236 L 410.2917632164504 402.1628165951174 L 660.3033044657692 525.187158129112 L 286.5649517632501 306.49007141357237 L 268.94818501420286 224.07434110313807 L 497.411077913862 630.972569038245 L 415.8757085444205 499.66032353253513 L 424.78526237597043 102.66935740774204 L 387.23038035616145 437.9851649640018 L 250.28704941555935 635.9327857291187 L 524.2552078167342 280.900407786119 L 571.6035514130132 301.04379310023717 L 144.76697577117534 473.92975546500946 L 327.5373968722237 402.95827056872383 L 693.9952851038333 459.698562595568 L 337.398618061104 370.41571461818694 L 192.6131421833379 231.3966143383015 L 517.8786837306532 556.015973168958 L 469.0492676982108 560.6633352223395 L 354.37147887712484 125.59022415624622 L 403.31261605756373 356.70655857981336 L 306.74821089738487 683.7660074355603 L 451.79967838752754 317.1284522396254 L 581.1036695365543 224.03211208947536 L 212.71073402260737 509.705332840998 L 256.2624252465582 442.6960229121236 L 687.5845315823838 386.29991114766074 L 413.6331357012315 402.6719376985049 L 132.90838498650095 275.9921933197605 L 497.7294186023016 478.3552059073827 L 543.1096191577335 586.7557454195264 L 305.16358683019166 183.40745351385843 L 378.90604570669365 278.26325948516865 L 379.50638316752526 694.1159138042811 L 404.82159583054846 384.98432040210326 L 550.6590717702147 155.28155895336297 L 292.01384244140706 506.361007757014 L 214.58044225543466 510.31049317884873 L 642.5326594921006 326.15924480788783 L 495.8068199787809 394.78268840186627 L 106.33069899893923 344.5152339026364 L 441.19796487901095 418.78829162050283 L 617.6556425880217 572.0884083689746 L 291.7575130325437 260.7174602386585 L 320.9360359500566 222.72047443618413 L 447.5727295047312 663.8706432546005 L 395.7718081523614 467.27597420794075 L 489.7678550979241 113.76759791853067 L 361.45485556538534 463.5739934221014 L 212.57907032482512 587.1282728001737 L 570.7546683721799 296.83540836417694 L 562.8359240697263 349.2109549882872 L 120.42063274319275 417.1325487796061 L 362.4072786383556 393.1618074071087 L 672.1158390707254 521.8696897885179 L 319.01829423278946 336.86238402821425 L 245.47968786185828 203.93530949290235 L 491.2423947526349 600.9024686507481 L 426.7643183345194 542.8815751233489 L 416.1848651672991 111.10868204966755 L 402.5284732888505 391.7414776778385 L 249.58213286411606 651.9387111176466 L 491.384044496608 307.5091998265171 L 597.7381796659048 278.6896918027776 L 171.7147407447375 472.9099949248851 L 281.53506902043534 408.06847768854476 L 691.3343098544641 450.95007089468186 L 380.75790405269015 391.53886744854725 L 173.40018874305485 225.7954314678983 L 497.4460432703448 521.9306192380955 L 489.0026177602016 592.4833735252971 L 351.0996344382006 148.41122555155914 L 404.4698314739069 309.1587317168815 L 314.33444609735113 686.7534610003238 L 425.57790887710854 356.4893708235656 L 592.2426982418282 202.76416530293653 L 246.6856374325655 495.4977864096398 L 219.33625629184277 459.0574491302722 L 669.6863071527343 379.7886975343614 L 461.41426242908756 410.3105404889154 L 124.68158941263306 281.1646603218687 L 463.2996832024461 447.98197903801844 L 565.1685224579202 603.8117557688515 L 313.38173168077304 215.96880949609314 L 367.1770413626231 237.05268846882086 L 388.05905367011866 681.6911289460407 L 390.77273704356713 431.67065981107424 L 549.0345353693447 142.4845568623495 L 325.41461505304056 477.5710326465182 L 191.50869147415887 531.8431988248752 L 612.6058858939001 328.89705422874937 L 540.2755374079487 388.52744033897915 L 113.00225118121529 353.8217882961856 L 396.8889134848909 398.6821905879369 L 634.1248854668747 574.9755655591747 L 314.4560496034744 295.89729420137917 L 301.2384386215261 193.819492070452 L 449.5567903593652 637.6607296444367 L 395.95036006584866 513.8194922474439 L 481.02446619441844 114.68990835260308 L 386.99962213868656 422.81978828109163 L 204.43197862760465 606.1848277860133 L 535.1108619472155 313.26844003263136 L 597.1027411961769 332.5881503147777 L 142.02040219058898 422.866188740295 L 315.07465056732974 386.92726587568126 L 676.6552857334054 514.9744386550615 L 355.1995140699716 366.99034246029737 L 225.0571436568513 190.03066079008252 L 480.9635198944188 566.1153223219218 L 439.1996406587426 581.7952024837056 L 407.8422466887495 127.43545677962851 L 415.23020710075605 344.948267316925 L 253.4364105930029 661.3824181126947 L 457.72558561597356 338.3057782470999 L 617.6239519386756 258.20195737390486 L 204.38036408556073 468.39398504315204 L 238.91613153499938 415.38248945296334 L 680.6822299143462 441.25404087952415 L 425.70183391033777 410.47696305465803 L 159.85368447758435 225.56380880349482 L 472.6018176171109 485.94272206336643 L 508.2358873354113 618.2890915376638 L 350.5055254758316 177.80494673558013 L 402.9885441163691 263.95495771254997 L 324.0720425259351 681.8980605804328 L 400.9085947156822 398.3534584349663 L 597.4083493671335 186.12289459570138 L 283.7092827758112 476.90356255269467 L 187.95395692731364 475.7592450275053 L 644.5469996807985 374.96802206985154 L 507.9552546103463 415.1177638870743 L 123.90359032636155 289.63700355352364 L 425.609748666935 418.33753207366976 L 583.7369727259373 614.5230300464217 L 325.71192563714635 252.70193078852247 L 354.18155772466196 200.70367343596607 L 396.03331821149004 661.575308369923 L 379.4981725686476 478.23185195240563 L 543.0681718432864 136.5139788996127 L 359.06220350151636 444.96269625216996 L 174.90546312794015 551.0661239533747 L 577.4605868134175 335.23318020442383 L 580.7429843494456 380.25616029473053 L 127.57458811645097 363.73742874310193 L 351.63296426825264 381.04686258519797 L 644.5903194106786 572.6318241115109 L 341.3041342762085 332.4052012983941 L 282.67952849159894 171.2596324450144 L 448.6736178972628 605.31137352615 L 398.6839745983508 557.3578443228524 L 470.46223572678565 123.47188915288837 L 410.6085462544802 380.14157999100485 L 202.21275684913283 620.2230851387799 L 497.00327585489197 333.93769750970483 L 625.398968569508 315.9960628571637 L 170.51092240921346 426.64914963689375 L 269.66371827715614 383.5521611790109 L 673.626070226695 505.0824756585896 L 394.13933786367215 395.92296920934365 L 208.5493743186778 182.5284501768529 L 466.6123945771527 527.7280241446933 L 452.5985229486907 615.3325621712539 L 400.388805718891 151.1987664396828 L 425.0159676726237 298.9584163832573 L 261.380702061645 663.7858107252335 L 424.3517970200761 372.51213802667587 L 630.8750972162815 240.45779877494564 L 241.72932416572647 460.2148207458746 L 200.88508573622332 424.49540255508634 L 662.2797492275057 431.28802311681125 L 470.9415038269489 426.69200245929096 L 152.6053624471129 230.38216533806198 L 443.912425691602 449.20206497939205 L 525.9110115210041 637.479093908552 L 352.9373062367374 212.86058512804178 L 399.069762388691 222.39538792991854 L 335.2846107404687 669.2259570817961 L 378.52999120428467 441.53995928956175 L 596.7399774146659 174.85735058577725 L 322.60057106916554 454.2668930292127 L 162.92030069984256 492.04848833830016 L 612.9183884045754 372.3353869282095 L 551.9050945383285 417.07427187238284 L 130.7568651601493 300.78112589299985 L 385.69295518570664 390.33322055736943 L 597.9906645075932 618.8265812321395 L 342.03252067774775 292.44207500205425 L 340.5450502011162 170.20252970562194 L 402.8210430100588 634.3335856980747 L 371.2440687816037 523.3132945701759 L 533.295033910999 137.74501756199408 L 391.90707493157265 409.389378566244 L 165.04865499558096 567.125555364398 L 538.1985203272848 345.2587372966958 L 616.071719952782 370.4301579885339 L 149.68787972181892 373.5871152755583 L 306.74071814748754 366.35152254854546 L 648.5091960700989 565.4589060727266 L 371.6526603351575 369.09453928056934 L 266.09493000075736 155.53613776674072 L 444.6389118978031 567.8179317193369 L 403.704812618696 596.6400505282369 L 458.77641423876224 139.96784206657492 L 431.6032405906141 336.7602863465884 L 205.68695513572035 628.5659730264259 L 457.6303564134624 358.4133031768415 L 647.0198397640722 300.2052941419813 L 205.0414271932932 428.03236260791147 L 227.49598714811214 382.9827291520779 L 662.9611683054812 492.8617731347693 L 434.74818895051243 422.79603235555754 L 196.7280180090059 181.38751298539324 L 448.39475931648974 486.9433863571797 L 466.2995726928989 642.5970789605134 L 394.40244944982624 181.72362363192133 L 431.7145214172207 255.11751065339132 L 272.82038124121823 658.8807208893323 L 392.28105811323815 409.20574529311773 L 637.322625472236 226.27899051004118 L 282.6018101101412 448.35946851176334 L 168.50352398806456 434.89441357019416 L 636.6033371956428 421.7169957383794 L 515.1549689405214 439.78702397761333 L 152.10332788516396 239.77172103425968 L 412.1052688417904 412.8425799123483 L 541.2031129064098 649.6672995134325 L 358.61140456302803 252.50642732863346 L 393.0449611143721 185.67200514266975 L 347.2657584849332 649.0018664955879 L 359.05528916397657 484.7973523064777 L 590.5635668612653 169.5657303240934 L 362.1537184589029 428.10087043839627 L 144.8351355747442 507.1446450627339 L 575.7433588851011 372.28593817269757 L 591.9822651679681 416.3056374602513 L 145.1915703364645 313.896638691691 L 344.6867267174484 364.7791750109807 L 607.218401807348 616.8659222879094 L 362.0541086191653 333.95838297689806 L 326.9580600444491 146.349436910577 L 407.8811836566419 600.7455454615888 L 366.1060153685908 565.5891264428608 L 520.3625383237369 146.33556226792265 L 422.9703449084561 371.8358691156727 L 161.99824283915882 579.2399101509532 L 496.0279408414341 358.907145589358 L 645.2841589240272 359.60825593694835 L 178.75245821058743 382.72333745163684 L 263.53495356401027 354.91815848901365 L 645.5329556487295 554.0069268450632 L 404.70108628973674 404.8534441175826 L 252.2904669324122 146.9238486495973 L 437.3074673837432 526.3196848986086 L 410.62162901461346 630.5424751665593 L 446.6767722932758 163.79553954392424 L 449.4403552032483 293.9481403847453 L 214.44138344783497 630.7004502340778 L 418.1952450989138 386.1021877841412 L 661.4744481148497 285.9983784122172 L 244.58451403975573 426.6795500197311 L 189.80281247483822 385.02362228003216 L 644.8277477715113 479.0374430683506 L 475.84967507962244 446.85989748677514 L 190.23650349167295 186.3646554353056 L 426.6824518619413 445.010134226094 L 479.59024589140466 662.890814393674 L 390.3811150941281 218.1319517031557 L 435.3058571428961 214.72109687994714 L 287.0624392837248 646.6218921468449 L 362.4448671316912 447.34707454911916 L 637.0147592656955 216.39893930446289 L 325.75107612340116 432.97487564519275 L 142.65756243379923 445.98066414086895 L 604.3514920394828 413.16381427481963 L 557.0291964980356 449.51696432297234 L 158.59249707275055 253.11732927429392 L 378.0481529091193 377.944997478789 L 553.3336490764984 654.6912468563942 L 367.59915658140784 295.5449311096053 L 385.36065880031623 154.83130163895888 L 359.31006791122365 621.723054714297 L 342.95407524403566 526.8428336436986 L 579.3744613317967 170.6703137820797 L 401.17808998897215 399.0745177228059 L 134.07732248239586 520.2712227603683 L 534.1255577688753 375.092734172211 L 627.0153583950319 413.07422778381886 L 166.92372393687128 328.2415579908841 L 303.7971287096965 342.3587755655222 L 610.8513281148175 608.9804266143445 L 385.32446865844827 375.99451446202124 L 314.147699031578 129.73510308468116 L 410.7647001937697 561.7808538556618 L 364.0292821036811 603.8044978257417 L 505.00174251860767 162.21680760815008" stroke-opacity="1" stroke-linecap="round" stroke-miterlimit="10"/></g></svg>