<svg version="1.1" xmlns="http://www.w3.org/2000/svg" xmlns:xlink="http://www.w3.org/1999/xlink" width="800" height="800" viewBox="0 0 800 800"><defs/><g/><g transform="scale(1,1) scale(1,1)"><g transform="scale(1,1)"><rect fill="rgb(0,0,0)" stroke="none" x="0" y="0" width="800" height="800" fill-opacity="1"/></g><path fill="none" stroke="rgb(255,255,255)" paint-order="fill stroke markers" d=" M 400 400 L 383.97693946709165 334.2444111247098 L 282.9127819915118 460.66485378332766 L 524.3758951303142 542.654416655299 L 536.6245280137696 206.47398171123504 L 146.68187347061343 300.08038302626716 L 359.9805934752848 690.9514016713313 L 698.3577648863238 369.36236952213073 L 302.68677784292066 126.07338977279335 L 177.15088909971792 546.1198814590628 L 566.9896159482194 556.0084951917495 L 487.6535201395721 244.17386389171673 L 284.61952002223757 367.647510533999 L 398.12103811983377 454.66286997240366 L 387.0165305276115 402.6948985559435 L 434.56928273823297 472.73476930493393 L 511.45567237218603 309.3724878780195 L 241.17899471169616 279.49274558136426 L 302.406167099713 624.5028612814314 L 673.5589680613116 447.2537673319429 L 379.88933172020836 104.57478392908018 L 114.65417928916304 490.4569546762589 L 549.1041797296973 645.3899872877712 L 584.0095837921699 216.12863843735838 L 212.31864364460455 285.7676212588823 L 349.12292049917187 560.0737078990262 L 507.3030338108994 407.3855183093629 L 392.949176376357 358.99808381298527 L 424.3058665739223 389.4556848448347 L 343.7042510182171 325.6898349900185 L 302.0263842484393 520.3052667641151 L 588.7676092410611 489.89116801062823 L 451.44557836621277 153.0783351813316 L 117.79399947272321 409.48813875440965 L 480.22612465153037 686.9441634861487 L 659.9857102285002 254.0129129339212 L 206.94791603918677 193.04784246878617 L 260.96472268888004 611.6972066293896 L 598.2722361899362 470.60462665920863 L 416.13575643875515 244.01908538134853 L 305.8039698808714 412.88423812850215 L 410.4123178121745 426.4557325007307 L 367.5694105244481 422.85868828413453 L 479.6482118756868 469.54818597975367 L 476.6378027235317 252.35564974398832 L 187.86416931907382 348.13867793789996 L 399.8052562974211 659.1568937114694 L 678.4728070646058 332.3644966850742 L 262.55446949719095 134.23220972079469 L 176.4323671478902 594.6260686004671 L 627.2654810911929 560.6997757864199 L 490.40627607226406 171.30390072109552 L 201.0804565726954 372.48695027873714 L 414.7394696697299 544.6063360142051 L 477.66988978204756 372.4732600775297 L 391.6734757422941 387.2802877820295 L 436.06173959828493 361.4580474989617 L 297.1586379270416 342.0490876544007 L 352.02440777739065 570.6047569628075 L 627.1213438335085 407.9778642112123 L 346.2203637592813 139.91872916332647 L 137.7928390261414 524.3800067016089 L 589.0133142053056 632.809842962417 L 577.9357076828494 165.85749075721318 L 149.6027669132707 290.925810499882 L 359.2983230589407 634.5769030645623 L 590.3348719559003 387.18689619832816 L 359.71931025273244 272.60259270078484 L 340.51554892056885 436.0828436923081 L 401.37354350805117 401.37664345482636 L 365.7555991479194 456.16773988034777 L 523.9777335337513 439.5071026125512 L 413.0326761672871 212.70492525657028 L 167.6840859824709 439.7700912818267 L 507.86105476917464 649.1448287962623 L 633.9102247459999 223.07124552126146 L 167.55022495062772 210.40798923722502 L 274.6153861776796 662.7934154855226 L 661.7079777414635 454.7315033514188 L 392.451389050466 170.3428252523974 L 226.279028922836 448.4295689914368 L 459.4623526656881 506.0820537599964 L 441.4214836232452 361.4187875718992 L 409.4547714452287 406.2197356463296 L 426.4422616123132 325.9209135791397 L 258.82334717195425 385.2884689729127 L 426.6728490871204 596.1012740969825 L 626.806625309591 310.931333973782 L 240.66146115015314 173.57853807014592 L 205.28145917704808 622.6582980288615 L 665.6859539662801 538.1632391654607 L 468.5314778728137 120.58618279266136 L 138.90593350343994 399.60760099247506 L 452.0060693954831 614.8261318774023 L 550.6803266945383 322.2170183855484 L 328.2496247665963 317.45492843396937 L 374.8420861300569 435.52227063342633 L 377.16959579195765 390.95502807188967 L 387.4126859584797 490.5051961400183 L 552.7049777806099 384.5509836180559 L 330.7722862395082 204.19879551254633 L 189.752638867571 537.4056569919774 L 605.5577326160429 592.6197849178229 L 546.3495931649398 140.73949741287367 L 112.82448560351679 319.01074970234697 L 389.82943843795994 683.4731277378173 L 649.0787111013476 348.69061753231034 L 309.3486332807784 208.52519381603267 L 276.898448144642 499.7901221285642 L 477.118410177152 458.69731247717453 L 412.14801015683605 372.1694397785263 L 437.18797908977 406.48131406999016 L 393.0981406024014 296.31230866773063 L 242.89881203455562 449.5426475871314 L 512.4276682556876 585.6573563566058 L 582.8977420730354 217.7881634842668 L 155.92884065593384 250.9427669975771 L 308.9861065046474 684.8716799840969 L 695.9771402109161 420.8186725858529 L 353.11929370662386 124.90483951460931 L 173.2327238868616 497.97097349435325 L 521.8902898872549 561.3980733308497 L 493.03096897908927 286.1139734277318 L 323.96930282826514 363.6538898940436 L 396.4778410659928 416.7788646868202 L 349.1597438953132 401.63282614027815 L 431.1347011069348 512.0081294476674 L 553.2847364676231 314.23036109043966 L 246.09742901365522 234.51827539982295 L 254.37333072297932 621.0087528372842 L 672.7787444865675 497.59854343530685 L 431.29854916617245 101.82263461457165 L 108.19729558467225 439.4664354097723 L 499.935333951642 655.0408943711741 L 595.769792310911 262.45166933364277 L 255.3682391371148 273.3250893420951 L 337.46239392840016 520.0384784950459 L 469.39303581652626 417.075235759563 L 400.0087677837588 396.1107374256348 L 462.1027111815916 385.01529141386567 L 341.204418262905 285.89156319171144 L 259.35657081817726 522.0655978342007 L 591.2549384282742 535.6682778927841 L 499.8797531395201 148.44580609086893 L 109.94979483467694 359.4380961586211 L 429.9710209594544 698.4865402652906 L 675.0284931475965 302.993032612953 L 253.4189440606942 175.34470323042643 L 241.90429353094044 568.4608356796351 L 558.3336492370006 489.534496163259 L 433.58015460314084 281.2714890800338 L 341.524573907857 397.8579962510706 L 398.1156756412733 390.8177342705486 L 330.5810044113224 432.8017258148957 L 488.2203064303999 508.9963062918488 L 519.0929132352165 243.77564380702748 L 177.7963873550072 302.80950331279666 L 352.3879043359692 671.9765375525044 L 694.8219448202176 380.5980097814503 L 310.1167555159029 114.22909794151042 L 153.3310389054333 549.1209665622865 L 584.8069629704718 585.7816421352222 L 516.0275080748341 210.33335045279574 L 236.98589161598068 347.7834515636682 L 392.11577047655635 510.89867161188937 L 444.81169651718807 392.39800266106573 L 408.9548184528923 420.770012552684 L 471.4789875282323 346.10227727978554 L 282.5023731306064 303.871493268065 L 310.8959501553698 586.0331319606141 L 644.7237980300443 451.5635712673861 L 391.190006866135 119.11019260157934 L 113.33742602927737 479.4510787437343 L 545.5976151212429 660.6668457702883 L 608.3147140429104 206.55329911215304 L 186.89476479376773 259.35132202683053 L 328.01891445635744 600.7047430450383 L 559.2283035093283 416.83457231750884 L 386.8375470960941 302.1271929977271 L 369.9171271240476 411.7616168716288 L 379.43028846115675 370.67672121196955 L 332.6784072822262 476.74835382515846 L 544.5895306389734 475.46640128117986 L 451.69591532346425 190.58834880728338 L 142.82514812048447 399.22698063627956 L 466.73285858838653 677.4823519798917 L 665.8030202158043 263.294845268665 L 205.50214373133576 175.55997066449945 L 237.96147263861002 628.0663699401617 L 630.5422798213245 491.73757166912435 L 428.36139090440446 198.2984170926625 L 251.98746537831494 414.74959531054736 L 428.5905591799204 481.2528762177176 L 415.99204233839845 389.5827816669183 L 435.66754123117886 433.5234173790191 L 456.415392552541 300.40922350665903 L 232.5371689192708 352.50031249816413 L 391.6057039818487 624.5465863617161 L 658.4078767974318 347.17355718218346 L 276.64212407645135 138.426401490015 L 166.8707184980519 588.402277207839 L 634.3321524049923 578.9146090878137 L 510.27508792626054 148.39661869453738 L 163.2045512655731 358.3632731806626 L 412.5778096180157 593.3426197368851 L 530.7997540886422 358.96766801218837 L 362.0995456808736 337.20029145712607 L 395.8610226879748 404.1110794014124 L 347.14979117826095 367.6145796665781 L 361.28837996698 520.5413890203569 L 584.2237948658394 413.23634770126176 L 361.1576878155282 169.98713348146273 L 152.15368168265445 506.63608968812724 L 575.8941060612513 633.6352111026484 L 590.1380898307524 167.9507171089037 L 136.66765365351563 273.6286797955487 L 344.3183220827936 663.2877391690702 L 632.1536085188634 392.89321723037136 L 351.13833889382477 223.18913327881845 L 290.6877856874071 460.94951319792784 L 441.081403370039 444.305579281551 L 395.9027694231604 406.1978239087901 L 470.4811442473913 425.33726730055224 L 414.6656794931287 262.2758753700175 L 206.75272833645664 425.84108818225184 L 487.7251541227555 624.8741383519605 L 625.5343495870006 242.04476719240319 L 178.28766536573235 205.22490798262052 L 261.142046137648 665.5576275524418 L 680.3052599326351 469.42041301182616 L 400.9881099620556 137.0139848237642 L 182.5179765821683 452.130287675597 L 478.90183763437244 553.6968466435649 L 485.43834991053376 326.07218363835415 L 361.40222687541365 372.5330581774287 L 407.65981177718015 380.7924402410124 L 313.19900895530986 387.7283327922929 L 414.77459147038627 549.4010819488026 L 593.2920495566161 332.1492559278589 L 264.2397291908278 191.24413707098847 L 207.85026856744602 604.131836645249 L 658.4914632139878 546.6848761639197 L 481.74010482145513 112.64335647175636 L 115.30903604178303 389.1430714075899 L 451.1551907958616 651.1945036812613 L 594.1541601532853 308.61535367203624 L 298.42221770701207 274.11410315295666 L 338.89808270154856 479.9032504641121 L 431.34345567094994 413.7655903037167 L 394.1064556479636 433.37058938588046 L 500.05330170682885 393.5665810165164 L 351.7863861243784 245.90294338033812 L 216.40506268696092 510.61384464996064 L 580.3888646468729 581.8861484215113 L 548.9799551337928 157.28717140329277 L 115.65136651841482 308.44625068630353 L 378.47434396934943 696.4776310985171 L 676.5847986131448 353.5068174567847 L 301.6779848499522 171.0036298432141 L 236.04500118838953 523.241883761705 L 516.2869908341128 495.43015358706236 L 438.13182751808154 320.6937989771425 L 379.43224213167275 395.63405710037523 L 398.5963195807602 352.9917160224826 L 291.38794576428865 429.9270963306198 L 483.8833114180004 550.7098524912823 L 563.9373241916525 248.2215579126806 L 180.8653328340972 254.89865328511806 L 302.1373219722632 671.5851779781301 L 697.9453975927794 431.95343666415414 L 361.0966939965574 107.3960718745409 L 143.277891827975 499.9270879891305 L 538.4396595421246 597.9857484107813 L 528.9621173875512 253.4248084419719 L 277.0382774994534 335.58659185159763 L 381.8590082838826 473.01439733439963 L 407.7778121548728 400.03506809857123 L 413.9604172562625 458.43506100346355 L 511.10263708221447 343.06978243055744 L 280.25545359808984 261.40092344941297 L 265.3203857807722 588.9570691283807 L 649.7494932990285 499.815564241039 L 441.0936144169133 110.90069028164032 L 101.43635435608246 429.29906212799204 L 496.6800369834658 676.0841198424054 L 626.4268717736331 252.98972739080403 L 230.10477049822944 239.83630108040643 L 308.58789328676255 560.8068812732133 L 522.0516327252876 434.8173854336227 L 402.42186195174526 337.7227729932972 L 405.37594862911465 398.9094069147114 L 368.9561843930024 333.9160408700696 L 293.49168652466005 485.80987420940926 L 553.6086901156816 517.6474098565952 L 496.7608746535855 180.129976713932 L 129.65180608419627 352.0445748584538 L 418.6929852072838 694.1674225341827 L 686.1467798329904 310.7069220484203 L 250.89222876956075 152.092263285948 L 212.47244878809832 585.7045106581793 L 591.612956588352 517.8125885085955 L 453.5606901170772 234.07811174527785 L 285.52604882240973 391.6021785646463 L 408.1347657045622 448.61661627013706 L 382.7763607985084 407.3798280069134 L 451.50372687984407 468.62535626536476 L 494.2550459423719 285.3207817965736 L 216.7280585887461 311.7099812017628 L 348.33684111553106 642.4855515092052 L 679.5247829180003 391.8635440686091 L 321.33553456830026 113.66926120112203 L 138.696322799516 545.1814400446475 L 593.8037159463179 609.6450103416764 L 542.2454071080967 185.52870849287908 L 196.90166849194307 326.6433085294223 L 382.4547799158865 562.4465612418464 L 501.5348431752484 386.5780220599103 L 386.9073574778943 366.2888477577622 L 426.20089225923056 381.7085740488684 L 326.15392067766095 334.92905383165686 L 325.7311153477716 541.5164837575235 L 606.6541308738218 451.5097246045044 L 401.3421322370361 144.85169528685086 L 123.55741584592153 465.8239134565521 L 535.942442906432 665.7915365805536 L 625.2751845632994 205.6659080470275 L 171.1758997551783 236.64561916346466 L 306.937859990021 632.3448954157253 L 604.44690305236 429.2175699060865 L 385.25798638354684 248.60538662488898 L 315.17263174154414 429.6335827569625 L 412.491445147072 419.2711550206493 L 369.03331616146943 432.7988023327818 L 496.3309349570868 454.8560004009052 L 447.001817850726 235.704195494651 L 178.06661963574678 391.2023359377645 L 451.8722883459179 656.6880632251908 L 660.8927532097898 277.6813986663358 L 212.240817001623 166.59210657479565 L 220.13489290457545 634.4792505914888 L 652.7631329361664 511.46334543275566 L 442.5748962927216 161.02882543127555 L 203.682242637344 412.3269777343218 L 441.76198641462304 534.1841202899386 L 466.1128773174796 360.3030555465744 L 393.16453560568215 393.0870503555227 L 430.5062028742678 350.46750942837446 L 282.9109675333167 362.105702008777 L 386.5760554494636 581.1216050165608 L 627.6681538863229 362.0813203830708 L 294.60029855687804 153.49813911855313 L 166.68261091573325 574.8321239069726 L 631.6085794399296 590.6512806187886 L 527.3397516349722 136.17605273435703 L 135.179693917985 343.37020716252334 L 406.6526303623586 634.6101821046987 L 579.8738416916805 350.72808184280944 L 337.58779954378724 287.46879268239184 L 352.8063185214717 443.5618855784607 L 397.0505295220304 398.0406075951136 L 375.7880935591969 466.87674187889183" stroke-opacity="1" stroke-linecap="round" stroke-miterlimit="10"/></g></svg>