<svg version="1.1" xmlns="http://www.w3.org/2000/svg" xmlns:xlink="http://www.w3.org/1999/xlink" width="800" height="800" viewBox="0 0 800 800"><defs/><g/><g transform="scale(1,1) scale(1,1)"><g transform="scale(1,1)"><rect fill="rgb(0,0,0)" stroke="none" x="0" y="0" width="800" height="800" fill-opacity="1"/></g><path fill="none" stroke="rgb(255,255,255)" paint-order="fill stroke markers" d=" M 400 400 L 672.6143270479882 488.1388446037839 L 262.25047021700146 300.5310949741842 L 290.16493254052426 250.20626403283214 L 488.0949712017098 665.8466075497754 L 400.1432240596671 419.66002087241105 L 487.7182820905972 121.77835961360921 L 311.13879439590454 524.9675721355882 L 238.9470345482667 519.9045796604269 L 657.9541079334708 312.4297994822901 L 439.2323905993873 399.4283505072409 L 117.36189307217677 313.1478014367015 L 511.4990263920738 478.06739136539557 L 529.6229301414221 571.4841250396064 L 313.4493311953198 151.02254843917672 L 398.71845566831024 341.37013348211104 L 314.43819461054466 685.8386353103856 L 467.1429022424796 302.60122083592313 L 581.0484256673063 261.0634978854474 L 161.03795218992275 485.0252400797516 L 322.2339790455575 402.26671614811164 L 687.8036222267401 483.87044137818225 L 317.27479460837804 343.85709203354634 L 252.2071350229077 210.2884680358658 L 482.98562144566927 627.957858660325 L 403.51855315635805 496.55564379152736 L 481.80339288731767 111.48093464359977 L 354.877975188176 467.53991445245896 L 202.5563113262556 556.1410627707236 L 616.0191443767052 319.5735372141918 L 514.9151391475449 394.9739185867231 L 112.02335017855688 320.6122957922497 L 451.90747845424147 434.1340385208182 L 563.9318980485307 604.2198234567054 L 322.6545598854446 196.79581039058385 L 393.2239622281726 267.2370857462633 L 323.3480205804945 686.1738076655354 L 423.2316348340203 364.10485603622345 L 610.0196257158441 228.881790402332 L 210.42498868774254 473.7433219539444 L 249.98024134984473 408.752958151259 L 683.1137499884743 473.6261769567519 L 380.42747148147134 387.5338609967254 L 222.34485751285908 185.17239878989136 L 469.62401820068936 575.197049972395 L 410.93928059467265 566.6092118715028 L 470.3413981542145 121.19452849722734 L 398.1127343959399 403.01130334919804 L 181.36689765196283 583.5004089405707 L 560.1388457207172 335.0053889556666 L 582.4579178502124 386.6845375043005 L 126.73627258520861 333.17032892452437 L 386.28486382038676 391.54287990001836 L 588.6145385717482 621.4303341763102 L 340.1346324030629 255.52829903764945 L 384.13988870948276 202.504035669609 L 336.8762690559217 666.508982669437 L 381.47877194031133 430.53201083448624 L 623.21833620334 207.0388834327172 L 271.7306687721117 454.24973399654255 L 188.34279433877023 418.55012782997284 L 658.5673337341125 459.2567985112049 L 447.3635068457077 428.26155550695285 L 203.49299154521296 175.99905967936067 L 448.16431085075993 511.6075059992752 L 421.36086156950756 624.8795674203408 L 455.2623576989765 150.52959676609683 L 437.63708416470894 335.8668673855488 L 176.21329479447962 599.2225701565744 L 494.56368130743016 358.3711900083271 L 637.1053314079084 375.7337233575262 L 160.74479211552094 348.8260661441295 L 319.2359189434127 353.39053833190616 L 601.0818420979156 622.5888277071041 L 365.33400738084526 322.78337406651247 L 372.76087218423936 151.71860034928653 L 352.97512604923463 627.964000302198 L 344.8568336425951 497.179595808666 L 620.425031832608 197.93727378533922 L 340.353956928868 427.3015890157282 L 141.64046384190766 430.25114526547395 L 615.6440854009749 442.84813001446315 L 513.3033394927645 463.2056546996221 L 197.85285521244825 182.68256393762442 L 419.5642001211998 441.93218932256724 L 433.2732270555425 667.2965852831644 L 438.67604711244667 197.65238778796217 L 470.76749069600504 270.94023778096255 L 186.70760017097615 601.3211801190287 L 424.1554929079522 388.5148186399198 L 675.054665658206 363.7243618465021 L 211.86865791386154 365.4598428995705 L 255.62553150578682 322.19754326417615 L 599.5751941626576 608.3803500982397 L 396.90149078274925 393.60382703561294 L 360.77178522419376 118.39866120574106 L 369.52902062530444 573.0563943551915 L 315.71235453763757 559.1745807050165 L 602.6155890855104 203.09607268522961 L 411.2661382018533 394.44063115793494 L 113.0902484397763 442.1005728200947 L 557.187970644333 426.49782978318046 L 573.3890973535559 490.20353232404875 L 206.69342431780007 203.96391576602002 L 385.55029958562886 371.24723193168035 L 444.8623191138567 690.958751886323 L 422.6486388102598 259.40494086860247 L 495.5340285922392 213.05075575958355 L 211.31675833706416 588.7868462481824 L 354.0136297564134 423.53160937363174 L 693.7329771688984 352.51673581138346 L 276.64987984654454 381.0502199105523 L 200.21118318079277 299.7334852635578 L 583.3529894709878 580.6016643747083 L 432.76229138229155 462.8912824388739 L 350.0663647246025 104.77708501170497 L 384.57408976705005 505.52875465202555 L 295.6081458438469 611.8445119817462 L 571.8388965777425 222.98219103565663 L 479.3938743420691 357.90277726755704 L 104.57506411154537 452.1842882118348 L 487.2093570375175 412.09982089694967 L 623.0562475803174 507.9043873777334 L 230.2013519730727 237.5548444524279 L 348.50961852872734 304.5771162692808 L 454.2069169531131 694.3412981043089 L 408.99230392564203 331.5272458691884 L 510.80190693138275 166.63253195328414 L 247.52694749780903 561.7173529070424 L 289.0902607741355 460.8944796887577 L 691.9801242613225 344.0257406114814 L 350.59816808823985 393.8779696629735 L 157.2745654690245 286.91438677108033 L 552.8002128096838 541.9773040161976 L 470.26120577526524 525.7888681618111 L 342.53970181756364 111.64464979070829 L 396.49455617115046 430.0811518655653 L 285.2399481335449 651.0814980544093 L 531.0144355372109 256.9221232256697 L 539.9979881286988 320.4585246069198 L 116.51335371077329 458.64045538302923 L 410.59655877293324 401.1566693951528 L 658.3913542496199 515.8330328757881 L 267.4147523273708 280.3575214016362 L 311.31431015133626 246.52161916709224 L 459.4917795737606 677.399311467595 L 399.087437552384 408.96521816667513 L 516.3155325458224 135.3847216521096 L 292.0793366559577 521.3613536967398 L 233.82485298746974 497.6440005004812 L 670.1241409045633 340.00687561819984 L 428.5169689561494 402.6929754202167 L 130.2816608333734 283.77842147258195 L 509.449197826902 495.90910799821603 L 506.36657779696327 578.0374412508313 L 339.87468279676983 138.30273234713195 L 404.1777909169776 352.0285907860133 L 284.43188097576075 673.670590951016 L 483.6685069107786 303.1044141148941 L 589.018685630369 285.19611650037376 L 147.84002068966612 459.87131705776835 L 332.7584125834131 394.6372450916959 L 676.4472420295317 514.3748769551181 L 316.249066103275 328.7401811862434 L 277.0930553783443 200.9232387127314 L 459.216360544416 641.5585105698558 L 393.7538518027387 486.2412909972982 L 512.6641900518847 121.97120064489667 L 341.2560430942819 470.06905559189823 L 191.82582296340772 530.6276275897775 L 629.943812729029 341.8519050649537 L 504.88544933621654 406.8287800177456 L 121.59881187899038 289.5391620710331 L 455.90693098847885 446.1814823639034 L 537.9189111262411 616.2782143610087 L 343.3433024866972 182.6286986688376 L 407.1139650608803 276.90946831392137 L 292.2081427727155 677.5558457615339 L 433.63230285302353 358.67554290010906 L 623.3610481769429 255.26484365631902 L 196.09941678347494 454.7349803429816 L 259.22506189502263 392.8925158849322 L 675.4897897730345 504.68634599473603 L 373.61581808927815 378.8446224366968 L 248.96762745095498 170.60015708385123 L 452.3784797308383 589.5951643599718 L 393.1824713973999 557.859381499701 L 501.17525851864457 127.79434108060155 L 391.1915697346592 411.15102285596 L 165.6231764109995 556.7684772664198 L 574.5221399638449 350.41447026517193 L 574.2672589239303 406.2546293912744 L 132.28827248291805 302.70880812860213 L 395.69197112577007 396.6476718157806 L 561.903549007903 638.2793216218115 L 353.6426808418363 241.24813164204548 L 405.431570353126 210.07498966917368 L 306.9318345308378 662.0218926275738 L 384.7275334895656 419.92421679942083 L 641.0997953904321 233.5999286484291 L 257.64236966372016 442.69793156335714 L 195.23753696377835 395.63671276728684 L 655.1556341198425 488.54139497490524 L 435.62733890806464 426.89958755485674 L 229.77683307869376 157.1641745007226 L 438.61436793646527 525.4152756270887 L 396.93324752509943 618.713160222903 L 483.74706190028274 152.86205230041404 L 438.18356944160536 348.6539228348151 L 156.50991501691962 573.3408199084244 L 508.0028582510405 365.8834482697831 L 631.7146718892756 401.5608467452705 L 162.0007488625824 321.2779197228071 L 332.9916648313512 350.9232077778798 L 575.7240858270891 643.0702847345943 L 370.7826838834095 309.7997374237382 L 399.86621795558426 156.2911132645765 L 326.4961382227169 627.7752640605892 L 340.4656510723705 482.5415822983519 L 641.5890945846097 222.65271274541334 L 327.9111780845619 423.93237338012415 L 145.35771642852234 401.9948713190284 L 616.506861807579 468.13008065887595 L 497.8732026639426 469.51424005187164 L 221.81180562513148 160.93595941731036 L 418.28026648763375 453.75093154673914 L 403.99870707527305 664.4661809327943 L 462.6384399123504 195.76009602788025 L 478.9775505810116 287.0691528784104 L 164.4826208559395 578.2281892165615 L 435.2696580586452 387.717697028003 L 673.1369636949066 393.87970325026737 L 208.97496160651212 342.9335600393091 L 272.35721339633153 312.11139121387674 L 577.4524125566134 630.9759488422269 L 394.03752862835177 383.2716530649416 L 391.666449357374 119.38371440722295 L 348.548848751579 576.917481471058 L 303.78487390094574 541.938264992196 L 625.4710007361862 224.1501074533216 L 401.78976970177905 399.3473405688068 L 113.12875333099237 410.61147076867695 L 561.976775803231 445.8289920225926 L 555.7478497550445 503.92831749547474 L 226.58634578971896 180.96199177491744 L 392.4659424697053 379.7980367200021 L 412.92634596151566 691.8745447961027 L 440.23551257169845 253.7334737355261 L 511.00300192178463 230.9962214278958 L 188.28354247783773 570.1408090556507 L 361.5736050002616 414.650361429928 L 695.604600548821 384.75004797971474 L 270.14588425682666 365.2948128563654 L 218.35969981780212 282.582317591808 L 566.032624149861 603.5496199322812 L 421.9680289578023 456.3824962221213 L 382.4462443443487 101.95434516934887 L 370.72878528609516 512.8104018708573 L 276.845394373355 593.594007708758 L 594.5843072028606 238.9054298950971 L 473.9913411844383 370.5484990764119 L 100.8121612055462 419.80912096904234 L 495.209396162321 423.9653297151922 L 604.804162746692 528.199800761859 L 244.66365246432437 215.12938870144473 L 362.936621294691 308.8239897445567 L 421.9875171821172 699.0272157323559 L 418.81762377918795 322.8720729108598 L 532.5430976772761 184.7869914669971 L 225.53836998091947 548.7718916597885 L 292.1380580124398 444.76461485729516 L 697.5657947484715 375.93927367540255 L 341.35471132230833 386.1436205317766 L 175.23392942985788 263.82187553017656 L 541.4193548261353 563.4131799480148 L 452.51471575584355 523.9772722909479 L 373.99895041287016 105.18848383379719 L 390.8920830971448 439.8428763105439 L 260.8977153815548 633.4124431274755 L 551.7834982707774 266.6989331293049 L 539.4531591199707 339.72804477796217 L 109.22179123876674 427.781511051563 L 420.80381146870974 404.59645410970836 L 641.1050601082281 541.3167140398039 L 275.55652668070417 260.3670649464965 L 332.0064020068635 245.77590885673058 L 429.3760575248168 685.4855190488119 L 400.34398183127604 398.3874427836868 L 542.8262184715652 152.19905115828274 L 272.9763623902606 514.8770515714561 L 231.77182104957092 475.6361318489827 L 678.9588129922079 369.2402467768776 L 417.6454737299752 403.6298465505826 L 146.53853455765298 256.3608082909642 L 504.63620531926745 514.0192286158865 L 483.15550714294466 581.4074274405742 L 368.09103191816297 128.77094936721505 L 407.30780941340026 363.1156835528093 L 256.23248468127053 658.0525104588671 L 500.6844796535051 306.2408624318942 L 593.7079881421806 309.4926175611144 L 137.6673657232289 432.8015585011676 L 343.982145138267 389.32480484934064 L 661.5447236353127 543.2264405514951 L 317.7122972513643 312.91501812186374 L 302.3526250922281 194.9196096920309 L 433.417039380582 652.311231000627 L 386.28013608687485 474.9602244625159 L 542.0344532685232 136.08634329762236 L 326.7131844921264 470.2672385136386 L 184.52025025202758 504.53131410550543 L 641.2115703649281 366.26325365636797 L 493.62621472474126 416.432292564048 L 134.86007677509122 259.7868772188896 L 457.7463779332945 459.35621983069245 L 511.11549772233775 624.8659544732027 L 366.2560128894936 170.91478165460515 L 418.80560267541233 288.0683307121792 L 262.213064413374 665.2093246415552 L 445.3592654075556 355.22315709739047 L 633.203826344586 282.6430521252206 L 184.01167139273485 433.4241810371252 L 270.2061180600231 379.16442850678135 L 664.1129517493405 534.7831150590133 L 368.5867803140834 368.63846986592256 L 276.78633350373025 159.53674195818914 L 432.7649859069844 601.9813723563285 L 377.4793740993617 547.1319864819253 L 531.2314282220544 138.15273899431622 L 382.5722192135595 417.7127176170627 L 153.38067520467445 528.6448883790654 L 587.1288481092712 368.24358886464853 L 563.8673385647558 423.86181950737966 L 141.5858748559832 272.8360192038657 L 403.73491207191404 403.6216616416715 L 533.6113304215138 651.652370451003 L 369.6090833775859 228.50102718513529 L 424.8627930933322 220.07611236164323 L 277.3849982335713 653.8208577270484 L 390.0053917161955 410.4585270797811 L 655.5480675687578 261.9245643532574 L 244.83664414456436 428.6634965754586 L 204.77146281078907 374.47028126834556 L 648.0802113891446 517.6206187681522 L 424.8041202550472 423.3605278909077 L 257.9983894240136 141.70254861533544 L 426.57174770614864 538.1966575342767 L 374.1287719876532 609.7114915055685 L 512.2186256275567 158.78965034784457 L 436.4175951231155 360.7631251973395 L 140.1030723986595 545.3564545686044 L 520.676233731085 375.8840787004012 L 623.306587265186 425.89832487926384 L 166.76520767044283 293.55175656962865 L 346.30940792287686 350.8904247939354 L 548.1089797733165 660.3482540988389 L 378.70104125458136 297.3182315268476 L 425.6242836843361 164.04839167701277 L 299.6501234838746 624.1823346667444 L 338.61724528230627 468.09818343649744 L 659.6584967908601 249.76917962116698" stroke-opacity="1" stroke-linecap="round" stroke-miterlimit="10"/></g></svg>