<svg version="1.1" xmlns="http://www.w3.org/2000/svg" xmlns:xlink="http://www.w3.org/1999/xlink" width="800" height="800" viewBox="0 0 800 800"><defs/><g/><g transform="scale(1,1) scale(1,1)"><g transform="scale(1,1)"><rect fill="rgb(0,0,0)" stroke="none" x="0" y="0" width="800" height="800" fill-opacity="1"/></g><path fill="none" stroke="rgb(255,255,255)" paint-order="fill stroke markers" d=" M 400 400 L 355.13907559632355 329.4728811795194 L 331.94297443328963 545.4136020703771 L 622.9409372795379 371.1283850612322 L 226.23004023131426 191.72011711158308 L 309.93205683196356 682.1898824739253 L 687.8994626221086 324.16014652132196 L 197.6913238625949 212.7749024929707 L 358.472487762943 627.9942629757177 L 556.9953296411512 336.1333326839817 L 323.53668206760386 345.65319460681695 L 399.45043242703616 410.6865040175731 L 336.2514230531649 436.09031122221774 L 533.6568269467906 471.1403115560569 L 383.1753813730358 183.0776562648889 L 186.86416463774637 559.9958380392047 L 675.4297425440066 503.77802564499433 L 338.8155645101713 107.48231815770549 L 199.73352364432088 595.2517253436012 L 632.0309603209189 454.70770941973666 L 341.41349902091815 231.69511736677728 L 335.5288631995915 481.49568166103785 L 421.2748053846186 402.19397221456103 L 428.1061054451162 456.1956410084151 L 473.1077922043006 278.1767713259905 L 190.00302441970982 405.46630835590776 L 545.9996773267482 616.85535646626 L 516.8833049938683 132.33246691237292 L 103.98826346953928 446.195568505636 L 587.1466542430587 612.8022076096785 L 468.3234273462477 164.99280621040668 L 220.75303062235963 452.2421946338993 L 485.5696432945743 475.152006496858 L 404.92035228083483 368.33255048565707 L 447.9421970245334 379.0267711125167 L 289.9886172013346 326.0406719328226 L 394.8710516506955 602.2300125649782 L 619.4257588009946 268.1201397109411 L 141.04093313686246 270.69847849840585 L 430.96962538404046 698.3570685493232 L 624.7439830420835 221.9610809927895 L 163.11301187695136 317.7176214567261 L 444.8676293791371 589.7288576958075 L 486.3030293245037 311.36202061234206 L 358.2315277194146 391.2926199218479 L 385.25010724448305 360.9324954038545 L 326.2966292486574 498.31946717345545 L 593.6928241280376 414.89276189092413 L 282.2645360555347 179.1570630619866 L 259.04442948403005 649.3670571296987 L 699.537550766415 384.39525317943566 L 232.01853212167146 163.9922578694292 L 303.51053646507717 637.6425041261493 L 599.6610797021167 363.49535379283355 L 309.33882852225133 302.1659972526057 L 386.4745764295246 451.48413112297067 L 370.34440755336095 409.4871557105188 L 486.84451618893394 472.3568952246408 L 423.76323566987435 215.53757426167812 L 178.88860527406908 503.665511183352 L 638.9606434451657 551.774082270525 L 399.7998977510237 100.4543911995076 L 153.48569282690468 557.0343440838253 L 637.2542528816269 510.8474885240059 L 372.7972674512754 191.0418880627686 L 290.34840852036484 491.60770942025954 L 460.7236193235135 419.3367710524174 L 405.22853617362927 419.7946178270334 L 469.9452675362877 324.3183162746749 L 225.37910748397405 368.3145680706134 L 489.7682227490111 620.244207419221 L 561.6919582853806 172.1851311445278 L 101.61772194564855 384.8551429559494 L 545.2642350358852 656.1899814822563 L 525.2578989890926 164.2887532417003 L 182.46097432159686 417.0186508622637 L 491.4543340457888 521.66003590591 L 426.095917085713 330.60024195924404 L 409.5761946323111 397.99031819425716 L 335.07647959476236 333.49795105172007 L 361.38821515621606 564.2547345812072 L 618.2629189177894 323.8597246469869 L 183.98988756500944 229.34913971790945 L 369.66885306564006 696.0571956020277 L 664.96710612826 267.2560287698685 L 166.98891393129946 260.378476358461 L 406.0160120806634 625.3281025026218 L 533.7618789245396 309.8137827030577 L 322.5703391382279 366.2500924660487 L 400.1419013309645 400.90530467285345 L 337.9312620368446 454.6592706231038 L 553.4542388555998 444.50245772369107 L 337.12392845677135 184.8026251048445 L 221.40035208937158 603.6314814760315 L 692.5885269919459 445.2609959336111 L 280.44802136263553 127.21542898667553 L 246.16067689140502 629.1599807194631 L 632.255410438564 405.7352028549616 L 312.20292151709697 254.14129428893003 L 357.76125891850097 484.735365835156 L 411.55346803750075 398.79294211932194 L 444.97419467643545 456.6944522032184 L 449.32564163361616 257.6872176909991 L 188.9145069187249 450.06702685480957 L 590.7681679304346 585.4947619737426 L 459.83858147518526 111.99717147921615 L 120.41172359219354 505.7716887356679 L 624.1727066881126 567.8131376716724 L 418.1591697511835 161.74266365787412 L 242.1481092008708 484.28923576958573 L 491.24443019980896 451.49582419655974 L 398.82487101433105 377.7294217319202 L 450.43555255189875 364.05107886631265 L 269.0738781516869 346.94220683999714 L 437.80087964275737 605.9729724413265 L 591.3005502479056 222.48722602152452 L 117.66515397956897 326.0292485631236 L 491.49091064982247 685.3315414516508 L 581.4464283977129 181.9275023431684 L 156.72292953629528 368.8252077811753 L 479.6735925110462 569.6433468138291 L 461.4484760894435 303.10951670209107 L 367.0416426335075 400.0440336575191 L 372.34116565661725 356.6447875963188 L 344.31619046910754 519.3916662327354 L 599.9129434529993 373.8389711772918 L 236.03938816883843 204.01046656757984 L 312.43227456346324 675.6272516828078 L 689.9754565280485 323.19882984699643 L 189.1091273772557 205.35499394907484 L 355.30368729417177 647.2650395364667 L 581.1362691951379 326.03044146971405 L 298.386266508829 327.98152015502785 L 397.8202851118736 443.5187151251505 L 364.47706471286966 420.1735017251115 L 507.8077355253777 457.1971397598113 L 384.77409546451304 207.0344378679922 L 200.45739078428903 550.2089830716675 L 667.9303209163513 500.54377059010824 L 338.2029794639914 106.51082315960718 L 192.68225773717396 602.6674007876247 L 650.1792851036988 458.6339588791409 L 332.79509306000824 207.76412873747296 L 316.87732444766516 505.36142523459915 L 453.8544963105894 405.48105805735696 L 413.5561451803512 427.01402451518345 L 457.5998309747543 303.72718630386754 L 214.80244911816067 405.0683765017698 L 536.3564429911495 601.9491929112437 L 512.8178466143675 140.69844832013422 L 104.14984503068507 446.57533056283717 L 593.4494055099212 619.3772575769458 L 472.89462046015785 148.01421578205682 L 197.14989594398673 459.4155675888622 L 508.08824284418336 494.6735909387175 L 409.8365054947691 336.12977922961306 L 417.90900888361244 392.13683937142355 L 315.1151999664431 343.0974904194308 L 395.75520454748334 576.6816896475196 L 603.2072936023575 277.4979445063622 L 150.19477082092848 275.68578461029915 L 431.2345549045894 697.0443106484688 L 630.740581155839 216.70839044149693 L 147.34128991364815 312.6174486111584 L 450.6453586974252 612.8903555025477 L 506.5801047331148 290.24334209625283 L 326.52718914115434 384.7856873696239 L 396.8563106957744 391.70697123890193 L 344.8757025995036 473.74026504023266 L 567.4962612263108 412.6534645389619 L 291.25535579007465 196.6764747841682 L 265.0369896332606 639.5119392213478 L 697.0661364735431 384.1260074233074 L 227.74427564576425 158.67022284579787 L 297.99990800188704 652.1806306826252 L 622.2721236069857 359.0543412866534 L 289.6627823251597 281.2518622665468 L 378.425279187108 482.57230067487865 L 401.7448127689621 399.43924406698994 L 462.93371644206104 452.29266342884614 L 420.10455000739745 242.27554505992038 L 197.6869475535667 495.1820454957646 L 628.4980339162787 544.7007615057273 L 399.4069610049784 104.08126125602053 L 148.92746698464995 560.4099863109028 L 650.5426438222125 516.6484057294963 L 369.62497912732334 169.08434142619154 L 268.9186336596626 509.80877232295427 L 491.0825217291734 428.8702582090719 L 396.7833935525531 387.8878711940084 L 448.4432123217285 347.44311912278033 L 252.54626681804308 373.4475634263421 L 481.9103689693422 600.1994719391871 L 553.4708717717479 183.1549462348989 L 106.38618687148949 385.4904373151273 L 547.8286437847619 659.9027052342824 L 531.2282248115825 152.25555232092134 L 161.25343100893647 418.99873338402284 L 508.1586392447531 543.4819531597775 L 437.04609919146003 301.078240143738 L 377.2860475731133 404.79849344288766 L 357.30199329194556 356.3805887683491 L 368.0406827497877 536.7751656434305 L 597.0146296307109 330.976728810933 L 195.36088947719705 238.7759584183837 L 370.6635347239833 690.1715553383008 L 667.7608184551668 265.40860148112654 L 156.20565379380847 254.3594007467529 L 406.88832856668273 645.6963874856025 L 555.851289134431 294.6172967563864 L 293.98662160831435 353.9595205072874 L 405.289441404855 433.45346003392405 L 362.12774295429847 433.4411932256714 L 525.782736260308 436.29547698375177 L 343.38875202648825 207.20162436409072 L 232.08136201704372 591.9702354980723 L 685.6205074859806 443.79245068396506 L 279.21719418818077 125.40548587665921 L 240.21235652187477 638.7091894165819 L 651.7030915685539 405.87895534007464 L 298.51454820587605 231.90925841932213 L 344.2148360198685 512.2864028883871 L 444.2327087968811 395.3190020902605 L 424.86575134215457 431.2598865601244 L 439.5395149505985 285.4273718750401 L 212.40174146235154 444.7609507226892 L 578.9316982365528 573.5210057766561 L 457.7851468941978 120.00265870791986 L 119.64105470679658 506.4916379522368 L 632.5142489844402 573.5732749501877 L 419.2207556218537 143.28842428100359 L 219.8975975241929 496.47994513470957 L 517.6760629509304 466.2059635103808 L 397.0267011879825 345.04661741631514 L 423.8471325376668 382.95439939515717 L 296.75750820759225 358.3214961701346 L 433.55453191743277 581.4691613914662 L 578.0057182228323 234.3806992588931 L 126.65342021640151 328.77427660602723 L 491.8102157407367 685.0171146032777 L 586.9039391906597 174.75696990351813 L 139.32592886535934 366.94979461569915 L 490.3877214038417 591.7898313134106 L 477.2232969456887 277.8757129269843 L 334.48245926316787 400.1750683183579 L 389.9512928971731 384.29497098695026 L 357.2919151551302 491.890702509235 L 574.4728822077277 376.9309752444813 L 247.8693474242674 218.64423456739513 L 315.97044023803164 665.7202595910226 L 688.5401528580851 323.16628683919805 L 183.06297901321938 200.3106842995531 L 352.7234119984272 663.5505099678817 L 603.0587869123704 316.76136245431917 L 274.41985326080555 311.2472059207341 L 396.3035539473749 475.8283640275347 L 393.0897304032611 403.9365665250328 L 480.6156120046643 442.63249785746564 L 386.62423837748196 233.32233790707545 L 216.43732097757407 538.5644323462191 L 657.1775364026172 496.11688236297914 L 338.3405595355835 109.09246389214121 L 188.15700056070668 607.6453820470747 L 665.3088312866723 461.8060207618746 L 324.9293528156585 186.18205737085447 L 299.29406510143696 528.0002464168385 L 485.79089212637894 408.61560313332404 L 398.7637362813366 397.54462287405283 L 441.4645462844195 330.4851994986698 L 241.84233538803258 404.53983579974584 L 525.0196411493463 584.6265920870981 L 507.41336432566635 152.21576343733614 L 107.89276041852077 446.3861111015443 L 597.4245768674992 623.2831527017021 L 476.54216253310955 134.07477355402665 L 176.02042044569265 465.9295171484948 L 529.3490564920887 512.9907203495144 L 414.5485614102455 304.68725298823836 L 387.694309336915 405.42257976311777 L 341.3156653782826 360.77450289345546 L 396.61961048837014 548.992410333029 L 584.5562340333852 288.4051463579747 L 162.3876417841183 282.14931573776266 L 431.1130980449211 692.1358273079793 L 633.9331224521402 213.66205199868077 L 134.61567799445834 308.6130599107566 L 455.8684847963311 633.4602524527146 L 525.5123695158625 270.40081338140027 L 295.69516316737713 378.54646549637175 L 408.58289079784623 422.55065543532066 L 364.05508327624466 448.21803680157274 L 539.2661708229415 410.3337211337377 L 301.61252759037325 216.6311396758586 L 272.63296050546273 626.7395257648034 L 690.9984767475751 384.06031485827015 L 225.5447593335041 156.2779815546495 L 293.7587124031255 663.6792988120703 L 642.1814233894708 355.05214127002097 L 271.26840258628727 261.8259620633594 L 370.7188931113724 512.6820348932946 L 433.0971463749089 389.31427990073246 L 438.2067717541885 431.660443905271 L 416.2765214899125 270.9326733038207 L 218.90988234453425 485.49299127328015 L 615.2484017868967 535.907609906558 L 399.0356808380775 111.29106175381395 L 147.4147522477412 561.8520779901304 L 660.8119463403943 521.005893661804 L 366.7654340728365 149.92994174598687 L 249.12244838036335 526.7357488950537 L 520.3638286205367 437.97460746791904 L 388.292154699615 356.1503618985994 L 426.4175015494525 371.26224461851876 L 281.51230542666286 378.8269631021847 L 473.00427312208865 577.7538455994155 L 543.42496890582 196.77393914603238 L 114.71057037911112 386.28386820695266 L 548.6093917700069 660.4650016445158 L 535.5819502785695 143.20734811567894 L 142.94081834506198 420.8016487162641 L 523.6096845326713 563.5241511913385 L 447.4705381626618 272.72506641717746 L 345.2890676910365 411.6344760811318 L 380.10610862386835 379.73105055635193 L 375.00433390851055 507.6218280499838 L 573.4018162027722 338.9891522666606 L 209.23666999747542 250.12056161516517 L 371.9928920951688 680.7704666748309 L 667.310691150099 265.1871869362885 L 148.35967532452923 250.12810198946755 L 407.7277154054155 663.0883859871649 L 576.015240547446 280.6399497204237 L 266.6541320629714 342.30094571669315 L 410.45936793164043 465.5828978520665 L 386.72531935009295 411.7531405333115 L 496.56629797387006 427.72516693983727 L 350.4017650941421 231.9165864700571 L 244.76061500580334 577.9541008488914 L 675.190630926707 441.8170697511844 L 279.4479727796153 126.92067201857247 L 236.219838243001 645.3822555049206 L 668.1042908153356 405.9036512746148 L 285.9979515673493 211.7468656702773 L 331.41550696761175 538.513482917006 L 476.3672179235006 391.81512887341466 L 404.3879275544334 405.5011645786625 L 429.3507997947642 314.58104252416604 L 238.14474443209903 438.84729802788434 L 564.8946185589167 559.4814554839983 L 455.05818752419265 131.40372368831066 L 122.26415204837917 505.92009823903135 L 638.0539129118441 577.2138715361048 L 420.0045234345537 127.93905091308204 L 199.85820142318732 507.5593266793295 L 542.7214453720808 480.0459461444441 L 395.1780854607746 313.03386133550356 L 397.0209402052692 402.1354101696615 L 325.72180267156966 370.1295936150723 L 428.8336329768662 554.7807613600219 L 562.590749334747 248.3172469395181 L 138.9588229207211 332.3529978648097" stroke-opacity="1" stroke-linecap="round" stroke-miterlimit="10"/></g></svg>