<svg version="1.1" xmlns="http://www.w3.org/2000/svg" xmlns:xlink="http://www.w3.org/1999/xlink" width="800" height="800" viewBox="0 0 800 800"><defs/><g/><g transform="scale(1,1) scale(1,1)"><g transform="scale(1,1)"><rect fill="rgb(0,0,0)" stroke="none" x="0" y="0" width="800" height="800" fill-opacity="1"/></g><path fill="none" stroke="rgb(255,255,255)" paint-order="fill stroke markers" d=" M 400 400 L 285.0480476361871 128.12279675153138 L 326.56775643058853 475.61255391668413 L 159.955950989381 306.6864208043899 L 405.7730829873193 597.2801382369967 L 229.90360418725444 477.8591069220453 L 594.8055755034393 578.4170951374762 L 368.9401382276411 487.3870627227892 L 696.770144050409 382.6161204007486 L 394.065019029817 387.97638644628034 L 591.1564204906294 178.61757807770564 L 287.8482652587252 363.79655735579524 L 378.05100679446656 150.55445892274102 L 216.90638427580586 497.1379843018791 L 263.1704828073917 288.66941486524 L 324.53685650441355 659.5042649435409 L 320.6481958019709 409.3283758673282 L 547.689686319364 659.7295353124221 L 416.29309420997475 378.7335111821637 L 679.9569402690606 472.6004324579226 L 381.04275104613157 271.32570757991346 L 607.4411255583893 273.87384102539687 L 224.15775673281993 273.2673962005151 L 436.8133875400132 238.77184269222013 L 128.43300814122318 448.1638747884473 L 363.59021450827964 343.88279595571254 L 231.9607277194075 648.1484888113147 L 439.356622601351 407.78262813804594 L 458.0310942191653 679.4030162320328 L 516.8249555773489 319.25014919213453 L 598.0631464489654 525.8333148831063 L 437.30580250310277 177.2968860660631 L 549.825905619746 364.28013463198647 L 233.64701648560944 173.7743245966504 L 427.487076421461 353.80276077509853 L 102.7994549713531 359.11238703162337 L 413.88944692073756 451.5276845531492 L 178.62755278678284 572.9846927134653 L 534.3170286700472 474.6868333762515 L 375.75305442725016 624.7623464786969 L 624.4487448122327 332.3977690208267 L 490.90151327224896 509.5655291346554 L 531.2690383268548 146.75645044103857 L 440.3869991434768 403.1650230904395 L 305.2081331827772 115.67629025127735 L 350.0785189739186 443.9453699757051 L 151.38817800533184 280.223891311032 L 391.9237471615376 564.8495926467799 L 196.2108405784187 474.6338217064232 L 565.5165152676277 577.287897356169 L 346.85450204326435 519.100188503977 L 689.0559469607549 405.6944096473374 L 410.09125922697774 425.2421298246464 L 612.3654845616632 189.77704206073912 L 326.46798659309036 369.73516212607046 L 397.4154350974888 129.58694560868986 L 238.4837877922739 470.11750409335275 L 249.73272564627172 256.83088731772546 L 311.58309977423437 634.0472096874067 L 281.87492889890075 404.58704203130713 L 524.2350331265063 664.6979525381817 L 390.7744753928467 410.26826746081395 L 681.1004914189082 496.8952758744046 L 393.7176974741774 307.84754177070135 L 635.9153598566907 280.73219042491365 L 257.4841576674246 279.3005320683814 L 458.92102759200293 211.32371165855747 L 143.8775751004917 425.00550681069655 L 349.53760575906017 307.04135178857393 L 215.94497600958684 630.6795641730332 L 399.619021192036 399.893150696666 L 437.2723734262258 692.8881933978512 L 490.8022702466666 347.2124499637321 L 606.089781323647 554.7902476635288 L 447.6429515186398 208.77938177580668 L 585.107674972699 370.9183871013 L 260.71059226113425 175.7653791136008 L 453.72105018934803 323.93958554796103 L 109.61302950725445 336.60946339969564 L 402.3948793421336 412.79106595358536 L 156.0898768846029 561.5862859417421 L 497.9054696735047 464.94277359232575 L 353.7329601400715 646.3194384357539 L 602.2430003261499 355.9743861041163 L 501.8667782451795 544.4054598355483 L 542.6454398511434 170.66076973587812 L 479.29950395051554 412.50579149743606 L 327.9433043776951 110.07227900692487 L 378.8846674803972 415.84011243512884 L 149.95818114081857 254.4442528529113 L 383.5509187059065 528.6593405811919 L 165.98270561595913 465.485499610034 L 534.9159653930415 569.2948150977443 L 320.8585238021014 545.5871695144929 L 674.3290220820052 426.94433179852473 L 420.01794726705765 464.2327027443465 L 628.7926974818421 206.45967123153335 L 364.5570172110889 382.05575550534377 L 419.5833318669793 115.18481337522434 L 266.03917024312517 446.08899963610645 L 243.1106930629284 225.17311162873173 L 304.0521731482349 604.1194400387726 L 245.7553219745908 393.92039224870155 L 499.0334562549947 662.6126755656983 L 360.7770110390642 437.32666213236655 L 675.1174369192512 519.6245946266035 L 400.5371780392687 347.0253033445476 L 659.9892467580491 293.1687651489899 L 291.082923356566 292.056112013278 L 484.13772557715174 189.89418304250853 L 165.8815112977672 404.4757433188311 L 341.921023016477 269.6398202837552 L 205.30557580342517 608.2975909930867 L 361.6000743625797 385.91140484274223 L 414.4921387707907 699.3755774224593 L 459.586133413896 371.33535976147544 L 607.1474710827965 582.5640354468314 L 452.18755945763326 243.7691896156926 L 616.6445062284702 383.149077046663 L 288.61466833259726 184.80935457356347 L 483.56058015249766 299.401932901696 L 123.32187548665877 316.49090303425476 L 397.0580075685338 372.57881370641604 L 138.72495106088337 545.0825551075066 L 462.3269418111802 448.7619609913779 L 329.42142678809836 661.2300128987248 L 574.1327417657654 376.14686510113813 L 506.1690675146463 578.6739474629215 L 548.2047846148287 198.70004388599202 L 515.3288880122647 427.5664535928626 L 351.87422815608085 111.6748822687228 L 411.98937180409433 392.39271921298655 L 155.46526097483616 230.76612858893267 L 381.24079125562446 490.0567480333766 L 140.45867573275405 451.1663035495313 L 504.45390533195814 554.4437808240002 L 292.1556364527362 566.005155432905 L 653.1592607485767 445.05125193926426 L 423.5672476588137 503.49296800998127 L 639.4520691576446 227.63447248903012 L 400.67594220032925 400.41151859663313 L 443.2142571949363 107.858738224496 L 298.6752610953007 426.21328640824504 L 243.24341106541036 195.14714882129104 L 302.63741244382084 570.9916352871386 L 213.60934649130502 377.978379169335 L 473.5097577684393 653.3370882901697 L 327.44350967187574 458.96499396804387 L 662.4331282800804 539.426466079185 L 401.1133199528518 387.4311968692189 L 678.5664677495745 310.255704263777 L 323.50685223388547 311.30724817977733 L 511.16068802540974 175.13081430606923 L 193.66794038296126 387.7931245880569 L 340.8061587051536 233.14999643623028 L 200.8503557679634 582.1825548867449 L 326.6771255990084 366.3858774062656 L 391.08854805784347 698.5784733161172 L 424.2408810454621 390.5929625147357 L 601.5192144757527 607.7445524524468 L 450.4420454807506 280.8910512309854 L 643.2388600971092 400.1416571374889 L 315.9193801953088 200.81442496898862 L 515.7455636652501 280.95657640873446 L 143.2843903294514 300.03346054806906 L 398.0601240442119 332.3625690358279 L 127.4604835849047 524.559003154418 L 428.9914712235445 426.5835583313599 L 304.1918514106566 669.0600046946595 L 541.0816233857468 391.81831573858045 L 503.9590676607909 610.9189402745806 L 547.3330428926108 229.57113999123163 L 547.1952692440072 447.6104391174456 L 375.57401055615696 120.54007379929237 L 448.1893846240952 374.46968882426705 L 167.40777126400903 210.52737236095973 L 385.28644072435344 450.48762074398053 L 120.6837549519376 432.6707309403076 L 475.5534644307038 533.0498452422715 L 262.0930296093627 579.7854827761139 L 626.3897878990547 458.84974854555594 L 420.76925254709636 541.5450716524264 L 643.6047193641359 252.08028259454974 L 433.486672975703 424.1640797189397 L 466.89352842905873 107.81685397628314 L 335.2670518489325 411.44185756699494 L 249.76397062866522 168.15054995763458 L 307.7482721889022 536.0600747640433 L 186.586229727209 357.66904506608665 L 449.08969073016925 637.0459943640278 L 292.08526098851996 474.49823949683355 L 643.7586315171964 555.0638656861393 L 395.36254497532633 427.58544481201767 L 690.7799465189282 330.85434744799045 L 353.3822436569626 336.52646248652314 L 538.5865286385147 167.38747451956615 L 226.21295522484874 375.98796855455583 L 345.9503862130069 199.01864755454784 L 203.11465776241747 553.6654052064634 L 296.08230306858206 342.13742384004917 L 368.4879899821284 690.5207206140007 L 386.02327473827495 404.2008052575096 L 589.7831039768099 629.0209031466001 L 442.2077096998582 318.6890403544431 L 663.9018788268895 420.8359391746955 L 341.23067658390534 223.3814547458927 L 548.8891047415109 269.08826479734427 L 168.59531007474965 288.34784450094077 L 405.27392181172775 293.6182527493085 L 122.96569604808633 501.27549392710864 L 399.19044590653795 399.131858153859 L 279.47290144098577 669.6816249511382 L 504.26823510921054 402.1148347994164 L 495.68913564734754 639.7604186253764 L 539.707634490611 261.8628561770129 L 573.8045392532395 471.6541247842188 L 397.63419550389585 136.4127143061595 L 486.128770415708 362.66932990026277 L 185.0067547548486 194.9233731234865 L 395.6738814390443 411.43146907524766 L 107.46133128782634 411.18926319935997 L 449.54607962240584 505.7240303501163 L 232.10024738703652 586.6583566448485 L 595.0990118063461 467.3777325967465 L 411.95998592342386 576.954642491997 L 640.7933116254102 278.4421477743472 L 461.81230098338057 452.4119017711636 L 489.1976683238656 114.95569671835892 L 374.51178051917657 402.47345774848867 L 262.01739543374947 145.4636958570586 L 319.4905746970868 500.7835016399158 L 165.6132165688287 334.11662794196803 L 427.1342533147387 614.218476972217 L 256.12307370752853 483.53022572675354 L 620.0579509222074 565.4820243877348 L 383.5095581857067 466.0224102136288 L 696.0313531117164 353.6682013925364 L 379.4710382073081 366.9085343288759 L 564.9756604096741 166.70929187844393 L 262.2913959729781 369.8546260805399 L 356.8147544807331 168.602416518904 L 212.3359016052851 524.1670591055798 L 270.84765352317083 314.22215868683963 L 348.079031419133 675.5356498982849 L 346.32649761116585 411.65127288201177 L 572.7849811266282 645.2415797324416 L 427.5946802042826 355.69201191159493 L 677.8976331224198 443.99124888248616 L 363.26421452063175 251.8210731398998 L 581.540333256772 263.97883733965125 L 198.1268688903886 282.3270199245881 L 418.26955168072885 257.760102322581 L 125.62037561550045 476.6078888237439 L 374.03862409299876 367.3842760713349 L 256.68262292122176 663.2784246120791 L 465.0335676711511 406.42577597887714 L 482.0915747889422 663.9528699927944 L 525.3132850032242 294.1201214828765 L 594.2969560506573 498.5118018173881 L 416.7298991492761 158.7376693148391 L 524.3596171437214 357.2952625114146 L 207.24213974510093 184.95179244301733 L 412.0821452862074 374.33527370456676 L 101.31695593111323 388.05308281432133 L 427.6108906628867 473.3467280161219 L 203.62397385438138 586.6639508784285 L 560.5520374874727 469.9212956700129 L 397.76543863946745 608.3950518229228 L 630.8637306106868 305.29373858216877 L 484.6895863976101 484.0306954467293 L 508.76027474289856 128.86525510726864 L 414.98699266253885 399.7222184473106 L 279.0916018323214 128.19139779716352 L 337.6605896597513 466.61721020265907 L 151.3543902047045 308.6097782860886 L 408.87697543581385 585.6169695099674 L 221.02327578406818 485.97063033560704 L 592.5038139748646 569.8575210912443 L 366.0772498772203 501.356067480975 L 694.018454203284 377.3030777175921 L 400.7267248900091 401.40599970060975 L 588.9183925803374 172.83160714460308 L 300.5317306756512 369.91451346330666 L 372.589496547563 143.10676742491643 L 228.4416730937993 495.13337734638367 L 251.7593857832459 283.8835802938287 L 331.1480889731605 654.2510326679153 L 306.6179272719214 412.73630817388886 L 551.5989484878992 655.46743079062 L 407.01777077648757 390.47969235580996 L 684.7759219159838 468.24382829432017 L 380.9042028355384 285.1839204912633 L 612.2502002062853 265.5001268723866 L 230.5800092221749 282.6044153998066 L 436.3345035488289 226.07749689943617 L 135.4970292739444 451.98443949927497 L 354.42422714866336 332.52778939595703 L 237.162990463125 650.3362533778479 L 424.8211208788483 404.43198617177086 L 464.1441655528643 682.4417135477504 L 504.44390643074405 324.9101228174542 L 608.0850941073263 526.8498997036526 L 431.68111414948453 186.68450847526762 L 561.4069728786415 358.3433740145688 L 232.89984878397613 181.3662511402304 L 433.89738209441833 340.5487607838061 L 102.47469138549855 364.67237577778013 L 410.7211291640213 437.0288499464266 L 178.06197247908958 580.1494256511174 L 524.1436518341443 466.0482439101901 L 379.07236248614663 634.706814091609 L 613.9730143644418 331.20295902458986 L 501.4116982113017 517.7240223820327 L 524.3353126950175 148.84789572193932 L 455.2140424233278 403.2988043475826 L 299.86003925504883 117.21241554045059 L 361.75321713631024 434.9473526594687 L 144.18142117326994 282.54224353460626 L 395.367052535947 552.2534861382409 L 188.23158544015328 482.03803955996636 L 562.4240293556112 567.6368740116806 L 343.862969410234 532.3418477853885 L 684.74906524372 400.3316637082559 L 416.3414740659772 438.77569101438655 L 609.0997245348555 185.19297731607148 L 339.4775454488232 376.39160609086025 L 392.23188875628585 123.53174804629975 L 251.05188064778793 467.9690702249575 L 239.32330078593245 252.49610646164447 L 318.8197540619404 627.560708617781 L 268.37351203052003 407.55644509509267 L 527.4775373275467 659.0150302895452 L 381.1784348452167 421.74640834321326 L 684.3921355709964 492.1698720822096 L 393.2545167538148 322.3026946589256 L 639.6372575257842 273.2209693391899 L 264.54331397409777 289.52393913273545 L 458.50640665411265 199.6774394204146 L 152.35695350721272 428.81983263517566 L 340.96938397258043 295.9057991952204 L 222.11787851998363 631.620527499847 L 385.11237507045547 396.1207225888898 L 443.0245225425797 694.411109008502 L 477.69041273906174 352.88735193833 L 614.8794297064269 555.2479992866257 L 441.50739256762984 219.1846648579259 L 595.8350572335444 365.5028201296172 L 260.6276748353275 184.64107431910105 L 460.2403416530447 311.26412645728476 L 110.84710332286102 342.47102895449007 L 399.5999393998011 398.06249188650577 L 156.69918463413853 567.7520019210647 L 487.3354715882376 455.6287893847288 L 356.9871539321477 654.9494303306335 L 590.583177618398 354.797763861552 L 511.55926554516236 552.0817887152215 L 534.8549466517045 173.95030190205688 L 493.7241497150048 413.0054280626729 L 323.03406813467376 113.13918919226825 L 390.98390533712325 407.02845135992783 L 144.15757185728907 257.34872000644316" stroke-opacity="1" stroke-linecap="round" stroke-miterlimit="10"/></g></svg>