<svg version="1.1" xmlns="http://www.w3.org/2000/svg" xmlns:xlink="http://www.w3.org/1999/xlink" width="800" height="800" viewBox="0 0 800 800"><defs/><g/><g transform="scale(1,1) scale(1,1)"><g transform="scale(1,1)"><rect fill="rgb(0,0,0)" stroke="none" x="0" y="0" width="800" height="800" fill-opacity="1"/></g><path fill="none" stroke="rgb(255,255,255)" paint-order="fill stroke markers" d=" M 400 400 L 253.57412260262353 215.72599854309678 L 334.05280168905426 684.3346926048608 L 514.351458427153 345.67022105489804 L 521.1105232211373 459.3734968188974 L 337.12138417458567 112.93544382083786 L 254.99666512993085 577.9560308265408 L 390.8023191741697 399.887128940065 L 547.5791043882696 590.4780387277713 L 468.8930330257918 118.69354986039178 L 292.6201715537104 449.41164937734493 L 272.35128378554396 335.4664996090501 L 459.6970943587205 689.4909925008812 L 543.3099466242153 228.46425444460237 L 418.3825597326901 400.4512379913256 L 251.53495774294328 203.44334244781862 L 328.29346215553596 677.9853507684414 L 500.2043323187667 355.37189715617694 L 533.9581371263587 469.8001963233425 L 343.587350121292 108.39056385695147 L 258.65531706456204 565.0248765861771 L 372.45814300540275 398.98563748423476 L 549.0862085098933 602.49852766207 L 474.3783763732719 125.62262005863181 L 307.1659531191667 439.9878096369569 L 259.9686948330111 324.83628174078905 L 453.03548566427645 693.4158130602298 L 539.1070178399223 241.56475450305504 L 436.66283723090964 401.8010157244913 L 250.5543943000778 191.70750546390462 L 323.1005234355049 670.4889755863833 L 485.278411437841 364.50090031867813 L 545.8611714228741 480.6139450630969 L 350.4240279063413 105.09345184447864 L 263.40306849241176 551.7787427710754 L 354.26716852153896 397.19051959174243 L 549.546714489179 613.9276000291286 L 479.26104884227595 133.67298368546358 L 322.4527882328201 431.16994725443595 L 248.55886955258134 313.8594804433155 L 446.0446261259618 696.0785719535417 L 533.8149116809509 254.9326940339972 L 454.7392591416793 404.03755431305854 L 250.6065141693149 180.60689733447077 L 318.54539629388705 661.8988088379299 L 469.65056348197635 372.9920436106464 L 556.7650310356646 491.7328677154354 L 357.5479094857044 103.07067363269249 L 269.2380458232635 538.3128978212295 L 336.3303502171679 394.5174456842303 L 548.9903322857286 624.6784975589887 L 483.47196877935005 142.7879253750558 L 338.40110521631703 423.0203469850734 L 238.17281383581795 302.61978170915137 L 438.80911278924697 697.456769548118 L 527.4395624485032 268.47251565455605 L 472.5116647110446 407.14132151190097 L 251.65788150723637 170.2264640779127 L 314.6946947294544 652.2749358164542 L 453.402928636363 380.78605834905375 L 566.6223820773531 503.0716228216269 L 364.8734759480652 102.34062019040607 L 276.15025378920757 524.7230129234036 L 318.74688166898 390.9897727939841 L 547.4541508054725 634.6682441288136 L 486.9471238168031 152.90409957133377 L 354.92633560525144 415.59515330913285 L 228.85411349518844 291.204024002637 L 431.415217616204 697.5361586185437 L 519.9950191263406 282.08860951774636 L 489.88199921360297 411.0851797938229 L 253.66783387930056 160.64705770342985 L 311.60970032010437 641.6838468714291 L 436.6223589195083 387.83002642210005 L 575.3934559955436 514.5420363373707 L 372.3138724602209 102.91336735297637 L 284.1216044380227 511.10446175938307 L 301.6135091520171 386.63836747701066 L 544.9823199158993 643.8182623511739 L 489.6280872659404 163.95199219199608 L 371.93949278786914 408.9439619564645 L 220.63865764638706 279.70155285484185 L 423.95020708448715 696.3108548819573 L 511.5033864157643 295.68601229122726 L 506.7549920409878 415.8345921187021 L 256.58882648016777 151.94483445665554 L 309.3458660579468 630.1979533881602 L 419.3998226096382 394.07776416706963 L 583.0462981662981 526.053757701204 L 379.7815928543957 104.7905952102775 L 293.1260059751002 497.55162408793745 L 285.02386307887787 381.50137174268133 L 541.6256806396188 652.0549593830175 L 491.4624931238515 175.85642611536878 L 389.34778343206733 403.1094613312286 L 213.55441858515204 268.20355534507917 L 416.50165469069884 693.7833875360359 L 501.9947061635277 309.1710997350768 L 523.0388145163598 421.34788387123785 L 260.3668268297778 144.19068603854123 L 307.9523633912502 617.895061763759 L 401.82977807881997 399.49015498349013 L 589.5569591572496 537.5149335745061 L 387.18916875196817 107.96556773839563 L 303.12951086194437 484.15719828158444 L 269.06781213183183 375.6239137342596 L 537.4413463118663 659.3102776290543 L 492.4044661328205 188.53710677427677 L 407.0552472510275 398.1271264713309 L 207.6212897195536 256.802379382585 L 409.1567514848017 689.9646894174975 L 491.5067799965126 322.4522677844339 L 538.6457126436156 427.57655902656876 L 264.9417569754039 137.44970799788416 L 307.4716758716088 604.8578092455973 L 384.0095215899027 404.0354282405665 L 594.909627314144 548.8328942791588 L 394.4498580850211 112.4231728357853 L 314.0905221377333 471.01152787561193 L 253.83084478237245 369.0577653028322 L 532.4922378481393 665.5222062690689 L 492.4150036632784 201.90920384711163 L 424.9634204544707 394.0249677856058 L 202.85098269415354 245.59084281794836 L 402.0016197766244 684.8740268417367 L 480.0849344093303 335.4405971308611 L 553.4926101881894 434.46566820138435 L 270.247979882384 131.78070922974223 L 307.9392424594131 591.173065780079 L 366.03851380629965 407.6893824353278 L 599.0967017528603 559.9148478611842 L 401.4783278820269 118.14002248215269 L 325.9600565030334 458.20194707904415 L 239.39348270572583 361.8609490129756 L 526.8465766068498 670.6352498266268 L 491.4623065459862 215.8839647741376 L 442.9720180541465 390.8233364070947 L 199.24698440378165 234.66153748918384 L 395.1206351313126 678.5388696259333 L 467.78172997953834 348.0504964165393 L 567.5016777057431 441.9542258640249 L 276.21482636895735 127.23576620769569 L 309.38315317783963 576.9313062597444 L 348.01768991451974 410.4355509730653 L 602.1188052745342 570.6685766475196 L 408.1913262267519 125.08461229721178 L 338.6820622854998 445.81215005572204 L 225.83073034568008 354.09729749051303 L 520.577338642905 674.6008503099636 L 489.5220563587608 230.36935558848475 L 460.9796300557127 388.53478758054973 L 196.804574155688 224.10613334803472 L 388.59576170929205 670.994702239373 L 454.65661679011464 360.2003193215082 L 580.6008633803572 449.97567361152164 L 282.76715864376916 123.85982525269753 L 311.8238994135924 562.2259577854704 L 330.0487583870498 412.2653093645839 L 603.9847371722324 581.0031311493689 L 414.50833837978064 133.2175393391388 L 352.1937900056586 433.92158860393914 L 213.21156463465533 345.83596837869146 L 513.7616744323091 677.3777597954763 L 486.57763706165497 245.2707243664326 L 478.8844264584293 387.16400307409106 L 195.51090079487236 214.01468781261767 L 382.50590590701614 662.2847774511971 L 440.7755385490642 371.8129510079845 L 592.7243818233421 458.4583860819704 L 289.82596623487547 121.69035578835025 L 315.27418076531126 547.152726728896 L 312.2334935004002 413.17792306861844 L 604.7113663299818 590.8295161751797 L 420.3522221697087 142.49177656003087 L 366.4262128612081 422.60490266022043 L 201.5984685674147 337.15091849628294 L 506.48029840223364 678.9323606891546 L 482.620299294717 260.4914824169207 L 496.5848659353072 386.7077731643687 L 195.34511916878506 204.4749654584538 L 376.9262931194307 652.4598142728579 L 426.2104882564151 382.81635962841426 L 603.8131572787677 467.3262157506377 L 297.3089898613439 120.75705715908072 L 319.73876991767406 531.8089105384861 L 294.6730267578633 413.18053564971837 L 604.3234654610555 600.0613640769109 L 425.649817914176 152.8530019149726 L 381.3044940995544 411.93138779372396 L 191.04701201265203 328.12034109546323 L 498.8168528218885 679.238931282679 L 477.64926606899985 275.93379821671186 L 513.9804030127412 387.1550383085085 L 196.27858486602887 195.57177308139327 L 371.9278722735533 641.5776423998759 L 411.0390186452902 393.14410884896216 L 613.8152180347514 476.49907257415293 L 305.13136859330564 121.08162119499428 L 325.21443659698 516.2926993312841 L 277.4671423879757 412.28809736102517 L 602.8534877638845 608.6155901450811 L 430.3325283199282 164.2399797220888 L 396.7484978763444 401.964503601889 L 181.6054827954421 318.826070391078 L 490.8572507983929 678.2798546237939 L 471.67177901329376 291.4992990058098 L 530.9721886083698 388.4869901687016 L 198.27510574113887 187.38631505977528 L 367.57675257765936 629.7027957437153 L 395.34371094498186 402.7358276395365 L 622.6860391854945 485.89353418523274 L 313.2063054754758 122.67755229817396 L 331.68993121742295 500.7024724034268 L 260.71358205564945 410.5232347040148 L 600.341287694404 616.4130252946424 L 434.3368640328593 176.5849914915587 L 412.67333990581193 392.7614265938273 L 173.3145707119969 309.35295777463284 L 482.68900327423677 676.0457691345948 L 464.7030847853962 307.0897748907881 L 547.4637588066794 390.67723122041815 L 201.2912483159889 179.9955737928303 L 363.93367669123495 616.9060580294956 L 379.211605828045 411.5376338937771 L 630.388831268076 495.423482112157 L 321.4457466544237 125.55004640391786 L 339.1460284010759 485.13609480296134 L 244.50736384901214 407.91606195438766 L 596.8337879694595 623.379021353706 L 437.604950763103 189.81431307593218 L 428.98997387968285 384.37265084109185 L 166.2071067538509 299.7882243392303 L 474.4005350405541 672.5356598405897 L 456.7663616922817 322.6078802987829 L 563.3617068593495 393.69199173836296 L 205.27669674534735 173.47171980894112 L 361.05353425242356 603.2639637739306 L 362.7336006815167 419.5025087860044 L 636.8947727086276 505.00075930806764 L 329.76106895123326 129.69592973838581 L 347.55563009793167 469.6902191305549 L 228.9401205228116 404.5039360713731 L 592.3845953067308 629.4440244629084 L 440.0849941953145 203.84873464939625 L 445.60580940703517 376.8416392959743 L 160.3078594111721 290.22079451745446 L 466.0804948593416 667.7568895063582 L 447.892587006177 337.95782764444795 L 578.5763335032668 397.49040253133154 L 210.17466164904818 167.8815559221475 L 358.9849194006542 588.8582582933454 L 346.00381759136167 426.5906191371864 L 642.1831844109187 514.5358441111714 L 338.0637707589221 135.10365785232824 L 356.8839275992539 454.45959767982475 L 214.0994618031503 400.33115682966707 L 587.0535677866815 634.5441123298167 L 441.73169920499015 218.60411972411725 L 462.4253569554547 370.2045283260066 L 155.63338949927703 280.74061577272613 L 457.81706483186275 661.72516942017 L 438.120345904669 353.04606812660455 L 593.0222708616226 402.0248213832478 L 215.92233574692952 163.28599956705807 L 357.76973560616403 573.7753206902503 L 329.1189466500829 432.76958544516384 L 646.2416452541619 523.9385356368546 L 346.2661611236761 141.75337497627578 L 367.0886213069563 439.53640994653546 L 200.06836541768712 395.4486144157376 L 580.9063370738991 638.6214913430211 L 442.50664024146454 233.99199910888098 L 479.35089509720956 364.48988760431786 L 152.1919645368628 271.4379693958882 L 449.6972741516065 654.4644700028433 L 427.4955833895679 367.78195467546504 L 606.6190753725723 407.24121076073897 L 222.45139288712846 159.73960715947044 L 357.44285077022676 558.1055540311623 L 312.17756936713835 438.01469364329967 L 649.0660476986492 533.1186455156078 L 354.28204187948086 149.6170332888148 L 378.1201966781988 425.0096104422039 L 186.92460128828822 389.9133871217039 L 574.0137890707747 641.6249498500767 L 442.37858009728416 249.92019547591664 L 496.28315520244746 359.7185370856497 L 149.9835332484106 262.40277751751483 L 441.80632235050683 646.0068718700289 L 416.0713009708041 382.07838219147504 L 619.2917854314832 413.0795639671687 L 229.68852674171075 157.2901440257302 L 358.0318051857183 541.9427471790298 L 295.27946713656627 442.3090490550765 L 650.660593136935 541.9866908419516 L 362.0273777621363 158.6585712605233 L 389.9222543709555 410.9643015673178 L 174.74019306980588 383.78829213809064 L 566.4515068773944 643.5102642189977 L 441.3237346671039 266.29347396466187 L 513.1220185551018 355.9034223917784 L 148.99976033702652 253.7239114838302 L 434.22691707273344 636.3923584047063 L 403.9072002913083 395.85240040949697 L 630.9714396839593 419.4743765651863 L 237.55602515233318 155.9782031079817 L 359.55657455744654 525.3834129456114 L 278.524919794171 445.64367145634543 L 651.0377270746493 550.4545831902702 L 369.4209495153695 168.83414979278749 L 402.43189219828287 397.4811361358413 L 163.58092097121465 377.1413927950722 L 558.2991802111784 644.2405546538287 L 439.32598169995885 283.014214062757 L 529.7672208339105 353.0495494703082 L 149.22412122094005 245.48850673017628 L 427.0386313030242 625.6685513283046 L 391.06927628432055 409.0257948968608 L 641.5955521907368 426.35515955364565 L 245.97237584558513 155.83687529397596 L 362.0293898756184 508.5261073982565 L 262.01399939750536 448.0175305797383 L 650.2180146616608 558.4363085782203 L 376.38498513117463 180.0924444551186 L 415.5801361218802 384.63575391354175 L 153.50586946675526 370.045465923574 L 549.6399856832494 643.7865881005673 L 436.3770119560047 299.98309786918355 L 546.1190587846833 351.15397898013276 L 150.63205599317453 237.78128924394437 L 420.31728483274486 613.8903911849683 L 377.6293628118619 421.5256319508192 L 651.1085410127207 433.6469904756344 L 254.85289901143426 156.89147384440173 L 365.4546155151884 491.47073529545236 L 245.84586438876372 449.43752184169114 L 648.229957535712 565.8485933251125 L 382.84576452754914 192.3749917074378 L 429.2924171576058 372.49825627576456 L 144.56702319421385 362.57743330439246 L 540.5599425426171 642.1270259682706 L 432.47642161646894 317.09980968811794 L 562.0790939358039 350.2058803953851 L 153.19118142532196 230.68391862246347 L 414.13435456365664 601.119765039421 L 363.6646340870871 433.2847634245019 L 659.4621071000201 441.2710983537492 L 264.11040203756056 159.15931498949533 L 369.8286864999139 474.3178467340507 L 230.1180592906296 449.91838251701125 L 645.1097533736192 572.611550856218 L 388.7341931648082 205.61658660136655 L 443.4890907156314 361.1327228185817 L 136.80891397044854 354.81776143857525 L 531.1472486806975 639.2486147998027 L 427.63174522035183 334.26374185325847 L 577.5508481996898 350.18664539020136 L 156.86155940991802 224.27435261137632 L 408.55641803941364 587.4250841022965 L 349.2570655149144 444.2422878027641 L 666.6155607304213 449.1454780965508" stroke-opacity="1" stroke-linecap="round" stroke-miterlimit="10"/></g></svg>