<svg version="1.1" xmlns="http://www.w3.org/2000/svg" xmlns:xlink="http://www.w3.org/1999/xlink" width="800" height="800" viewBox="0 0 800 800"><defs/><g/><g transform="scale(1,1) scale(1,1)"><g transform="scale(1,1)"><rect fill="rgb(0,0,0)" stroke="none" x="0" y="0" width="800" height="800" fill-opacity="1"/></g><path fill="none" stroke="rgb(255,255,255)" paint-order="fill stroke markers" d=" M 400 400 L 594.029304042286 528.3860791902908 L 285.1429932054976 129.62465380091447 L 374.8635405414099 535.9432659038371 L 317.240692329584 485.796004570289 L 681.8706977874842 337.30344145171233 L 170.8375832905669 312.25388928480305 L 412.2527991357721 417.14218146335384 L 407.8806221374459 618.640454776403 L 555.0239588560398 146.30592715652512 L 258.15922394700647 466.3836936693585 L 301.4957209290476 385.4337033399051 L 610.131357190632 588.5639714468588 L 335.2235017046317 151.39789480826047 L 386.3918553626612 439.7743543106455 L 238.55610675175953 524.4205349360319 L 698.6141461445244 378.44564969173507 L 248.1871229431237 314.58540392116663 L 363.75050348710766 329.2980014293481 L 369.6511187630024 672.8280805641293 L 571.1458809338029 194.87094208816046 L 339.84166996821807 418.01253159404297 L 220.17939435729326 345.629219213497 L 591.5647747473614 630.8658804826357 L 379.4050122601818 210.19726671222597 L 427.03130404700255 347.62597716866264 L 168.40452838585526 529.4812784438195 L 675.3056897625149 420.618766363663 L 334.2004329030699 349.0064356382169 L 345.09215713701894 238.088404250228 L 323.79938669409677 689.2452407410923 L 554.2115282303911 262.36572550261207 L 437.7371837660419 394.5236311634057 L 169.47501372224096 291.35150531389297 L 547.2428227201975 642.4281312192998 L 403.9988174533981 296.79335471242 L 489.4406452433992 275.579781064611 L 122.5782489422707 505.36716857622844 L 616.046154398492 448.66733934779165 L 411.8649871372148 412.3669579368748 L 356.4444404663699 160.83481592209012 L 285.97086315940055 666.4266027849856 L 502.60303953503364 332.5065598061744 L 534.7379628465012 400.36355225031184 L 156.13991180694268 237.69392668264987 L 491.3478670563081 616.6570373759333 L 400.72694553541476 396.12700371947665 L 560.2301564252984 234.78497877207036 L 112.32065485726656 463.17444083995576 L 532.2245987448713 451.03819629804343 L 466.95570181104307 494.21014029790945 L 390.4138890651321 112.49393813946739 L 270.309047028607 610.9556124489696 L 422.6714083761399 389.4639050019764 L 613.6569207632921 432.18379994787097 L 178.88607802148118 200.50103240485566 L 439.9136870309836 554.8941875124542 L 368.72776756479374 490.6046317393594 L 623.014745850411 229.08558797689204 L 141.70699469357186 417.9434936409039 L 439.9735105388735 422.632542719627 L 491.18263482330065 579.0333021646841 L 433.9277784055603 102.31097687128357 L 285.9933997524753 535.8969483090218 L 327.4740686478556 421.50256069959283 L 661.0041040140791 479.68678083880684 L 228.83706428796555 192.5852638852154 L 407.0104746738701 466.275266815709 L 314.8139744522699 563.9636371505101 L 662.1971706255443 254.3370088512833 L 206.64140466082804 384.99382999850974 L 356.56311309403264 366.14915215579924 L 483.94240263220354 649.7419201199548 L 471.4425137392513 131.7558608534249 L 334.9173333283534 457.7717537361149 L 233.95850870773677 423.6384437580161 L 669.9272620747138 528.1103803381025 L 291.7091930744611 220.61535908467542 L 401.417165121996 365.80883679004677 L 251.92122392127197 604.8229429531013 L 666.6081783124329 299.5622153563038 L 295.7039501471615 376.21002085121563 L 296.5626342689032 291.60257005477524 L 452.2750265168188 691.5040751739556 L 488.7320711386227 194.21618850993409 L 411.04961849779966 392.7740756315088 L 159.23469194394048 398.7007164877215 L 641.6442414585588 561.7738017938252 L 351.2088219485108 283.4002249397722 L 424.5520237723487 271.1116209309072 L 196.104724568996 609.1066686679789 L 632.1619926878293 349.67342406044605 L 392.65578917458083 397.1423698273107 L 268.64909181899475 214.12236567276497 L 409.0428382334045 695.1191014742228 L 476.3748085730967 276.5165901449173 L 501.63396516606485 353.1006359836137 L 116.78984441393999 356.55736280722067 L 585.0420750468253 567.8612520285852 L 392.85793386586454 371.97081377467504 L 470.1406696018444 198.54647094893497 L 162.7775666511395 580.7889985717964 L 562.9114474374834 389.1242273599108 L 480.02906705403836 445.59713342647103 L 273.79382695255504 150.53729639920098 L 369.75891091636447 659.1249834075234 L 432.12648872841595 361.91410078606606 L 589.9569613844276 344.23852260834633 L 113.51320746656955 311.6873823989071 L 514.539674592344 539.5642215990298 L 407.3627702848729 471.4481661482258 L 525.6983210369718 159.64687322519717 L 163.06100509021684 530.7955003002102 L 470.2551535975398 405.643105883831 L 542.978811772245 512.04636757632 L 305.23839649015144 115.52994117846373 L 348.80440068630713 590.1587257201944 L 361.62458623360084 433.8799075819594 L 659.0520039158533 363.8330157356636 L 148.21237872401534 279.6654097626795 L 446.71054556198055 477.85041211562316 L 392.74707135097105 564.2738830371787 L 575.4829302168198 158.64582909506933 L 201.0923883725192 474.3210926267464 L 370.4744648358257 393.18134828720713 L 572.5144245650772 581.766340053478 L 350.2580710178895 118.2478569590221 L 355.91519164064164 501.4856883276125 L 277.2545187367914 479.7977027935353 L 695.4900068979097 402.39193484153276 L 211.9597640380683 273.376419734467 L 396.44677210179447 391.4438380728255 L 354.75802413366966 634.0649138487233 L 604.2350338533658 191.67243947616228 L 272.91661600692225 427.18951270121147 L 281.1625478397235 353.39080085164983 L 567.372093045481 638.2132034173832 L 393.2984954586154 160.15337085318262 L 393.7557899334737 410.0350632857358 L 195.43334355055515 493.72936210540416 L 692.3866112699681 445.6580670362474 L 290.18657770838377 299.84109735120774 L 373.54998015263754 295.0132558119813 L 305.453065110844 669.2102455361123 L 600.8373054422761 247.79526673026004 L 367.2225827125542 402.09936228640566 L 217.36285904153445 295.2874102197934 L 534.1034032495766 666.8576843637236 L 419.7542982990738 234.6096773774017 L 457.14693426563485 332.62212258985335 L 132.93261180827574 477.6150042467839 L 650.9352356054633 478.09550393764664 L 366.03989264791596 358.3918848103866 L 380.535022032383 205.9796266175518 L 260.29685993580415 665.3861629061461 L 561.0441890459732 311.6661933175633 L 467.76109622939384 405.62682930451916 L 188.30094969351177 233.1765721655777 L 485.3671259660401 658.593185590765 L 419.5106877868696 328.3015588164725 L 534.130938614881 282.22436587980394 L 103.08493372920941 440.6367043485257 L 580.1141992644106 486.6781187503688 L 424.2281676033141 440.6280988619605 L 412.1508587804352 140.6723592738495 L 234.44284067833817 626.4156026100317 L 488.6456561639077 367.15018248307655 L 556.8932852782493 436.6792541421799 L 195.456409912974 183.318865935719 L 436.8255860663187 611.9287447609604 L 389.4244312564106 424.16690267079844 L 608.6336524580611 265.16524806472944 L 112.7469073770568 396.8996025265999 L 494.63614830594764 464.09842793434854 L 454.4693585407917 532.1677524443865 L 456.72551078466296 110.71495766092511 L 239.06293859731232 563.2783379445707 L 394.7897788276399 401.10003441117505 L 619.457946333324 486.7574887362184 L 232.41256887615168 160.10687843223226 L 403.3685544959152 533.4574056675707 L 334.16627739733076 505.1676326001091 L 664.11226556511 279.84890915150254 L 160.71786829212866 361.97288451801 L 411.6122440676765 410.64886397204424 L 453.74879540165193 615.7986191203739 L 499.0198125232242 120.46857844536396 L 278.5788918534623 491.50436361154544 L 295.61324699609327 406.4031072012989 L 646.0727359764209 541.9661267520421 L 286.51164732931164 172.63803466968983 L 395.54204464038315 436.4873627155372 L 265.2261222668698 558.0358693298842 L 687.3493542183417 317.3308162154407 L 237.97934987894362 349.0963825911912 L 346.6987948018148 334.3341615958949 L 426.86994373696376 675.3074626517453 L 523.925509503622 166.11888125972925 L 349.4410683660707 427.55470994835724 L 208.71924020066325 383.59640051545915 L 635.1145698868577 586.3058870331665 L 341.92700131647393 222.47824142434692 L 417.01113237050834 338.1462076557136 L 198.30747455866822 576.1375575848274 L 671.5184224348127 363.58522110107214 L 329.70136654348846 365.9355874252535 L 310.6121401785771 249.18234209881186 L 385.1762445678975 699.1089285647565 L 520.1476010952935 236.61350095076534 L 440.7439754451133 385.0262308898976 L 149.3081282431157 340.67822742437147 L 592.9289403007829 605.4851832986855 L 383.4379006248985 303.13746898926496 L 463.6461261370401 255.62015961858134 L 149.7108553780174 560.7999269497199 L 617.8128969946761 402.93870337443866 L 418.5552400242544 412.6408994689303 L 306.81142217412366 172.13830730415168 L 343.74521718676715 682.8407250175018 L 483.0139400517131 316.2316944670042 L 536.5438537205399 371.55611398600104 L 126.84691742981187 291.1622931397159 L 532.2258880492384 590.3668613092653 L 400.03120253776575 401.3842619978271 L 524.445473366429 202.3891927341973 L 132.54052107955584 520.8038710171379 L 535.2606674505325 421.870191550564 L 488.5724240877943 481.66529718374136 L 330.8783257126677 119.2521685396236 L 317.70926458314756 630.329031560235 L 415.75625036309185 388.1924292991168 L 619.3507708924265 387.13895834196927 L 143.03960072166888 250.82693199170407 L 469.03792249127343 539.2492126012537 L 387.49544844202165 500.10251040136984 L 584.0835115472112 185.31957761132747 L 153.6110948693631 470.16575929167624 L 438.76368280843076 412.29378115415994 L 528.6638948114608 559.3879005355525 L 371.73042514412873 102.03837554850855 L 318.55958839033354 552.7028439808844 L 328.95950638208694 438.46894606181934 L 673.9961421549256 424.2419049411311 L 191.56115299498944 233.91456366607233 L 418.9459402853093 458.44853570914466 L 349.4067823601495 582.0383740830871 L 626.4947560693479 203.2773974147982 L 211.77054328913962 424.72762083743714 L 345.81053860311044 373.56078062156206 L 534.9939445744933 629.1730542294938 L 414.38102961928485 124.84359759580809 L 351.2936728286227 465.8617490644702 L 238.29961032879388 458.9315741670476 L 690.9892806124333 469.6870839997895 L 259.6119082029177 249.66430438391518 L 393.44685852015664 361.04185511460594 L 296.2786431447301 633.580051575747 L 638.6657862323707 247.57577455365728 L 298.03034737756195 398.34904232073706 L 272.6151973721834 312.71396761560607 L 511.66731877123266 675.162021211403 L 443.6011970280689 183.8298922597589 L 413.07199413821286 386.88021064782424 L 161.08488056927519 449.0969302083322 L 668.5936006530649 507.86166982683073 L 330.93012688484345 299.984560255646 L 397.30260092073655 264.0526323114792 L 243.07238406579216 647.7054646772602 L 613.7565319715072 304.145808794112 L 397.4777893391057 399.5851992928862 L 230.56658194014705 242.93155335768503 L 469.57835718780507 685.923952630372 L 447.63133639137646 267.80833373474246 L 493.70091581432143 330.17551654819624 L 112.39370610230816 416.0844516417759 L 613.1474865203469 524.5085313838389 L 389.5653499069542 378.809874826118 L 427.48217228071644 184.72152100188768 L 205.64564152950118 625.4246560950971 L 552.826294372159 356.9241269531031 L 492.5349530481085 429.6221998875436 L 223.80142457303918 180.51743218946228 L 423.69518689188885 657.123866819029 L 421.0786053362885 360.73261585478525 L 577.8366293550046 304.3198070953887 L 101.69491318239017 372.79596650686085 L 537.5586961256317 510.21579100684255 L 423.5409520870996 473.29787557213876 L 473.9394751240467 136.71553106800815 L 196.96173527451194 575.3905301631937 L 464.7607652417713 391.67009802782144 L 566.8189825401433 481.9495371101424 L 248.4531672200774 141.13117243574942 L 389.4131104420701 592.5908087634757 L 366.3247119645614 445.2803801897775 L 648.4069340650389 310.2268323612383 L 130.72715376182055 334.74491722894925 L 458.3213369540589 462.7926609352061 L 427.56130541023595 566.5974987710647 L 522.0444949036101 127.14359975320752 L 223.93970783779784 511.7734832927233 L 364.41061719580415 399.3277265653606 L 608.7198859209325 543.8472113681055 L 293.7428112712402 136.1280849257659 L 378.82580832622546 503.53719660669543 L 293.11325001360456 506.7002040954279 L 690.4655181907203 341.1258738392208 L 193.12436086082153 316.27407863423304 L 391.7440072502441 387.9757956365567 L 404.1408534063994 641.5567758471786 L 556.1026466032054 155.06113078982546 L 285.67775921749535 450.8951276439466 L 269.3643315160862 378.153586921837 L 613.8776022283466 599.344878150986 L 344.6527035166654 169.85571350874676 L 397.78134218850096 406.10575187084896 L 216.40679490673853 536.0419272137317 L 694.5923587209184 384.32209084801593 L 275.87273407110956 327.0420591001472 L 350.2583279883559 298.29580148940266 L 362.8979249447511 684.5210986116383 L 563.1448354777539 211.80332519657853 L 373.466658472887 407.40150995615767 L 196.0927337293405 334.1183112784827 L 585.9940564245535 632.9692265502242 L 385.55937569341 238.53371296252718 L 444.40798851869624 317.8052279106309 L 153.0044468276122 532.0311654664167 L 659.0572633983641 424.329794330572 L 362.26344840082726 369.59689293936407 L 339.65716374262234 210.35853398654396 L 318.18086984905614 688.3512302145562 L 536.107392126047 283.06615761069855 L 472.59715767427525 390.86119077269547 L 156.3475785838068 279.48900498423353 L 535.7998921286144 633.4124875955238 L 403.9809188170604 330.97989431591157 L 509.45467491996544 253.65162779257398 L 117.69786285167635 501.16238592767405 L 590.247620167466 446.64808750659455 L 435.6614932662336 438.6039241973279 L 357.8959927332934 141.16229053586932 L 285.5800086527718 653.969417972623 L 475.66116079737344 352.2517639082322 L 565.5516878478054 403.57410136699275 L 154.63803703623944 229.92119934286293 L 478.420889792375 596.2718629947201 L 393.5688647964773 431.02022977235924 L 578.3707979804593 222.89881317596138 L 119.85170841199158 455.99641399732946 L 501.2605947566783 441.3001258283054 L 483.22403568940047 521.9129076329104 L 395.7289973630798 104.29537261829972 L 278.1368536685501 590.0804979059166 L 390.2603374246592 404.3045507394872 L 635.8511581797558 440.0962388438664 L 187.36058132812462 200.73429645251076 L 429.75761217501366 525.2229043554968 L 355.65001990458916 521.0328612916767 L 634.647446306985 227.1058663394152 L 161.1979293776911 412.0627341590174" stroke-opacity="1" stroke-linecap="round" stroke-miterlimit="10"/></g></svg>