<?xml version="1.0" encoding="UTF-8" standalone="no"?>
<svg
   xmlns:dc="http://purl.org/dc/elements/1.1/"
   xmlns:cc="http://creativecommons.org/ns#"
   xmlns:rdf="http://www.w3.org/1999/02/22-rdf-syntax-ns#"
   xmlns:svg="http://www.w3.org/2000/svg"
   xmlns="http://www.w3.org/2000/svg"
   xmlns:xlink="http://www.w3.org/1999/xlink"
   xmlns:sodipodi="http://sodipodi.sourceforge.net/DTD/sodipodi-0.dtd"
   xmlns:inkscape="http://www.inkscape.org/namespaces/inkscape"
   version="1.1"
   width="32cm"
   height="32cm"
   viewBox="0 0 1209.4487 1209.4487"
   id="svg14"
   sodipodi:docname="red_fill.svg"
   inkscape:version="0.92.4 (5da689c313, 2019-01-14)">
  <metadata
     id="metadata18">
    <rdf:RDF>
      <cc:Work
         rdf:about="">
        <dc:format>image/svg+xml</dc:format>
        <dc:type
           rdf:resource="http://purl.org/dc/dcmitype/StillImage" />
        <dc:title></dc:title>
      </cc:Work>
    </rdf:RDF>
  </metadata>
  <sodipodi:namedview
     pagecolor="#ffffff"
     bordercolor="#666666"
     borderopacity="1"
     objecttolerance="10"
     gridtolerance="10"
     guidetolerance="10"
     inkscape:pageopacity="0"
     inkscape:pageshadow="2"
     inkscape:window-width="1920"
     inkscape:window-height="1017"
     id="namedview16"
     showgrid="false"
     units="cm"
     inkscape:zoom="0.417193"
     inkscape:cx="43.498242"
     inkscape:cy="333.53871"
     inkscape:window-x="-8"
     inkscape:window-y="1072"
     inkscape:window-maximized="1"
     inkscape:current-layer="g12" />
  <defs
     id="defs2">
    <linearGradient
       inkscape:collect="always"
       id="linearGradient6518">
      <stop
         style="stop-color:#800000;stop-opacity:1;"
         offset="0"
         id="stop6514" />
      <stop
         style="stop-color:#800000;stop-opacity:0;"
         offset="1"
         id="stop6516" />
    </linearGradient>
    <linearGradient
       inkscape:collect="always"
       id="linearGradient6486">
      <stop
         style="stop-color:#800000;stop-opacity:1;"
         offset="0"
         id="stop6482" />
      <stop
         style="stop-color:#800000;stop-opacity:0;"
         offset="1"
         id="stop6484" />
    </linearGradient>
    <linearGradient
       inkscape:collect="always"
       id="linearGradient6478">
      <stop
         style="stop-color:#aa0000;stop-opacity:1;"
         offset="0"
         id="stop6474" />
      <stop
         style="stop-color:#aa0000;stop-opacity:0;"
         offset="1"
         id="stop6476" />
    </linearGradient>
    <linearGradient
       inkscape:collect="always"
       id="linearGradient6470">
      <stop
         style="stop-color:#800000;stop-opacity:1;"
         offset="0"
         id="stop6466" />
      <stop
         style="stop-color:#800000;stop-opacity:0;"
         offset="1"
         id="stop6468" />
    </linearGradient>
    <linearGradient
       inkscape:collect="always"
       id="linearGradient6462">
      <stop
         style="stop-color:#800000;stop-opacity:1;"
         offset="0"
         id="stop6458" />
      <stop
         style="stop-color:#800000;stop-opacity:0;"
         offset="1"
         id="stop6460" />
    </linearGradient>
    <meshgradient
       inkscape:collect="always"
       id="meshgradient4896"
       gradientUnits="userSpaceOnUse"
       x="963.61273"
       y="-227.71786">
      <meshrow
         id="meshrow4898">
        <meshpatch
           id="meshpatch4900">
          <stop
             path="c 66.9947,0  133.989,0  200.984,0"
             style="stop-color:#ffffff;stop-opacity:1"
             id="stop4902" />
          <stop
             path="c 0,12.4061  0,24.8122  0,37.2183"
             style="stop-color:#800000;stop-opacity:1"
             id="stop4904" />
          <stop
             path="c -66.9947,0  -133.989,0  -200.984,0"
             style="stop-color:#ffffff;stop-opacity:1"
             id="stop4906" />
          <stop
             path="c 0,-12.4061  0,-24.8122  0,-37.2183"
             style="stop-color:#800000;stop-opacity:1"
             id="stop4908" />
        </meshpatch>
      </meshrow>
    </meshgradient>
    <meshgradient
       inkscape:collect="always"
       id="meshgradient4910"
       gradientUnits="userSpaceOnUse"
       x="686.13654"
       y="661.99774">
      <meshrow
         id="meshrow4912">
        <meshpatch
           id="meshpatch4914">
          <stop
             path="c 26.4827,0  52.9654,0  79.4481,0"
             style="stop-color:#ffffff;stop-opacity:1"
             id="stop4916" />
          <stop
             path="c 0,15.3704  0,30.7408  0,46.1112"
             style="stop-color:#800000;stop-opacity:1"
             id="stop4918" />
          <stop
             path="c -26.4827,0  -52.9654,0  -79.4481,0"
             style="stop-color:#ffffff;stop-opacity:1"
             id="stop4920" />
          <stop
             path="c 0,-15.3704  0,-30.7408  0,-46.1112"
             style="stop-color:#800000;stop-opacity:1"
             id="stop4922" />
        </meshpatch>
      </meshrow>
    </meshgradient>
    <meshgradient
       inkscape:collect="always"
       id="meshgradient6402"
       gradientUnits="userSpaceOnUse"
       x="726.7464"
       y="385.99039">
      <meshrow
         id="meshrow6404">
        <meshpatch
           id="meshpatch6406">
          <stop
             path="c 28.1938,0  56.3875,0  84.5813,0"
             style="stop-color:#ffffff;stop-opacity:1"
             id="stop6408" />
          <stop
             path="c 0,18.3298  0,36.6595  0,54.9893"
             style="stop-color:#800000;stop-opacity:1"
             id="stop6410" />
          <stop
             path="c -28.1938,0  -56.3875,0  -84.5813,0"
             style="stop-color:#ffffff;stop-opacity:1"
             id="stop6412" />
          <stop
             path="c 0,-18.3298  0,-36.6595  0,-54.9893"
             style="stop-color:#800000;stop-opacity:1"
             id="stop6414" />
        </meshpatch>
      </meshrow>
    </meshgradient>
    <meshgradient
       inkscape:collect="always"
       id="meshgradient6430"
       gradientUnits="userSpaceOnUse"
       x="624.66095"
       y="227.05965">
      <meshrow
         id="meshrow6432">
        <meshpatch
           id="meshpatch6434">
          <stop
             path="c 23.1883,0  46.3766,0  69.5649,0"
             style="stop-color:#ffffff;stop-opacity:1"
             id="stop6436" />
          <stop
             path="c 0,18.992  0,37.984  0,56.976"
             style="stop-color:#800000;stop-opacity:1"
             id="stop6438" />
          <stop
             path="c -23.1883,0  -46.3766,0  -69.5649,0"
             style="stop-color:#ffffff;stop-opacity:1"
             id="stop6440" />
          <stop
             path="c 0,-18.992  0,-37.984  0,-56.976"
             style="stop-color:#800000;stop-opacity:1"
             id="stop6442" />
        </meshpatch>
      </meshrow>
    </meshgradient>
    <meshgradient
       inkscape:collect="always"
       id="meshgradient6444"
       gradientUnits="userSpaceOnUse"
       x="547.25177"
       y="111.71681">
      <meshrow
         id="meshrow6446">
        <meshpatch
           id="meshpatch6448">
          <stop
             path="c 26.0584,0  52.1168,0  78.1752,0"
             style="stop-color:#ffffff;stop-opacity:1"
             id="stop6450" />
          <stop
             path="c 0,21.485  0,42.9701  0,64.4551"
             style="stop-color:#800000;stop-opacity:1"
             id="stop6452" />
          <stop
             path="c -26.0584,0  -52.1168,0  -78.1752,0"
             style="stop-color:#ffffff;stop-opacity:1"
             id="stop6454" />
          <stop
             path="c 0,-21.485  0,-42.9701  0,-64.4551"
             style="stop-color:#800000;stop-opacity:1"
             id="stop6456" />
        </meshpatch>
      </meshrow>
    </meshgradient>
    <linearGradient
       inkscape:collect="always"
       xlink:href="#linearGradient6462"
       id="linearGradient6464"
       x1="354.74457"
       y1="182.96605"
       x2="398.5102"
       y2="182.96605"
       gradientUnits="userSpaceOnUse" />
    <linearGradient
       inkscape:collect="always"
       xlink:href="#linearGradient6470"
       id="linearGradient6472"
       x1="748.99229"
       y1="96.106474"
       x2="838.44552"
       y2="96.106474"
       gradientUnits="userSpaceOnUse" />
    <linearGradient
       inkscape:collect="always"
       xlink:href="#linearGradient6478"
       id="linearGradient6480"
       x1="216.4747"
       y1="-234.57573"
       x2="313.1858"
       y2="-234.57573"
       gradientUnits="userSpaceOnUse" />
    <linearGradient
       inkscape:collect="always"
       xlink:href="#linearGradient6486"
       id="linearGradient6490"
       x1="1047.3044"
       y1="485.58044"
       x2="1157.4631"
       y2="485.58044"
       gradientUnits="userSpaceOnUse" />
    <meshgradient
       inkscape:collect="always"
       id="meshgradient6500"
       gradientUnits="userSpaceOnUse"
       x="34.046764"
       y="416.08469">
      <meshrow
         id="meshrow6502">
        <meshpatch
           id="meshpatch6504">
          <stop
             path="c 69.5037,0  139.007,0  208.511,0"
             style="stop-color:#ffffff;stop-opacity:1"
             id="stop6506" />
          <stop
             path="c 0,80.5533  0,161.107  0,241.66"
             style="stop-color:#800000;stop-opacity:1"
             id="stop6508" />
          <stop
             path="c -69.5037,0  -139.007,0  -208.511,0"
             style="stop-color:#ffffff;stop-opacity:1"
             id="stop6510" />
          <stop
             path="c 0,-80.5533  0,-161.107  0,-241.66"
             style="stop-color:#800000;stop-opacity:1"
             id="stop6512" />
        </meshpatch>
      </meshrow>
    </meshgradient>
    <linearGradient
       inkscape:collect="always"
       xlink:href="#linearGradient6518"
       id="linearGradient6520"
       x1="1100.1722"
       y1="-53.173541"
       x2="1193.4766"
       y2="-53.173541"
       gradientUnits="userSpaceOnUse" />
  </defs>
  <g
     id="g4"
     transform="translate(0,409.44886)" />
  <g
     id="g12"
     transform="translate(0,409.44886)">
    <path
       d="m 624.57604,196.43045 6.19882,16.94405 -33.28934,6.57018 -19.66295,-49.80386 57.58849,-44.93455 76.23567,53.20084 -30.87236,109.46612 -132.12984,7.55684 L 489.97232,153.4873 616.81269,36.49527 785.70041,126.81229 756.5452,337.45067 532.37356,385.59806 401.04276,172.90408 564.80748,-39.547227 835.49552,48.73402 847.34576,354.26439 551.778,477.41928 324.12833,226.36373 486.21015,-91.4269 853.09904,-45.092812 940.35167,334.95136 605.07641,557.61046 270.70523,307.16705 391.49498,-110.93421 834.96868,-141.74954 C 1135.4983,-281.84139 1362.8762,-335.57206 1022.404,281.08739 L 685.84346,614.44551 249.06592,404.85552 293.36975,-94.26431 782.43698,-227.89454 1081.8036,198.97347 783.88439,639.35452 263.18878,506.63607 205.04395,-42.536994 701.53104,-291.58179 1109.905,98.77808 886.623,628.09253 312.19414,599.12401 138.42786,38.35496 602.15193,-323.88897 1102.2962,-6.847446 980.81588,581.319 390.46325,670.16672 102.51028,138.54749 496.72696,-320.13385 1059.4004,-104.49231 1054.3557,504.50883 488.40304,710.49942 102.13342,245.54853 398.51673,-280.51267 986.41884,-181.8127 1097.9211,407.20711 593.75232,715.00736 137.33256,345.93915 319.80911,-210.07375 892.62249,-229.21324 1106.2452,301.72929 693.25172,683.42259 203.33172,427.2013 270.24617,-118.02976 790.08953,-241.15367 1078.8345,201.4836 774.44955,620.36001 291.19478,479.4226 255.51042,-16.50264 692.05966,-216.90293 1020.0339,119.14485 827.39797,534.68813 389.04236,496.64599 276.55228,81.12806 611.1307,-160.63793 938.43467,64.92796 846.00705,438.32016 483.67165,477.68044 329.46119,162.04812 557.54252,-80.873273 845.70289,45.19688 828.87382,344.59015 562.35504,426.26215 405.9998,215.75461 537.78211,10.699892 754.98839,61.59828 779.47245,266.43541 614.57519,350.54392 494.72742,235.48666 l 58.9732,-134.67837 125.43264,10.03007 26.54612,103.795 -72.2222,47.34975 -50.8962,-42.83669 19.70052,-42.74034 26.65835,8.72662 -10.2209,11.19969 -1.99251,-22.55363 39.8515,-4.19459 19.39776,56.86967 -64.35382,46.81448 -80.0674,-59.19068 L 566.9203,99.07173 705.68272,94.20948 763.82562,243.42372 629.91435,362.13311 457.21597,265.46406 491.23376,49.15243 722.31018,3.98042 852.95978,224.32614 681.70144,438.50386 407.02223,343.46419 400.34715,31.92107 22.526892,668.15429 930.25317,171.11804 760.20938,490.8496 388.94262,437.38584 307.06728,50.80974 650.26429,-168.71019 984.19451,90.43676 855.00673,510.90435 406.58758,534.32948 224.56096,104.31363 569.66584,-226.11813 1006.4362,-7.303887 953.40575,494.79472 458.69499,620.94633 164.56129,186.19484 471.62139,-251.68934 992.93218,-109.33233 1042.1913,443.56914 539.30064,685.25773 135.76696,286.33156 368.68417,-241.11086 944.49159,-202.2591 1109.4219,363.05602 638.55033,718.28792 142.65664,392.09644 274.10125,-194.97059 866.66906,-273.90129 1146.0564,263.07075 744.04221,715.28747 184.87822,490.07642 200.00892,-118.67788 769.00869,-314.94225 1147.1871,156.07908 842.51427,676.38084 257.29571,567.89971 155.77902,-21.727219 663.74405,-320.20106 1112.7075,55.49954 921.65215,606.54981 350.68885,615.92094 146.74299,83.59466 564.13331,-289.33789 1047.3271,-26.124194 971.76563,514.95465 453.0095,628.53458 173.46561,183.88245 482.65169,-226.90027 959.92996,-78.831633 987.10778,413.68634 551.02163,604.93805 231.66875,266.43821 429.29426,-141.7027 862.36354,-96.60177 966.65808,316.11889 632.10583,549.24008 312.81546,321.00088 410.2133,-45.625148 767.82381,-78.172264 914.25933,235.08726 685.97763,469.89978 405.27347,341.14379 426.88186,48.00632 689.05772,-27.210537 838.09337,181.13851 706.08873,378.57294 495.90175,325.14935 l -20.0075,-198.91338 160.73118,-78.0485 112.9393,112.90746 -59.04626,127.42763 -118.67695,-12.28034 -22.41095,-97.99796 68.03118,-41.64256 44.28364,40.52315 -19.51122,35.68564 -19.96464,-10.66197 14.05542,-5.32585 -2.39432,28.02307 -46.33832,1.60187 -18.90517,-63.93122 71.18643,-48.47442 83.71332,65.31405 L 683.50411,299.76499 538.18023,301.7132 480.7951,145.22699 621.84946,25.0199 798.17444,128.17931 1165.3931,539.39149 521.19153,392.00466 391.45354,164.00129 570.28347,-51.683039 848.77174,50.25923 850.07865,367.6851 539.86805,484.32655 313.77801,216.95297 491.8686,-104.49953 867.33305,-43.755115 943.63249,349.22713 592.56886,565.37682 259.31457,297.50674 396.9931,-125.10734 1171.3744,-209.29739 1026.5926,296.09063 672.99187,623.36042 236.46581,395.29383 298.32399,-109.56469 798.50477,-228.07082 1087.1938,214.45013 771.03298,649.59758 249.34497,497.56444 209.08219,-58.848553 718.20802,-293.0057 1116.6833,114.38042 874.16162,639.70758 297.21342,590.9248 141.23979,21.277135 619.09637,-326.7593 1110.5161,8.484647 969.12756,594.20666 374.58146,663.16199 103.88973,121.04599 513.54706,-324.51513 1068.9733,-89.82233 1043.7664,518.43844 471.954,704.90786 102.00557,228.0189 414.82194,-286.32593 997.12548,-168.14107 1088.6558,421.84666 577.12486,710.91525 135.76485,328.77812 335.26189,-217.1067 904.14169,-216.77647 1098.3996,316.6889 676.83833,680.77273 200.52417,410.75479 284.6054,-125.96516 802.0404,-230.058 1072.3624,216.36714 758.59514,618.96018 287.45245,463.94059 268.66266,-24.96085 704.05285,-207.11152 1014.7552,133.60211 812.35402,534.23786 384.73456,482.25063 288.52528,72.53805 622.81991,-151.97745 934.06031,78.70068 831.90035,438.45219 479.18139,464.35141 340.41808,153.67628 568.6701,-73.059147 841.87574,58.15213 815.69068,344.92089 558.02686,413.84145 416.21508,207.8629 548.21322,18.023206 751.33351,73.74478 767.06253,266.6177 610.66866,338.7596 504.54774,228.21432 l 58.89207,-120.19699 111.86876,14.30605 18.46999,92.08062 -63.66647,36.08424 -37.75626,-37.99628 19.09484,-28.6463 13.21423,12.37455 -17.69818,-0.67192 6.95712,-33.34741 52.74418,1.20577 18.18533,70.98196 -78.08016,49.91243 L 519.60328,212.73552 203.81855,-291.65612 716.37127,88.24871 772.77015,252.0009 624.50667,373.4839 444.74266,263.70101 489.04509,36.44877 733.7256,-2.106331 862.32139,233.55404 675.84841,450.52291 393.73705,341.53897 397.9876,18.365867 715.42103,-94.68056 940.38223,180.86376 754.16598,503.81475 374.68822,435.64371 304.16034,36.38673 663.0286,-176.1631 995.37163,100.44312 849.11559,524.98122 391.34238,533.15499 220.74592,89.14854 582.78788,-234.7249 1018.8322,2.615539 948.05075,510.01218 442.57804,620.71075 159.5426,170.54031 484.75748,-261.63165 1006.584,-99.89135 1037.7453,459.8132 522.55745,686.26825 129.35583,270.53451 381.44479,-252.43494 959.29425,-193.67987 1106.1968,380.08349 621.52194,720.74549 134.7974,376.55261 286.10269,-207.57932 882.38877,-266.50741 1144.2606,280.5402 727.11988,719.25906 175.65692,475.17833 210.92385,-132.3426 785.31266,-308.95456 1146.8977,173.5954 826.08911,681.78992 246.92958,553.98499 165.38,-36.117339 680.24419,-315.70819 1113.8596,72.66568 906.06291,613.18624 339.49787,603.22801 154.93221,68.86825 580.43693,-286.28516 1049.723,-9.655262 957.25519,522.50284 441.37316,617.17193 180.2868,169.21594 498.41338,-225.0976 963.26611,-63.311577 973.79186,421.76757 539.32945,594.87115 237.30015,252.18256 444.26042,-140.85134 866.27147,-82.154679 954.51105,324.34232 620.70481,540.29769 317.54422,307.41578 424.25556,-45.358829 771.92106,-64.779928 903.12015,243.10241 675.1268,461.79896 409.45571,328.36392 440.01215,48.07087 692.9992,-14.716903 827.68878,188.68222 695.92456,370.95912"
       stroke-miterlimit="10"
       id="path10"
       inkscape:connector-curvature="0"
       style="fill:none;stroke:#000000;stroke-width:3.25900006;stroke-linecap:round;stroke-miterlimit:10;stroke-dasharray:none;stroke-opacity:1;paint-order:fill stroke markers"
       sodipodi:nodetypes="ccccccccccccccccccccccccccccccccccccccccccccccccccccccccccccccccccccccccccccccccccccccccccccccccccccccccccccccccccccccccccccccccccccccccccccccccccccccccccccccccccccccccccccccccccccccccccccccccccccccccccccccccccccccccccccccccccccccccccccccccccccccccccccccccccccccccccccccccccccccccccccccccccccccccccccccccccccccccccccccccccccccccccccccccccccccccccccccccccccccccc" />
    <path
       style="opacity:1;fill:url(#meshgradient6500);fill-opacity:1;stroke:#000000;stroke-width:7.81173229;stroke-miterlimit:10;stroke-dasharray:none;stroke-opacity:1"
       d="M 38.642105,646.92032 C 52.476526,623.19093 174.79088,417.03591 175.59065,416.10007 c 0.45478,-0.53216 0.12855,12.81109 -0.72498,29.65167 -1.37113,27.05338 -1.08835,30.87862 2.42814,32.84656 2.189,1.22502 3.98,4.68136 3.98,7.68075 0,4.73408 3.77832,6.95474 28.64303,16.83463 l 28.64303,11.38119 1.52061,11.21069 c 0.83634,6.16588 1.94571,12.82865 2.46528,14.80615 0.68233,2.59695 -27.67597,19.23875 -102.11339,59.9243 -56.681939,30.98087 -104.311282,56.75268 -105.842987,57.27069 -1.531705,0.51801 0.29202,-4.33586 4.052722,-10.78638 z"
       id="path4796"
       inkscape:connector-curvature="0" />
    <path
       style="opacity:1;fill:url(#linearGradient6480);fill-opacity:1;stroke:#000000;stroke-width:7.81173229;stroke-miterlimit:10;stroke-dasharray:none;stroke-opacity:1"
       d="m 243.9292,-232.81465 c -13.65875,-21.73376 -24.23967,-40.11035 -23.51316,-40.83686 0.72652,-0.72652 19.86794,12.48538 42.53651,29.35977 l 41.21556,30.68071 -10.51149,2.53447 c -8.12315,1.95861 -10.68552,3.75987 -11.27744,7.92766 -0.45733,3.22009 -2.43727,5.39319 -4.9138,5.39319 -2.28131,0 -5.17254,1.00282 -6.42496,2.2285 -1.42369,1.39328 -11.58462,-12.58156 -27.11122,-37.28744 z"
       id="path4798"
       inkscape:connector-curvature="0" />
    <path
       style="opacity:1;fill:url(#linearGradient6520);fill-opacity:1;stroke:#000000;stroke-width:7.81173229;stroke-miterlimit:10;stroke-dasharray:none;stroke-opacity:1"
       d="m 1110.387,95.13839 c -0.7992,-1.29316 0.2703,-6.47604 2.3768,-11.51755 2.9421,-7.04132 3.2035,-10.16941 1.1278,-13.49317 -2.0121,-3.22192 -1.9937,-5.65072 0.072,-9.511 2.3791,-4.44537 1.9033,-5.93346 -3.3385,-10.44229 l -6.1129,-5.25814 4.665,-20.0639 c 8.4306,-36.25955 62.9585,-227.402 64.8717,-227.402 3.9193,0 11.5593,19.4776 14.1241,36.00808 6.778,43.68504 -11.5961,117.07479 -54.5968,218.07097 -18.4328,43.29315 -20.723,47.59998 -23.1895,43.609 z"
       id="path4800"
       inkscape:connector-curvature="0" />
    <path
       style="opacity:1;fill:url(#meshgradient4896);fill-opacity:1;stroke:#000000;stroke-width:7.81173229;stroke-miterlimit:10;stroke-dasharray:none;stroke-opacity:1"
       d="m 963.84498,-192.89666 c 1.98057,-3.20463 70.69492,-25.24401 95.15692,-30.52053 13.1826,-2.84352 30.0897,-4.30067 49.9001,-4.30067 28.2593,0 30.7727,0.39797 44.2235,7.00219 11.8493,5.81788 13.4709,7.30802 9.5879,8.81036 -4.3291,1.67495 -186.28547,21.54889 -195.97343,21.40494 -2.38489,-0.0354 -3.68763,-1.11376 -2.89499,-2.39629 z"
       id="path4802"
       inkscape:connector-curvature="0" />
    <path
       style="opacity:1;fill:url(#linearGradient6490);fill-opacity:1;stroke:#000000;stroke-width:7.81173229;stroke-miterlimit:10;stroke-dasharray:none;stroke-opacity:1"
       d="m 1099.3141,521.83366 c -25.7075,-6.02193 -47.249,-11.35267 -47.87,-11.84611 -0.621,-0.49343 0.039,-1.64747 1.4672,-2.56454 1.4894,-0.95656 3.3178,-14.9516 4.2888,-32.82804 1.4989,-27.59715 2.2631,-31.60395 6.6819,-35.03714 4.8436,-3.76325 6.1939,-2.53047 46.2182,42.19384 22.6758,25.33869 41.9934,47.30757 42.928,48.81973 2.5308,4.09482 -2.2564,3.31609 -53.7141,-8.73774 z"
       id="path4804"
       inkscape:connector-curvature="0" />
    <path
       style="opacity:1;fill:url(#meshgradient4910);fill-opacity:1;stroke:#000000;stroke-width:7.81173229;stroke-miterlimit:10;stroke-dasharray:none;stroke-opacity:1"
       d="m 708.10507,698.13484 c -12.80061,-5.3797 -22.6689,-10.7602 -21.92953,-11.9565 0.73937,-1.1963 2.81802,-1.6096 4.61924,-0.9184 1.82443,0.7001 9.216,-4.1731 16.68873,-11.0028 l 13.41379,-12.25942 22.65863,4.45512 c 12.46225,2.4504 22.37108,5.2725 22.01962,6.2713 -1.1551,3.2829 -30.86657,35.5801 -32.55094,35.3839 -0.90513,-0.1055 -12.11892,-4.5934 -24.91954,-9.9732 z"
       id="path4806"
       inkscape:connector-curvature="0" />
    <path
       style="opacity:1;fill:url(#meshgradient6444);fill-opacity:1;stroke:#000000;stroke-width:7.81173229;stroke-miterlimit:10;stroke-dasharray:none;stroke-opacity:1"
       d="m 555.83674,144.41206 c 5.31616,-17.46793 9.97492,-32.13963 10.35281,-32.60377 0.37789,-0.46413 13.25634,0.88416 28.61878,2.99622 15.36244,2.11206 29.08866,3.8401 30.50273,3.8401 1.41406,0 -10.27655,8.73703 -25.97913,19.41562 -15.70258,10.6786 -30.1681,21.21892 -32.1456,23.42295 -3.81446,4.25141 -17.93082,14.68876 -19.86634,14.68876 -0.63195,0 3.20059,-14.29194 8.51675,-31.75988 z"
       id="path4808"
       inkscape:connector-curvature="0" />
    <path
       style="opacity:1;fill:url(#meshgradient6430);fill-opacity:1;stroke:#000000;stroke-width:7.81173229;stroke-miterlimit:10;stroke-dasharray:none;stroke-opacity:1"
       d="m 646.28641,281.36032 c -9.88751,-1.12938 -19.53468,-2.34085 -21.43815,-2.69215 -1.90347,-0.3513 10.92078,-9.72284 28.49835,-20.82565 17.57756,-11.10282 32.45455,-22.08113 33.05997,-24.39625 1.03593,-3.96142 7.81927,-8.53781 7.81927,-5.27528 0,0.8317 -3.42295,13.74149 -7.60656,28.68844 l -7.60656,27.17626 -7.37451,-0.31097 c -4.05599,-0.17104 -15.4643,-1.23502 -25.35181,-2.3644 z"
       id="path4810"
       inkscape:connector-curvature="0" />
    <path
       style="opacity:1;fill:url(#linearGradient6472);fill-opacity:1;stroke:#000000;stroke-width:7.81173229;stroke-miterlimit:10;stroke-dasharray:none;stroke-opacity:1"
       d="m 822.54816,151.30084 c -7.56058,-9.88427 -70.79035,-124.35521 -69.47941,-125.78528 1.28007,-1.3964 32.34124,9.23428 49.02085,16.77737 15.55661,7.03524 15.59212,7.07406 23.3384,25.51926 10.32057,24.57501 10.70884,27.95189 7.22267,62.81728 l -2.99589,29.96215 z"
       id="path4812"
       inkscape:connector-curvature="0" />
    <path
       style="opacity:1;fill:url(#linearGradient6464);fill-opacity:1;stroke:#000000;stroke-width:7.81173229;stroke-miterlimit:10;stroke-dasharray:none;stroke-opacity:1"
       d="m 374.64955,223.51214 c -8.83702,-20.1046 -16.03594,-38.17178 -15.99759,-40.14928 0.26653,-13.74336 23.69896,-69.51765 32.15476,-76.53533 3.4262,-2.8435 3.79761,-0.58342 3.79761,23.10895 0,14.44338 -0.73392,26.99462 -1.63095,27.89165 -0.89702,0.89702 -1.35009,24.26749 -1.00682,51.93439 0.34326,27.6669 0.20251,50.30345 -0.31279,50.30345 -0.51529,0 -8.16719,-16.44922 -17.00422,-36.55383 z"
       id="path4814"
       inkscape:connector-curvature="0" />
    <path
       style="opacity:1;fill:url(#meshgradient6402);fill-opacity:1;stroke:#000000;stroke-width:7.81173229;stroke-miterlimit:10;stroke-dasharray:none;stroke-opacity:1"
       d="m 738.13731,439.07468 c -5.51123,-1.55719 -10.60807,-3.43378 -11.32631,-4.17019 -0.71825,-0.73641 4.63708,-7.2081 11.90074,-14.38153 11.63459,-11.49007 16.692,-14.36337 42.48695,-24.13838 16.10417,-6.10269 29.64741,-10.76937 30.09608,-10.37041 0.44868,0.39897 -3.74143,9.48492 -9.31135,20.19101 -7.43643,14.29377 -12.74802,21.26723 -19.99155,26.24649 -11.73052,8.06363 -29.34239,10.72342 -43.85456,6.62301 z"
       id="path4818"
       inkscape:connector-curvature="0" />
  </g>
</svg>
